<svg xmlns="http://www.w3.org/2000/svg" xmlns:xlink="http://www.w3.org/1999/xlink" viewBox="0 0 803.308 185.594"><defs><style>.cls-1,.cls-3,.cls-4,.cls-6{fill:none;}.cls-2{clip-path:url(#clip-path);}.cls-3,.cls-4,.cls-6{stroke:#32b0e7;stroke-width:0.847px;opacity:0.5;isolation:isolate;}.cls-3,.cls-6{stroke-linejoin:round;}.cls-4{stroke-miterlimit:10;}.cls-5{fill:#32b0e7;}.cls-6{stroke-linecap:round;}</style><clipPath id="clip-path" transform="translate(20.844 -36.663)"><rect class="cls-1" width="755" height="134"/></clipPath></defs><title>ADS ML Extension_background_image</title><g id="Layer_2" data-name="Layer 2"><g id="Layer_1-2" data-name="Layer 1"><g class="cls-2"><path class="cls-3" d="M150.368,170.592l73.492,7.135,23.308-13.438L223.86,150.851Z" transform="translate(20.844 -36.663)"/><path class="cls-4" d="M192.822,115.176l30.919,35.676,23.308-13.2-23.07-13.676Z" transform="translate(20.844 -36.663)"/><path class="cls-3" d="M223.741,150.851l.119-26.875,23.189,13.675v26.638Z" transform="translate(20.844 -36.663)"/><path class="cls-3" d="M150.368,170.592l42.454-55.416,30.919,35.675v26.876Z" transform="translate(20.844 -36.663)"/><path class="cls-5" d="M226.6,177.489a2.973,2.973,0,1,1-2.973-2.973A2.944,2.944,0,0,1,226.6,177.489Z" transform="translate(20.844 -36.663)"/><path class="cls-5" d="M226.833,150.614a2.973,2.973,0,1,1-2.973-2.973A2.945,2.945,0,0,1,226.833,150.614Z" transform="translate(20.844 -36.663)"/><path class="cls-5" d="M249.9,137.414a2.973,2.973,0,1,1-2.973-2.973A3.021,3.021,0,0,1,249.9,137.414Z" transform="translate(20.844 -36.663)"/><path class="cls-5" d="M226.714,123.976A2.973,2.973,0,1,1,223.741,121,2.944,2.944,0,0,1,226.714,123.976Z" transform="translate(20.844 -36.663)"/><path class="cls-5" d="M195.8,115.176a2.973,2.973,0,1,1-2.973-2.973A2.944,2.944,0,0,1,195.8,115.176Z" transform="translate(20.844 -36.663)"/><path class="cls-5" d="M249.9,164.289a2.973,2.973,0,1,1-2.973-2.973A2.944,2.944,0,0,1,249.9,164.289Z" transform="translate(20.844 -36.663)"/><path class="cls-3" d="M620.348,194.07l73.492,7.135,23.308-13.438L693.84,174.329Z" transform="translate(20.844 -36.663)"/><path class="cls-4" d="M662.8,138.654l30.919,35.676,23.308-13.2-23.07-13.676Z" transform="translate(20.844 -36.663)"/><path class="cls-3" d="M693.721,174.329l.119-26.875,23.189,13.675v26.638Z" transform="translate(20.844 -36.663)"/><path class="cls-3" d="M620.348,194.07,662.8,138.654l30.919,35.675v26.876Z" transform="translate(20.844 -36.663)"/><path class="cls-5" d="M696.575,200.967a2.973,2.973,0,1,1-2.973-2.973A2.944,2.944,0,0,1,696.575,200.967Z" transform="translate(20.844 -36.663)"/><path class="cls-5" d="M696.813,174.092a2.973,2.973,0,1,1-2.973-2.973A2.944,2.944,0,0,1,696.813,174.092Z" transform="translate(20.844 -36.663)"/><path class="cls-5" d="M719.883,160.892a2.973,2.973,0,1,1-2.973-2.973A3.021,3.021,0,0,1,719.883,160.892Z" transform="translate(20.844 -36.663)"/><path class="cls-5" d="M696.694,147.454a2.973,2.973,0,1,1-2.973-2.973A2.944,2.944,0,0,1,696.694,147.454Z" transform="translate(20.844 -36.663)"/><path class="cls-5" d="M665.775,138.654a2.973,2.973,0,1,1-2.973-2.973A2.944,2.944,0,0,1,665.775,138.654Z" transform="translate(20.844 -36.663)"/><path class="cls-5" d="M623.627,193.013a2.973,2.973,0,1,1-2.973-2.973A2.944,2.944,0,0,1,623.627,193.013Z" transform="translate(20.844 -36.663)"/><path class="cls-5" d="M719.883,187.767a2.973,2.973,0,1,1-2.973-2.973A2.944,2.944,0,0,1,719.883,187.767Z" transform="translate(20.844 -36.663)"/><path class="cls-6" d="M680.551,126.3l23.07,13.438,75.988-18.908L703.621,113.1Z" transform="translate(20.844 -36.663)"/><path class="cls-4" d="M680.551,99.42,703.74,113.1l23.307-13.438L703.977,86.22Z" transform="translate(20.844 -36.663)"/><path class="cls-6" d="M703.621,113.1l.119-26.876,23.189,13.438,52.8,21.167Z" transform="translate(20.844 -36.663)"/><path class="cls-4" d="M680.551,126.3V99.42L703.74,113.1v26.637Z" transform="translate(20.844 -36.663)"/><path class="cls-5" d="M782.463,118.944a2.973,2.973,0,1,1-2.973-2.973A2.873,2.873,0,0,1,782.463,118.944Z" transform="translate(20.844 -36.663)"/><path class="cls-5" d="M683.405,126.057a2.973,2.973,0,1,1-2.973-2.972A2.944,2.944,0,0,1,683.405,126.057Z" transform="translate(20.844 -36.663)"/><path class="cls-5" d="M706.712,112.977A2.973,2.973,0,1,1,703.74,110,2.873,2.873,0,0,1,706.712,112.977Z" transform="translate(20.844 -36.663)"/><path class="cls-5" d="M730.02,99.777a2.973,2.973,0,1,1-2.973-2.973A2.944,2.944,0,0,1,730.02,99.777Z" transform="translate(20.844 -36.663)"/><path class="cls-5" d="M706.594,86.22a2.973,2.973,0,1,1-2.973-2.973A2.944,2.944,0,0,1,706.594,86.22Z" transform="translate(20.844 -36.663)"/><path class="cls-5" d="M683.523,99.42a2.973,2.973,0,1,1-2.972-2.973A2.944,2.944,0,0,1,683.523,99.42Z" transform="translate(20.844 -36.663)"/><path class="cls-6" d="M159.539,115.6l-23.07-13.438L60.481,121.065l75.988,7.729Z" transform="translate(20.844 -36.663)"/><path class="cls-4" d="M159.539,142.47,136.35,128.794l-23.307,13.438,23.07,13.438Z" transform="translate(20.844 -36.663)"/><path class="cls-6" d="M136.469,128.794l-.119,26.876-23.189-13.438-52.8-21.167Z" transform="translate(20.844 -36.663)"/><path class="cls-4" d="M159.539,115.6V142.47L136.35,128.794V102.157Z" transform="translate(20.844 -36.663)"/><path class="cls-5" d="M57.627,120.946a2.973,2.973,0,1,1,2.973,2.973A2.873,2.873,0,0,1,57.627,120.946Z" transform="translate(20.844 -36.663)"/><path class="cls-5" d="M156.685,115.833a2.973,2.973,0,1,1,2.973,2.972A2.944,2.944,0,0,1,156.685,115.833Z" transform="translate(20.844 -36.663)"/><path class="cls-5" d="M133.378,128.913a2.973,2.973,0,1,1,2.972,2.973A2.873,2.873,0,0,1,133.378,128.913Z" transform="translate(20.844 -36.663)"/><path class="cls-5" d="M110.07,142.113a2.973,2.973,0,1,1,2.973,2.973A2.944,2.944,0,0,1,110.07,142.113Z" transform="translate(20.844 -36.663)"/><path class="cls-5" d="M133.5,155.67a2.973,2.973,0,1,1,2.973,2.973A2.944,2.944,0,0,1,133.5,155.67Z" transform="translate(20.844 -36.663)"/><path class="cls-5" d="M156.567,142.47a2.973,2.973,0,1,1,2.972,2.973A2.944,2.944,0,0,1,156.567,142.47Z" transform="translate(20.844 -36.663)"/><path class="cls-3" d="M291.61,142.132l57.318,55.654-10.7-55.059-23.308-13.8Z" transform="translate(20.844 -36.663)"/><path class="cls-4" d="M273.534,70.663l41.384,58.269L421.943,99.559,315.869,78.273Z" transform="translate(20.844 -36.663)"/><path class="cls-4" d="M314.918,128.932l.951-50.778L421.943,99.441l-83.718,43.285Z" transform="translate(20.844 -36.663)"/><path class="cls-3" d="M291.61,142.132,273.534,70.663l41.384,58.269,34.01,68.734Z" transform="translate(20.844 -36.663)"/><path class="cls-5" d="M341.079,142.727a2.973,2.973,0,1,1-2.972-2.973A2.873,2.873,0,0,1,341.079,142.727Z" transform="translate(20.844 -36.663)"/><path class="cls-5" d="M294.583,142.132a2.973,2.973,0,1,1-2.973-2.973A2.944,2.944,0,0,1,294.583,142.132Z" transform="translate(20.844 -36.663)"/><path class="cls-5" d="M317.772,129.051a2.973,2.973,0,1,1-2.973-2.973A2.945,2.945,0,0,1,317.772,129.051Z" transform="translate(20.844 -36.663)"/><path class="cls-5" d="M423.916,99.559a2.973,2.973,0,1,1-2.973-2.972A2.944,2.944,0,0,1,423.916,99.559Z" transform="translate(20.844 -36.663)"/><path class="cls-5" d="M318.723,78.273A2.973,2.973,0,1,1,315.75,75.3,2.944,2.944,0,0,1,318.723,78.273Z" transform="translate(20.844 -36.663)"/><path class="cls-5" d="M276.626,70.663a2.973,2.973,0,1,1-2.972-2.973A2.944,2.944,0,0,1,276.626,70.663Z" transform="translate(20.844 -36.663)"/><path class="cls-4" d="M362.555,146.029l23.189,13.676,23.308-13.2-23.07-13.676Z" transform="translate(20.844 -36.663)"/><path class="cls-3" d="M344.766,92.187l41.216,40.642,88.236,4.162-87.355-28.037Z" transform="translate(20.844 -36.663)"/><path class="cls-3" d="M385.863,132.829l1-23.875,87.355,28.037-65.166,9.514Z" transform="translate(20.844 -36.663)"/><path class="cls-3" d="M363.555,146.352,346.316,94.2l39.666,38.63.762,27.2Z" transform="translate(20.844 -36.663)"/><path class="cls-5" d="M411.787,146.386a2.973,2.973,0,1,1-2.973-2.973A2.944,2.944,0,0,1,411.787,146.386Z" transform="translate(20.844 -36.663)"/><path class="cls-5" d="M388.479,159.586a2.973,2.973,0,1,1-2.973-2.973A2.873,2.873,0,0,1,388.479,159.586Z" transform="translate(20.844 -36.663)"/><path class="cls-5" d="M365.409,145.91a2.973,2.973,0,1,1-2.973-2.973A2.873,2.873,0,0,1,365.409,145.91Z" transform="translate(20.844 -36.663)"/><path class="cls-5" d="M388.717,132.711a2.973,2.973,0,1,1-2.973-2.973A2.873,2.873,0,0,1,388.717,132.711Z" transform="translate(20.844 -36.663)"/><path class="cls-5" d="M476.954,136.873a2.973,2.973,0,1,1-2.973-2.973A2.874,2.874,0,0,1,476.954,136.873Z" transform="translate(20.844 -36.663)"/><path class="cls-5" d="M389.6,108.073a2.973,2.973,0,1,1-2.973-2.973A2.873,2.873,0,0,1,389.6,108.073Z" transform="translate(20.844 -36.663)"/><path class="cls-5" d="M347.858,92.187a2.973,2.973,0,1,1-2.973-2.973A2.944,2.944,0,0,1,347.858,92.187Z" transform="translate(20.844 -36.663)"/><path class="cls-3" d="M248.443,92.846v31.336l23.308-17.661L248.443,92.846Z" transform="translate(20.844 -36.663)"/><path class="cls-4" d="M248.443,123.825V92.489l23.308,13.676,33.534-2.854Z" transform="translate(20.844 -36.663)"/><path class="cls-5" d="M308.139,103.311a2.973,2.973,0,1,1-2.972-2.973A2.944,2.944,0,0,1,308.139,103.311Z" transform="translate(20.844 -36.663)"/><path class="cls-5" d="M250.9,122.66a2.973,2.973,0,1,1-2.972-2.972A2.944,2.944,0,0,1,250.9,122.66Z" transform="translate(20.844 -36.663)"/><path class="cls-5" d="M274.486,105.927a2.973,2.973,0,1,1-2.973-2.973A2.944,2.944,0,0,1,274.486,105.927Z" transform="translate(20.844 -36.663)"/><path class="cls-3" d="M478.885,203.034,457.226,219.3l20.834-16.1L503.5,213.605Z" transform="translate(20.844 -36.663)"/><path class="cls-4" d="M472.4,152.783,369.288,185.546l109.6,17.488,34.761-62.447Z" transform="translate(20.844 -36.663)"/><path class="cls-4" d="M457.226,219.3l-87.951-33.867,103.109-32.763,6.5,50.369Z" transform="translate(20.844 -36.663)"/><path class="cls-3" d="M478.047,203.08l.837-.046,34.761-62.447L503.5,213.605Z" transform="translate(20.844 -36.663)"/><path class="cls-5" d="M457.018,216.328a2.973,2.973,0,1,1-2.629,3.28A2.873,2.873,0,0,1,457.018,216.328Z" transform="translate(20.844 -36.663)"/><path class="cls-5" d="M503.171,210.65a2.973,2.973,0,1,1-2.63,3.28A2.944,2.944,0,0,1,503.171,210.65Z" transform="translate(20.844 -36.663)"/><path class="cls-5" d="M478.69,200.184a2.973,2.973,0,1,1-2.63,3.281A2.944,2.944,0,0,1,478.69,200.184Z" transform="translate(20.844 -36.663)"/><path class="cls-5" d="M472.19,149.815a2.973,2.973,0,1,1-2.63,3.281A2.944,2.944,0,0,1,472.19,149.815Z" transform="translate(20.844 -36.663)"/><path class="cls-5" d="M513.2,137.645a2.973,2.973,0,1,1-2.63,3.28A2.944,2.944,0,0,1,513.2,137.645Z" transform="translate(20.844 -36.663)"/><path class="cls-3" d="M405.185,191.047h0l3.488,23.635L445.2,169.774Z" transform="translate(20.844 -36.663)"/><path class="cls-5" d="M444.752,166.833a2.973,2.973,0,1,1-2.63,3.28A2.943,2.943,0,0,1,444.752,166.833Z" transform="translate(20.844 -36.663)"/><path class="cls-5" d="M405.516,188.085a2.973,2.973,0,1,1-2.63,3.28A2.944,2.944,0,0,1,405.516,188.085Z" transform="translate(20.844 -36.663)"/><path class="cls-3" d="M541.012,159.892,519.34,176.036l25.1,15-3.428-31.148Z" transform="translate(20.844 -36.663)"/><path class="cls-4" d="M485.656,176.513l33.646-.832,21.671-16.143,3.428,31.147Z" transform="translate(20.844 -36.663)"/><path class="cls-5" d="M485.449,173.545a2.973,2.973,0,1,1-2.63,3.28A2.944,2.944,0,0,1,485.449,173.545Z" transform="translate(20.844 -36.663)"/><path class="cls-5" d="M519.186,172.463a2.973,2.973,0,1,1-2.63,3.281A2.945,2.945,0,0,1,519.186,172.463Z" transform="translate(20.844 -36.663)"/><path class="cls-5" d="M251.416,92.489a2.973,2.973,0,1,1-2.973-2.973A2.873,2.873,0,0,1,251.416,92.489Z" transform="translate(20.844 -36.663)"/><path class="cls-3" d="M559.031,162.964l5.259,30.891L584.3,172.533l-25.272-9.569Z" transform="translate(20.844 -36.663)"/><path class="cls-4" d="M564.23,193.5l-5.259-30.891,25.272,9.57,32.581-8.442Z" transform="translate(20.844 -36.663)"/><path class="cls-5" d="M566.459,191.942a2.973,2.973,0,1,1-3.429-2.431A2.942,2.942,0,0,1,566.459,191.942Z" transform="translate(20.844 -36.663)"/><path class="cls-5" d="M586.9,171.488a2.973,2.973,0,1,1-3.43-2.432A2.943,2.943,0,0,1,586.9,171.488Z" transform="translate(20.844 -36.663)"/><path class="cls-5" d="M561.9,162.113a2.973,2.973,0,1,1-3.43-2.432A2.874,2.874,0,0,1,561.9,162.113Z" transform="translate(20.844 -36.663)"/><path class="cls-5" d="M620.5,163.07a2.973,2.973,0,1,1-3.43-2.432A2.875,2.875,0,0,1,620.5,163.07Z" transform="translate(20.844 -36.663)"/><path class="cls-3" d="M392.641,52.56l92.042,22.476,23.07,13.675L373.66,73.779Z" transform="translate(20.844 -36.663)"/><path class="cls-3" d="M461.494,115.111V88.236L392.76,52.56l91.923,76.226Z" transform="translate(20.844 -36.663)"/><path class="cls-5" d="M377.3,73.522a2.973,2.973,0,1,1-2.973-2.973A2.944,2.944,0,0,1,377.3,73.522Z" transform="translate(20.844 -36.663)"/><path class="cls-5" d="M487.418,128.548a2.973,2.973,0,1,1-2.973-2.972A3.02,3.02,0,0,1,487.418,128.548Z" transform="translate(20.844 -36.663)"/><path class="cls-5" d="M464.467,114.873a2.973,2.973,0,1,1-2.973-2.973A2.944,2.944,0,0,1,464.467,114.873Z" transform="translate(20.844 -36.663)"/><path class="cls-5" d="M395.614,52.322a2.973,2.973,0,1,1-2.973-2.973A2.944,2.944,0,0,1,395.614,52.322Z" transform="translate(20.844 -36.663)"/><path class="cls-5" d="M510.845,88.473a2.973,2.973,0,1,1-2.973-2.973A3.021,3.021,0,0,1,510.845,88.473Z" transform="translate(20.844 -36.663)"/><path class="cls-5" d="M487.537,75.036a2.973,2.973,0,1,1-2.973-2.973A3.021,3.021,0,0,1,487.537,75.036Z" transform="translate(20.844 -36.663)"/><path class="cls-5" d="M464.467,88.235a2.973,2.973,0,1,1-2.973-2.973A3.021,3.021,0,0,1,464.467,88.235Z" transform="translate(20.844 -36.663)"/><path class="cls-3" d="M540.779,130.8,560.446,108l57.6-5.667" transform="translate(20.844 -36.663)"/><path class="cls-3" d="M548.112,83.666,540.779,130.8" transform="translate(20.844 -36.663)"/><path class="cls-3" d="M617.98,63.6l17.2,49.067,32.933-24.133Z" transform="translate(20.844 -36.663)"/><path class="cls-3" d="M547.846,84.066l-61.793,24.2" transform="translate(20.844 -36.663)"/><path class="cls-3" d="M575.318,38.465l23.646,8.682L587.752,74.894s-14-35.992-14.048-36.211" transform="translate(20.844 -36.663)"/><path class="cls-3" d="M649.714,123.333l18.4-34.8-38,34.134,18.2.666" transform="translate(20.844 -36.663)"/><path class="cls-3" d="M618.447,102.466l-70.6-18.4,69.934-20.8,1,39.067A.243.243,0,0,0,618.447,102.466Z" transform="translate(20.844 -36.663)"/><path class="cls-3" d="M541.246,131.133l-55.193-22.867" transform="translate(20.844 -36.663)"/><path class="cls-3" d="M587.228,75.154l31.552,27.179" transform="translate(20.844 -36.663)"/><path class="cls-5" d="M582.913,75.866c3.6,2.266,6.933-1.067,4.667-4.667C583.979,68.866,580.646,72.266,582.913,75.866Z" transform="translate(20.844 -36.663)"/><path class="cls-5" d="M596.631,49.872c3.6,2.267,6.933-1.066,4.666-4.667C597.7,42.872,594.364,46.272,596.631,49.872Z" transform="translate(20.844 -36.663)"/><path class="cls-5" d="M572.328,42.1c3.6,2.266,6.933-1.067,4.667-4.667C573.4,35.1,570.061,38.5,572.328,42.1Z" transform="translate(20.844 -36.663)"/><path class="cls-5" d="M540.712,134a2.962,2.962,0,0,0,3.067-3,3.088,3.088,0,0,0-3.133-3.133,2.962,2.962,0,0,0-3,3.066A3.146,3.146,0,0,0,540.712,134Z" transform="translate(20.844 -36.663)"/><path class="cls-5" d="M487.4,111.075a3.067,3.067,0,1,0-3.62-2.389A3.147,3.147,0,0,0,487.4,111.075Z" transform="translate(20.844 -36.663)"/><path class="cls-5" d="M617.313,66.866c2.467,0,4.067-2.6,2.4-5.4l-.067-.066c-2.8-1.734-5.4-.134-5.4,2.4A3.057,3.057,0,0,0,617.313,66.866Z" transform="translate(20.844 -36.663)"/><path class="cls-5" d="M514.577,57.3a3.067,3.067,0,1,0-3.066-3.067A2.978,2.978,0,0,0,514.577,57.3Z" transform="translate(20.844 -36.663)"/><path class="cls-3" d="M517.711,54.232,553.845,67.5l-5.733,16.167s-32.8-28.767-32.868-29.1" transform="translate(20.844 -36.663)"/><path class="cls-5" d="M553.845,70.233a3.067,3.067,0,1,0-3.067-3.067A3.017,3.017,0,0,0,553.845,70.233Z" transform="translate(20.844 -36.663)"/><path class="cls-5" d="M618.78,105.6a3.03,3.03,0,0,0,2.866-2.867,3.183,3.183,0,0,0-3.332-3.333,3.029,3.029,0,0,0-2.867,2.866A3.15,3.15,0,0,0,618.78,105.6Z" transform="translate(20.844 -36.663)"/><path class="cls-5" d="M630.847,126.333a3.067,3.067,0,1,0-3.067-3.066A3.017,3.017,0,0,0,630.847,126.333Z" transform="translate(20.844 -36.663)"/><path class="cls-5" d="M547.979,86.666a3.067,3.067,0,1,0-3.067-3.067A3.018,3.018,0,0,0,547.979,86.666Z" transform="translate(20.844 -36.663)"/><path class="cls-5" d="M649.247,126.467a3.067,3.067,0,1,0-3.067-3.067A3.018,3.018,0,0,0,649.247,126.467Z" transform="translate(20.844 -36.663)"/><path class="cls-5" d="M560.646,111.133a3.067,3.067,0,1,0-3.067-3.067A2.94,2.94,0,0,0,560.646,111.133Z" transform="translate(20.844 -36.663)"/><path class="cls-6" d="M30.789,122.287l29.72,26.61-53.537-.078" transform="translate(20.844 -36.663)"/><path class="cls-6" d="M28.479,121.4l-46.042,13.709L6.972,148.819Z" transform="translate(20.844 -36.663)"/><path class="cls-5" d="M-20.8,133.64a3.225,3.225,0,0,0,2.7,3.765,3.225,3.225,0,0,0,3.765-2.7,3.226,3.226,0,0,0-2.7-3.766A3.268,3.268,0,0,0-20.8,133.64Z" transform="translate(20.844 -36.663)"/><path class="cls-5" d="M25.455,120.906a3.278,3.278,0,1,0,3.765-2.7A3.226,3.226,0,0,0,25.455,120.906Z" transform="translate(20.844 -36.663)"/><path class="cls-5" d="M3.737,148.289a3.225,3.225,0,0,0,2.7,3.765,3.278,3.278,0,0,0,1.061-6.47A3.225,3.225,0,0,0,3.737,148.289Z" transform="translate(20.844 -36.663)"/><path class="cls-3" d="M603.269,121.081l33.635,21.45h-50.1" transform="translate(20.844 -36.663)"/><path class="cls-3" d="M600.846,120.582l-41.84,18.528,27.16,3.706Z" transform="translate(20.844 -36.663)"/><path class="cls-5" d="M582.675,142.388a3.278,3.278,0,1,0,3.278-3.278A3.364,3.364,0,0,0,582.675,142.388Z" transform="translate(20.844 -36.663)"/><path class="cls-5" d="M597.782,120.583a3.278,3.278,0,1,0,3.278-3.278A3.226,3.226,0,0,0,597.782,120.583Z" transform="translate(20.844 -36.663)"/><path class="cls-5" d="M633.555,142.46a3.278,3.278,0,1,0,3.278-3.278A3.363,3.363,0,0,0,633.555,142.46Z" transform="translate(20.844 -36.663)"/><path class="cls-5" d="M556.054,139.1a3.278,3.278,0,1,0,3.278-3.278A3.226,3.226,0,0,0,556.054,139.1Z" transform="translate(20.844 -36.663)"/></g></g></g></svg>