<svg id="Layer_1" data-name="Layer 1" xmlns="http://www.w3.org/2000/svg" xmlns:xlink="http://www.w3.org/1999/xlink" viewBox="0 0 32 32"><defs><style>.cls-1{fill:#fff;}.cls-2{mask:url(#mask);}.cls-3{fill:url(#linear-gradient);}.cls-4{fill:url(#linear-gradient-2);}.cls-5{fill:url(#linear-gradient-3);}.cls-6{fill:#9cebff;}.cls-7{fill:url(#linear-gradient-4);}.cls-8{fill:url(#linear-gradient-5);}.cls-9{fill:none;}</style><mask id="mask" x="3.556" y="-6.4" width="37.926" height="38.4" maskUnits="userSpaceOnUse"><g id="mask0"><path id="Union" class="cls-1" d="M39.9-6.4a1.59,1.59,0,0,1,1.58,1.6V10.4A1.59,1.59,0,0,1,39.9,12H31.21V30.4A1.59,1.59,0,0,1,29.63,32H5.136a1.59,1.59,0,0,1-1.58-1.6V1.6A1.59,1.59,0,0,1,5.136,0H18.568V-4.8a1.59,1.59,0,0,1,1.58-1.6Z"/></g></mask><linearGradient id="linear-gradient" x1="17.383" y1="32" x2="17.383" gradientUnits="userSpaceOnUse"><stop offset="0.243" stop-color="#0078d7"/><stop offset="1" stop-color="#5ea0ef"/></linearGradient><linearGradient id="linear-gradient-2" x1="3.556" y1="20.543" x2="3.556" y2="18.173" gradientUnits="userSpaceOnUse"><stop offset="0" stop-color="#a3a3a3"/><stop offset="1" stop-color="#e6e6e6"/></linearGradient><linearGradient id="linear-gradient-3" x1="3.556" y1="27.259" x2="3.556" y2="24.889" xlink:href="#linear-gradient-2"/><linearGradient id="linear-gradient-4" x1="3.556" y1="7.111" x2="3.556" y2="4.741" xlink:href="#linear-gradient-2"/><linearGradient id="linear-gradient-5" x1="3.556" y1="13.827" x2="3.556" y2="11.457" xlink:href="#linear-gradient-2"/></defs><title>j_</title><g class="cls-2"><path id="Rectangle" class="cls-3" d="M3.556,1.6A1.59,1.59,0,0,1,5.136,0H29.63a1.59,1.59,0,0,1,1.58,1.6V30.4A1.59,1.59,0,0,1,29.63,32H5.136a1.59,1.59,0,0,1-1.58-1.6Z"/></g><g id="Union_2" data-name="Union 2"><path class="cls-4" d="M5.315,18.173H1.8a.918.918,0,0,0-1.006.79v.79a.918.918,0,0,0,1.006.79H5.315a.918.918,0,0,0,1.006-.79v-.79A.918.918,0,0,0,5.315,18.173Z"/></g><g id="Union_2-2" data-name="Union 2"><path class="cls-5" d="M5.315,24.889H1.8a.918.918,0,0,0-1.006.79v.79a.917.917,0,0,0,1.006.79H5.315a.917.917,0,0,0,1.006-.79v-.79A.918.918,0,0,0,5.315,24.889Z"/></g><g id="Union_2-3" data-name="Union 2"><path class="cls-6" d="M24.873,4.608H11.661A.736.736,0,0,0,11,5.4v4.667a.736.736,0,0,0,.666.79H24.873a.736.736,0,0,0,.666-.79V5.4A.736.736,0,0,0,24.873,4.608Z"/></g><g id="Union_2-4" data-name="Union 2"><path class="cls-7" d="M5.315,4.741H1.8a.917.917,0,0,0-1.006.79v.79a.918.918,0,0,0,1.006.79H5.315a.918.918,0,0,0,1.006-.79v-.79A.917.917,0,0,0,5.315,4.741Z"/></g><g id="Union_2-5" data-name="Union 2"><path class="cls-8" d="M5.315,11.457H1.8a.918.918,0,0,0-1.006.79v.79a.918.918,0,0,0,1.006.79H5.315a.918.918,0,0,0,1.006-.79v-.79A.918.918,0,0,0,5.315,11.457Z"/></g><rect class="cls-9" width="32" height="32"/></svg>