<svg width="7" height="6" viewBox="0 0 7 6" fill="none" xmlns="http://www.w3.org/2000/svg">
<path d="M0.867637 5.30449L2.86675 2.39516C2.95289 2.27437 2.99834 2.12929 2.99653 1.98094V0.76494C2.99653 0.702703 3.02125 0.643014 3.06526 0.599006C3.10927 0.554997 3.16896 0.530273 3.23119 0.530273H4.3663C4.39607 0.530273 4.42555 0.536136 4.45305 0.547527C4.48055 0.558918 4.50553 0.575615 4.52658 0.596663C4.54763 0.617711 4.56433 0.642698 4.57572 0.670198C4.58711 0.697699 4.59297 0.727174 4.59297 0.75694V2.06272C4.59359 2.16152 4.62463 2.25773 4.68186 2.33827L6.7263 5.30449C6.75424 5.3399 6.76702 5.38493 6.76185 5.42973C6.75669 5.47454 6.734 5.51548 6.69875 5.5436C6.66541 5.57035 6.62313 5.58338 6.58053 5.58005H1.00541C0.982853 5.581 0.960328 5.57747 0.939143 5.56965C0.917958 5.56183 0.898534 5.54989 0.881999 5.53451C0.865463 5.51913 0.852144 5.50062 0.842812 5.48006C0.833481 5.4595 0.828322 5.43729 0.827637 5.41471C0.828121 5.37451 0.842222 5.33565 0.867637 5.30449Z" fill="white"/>
</svg>
