<svg width="32" height="32" viewBox="0 0 32 32" fill="none" xmlns="http://www.w3.org/2000/svg">
<path d="M23.9086 31.9995C23.2047 32.0006 22.5125 31.8196 21.8992 31.474C21.2859 31.1285 20.7724 30.6302 20.4086 30.0275H11.6356C11.2712 30.6307 10.7569 31.1293 10.1427 31.4749C9.52851 31.8204 8.83536 32.0012 8.13064 31.9995C7.58627 32.0027 7.04707 31.8938 6.54664 31.6795C6.06084 31.468 5.61762 31.1698 5.23864 30.7995C4.85884 30.4313 4.55895 29.9887 4.35764 29.4995C4.15239 28.9929 4.04417 28.4522 4.03864 27.9055C4.03737 27.4638 4.10761 27.0248 4.24664 26.6055C4.37964 26.2093 4.57401 25.8365 4.82264 25.5005L1.33464 15.0265C0.946586 14.6683 0.63971 14.2312 0.434639 13.7445C0.215723 13.2399 0.101434 12.6962 0.0986837 12.1462C0.0959335 11.5961 0.20478 11.0513 0.418639 10.5445C0.629817 10.0593 0.927305 9.61648 1.29664 9.23752C1.66464 8.85742 2.10723 8.55748 2.59664 8.35653C3.10501 8.14987 3.64789 8.04129 4.19664 8.03653C4.42083 8.03648 4.64474 8.05252 4.86664 8.08453L11.9446 4.52453C11.9446 4.49153 11.9446 4.24053 11.9446 4.24053C11.9413 3.69582 12.0503 3.15628 12.2646 2.65553C12.4755 2.17037 12.7726 1.72752 13.1416 1.34853C13.5097 0.968507 13.9523 0.668579 14.4416 0.467525C14.9481 0.261471 15.4889 0.152902 16.0356 0.147525C16.5762 0.144419 17.1115 0.253731 17.6076 0.468525C18.0899 0.676559 18.532 0.967643 18.9136 1.32853C19.3011 1.69427 19.6077 2.13711 19.8136 2.62853C20.0249 3.12381 20.1386 3.65517 20.1486 4.19353V4.39353C20.1487 4.43842 20.145 4.48324 20.1376 4.52753L27.2716 8.09953C27.4617 8.05134 27.6577 8.03047 27.8536 8.03753C28.3982 8.03374 28.9375 8.14305 29.4376 8.35853C29.9234 8.56885 30.3666 8.86605 30.7456 9.23553C31.1253 9.60388 31.4252 10.0464 31.6266 10.5355C31.8326 11.0441 31.9408 11.5869 31.9456 12.1355C31.9508 12.8752 31.7514 13.602 31.3696 14.2355C30.9988 14.8494 30.4724 15.3545 29.8436 15.6995L27.1836 25.4605C27.6122 26.0308 27.8839 26.7034 27.9716 27.4114C28.0593 28.1193 27.96 28.8379 27.6836 29.4955C27.4709 29.9804 27.1713 30.4224 26.7996 30.7995C26.4313 31.1792 25.9888 31.4791 25.4996 31.6805C24.9948 31.8847 24.4562 31.9929 23.9116 31.9995H23.9086ZM23.9146 26.0825C23.6684 26.0797 23.4242 26.128 23.1976 26.2245C22.985 26.3162 22.7913 26.4468 22.6266 26.6095C22.4596 26.7807 22.3241 26.9801 22.2266 27.1985C22.126 27.4177 22.078 27.6575 22.0866 27.8985C22.0835 28.1448 22.1319 28.389 22.2286 28.6155C22.3203 28.8282 22.4509 29.0218 22.6136 29.1865C22.7845 29.3535 22.9836 29.4889 23.2016 29.5865C23.4038 29.6789 23.6234 29.727 23.8456 29.7275C24.1118 29.7348 24.3765 29.6861 24.6226 29.5845C24.8353 29.4935 25.0287 29.3628 25.1926 29.1995C25.3601 29.0287 25.4956 28.8292 25.5926 28.6105C25.6942 28.3916 25.7425 28.1517 25.7336 27.9105C25.7365 27.6643 25.6881 27.4201 25.5916 27.1935C25.5006 26.9809 25.3699 26.7874 25.2066 26.6235C25.036 26.4558 24.8365 26.3203 24.6176 26.2235C24.4171 26.1305 24.1987 26.082 23.9776 26.0815V25.9335L23.9146 26.0825ZM8.13664 26.0825C7.89038 26.0797 7.64623 26.128 7.41964 26.2245C7.20699 26.3162 7.01333 26.4468 6.84864 26.6095C6.68157 26.7807 6.54614 26.9801 6.44864 27.1985C6.34797 27.4177 6.30002 27.6575 6.30864 27.8985C6.30551 28.1448 6.35388 28.389 6.45064 28.6155C6.54229 28.8282 6.67286 29.0218 6.83564 29.1865C7.00654 29.3535 7.2056 29.4889 7.42364 29.5865C7.62579 29.6789 7.84537 29.727 8.06764 29.7275C8.3338 29.7348 8.59852 29.6861 8.84464 29.5845C9.05731 29.4935 9.25074 29.3628 9.41464 29.1995C9.58213 29.0287 9.71761 28.8292 9.81464 28.6105C9.91619 28.3916 9.96451 28.1517 9.95564 27.9105C9.95847 27.6643 9.91012 27.4201 9.81364 27.1935C9.72257 26.9809 9.59192 26.7874 9.42864 26.6235C9.25781 26.456 9.05832 26.3206 8.83964 26.2235C8.63908 26.1305 8.42073 26.082 8.19964 26.0815V25.9335L8.13664 26.0825ZM19.8256 27.7595L19.8426 27.4995L13.7236 22.9145L10.9826 24.9745C11.361 25.3282 11.6635 25.7552 11.8716 26.2295C12.0853 26.7123 12.2038 27.2318 12.2206 27.7595H19.8256ZM20.7256 25.3305C21.0952 24.8807 21.5534 24.5117 22.0716 24.2465C22.6417 23.9586 23.272 23.8105 23.9106 23.8145C24.3585 23.8149 24.8033 23.8882 25.2276 24.0315L27.3596 16.1865C26.8446 16.1191 26.3464 15.9578 25.8896 15.7105C25.4231 15.4583 25.0092 15.1188 24.6706 14.7105L15.6046 21.4995L20.7256 25.3305ZM6.72564 24.0635C7.17492 23.9021 7.64827 23.8179 8.12564 23.8145C8.31366 23.8143 8.50146 23.8273 8.68764 23.8535L11.8286 21.4995L4.75164 16.1855C4.67179 16.1999 4.59078 16.207 4.50964 16.2065C4.41745 16.2059 4.3253 16.2106 4.23364 16.2205H4.11864L6.72564 24.0635ZM13.7256 20.0795L23.7886 12.5365L23.7716 12.2765H8.27664C8.25879 12.8042 8.13998 13.3236 7.92664 13.8065C7.7185 14.2809 7.41643 14.7081 7.03864 15.0625L13.7256 20.0795ZM27.8606 10.3045C27.6144 10.3017 27.3702 10.35 27.1436 10.4465C26.931 10.5382 26.7373 10.6687 26.5726 10.8315C26.4055 11.0027 26.2701 11.2021 26.1726 11.4205C26.0712 11.6395 26.0229 11.8793 26.0316 12.1205C26.029 12.3668 26.0774 12.6109 26.1736 12.8375C26.2653 13.0502 26.3959 13.2438 26.5586 13.4085C26.7296 13.5758 26.9291 13.7113 27.1476 13.8085C27.3492 13.9017 27.5686 13.9501 27.7906 13.9505C28.0568 13.9581 28.3216 13.9093 28.5676 13.8075C28.7806 13.7165 28.9744 13.5858 29.1386 13.4225C29.3065 13.252 29.442 13.0524 29.5386 12.8335C29.6411 12.6149 29.6895 12.3748 29.6796 12.1335C29.6825 11.8873 29.6341 11.6431 29.5376 11.4165C29.4466 11.2039 29.3159 11.0104 29.1526 10.8465C28.982 10.6788 28.7825 10.5433 28.5636 10.4465C28.3631 10.3534 28.1447 10.3049 27.9236 10.3045V10.1565L27.8606 10.3045ZM3.31464 13.7295C3.58236 13.875 3.88194 13.952 4.18664 13.9535C4.43089 13.9557 4.67295 13.9073 4.89764 13.8115C5.11062 13.7205 5.30439 13.5898 5.46864 13.4265C5.6365 13.256 5.77203 13.0564 5.86864 12.8375C5.97063 12.6187 6.01897 12.3787 6.00964 12.1375C6.01247 11.8913 5.96412 11.6471 5.86764 11.4205C5.77657 11.2079 5.64592 11.0144 5.48264 10.8505C5.312 10.6828 5.11246 10.5473 4.89364 10.4505C4.69312 10.3574 4.47474 10.3089 4.25364 10.3085C3.98646 10.3006 3.72064 10.3494 3.47364 10.4515C3.26099 10.5432 3.06733 10.6737 2.90264 10.8365C2.73552 11.0077 2.60008 11.2071 2.50264 11.4255C2.40119 11.6445 2.35288 11.8843 2.36164 12.1255C2.3605 12.4368 2.43899 12.7432 2.58964 13.0155C2.71899 13.25 2.89987 13.4521 3.11864 13.6065L3.13864 13.5865L3.27364 13.6865L3.31464 13.7295ZM24.3476 10.0095C24.4223 9.8852 24.5041 9.76533 24.5926 9.65053C24.6586 9.56452 24.7296 9.48053 24.8036 9.39853L19.3186 6.66353C18.9592 7.16444 18.4854 7.57239 17.9366 7.85353C17.3447 8.16018 16.6893 8.32421 16.0226 8.33253C15.3613 8.33347 14.7094 8.17463 14.1226 7.86953C13.5676 7.5833 13.0879 7.1701 12.7226 6.66353L7.22964 9.39952C7.29864 9.48053 7.36564 9.56353 7.42964 9.64853C7.51831 9.76319 7.60364 9.88286 7.68564 10.0075L24.3476 10.0095ZM16.0256 2.41553C15.7794 2.41269 15.5352 2.46105 15.3086 2.55753C15.096 2.64918 14.9023 2.77975 14.7376 2.94253C14.5706 3.11369 14.4351 3.31311 14.3376 3.53153C14.237 3.75073 14.189 3.99046 14.1976 4.23153C14.1945 4.47781 14.2429 4.72203 14.3396 4.94853C14.4313 5.16118 14.5619 5.35483 14.7246 5.51953C14.8955 5.68652 15.0946 5.82194 15.3126 5.91953C15.5146 6.01272 15.7342 6.06115 15.9566 6.06153C16.2228 6.06883 16.4875 6.02011 16.7336 5.91853C16.9463 5.82746 17.1397 5.69681 17.3036 5.53353C17.4711 5.3627 17.6066 5.1632 17.7036 4.94453C17.8052 4.72558 17.8535 4.48571 17.8446 4.24453C17.8475 3.99827 17.7991 3.75411 17.7026 3.52753C17.6116 3.31485 17.4809 3.12142 17.3176 2.95753C17.1468 2.79004 16.9473 2.65456 16.7286 2.55753C16.5281 2.46448 16.3097 2.41603 16.0886 2.41553V2.26653L16.0256 2.41553Z" fill="#9CEBFF"/>
</svg>
