<svg xmlns="http://www.w3.org/2000/svg" width="16" height="16" viewBox="0 0 16 16">
  <title>ML_mlflow</title>
  <rect width="16" height="16" fill="none"/>
  <g>
    <path d="M9.316,15.683A4.408,4.408,0,0,1,8.759,15H2.766a.478.478,0,0,1-.356-.148.484.484,0,0,1-.144-.352.49.49,0,0,1,.07-.258L3.625,12h.007l.573-1h0L6.789,6.492A1.5,1.5,0,0,0,7,5.719V1H9V5.719a1.5,1.5,0,0,0,.211.773l1.178,2.055c.118-.064.228-.139.353-.193a4.257,4.257,0,0,1,.588-.182l-1.252-2.18A.5.5,0,0,1,10,5.719V1h1V0H5V1H6V5.719a.442.442,0,0,1-.078.265l-4.445,7.75a1.432,1.432,0,0,0-.161.368,1.507,1.507,0,0,0-.05.4A1.493,1.493,0,0,0,1.7,15.562a1.5,1.5,0,0,0,.477.321A1.474,1.474,0,0,0,2.766,16H9.7A4.486,4.486,0,0,1,9.316,15.683Z"/>
    <path d="M12.5,9a3.424,3.424,0,0,1,1.363.273,3.5,3.5,0,0,1,1.864,1.864,3.539,3.539,0,0,1,0,2.726,3.5,3.5,0,0,1-1.864,1.864,3.539,3.539,0,0,1-2.726,0,3.5,3.5,0,0,1-1.864-1.864,3.539,3.539,0,0,1,0-2.726,3.5,3.5,0,0,1,1.864-1.864A3.424,3.424,0,0,1,12.5,9ZM10,12.5a2.454,2.454,0,0,0,.2.973,2.487,2.487,0,0,0,1.332,1.332,2.454,2.454,0,0,0,.973.2,2.5,2.5,0,0,0,.719-.105,2.447,2.447,0,0,0,.656-.309l-3.461-3.461a2.447,2.447,0,0,0-.309.656A2.5,2.5,0,0,0,10,12.5Zm4.586,1.375a2.447,2.447,0,0,0,.309-.656A2.5,2.5,0,0,0,15,12.5a2.377,2.377,0,0,0-.2-.969A2.559,2.559,0,0,0,13.469,10.2,2.377,2.377,0,0,0,12.5,10a2.468,2.468,0,0,0-1.375.414Z"/>
  </g>
  <rect width="16" height="16" fill="none"/>
</svg>
