<svg xmlns="http://www.w3.org/2000/svg" width="16" height="16" viewBox="0 0 16 16">
  <title>ML_mlflow</title>
  <rect width="16" height="16" fill="none"/>
  <rect width="16" height="16" fill="none"/>
  <g>
    <path d="M9.148,15H2.766a.478.478,0,0,1-.356-.148.484.484,0,0,1-.144-.352.49.49,0,0,1,.07-.258L3.625,12h.007l.573-1h0L6.789,6.492A1.5,1.5,0,0,0,7,5.719V1H9V5.719a1.5,1.5,0,0,0,.211.773l.672,1.172L11.62,8.677,10.078,5.992A.5.5,0,0,1,10,5.719V1h1V0H5V1H6V5.719a.442.442,0,0,1-.078.265l-4.445,7.75a1.432,1.432,0,0,0-.161.368,1.507,1.507,0,0,0-.05.4A1.493,1.493,0,0,0,1.7,15.562a1.5,1.5,0,0,0,.477.321A1.474,1.474,0,0,0,2.766,16H9.148Z"/>
    <path d="M10.148,8.977l6,3.5-6,3.5Zm1,5.2,3-1.7-3-1.7Z"/>
  </g>
</svg>
