<svg xmlns="http://www.w3.org/2000/svg" width="16" height="16" viewBox="0 0 16 16">
  <title>Artboard 10</title>
  <g>
    <path d="M4,6h7V3H4ZM5,4h5V5H5Z"/>
    <path d="M3,0a1.732,1.732,0,0,0-.742.168,2.256,2.256,0,0,0-1.09,1.09A1.735,1.735,0,0,0,1,2V14a1.947,1.947,0,0,0,.156.777,2.018,2.018,0,0,0,1.067,1.067A1.947,1.947,0,0,0,3,16H14V0ZM3,15a.972.972,0,0,1-.391-.078,1.023,1.023,0,0,1-.531-.531,1.019,1.019,0,0,1,0-.782,1.024,1.024,0,0,1,.215-.316,1.012,1.012,0,0,1,.316-.215A.972.972,0,0,1,3,13H13v2Zm10-3H3a1.836,1.836,0,0,0-.523.074A2.194,2.194,0,0,0,2,12.281V2a.8.8,0,0,1,.09-.359,1.223,1.223,0,0,1,.23-.321,1.246,1.246,0,0,1,.321-.23A.792.792,0,0,1,3,1H13Z"/>
  </g>
</svg>
