<svg id="Layer_1" data-name="Layer 1" xmlns="http://www.w3.org/2000/svg" viewBox="0 0 16 16"><defs><style>.cls-1{fill:#212121;}</style></defs><title>connect</title><path id="path1" class="cls-1" d="M7.67,5.75H9l0,4.51H7.64Zm-3.47,3H5.36l0,2.41c0,1.88,1.23,3.42,2.76,3.43h.31c1.54,0,2.8-1.51,2.82-3.38l0-2.41h1.16l0,2.41c0,2.66-1.8,4.8-4,4.78H8.1c-2.18,0-3.93-2.19-3.91-4.84ZM5.7,1.12A3.53,3.53,0,0,1,8.22,0h.31c2.18,0,3.93,2.19,3.91,4.85l0,2.41H11.26l0-2.41c0-1.88-1.23-3.41-2.76-3.43H8.21C6.67,1.44,5.41,3,5.39,4.84l0,2.41H4.22l0-2.41A5.28,5.28,0,0,1,5.7,1.12Z"/></svg>