<svg id="Layer_1" data-name="Layer 1" xmlns="http://www.w3.org/2000/svg" viewBox="0 0 16 16"><defs><style>.cls-1{fill:#212121;}</style></defs><title>create_dashboard_insight_16x16</title><path d="M13.36,6.77A5.25,5.25,0,0,0,13,5.67l-.91.4a4.54,4.54,0,0,1,.41,1.87,4.31,4.31,0,0,1-.34,1.71,4.59,4.59,0,0,1-1,1.45l.71.71A5.22,5.22,0,0,0,13.07,10a5.38,5.38,0,0,0,.41-2.1A5.47,5.47,0,0,0,13.36,6.77ZM12.23,4.4l-.71-.71L8.65,6.57a1.5,1.5,0,0,0-1.24,0,1.27,1.27,0,0,0-.47.32,1.4,1.4,0,0,0-.32.47,1.48,1.48,0,0,0-.12.59,1.4,1.4,0,0,0,.12.58A1.35,1.35,0,0,0,6.94,9a1.4,1.4,0,0,0,.47.32,1.51,1.51,0,0,0,1.18,0A1.4,1.4,0,0,0,9.06,9a1.23,1.23,0,0,0,.32-.48,1.4,1.4,0,0,0,.12-.58,1.47,1.47,0,0,0-.15-.65ZM8.35,8.27a.48.48,0,0,1-.7,0,.49.49,0,0,1-.15-.35.5.5,0,0,1,1,0A.49.49,0,0,1,8.35,8.27Zm.8-5.71A5,5,0,0,0,8,2.43a5.49,5.49,0,0,0-1.47.2,5.42,5.42,0,0,0-1.31.55A5.16,5.16,0,0,0,4.11,4a5.49,5.49,0,0,0-.86,1.11A5.26,5.26,0,0,0,2.7,6.46a5.42,5.42,0,0,0-.2,1.46,5.43,5.43,0,0,0,1.61,3.89l.71-.71a4.52,4.52,0,0,1-1-1.46A4.4,4.4,0,0,1,3.5,7.92a4.27,4.27,0,0,1,.16-1.19,4.92,4.92,0,0,1,.45-1.08,5.12,5.12,0,0,1,.7-.91,4.64,4.64,0,0,1,2-1.16A4.27,4.27,0,0,1,8,3.42a4.45,4.45,0,0,1,1.86.4l.41-.9A5.25,5.25,0,0,0,9.15,2.56Zm4.21,4.21A5.25,5.25,0,0,0,13,5.67l-.91.4a4.54,4.54,0,0,1,.41,1.87,4.31,4.31,0,0,1-.34,1.71,4.59,4.59,0,0,1-1,1.45l.71.71A5.22,5.22,0,0,0,13.07,10a5.38,5.38,0,0,0,.41-2.1A5.47,5.47,0,0,0,13.36,6.77ZM12.23,4.4l-.71-.71L8.65,6.57a1.5,1.5,0,0,0-1.24,0,1.27,1.27,0,0,0-.47.32,1.4,1.4,0,0,0-.32.47,1.48,1.48,0,0,0-.12.59,1.4,1.4,0,0,0,.12.58A1.35,1.35,0,0,0,6.94,9a1.4,1.4,0,0,0,.47.32,1.51,1.51,0,0,0,1.18,0A1.4,1.4,0,0,0,9.06,9a1.23,1.23,0,0,0,.32-.48,1.4,1.4,0,0,0,.12-.58,1.47,1.47,0,0,0-.15-.65ZM8.35,8.27a.48.48,0,0,1-.7,0,.49.49,0,0,1-.15-.35.5.5,0,0,1,1,0A.49.49,0,0,1,8.35,8.27Zm.8-5.71A5,5,0,0,0,8,2.43a5.49,5.49,0,0,0-1.47.2,5.42,5.42,0,0,0-1.31.55A5.16,5.16,0,0,0,4.11,4a5.49,5.49,0,0,0-.86,1.11A5.26,5.26,0,0,0,2.7,6.46a5.42,5.42,0,0,0-.2,1.46,5.43,5.43,0,0,0,1.61,3.89l.71-.71a4.52,4.52,0,0,1-1-1.46A4.4,4.4,0,0,1,3.5,7.92a4.27,4.27,0,0,1,.16-1.19,4.92,4.92,0,0,1,.45-1.08,5.12,5.12,0,0,1,.7-.91,4.64,4.64,0,0,1,2-1.16A4.27,4.27,0,0,1,8,3.42a4.45,4.45,0,0,1,1.86.4l.41-.9A5.25,5.25,0,0,0,9.15,2.56Zm0,0A5,5,0,0,0,8,2.43a5.49,5.49,0,0,0-1.47.2,5.42,5.42,0,0,0-1.31.55A5.16,5.16,0,0,0,4.11,4a5.49,5.49,0,0,0-.86,1.11A5.26,5.26,0,0,0,2.7,6.46a5.42,5.42,0,0,0-.2,1.46,5.43,5.43,0,0,0,1.61,3.89l.71-.71a4.52,4.52,0,0,1-1-1.46A4.4,4.4,0,0,1,3.5,7.92a4.27,4.27,0,0,1,.16-1.19,4.92,4.92,0,0,1,.45-1.08,5.12,5.12,0,0,1,.7-.91,4.64,4.64,0,0,1,2-1.16A4.27,4.27,0,0,1,8,3.42a4.45,4.45,0,0,1,1.86.4l.41-.9A5.25,5.25,0,0,0,9.15,2.56ZM12.23,4.4l-.71-.71L8.65,6.57a1.5,1.5,0,0,0-1.24,0,1.27,1.27,0,0,0-.47.32,1.4,1.4,0,0,0-.32.47,1.48,1.48,0,0,0-.12.59,1.4,1.4,0,0,0,.12.58A1.35,1.35,0,0,0,6.94,9a1.4,1.4,0,0,0,.47.32,1.51,1.51,0,0,0,1.18,0A1.4,1.4,0,0,0,9.06,9a1.23,1.23,0,0,0,.32-.48,1.4,1.4,0,0,0,.12-.58,1.47,1.47,0,0,0-.15-.65ZM8.35,8.27a.48.48,0,0,1-.7,0,.49.49,0,0,1-.15-.35.5.5,0,0,1,1,0A.49.49,0,0,1,8.35,8.27Zm5-1.5A5.25,5.25,0,0,0,13,5.67l-.91.4a4.54,4.54,0,0,1,.41,1.87,4.31,4.31,0,0,1-.34,1.71,4.59,4.59,0,0,1-1,1.45l.71.71A5.22,5.22,0,0,0,13.07,10a5.38,5.38,0,0,0,.41-2.1A5.47,5.47,0,0,0,13.36,6.77Zm1.87-.84a7.31,7.31,0,0,0-.76-1.79A6.92,6.92,0,0,0,13.3,2.62a6.92,6.92,0,0,0-1.52-1.17A7.48,7.48,0,0,0,10,.69a7.47,7.47,0,0,0-4,0,7.48,7.48,0,0,0-1.79.76A7.17,7.17,0,0,0,2.7,2.62,6.92,6.92,0,0,0,1.53,4.14,7.46,7.46,0,0,0,.77,9.91a7.65,7.65,0,0,0,.76,1.79,7.43,7.43,0,0,0,2.69,2.69A7.47,7.47,0,0,0,6,15.15a7.47,7.47,0,0,0,4,0,6,6,0,0,0,1-.34,1.46,1.46,0,0,1-.17-.24l0-.07a1.66,1.66,0,0,1-.22-.59,5.42,5.42,0,0,1-.77.27,6.36,6.36,0,0,1-3.46,0,6.44,6.44,0,0,1-1.55-.65,6.16,6.16,0,0,1-1.31-1,6.15,6.15,0,0,1-1-1.31,7.09,7.09,0,0,1-.66-1.55,6.62,6.62,0,0,1,0-3.46,6.89,6.89,0,0,1,.66-1.55A6.5,6.5,0,0,1,4.72,2.31a6.89,6.89,0,0,1,1.55-.66,6.62,6.62,0,0,1,3.46,0,6.89,6.89,0,0,1,1.55.66,6.5,6.5,0,0,1,2.33,2.33,6.89,6.89,0,0,1,.66,1.55,6.62,6.62,0,0,1,0,3.46,6.7,6.7,0,0,1-.28.79,1.21,1.21,0,0,1,.79.68,8.34,8.34,0,0,0,.45-1.21,7.47,7.47,0,0,0,0-4Zm-1.87.84A5.25,5.25,0,0,0,13,5.67l-.91.4a4.54,4.54,0,0,1,.41,1.87,4.31,4.31,0,0,1-.34,1.71,4.59,4.59,0,0,1-1,1.45l.71.71A5.22,5.22,0,0,0,13.07,10a5.38,5.38,0,0,0,.41-2.1A5.47,5.47,0,0,0,13.36,6.77ZM12.23,4.4l-.71-.71L8.65,6.57a1.5,1.5,0,0,0-1.24,0,1.27,1.27,0,0,0-.47.32,1.4,1.4,0,0,0-.32.47,1.48,1.48,0,0,0-.12.59,1.4,1.4,0,0,0,.12.58A1.35,1.35,0,0,0,6.94,9a1.4,1.4,0,0,0,.47.32,1.51,1.51,0,0,0,1.18,0A1.4,1.4,0,0,0,9.06,9a1.23,1.23,0,0,0,.32-.48,1.4,1.4,0,0,0,.12-.58,1.47,1.47,0,0,0-.15-.65ZM8.35,8.27a.48.48,0,0,1-.7,0,.49.49,0,0,1-.15-.35.5.5,0,0,1,1,0A.49.49,0,0,1,8.35,8.27Zm.8-5.71A5,5,0,0,0,8,2.43a5.49,5.49,0,0,0-1.47.2,5.42,5.42,0,0,0-1.31.55A5.16,5.16,0,0,0,4.11,4a5.49,5.49,0,0,0-.86,1.11A5.26,5.26,0,0,0,2.7,6.46a5.42,5.42,0,0,0-.2,1.46,5.43,5.43,0,0,0,1.61,3.89l.71-.71a4.52,4.52,0,0,1-1-1.46A4.4,4.4,0,0,1,3.5,7.92a4.27,4.27,0,0,1,.16-1.19,4.92,4.92,0,0,1,.45-1.08,5.12,5.12,0,0,1,.7-.91,4.64,4.64,0,0,1,2-1.16A4.27,4.27,0,0,1,8,3.42a4.45,4.45,0,0,1,1.86.4l.41-.9A5.25,5.25,0,0,0,9.15,2.56Zm4.21,4.21A5.25,5.25,0,0,0,13,5.67l-.91.4a4.54,4.54,0,0,1,.41,1.87,4.31,4.31,0,0,1-.34,1.71,4.59,4.59,0,0,1-1,1.45l.71.71A5.22,5.22,0,0,0,13.07,10a5.38,5.38,0,0,0,.41-2.1A5.47,5.47,0,0,0,13.36,6.77ZM12.23,4.4l-.71-.71L8.65,6.57a1.5,1.5,0,0,0-1.24,0,1.27,1.27,0,0,0-.47.32,1.4,1.4,0,0,0-.32.47,1.48,1.48,0,0,0-.12.59,1.4,1.4,0,0,0,.12.58A1.35,1.35,0,0,0,6.94,9a1.4,1.4,0,0,0,.47.32,1.51,1.51,0,0,0,1.18,0A1.4,1.4,0,0,0,9.06,9a1.23,1.23,0,0,0,.32-.48,1.4,1.4,0,0,0,.12-.58,1.47,1.47,0,0,0-.15-.65ZM8.35,8.27a.48.48,0,0,1-.7,0,.49.49,0,0,1-.15-.35.5.5,0,0,1,1,0A.49.49,0,0,1,8.35,8.27Zm.8-5.71A5,5,0,0,0,8,2.43a5.49,5.49,0,0,0-1.47.2,5.42,5.42,0,0,0-1.31.55A5.16,5.16,0,0,0,4.11,4a5.49,5.49,0,0,0-.86,1.11A5.26,5.26,0,0,0,2.7,6.46a5.42,5.42,0,0,0-.2,1.46,5.43,5.43,0,0,0,1.61,3.89l.71-.71a4.52,4.52,0,0,1-1-1.46A4.4,4.4,0,0,1,3.5,7.92a4.27,4.27,0,0,1,.16-1.19,4.92,4.92,0,0,1,.45-1.08,5.12,5.12,0,0,1,.7-.91,4.64,4.64,0,0,1,2-1.16A4.27,4.27,0,0,1,8,3.42a4.45,4.45,0,0,1,1.86.4l.41-.9A5.25,5.25,0,0,0,9.15,2.56Z"/><polygon class="cls-1" points="15.86 13.26 15.86 14.07 13.91 14.07 13.91 16 13.11 16 13.11 14.07 11.18 14.07 11.18 13.26 13.11 13.26 13.11 11.32 13.91 11.32 13.91 13.26 15.86 13.26"/></svg>