<svg id="Layer_1" data-name="Layer 1" xmlns="http://www.w3.org/2000/svg" viewBox="0 0 16 16"><defs><style>.cls-1{fill:#fff;}</style></defs><title>create_dashboard_insight_inverse_16x16</title><path class="cls-1" d="M13.18,6.35a5.25,5.25,0,0,0-.36-1.1l-.91.4a4.54,4.54,0,0,1,.41,1.87A4.31,4.31,0,0,1,12,9.23a4.59,4.59,0,0,1-1,1.45l.71.71A5.22,5.22,0,0,0,12.89,9.6a5.38,5.38,0,0,0,.41-2.1A5.47,5.47,0,0,0,13.18,6.35ZM12.05,4l-.71-.71L8.47,6.15a1.5,1.5,0,0,0-1.24,0,1.27,1.27,0,0,0-.47.32,1.4,1.4,0,0,0-.32.47,1.48,1.48,0,0,0-.12.59,1.4,1.4,0,0,0,.12.58,1.35,1.35,0,0,0,.32.48,1.4,1.4,0,0,0,.47.32,1.51,1.51,0,0,0,1.18,0,1.4,1.4,0,0,0,.47-.32,1.23,1.23,0,0,0,.32-.48,1.4,1.4,0,0,0,.12-.58,1.47,1.47,0,0,0-.15-.65ZM8.17,7.85a.48.48,0,0,1-.7,0,.49.49,0,0,1-.15-.35.5.5,0,0,1,1,0A.49.49,0,0,1,8.17,7.85ZM9,2.14A5,5,0,0,0,7.82,2a5.49,5.49,0,0,0-1.47.2A5.42,5.42,0,0,0,5,2.76a5.16,5.16,0,0,0-1.11.86,5.49,5.49,0,0,0-.86,1.11A5.26,5.26,0,0,0,2.52,6a5.42,5.42,0,0,0-.2,1.46,5.43,5.43,0,0,0,1.61,3.89l.71-.71a4.52,4.52,0,0,1-1-1.46A4.4,4.4,0,0,1,3.32,7.5a4.27,4.27,0,0,1,.16-1.19,4.92,4.92,0,0,1,.45-1.08,5.12,5.12,0,0,1,.7-.91,4.64,4.64,0,0,1,2-1.16A4.27,4.27,0,0,1,7.8,3a4.45,4.45,0,0,1,1.86.4l.41-.9A5.25,5.25,0,0,0,9,2.14Zm4.21,4.21a5.25,5.25,0,0,0-.36-1.1l-.91.4a4.54,4.54,0,0,1,.41,1.87A4.31,4.31,0,0,1,12,9.23a4.59,4.59,0,0,1-1,1.45l.71.71A5.22,5.22,0,0,0,12.89,9.6a5.38,5.38,0,0,0,.41-2.1A5.47,5.47,0,0,0,13.18,6.35ZM12.05,4l-.71-.71L8.47,6.15a1.5,1.5,0,0,0-1.24,0,1.27,1.27,0,0,0-.47.32,1.4,1.4,0,0,0-.32.47,1.48,1.48,0,0,0-.12.59,1.4,1.4,0,0,0,.12.58,1.35,1.35,0,0,0,.32.48,1.4,1.4,0,0,0,.47.32,1.51,1.51,0,0,0,1.18,0,1.4,1.4,0,0,0,.47-.32,1.23,1.23,0,0,0,.32-.48,1.4,1.4,0,0,0,.12-.58,1.47,1.47,0,0,0-.15-.65ZM8.17,7.85a.48.48,0,0,1-.7,0,.49.49,0,0,1-.15-.35.5.5,0,0,1,1,0A.49.49,0,0,1,8.17,7.85ZM9,2.14A5,5,0,0,0,7.82,2a5.49,5.49,0,0,0-1.47.2A5.42,5.42,0,0,0,5,2.76a5.16,5.16,0,0,0-1.11.86,5.49,5.49,0,0,0-.86,1.11A5.26,5.26,0,0,0,2.52,6a5.42,5.42,0,0,0-.2,1.46,5.43,5.43,0,0,0,1.61,3.89l.71-.71a4.52,4.52,0,0,1-1-1.46A4.4,4.4,0,0,1,3.32,7.5a4.27,4.27,0,0,1,.16-1.19,4.92,4.92,0,0,1,.45-1.08,5.12,5.12,0,0,1,.7-.91,4.64,4.64,0,0,1,2-1.16A4.27,4.27,0,0,1,7.8,3a4.45,4.45,0,0,1,1.86.4l.41-.9A5.25,5.25,0,0,0,9,2.14Zm0,0A5,5,0,0,0,7.82,2a5.49,5.49,0,0,0-1.47.2A5.42,5.42,0,0,0,5,2.76a5.16,5.16,0,0,0-1.11.86,5.49,5.49,0,0,0-.86,1.11A5.26,5.26,0,0,0,2.52,6a5.42,5.42,0,0,0-.2,1.46,5.43,5.43,0,0,0,1.61,3.89l.71-.71a4.52,4.52,0,0,1-1-1.46A4.4,4.4,0,0,1,3.32,7.5a4.27,4.27,0,0,1,.16-1.19,4.92,4.92,0,0,1,.45-1.08,5.12,5.12,0,0,1,.7-.91,4.64,4.64,0,0,1,2-1.16A4.27,4.27,0,0,1,7.8,3a4.45,4.45,0,0,1,1.86.4l.41-.9A5.25,5.25,0,0,0,9,2.14ZM12.05,4l-.71-.71L8.47,6.15a1.5,1.5,0,0,0-1.24,0,1.27,1.27,0,0,0-.47.32,1.4,1.4,0,0,0-.32.47,1.48,1.48,0,0,0-.12.59,1.4,1.4,0,0,0,.12.58,1.35,1.35,0,0,0,.32.48,1.4,1.4,0,0,0,.47.32,1.51,1.51,0,0,0,1.18,0,1.4,1.4,0,0,0,.47-.32,1.23,1.23,0,0,0,.32-.48,1.4,1.4,0,0,0,.12-.58,1.47,1.47,0,0,0-.15-.65ZM8.17,7.85a.48.48,0,0,1-.7,0,.49.49,0,0,1-.15-.35.5.5,0,0,1,1,0A.49.49,0,0,1,8.17,7.85Zm5-1.5a5.25,5.25,0,0,0-.36-1.1l-.91.4a4.54,4.54,0,0,1,.41,1.87A4.31,4.31,0,0,1,12,9.23a4.59,4.59,0,0,1-1,1.45l.71.71A5.22,5.22,0,0,0,12.89,9.6a5.38,5.38,0,0,0,.41-2.1A5.47,5.47,0,0,0,13.18,6.35Zm1.87-.84a7.31,7.31,0,0,0-.76-1.79A6.92,6.92,0,0,0,13.12,2.2,6.92,6.92,0,0,0,11.6,1,7.48,7.48,0,0,0,9.81.27a7.47,7.47,0,0,0-4,0A7.48,7.48,0,0,0,4,1,7.17,7.17,0,0,0,2.52,2.2,6.92,6.92,0,0,0,1.35,3.72a7.43,7.43,0,0,0-1,3.78,7.3,7.3,0,0,0,.27,2,7.65,7.65,0,0,0,.76,1.79A7.43,7.43,0,0,0,4,14a7.47,7.47,0,0,0,1.79.76,7.47,7.47,0,0,0,4,0,6,6,0,0,0,1-.34,1.46,1.46,0,0,1-.17-.24l0-.07a1.66,1.66,0,0,1-.22-.59,5.42,5.42,0,0,1-.77.27,6.36,6.36,0,0,1-3.46,0,6.44,6.44,0,0,1-1.55-.65,6.16,6.16,0,0,1-1.31-1,6.15,6.15,0,0,1-1-1.31,7.09,7.09,0,0,1-.66-1.55,6.62,6.62,0,0,1,0-3.46,6.89,6.89,0,0,1,.66-1.55A6.5,6.5,0,0,1,4.54,1.89a6.89,6.89,0,0,1,1.55-.66,6.62,6.62,0,0,1,3.46,0,6.89,6.89,0,0,1,1.55.66,6.5,6.5,0,0,1,2.33,2.33,6.89,6.89,0,0,1,.66,1.55,6.62,6.62,0,0,1,0,3.46,6.7,6.7,0,0,1-.28.79,1.21,1.21,0,0,1,.79.68,8.34,8.34,0,0,0,.45-1.21,7.47,7.47,0,0,0,0-4Zm-1.87.84a5.25,5.25,0,0,0-.36-1.1l-.91.4a4.54,4.54,0,0,1,.41,1.87A4.31,4.31,0,0,1,12,9.23a4.59,4.59,0,0,1-1,1.45l.71.71A5.22,5.22,0,0,0,12.89,9.6a5.38,5.38,0,0,0,.41-2.1A5.47,5.47,0,0,0,13.18,6.35ZM12.05,4l-.71-.71L8.47,6.15a1.5,1.5,0,0,0-1.24,0,1.27,1.27,0,0,0-.47.32,1.4,1.4,0,0,0-.32.47,1.48,1.48,0,0,0-.12.59,1.4,1.4,0,0,0,.12.58,1.35,1.35,0,0,0,.32.48,1.4,1.4,0,0,0,.47.32,1.51,1.51,0,0,0,1.18,0,1.4,1.4,0,0,0,.47-.32,1.23,1.23,0,0,0,.32-.48,1.4,1.4,0,0,0,.12-.58,1.47,1.47,0,0,0-.15-.65ZM8.17,7.85a.48.48,0,0,1-.7,0,.49.49,0,0,1-.15-.35.5.5,0,0,1,1,0A.49.49,0,0,1,8.17,7.85ZM9,2.14A5,5,0,0,0,7.82,2a5.49,5.49,0,0,0-1.47.2A5.42,5.42,0,0,0,5,2.76a5.16,5.16,0,0,0-1.11.86,5.49,5.49,0,0,0-.86,1.11A5.26,5.26,0,0,0,2.52,6a5.42,5.42,0,0,0-.2,1.46,5.43,5.43,0,0,0,1.61,3.89l.71-.71a4.52,4.52,0,0,1-1-1.46A4.4,4.4,0,0,1,3.32,7.5a4.27,4.27,0,0,1,.16-1.19,4.92,4.92,0,0,1,.45-1.08,5.12,5.12,0,0,1,.7-.91,4.64,4.64,0,0,1,2-1.16A4.27,4.27,0,0,1,7.8,3a4.45,4.45,0,0,1,1.86.4l.41-.9A5.25,5.25,0,0,0,9,2.14Zm4.21,4.21a5.25,5.25,0,0,0-.36-1.1l-.91.4a4.54,4.54,0,0,1,.41,1.87A4.31,4.31,0,0,1,12,9.23a4.59,4.59,0,0,1-1,1.45l.71.71A5.22,5.22,0,0,0,12.89,9.6a5.38,5.38,0,0,0,.41-2.1A5.47,5.47,0,0,0,13.18,6.35ZM12.05,4l-.71-.71L8.47,6.15a1.5,1.5,0,0,0-1.24,0,1.27,1.27,0,0,0-.47.32,1.4,1.4,0,0,0-.32.47,1.48,1.48,0,0,0-.12.59,1.4,1.4,0,0,0,.12.58,1.35,1.35,0,0,0,.32.48,1.4,1.4,0,0,0,.47.32,1.51,1.51,0,0,0,1.18,0,1.4,1.4,0,0,0,.47-.32,1.23,1.23,0,0,0,.32-.48,1.4,1.4,0,0,0,.12-.58,1.47,1.47,0,0,0-.15-.65ZM8.17,7.85a.48.48,0,0,1-.7,0,.49.49,0,0,1-.15-.35.5.5,0,0,1,1,0A.49.49,0,0,1,8.17,7.85ZM9,2.14A5,5,0,0,0,7.82,2a5.49,5.49,0,0,0-1.47.2A5.42,5.42,0,0,0,5,2.76a5.16,5.16,0,0,0-1.11.86,5.49,5.49,0,0,0-.86,1.11A5.26,5.26,0,0,0,2.52,6a5.42,5.42,0,0,0-.2,1.46,5.43,5.43,0,0,0,1.61,3.89l.71-.71a4.52,4.52,0,0,1-1-1.46A4.4,4.4,0,0,1,3.32,7.5a4.27,4.27,0,0,1,.16-1.19,4.92,4.92,0,0,1,.45-1.08,5.12,5.12,0,0,1,.7-.91,4.64,4.64,0,0,1,2-1.16A4.27,4.27,0,0,1,7.8,3a4.45,4.45,0,0,1,1.86.4l.41-.9A5.25,5.25,0,0,0,9,2.14Z"/><polygon class="cls-1" points="15.68 12.84 15.68 13.65 13.74 13.65 13.74 15.58 12.93 15.58 12.93 13.65 11 13.65 11 12.84 12.93 12.84 12.93 10.9 13.74 10.9 13.74 12.84 15.68 12.84"/></svg>