<svg xmlns="http://www.w3.org/2000/svg" width="11" height="11" viewBox="0 0 11 11">
  <title>ADS_SQLCMD_Mode</title>
  <rect width="11" height="11" fill="none"/>
  <rect y="2" width="10" height="1"/>
  <rect x="2" y="6" width="2" height="1"/>
  <rect x="2" y="4" width="3" height="1"/>
  <polygon points="10.962 6.462 10.255 5.755 8.358 7.651 6.462 5.755 5.755 6.462 7.651 8.358 5.755 10.255 6.462 10.962 8.358 9.065 10.255 10.962 10.962 10.255 9.065 8.358 10.962 6.462"/>
  <polygon points="5.596 9 1 9 1 1 9 1 9 5.596 10 4.596 10 0 0 0 0 10 4.596 10 5.596 9"/>
  <polygon points="10.962 6.462 10.255 5.755 8.358 7.651 6.462 5.755 5.755 6.462 7.651 8.358 5.755 10.255 6.462 10.962 8.358 9.065 10.255 10.962 10.962 10.255 9.065 8.358 10.962 6.462"/>
</svg>
