<svg xmlns="http://www.w3.org/2000/svg" width="16" height="16" viewBox="0 0 16 16">
  <g id="ad15c611-5475-46cd-b8f6-56ecc02b8e72" data-name="Icons">
    <path d="M5,5H0V0H5ZM1,4H4V1H1Z"/>
    <path d="M16,5H11V0h5ZM12,4h3V1H12Z"/>
    <path d="M7.975.525l.75.75-.684.692H11V3.033H8.041l.684.692-.75.75L6,2.5Z"/>
    <polygon points="16 11.75 14.227 13.523 16 15.297 15.297 16 13.523 14.234 11.75 16 11.047 15.297 12.82 13.523 11.047 11.75 11.75 11.047 13.523 12.82 15.297 11.047 16 11.75"/>
    <path d="M5,16H0V11H5ZM1,15H4V12H1Z"/>
    <path d="M4.475,7.975l-.75.75-.692-.684V11H1.967V8.041l-.692.684-.75-.75L2.5,6Z"/>
  </g>
</svg>
