<svg xmlns="http://www.w3.org/2000/svg" width="16" height="16" viewBox="0 0 16 16">
  <title>ADS_SQLCMD_Mode</title>
  <path d="M6,10H3v1H6Z" fill="#fff"/>
  <rect x="3" y="6" width="10" height="1" fill="#fff"/>
  <path d="M10,9l6,3.5L10,16Zm1,1.742v3.516L14.016,12.5Z" fill="#fff"/>
  <path d="M1,15H9V14H2V5H14v5.175l1,.584V1H1M14,4H2V2H14Z" fill="#fff"/>
  <polygon points="11.985 9 13 9 13 8 11 8 11 8.425 11.985 9" fill="#fff"/>
  <rect x="3" y="8" width="6" height="1" fill="#fff"/>
  <rect x="7" y="10" width="2" height="1" fill="#fff"/>
  <rect x="3" y="12" width="6" height="1" fill="#fff"/>
  <rect width="16" height="16" fill="none"/>
</svg>
