<svg id="Layer_1" data-name="Layer 1" xmlns="http://www.w3.org/2000/svg" viewBox="0 0 16 16"><title>save_as_image_16x16</title><path d="M12.22.54a.9.9,0,0,0-.47-.47A.94.94,0,0,0,11.41,0H.88A1,1,0,0,0,.54.07,1.07,1.07,0,0,0,.26.26.93.93,0,0,0,.07.54.93.93,0,0,0,0,.88v9.83l1.57,1.57H7.86v-.87H5.27V9.65H4.39v1.76H3.51V8.77H7.86V7.9H2.64v3.51h-.7L.88,10.34V.88h.88V6.14h8.77V.88h.88v7h.88v-7A.94.94,0,0,0,12.22.54ZM9.66,5.27h-7V.88h7Z"/><path d="M9,9h7v7H9Zm6.56,4.81V9.44H9.42v3.94l2-2.63,3.69,4.73-1.72-3.2.66-.66Z"/></svg>