<svg id="Layer_1" data-name="Layer 1" xmlns="http://www.w3.org/2000/svg" xmlns:xlink="http://www.w3.org/1999/xlink" viewBox="0 0 18 18"><defs><style>.cls-1{fill:url(#linear-gradient);}.cls-2{fill:url(#linear-gradient-2);}.cls-3{fill:#fff;}.cls-4{fill:#c3f1ff;}.cls-5{fill:#50e6ff;}.cls-6{fill:#9cebff;}</style><linearGradient id="linear-gradient" x1="12.282" y1="11.436" x2="12.282" gradientUnits="userSpaceOnUse"><stop offset="0" stop-color="#005ba1"/><stop offset="0.525" stop-color="#0074cd"/><stop offset="1" stop-color="#0078d4"/></linearGradient><linearGradient id="linear-gradient-2" x1="7.923" y1="18" x2="7.923" y2="3.129" gradientUnits="userSpaceOnUse"><stop offset="0" stop-color="#0078d4"/><stop offset="0.16" stop-color="#1380da"/><stop offset="0.53" stop-color="#3c91e5"/><stop offset="0.82" stop-color="#559cec"/><stop offset="1" stop-color="#5ea0ef"/></linearGradient></defs><rect class="cls-1" x="6.564" width="11.436" height="11.436" rx="1"/><rect class="cls-2" y="3.129" width="15.846" height="14.871" rx="1"/><path class="cls-3" d="M9.31,7.449V4.311H8.48V8.123h2.27V7.449ZM2.72,5.908a1.722,1.722,0,0,1-.471-.286.405.405,0,0,1-.11-.3.313.313,0,0,1,.138-.277.63.63,0,0,1,.388-.11,1.5,1.5,0,0,1,.923.267V4.413a2.382,2.382,0,0,0-.923-.148,1.514,1.514,0,0,0-1.006.314,1,1,0,0,0-.388.821c0,.471.3.84.923,1.117a2.634,2.634,0,0,1,.572.332.39.39,0,0,1,.139.3.351.351,0,0,1-.148.286.747.747,0,0,1-.415.1,1.533,1.533,0,0,1-1.006-.387V8a2.01,2.01,0,0,0,.987.222,1.735,1.735,0,0,0,1.089-.3.994.994,0,0,0,.305-.84.972.972,0,0,0-.231-.646A2.227,2.227,0,0,0,2.72,5.908ZM7.557,7.375a2.16,2.16,0,0,0,.3-1.163,2.145,2.145,0,0,0-.3-.978,1.671,1.671,0,0,0-.646-.692,1.846,1.846,0,0,0-.923-.24,1.942,1.942,0,0,0-1,.249,1.717,1.717,0,0,0-.674.683,2.27,2.27,0,0,0-.24,1.052,2.094,2.094,0,0,0,.221.923,1.627,1.627,0,0,0,.637.683,1.9,1.9,0,0,0,.923.277l.794.923H7.769L6.634,8.077A1.654,1.654,0,0,0,7.557,7.375Zm-.923-.23a.871.871,0,0,1-.7.323.846.846,0,0,1-.7-.333,1.4,1.4,0,0,1-.268-.923,1.412,1.412,0,0,1,.268-.923.921.921,0,0,1,.72-.341.8.8,0,0,1,.692.341,1.5,1.5,0,0,1,.249.923A1.353,1.353,0,0,1,6.634,7.145Z"/><rect class="cls-4" x="10.218" y="11.745" width="1.729" height="5.088" rx="0.278"/><rect class="cls-5" x="12.677" y="9.248" width="1.729" height="7.584" rx="0.278"/><rect class="cls-6" x="7.758" y="10.374" width="1.729" height="6.458" rx="0.278"/></svg>