<svg width="16" height="16" viewBox="0 0 16 16" fill="none" xmlns="http://www.w3.org/2000/svg">
<path d="M14.9844 0C15.1198 0 15.237 0.0494792 15.3359 0.148438C15.4349 0.247396 15.4844 0.364583 15.4844 0.5V14.4453C15.4844 14.5807 15.4349 14.6979 15.3359 14.7969C15.237 14.8958 15.1198 14.9453 14.9844 14.9453C14.849 14.9453 14.7318 14.8958 14.6328 14.7969L0.6875 0.851562C0.588542 0.752604 0.539062 0.635417 0.539062 0.5C0.539062 0.364583 0.588542 0.247396 0.6875 0.148438C0.786458 0.0494792 0.903646 0 1.03906 0H14.9844ZM14.4844 5.42969V1H10.2578L6.25 5.00781L10.5781 9.32812L14.4844 5.42969ZM8.84375 1H2.25L5.54688 4.29688L8.84375 1ZM11.2891 10.0391L14.4844 13.2344V6.84375L11.2891 10.0391ZM6.125 8.64844L6.82812 9.35156L0.828125 15.3516L0.125 14.6484L6.125 8.64844ZM4.24219 14.7656L8.24219 10.7656L8.95312 11.4766L4.95312 15.4766L4.24219 14.7656ZM4.71094 7.23438L0.710938 11.2344L0 10.5234L4 6.52344L4.71094 7.23438ZM9.60938 3.17188L10.4922 2.28125L11.375 3.17188L10.4922 4.05469L9.60938 3.17188ZM13.2031 4.97656L12.3203 5.85938L11.4297 4.97656L12.3203 4.09375L13.2031 4.97656ZM7.65625 5.10938L8.53906 4.22656L9.42188 5.10938L8.53906 5.99219L7.65625 5.10938ZM9.48438 6.92188L10.3672 6.03906L11.25 6.92188L10.3672 7.80469L9.48438 6.92188Z" fill="white"/>
</svg>
