<?xml version="1.0" encoding="UTF-8" standalone="no"?>
<svg
   xmlns:dc="http://purl.org/dc/elements/1.1/"
   xmlns:cc="http://creativecommons.org/ns#"
   xmlns:rdf="http://www.w3.org/1999/02/22-rdf-syntax-ns#"
   xmlns:svg="http://www.w3.org/2000/svg"
   xmlns="http://www.w3.org/2000/svg"
   id="Layer_1"
   data-name="Layer 1"
   viewBox="0 0 16 16"
   version="1.1">
  <metadata
     id="metadata16">
    <rdf:RDF>
      <cc:Work
         rdf:about="">
        <dc:format>image/svg+xml</dc:format>
        <dc:type
           rdf:resource="http://purl.org/dc/dcmitype/StillImage" />
        <dc:title>azureDB</dc:title>
      </cc:Work>
    </rdf:RDF>
  </metadata>
  <defs
     id="defs4">
    <style
       id="style2">.cls-1{fill:#212121;}</style>
  </defs>
  <title
     id="title6">azureDB</title>
  <g
     style="fill:#ffffff"
     id="iconFg"
     transform="translate(-0.005)">
    <path
       style="fill:#ffffff"
       d="m 3.92,7.11 v 1 h 2 v 3 h -3 v -1 h 2 v -1 h -2 v -3 h 3 v 1 z m 6.59,5.31 -1.34,-1.34 H 6.9 v -5 h 3 v 4.26 l 1.35,1.34 z M 7.89,10.09 h 1 v -3 h -1 z m 4,0 v -4 h -1 v 5 h 2 v -1 z"
       id="path8" />
  </g>
  <path
     class="cls-1"
     d="m 7.995,0 c -2.4,0 -6.43,0.49 -6.54,2.16 V 13.7 c 0,1.78 4.11,2.3 6.54,2.3 2.43,0 6.55,-0.48 6.55,-2.26 V 2.16 C 14.425,0.49 10.395,0 7.995,0 Z m 5.44,13.7 c -0.14,0.4 -2.18,1.16 -5.45,1.16 -3.27,0 -5.32,-0.77 -5.43,-1.16 V 3.53 a 14.47,14.47 0 0 0 5.44,0.88 14.51,14.51 0 0 0 5.45,-0.88 z m 0,-11.48 c -0.17,0.38 -2.19,1.09 -5.44,1.09 -3.25,0 -5.2,-0.69 -5.43,-1.08 0.22,-0.39 2.21,-1.09 5.43,-1.09 3.22,0 5.27,0.72 5.45,1.06 v 0 z"
     id="path11"
     style="fill:#ffffff" />
</svg>
