<svg id="Layer_1" data-name="Layer 1" xmlns="http://www.w3.org/2000/svg" viewBox="0 0 16 16"><defs><style>.cls-1{fill:#fff;}</style></defs><title>cluster_inverse</title><path class="cls-1" d="M14,7a1.94,1.94,0,0,1,.78.16,2,2,0,0,1,1.07,1.07,2,2,0,0,1,0,1.55,2,2,0,0,1-1.07,1.07,2,2,0,0,1-1.51,0,2.05,2.05,0,0,1-1.05-1,1.88,1.88,0,0,1-.2-.72L10.84,9a3,3,0,0,1-.56,1,3,3,0,0,1-.87.7L9.86,12H10a1.94,1.94,0,0,1,.78.16,2,2,0,0,1,1.07,1.07,2,2,0,0,1,0,1.55,2,2,0,0,1-1.07,1.07,2,2,0,0,1-1.55,0,2,2,0,0,1-1.07-1.07A2,2,0,0,1,8.25,13a2,2,0,0,1,.67-.72L8.46,11l-.23,0H8a3,3,0,0,1-1.36-.32,3,3,0,0,1-1.07-.9L4,10.58a2,2,0,0,1-.11,1.2,2,2,0,0,1-1.07,1.07A1.94,1.94,0,0,1,2,13a1.94,1.94,0,0,1-.78-.16A2,2,0,0,1,.16,11.78a2,2,0,0,1,0-1.55A2,2,0,0,1,1.22,9.16,1.94,1.94,0,0,1,2,9a2,2,0,0,1,.83.18,2,2,0,0,1,.68.51l1.63-.81A3,3,0,0,1,5.2,6.93,2.91,2.91,0,0,1,5.77,6L4.82,4.82A2,2,0,0,1,4,5a1.94,1.94,0,0,1-.78-.16A2,2,0,0,1,2.16,3.78a2,2,0,0,1,0-1.55A2,2,0,0,1,3.22,1.16a2,2,0,0,1,1.55,0A2,2,0,0,1,5.84,2.22,1.94,1.94,0,0,1,6,3a1.94,1.94,0,0,1-.4,1.2l.94,1.18a3.24,3.24,0,0,1,.71-.28A2.94,2.94,0,0,1,8,5a3,3,0,0,1,1.23.26l1.28-1.92a2,2,0,0,1-.37-.62A2,2,0,0,1,10,2a1.94,1.94,0,0,1,.16-.78A2,2,0,0,1,11.22.16a2,2,0,0,1,1.55,0,2,2,0,0,1,1.07,1.07A1.94,1.94,0,0,1,14,2a1.94,1.94,0,0,1-.16.78,2,2,0,0,1-1.07,1.07A1.94,1.94,0,0,1,12,4a2.06,2.06,0,0,1-.66-.11L10.05,5.82A3,3,0,0,1,11,8l1.17.2a2,2,0,0,1,.74-.86,2.14,2.14,0,0,1,.52-.24A1.92,1.92,0,0,1,14,7ZM2,12a1,1,0,0,0,.39-.08,1,1,0,0,0,.53-.53,1,1,0,0,0,0-.78,1,1,0,0,0-.53-.53,1,1,0,0,0-.78,0,1,1,0,0,0-.53.53,1,1,0,0,0,0,.78,1,1,0,0,0,.53.53A1,1,0,0,0,2,12ZM3,3a1,1,0,0,0,.08.39,1,1,0,0,0,.53.53,1,1,0,0,0,.78,0,1,1,0,0,0,.53-.53,1,1,0,0,0,0-.78,1,1,0,0,0-.53-.53,1,1,0,0,0-.78,0,1,1,0,0,0-.53.53A1,1,0,0,0,3,3Zm5,7a1.94,1.94,0,0,0,.78-.16A2,2,0,0,0,9.84,8.78a2,2,0,0,0,0-1.55A2,2,0,0,0,8.78,6.16a2,2,0,0,0-1.55,0A2,2,0,0,0,6.16,7.22a2,2,0,0,0,0,1.55A2,2,0,0,0,7.22,9.84,1.94,1.94,0,0,0,8,10Zm3,4a1,1,0,0,0-.08-.39,1,1,0,0,0-.53-.53,1,1,0,0,0-.78,0,1,1,0,0,0-.53.53,1,1,0,0,0,0,.78,1,1,0,0,0,.53.53,1,1,0,0,0,.78,0,1,1,0,0,0,.53-.53A1,1,0,0,0,11,14ZM12,1a1,1,0,0,0-.39.08,1,1,0,0,0-.53.53,1,1,0,0,0,0,.78,1,1,0,0,0,.53.53,1,1,0,0,0,.78,0,1,1,0,0,0,.53-.53,1,1,0,0,0,0-.78,1,1,0,0,0-.53-.53A1,1,0,0,0,12,1Zm2,9a1,1,0,0,0,.39-.08,1,1,0,0,0,.53-.53,1,1,0,0,0,0-.78,1,1,0,0,0-.53-.53,1,1,0,0,0-.78,0,1,1,0,0,0-.53.53,1,1,0,0,0,0,.78,1,1,0,0,0,.53.53A1,1,0,0,0,14,10Z"/></svg>