<svg id="Layer_1" data-name="Layer 1" xmlns="http://www.w3.org/2000/svg" viewBox="0 0 64 64"><title>Artboard 1</title><path d="M36.4258,51.3232l-1.5264-.6308H21.23047L17.56494,60.7715l-6.6167-18.2041-2.957,8.125H2.6689v3.9707c0,5.1523,8.3521,9.3291,18.66557,9.3291,6.14551,0,11.59813-1.4805,14.99563-3.7783l-.3701-.9248-1.0059-2.4795-.9893-2.4619,2.459-1.003.9268-.3779c-.0127-.2139-.0176-.4219-.0176-.6328s.0049-.4248.0176-.6328Z" style="fill:#0072c6"/><path d="M29.33252,29.3291a13.08927,13.08927,0,0,1-5.19727-1.04785,13.17745,13.17745,0,0,1-5.80175-4.72852H2.6689V48.0273H6.126l4.82224-13.2646,6.6167,18.2041,1.80029-4.9395H34.8965l.0654-.1718,1.0029-2.4795,1.0059-2.4912,2.4824,1.0215.5449.2265V29.3291Z" style="fill:#0072c6"/><path d="M10.94824,34.7627l6.6167,18.2041,1.80029-4.9395h1.96924V26.68164a13.08872,13.08872,0,0,1-1.438-1.24316,13.279,13.279,0,0,1-1.563-1.88575H2.6689V48.0273H6.126Z" style="fill:#3c9be4"/><path d="M21.23047,50.6924,17.56494,60.7715l-6.6167-18.2041-2.957,8.125H2.6689v3.9707c0,5.1523,8.3521,9.3291,18.66557,9.3291V50.6924Z" style="fill:#3c9be4"/><path d="M29.33252,29.3291a13.08927,13.08927,0,0,1-5.19727-1.04785,13.27026,13.27026,0,0,1-4.23877-2.84277A13.47,13.47,0,0,1,17.04932,21.207a13.15157,13.15157,0,0,1-1.04981-5.21094,13.83432,13.83432,0,0,1,.07031-1.39746C8.3271,15.7373,2.6689,19.31445,2.6689,23.55273c0,5.15528,8.35454,9.335,18.66557,9.335,5.94776,0,11.24123-1.3936,14.65673-3.5586Z" style="fill:#b8d432"/><path d="M58.666,52.1045a9.53,9.53,0,0,1-.292,2.3135l2.8506,1.164-.998,2.4805L57.3477,56.874a9.32346,9.32346,0,0,1-3.2432,3.2539l1.1875,2.8477L52.8125,64l-1.1729-2.8535a9.36869,9.36869,0,0,1-4.6259,0L45.8486,64l-2.4775-1.0244,1.1855-2.8477a9.04371,9.04371,0,0,1-3.2509-3.2539l-2.876,1.1885-.9951-2.4805,2.8525-1.164a9.53,9.53,0,0,1-.2891-2.3135,9.191,9.191,0,0,1,.2969-2.3106L37.4365,48.624l.9981-2.4775,2.8789,1.1826a9.2874,9.2874,0,0,1,3.248-3.248l-1.1875-2.876,2.4824-1.001,1.1651,2.8525a9.3925,9.3925,0,0,1,4.624,0l1.169-2.8525,2.4804,1.001-1.1855,2.876a9.67875,9.67875,0,0,1,3.2461,3.248l2.8759-1.1826.9981,2.4775-2.8496,1.1699A9.83875,9.83875,0,0,1,58.666,52.1045Zm-9.334,6.667a6.44229,6.44229,0,0,0,2.584-.5215,6.69513,6.69513,0,0,0,2.1133-1.4277,6.83265,6.83265,0,0,0,1.4375-2.126,6.56457,6.56457,0,0,0,0-5.1738,6.82938,6.82938,0,0,0-3.5508-3.5528,6.35061,6.35061,0,0,0-2.584-.5312,6.43493,6.43493,0,0,0-2.5947.5312,6.89246,6.89246,0,0,0-2.126,1.4375,6.63226,6.63226,0,0,0-1.4248,2.1153,6.67689,6.67689,0,0,0,0,5.1738A6.623,6.623,0,0,0,46.7373,58.25,6.528,6.528,0,0,0,49.332,58.7715Z" style="fill:#0072c6"/><path d="M58.666,52.1045a9.53,9.53,0,0,1-.292,2.3135l2.8506,1.164-.998,2.4805L57.3477,56.874a9.32346,9.32346,0,0,1-3.2432,3.2539l1.1875,2.8477L52.8125,64l-1.1729-2.8535a9.36869,9.36869,0,0,1-4.6259,0L45.8486,64l-2.4775-1.0244,1.1855-2.8477a9.04371,9.04371,0,0,1-3.2509-3.2539l-2.876,1.1885-.9951-2.4805,2.8525-1.164a9.53,9.53,0,0,1-.2891-2.3135,9.191,9.191,0,0,1,.2969-2.3106L37.4365,48.624l.9981-2.4775,2.8789,1.1826a9.2874,9.2874,0,0,1,3.248-3.248l-1.1875-2.876,2.4824-1.001,1.1651,2.8525a9.3925,9.3925,0,0,1,4.624,0l1.169-2.8525,2.4804,1.001-1.1855,2.876a9.67875,9.67875,0,0,1,3.2461,3.248l2.8759-1.1826.9981,2.4775-2.8496,1.1699A9.83875,9.83875,0,0,1,58.666,52.1045Zm-9.334,6.667a6.44229,6.44229,0,0,0,2.584-.5215,6.69513,6.69513,0,0,0,2.1133-1.4277,6.83265,6.83265,0,0,0,1.4375-2.126,6.56457,6.56457,0,0,0,0-5.1738,6.82938,6.82938,0,0,0-3.5508-3.5528,6.35061,6.35061,0,0,0-2.584-.5312,6.43493,6.43493,0,0,0-2.5947.5312,6.89246,6.89246,0,0,0-2.126,1.4375,6.63226,6.63226,0,0,0-1.4248,2.1153,6.67689,6.67689,0,0,0,0,5.1738A6.623,6.623,0,0,0,46.7373,58.25,6.528,6.528,0,0,0,49.332,58.7715Z" style="fill:#000c82;opacity:0.5;isolation:isolate"/><path d="M53.2686,10.66406a7.88255,7.88255,0,0,1,3.1337.625,8.25807,8.25807,0,0,1,2.5655,1.69727,7.90755,7.90755,0,0,1,1.7275,2.53222,8.08273,8.08273,0,0,1,.0108,6.25879,8.00156,8.00156,0,0,1-1.7198,2.541,8.14542,8.14542,0,0,1-2.5478,1.71973,7.74021,7.74021,0,0,1-3.1055.624H29.33252a10.42308,10.42308,0,0,1-4.15527-.834,10.63077,10.63077,0,0,1-3.397-2.2754,10.75553,10.75553,0,0,1-2.27978-3.39453,10.79636,10.79636,0,0,1,0-8.31933A10.70079,10.70079,0,0,1,21.77734,8.4453,10.81467,10.81467,0,0,1,25.1748,6.1631a10.4929,10.4929,0,0,1,4.15772-.833,10.28371,10.28371,0,0,1,1.938.1885,12.56114,12.56114,0,0,1,1.9248-2.3223A11.82117,11.82117,0,0,1,35.5898,1.457,11.82623,11.82623,0,0,1,41.334,0a11.68929,11.68929,0,0,1,4.3633.8115A11.97187,11.97187,0,0,1,49.332,3.0488a12.13663,12.13663,0,0,1,2.6153,3.3916A12.556,12.556,0,0,1,53.2686,10.66406Z" style="fill:#59b4d9"/><path d="M24.14307,24.958a11.97213,11.97213,0,0,1,0-9.19043A11.77315,11.77315,0,0,1,30.4263,9.4873a11.66122,11.66122,0,0,1,6.7446-.7139,13.88134,13.88134,0,0,1,2.126-2.5673,12.71263,12.71263,0,0,1,2.6445-1.9258A12.85994,12.85994,0,0,1,44.9785,3.083a13.27268,13.27268,0,0,1,3.3194-.417c.206,0,.3876.0459.5937.0498A11.9517,11.9517,0,0,0,45.6973.8115,11.68929,11.68929,0,0,0,41.334,0a12.00542,12.00542,0,0,0-3.001.3721A12.13608,12.13608,0,0,0,35.582,1.457a11.83732,11.83732,0,0,0-2.3886,1.7393,12.32621,12.32621,0,0,0-1.9229,2.3223,10.28371,10.28371,0,0,0-1.938-.1885,10.4724,10.4724,0,0,0-4.15527.833,10.62476,10.62476,0,0,0-5.67676,5.67284,10.71029,10.71029,0,0,0,2.27685,11.71289,10.61441,10.61441,0,0,0,2.61036,1.85351C24.31494,25.251,24.21338,25.12207,24.14307,24.958Z" style="fill:#fff;opacity:0.2;isolation:isolate"/>
	<text x="0" y="60" style="fill: red; font-size: 20px">RC</text></svg>
