<svg width="50" height="50" viewBox="0 0 50 50" fill="none" xmlns="http://www.w3.org/2000/svg">
<g clip-path="url(#clip0)">
<path d="M49.2998 22.2C48.5998 20.5 47.3998 19.1 45.7998 18.1C49.6998 12.3 51.3998 6.60003 48.6998 3.30003C45.8998 -0.099967 39.3998 0.400033 30.8998 4.70003V4.80003C29.4998 4.30003 27.9998 4.00003 26.5998 4.00003C25.3998 4.00003 24.1998 4.10003 23.0998 4.40003C20.7998 5.00003 18.7998 6.10003 17.0998 7.70003C16.1998 8.50003 15.4998 9.40003 14.7998 10.4C14.0998 10.3 13.2998 10.2 12.4998 10.2C10.7998 10.2 9.1998 10.5 7.5998 11.2C4.5998 12.5 2.1998 14.9 0.899805 17.9C-0.400195 21 -0.400195 24.5 0.899805 27.6C1.3998 28.6 1.9998 29.6 2.6998 30.5L2.5998 30.4C-0.400195 35.8 -0.900195 40 1.2998 42.7C2.6998 44.3 4.7998 45.1 6.8998 44.9C8.9998 44.8 10.9998 44.5 12.8998 43.8C16.0998 46.6 20.2998 48 24.4998 47.7C31.9998 47.7 37.5998 44.6 37.5998 40.4V35.2H40.4998C41.6998 35.2 42.9998 35 44.0998 34.5C46.2998 33.5 48.0998 31.7 49.0998 29.5C50.1998 27.2 50.1998 24.5 49.2998 22.2ZM46.2998 5.20003C47.7998 7.00003 46.6998 11.3 42.8998 16.8C42.0998 16.6 41.2998 16.5 40.4998 16.5C40.2998 14.8 39.7998 13.1 38.8998 11.5C38.0998 10 37.0998 8.70003 35.7998 7.50003C35.2998 7.10003 34.7998 6.70003 34.1998 6.30003C40.1998 3.80003 44.7998 3.30003 46.2998 5.20003ZM3.8998 19.1C4.8998 16.9 6.6998 15.1 8.8998 14.1C10.0998 13.6 11.2998 13.4 12.4998 13.4C13.7998 13.4 15.0998 13.7 16.3998 14.3C16.7998 13.3 17.2998 12.3 17.9998 11.4C19.2998 9.70003 21.1998 8.40003 23.2998 7.70003C25.6998 6.90003 28.3998 7.00003 30.7998 8.00003C33.3998 9.10003 35.4998 11.2 36.5998 13.8C37.1998 15.1 37.4998 16.6 37.4998 18.1V19.7H40.5998C40.6998 19.7 40.7998 19.7 40.8998 19.7C39.9998 20.9 38.8998 22.1 37.6998 23.4V23.2H37.5998C36.9998 19.4 31.5998 16.6 24.5998 16.6C17.5998 16.6 12.1998 19.4 11.5998 23.2H11.4998V32C10.5998 31.9 9.6998 31.7 8.7998 31.4C6.5998 30.4 4.7998 28.6 3.7998 26.4C2.8998 24.1 2.8998 21.4 3.8998 19.1ZM24.6998 19.6C30.3998 19.6 34.6998 21.8 34.6998 23.8C34.6998 25.8 30.3998 28 24.6998 28C18.9998 28 14.6998 25.8 14.6998 23.8C14.6998 21.8 18.8998 19.6 24.6998 19.6ZM3.6998 40.8C2.4998 39.4 2.9998 36.4 4.8998 32.7C5.6998 33.4 6.5998 33.9 7.5998 34.3C8.8998 34.8 10.1998 35.1 11.4998 35.2V40.5C11.4998 40.7 11.5998 41 11.5998 41.2C7.7998 42.3 4.7998 42.2 3.6998 40.8ZM24.6998 44.6C18.9998 44.6 14.6998 42.4 14.6998 40.4V28.6C17.6998 30.4 21.1998 31.2 24.6998 31.1C28.1998 31.2 31.5998 30.3 34.6998 28.6V40.4C34.5998 42.4 30.3998 44.6 24.6998 44.6ZM46.3998 28.3C45.7998 29.8 44.5998 31 43.0998 31.6C42.2998 31.9 41.4998 32.1 40.6998 32.1H37.7998V27.7C39.9998 25.5 42.0998 23.1 43.9998 20.6C45.0998 21.3 45.8998 22.3 46.3998 23.4C46.9998 25 46.9998 26.7 46.3998 28.3Z" fill="white"/>
</g>
<defs>
<clipPath id="clip0">
<rect width="50" height="50" fill="white"/>
</clipPath>
</defs>
</svg>
