<?xml version="1.0" encoding="UTF-8" standalone="no"?>
<svg
   xmlns:dc="http://purl.org/dc/elements/1.1/"
   xmlns:cc="http://creativecommons.org/ns#"
   xmlns:rdf="http://www.w3.org/1999/02/22-rdf-syntax-ns#"
   xmlns:svg="http://www.w3.org/2000/svg"
   xmlns="http://www.w3.org/2000/svg"
   xmlns:xlink="http://www.w3.org/1999/xlink"
   xmlns:sodipodi="http://sodipodi.sourceforge.net/DTD/sodipodi-0.dtd"
   xmlns:inkscape="http://www.inkscape.org/namespaces/inkscape"
   id="eec7d136-f112-46af-a3cf-bf91a5c75666"
   data-name="Layer 1"
   width="59.994473"
   height="60"
   viewBox="0 0 59.994473 60"
   version="1.1"
   sodipodi:docname="sqldb_edge.svg"
   inkscape:version="0.92.4 (5da689c313, 2019-01-14)">
  <metadata
     id="metadata71">
    <rdf:RDF>
      <cc:Work
         rdf:about="">
        <dc:format>image/svg+xml</dc:format>
        <dc:type
           rdf:resource="http://purl.org/dc/dcmitype/StillImage" />
      </cc:Work>
    </rdf:RDF>
  </metadata>
  <sodipodi:namedview
     pagecolor="#ffffff"
     bordercolor="#666666"
     borderopacity="1"
     objecttolerance="10"
     gridtolerance="10"
     guidetolerance="10"
     inkscape:pageopacity="0"
     inkscape:pageshadow="2"
     inkscape:window-width="1356"
     inkscape:window-height="974"
     id="namedview69"
     showgrid="false"
     inkscape:zoom="2.36"
     inkscape:cx="29.997181"
     inkscape:cy="30"
     inkscape:window-x="0"
     inkscape:window-y="0"
     inkscape:window-maximized="0"
     inkscape:current-layer="eec7d136-f112-46af-a3cf-bf91a5c75666" />
  <defs
     id="defs38">
    <linearGradient
       id="b5c6b104-454d-4729-acd6-907263c2d466"
       x1="57.186001"
       y1="740.06403"
       x2="70.387001"
       y2="740.06403"
       gradientTransform="matrix(1,0,0,-1,0,770)"
       gradientUnits="userSpaceOnUse">
      <stop
         offset="0"
         stop-color="#005ba1"
         id="stop2" />
      <stop
         offset="0.068"
         stop-color="#0060a9"
         id="stop4" />
      <stop
         offset="0.356"
         stop-color="#0071c8"
         id="stop6" />
      <stop
         offset="0.517"
         stop-color="#0078d4"
         id="stop8" />
      <stop
         offset="0.642"
         stop-color="#0074cd"
         id="stop10" />
      <stop
         offset="0.82"
         stop-color="#006abb"
         id="stop12" />
      <stop
         offset="1"
         stop-color="#005ba1"
         id="stop14" />
    </linearGradient>
    <linearGradient
       id="a7ff9d6f-dfc1-44bf-b13b-162305f1fa8a"
       x1="52.797001"
       y1="704.80798"
       x2="52.797001"
       y2="742.84399"
       gradientTransform="matrix(1,0,0,-1,0,770)"
       gradientUnits="userSpaceOnUse">
      <stop
         offset="0"
         stop-color="#198ab3"
         id="stop17" />
      <stop
         offset="0.097"
         stop-color="#209ec5"
         id="stop19" />
      <stop
         offset="0.242"
         stop-color="#28b6da"
         id="stop21" />
      <stop
         offset="0.396"
         stop-color="#2ec7e9"
         id="stop23" />
      <stop
         offset="0.565"
         stop-color="#31d1f2"
         id="stop25" />
      <stop
         offset="0.775"
         stop-color="#32d4f5"
         id="stop27" />
    </linearGradient>
    <linearGradient
       id="bc37103c-430d-46e7-aa83-30a9235b7b74"
       x1="36.847"
       y1="702.948"
       x2="59.476002"
       y2="702.948"
       xlink:href="#b5c6b104-454d-4729-acd6-907263c2d466" />
    <radialGradient
       id="e36b5364-8f7a-422d-a36a-9a21681809ae"
       cx="48.790001"
       cy="702.229"
       r="12.478"
       gradientTransform="matrix(1,0,0,-1,0,770)"
       gradientUnits="userSpaceOnUse">
      <stop
         offset="0"
         stop-color="#f2f2f2"
         id="stop31" />
      <stop
         offset="0.58"
         stop-color="#eee"
         id="stop33" />
      <stop
         offset="1"
         stop-color="#e6e6e6"
         id="stop35" />
    </radialGradient>
    <linearGradient
       inkscape:collect="always"
       xlink:href="#b5c6b104-454d-4729-acd6-907263c2d466"
       id="linearGradient4581"
       gradientUnits="userSpaceOnUse"
       gradientTransform="matrix(1,0,0,-1,0,770)"
       x1="57.186001"
       y1="740.06403"
       x2="70.387001"
       y2="740.06403" />
  </defs>
  <title
     id="title40">SQL_Database_Edge_100x</title>
  <g
     id="g66"
     transform="translate(-20.002819,-20)">
    <path
       d="m 57.135,30.379 c 5.493,1.494 6.882,2.438 11.833,6.466 -0.037,-0.064 -0.078,-0.12 -0.12,-0.189 -0.23,-0.369 -0.48,-0.72 -0.731,-1.062 -0.094,-0.12 -0.186,-0.253 -0.285,-0.373 -0.223,-0.275 -0.463,-0.527 -0.7,-0.78 a 13.488,13.488 0 0 0 -1.182,-1.1 l -0.012,-0.01 a 13.364,13.364 0 0 0 -4.393,-2.346 l -0.2,-0.066 q -0.507,-0.15 -1.032,-0.26 c -0.273,-0.055 -0.552,-0.1 -0.832,-0.138 -0.215,-0.031 -0.428,-0.073 -0.645,-0.094 q -0.767,-0.068 -1.537,-0.059 z"
       style="opacity:0.4;isolation:isolate;fill:#ffffff"
       id="path42"
       inkscape:connector-curvature="0" />
    <path
       d="m 63.786,24.777 c -3.642,0 -6.6,-1.069 -6.6,-2.389 V 35.1 c 0,1.308 2.9,2.371 6.506,2.388 h 0.094 c 3.643,0 6.6,-1.068 6.6,-2.388 V 22.388 c -0.009,1.32 -2.962,2.389 -6.6,2.389 z"
       id="path44"
       inkscape:connector-curvature="0"
       style="fill:url(#linearGradient4581)" />
    <path
       d="m 70.377,22.388 c 0,1.32 -2.953,2.389 -6.6,2.389 -3.647,0 -6.591,-1.069 -6.591,-2.389 0,-1.32 2.954,-2.388 6.6,-2.388 3.646,0 6.6,1.069 6.6,2.388"
       id="path46"
       inkscape:connector-curvature="0"
       style="fill:#e8e8e8" />
    <path
       d="m 68.837,22.2 c 0,0.84 -2.263,1.519 -5.055,1.519 -2.792,0 -5.056,-0.68 -5.056,-1.519 0,-0.839 2.263,-1.518 5.06,-1.518 2.797,0 5.056,0.679 5.056,1.518"
       id="path48"
       inkscape:connector-curvature="0"
       style="fill:#50e6ff" />
    <path
       d="m 63.786,22.545 a 12.247,12.247 0 0 0 -4,0.576 13.658,13.658 0 0 0 8,0 12.246,12.246 0 0 0 -4,-0.576 z"
       id="path50"
       inkscape:connector-curvature="0"
       style="fill:#198ab3" />
    <path
       d="M 79.627,53.279 A 12.057,12.057 0 0 0 69.163,41.69 C 69.083,33.65 62.109,27.158 53.512,27.158 a 15.592,15.592 0 0 0 -14.9,10.16 C 31.441,38.41 25.967,44.19 25.967,51.16 c 0,7.75 6.764,14.032 15.108,14.032 0.449,0 0.893,-0.023 1.332,-0.058 h 24.467 a 2.434,2.434 0 0 0 0.646,-0.1 C 74.257,64.761 79.627,59.6 79.627,53.279 Z"
       id="path52"
       inkscape:connector-curvature="0"
       style="fill:url(#a7ff9d6f-dfc1-44bf-b13b-162305f1fa8a)" />
    <path
       d="m 78.463,29.993 c -1.653,-2.16 -4.49,-3.21 -8.086,-3.254 v 3.6 c 2.52,0.042 4.355,0.68 5.239,1.839 C 78.651,36.156 73.137,49.2 57.263,61.4 41.389,73.6 27.411,75.561 24.378,71.581 c -1.719,-2.254 -0.653,-7.43 3.445,-13.7 a 13.266,13.266 0 0 1 -1.571,-4.006 c -5.86,8.04 -7.976,15.626 -4.721,19.9 5.217,6.841 22.191,2.587 37.913,-9.5 C 75.166,52.188 83.679,36.833 78.463,29.993 Z"
       id="path54"
       inkscape:connector-curvature="0"
       style="fill:#0072c6" />
    <path
       d="m 48.161,58.2 c -6.247,0 -11.314,-1.835 -11.314,-4.1 v 21.8 c 0,2.244 4.983,4.067 11.16,4.1 h 0.155 c 6.249,0 11.314,-1.834 11.314,-4.1 V 54.1 c -10e-4,2.268 -5.067,4.1 -11.315,4.1 z"
       id="path56"
       inkscape:connector-curvature="0"
       style="fill:url(#bc37103c-430d-46e7-aa83-30a9235b7b74)" />
    <path
       d="m 59.475,54.105 c 0,2.263 -5.066,4.1 -11.314,4.1 -6.248,0 -11.314,-1.835 -11.314,-4.1 0,-2.265 5.067,-4.1 11.314,-4.1 6.247,0 11.314,1.835 11.314,4.1"
       id="path58"
       inkscape:connector-curvature="0"
       style="fill:#e8e8e8" />
    <path
       d="m 56.834,53.773 c 0,1.441 -3.883,2.606 -8.673,2.606 -4.79,0 -8.673,-1.167 -8.673,-2.606 0,-1.439 3.884,-2.605 8.673,-2.605 4.789,0 8.673,1.167 8.673,2.605"
       id="path60"
       inkscape:connector-curvature="0"
       style="fill:#50e6ff" />
    <path
       d="m 48.161,54.373 a 20.975,20.975 0 0 0 -6.87,0.989 20.252,20.252 0 0 0 6.87,1.017 20.262,20.262 0 0 0 6.871,-1.017 20.981,20.981 0 0 0 -6.871,-0.989 z"
       id="path62"
       inkscape:connector-curvature="0"
       style="fill:#198ab3" />
    <path
       d="m 55.038,69.236 v -5.96 H 53.4 v 7.292 h 4.343 V 69.236 Z M 42.452,66.3 a 3.63,3.63 0 0 1 -0.907,-0.547 0.77,0.77 0 0 1 -0.221,-0.567 0.633,0.633 0 0 1 0.274,-0.536 1.245,1.245 0 0 1 0.748,-0.2 2.887,2.887 0 0 1 1.68,0.509 v -1.52 a 4.809,4.809 0 0 0 -1.77,-0.281 2.969,2.969 0 0 0 -1.934,0.593 1.932,1.932 0 0 0 -0.722,1.569 2.394,2.394 0 0 0 1.668,2.135 4.887,4.887 0 0 1 1.086,0.631 0.751,0.751 0 0 1 0.268,0.575 0.633,0.633 0 0 1 -0.279,0.539 1.312,1.312 0 0 1 -0.786,0.2 2.917,2.917 0 0 1 -1.927,-0.743 v 1.627 a 3.968,3.968 0 0 0 1.888,0.407 3.371,3.371 0 0 0 2.079,-0.569 1.9,1.9 0 0 0 0.753,-1.608 1.832,1.832 0 0 0 -0.433,-1.241 4.491,4.491 0 0 0 -1.465,-0.973 z m 9.153,2.8 a 4.517,4.517 0 0 0 0.145,-4.17 3.154,3.154 0 0 0 -1.236,-1.32 3.523,3.523 0 0 0 -1.8,-0.464 3.786,3.786 0 0 0 -1.913,0.48 3.276,3.276 0 0 0 -1.296,1.374 4.319,4.319 0 0 0 -0.46,2.021 4.03,4.03 0 0 0 0.424,1.854 3.222,3.222 0 0 0 1.2,1.309 3.533,3.533 0 0 0 1.752,0.514 l 1.511,1.694 h 2.135 L 49.953,70.434 A 3.119,3.119 0 0 0 51.605,69.1 Z m -1.643,-0.447 a 1.639,1.639 0 0 1 -1.347,0.618 1.617,1.617 0 0 1 -1.337,-0.638 3.136,3.136 0 0 1 0.009,-3.425 1.669,1.669 0 0 1 1.37,-0.646 1.561,1.561 0 0 1 1.32,0.645 2.864,2.864 0 0 1 0.48,1.752 2.618,2.618 0 0 1 -0.495,1.698 z"
       id="path64"
       inkscape:connector-curvature="0"
       style="fill:url(#e36b5364-8f7a-422d-a36a-9a21681809ae)" />
  </g>
</svg>
