<?xml version="1.0" encoding="utf-8"?>
<!-- Generator: Adobe Illustrator 24.0.3, SVG Export Plug-In . SVG Version: 6.00 Build 0)  -->
<svg version="1.1" id="ee7a2d03-25e0-4b7b-970e-53f514516b83"
	 xmlns="http://www.w3.org/2000/svg" xmlns:xlink="http://www.w3.org/1999/xlink" x="0px" y="0px" viewBox="0 0 50 50"
	 style="enable-background:new 0 0 50 50;" xml:space="preserve">
<title>Azure_SQL_Edge</title>
<path d="M49.3,22.2c-0.7-1.7-1.9-3.1-3.5-4.1c3.9-5.8,5.6-11.5,2.9-14.8c-2.8-3.4-9.3-2.9-17.8,1.4l0,0.1C29.5,4.3,28,4,26.6,4
	c-1.2,0-2.4,0.1-3.5,0.4c-2.3,0.6-4.3,1.7-6,3.3c-0.9,0.8-1.6,1.7-2.3,2.7c-0.7-0.1-1.5-0.2-2.3-0.2c-1.7,0-3.3,0.3-4.9,1
	c-3,1.3-5.4,3.7-6.7,6.7c-1.3,3.1-1.3,6.6,0,9.7c0.5,1,1.1,2,1.8,2.9l-0.1-0.1c-3,5.4-3.5,9.6-1.3,12.3c1.4,1.6,3.5,2.4,5.6,2.2
	c2.1-0.1,4.1-0.4,6-1.1c3.2,2.8,7.4,4.2,11.6,3.9c7.5,0,13.1-3.1,13.1-7.3v-5.2h2.9c1.2,0,2.5-0.2,3.6-0.7c2.2-1,4-2.8,5-5
	C50.2,27.2,50.2,24.5,49.3,22.2L49.3,22.2z M46.3,5.2c1.5,1.8,0.4,6.1-3.4,11.6c-0.8-0.2-1.6-0.3-2.4-0.3c-0.2-1.7-0.7-3.4-1.6-5
	c-0.8-1.5-1.8-2.8-3.1-4c-0.5-0.4-1-0.8-1.6-1.2C40.2,3.8,44.8,3.3,46.3,5.2z M3.9,19.1c1-2.2,2.8-4,5-5c1.2-0.5,2.4-0.7,3.6-0.7
	c1.3,0,2.6,0.3,3.9,0.9c0.4-1,0.9-2,1.6-2.9c1.3-1.7,3.2-3,5.3-3.7C25.7,6.9,28.4,7,30.8,8c2.6,1.1,4.7,3.2,5.8,5.8
	c0.6,1.3,0.9,2.8,0.9,4.3v1.6h3.1c0.1,0,0.2,0,0.3,0c-0.9,1.2-2,2.4-3.2,3.7v-0.2h-0.1c-0.6-3.8-6-6.6-13-6.6s-12.4,2.8-13,6.6h-0.1
	V32c-0.9-0.1-1.8-0.3-2.7-0.6c-2.2-1-4-2.8-5-5C2.9,24.1,2.9,21.4,3.9,19.1L3.9,19.1z M24.7,19.6c5.7,0,10,2.2,10,4.2
	s-4.3,4.2-10,4.2s-10-2.2-10-4.2S18.9,19.6,24.7,19.6z M3.7,40.8c-1.2-1.4-0.7-4.4,1.2-8.1c0.8,0.7,1.7,1.2,2.7,1.6
	c1.3,0.5,2.6,0.8,3.9,0.9v5.3c0,0.2,0.1,0.5,0.1,0.7C7.8,42.3,4.8,42.2,3.7,40.8z M24.7,44.6c-5.7,0-10-2.2-10-4.2V28.6
	c3,1.8,6.5,2.6,10,2.5c3.5,0.1,6.9-0.8,10-2.5v11.8C34.6,42.4,30.4,44.6,24.7,44.6z M46.4,28.3c-0.6,1.5-1.8,2.7-3.3,3.3
	c-0.8,0.3-1.6,0.5-2.4,0.5h-2.9v-4.4c2.2-2.2,4.3-4.6,6.2-7.1c1.1,0.7,1.9,1.7,2.4,2.8C47,25,47,26.7,46.4,28.3L46.4,28.3z"/>
</svg>
