<svg width="16" height="16" viewBox="0 0 16 16" fill="none" xmlns="http://www.w3.org/2000/svg">
<path d="M15.5 0C15.6354 0 15.7526 0.0494792 15.8516 0.148438C15.9505 0.247396 16 0.364583 16 0.5V14.4453C16 14.5807 15.9505 14.6979 15.8516 14.7969C15.7526 14.8958 15.6354 14.9453 15.5 14.9453C15.3646 14.9453 15.2474 14.8958 15.1484 14.7969L1.20312 0.851562C1.10417 0.752604 1.05469 0.635417 1.05469 0.5C1.05469 0.364583 1.10417 0.247396 1.20312 0.148438C1.30208 0.0494792 1.41927 0 1.55469 0H15.5ZM15 5.42969V1H10.7734L6.76562 5.00781L11.0938 9.32812L15 5.42969ZM9.35938 1H2.76562L6.0625 4.29688L9.35938 1ZM11.8047 10.0391L15 13.2344V6.84375L11.8047 10.0391ZM6.64062 8.64844L7.34375 9.35156L1.34375 15.3516L0.640625 14.6484L6.64062 8.64844ZM4.75781 14.7656L8.75781 10.7656L9.46875 11.4766L5.46875 15.4766L4.75781 14.7656ZM5.22656 7.23438L1.22656 11.2344L0.515625 10.5234L4.51562 6.52344L5.22656 7.23438ZM10.125 3.17188L11.0078 2.28125L11.8906 3.17188L11.0078 4.05469L10.125 3.17188ZM13.7188 4.97656L12.8359 5.85938L11.9453 4.97656L12.8359 4.09375L13.7188 4.97656ZM8.17188 5.10938L9.05469 4.22656L9.9375 5.10938L9.05469 5.99219L8.17188 5.10938ZM10 6.92188L10.8828 6.03906L11.7656 6.92188L10.8828 7.80469L10 6.92188Z" fill="#323130"/>
</svg>
