<svg width="16" height="16" viewBox="0 0 16 16" fill="none" xmlns="http://www.w3.org/2000/svg">
<g clip-path="url(#clip0_724:59228)">
<path d="M1.92584 4.68122C1.88418 4.68135 1.84417 4.66492 1.81462 4.63555C1.78507 4.60617 1.7684 4.56627 1.76827 4.5246C1.76506 3.53697 0.962946 2.73832 -0.0247012 2.7394C-0.0826423 2.74262 -0.137618 2.71355 -0.167561 2.66385C-0.197503 2.61412 -0.197503 2.55195 -0.167561 2.50222C-0.137618 2.45252 -0.0826423 2.42344 -0.0247012 2.42667C0.963056 2.42801 1.76533 1.62921 1.76827 0.641457C1.76827 0.554162 1.83903 0.483395 1.92633 0.483395C2.01362 0.483395 2.08439 0.554162 2.08439 0.641457C2.0876 1.62948 2.89031 2.42828 3.87834 2.42667C3.96481 2.42667 4.03494 2.49678 4.03494 2.58327C4.03494 2.66977 3.96481 2.73987 3.87834 2.73987C2.89031 2.73827 2.0876 3.53707 2.08439 4.5251C2.08413 4.56685 2.06727 4.60677 2.03752 4.63607C2.00778 4.66535 1.96759 4.6816 1.92584 4.68122Z" fill="#212121"/>
<path d="M12.9813 14.751C12.9296 14.751 12.8875 14.7092 12.8873 14.6575C12.8849 14.0673 12.4055 13.5902 11.8153 13.5908C11.7636 13.5908 11.7217 13.5489 11.7217 13.4972C11.7217 13.4455 11.7636 13.4036 11.8153 13.4036C12.4055 13.4042 12.8849 12.9272 12.8873 12.337C12.8873 12.285 12.9294 12.2429 12.9813 12.2429C13.0333 12.2429 13.0754 12.285 13.0754 12.337C13.0778 12.9272 13.5572 13.4042 14.1474 13.4036C14.1991 13.4036 14.241 13.4455 14.241 13.4972C14.241 13.5489 14.1991 13.5908 14.1474 13.5908C13.5572 13.5902 13.0778 14.0673 13.0754 14.6575C13.0754 14.6824 13.0655 14.7062 13.0478 14.7238C13.0302 14.7414 13.0062 14.7512 12.9813 14.751Z" fill="#212121"/>
<path d="M5.39249 12.6482C6.97109 13.4359 8.84442 13.3531 10.3474 12.4292C11.8503 11.5054 12.7701 9.8713 12.7801 8.10712C11.6963 9.07732 10.5245 9.94457 9.27999 10.6977C8.04727 11.4666 6.74584 12.1196 5.39249 12.6482Z" fill="#212121"/>
<path d="M8.433 9.31202C9.7825 8.50402 11.0351 7.54424 12.1663 6.45139C12.2589 6.35929 12.3414 6.27492 12.4194 6.19395C12.1976 5.63 11.8764 5.11042 11.4711 4.6599C10.1951 3.2472 8.24175 2.6572 6.39708 3.1273C4.5524 3.5974 3.11968 5.05027 2.67543 6.90135C2.29705 8.51252 2.72198 10.2072 3.81578 11.4492C3.9336 11.4148 4.04948 11.3818 4.17798 11.3401C5.6688 10.828 7.09637 10.1476 8.433 9.31202Z" fill="#212121"/>
<path d="M15.1293 3.4817C14.642 2.68072 13.4114 2.49601 11.5763 2.94497C11.005 3.08947 10.443 3.2684 9.89338 3.48072C10.2476 3.65355 10.581 3.86632 10.8868 4.11492C11.1991 4.01212 11.5055 3.92097 11.7974 3.84872C12.2856 3.71947 12.7873 3.64835 13.2922 3.63685C13.8929 3.63685 14.2245 3.78522 14.3351 3.96607C14.5164 4.2628 14.3496 5.0463 13.283 6.2788C13.0934 6.49795 12.8796 6.72 12.6556 6.94352C11.4856 8.07417 10.1902 9.06745 8.7947 9.904C7.41253 10.7693 5.93533 11.4726 4.39228 12C2.5358 12.6046 1.26791 12.5925 0.98428 12.1285C0.700642 11.6645 1.26791 10.5285 2.6541 9.152C2.56913 8.76032 2.53088 8.35995 2.54015 7.95927C0.334097 9.95297 -0.380085 11.6815 0.190098 12.6138C0.488765 13.1021 1.14088 13.3794 2.09361 13.3794C3.2267 13.3317 4.3426 13.0856 5.39058 12.6521C6.74535 12.1233 8.04808 11.4699 9.28198 10.7001C10.5269 9.94677 11.699 9.0792 12.7831 8.10862C13.2088 7.72667 13.6114 7.31982 13.9889 6.8902C15.2238 5.45987 15.619 4.2817 15.1293 3.4817Z" fill="#212121"/>
<path d="M1.92584 4.68122C1.88418 4.68135 1.84417 4.66492 1.81462 4.63555C1.78507 4.60617 1.7684 4.56627 1.76827 4.5246C1.76506 3.53697 0.962946 2.73832 -0.0247012 2.7394C-0.0826423 2.74262 -0.137618 2.71355 -0.167561 2.66385C-0.197503 2.61412 -0.197503 2.55195 -0.167561 2.50222C-0.137618 2.45252 -0.0826423 2.42344 -0.0247012 2.42667C0.963056 2.42801 1.76533 1.62921 1.76827 0.641457C1.76827 0.554162 1.83903 0.483395 1.92633 0.483395C2.01362 0.483395 2.08439 0.554162 2.08439 0.641457C2.0876 1.62948 2.89031 2.42828 3.87834 2.42667C3.96481 2.42667 4.03494 2.49678 4.03494 2.58327C4.03494 2.66977 3.96481 2.73987 3.87834 2.73987C2.89031 2.73827 2.0876 3.53707 2.08439 4.5251C2.08413 4.56685 2.06727 4.60677 2.03752 4.63607C2.00778 4.66535 1.96759 4.6816 1.92584 4.68122Z" fill="#212121"/>
<path d="M12.9813 14.751C12.9296 14.751 12.8875 14.7092 12.8873 14.6575C12.8849 14.0673 12.4055 13.5902 11.8153 13.5908C11.7636 13.5908 11.7217 13.5489 11.7217 13.4972C11.7217 13.4455 11.7636 13.4036 11.8153 13.4036C12.4055 13.4042 12.8849 12.9272 12.8873 12.337C12.8873 12.285 12.9294 12.2429 12.9813 12.2429C13.0333 12.2429 13.0754 12.285 13.0754 12.337C13.0778 12.9272 13.5572 13.4042 14.1474 13.4036C14.1991 13.4036 14.241 13.4455 14.241 13.4972C14.241 13.5489 14.1991 13.5908 14.1474 13.5908C13.5572 13.5902 13.0778 14.0673 13.0754 14.6575C13.0754 14.6824 13.0655 14.7062 13.0478 14.7238C13.0302 14.7414 13.0062 14.7512 12.9813 14.751Z" fill="#212121"/>
<path opacity="0.93" d="M5.39249 12.6482C6.97109 13.4359 8.84442 13.3531 10.3474 12.4292C11.8503 11.5054 12.7701 9.8713 12.7801 8.10712C11.6963 9.07732 10.5245 9.94457 9.27999 10.6977C8.04727 11.4666 6.74584 12.1196 5.39249 12.6482Z" fill="#212121"/>
<path opacity="0.93" d="M8.433 9.31202C9.7825 8.50402 11.0351 7.54424 12.1663 6.45139C12.2589 6.35929 12.3414 6.27492 12.4194 6.19395C12.1976 5.63 11.8764 5.11042 11.4711 4.6599C10.1951 3.2472 8.24175 2.6572 6.39708 3.1273C4.5524 3.5974 3.11968 5.05027 2.67543 6.90135C2.29705 8.51252 2.72198 10.2072 3.81578 11.4492C3.9336 11.4148 4.04948 11.3818 4.17798 11.3401C5.6688 10.828 7.09637 10.1476 8.433 9.31202Z" fill="#212121"/>
<path d="M15.1293 3.4817C14.642 2.68072 13.4114 2.49601 11.5763 2.94497C11.005 3.08947 10.443 3.2684 9.89338 3.48072C10.2476 3.65355 10.581 3.86632 10.8868 4.11492C11.1991 4.01212 11.5055 3.92097 11.7974 3.84872C12.2856 3.71947 12.7873 3.64835 13.2922 3.63685C13.8929 3.63685 14.2245 3.78522 14.3351 3.96607C14.5164 4.2628 14.3496 5.0463 13.283 6.2788C13.0934 6.49795 12.8796 6.72 12.6556 6.94352C11.4856 8.07417 10.1902 9.06745 8.7947 9.904C7.41253 10.7693 5.93533 11.4726 4.39228 12C2.5358 12.6046 1.26791 12.5925 0.98428 12.1285C0.700642 11.6645 1.26791 10.5285 2.6541 9.152C2.56913 8.76032 2.53088 8.35995 2.54015 7.95927C0.334097 9.95297 -0.380085 11.6815 0.190098 12.6138C0.488765 13.1021 1.14088 13.3794 2.09361 13.3794C3.2267 13.3317 4.3426 13.0856 5.39058 12.6521C6.74535 12.1233 8.04808 11.4699 9.28198 10.7001C10.5269 9.94677 11.699 9.0792 12.7831 8.10862C13.2088 7.72667 13.6114 7.31982 13.9889 6.8902C15.2238 5.45987 15.619 4.2817 15.1293 3.4817Z" fill="#212121"/>
</g>
<defs>
<clipPath id="clip0_724:59228">
<rect width="16" height="16" fill="white"/>
</clipPath>
</defs>
</svg>
