<svg xmlns="http://www.w3.org/2000/svg" viewBox="0 0 16 16"><style>.icon-canvas-transparent{opacity:0;fill:#f6f6f6}.icon-vs-out{fill:#f6f6f6}.icon-vs-bg{fill:#424242}.icon-vs-fg{fill:#f0eff1}</style><path class="icon-canvas-transparent" d="M16 16H0V0h16v16z" id="canvas"/><path class="icon-vs-out" d="M15 3.25v9.595c0 1.852-2.583 2.925-5.445 3.155h-2.36C4.313 15.775 1 14.743 1 12.751V3.156C1 1.319 3.722.23 6.621 0h2.271C11.675.226 15 1.274 15 3.25z" id="outline"/><path class="icon-vs-bg" d="M7.777.952C4.637.952 2 2.031 2 3.156v9.595c0 1.219 3.289 2.297 6.383 2.297S14 14.017 14 12.845V3.249C14 2.077 10.918.952 7.777.952zM8 11H7V7.707l-1.217 2.672a.31.31 0 0 1-.566 0L4 7.707V11H3V6h1l1.231 2.128a.31.31 0 0 0 .538 0L7 6h1v5zm-.095-6.814c-2.172 0-3.932-.503-3.932-1.124 0-.62 1.761-1.124 3.932-1.124 2.172 0 3.932.503 3.932 1.124 0 .621-1.76 1.124-3.932 1.124zM13 12.471a.53.53 0 0 1-.529.529H9v-1h3v-1H9.529A.53.53 0 0 1 9 10.471V8h1v2h2V8h1v4.471z" id="iconBg"/><g id="iconFg"><path class="icon-vs-fg" d="M8 6v5H7V7.707l-1.217 2.672a.31.31 0 0 1-.566 0L4 7.707V11H3V6h1l1.231 2.128a.31.31 0 0 0 .538 0L7 6h1zm4 2v2h-2V8H9v2.471a.53.53 0 0 0 .529.529H12v1H9v1h3.471a.53.53 0 0 0 .529-.529V8h-1zm-.163-4.938c0-.62-1.761-1.124-3.932-1.124-2.172 0-3.932.503-3.932 1.124 0 .621 1.761 1.124 3.932 1.124 2.172 0 3.932-.503 3.932-1.124z"/></g></svg>