<svg id="Layer_1" data-name="Layer 1" xmlns="http://www.w3.org/2000/svg" viewBox="0 0 16 16"><title>subscription</title><path d="M15.63,5.9A8.32,8.32,0,0,0,14.83,4a8.36,8.36,0,0,0-1.24-1.6A7.69,7.69,0,0,0,12,1.17,7.57,7.57,0,0,0,10.1.37a7.75,7.75,0,0,0-4.2,0A7.9,7.9,0,0,0,4,1.17,7.63,7.63,0,0,0,2.4,2.41,8,8,0,0,0,1.17,4,7.9,7.9,0,0,0,.37,5.9,7.76,7.76,0,0,0,.08,8a7.66,7.66,0,0,0,.28,2.1A7.9,7.9,0,0,0,1.17,12a7.71,7.71,0,0,0,1.24,1.6A8,8,0,0,0,4,14.84a7.78,7.78,0,0,0,1.9.79,7.71,7.71,0,0,0,4.19,0A7.55,7.55,0,0,0,12,14.84,8.1,8.1,0,0,0,14.83,12a8.32,8.32,0,0,0,.8-1.89A7.66,7.66,0,0,0,15.92,8,7.76,7.76,0,0,0,15.63,5.9ZM14.55,9.8a6.87,6.87,0,0,1-.69,1.62A6.5,6.5,0,0,1,12.8,12.8a7.07,7.07,0,0,1-1.37,1.06,7.21,7.21,0,0,1-1.62.68,6.64,6.64,0,0,1-3.61,0,6.85,6.85,0,0,1-1.62-.68A7.07,7.07,0,0,1,3.2,12.8a5.73,5.73,0,0,1-.9-1.13L5.92,8.06l2.25,2.25,4.5-4.5V8.27h.75V4.52H9.67v.75h2.47l-4,4L5.92,7l-4,4a6.92,6.92,0,0,1-.46-1.2A6.63,6.63,0,0,1,1.21,8a6.74,6.74,0,0,1,.24-1.8,6.48,6.48,0,0,1,.69-1.62A6.42,6.42,0,0,1,3.2,3.2,7.07,7.07,0,0,1,4.57,2.14,6.85,6.85,0,0,1,6.2,1.46a6.91,6.91,0,0,1,3.61,0,7.21,7.21,0,0,1,1.62.68A7.07,7.07,0,0,1,12.8,3.2a6.76,6.76,0,0,1,1.06,1.38,6.87,6.87,0,0,1,.69,1.62A6.74,6.74,0,0,1,14.79,8,6.63,6.63,0,0,1,14.55,9.8Z"/></svg>