<svg id="Layer_1" data-name="Layer 1" xmlns="http://www.w3.org/2000/svg" viewBox="0 0 16 16"><title>text_cell</title><path d="M5.53,8.62H2L1.25,11H0L3.16,1.52H4.4L6.88,8.93l-.75,1.5Zm-.4-1.18-1.35-4-1.35,4Zm9.08,6.28.29.67a2,2,0,0,0,.32.5,1.16,1.16,0,0,0,.46.31,2.06,2.06,0,0,0,.72.11v.41H11.85v-.41h.35a1.31,1.31,0,0,0,.36,0,.58.58,0,0,0,.28-.15.47.47,0,0,0,.11-.34,1.51,1.51,0,0,0-.06-.36c0-.15-.09-.32-.15-.5s-.12-.36-.19-.55l-.2-.53-.17-.43-.1-.24H7.92l-.11.25-.19.43-.22.52q-.12.28-.21.54c-.06.18-.12.34-.16.49a1.53,1.53,0,0,0-.06.37.42.42,0,0,0,.12.33.64.64,0,0,0,.28.15,1.66,1.66,0,0,0,.36,0h.34v.41H4.58v-.41a3.25,3.25,0,0,0,.7-.19,1.1,1.1,0,0,0,.41-.3A1.86,1.86,0,0,0,6,14.34l.31-.73L9.89,5.07h.76ZM11.52,11,9.88,7.46,8.32,11Z"/></svg>