<svg id="Layer_1" data-name="Layer 1" xmlns="http://www.w3.org/2000/svg" viewBox="0 0 16 16"><title>new_account_16x16</title><path d="M8.09,7.39a5.91,5.91,0,0,1,1.38.74,6.06,6.06,0,0,1,1.13,1.06A6,6,0,0,1,11.88,12h-1a4.94,4.94,0,0,0-.63-1.61A5,5,0,0,0,7.66,8.3a5,5,0,0,0-3-.12,5.09,5.09,0,0,0-1.2.5,5,5,0,0,0-1.79,1.79,5.07,5.07,0,0,0-.5,1.2A4.88,4.88,0,0,0,1,13H0a5.88,5.88,0,0,1,.28-1.8A6,6,0,0,1,1,9.59a6.1,6.1,0,0,1,1.22-1.3,5.8,5.8,0,0,1,1.59-.9A4.2,4.2,0,0,1,2.46,5.94,3.86,3.86,0,0,1,2,4a3.92,3.92,0,0,1,.31-1.56A4,4,0,0,1,4.4.31a4,4,0,0,1,3.12,0A4,4,0,0,1,9.65,2.44,4,4,0,0,1,9.83,5a4,4,0,0,1-1,1.74A3.94,3.94,0,0,1,8.09,7.39ZM3,4A2.92,2.92,0,0,0,3.2,5.17a3,3,0,0,0,1.6,1.6,3,3,0,0,0,2.33,0,3,3,0,0,0,1.6-1.6,3,3,0,0,0,0-2.33,3,3,0,0,0-1.6-1.6,3,3,0,0,0-2.33,0,3,3,0,0,0-1.6,1.6A2.92,2.92,0,0,0,3,4Zm13,9v1H14v2H13V14H11V13h2V11h1v2Z"/></svg>