<svg xmlns="http://www.w3.org/2000/svg" viewBox="0 0 13.07 15.91"><defs><style>.cls-1{fill:#231f20;}</style></defs><title>Database@2x</title><g id="Layer_2" data-name="Layer 2"><g id="Layer_1-2" data-name="Layer 1"><path class="cls-1" d="M6.53,0C4.13,0,.11.45,0,2.12V13.66c0,1.77,4.1,2.25,6.53,2.25s6.54-.48,6.54-2.25V2.12C13,.45,8.94,0,6.53,0ZM12,13.66c-.14.39-2.18,1.16-5.45,1.16S1.2,14,1.09,13.66V3.49a14.55,14.55,0,0,0,5.44.87A14.57,14.57,0,0,0,12,3.49ZM12,2.18c-.18.38-2.19,1.09-5.45,1.09S1.32,2.58,1.09,2.19c.23-.39,2.22-1.09,5.44-1.09s5.26.72,5.45,1.06h0Z"/><polygon class="cls-1" points="11.99 2.17 11.98 2.18 11.98 2.15 11.99 2.17"/></g></g></svg>