<svg width="16" height="16" viewBox="0 0 16 16" fill="none" xmlns="http://www.w3.org/2000/svg">
<g clip-path="url(#clip0)">
<path d="M12.7812 5.41406C13.1198 5.58594 13.4245 5.79948 13.6953 6.05469C13.9714 6.30469 14.2057 6.58594 14.3984 6.89844C14.5911 7.20573 14.7396 7.53906 14.8438 7.89844C14.9479 8.2526 15 8.61979 15 9H14C14 8.58854 13.9193 8.20052 13.7578 7.83594C13.6016 7.47135 13.388 7.15365 13.1172 6.88281C12.8464 6.61198 12.5286 6.39844 12.1641 6.24219C11.7995 6.08073 11.4115 6 11 6C10.5885 6 10.2005 6.08073 9.83594 6.24219C9.47135 6.39844 9.15365 6.61198 8.88281 6.88281C8.61198 7.15365 8.39583 7.47135 8.23438 7.83594C8.07812 8.20052 8 8.58854 8 9C8 9.47396 7.89062 9.92448 7.67188 10.3516C7.45833 10.7786 7.16146 11.1328 6.78125 11.4141C7.11979 11.5859 7.42448 11.7995 7.69531 12.0547C7.97135 12.3047 8.20573 12.5859 8.39844 12.8984C8.59115 13.2057 8.73958 13.5391 8.84375 13.8984C8.94792 14.2526 9 14.6198 9 15H8C8 14.5885 7.91927 14.2005 7.75781 13.8359C7.60156 13.4714 7.38802 13.1536 7.11719 12.8828C6.84635 12.612 6.52865 12.3984 6.16406 12.2422C5.79948 12.0807 5.41146 12 5 12C4.58854 12 4.20052 12.0807 3.83594 12.2422C3.47135 12.3984 3.15365 12.612 2.88281 12.8828C2.61198 13.1536 2.39583 13.4714 2.23438 13.8359C2.07812 14.2005 2 14.5885 2 15H1C1 14.6198 1.05208 14.2526 1.15625 13.8984C1.26042 13.5391 1.40885 13.2057 1.60156 12.8984C1.79427 12.5859 2.02604 12.3047 2.29688 12.0547C2.57292 11.7995 2.88021 11.5859 3.21875 11.4141C2.83854 11.1328 2.53906 10.7786 2.32031 10.3516C2.10677 9.92448 2 9.47396 2 9C2 8.58854 2.07812 8.20052 2.23438 7.83594C2.39583 7.47135 2.61198 7.15365 2.88281 6.88281C3.15365 6.61198 3.47135 6.39844 3.83594 6.24219C4.20052 6.08073 4.58854 6 5 6C5.47396 6 5.92448 6.10938 6.35156 6.32812C6.77865 6.54167 7.13281 6.83854 7.41406 7.21875C7.61198 6.82812 7.86458 6.47917 8.17188 6.17188C8.47917 5.86458 8.82812 5.61198 9.21875 5.41406C8.83854 5.13281 8.53906 4.77865 8.32031 4.35156C8.10677 3.92448 8 3.47396 8 3C8 2.58854 8.07812 2.20052 8.23438 1.83594C8.39583 1.47135 8.61198 1.15365 8.88281 0.882812C9.15365 0.611979 9.47135 0.398438 9.83594 0.242188C10.2005 0.0807292 10.5885 0 11 0C11.4115 0 11.7995 0.0807292 12.1641 0.242188C12.5286 0.398438 12.8464 0.611979 13.1172 0.882812C13.388 1.15365 13.6016 1.47135 13.7578 1.83594C13.9193 2.20052 14 2.58854 14 3C14 3.47396 13.8906 3.92448 13.6719 4.35156C13.4583 4.77865 13.1615 5.13281 12.7812 5.41406ZM5 11C5.27083 11 5.52865 10.9479 5.77344 10.8438C6.01823 10.7344 6.22917 10.5911 6.40625 10.4141C6.58854 10.2318 6.73177 10.0208 6.83594 9.78125C6.94531 9.53646 7 9.27604 7 9C7 8.72917 6.94531 8.47135 6.83594 8.22656C6.73177 7.98177 6.58854 7.77083 6.40625 7.59375C6.22917 7.41146 6.01823 7.26823 5.77344 7.16406C5.52865 7.05469 5.27083 7 5 7C4.72396 7 4.46354 7.05469 4.21875 7.16406C3.97917 7.26823 3.76823 7.41146 3.58594 7.59375C3.40885 7.77083 3.26562 7.98177 3.15625 8.22656C3.05208 8.47135 3 8.72917 3 9C3 9.27604 3.05208 9.53646 3.15625 9.78125C3.26562 10.0208 3.40885 10.2318 3.58594 10.4141C3.76823 10.5911 3.97917 10.7344 4.21875 10.8438C4.46354 10.9479 4.72396 11 5 11ZM9 3C9 3.27604 9.05208 3.53646 9.15625 3.78125C9.26562 4.02083 9.40885 4.23177 9.58594 4.41406C9.76823 4.59115 9.97917 4.73438 10.2188 4.84375C10.4635 4.94792 10.724 5 11 5C11.2708 5 11.5286 4.94792 11.7734 4.84375C12.0182 4.73438 12.2292 4.59115 12.4062 4.41406C12.5885 4.23177 12.7318 4.02083 12.8359 3.78125C12.9453 3.53646 13 3.27604 13 3C13 2.72917 12.9453 2.47135 12.8359 2.22656C12.7318 1.98177 12.5885 1.77083 12.4062 1.59375C12.2292 1.41146 12.0182 1.26823 11.7734 1.16406C11.5286 1.05469 11.2708 1 11 1C10.724 1 10.4635 1.05469 10.2188 1.16406C9.97917 1.26823 9.76823 1.41146 9.58594 1.59375C9.40885 1.77083 9.26562 1.98177 9.15625 2.22656C9.05208 2.47135 9 2.72917 9 3Z" fill="#333333"/>
</g>
<defs>
<clipPath id="clip0">
<rect width="16" height="16" fill="white"/>
</clipPath>
</defs>
</svg>
