<svg xmlns="http://www.w3.org/2000/svg" width="16" height="16" viewBox="0 0 16 16">
  <title>Data_source_group</title>
  <g id="bfab5a2d-3852-4560-ab09-23c2bd7bcabc" data-name="Labels">
    <g>
      <path d="M16,5.707,15.293,5,13.83,6.463a2,2,0,0,0-2.432.3L9.984,8.176,12.812,11,14.226,9.59a2,2,0,0,0,.308-2.417ZM13.519,8.883l-.707.707L11.4,8.176l.707-.707a1,1,0,1,1,1.414,1.414Z"/>
      <path d="M7.862,10.3a2,2,0,0,0-.307,2.417L6.089,14.18l.707.707,1.462-1.462a2,2,0,0,0,2.433-.3l1.414-1.414L9.276,8.883Zm2.122,2.122A1,1,0,1,1,8.569,11l.707-.707,1.415,1.415Z"/>
    </g>
    <path d="M15.293,3.586,16,4.292V3a.853.853,0,0,0-.078-.391,1.106,1.106,0,0,0-.219-.32,1,1,0,0,0-.313-.211A.967.967,0,0,0,15,2H7.25a1.764,1.764,0,0,1-.43-.078,1.215,1.215,0,0,1-.344-.18c-.1-.078-.208-.159-.312-.242a2.852,2.852,0,0,0-.36-.243,1.965,1.965,0,0,0-.453-.187A2.234,2.234,0,0,0,4.75,1H1a.841.841,0,0,0-.391.078,1.068,1.068,0,0,0-.32.219.982.982,0,0,0-.211.312A.972.972,0,0,0,0,2V13H5.854l.528-.529A3.006,3.006,0,0,1,6.321,12H1V4H4.75a3.329,3.329,0,0,0,.609-.078,1.624,1.624,0,0,0,.453-.18A3.227,3.227,0,0,0,6.164,3.5c.1-.084.211-.164.32-.243a1.579,1.579,0,0,1,.344-.187A1.152,1.152,0,0,1,7.25,3H15ZM1,2H4.75a1.745,1.745,0,0,1,.328.039,1,1,0,0,1,.258.1A1.8,1.8,0,0,1,5.57,2.3c.073.057.154.125.242.2-.094.083-.177.153-.25.211a2.273,2.273,0,0,1-.226.156.832.832,0,0,1-.258.1A1.512,1.512,0,0,1,4.75,3H1Z"/>
  </g>
</svg>
