<svg id="a7a68c25-9b07-4668-8d0d-dd5e0ecbba33" data-name="Icons" xmlns="http://www.w3.org/2000/svg" width="16" height="16" viewBox="0 0 16 16">
  <title>Project</title>
  <path d="M15.992,8.191c-.046-1.257-1.742-2.2-3.992-2.2-2.28,0-4,.968-4,2.25,0,.017.008.033.008.05H8v5.45c0,1.282,1.72,2.25,4,2.25s4-.968,4-2.25V8.191ZM12,6.991c1.859,0,3,.729,3,1.25s-1.141,1.25-3,1.25-3-.729-3-1.25S10.141,6.991,12,6.991Zm0,8c-1.859,0-3-.729-3-1.25V9.747a5.688,5.688,0,0,0,3,.744,5.688,5.688,0,0,0,3-.744v3.994C15,14.262,13.859,14.991,12,14.991Z"/>
  <path d="M7,11.991H1v-8H15V5.6a4.342,4.342,0,0,1,1,.645V-.009H0v13H7Zm-6-11H15v2H1Z"/>
</svg>
