<svg id="e771b594-7335-45d5-a42f-4ffe553df1ba" data-name="Icons" xmlns="http://www.w3.org/2000/svg" width="16" height="16" viewBox="0 0 16 16">
  <title>Reference</title>
  <path d="M8,13.95H4v-4H8Zm-3-1H7v-2H5Z"/>
  <path d="M16,15H10V9h6Zm-5-1h4V10H11Z"/>
  <rect x="8.5" y="11.45" width="1" height="1"/>
  <path d="M10,8h1V3.5a1.327,1.327,0,0,0-.152-.625,1.991,1.991,0,0,0-.4-.516A3.558,3.558,0,0,0,9.414,1.7a7.406,7.406,0,0,0-1.3-.418,10.962,10.962,0,0,0-1.367-.215Q6.062,1,5.5,1q-.546,0-1.234.062a10.883,10.883,0,0,0-1.379.219A7.924,7.924,0,0,0,1.574,1.7a3.257,3.257,0,0,0-1.027.66,2.217,2.217,0,0,0-.395.512A1.3,1.3,0,0,0,0,3.5v9a1.322,1.322,0,0,0,.152.625,1.958,1.958,0,0,0,.4.516,3.538,3.538,0,0,0,1.039.664,7.323,7.323,0,0,0,1.3.418c.037.008.075.009.113.017V13.722c-.019,0-.04-.006-.059-.011a5.182,5.182,0,0,1-.793-.258q-.117-.046-.312-.144a3.461,3.461,0,0,1-.383-.223,1.612,1.612,0,0,1-.32-.277A.47.47,0,0,1,1,12.5V4.984a4.572,4.572,0,0,0,1.008.485,8.368,8.368,0,0,0,1.164.312,11.047,11.047,0,0,0,1.207.168Q4.984,6,5.5,6t1.117-.051a11.149,11.149,0,0,0,1.207-.168,8.312,8.312,0,0,0,1.168-.312A4.572,4.572,0,0,0,10,4.984ZM9.977,3.617a.618.618,0,0,1-.063.11,1.542,1.542,0,0,1-.476.437,3.827,3.827,0,0,1-.692.328,6.414,6.414,0,0,1-.824.238q-.438.1-.871.157t-.836.086Q5.812,5,5.5,5t-.715-.027q-.4-.027-.836-.086T3.078,4.73a6.414,6.414,0,0,1-.824-.238,3.925,3.925,0,0,1-.695-.328,1.445,1.445,0,0,1-.473-.437.618.618,0,0,1-.063-.11A.3.3,0,0,1,1,3.5a.47.47,0,0,1,.133-.309,1.645,1.645,0,0,1,.32-.277,3.808,3.808,0,0,1,.383-.223c.13-.064.234-.113.312-.144a6.4,6.4,0,0,1,.793-.254q.419-.105.856-.172t.871-.094C4.957,2.01,5.234,2,5.5,2s.543.01.832.027.579.05.871.094.577.1.856.172a6.4,6.4,0,0,1,.793.254c.078.031.182.08.312.144a3.808,3.808,0,0,1,.383.223,1.645,1.645,0,0,1,.32.277A.47.47,0,0,1,10,3.5.3.3,0,0,1,9.977,3.617Z"/>
</svg>
