<svg width="16" height="16" viewBox="0 0 16 16" fill="none" xmlns="http://www.w3.org/2000/svg">
<path d="M12.11 13.6894H13.11C13.11 15.1994 9.74999 15.8894 6.62999 15.8894C3.50999 15.8894 0.149994 15.1994 0.149994 13.6894V2.17938C0.249994 0.549375 4.25999 0.109375 6.62999 0.109375C8.99999 0.109375 13.11 0.559375 13.11 2.23938H12.11C12 1.85938 9.99999 1.10938 6.62999 1.10938C3.25999 1.10938 1.25999 1.85938 1.14999 2.24938V13.6894C1.14999 14.0494 3.14999 14.8894 6.62999 14.8894C10.11 14.8894 12.07 13.9994 12.11 13.6894Z" fill="#015CDA"/>
<path d="M13.45 12.0686H11.82V6.36859L9.38 8.80859V6.80859L12.64 3.55859L15.9 6.80859V8.80859L13.45 6.36859V12.0686Z" fill="#015CDA"/>
</svg>
