<svg xmlns="http://www.w3.org/2000/svg" width="24" height="24" viewBox="0 0 24 24">
  <title>ADS_jupyterBook</title>
  <path d="M22.545,2.25V24H3.8a2.207,2.207,0,0,1-.878-.176,2.238,2.238,0,0,1-1.2-1.2,2.208,2.208,0,0,1-.176-.879V18H1.194c-.141,0-.28-.006-.416-.018a1.077,1.077,0,0,1-.369-.093.617.617,0,0,1-.264-.229.891.891,0,0,1,0-.82.631.631,0,0,1,.264-.229,1.1,1.1,0,0,1,.369-.093c.136-.012.275-.018.416-.018h.351v-3H1.194c-.141,0-.28-.006-.416-.018a1.077,1.077,0,0,1-.369-.093.617.617,0,0,1-.264-.229.891.891,0,0,1,0-.82.631.631,0,0,1,.264-.229,1.1,1.1,0,0,1,.369-.093c.136-.012.275-.018.416-.018h.351V9H1.194c-.141,0-.28-.006-.416-.018a1.077,1.077,0,0,1-.369-.093A.617.617,0,0,1,.145,8.66a.891.891,0,0,1,0-.82.631.631,0,0,1,.264-.229,1.1,1.1,0,0,1,.369-.093c.136-.012.275-.018.416-.018h.351v-3H1.194c-.141,0-.28-.006-.416-.018a1.077,1.077,0,0,1-.369-.093A.617.617,0,0,1,.145,4.16a.742.742,0,0,1-.1-.41.747.747,0,0,1,.1-.41.631.631,0,0,1,.264-.229,1.1,1.1,0,0,1,.369-.093C.914,3.006,1.053,3,1.194,3h.351V2.508c0-.195.008-.387.024-.574a1.689,1.689,0,0,1,.152-.563A2.221,2.221,0,0,1,3.8,0H20.3a2.215,2.215,0,0,1,.879.176,2.248,2.248,0,0,1,.715.48,2.273,2.273,0,0,1,.481.715A2.214,2.214,0,0,1,22.545,2.25Zm-1.5,17.25V2.25a.76.76,0,0,0-.75-.75H3.8a.745.745,0,0,0-.41.1.634.634,0,0,0-.228.257,1.124,1.124,0,0,0-.1.352,3.191,3.191,0,0,0-.023.393c0,.07,0,.139.006.205s0,.131,0,.193H3.4c.133,0,.268.006.4.018a1.088,1.088,0,0,1,.369.093.672.672,0,0,1,.27.229.714.714,0,0,1,.1.41.709.709,0,0,1-.1.41.657.657,0,0,1-.27.229,1.065,1.065,0,0,1-.369.093c-.136.012-.271.018-.4.018H3.045v3H3.4c.133,0,.268.006.4.018a1.088,1.088,0,0,1,.369.093.672.672,0,0,1,.27.229.853.853,0,0,1,0,.82.657.657,0,0,1-.27.229,1.065,1.065,0,0,1-.369.093C3.665,8.994,3.53,9,3.4,9H3.045v3H3.4c.133,0,.268.006.4.018a1.088,1.088,0,0,1,.369.093.672.672,0,0,1,.27.229.853.853,0,0,1,0,.82.657.657,0,0,1-.27.229,1.065,1.065,0,0,1-.369.093c-.136.012-.271.018-.4.018H3.045v3H3.4c.133,0,.268.006.4.018a1.088,1.088,0,0,1,.369.093.672.672,0,0,1,.27.229.853.853,0,0,1,0,.82.657.657,0,0,1-.27.229,1.065,1.065,0,0,1-.369.093c-.136.012-.271.018-.4.018H3.045v1.5Zm0,3V21h-18v.75a.762.762,0,0,0,.75.75Z" fill="#fff"/>
  <path d="M16.545,4.5v3h-7.5v-3h7.5m1.5-1.5H7.545V9h10.5V3Z" fill="#fff"/>
  <rect x="0.045" width="24" height="24" fill="none"/>
</svg>
