<svg id="Layer_1" data-name="Layer 1" xmlns="http://www.w3.org/2000/svg" viewBox="0 0 16 16"><defs><style>.cls-1{font-size:12px;font-family:FullMDL2Assets, Full MDL2 Assets;}.cls-1,.cls-2{fill:#fff;}</style></defs><title>manage_inverse_16x16 </title><text class="cls-1" transform="translate(0.01 11.59)"> </text><path class="cls-2" d="M16,0V4H15V1.71L10.5,6.2l-3-3L0,10.71V9.29L7.5,1.8l3,3L14.29,1H12V0Zm-.12,10.93-1,.4a2.75,2.75,0,0,1,.06.33,3,3,0,0,1,0,.68,2.71,2.71,0,0,1-.06.33l1,.4L15.5,14l-1-.4a3,3,0,0,1-.95.95l.4,1-.92.38-.4-1-.33.06L12,15l-.34,0-.33-.06-.4,1L10,15.5l.4-1a2.93,2.93,0,0,1-.95-.95l-1,.4-.38-.92,1-.4a3.25,3.25,0,0,1,0-1.34l-1-.4L8.49,10l1,.4a2.83,2.83,0,0,1,.95-.95l-.4-1,.92-.38.4,1a3.25,3.25,0,0,1,1.34,0l.4-1,.92.38-.4,1a3,3,0,0,1,.53.42,3,3,0,0,1,.42.53l1-.4ZM12,14a1.94,1.94,0,0,0,.78-.16,2,2,0,0,0,1.07-1.07,2,2,0,0,0,0-1.55,2,2,0,0,0-1.07-1.07,2,2,0,0,0-1.55,0,2,2,0,0,0-1.07,1.07,2,2,0,0,0,0,1.55,2,2,0,0,0,1.07,1.07A1.94,1.94,0,0,0,12,14Z"/></svg>