<?xml version="1.0" encoding="UTF-8" standalone="no"?>
<!DOCTYPE svg PUBLIC "-//W3C//DTD SVG 1.1//EN" "http://www.w3.org/Graphics/SVG/1.1/DTD/svg11.dtd">
<svg viewBox="0 0 16 16" fill="none" xmlns="http://www.w3.org/2000/svg"><path d="M4 7H7V16H4V7ZM5 15H6V8H5V15ZM8 9H11V16H8V9ZM9 15H10V10H9V15ZM0 11H3V16H0V11ZM1 15H2V12H1V15ZM12 5H15V16H12V5ZM13 15H14V6H13V15ZM10.8516 4.85156C10.9505 5.0651 11 5.28125 11 5.5C11 5.70833 10.9609 5.90365 10.8828 6.08594C10.8047 6.26823 10.6979 6.42708 10.5625 6.5625C10.4271 6.69792 10.2682 6.80469 10.0859 6.88281C9.90365 6.96094 9.70833 7 9.5 7C9.29167 7 9.09635 6.96094 8.91406 6.88281C8.73177 6.80469 8.57292 6.69792 8.4375 6.5625C8.30208 6.42708 8.19531 6.26823 8.11719 6.08594C8.03906 5.90365 8 5.70833 8 5.5C8 5.46875 8 5.4375 8 5.40625C8 5.375 8.0026 5.34375 8.00781 5.3125L6.53906 4.57812C6.40365 4.71354 6.24479 4.81771 6.0625 4.89062C5.88021 4.96354 5.69271 5 5.5 5C5.28125 5 5.0651 4.95052 4.85156 4.85156L2.85156 6.85156C2.95052 7.0651 3 7.28125 3 7.5C3 7.70833 2.96094 7.90365 2.88281 8.08594C2.80469 8.26823 2.69792 8.42708 2.5625 8.5625C2.42708 8.69792 2.26823 8.80469 2.08594 8.88281C1.90365 8.96094 1.70833 9 1.5 9C1.29167 9 1.09635 8.96094 0.914062 8.88281C0.731771 8.80469 0.572917 8.69792 0.4375 8.5625C0.302083 8.42708 0.195312 8.26823 0.117188 8.08594C0.0390625 7.90365 0 7.70833 0 7.5C0 7.29167 0.0390625 7.09635 0.117188 6.91406C0.195312 6.73177 0.302083 6.57292 0.4375 6.4375C0.572917 6.30208 0.731771 6.19531 0.914062 6.11719C1.09635 6.03906 1.29167 6 1.5 6C1.71875 6 1.9349 6.04948 2.14844 6.14844L4.14844 4.14844C4.04948 3.9349 4 3.71875 4 3.5C4 3.29167 4.03906 3.09635 4.11719 2.91406C4.19531 2.73177 4.30208 2.57292 4.4375 2.4375C4.57292 2.30208 4.73177 2.19531 4.91406 2.11719C5.09635 2.03906 5.29167 2 5.5 2C5.70833 2 5.90365 2.03906 6.08594 2.11719C6.26823 2.19531 6.42708 2.30208 6.5625 2.4375C6.69792 2.57292 6.80469 2.73177 6.88281 2.91406C6.96094 3.09635 7 3.29167 7 3.5C7 3.53125 7 3.5625 7 3.59375C7 3.625 6.9974 3.65625 6.99219 3.6875L8.46094 4.42188C8.59635 4.28646 8.75521 4.18229 8.9375 4.10938C9.11979 4.03646 9.30729 4 9.5 4C9.71875 4 9.9349 4.04948 10.1484 4.14844L12.1484 2.14844C12.0495 1.9349 12 1.71875 12 1.5C12 1.29167 12.0391 1.09635 12.1172 0.914062C12.1953 0.731771 12.3021 0.572917 12.4375 0.4375C12.5729 0.302083 12.7318 0.195312 12.9141 0.117188C13.0964 0.0390625 13.2917 0 13.5 0C13.7083 0 13.9036 0.0390625 14.0859 0.117188C14.2682 0.195312 14.4271 0.302083 14.5625 0.4375C14.6979 0.572917 14.8047 0.731771 14.8828 0.914062C14.9609 1.09635 15 1.29167 15 1.5C15 1.70833 14.9609 1.90365 14.8828 2.08594C14.8047 2.26823 14.6979 2.42708 14.5625 2.5625C14.4271 2.69792 14.2682 2.80469 14.0859 2.88281C13.9036 2.96094 13.7083 3 13.5 3C13.2812 3 13.0651 2.95052 12.8516 2.85156L10.8516 4.85156ZM1.5 8C1.63542 8 1.7526 7.95052 1.85156 7.85156C1.95052 7.7526 2 7.63542 2 7.5C2 7.36458 1.95052 7.2474 1.85156 7.14844C1.7526 7.04948 1.63542 7 1.5 7C1.36458 7 1.2474 7.04948 1.14844 7.14844C1.04948 7.2474 1 7.36458 1 7.5C1 7.63542 1.04948 7.7526 1.14844 7.85156C1.2474 7.95052 1.36458 8 1.5 8ZM13.5 1C13.3646 1 13.2474 1.04948 13.1484 1.14844C13.0495 1.2474 13 1.36458 13 1.5C13 1.63542 13.0495 1.7526 13.1484 1.85156C13.2474 1.95052 13.3646 2 13.5 2C13.6354 2 13.7526 1.95052 13.8516 1.85156C13.9505 1.7526 14 1.63542 14 1.5C14 1.36458 13.9505 1.2474 13.8516 1.14844C13.7526 1.04948 13.6354 1 13.5 1ZM5.5 4C5.63542 4 5.7526 3.95052 5.85156 3.85156C5.95052 3.7526 6 3.63542 6 3.5C6 3.36458 5.95052 3.2474 5.85156 3.14844C5.7526 3.04948 5.63542 3 5.5 3C5.36458 3 5.2474 3.04948 5.14844 3.14844C5.04948 3.2474 5 3.36458 5 3.5C5 3.63542 5.04948 3.7526 5.14844 3.85156C5.2474 3.95052 5.36458 4 5.5 4ZM9.5 6C9.63542 6 9.7526 5.95052 9.85156 5.85156C9.95052 5.7526 10 5.63542 10 5.5C10 5.36458 9.95052 5.2474 9.85156 5.14844C9.7526 5.04948 9.63542 5 9.5 5C9.36458 5 9.2474 5.04948 9.14844 5.14844C9.04948 5.2474 9 5.36458 9 5.5C9 5.63542 9.04948 5.7526 9.14844 5.85156C9.2474 5.95052 9.36458 6 9.5 6Z" fill="#0078D4"/></svg>
