<svg width="17" height="16" viewBox="0 0 17 16" fill="none" xmlns="http://www.w3.org/2000/svg">
<path fill-rule="evenodd" clip-rule="evenodd" d="M1.04102 10C1.04102 6.1 4.14102 3 8.04102 3C11.941 3 15.041 6.1 15.041 10H14.041C14.041 6.7 11.341 4 8.04102 4C4.74102 4 2.04102 6.7 2.04102 10H1.04102ZM5.04102 10C5.04102 8.3 6.34102 7 8.04102 7C9.74102 7 11.041 8.3 11.041 10C11.041 11.7 9.74102 13 8.04102 13C6.34102 13 5.04102 11.7 5.04102 10ZM6.04102 10C6.04102 11.1 6.94102 12 8.04102 12C9.14102 12 10.041 11.1 10.041 10C10.041 8.9 9.14102 8 8.04102 8C6.94102 8 6.04102 8.9 6.04102 10Z" fill="#323130"/>
</svg>
