<svg width="14" height="16" viewBox="0 0 14 16" fill="none" xmlns="http://www.w3.org/2000/svg">
<path d="M13.5 3.0001H12.5V14.5001C12.5146 14.7052 12.4803 14.9108 12.4 15.1001L12.1 15.6001L11.6 15.9001H2.4L1.9 15.6001L1.6 15.1001C1.51969 14.9108 1.48542 14.7052 1.5 14.5001V3.0001H0.5V2.0001H4.5V1.0001C4.48504 0.859138 4.52046 0.717432 4.6 0.600098L4.8 0.300098L5.1 0.100098H8.9L9.2 0.300098L9.4 0.600098C9.47954 0.717432 9.51496 0.859138 9.5 1.0001V2.0001H13.5V3.0001ZM11.5 3.0001H2.5V14.5001C2.48504 14.6411 2.52046 14.7828 2.6 14.9001H11.4C11.4795 14.7828 11.515 14.6411 11.5 14.5001V3.0001ZM5.5 13.0001H4.5V5.0001H5.5V13.0001ZM5.5 2.0001H8.5V1.0001H5.5V2.0001ZM7.5 13.0001H6.5V5.0001H7.5V13.0001ZM9.5 13.0001H8.5V5.0001H9.5V13.0001Z" fill="#0078D4"/>
</svg>
