<svg id="Layer_1" data-name="Layer 1" xmlns="http://www.w3.org/2000/svg" viewBox="0 0 16 16"><defs><style>.cls-1{fill:#fff;}</style></defs><title>help_inverse_16x16</title><path class="cls-1" d="M10.13.45A8.14,8.14,0,0,1,12,1.23a8,8,0,0,1,1.62,1.21A7.8,7.8,0,0,1,14.91,4a7.59,7.59,0,0,1,.81,1.85,7.6,7.6,0,0,1,0,4.12,7.59,7.59,0,0,1-.81,1.85,7.8,7.8,0,0,1-1.25,1.57A8,8,0,0,1,12,14.62a8.2,8.2,0,0,1-8.08,0,8,8,0,0,1-1.62-1.21,7.8,7.8,0,0,1-1.25-1.57A7.63,7.63,0,0,1,.28,10a7.6,7.6,0,0,1,0-4.12A7.63,7.63,0,0,1,1.09,4,7.8,7.8,0,0,1,2.34,2.44,8,8,0,0,1,4,1.23,8.26,8.26,0,0,1,10.13.45Zm-.27,14a7.17,7.17,0,0,0,1.67-.69,7,7,0,0,0,1.41-1.06,6.75,6.75,0,0,0,1.8-3,6.59,6.59,0,0,0,0-3.6,6.75,6.75,0,0,0-1.8-3,7,7,0,0,0-1.41-1.06,7.17,7.17,0,0,0-1.67-.69,7.21,7.21,0,0,0-3.72,0,7.17,7.17,0,0,0-1.67.69A7,7,0,0,0,3.05,3.13,6.82,6.82,0,0,0,2,4.5a6.72,6.72,0,0,0-.71,1.62,6.59,6.59,0,0,0,0,3.6A6.72,6.72,0,0,0,2,11.35a6.82,6.82,0,0,0,1.09,1.37,7,7,0,0,0,1.41,1.06,7.17,7.17,0,0,0,1.67.69,7.21,7.21,0,0,0,3.72,0ZM9,4a2.75,2.75,0,0,1,.85.56,2.61,2.61,0,0,1,.57.82,2.44,2.44,0,0,1,.21,1,2.08,2.08,0,0,1-.16.85,2.82,2.82,0,0,1-.4.65,4.28,4.28,0,0,1-.51.53c-.18.16-.36.32-.51.48a2.55,2.55,0,0,0-.4.51,1.19,1.19,0,0,0-.16.61v.52H7.46V10a2.09,2.09,0,0,1,.16-.85A2.86,2.86,0,0,1,8,8.5,4.28,4.28,0,0,1,8.54,8c.18-.16.36-.32.51-.48A2.51,2.51,0,0,0,9.45,7a1.18,1.18,0,0,0,.16-.61,1.49,1.49,0,0,0-.13-.61,1.56,1.56,0,0,0-.34-.49A1.63,1.63,0,0,0,8,4.81a1.63,1.63,0,0,0-1.14.45,1.57,1.57,0,0,0-.34.49,1.49,1.49,0,0,0-.13.61H5.32a2.41,2.41,0,0,1,.21-1,2.68,2.68,0,0,1,.58-.82A2.77,2.77,0,0,1,7,4a2.62,2.62,0,0,1,1-.21A2.65,2.65,0,0,1,9,4ZM8.54,12.6H7.46v-1H8.54Z"/></svg>