<svg viewBox="0 0 30 30" class="msportalfx-svg-fabric-rotate360" role="presentation" focusable="false" xmlns:svg="http://www.w3.org/2000/svg" xmlns:xlink="http://www.w3.org/1999/xlink" aria-hidden="true"><g><path fill="#C7E0F4" d="M29.01 15.005c0 7.735-6.27 14.005-14.005 14.005C7.27 29.01 1 22.74 1 15.005 1 7.27 7.27 1 15.005 1 22.74 1 29.01 7.27 29.01 15.005zm-26.995 0c0 7.174 5.816 12.99 12.99 12.99s12.99-5.816 12.99-12.99-5.816-12.99-12.99-12.99-12.99 5.816-12.99 12.99z"></path><path fill="#0078D4" d="M28.533 18.63A14.005 14.005 0 0 0 18.63 1.477l-.263.981a12.99 12.99 0 0 1 9.185 15.909l.98.263z"></path></g></svg>
