<svg width="12" height="8" viewBox="0 0 12 8" fill="none" xmlns="http://www.w3.org/2000/svg">
<path fill-rule="evenodd" clip-rule="evenodd" d="M3.97141 5.96478C3.91424 6.1158 3.85805 6.26778 3.80285 6.42072L3.76737 6.42073C3.73189 6.27162 3.6826 6.12346 3.61952 5.97626C3.55643 5.82906 3.49335 5.68473 3.43026 5.54327L1.14736 0.42188H0V7.7627H0.839822V2.8478C0.839822 2.60692 0.837851 2.36701 0.833908 2.12805C0.829965 1.88909 0.818137 1.64918 0.798423 1.40831C0.837851 1.53448 0.874322 1.66256 0.907836 1.79255C0.94135 1.92255 0.985707 2.0468 1.04091 2.16533L3.5722 7.76272H3.99803L6.53523 2.11944C6.58649 2.00857 6.62887 1.89195 6.66239 1.76961C6.6959 1.64726 6.72843 1.52683 6.75997 1.4083C6.74815 1.64917 6.73632 1.88718 6.72449 2.12231C6.71266 2.35745 6.70675 2.59545 6.70675 2.83632V7.7627H7.57022V0.421875H6.48201L4.15771 5.52032C4.09068 5.66561 4.02858 5.81376 3.97141 5.96478ZM10.2198 7.91182L12 6.18558L11.4677 5.66943L10.5983 6.50674V0.421884H9.84128V6.50674L8.97188 5.66943L8.4396 6.18558L10.2198 7.91182Z" fill="#0078D4"/>
</svg>
