<svg width="16" height="14" viewBox="0 0 16 14" fill="none" xmlns="http://www.w3.org/2000/svg">
<path d="M15.25 1.5V13.5H0.5V1.5H2.5V0.5H5.375C5.83333 0.5 6.27604 0.575521 6.70312 0.726562C7.13021 0.872396 7.52083 1.08854 7.875 1.375C8.22917 1.08854 8.61979 0.872396 9.04688 0.726562C9.47396 0.575521 9.91667 0.5 10.375 0.5H13.25V1.5H15.25ZM10.375 1.25C9.98438 1.25 9.60677 1.31771 9.24219 1.45312C8.8776 1.58333 8.54688 1.77865 8.25 2.03906V12.1094C8.56771 11.9062 8.90625 11.7552 9.26562 11.6562C9.63021 11.5521 10 11.5 10.375 11.5H12.5V1.25H10.375ZM3.25 11.5H5.375C5.75 11.5 6.11719 11.5521 6.47656 11.6562C6.84115 11.7552 7.18229 11.9062 7.5 12.1094V2.03906C7.20312 1.78385 6.8724 1.58854 6.50781 1.45312C6.14323 1.31771 5.76562 1.25 5.375 1.25H3.25V11.5ZM1.25 12.75H7.11719C6.85677 12.5833 6.57812 12.4583 6.28125 12.375C5.98958 12.2917 5.6875 12.25 5.375 12.25H2.5V2.25H1.25V12.75ZM14.5 2.25H13.25V12.25H10.375C10.0677 12.25 9.76562 12.2917 9.46875 12.375C9.17708 12.4583 8.90104 12.5833 8.64062 12.75H14.5V2.25Z" fill="#015CDA"/>
</svg>
