<svg id="Layer_1" data-name="Layer 1" xmlns="http://www.w3.org/2000/svg" viewBox="0 0 16 16"><defs><style>.cls-1{fill:#212121;}</style></defs><title>new_database_16x16</title><path class="cls-1" d="M13.68,2.18V8.84h-1V2.24c-.11-.37-2.14-1.13-5.48-1.13s-5.37.76-5.48,1.14V13.69c0,.36,2,1.2,5.48,1.2a15.63,15.63,0,0,0,4.18-.5l.28,1a16.39,16.39,0,0,1-4.46.54c-3.12,0-6.48-.69-6.48-2.2V2.18C.82.55,4.83.11,7.2.11S13.58.55,13.68,2.18Z"/><path class="cls-1" d="M12.75,14.26V12.34H10.82v-.82h1.93V9.59h.82v1.93H15.5v.82H13.57v1.93Z"/></svg>