<svg id="Layer_1" data-name="Layer 1" xmlns="http://www.w3.org/2000/svg" viewBox="0 0 12 12"><title>pin_small</title><path d="M12,4l-.38.36a2.32,2.32,0,0,1-.39.28,1.84,1.84,0,0,1-.43.18,2.08,2.08,0,0,1-.53.06,2,2,0,0,1-.39,0L7.61,7.13a2.68,2.68,0,0,1,.11.46,3.21,3.21,0,0,1,0,.48,3,3,0,0,1-.08.7,2.63,2.63,0,0,1-.22.6,3.07,3.07,0,0,1-.35.53q-.21.25-.47.52l-2.3-2.3L1,11.51l-.81.27L.41,11,3.8,7.59,1.5,5.29,1.77,5a2.88,2.88,0,0,1,1-.64,3,3,0,0,1,2.06-.07L7,2.05a2,2,0,0,1,0-.39,2.06,2.06,0,0,1,.06-.53A1.89,1.89,0,0,1,7.25.7,2.28,2.28,0,0,1,7.53.31l.36-.38Zm-1.74.11A1.3,1.3,0,0,0,10.88,4L7.93,1a1.3,1.3,0,0,0-.15.62,1.21,1.21,0,0,0,0,.31l.09.3L5,5.2l-.28-.11L4.43,5l-.27-.06-.3,0A2.22,2.22,0,0,0,3.2,5a2.13,2.13,0,0,0-.59.29l4,4a2.2,2.2,0,0,0,.29-.59A2.13,2.13,0,0,0,7,8.08a2,2,0,0,0,0-.3,2.11,2.11,0,0,0-.06-.27,2.66,2.66,0,0,0-.09-.27L6.72,7,9.65,4l.3.09A1.21,1.21,0,0,0,10.26,4.15Z"/></svg>