<svg id="Layer_1" data-name="Layer 1" xmlns="http://www.w3.org/2000/svg" viewBox="0 0 12 12"><defs><style>.cls-1{fill:#fff;}</style></defs><title>pin_small_inverse</title><path class="cls-1" d="M11.93,4.18l-.38.36a2.32,2.32,0,0,1-.39.28,1.84,1.84,0,0,1-.43.18,2.08,2.08,0,0,1-.53.06A2,2,0,0,1,9.8,5L7.54,7.28a2.68,2.68,0,0,1,.11.46,3.21,3.21,0,0,1,0,.48,3,3,0,0,1-.08.7,2.63,2.63,0,0,1-.22.6,3.07,3.07,0,0,1-.35.53q-.21.25-.47.52l-2.3-2.3L.88,11.66l-.81.27.27-.81L3.73,7.73l-2.3-2.3.27-.27a2.88,2.88,0,0,1,1-.64,3,3,0,0,1,2.06-.07L7,2.2a2,2,0,0,1,0-.39A2.06,2.06,0,0,1,7,1.28,1.89,1.89,0,0,1,7.18.85,2.28,2.28,0,0,1,7.46.46L7.82.07Zm-1.74.11a1.3,1.3,0,0,0,.62-.15L7.86,1.19a1.3,1.3,0,0,0-.15.62,1.21,1.21,0,0,0,0,.31l.09.3L4.9,5.35l-.28-.11-.26-.09-.27-.06-.3,0a2.22,2.22,0,0,0-.66.1,2.13,2.13,0,0,0-.59.29l4,4a2.2,2.2,0,0,0,.29-.59,2.13,2.13,0,0,0,.1-.65,2,2,0,0,0,0-.3,2.11,2.11,0,0,0-.06-.27,2.66,2.66,0,0,0-.09-.27L6.65,7.1,9.57,4.17l.3.09A1.21,1.21,0,0,0,10.19,4.3Z"/></svg>