<svg width="16" height="16" viewBox="0 0 16 16" fill="none" xmlns="http://www.w3.org/2000/svg">
<path d="M13.21 2.19109V4.66109H12.21V2.25109C12.1 1.87109 10.06 1.12109 6.73 1.12109C3.4 1.12109 1.36 1.87109 1.25 2.26109V13.7011C1.25 14.0611 3.25 14.9011 6.73 14.9011C10.21 14.9011 12.16 14.0611 12.21 13.7011V10.9311H13.21V13.7011C13.21 15.2111 9.85 15.9011 6.73 15.9011C3.61 15.9011 0.25 15.2111 0.25 13.7011V2.19109C0.35 0.561094 4.35 0.121094 6.73 0.121094C9.11 0.121094 13.11 0.561094 13.21 2.19109Z" fill="#015CDA"/>
<path d="M15.51 11.3384C15.2584 11.9932 14.8332 12.5671 14.28 12.9984C14.1907 13.0654 14.0816 13.1006 13.97 13.0984C13.865 13.0984 13.7628 13.0654 13.6776 13.004C13.5925 12.9427 13.5288 12.8561 13.4956 12.7565C13.4625 12.657 13.4614 12.5495 13.4927 12.4493C13.524 12.3492 13.586 12.2614 13.67 12.1984C14.0784 11.8841 14.3902 11.4614 14.57 10.9784C14.8297 10.2848 14.8039 9.51651 14.4985 8.84179C14.193 8.16708 13.6326 7.64089 12.94 7.37841C12.5968 7.24583 12.2305 7.1837 11.8629 7.19573C11.4952 7.20775 11.1337 7.29369 10.8 7.44841C10.2764 7.68669 9.83972 8.0815 9.54999 8.57841L11.16 8.13841L11.42 9.13841L8.19999 9.99841L7.32999 6.76841L8.32999 6.50841L8.70999 7.99841C9.16874 7.24148 9.87733 6.66842 10.7135 6.37814C11.5496 6.08786 12.4609 6.09857 13.29 6.40841C13.7605 6.5849 14.1915 6.85274 14.5581 7.1965C14.9247 7.54025 15.2197 7.95314 15.426 8.41138C15.6324 8.86962 15.746 9.36416 15.7604 9.86651C15.7748 10.3689 15.6897 10.8691 15.51 11.3384Z" fill="#015CDA"/>
</svg>
