<svg id="Layer_1" data-name="Layer 1" xmlns="http://www.w3.org/2000/svg" viewBox="0 0 16 16"><defs><style>.cls-1{fill:#212121;}</style></defs><title>restore_16x16</title><path class="cls-1" d="M13.21,2.19V4.66h-1V2.25c-.11-.38-2.15-1.13-5.48-1.13s-5.37.75-5.48,1.14V13.7c0,.36,2,1.2,5.48,1.2s5.43-.84,5.48-1.2V10.93h1V13.7c0,1.51-3.36,2.2-6.48,2.2S.25,15.21.25,13.7V2.19C.35.56,4.35.12,6.73.12S13.11.56,13.21,2.19Z"/><path class="cls-1" d="M15.51,11.34A3.86,3.86,0,0,1,14.28,13a.5.5,0,0,1-.31.1.5.5,0,0,1-.3-.9,2.75,2.75,0,0,0,.9-1.22,2.8,2.8,0,0,0-1.63-3.6,2.74,2.74,0,0,0-2.14.07A2.78,2.78,0,0,0,9.55,8.58l1.61-.44.26,1L8.2,10,7.33,6.77l1-.26L8.71,8a3.8,3.8,0,0,1,4.58-1.59A3.81,3.81,0,0,1,15.51,11.34Z"/></svg>