<svg viewBox="0 0 16 16" fill="none" xmlns="http://www.w3.org/2000/svg">
<path d="M12 7L2 14V0L12 7ZM3 12.078L10.258 7L3 1.922V12.078Z" fill="#0078D4"/>
<path d="M15.9998 11.7L15.0308 12.1C15.0935 12.4146 15.0935 12.7384 15.0308 13.053L15.9998 13.453L15.6168 14.383L14.6478 13.977C14.5606 14.1093 14.4601 14.2322 14.3478 14.344C14.2328 14.4559 14.1072 14.5564 13.9728 14.644L14.3788 15.613L13.4488 15.996L13.0488 15.027C12.7343 15.0897 12.4104 15.0897 12.0958 15.027L11.6998 16L10.7698 15.617L11.1768 14.648C10.9131 14.4681 10.6852 14.2405 10.5048 13.977L9.53583 14.383L9.15283 13.453L10.1218 13.053C10.0592 12.7384 10.0592 12.4146 10.1218 12.1L9.15283 11.7L9.53583 10.77L10.5048 11.177C10.6849 10.913 10.9128 10.6851 11.1768 10.505L10.7698 9.53602L11.6998 9.15302L12.0998 10.122C12.4144 10.0593 12.7383 10.0593 13.0528 10.122L13.4528 9.15302L14.3828 9.53602L13.9768 10.505C14.1093 10.5919 14.2323 10.6925 14.3438 10.805C14.4562 10.9196 14.5567 11.0453 14.6438 11.18L15.6128 10.773L15.9998 11.7ZM12.5778 14.075C12.7765 14.0759 12.9732 14.0361 13.1558 13.958C13.3338 13.8829 13.4958 13.7742 13.6328 13.638C13.7711 13.4979 13.8823 13.3335 13.9608 13.153C14.0427 12.9716 14.0827 12.774 14.0778 12.575C14.0793 12.3737 14.0394 12.1743 13.9608 11.989C13.8093 11.6278 13.522 11.3406 13.1608 11.189C12.9751 11.1118 12.776 11.072 12.5748 11.072C12.3737 11.072 12.1745 11.1118 11.9888 11.189C11.628 11.341 11.3409 11.6281 11.1888 11.989C11.1116 12.1747 11.0718 12.3739 11.0718 12.575C11.0718 12.7762 11.1116 12.9753 11.1888 13.161C11.3404 13.5222 11.6277 13.8094 11.9888 13.961C12.1751 14.04 12.3756 14.0798 12.5778 14.078V14.075Z" fill="#0078D4"/>
</svg>
