<svg id="Layer_1" data-name="Layer 1" xmlns="http://www.w3.org/2000/svg" viewBox="0 0 16 16"><defs><style>.cls-1{fill:#fff;}</style></defs><title>run_history_inverse_16x16</title><polygon class="cls-1" points="13.59 2.21 13.58 2.22 13.58 2.2 13.59 2.21"/><path class="cls-1" d="M8,16a7.85,7.85,0,0,1-2.13-.29A8.11,8.11,0,0,1,4,14.91,8,8,0,0,1,1.09,12a8.06,8.06,0,0,1-.8-1.91,8.06,8.06,0,0,1,0-4.25A8.06,8.06,0,0,1,1.09,4,8,8,0,0,1,4,1.09,8.08,8.08,0,0,1,5.88.29a8.06,8.06,0,0,1,4.25,0,8.08,8.08,0,0,1,1.91.8A8,8,0,0,1,14.91,4a8.08,8.08,0,0,1,.8,1.91,8.07,8.07,0,0,1,0,4.25,8.11,8.11,0,0,1-.8,1.91A8,8,0,0,1,12,14.91a8.08,8.08,0,0,1-1.91.8A7.87,7.87,0,0,1,8,16ZM8,1a6.85,6.85,0,0,0-1.86.25A7,7,0,0,0,1.25,6.14a7,7,0,0,0,0,3.71,7,7,0,0,0,4.89,4.89,7,7,0,0,0,3.71,0,7,7,0,0,0,4.89-4.89,7,7,0,0,0,0-3.71A7,7,0,0,0,9.86,1.25,6.85,6.85,0,0,0,8,1ZM8,8V3H7V9h4V8Z"/></svg>