<svg xmlns="http://www.w3.org/2000/svg" width="16" height="16" viewBox="0 0 16 16"><defs><style>.a,.b{fill:#f6f6f6;}.a{opacity:0;}.c{fill:#00539c;}.d{fill:#424242;}.e{fill:#f0eff1;}</style></defs><title>save_option_text_16x</title><rect class="a" width="16" height="16"/><path class="b" d="M12.06,0H6A2,2,0,0,0,4,2V7H0v9H9V14h5a2,2,0,0,0,2-2V3.56Z"/><path class="c" d="M6,8v3H3V8H1v7H8V10ZM5,10H4V8H5Z"/><rect class="d" x="7" y="4" width="3" height="1"/><rect class="d" x="7" y="6" width="6" height="1"/><path class="d" d="M11.64,1H6A1,1,0,0,0,5,2V7H6V2h5V5h3v7H9v1h5a1,1,0,0,0,1-1V4Z"/><polygon class="d" points="7.41 8 8.41 9 13 9 13 8 7.41 8"/><rect class="d" x="9" y="10" width="4" height="1"/><path class="e" d="M6,8v3H3V8H4v2H5V8Z"/><path class="e" d="M11,5V2H6V7h.41l1,1H13V9H8.41L9,9.59V10h4v1H9v1h5V5ZM7,4h3V5H7Zm6,3H7V6h6Z"/></svg>