<svg id="Layer_1" data-name="Layer 1" xmlns="http://www.w3.org/2000/svg" viewBox="0 0 16 16"><defs><style>.cls-1{fill:#fff;}</style></defs><title>search_inverse_16x16</title><path class="cls-1" d="M10.5-.11a5.45,5.45,0,0,1,2.77.75,5.61,5.61,0,0,1,2,2,5.49,5.49,0,0,1,0,5.55,5.61,5.61,0,0,1-2,2,5.5,5.5,0,0,1-4.64.42A5.62,5.62,0,0,1,7,9.61L.85,15.74a.48.48,0,0,1-.35.15.48.48,0,0,1-.35-.15.49.49,0,0,1,0-.7L6.27,8.9a5.6,5.6,0,0,1-.95-1.64A5.53,5.53,0,0,1,5.2,3.93a5.4,5.4,0,0,1,.55-1.31,5.61,5.61,0,0,1,2-2A5.45,5.45,0,0,1,10.5-.11Zm0,10a4.35,4.35,0,0,0,1.75-.36,4.53,4.53,0,0,0,2.39-2.39A4.35,4.35,0,0,0,15,5.39a4.35,4.35,0,0,0-.36-1.75,4.53,4.53,0,0,0-2.39-2.39,4.49,4.49,0,0,0-3.5,0A4.53,4.53,0,0,0,6.36,3.64,4.35,4.35,0,0,0,6,5.39a4.35,4.35,0,0,0,.36,1.75A4.53,4.53,0,0,0,8.75,9.53,4.35,4.35,0,0,0,10.5,9.89Z"/></svg>