<svg width="17" height="19" viewBox="0 0 17 19" fill="none" xmlns="http://www.w3.org/2000/svg">
<path fill-rule="evenodd" clip-rule="evenodd" d="M7 16.6698C6.55149 16.3952 6.10503 16.1075 5.66063 15.8069C5.04776 15.3922 4.46357 14.9462 3.90807 14.469C3.35257 13.9917 2.83618 13.4818 2.35892 12.9394C1.88166 12.3969 1.4683 11.8153 1.11883 11.1946C0.769357 10.5739 0.49552 9.91412 0.29731 9.21518C0.0991035 8.51624 0 7.77297 0 6.98536V2.97949C0.432925 2.97949 0.852811 2.96385 1.25966 2.93255C1.6665 2.90125 2.06292 2.84388 2.4489 2.76042C2.83488 2.67697 3.21564 2.55961 3.59119 2.40835C3.96674 2.25708 4.34229 2.06148 4.71784 1.82155C5.1612 1.53467 5.60456 1.32212 6.04791 1.1839C6.49127 1.04567 6.97897 0.976562 7.51099 0.976562C7.77701 0.976562 8.02998 0.993515 8.26992 1.02742C8.50985 1.06132 8.74327 1.11348 8.97016 1.1839C9.19706 1.25431 9.42004 1.34298 9.63911 1.44991C9.85818 1.55684 10.0799 1.68072 10.3041 1.82155C10.6797 2.06148 11.0552 2.25708 11.4308 2.40834C11.8063 2.55961 12.1871 2.67697 12.5731 2.76042C12.9591 2.84388 13.3555 2.90125 13.7623 2.93255C14.1692 2.96385 14.5891 2.97949 15.022 2.97949V6.98536C15.022 7.69266 14.9421 8.36421 14.7822 9H13.7274C13.738 8.96489 13.7483 8.92968 13.7584 8.89437C13.9331 8.2841 14.0205 7.64775 14.0205 6.98532V3.96528C13.2433 3.92355 12.4988 3.79837 11.7868 3.58973C11.0748 3.38109 10.3902 3.06552 9.73299 2.64303C9.37831 2.41353 9.02493 2.24531 8.67285 2.13839C8.32077 2.03146 7.93349 1.978 7.511 1.978C7.0885 1.978 6.70122 2.03146 6.34914 2.13839C5.99706 2.24531 5.64368 2.41353 5.289 2.64303C4.63179 3.06552 3.94719 3.38109 3.23521 3.58973C2.52323 3.79837 1.77865 3.92355 1.00147 3.96528V6.98532C1.00147 7.64775 1.08884 8.2841 1.26357 8.89437C1.43831 9.50464 1.67694 10.0849 1.97946 10.6352C2.28199 11.1855 2.64189 11.7071 3.05917 12.2C3.47645 12.6929 3.92502 13.1571 4.40489 13.5927C4.88476 14.0282 5.3894 14.4311 5.91882 14.8015C6.27861 15.0532 6.63901 15.2904 7 15.5131V16.6698Z" fill="#0078D4"/>
<path d="M12.3771 13.7121L15.1546 16.4896L14.4896 17.1546L11.7121 14.3771L8.91504 17.1742L8.25 16.5092L11.0471 13.7121L8.25 10.915L8.91504 10.25L11.7121 13.0471L14.5092 10.25L15.1742 10.915L12.3771 13.7121Z" fill="#0078D4"/>
</svg>
