<svg width="16" height="16" viewBox="0 0 16 16" fill="none" xmlns="http://www.w3.org/2000/svg">
<path d="M0.707107 0.0467995L0 0.753906L13.2731 14.027L13.9802 13.3199L0.707107 0.0467995Z" fill="#0078D4"/>
<path d="M11.919 11.2462C11.5113 11.7276 11.0706 12.1801 10.6 12.6002C10.118 13.0289 9.61185 13.4295 9.084 13.8002C8.56133 14.1729 8.03333 14.5129 7.5 14.8202C6.958 14.5082 6.42667 14.1699 5.906 13.8052C5.37988 13.4346 4.87694 13.0322 4.4 12.6002C3.92098 12.1679 3.47225 11.7031 3.057 11.2092C2.64762 10.7248 2.28594 10.2021 1.977 9.6482C1.66983 9.09775 1.42851 8.51306 1.258 7.9062C1.0845 7.28581 0.997672 6.6444 1 6.0002V2.9842C1.7568 2.94731 2.50663 2.82145 3.234 2.6092C3.24581 2.60679 3.25749 2.60378 3.269 2.6002L2.452 1.7832H2.445C2.05379 1.86792 1.65717 1.92539 1.258 1.9552C0.852 1.9852 0.432667 2.0002 0 2.0002V6.0002C0.00576517 7.43903 0.376682 8.85285 1.078 10.1092C1.4206 10.7198 1.81825 11.2979 2.266 11.8362C2.72145 12.3857 3.22039 12.8977 3.758 13.3672C4.29894 13.8419 4.86653 14.2852 5.458 14.6952C6.052 15.1072 6.652 15.4875 7.258 15.8362L7.5 15.9772L7.742 15.8362C8.36412 15.4911 8.9667 15.1118 9.547 14.7002C10.1359 14.2839 10.7033 13.838 11.247 13.3642C11.7421 12.9319 12.205 12.4639 12.632 11.9642L11.919 11.2462Z" fill="#0078D4"/>
<path d="M13.7422 1.95309C13.343 1.92327 12.9464 1.8658 12.5552 1.78109C12.1655 1.69691 11.7838 1.57948 11.4142 1.43009C11.022 1.2698 10.6454 1.07363 10.2892 0.844089C10.0778 0.702279 9.85581 0.57691 9.6252 0.469089C9.40678 0.36608 9.18238 0.276252 8.9532 0.200089C8.72526 0.126304 8.4909 0.0740751 8.2532 0.0440894C8.0034 0.0134013 7.75188 -0.0012953 7.5002 8.94351e-05C7.00561 8.10423e-05 6.51358 0.0711405 6.0392 0.211089C5.56916 0.35906 5.12215 0.572129 4.7112 0.844089C4.35504 1.07363 3.97844 1.2698 3.5862 1.43009C3.5692 1.43709 3.5512 1.43909 3.5332 1.44609L4.2952 2.20709C4.63598 2.049 4.96543 1.86757 5.2812 1.66409C5.60941 1.44477 5.96739 1.27369 6.3442 1.15609C6.71995 1.04837 7.10935 0.995823 7.5002 1.00009C7.89393 1.00048 8.28569 1.05568 8.6642 1.16409C9.03785 1.27977 9.39309 1.44813 9.7192 1.66409C10.3557 2.07474 11.0473 2.39292 11.7732 2.60909C12.4983 2.82084 13.2457 2.9467 14.0002 2.98409V6.00009C13.9932 6.64417 13.9038 7.28471 13.7342 7.90609C13.5671 8.5129 13.3285 9.09768 13.0232 9.64809C12.8725 9.92209 12.7089 10.1888 12.5322 10.4481L13.2482 11.1641C13.4961 10.823 13.7238 10.4677 13.9302 10.1001C14.2692 9.48769 14.534 8.83711 14.7192 8.16209C14.9092 7.45725 15.0037 6.73009 15.0002 6.00009V2.00009C14.5682 2.00009 14.1489 1.98442 13.7422 1.95309Z" fill="#0078D4"/>
</svg>
