<svg id="Layer_1" data-name="Layer 1" xmlns="http://www.w3.org/2000/svg" viewBox="0 0 16 16"><defs><style>.cls-1{fill:#fff;}</style></defs><title>sourcecontrol_inverse_16x16</title><path class="cls-1" d="M14.06,2.4a2.44,2.44,0,0,1-.15.86,2.5,2.5,0,0,1-.42.73,2.58,2.58,0,0,1-.64.55,2.44,2.44,0,0,1-.81.31,4.38,4.38,0,0,1-.41,1.48,4.51,4.51,0,0,1-.86,1.23,4.57,4.57,0,0,1-1.22.88,4.48,4.48,0,0,1-1.48.44v2.07a2.54,2.54,0,0,1,1.44.87,2.49,2.49,0,0,1,.41.73,2.47,2.47,0,0,1,.15.85,2.41,2.41,0,0,1-.2,1,2.56,2.56,0,0,1-.54.8,2.52,2.52,0,0,1-.79.54,2.43,2.43,0,0,1-1,.2,2.45,2.45,0,0,1-1-.2,2.49,2.49,0,0,1-1.33-1.33,2.52,2.52,0,0,1,0-1.82,2.49,2.49,0,0,1,.41-.73,2.54,2.54,0,0,1,1.44-.87V8.88a4.48,4.48,0,0,1-1.48-.44,4.57,4.57,0,0,1-1.22-.88A4.51,4.51,0,0,1,3.5,6.34a4.38,4.38,0,0,1-.41-1.48,2.44,2.44,0,0,1-.81-.31A2.58,2.58,0,0,1,1.63,4a2.5,2.5,0,0,1-.42-.73,2.49,2.49,0,0,1,0-1.82A2.52,2.52,0,0,1,1.79.64,2.56,2.56,0,0,1,2.59.1a2.41,2.41,0,0,1,1-.2,2.38,2.38,0,0,1,1,.2A2.56,2.56,0,0,1,5.86,1.43a2.38,2.38,0,0,1,.2,1A2.49,2.49,0,0,1,5.51,4a2.56,2.56,0,0,1-.62.55,2.45,2.45,0,0,1-.79.32,3.28,3.28,0,0,0,.39,1.21,3.62,3.62,0,0,0,.77,1,3.49,3.49,0,0,0,1.06.64,3.51,3.51,0,0,0,2.5,0A3.49,3.49,0,0,0,9.87,7a3.55,3.55,0,0,0,.77-1A3.45,3.45,0,0,0,11,4.85a2.45,2.45,0,0,1-.79-.32A2.56,2.56,0,0,1,9.61,4,2.49,2.49,0,0,1,9.06,2.4a2.43,2.43,0,0,1,.2-1A2.52,2.52,0,0,1,9.79.64a2.56,2.56,0,0,1,.8-.54,2.41,2.41,0,0,1,1-.2,2.38,2.38,0,0,1,1,.2,2.56,2.56,0,0,1,1.33,1.33A2.38,2.38,0,0,1,14.06,2.4Zm-12,0A1.47,1.47,0,0,0,2.18,3a1.49,1.49,0,0,0,.8.8,1.52,1.52,0,0,0,1.17,0,1.49,1.49,0,0,0,.8-.8,1.52,1.52,0,0,0,0-1.17,1.49,1.49,0,0,0-.8-.8A1.52,1.52,0,0,0,3,1a1.49,1.49,0,0,0-.8.8A1.47,1.47,0,0,0,2.06,2.4Zm7,11a1.47,1.47,0,0,0-.12-.59,1.49,1.49,0,0,0-.8-.8A1.52,1.52,0,0,0,7,12a1.49,1.49,0,0,0-.8.8,1.52,1.52,0,0,0,0,1.17,1.49,1.49,0,0,0,.8.8,1.52,1.52,0,0,0,1.17,0,1.49,1.49,0,0,0,.8-.8A1.47,1.47,0,0,0,9.06,13.4Zm2.5-9.5a1.47,1.47,0,0,0,.59-.12,1.49,1.49,0,0,0,.8-.8,1.52,1.52,0,0,0,0-1.17,1.49,1.49,0,0,0-.8-.8A1.52,1.52,0,0,0,11,1a1.49,1.49,0,0,0-.8.8,1.52,1.52,0,0,0,0,1.17,1.49,1.49,0,0,0,.8.8A1.47,1.47,0,0,0,11.56,3.9Z"/></svg>