<svg xmlns="http://www.w3.org/2000/svg" viewBox="0 0 16 16"><style type="text/css">.icon-canvas-transparent{opacity:0;fill:#F6F6F6;} .icon-vs-out{fill:#F6F6F6;} .icon-vs-blue{fill:#1BA1E2;} .icon-white{fill:#FFFFFF;}</style><path class="icon-canvas-transparent" d="M16 16h-16v-16h16v16z" id="canvas"/><path class="icon-vs-out" d="M0 8c0-4.418 3.582-8 8-8s8 3.582 8 8-3.582 8-8 8-8-3.582-8-8z" id="outline"/><path class="icon-vs-blue" d="M8 1c-3.865 0-7 3.135-7 7s3.135 7 7 7 7-3.135 7-7-3.135-7-7-7zm1 12h-2v-7h2v7zm0-8h-2v-2h2v2z" id="iconBg"/><path class="icon-white" d="M7 6h2v7h-2v-7zm0-1h2v-2h-2v2z" id="iconFg"/></svg>