<svg width="16" height="13" viewBox="0 0 16 13" fill="none" xmlns="http://www.w3.org/2000/svg">
<title>add inline image</title>
<path d="M11 2.5C11 2.36458 11.0495 2.2474 11.1484 2.14844C11.2474 2.04948 11.3646 2 11.5 2C11.6354 2 11.7526 2.04948 11.8516 2.14844C11.9505 2.2474 12 2.36458 12 2.5C12 2.63542 11.9505 2.7526 11.8516 2.85156C11.7526 2.95052 11.6354 3 11.5 3C11.3646 3 11.2474 2.95052 11.1484 2.85156C11.0495 2.7526 11 2.63542 11 2.5ZM16 10V11H14V13H13V11H11V10H13V8H14V10H16ZM7.20312 7.5L10 10.2891V11H0V0H14V7H13V1H1V4.28906L2.5 2.79688L6.5 6.79688L8.5 4.79688L12 8.28906V9H11.2891L8.5 6.20312L7.20312 7.5ZM2.5 4.20312L1 5.71094V10H8.28906L2.5 4.20312Z" fill="#323130"/>
</svg>
