<svg width="13" height="13" viewBox="0 0 13 13" fill="none" xmlns="http://www.w3.org/2000/svg">
<title>highlight</title>
<path d="M13 0V3.25C12.6318 3.25 12.3166 3.2902 12.0542 3.37061C11.7918 3.45101 11.5697 3.56738 11.3877 3.71973C11.2057 3.87207 11.0576 4.04557 10.9434 4.24023C10.8291 4.4349 10.7424 4.65706 10.6831 4.90674C10.6239 5.15641 10.5837 5.41032 10.5625 5.66846C10.5413 5.9266 10.5308 6.19954 10.5308 6.4873C10.5308 6.7666 10.535 7.04378 10.5435 7.31885C10.5519 7.59391 10.5583 7.86263 10.5625 8.125H8.9375V10.5625L4.0625 13V8.125H2.4375C2.4375 7.86263 2.44173 7.59391 2.4502 7.31885C2.45866 7.04378 2.46501 6.7666 2.46924 6.4873C2.46924 6.20801 2.45866 5.93506 2.4375 5.66846C2.41634 5.40186 2.37614 5.14795 2.31689 4.90674C2.25765 4.66553 2.17301 4.44548 2.06299 4.24658C1.95296 4.04769 1.80485 3.87207 1.61865 3.71973C1.43245 3.56738 1.20817 3.45312 0.945801 3.37695C0.683431 3.30078 0.368164 3.25846 0 3.25V0H0.8125V2.4375H12.1875V0H13ZM8.125 8.125H4.875V11.686L8.125 10.061V8.125ZM9.75 7.3125C9.75 7.12207 9.74788 6.93587 9.74365 6.75391C9.73942 6.57194 9.7373 6.38997 9.7373 6.20801C9.7373 5.93717 9.74788 5.67057 9.76904 5.4082C9.7902 5.14583 9.83252 4.89193 9.896 4.64648C9.95947 4.40104 10.0568 4.15983 10.188 3.92285C10.3192 3.68587 10.4927 3.46159 10.7085 3.25H2.2915C2.50732 3.46582 2.67871 3.6901 2.80566 3.92285C2.93262 4.1556 3.02995 4.39681 3.09766 4.64648C3.16536 4.89616 3.2098 5.15006 3.23096 5.4082C3.25212 5.66634 3.2627 5.93294 3.2627 6.20801C3.2627 6.38997 3.26058 6.57194 3.25635 6.75391C3.25212 6.93587 3.25 7.12207 3.25 7.3125H9.75Z" fill="#323130"/>
</svg>
