<svg width="10" height="13" viewBox="0 0 10 13" fill="none" xmlns="http://www.w3.org/2000/svg">
<title>bold</title>
<path d="M5.80469 6.03906C6.28385 6.03906 6.73438 6.13021 7.15625 6.3125C7.58333 6.49479 7.95312 6.74479 8.26562 7.0625C8.58333 7.375 8.83333 7.74219 9.01562 8.16406C9.19792 8.58594 9.28906 9.03646 9.28906 9.51562C9.28906 9.99479 9.19792 10.4479 9.01562 10.875C8.83333 11.2969 8.58333 11.6667 8.26562 11.9844C7.95312 12.2969 7.58333 12.5443 7.15625 12.7266C6.73438 12.9089 6.28385 13 5.80469 13H0V0H5.80469C6.22135 0 6.61198 0.0807292 6.97656 0.242188C7.34115 0.398438 7.65885 0.614583 7.92969 0.890625C8.20573 1.16146 8.42188 1.47917 8.57812 1.84375C8.73958 2.20833 8.82031 2.59896 8.82031 3.01562C8.82031 3.43229 8.74219 3.82552 8.58594 4.19531C8.42969 4.5599 8.21354 4.88021 7.9375 5.15625C7.66667 5.42708 7.34635 5.64323 6.97656 5.80469C6.61198 5.96094 6.22135 6.03906 5.80469 6.03906ZM4.17969 1.85938H3V5.57031H4.17969C4.4349 5.57031 4.67448 5.52083 4.89844 5.42188C5.1276 5.32292 5.32552 5.1901 5.49219 5.02344C5.65885 4.85677 5.79167 4.66146 5.89062 4.4375C5.98958 4.20833 6.03906 3.96615 6.03906 3.71094C6.03906 3.45573 5.98958 3.21615 5.89062 2.99219C5.79167 2.76823 5.65885 2.57292 5.49219 2.40625C5.32552 2.23438 5.1276 2.10156 4.89844 2.00781C4.67448 1.90885 4.4349 1.85938 4.17969 1.85938ZM4.64062 11.1406C4.89583 11.1406 5.13542 11.0938 5.35938 11C5.58854 10.901 5.78646 10.7682 5.95312 10.6016C6.11979 10.4297 6.2526 10.2318 6.35156 10.0078C6.45052 9.78385 6.5 9.54427 6.5 9.28906C6.5 9.03385 6.45052 8.79427 6.35156 8.57031C6.25781 8.34115 6.125 8.14323 5.95312 7.97656C5.78646 7.80469 5.58854 7.67188 5.35938 7.57812C5.13542 7.47917 4.89583 7.42969 4.64062 7.42969H3V11.1406H4.64062Z" fill="#323130"/>
</svg>
