<svg width="32" height="32" viewBox="0 0 32 32" fill="none" xmlns="http://www.w3.org/2000/svg">
<path d="M15.8984 21.1333C15.0599 21.1333 14.3464 21.0215 13.7578 20.7979C13.1693 20.5743 12.6901 20.251 12.3203 19.8281C11.9505 19.4052 11.6771 18.8972 11.5 18.3042C11.3229 17.7111 11.237 17.0427 11.2422 16.299V9H12.7422V16.2042C12.7422 16.734 12.7969 17.2226 12.9062 17.6698C13.0156 18.117 13.2005 18.5035 13.4609 18.8292C13.7214 19.1549 14.0625 19.4125 14.4844 19.6021C14.9062 19.7917 15.4297 19.884 16.0547 19.8792C16.6536 19.8792 17.1562 19.7917 17.5625 19.6167C17.9688 19.4417 18.2995 19.1962 18.5547 18.8802C18.8099 18.5642 18.9896 18.1899 19.0938 17.7573C19.1979 17.3247 19.2526 16.8507 19.2578 16.3354V9H20.7578V16.1094C20.7578 16.8774 20.6693 17.5701 20.4922 18.1875C20.3151 18.8049 20.0312 19.3323 19.6406 19.7698C19.25 20.2073 18.7474 20.5427 18.1328 20.776C17.5182 21.0094 16.7734 21.1285 15.8984 21.1333ZM11 22.0667H21V23H11V22.0667Z" fill="#323130"/>
</svg>
