<svg width="16" height="12" viewBox="0 0 16 12" fill="none" xmlns="http://www.w3.org/2000/svg">
<title>insert image</title>
<path d="M16 0V12H0V0H16ZM1 1V6.28906L4.5 2.79688L9.5 7.79688L11.5 5.79688L15 9.28906V1H1ZM1 11H11.2891L4.5 4.20312L1 7.71094V11ZM15 11V10.7109L11.5 7.20312L10.2031 8.5L12.7109 11H15ZM12.5 4C12.3646 4 12.2474 3.95052 12.1484 3.85156C12.0495 3.7526 12 3.63542 12 3.5C12 3.36458 12.0495 3.2474 12.1484 3.14844C12.2474 3.04948 12.3646 3 12.5 3C12.6354 3 12.7526 3.04948 12.8516 3.14844C12.9505 3.2474 13 3.36458 13 3.5C13 3.63542 12.9505 3.7526 12.8516 3.85156C12.7526 3.95052 12.6354 4 12.5 4Z" fill="#323130"/>
</svg>
