<svg id="Layer_1" data-name="Layer 1" xmlns="http://www.w3.org/2000/svg" viewBox="0 0 12 12"><defs><style>.cls-1{fill:#fff;}</style></defs><title>unpin_small_inverse</title><path class="cls-1" d="M11.71,4.25l-.37.35a2.24,2.24,0,0,1-.37.27,1.77,1.77,0,0,1-.42.17,2,2,0,0,1-.51.06,2,2,0,0,1-.37,0l-.77.77h-1L9.44,4.24l.29.08a1.17,1.17,0,0,0,.3,0,1.25,1.25,0,0,0,.6-.15L7.79,1.37a1.25,1.25,0,0,0-.15.6,1.17,1.17,0,0,0,0,.3l.08.29L4.94,5.37l-.26-.11-.25-.09-.26-.05-.29,0a2.17,2.17,0,0,0-.64.09,2,2,0,0,0-.57.28L5.43,8.25v1L4.33,8.19,1.07,11.45l-.78.26.26-.78L3.81,7.67,1.6,5.46l.26-.26a2.75,2.75,0,0,1,.93-.61,2.92,2.92,0,0,1,1.1-.21,2.64,2.64,0,0,1,.44,0,3.31,3.31,0,0,1,.44.11L6.94,2.34a2,2,0,0,1,0-.37A2,2,0,0,1,7,1.46,1.82,1.82,0,0,1,7.14,1,2.2,2.2,0,0,1,7.4.66L7.75.29Zm-3,2.32a2.51,2.51,0,0,1,1,.2,2.58,2.58,0,0,1,1.37,1.37,2.6,2.6,0,0,1,0,2,2.58,2.58,0,0,1-1.37,1.37,2.6,2.6,0,0,1-2,0,2.58,2.58,0,0,1-1.37-1.37,2.6,2.6,0,0,1,0-2A2.58,2.58,0,0,1,7.74,6.77,2.51,2.51,0,0,1,8.74,6.57ZM6.9,9.14A1.8,1.8,0,0,0,7,9.85a1.83,1.83,0,0,0,1,1,1.8,1.8,0,0,0,.71.14,1.83,1.83,0,0,0,.53-.08,1.79,1.79,0,0,0,.48-.23L7.2,8.13A1.79,1.79,0,0,0,7,8.61,1.83,1.83,0,0,0,6.9,9.14Zm3.37,1a1.79,1.79,0,0,0,.23-.48,1.83,1.83,0,0,0,.08-.53,1.75,1.75,0,0,0-.15-.71,1.88,1.88,0,0,0-1-1,1.75,1.75,0,0,0-.71-.15,1.83,1.83,0,0,0-.53.08,1.79,1.79,0,0,0-.48.23Z"/></svg>