<svg id="Layer_1" data-name="Layer 1" xmlns="http://www.w3.org/2000/svg" xmlns:xlink="http://www.w3.org/1999/xlink" viewBox="0 0 16 16"><defs><style>.cls-1,.cls-2{fill:none;}.cls-1{clip-rule:evenodd;}.cls-3{clip-path:url(#clip-path);}.cls-4{fill:#e25a1c;}.cls-5{clip-path:url(#clip-path-2);}.cls-6{fill:#3c3a3e;}.cls-7{clip-path:url(#clip-path-3);}.cls-8{clip-path:url(#clip-path-4);}.cls-9{clip-path:url(#clip-path-5);}.cls-10{clip-path:url(#clip-path-6);}.cls-11{clip-path:url(#clip-path-7);}</style><clipPath id="clip-path"><path class="cls-1" d="M14.58,6.89l0-.06L14,5.7a.07.07,0,0,1,0-.09l.95-1.11a.1.1,0,0,0,0,0l-.28.07-1.15.3a.05.05,0,0,1-.07,0l-.65-1.09a.15.15,0,0,0,0-.05l-.05.29-.18,1s0,.07,0,.11,0,0-.05.06l-1.35.43-.06,0L12.14,6l0,0-.69.45a.07.07,0,0,1-.08,0l-.83-.37a.85.85,0,0,1-.32-.23.43.43,0,0,1,.1-.68,1.23,1.23,0,0,1,.28-.13l1.33-.42A.08.08,0,0,0,12,4.62l.18-1a1.78,1.78,0,0,1,.14-.54.9.9,0,0,1,.12-.18.39.39,0,0,1,.61,0,1.15,1.15,0,0,1,.16.21l.61,1a.07.07,0,0,0,.09,0l1.48-.39a.7.7,0,0,1,.31,0,.3.3,0,0,1,.25.44.84.84,0,0,1-.16.26l-1,1.21a.07.07,0,0,0,0,.09l.62,1.17a.65.65,0,0,1,.09.3.48.48,0,0,1-.42.48.87.87,0,0,1-.39,0l-.93-.28a.05.05,0,0,1,0-.05c0-.22-.07-.44-.11-.65a.14.14,0,0,1,0,0l1.07.29"/></clipPath><clipPath id="clip-path-2"><path class="cls-1" d="M14,10.07h-.84a.08.08,0,0,1-.08,0l-1-1.51,0-.06-.21,1.6h-.73l0-.21.21-1.63.21-1.56a.07.07,0,0,1,0,0l.76-.49h0l-.23,1.74h0l1.2-1.33,0,.18c0,.17.06.33.09.5a.08.08,0,0,1,0,.08l-.77.8,0,0,0,0L13.95,10l0,0h0"/></clipPath><clipPath id="clip-path-3"><path class="cls-1" d="M3.39,9.86l-.06.47-.08.61s0,0,0,0H2.59l0-.29.13-1c.05-.39.09-.77.16-1.16A1.81,1.81,0,0,1,4.29,7.1a1.42,1.42,0,0,1,1.11.18A1.24,1.24,0,0,1,6,8.22a1.66,1.66,0,0,1-.55,1.43,1.7,1.7,0,0,1-.95.47,1.4,1.4,0,0,1-1-.23Zm1.93-1.4a1.71,1.71,0,0,0,0-.22.75.75,0,0,0-.91-.49,1,1,0,0,0-.8.9A.73.73,0,0,0,4,9.42a.86.86,0,0,0,.76-.09A1,1,0,0,0,5.32,8.46Z"/></clipPath><clipPath id="clip-path-4"><path class="cls-1" d="M3.06,6.64l-.66.49L2.3,7a.51.51,0,0,0-.38-.24.43.43,0,0,0-.36.14.25.25,0,0,0,0,.33c.09.12.19.23.29.33l.5.53a1.12,1.12,0,0,1,.3.57,1.16,1.16,0,0,1-.13.75,1.43,1.43,0,0,1-1.08.76,1.42,1.42,0,0,1-.63,0,.93.93,0,0,1-.59-.52c0-.09-.08-.19-.12-.28l.72-.38L.81,9a2.14,2.14,0,0,0,.12.24.49.49,0,0,0,.64.18.7.7,0,0,0,.17-.11.37.37,0,0,0,.07-.51,2.49,2.49,0,0,0-.23-.28c-.2-.22-.4-.43-.59-.65a1,1,0,0,1-.25-.53.91.91,0,0,1,.13-.62A1.34,1.34,0,0,1,2.13,6a1,1,0,0,1,.76.4l.17.23"/></clipPath><clipPath id="clip-path-5"><path class="cls-1" d="M8.4,9.14l-.11.81a.05.05,0,0,1,0,0A1.45,1.45,0,0,1,6.56,9.7a1.31,1.31,0,0,1-.33-1A1.8,1.8,0,0,1,7.79,7.08,1.33,1.33,0,0,1,9,7.52a1.24,1.24,0,0,1,.31.9c0,.22,0,.44-.07.67s-.08.63-.12.94v0H8.48l0-.21c0-.36.1-.72.14-1.09a1.16,1.16,0,0,0-.09-.66A.64.64,0,0,0,8,7.74a1,1,0,0,0-1.09.79.75.75,0,0,0,.3.81A.82.82,0,0,0,8,9.4a1,1,0,0,0,.37-.26"/></clipPath><clipPath id="clip-path-6"><path class="cls-1" d="M11.15,7.14l-.09.68h-.41a.26.26,0,0,0-.24.17.71.71,0,0,0,0,.12l-.2,1.56-.05.39H9.45l0-.29.13-1c0-.29.07-.58.12-.87a.94.94,0,0,1,.84-.75h.57"/></clipPath><clipPath id="clip-path-7"><path class="cls-2" d="M14.28,9.68v.38h-.06V9.68h-.11V9.62h.27v.06Zm.5.38V9.69h0l-.11.37h0l-.11-.37h0v.37h-.06V9.62h.09l.1.34.1-.34h.09v.44Z"/></clipPath></defs><title>new_spark_job</title><g class="cls-3"><rect class="cls-4" x="5.65" y="-1.69" width="14.7" height="13.77"/></g><g class="cls-5"><rect class="cls-6" x="6.67" y="1.7" width="11.72" height="12.78"/></g><g class="cls-7"><rect class="cls-6" x="-1.83" y="2.64" width="12.23" height="12.75"/></g><g class="cls-8"><rect class="cls-6" x="-4.35" y="1.59" width="11.83" height="12.99"/></g><g class="cls-9"><rect class="cls-6" x="1.82" y="2.64" width="11.93" height="11.91"/></g><g class="cls-10"><rect class="cls-6" x="5.03" y="2.72" width="10.53" height="11.76"/></g><g class="cls-11"><rect class="cls-6" x="9.7" y="5.2" width="9.55" height="9.27"/></g></svg>