<svg width="16" height="16" viewBox="0 0 16 16" fill="none" xmlns="http://www.w3.org/2000/svg">
<g clip-path="url(#clip0)">
<rect width="16" height="16" fill="white"/>
<path d="M8 0C8.73438 0 9.44271 0.0963542 10.125 0.289062C10.8073 0.476562 11.4427 0.744792 12.0312 1.09375C12.625 1.44271 13.1641 1.86198 13.6484 2.35156C14.138 2.83594 14.5573 3.375 14.9062 3.96875C15.2552 4.55729 15.5234 5.19271 15.7109 5.875C15.9036 6.55729 16 7.26562 16 8C16 8.73438 15.9036 9.44271 15.7109 10.125C15.5234 10.8073 15.2552 11.4453 14.9062 12.0391C14.5573 12.6276 14.138 13.1667 13.6484 13.6562C13.1641 14.1406 12.625 14.5573 12.0312 14.9062C11.4427 15.2552 10.8073 15.526 10.125 15.7188C9.44271 15.9062 8.73438 16 8 16C7.26562 16 6.55729 15.9062 5.875 15.7188C5.19271 15.526 4.55469 15.2552 3.96094 14.9062C3.3724 14.5573 2.83333 14.1406 2.34375 13.6562C1.85938 13.1667 1.44271 12.6276 1.09375 12.0391C0.744792 11.4453 0.473958 10.8073 0.28125 10.125C0.09375 9.44271 0 8.73438 0 8C0 7.26562 0.09375 6.55729 0.28125 5.875C0.473958 5.19271 0.744792 4.55729 1.09375 3.96875C1.44271 3.375 1.85938 2.83594 2.34375 2.35156C2.83333 1.86198 3.3724 1.44271 3.96094 1.09375C4.55469 0.744792 5.19271 0.476562 5.875 0.289062C6.55729 0.0963542 7.26562 0 8 0ZM10.5234 8.84375C10.638 8.84375 10.7474 8.82292 10.8516 8.78125C10.9557 8.73438 11.0443 8.67448 11.1172 8.60156C11.1953 8.52344 11.2552 8.4349 11.2969 8.33594C11.3438 8.23177 11.3672 8.11979 11.3672 8C11.3672 7.88542 11.3438 7.77604 11.2969 7.67188C11.2552 7.56771 11.1953 7.47917 11.1172 7.40625C11.0443 7.32812 10.9557 7.26823 10.8516 7.22656C10.7474 7.17969 10.638 7.15625 10.5234 7.15625H5.47656C5.35677 7.15625 5.24479 7.17969 5.14062 7.22656C5.04167 7.26823 4.95312 7.32812 4.875 7.40625C4.80208 7.47917 4.74219 7.56771 4.69531 7.67188C4.65365 7.77604 4.63281 7.88542 4.63281 8C4.63281 8.11979 4.65365 8.23177 4.69531 8.33594C4.74219 8.4349 4.80208 8.52344 4.875 8.60156C4.95312 8.67448 5.04167 8.73438 5.14062 8.78125C5.24479 8.82292 5.35677 8.84375 5.47656 8.84375H10.5234Z" fill="black"/>
</g>
<defs>
<clipPath id="clip0">
<rect width="16" height="16" fill="white"/>
</clipPath>
</defs>
</svg>
