<svg id="Layer_1" data-name="Layer 1" xmlns="http://www.w3.org/2000/svg" viewBox="0 0 16 16"><defs><style>.cls-1{fill:#212121;}.cls-2{fill:#231f20;}</style></defs><title>database_16x16</title><path class="cls-1" d="M6.53.05C4.13.05.11.5,0,2.17V13.71C0,15.49,4.1,16,6.53,16s6.54-.48,6.54-2.25V2.17C13,.5,8.94.05,6.53.05ZM12,13.71c-.14.39-2.18,1.16-5.45,1.16S1.2,14.1,1.09,13.71V3.54a14.55,14.55,0,0,0,5.44.87A14.57,14.57,0,0,0,12,3.54ZM12,2.23c-.18.38-2.19,1.09-5.45,1.09S1.32,2.63,1.09,2.24c.23-.39,2.22-1.09,5.44-1.09s5.26.72,5.45,1.06h0Z"/><polygon class="cls-2" points="12.18 2.36 12.17 2.37 12.17 2.35 12.18 2.36"/></svg>