<svg id="Layer_1" data-name="Layer 1" xmlns="http://www.w3.org/2000/svg" viewBox="0 0 16 16"><title>delete_16x16</title><path d="M14,3H13V14.5a1.47,1.47,0,0,1-.12.59,1.49,1.49,0,0,1-.8.8,1.47,1.47,0,0,1-.59.12h-8a1.47,1.47,0,0,1-.59-.12,1.49,1.49,0,0,1-.8-.8A1.47,1.47,0,0,1,2,14.5V3H1V2H5V1A1,1,0,0,1,5.08.61,1,1,0,0,1,5.61.08,1,1,0,0,1,6,0H9a1,1,0,0,1,.39.08,1,1,0,0,1,.53.53A1,1,0,0,1,10,1V2h4ZM12,3H3V14.5a.51.51,0,0,0,.5.5h8a.51.51,0,0,0,.5-.5ZM6,13H5V5H6ZM6,2H9V1H6ZM8,13H7V5H8Zm2,0H9V5h1Z"/></svg>