<svg id="Layer_1" data-name="Layer 1" xmlns="http://www.w3.org/2000/svg" viewBox="0 0 16 16"><defs><style>.cls-1{fill:#212121;}.cls-2{fill:#fff;}</style></defs><title>sql_database</title><g id="iconBg"><path class="cls-1" d="M8,8H9.12v3.35H8Z"/><path class="cls-1" d="M7.75.13C4.25.13,1.3,1.34,1.3,2.59V13.3c0,1.36,3.67,2.56,7.12,2.56s6.27-1.15,6.27-2.46V2.7C14.7,1.39,11.26.13,7.75.13ZM8,1.24c2.46,0,4.46.56,4.46,1.25S10.43,3.74,8,3.74,3.5,3.18,3.5,2.49,5.5,1.24,8,1.24ZM5.77,8H3.54V9.12H5.77v3.35H2.42V11.35H4.65V10.23H2.42V6.88H5.77ZM11,14,9.44,12.46H6.88V6.88h3.35v4.79l1.51,1.51Zm2.63-1.51H11.35V6.88h1.12v4.46h1.12Z"/></g><g id="iconFg"><path class="cls-2" d="M3.54,8V9.12H5.77v3.35H2.42V11.35H4.65V10.23H2.42V6.88H5.77V8ZM11,14,9.44,12.46H6.88V6.88h3.35v4.79l1.51,1.51ZM8,11.35H9.12V8H8Zm4.46,0V6.88H11.35v5.58h2.23V11.35Zm-9-8.86c0,.69,2,1.25,4.46,1.25s4.46-.56,4.46-1.25S10.43,1.23,8,1.23,3.5,1.8,3.5,2.49Z"/></g></svg>