<svg xmlns="http://www.w3.org/2000/svg" width="16" height="16"><style type="text/css">.icon-canvas-transparent{opacity:0;fill:#F6F6F6;} .icon-vs-out{fill:#F6F6F6;} .icon-vs-bg{fill:#424242;} .icon-vs-fg{fill:#F0EFF1;}</style><path class="icon-canvas-transparent" d="M16 16h-16v-16h16v16z" id="canvas"/><path class="icon-vs-out" d="M16 15h-15v-14h15v14z" id="outline"/><path class="icon-vs-bg" d="M2 2v12h13v-12h-13zm4 11h-3v-2h3v2zm0-3h-3v-2h3v2zm0-3h-3v-2h3v2zm4 6h-3v-2h3v2zm0-3h-3v-2h3v2zm0-3h-3v-2h3v2zm4 6h-3v-2h3v2zm0-3h-3v-2h3v2zm0-3h-3v-2h3v2z" id="iconBg"/><path class="icon-vs-fg" d="M14 7h-3v-2h3v2zm0 1h-3v2h3v-2zm-4-3h-3v2h3v-2zm0 3h-3v2h3v-2zm-4-3h-3v2h3v-2zm0 3h-3v2h3v-2zm8 3h-3v2h3v-2zm-4 0h-3v2h3v-2zm-4 0h-3v2h3v-2z" id="iconFg"/></svg>