<?xml version="1.0" encoding="UTF-8"?>
<svg xmlns="http://www.w3.org/2000/svg" xmlns:xlink="http://www.w3.org/1999/xlink" width="482pt" height="216pt" viewBox="0 0 482 216" version="1.1">
<g id="surface1">
<path style=" stroke:none;fill-rule:nonzero;fill:rgb(43.92395%,42.903137%,43.157959%);fill-opacity:1;" d="M 394.941406 104.589844 L 384.085938 104.589844 L 384.085938 129.59375 L 376.703125 129.59375 L 376.703125 104.589844 L 371.523438 104.589844 L 371.523438 98.625 L 376.703125 98.625 L 376.703125 94.316406 C 376.703125 91.0625 377.761719 88.394531 379.882813 86.316406 C 382 84.238281 384.71875 83.199219 388.03125 83.199219 C 388.914063 83.199219 389.699219 83.246094 390.382813 83.335938 C 391.0625 83.425781 391.667969 83.5625 392.1875 83.742188 L 392.1875 90.039063 C 391.949219 89.898438 391.527344 89.726563 390.921875 89.527344 C 390.320313 89.324219 389.628906 89.226563 388.84375 89.226563 C 387.316406 89.226563 386.144531 89.703125 385.320313 90.65625 C 384.496094 91.609375 384.085938 93.019531 384.085938 94.886719 L 384.085938 98.625 L 394.941406 98.625 L 394.941406 91.664063 L 402.261719 89.4375 L 402.261719 98.625 L 409.644531 98.625 L 409.644531 104.589844 L 402.261719 104.589844 L 402.261719 119.078125 C 402.261719 120.988281 402.609375 122.332031 403.300781 123.117188 C 403.996094 123.898438 405.085938 124.292969 406.570313 124.292969 C 406.992188 124.292969 407.5 124.191406 408.09375 123.988281 C 408.683594 123.789063 409.203125 123.550781 409.644531 123.265625 L 409.644531 129.292969 C 409.179688 129.554688 408.414063 129.792969 407.339844 130.015625 C 406.265625 130.234375 405.207031 130.347656 404.160156 130.347656 C 401.089844 130.347656 398.785156 129.527344 397.246094 127.890625 C 395.710938 126.253906 394.941406 123.789063 394.941406 120.496094 Z M 346.535156 114.320313 C 346.535156 117.554688 347.269531 120.023438 348.734375 121.730469 C 350.199219 123.4375 352.300781 124.292969 355.03125 124.292969 C 357.683594 124.292969 359.699219 123.4375 361.085938 121.730469 C 362.472656 120.023438 363.164063 117.492188 363.164063 114.140625 C 363.164063 110.804688 362.445313 108.289063 361.011719 106.59375 C 359.574219 104.894531 357.558594 104.046875 354.96875 104.046875 C 352.300781 104.046875 350.226563 104.933594 348.75 106.714844 C 347.273438 108.488281 346.535156 111.027344 346.535156 114.320313 M 338.945313 114.558594 C 338.945313 109.4375 340.390625 105.382813 343.28125 102.390625 C 346.171875 99.398438 350.191406 97.902344 355.332031 97.902344 C 360.171875 97.902344 363.953125 99.34375 366.675781 102.222656 C 369.394531 105.105469 370.757813 109 370.757813 113.898438 C 370.757813 118.917969 369.308594 122.917969 366.417969 125.886719 C 363.527344 128.859375 359.589844 130.347656 354.609375 130.347656 C 349.808594 130.347656 345.996094 128.9375 343.175781 126.113281 C 340.355469 123.292969 338.945313 119.441406 338.945313 114.558594 M 322.527344 106.757813 C 322.527344 107.804688 322.855469 108.621094 323.519531 109.214844 C 324.183594 109.804688 325.648438 110.554688 327.917969 111.457031 C 330.832031 112.625 332.875 113.933594 334.050781 115.390625 C 335.222656 116.84375 335.8125 118.609375 335.8125 120.675781 C 335.8125 123.589844 334.691406 125.929688 332.453125 127.695313 C 330.210938 129.464844 327.183594 130.347656 323.371094 130.347656 C 322.085938 130.347656 320.664063 130.191406 319.105469 129.878906 C 317.550781 129.566406 316.230469 129.171875 315.144531 128.6875 L 315.144531 121.519531 C 316.472656 122.445313 317.894531 123.175781 319.421875 123.71875 C 320.949219 124.261719 322.335938 124.53125 323.582031 124.53125 C 325.226563 124.53125 326.441406 124.300781 327.226563 123.839844 C 328.007813 123.378906 328.402344 122.605469 328.402344 121.519531 C 328.402344 120.515625 327.996094 119.667969 327.179688 118.972656 C 326.367188 118.28125 324.824219 117.480469 322.554688 116.578125 C 319.867188 115.453125 317.957031 114.1875 316.832031 112.78125 C 315.707031 111.378906 315.144531 109.589844 315.144531 107.421875 C 315.144531 104.628906 316.253906 102.335938 318.472656 100.535156 C 320.691406 98.738281 323.570313 97.839844 327.105469 97.839844 C 328.1875 97.839844 329.40625 97.960938 330.75 98.203125 C 332.097656 98.445313 333.21875 98.753906 334.125 99.136719 L 334.125 106.066406 C 333.160156 105.421875 332.035156 104.871094 330.75 104.40625 C 329.464844 103.945313 328.1875 103.714844 326.925781 103.714844 C 325.539063 103.714844 324.460938 103.984375 323.6875 104.527344 C 322.914063 105.070313 322.527344 105.8125 322.527344 106.757813 M 287.460938 114.320313 C 287.460938 117.554688 288.195313 120.023438 289.660156 121.730469 C 291.125 123.4375 293.222656 124.292969 295.957031 124.292969 C 298.605469 124.292969 300.625 123.4375 302.011719 121.730469 C 303.394531 120.023438 304.089844 117.492188 304.089844 114.140625 C 304.089844 110.804688 303.371094 108.289063 301.933594 106.59375 C 300.5 104.894531 298.488281 104.046875 295.894531 104.046875 C 293.222656 104.046875 291.152344 104.933594 289.675781 106.714844 C 288.199219 108.488281 287.460938 111.027344 287.460938 114.320313 M 279.867188 114.558594 C 279.867188 109.4375 281.3125 105.382813 284.207031 102.390625 C 287.097656 99.398438 291.117188 97.902344 296.257813 97.902344 C 301.097656 97.902344 304.878906 99.34375 307.597656 102.222656 C 310.320313 105.105469 311.679688 109 311.679688 113.898438 C 311.679688 118.917969 310.234375 122.917969 307.34375 125.886719 C 304.453125 128.859375 300.515625 130.347656 295.535156 130.347656 C 290.734375 130.347656 286.921875 128.9375 284.101563 126.113281 C 281.28125 123.292969 279.867188 119.441406 279.867188 114.558594 M 276.730469 98.113281 C 277.3125 98.113281 277.835938 98.152344 278.300781 98.234375 C 278.761719 98.3125 279.152344 98.414063 279.472656 98.535156 L 279.472656 105.914063 C 279.09375 105.632813 278.535156 105.367188 277.800781 105.117188 C 277.070313 104.863281 276.179688 104.738281 275.136719 104.738281 C 273.347656 104.738281 271.835938 105.492188 270.601563 107 C 269.367188 108.503906 268.75 110.824219 268.75 113.957031 L 268.75 129.59375 L 261.457031 129.59375 L 261.457031 98.625 L 268.75 98.625 L 268.75 103.503906 L 268.871094 103.503906 C 269.53125 101.816406 270.535156 100.496094 271.882813 99.542969 C 273.226563 98.589844 274.84375 98.113281 276.730469 98.113281 M 248.777344 124.292969 C 249.859375 124.292969 251.054688 124.042969 252.363281 123.539063 C 253.667969 123.035156 254.871094 122.375 255.976563 121.550781 L 255.976563 128.328125 C 254.8125 128.992188 253.492188 129.492188 252.015625 129.835938 C 250.539063 130.175781 248.917969 130.347656 247.148438 130.347656 C 242.589844 130.347656 238.882813 128.90625 236.035156 126.023438 C 233.179688 123.140625 231.753906 119.460938 231.753906 114.984375 C 231.753906 110.003906 233.210938 105.898438 236.125 102.675781 C 239.035156 99.453125 243.164063 97.839844 248.503906 97.839844 C 249.871094 97.839844 251.25 98.015625 252.648438 98.367188 C 254.042969 98.71875 255.152344 99.125 255.976563 99.589844 L 255.976563 106.578125 C 254.851563 105.753906 253.703125 105.117188 252.527344 104.664063 C 251.351563 104.214844 250.152344 103.984375 248.925781 103.984375 C 246.054688 103.984375 243.734375 104.921875 241.96875 106.789063 C 240.199219 108.65625 239.316406 111.175781 239.316406 114.351563 C 239.316406 117.480469 240.164063 119.921875 241.863281 121.671875 C 243.558594 123.417969 245.863281 124.292969 248.777344 124.292969 M 226.664063 129.59375 L 219.375 129.59375 L 219.375 98.625 L 226.664063 98.625 Z M 218.621094 89.675781 C 218.621094 88.472656 219.058594 87.464844 219.929688 86.648438 C 220.804688 85.835938 221.84375 85.429688 223.050781 85.429688 C 224.335938 85.429688 225.398438 85.847656 226.242188 86.679688 C 227.085938 87.511719 227.507813 88.511719 227.507813 89.675781 C 227.507813 90.863281 227.078125 91.855469 226.210938 92.660156 C 225.347656 93.464844 224.292969 93.863281 223.050781 93.863281 C 221.804688 93.863281 220.753906 93.457031 219.902344 92.644531 C 219.046875 91.832031 218.621094 90.84375 218.621094 89.675781 M 212.347656 86.394531 L 212.347656 129.59375 L 204.847656 129.59375 L 204.847656 95.730469 L 204.726563 95.730469 L 191.320313 129.59375 L 186.347656 129.59375 L 172.613281 95.730469 L 172.519531 95.730469 L 172.519531 129.59375 L 165.59375 129.59375 L 165.59375 86.394531 L 176.347656 86.394531 L 188.757813 118.417969 L 188.9375 118.417969 L 202.042969 86.394531 Z M 212.347656 86.394531 "/>
<path style=" stroke:none;fill-rule:nonzero;fill:rgb(94.703674%,31.959534%,10.5896%);fill-opacity:1;" d="M 106.214844 106.214844 L 71.996094 106.214844 L 71.996094 71.996094 L 106.214844 71.996094 Z M 106.214844 106.214844 "/>
<path style=" stroke:none;fill-rule:nonzero;fill:rgb(50%,79.998779%,15.684509%);fill-opacity:1;" d="M 143.992188 106.214844 L 109.773438 106.214844 L 109.773438 71.996094 L 143.992188 71.996094 Z M 143.992188 106.214844 "/>
<path style=" stroke:none;fill-rule:nonzero;fill:rgb(0%,67.83905%,93.728638%);fill-opacity:1;" d="M 106.214844 143.992188 L 71.996094 143.992188 L 71.996094 109.773438 L 106.214844 109.773438 Z M 106.214844 143.992188 "/>
<path style=" stroke:none;fill-rule:nonzero;fill:rgb(98.234558%,73.919678%,3.529358%);fill-opacity:1;" d="M 143.992188 143.992188 L 109.773438 143.992188 L 109.773438 109.773438 L 143.992188 109.773438 Z M 143.992188 143.992188 "/>
</g>
</svg>
