<svg id="Layer_1" data-name="Layer 1" xmlns="http://www.w3.org/2000/svg" viewBox="0 0 21 21"><defs><style>.cls-1{fill:#fff;}.cls-2{fill:#231f20;}.cls-3{fill:#0095d7;}</style></defs><title>importflatfile_inverse</title><path class="cls-1" d="M13.34,1.57c-2.81,0-7.52.53-7.65,2.49v3.2L7,8.54V5.66a17.11,17.11,0,0,0,6.37,1,17.1,17.1,0,0,0,6.38-1V17.58c-.17.46-2.55,1.35-6.38,1.35a19.63,19.63,0,0,1-3.43-.27V20a23.78,23.78,0,0,0,3.43.25c2.86,0,7.66-.57,7.66-2.64V4.06C20.87,2.1,16.16,1.57,13.34,1.57Zm6.38,2.55c-.2.45-2.56,1.28-6.38,1.28S7.24,4.6,7,4.14c.27-.47,2.6-1.29,6.37-1.29s6.16.85,6.38,1.25h0Z"/><polygon class="cls-2" points="18.55 3.06 18.53 3.07 18.53 3.04 18.55 3.06"/><path class="cls-1" d="M7,10,5.69,8.68,5,8H0V19.85H8.91v-8ZM5.2,9.24l.49.49L7,11l.67.67H5.2Zm3,9.86H.74V8.71H4.46v3.71H8.17Z"/><path class="cls-3" d="M16.5,15a.27.27,0,0,1-.08.2L14.2,17.4a.26.26,0,0,1-.19.08.28.28,0,0,1-.2-.08.26.26,0,0,1-.08-.2.82.82,0,0,1,0-.14l.06-.25.08-.32.08-.32.07-.27,0-.17H4.5v-1.5h9.59l0-.17L14,13.79l-.08-.32-.08-.31-.06-.25a.91.91,0,0,1,0-.14.26.26,0,0,1,.08-.2.28.28,0,0,1,.2-.08.26.26,0,0,1,.19.08l2.22,2.22A.26.26,0,0,1,16.5,15Z"/></svg>