<svg xmlns="http://www.w3.org/2000/svg" width="24" height="24" viewBox="0 0 24 24">
  <title>ADS_jupyterBook</title>
  <path d="M4.25,24A2.251,2.251,0,0,1,2,21.75V3.86A2.257,2.257,0,0,1,3.962,1.628L16.462.019A2.251,2.251,0,0,1,19,2.25H17.5a.741.741,0,0,0-.255-.563.755.755,0,0,0-.591-.181l-12.5,1.61A.752.752,0,0,0,3.5,3.86V21.75a.738.738,0,0,0,.255.563.746.746,0,0,0,.59.181l12.5-1.61a.753.753,0,0,0,.655-.744V2.263H19V20.14a2.257,2.257,0,0,1-1.963,2.232l-12.5,1.609A2.139,2.139,0,0,1,4.25,24Z" fill="#fff"/>
  <path d="M19.75,24H4.5a.75.75,0,0,1,0-1.5H19.75a.75.75,0,0,0,.75-.75V3.763a.75.75,0,0,0-.75-.75h-1.5a.75.75,0,0,1,0-1.5h1.5A2.252,2.252,0,0,1,22,3.763V21.75A2.252,2.252,0,0,1,19.75,24Z" fill="#fff"/>
  <rect width="24" height="24" fill="none"/>
  <path d="M7.645,10.966A1.615,1.615,0,0,1,6.022,9.351v-1.8a1.619,1.619,0,0,1,1.411-1.6l5.809-.927a1.615,1.615,0,0,1,1.845,1.6v1.8a1.62,1.62,0,0,1-1.41,1.6l-5.809.927A1.693,1.693,0,0,1,7.645,10.966ZM13.36,5.757l.119.741-5.833.93c-.08.011-.124.06-.124.119v1.8l.228.859-.118-.74,5.831-.93a.126.126,0,0,0,.124-.119v-1.8Z" fill="#fff"/>
</svg>
