<svg width="16" height="16" viewBox="0 0 16 16" fill="none" xmlns="http://www.w3.org/2000/svg">
<path d="M9 16V15H2V13H3V12H2V10.023H3V9.023H2V7.039H3V6.039H2V4H3V3H2V1H13V10H14V0H1V3H0V4H1V6.039H0V7.039H1V9.023H0V10.023H1V12H0V13H1V16H9Z" fill="white"/>
<path d="M5 6H11V3H5V6ZM6 4H10V5H6V4Z" fill="white"/>
<path d="M16 16H15V13.009C15 12.6857 15.014 12.3287 15.042 11.938H14.8C14.7618 12.1621 14.7094 12.3836 14.643 12.601L13.47 16H12.55L11.358 12.636C11.2928 12.4058 11.2403 12.1721 11.201 11.936H10.955C10.985 12.4287 11 12.862 11 13.236V16H10V11H11.849L12.871 13.964C12.9508 14.1968 13.0104 14.436 13.049 14.679H13.07C13.1241 14.435 13.1909 14.194 13.27 13.957L14.29 11H16V16Z" fill="white"/>
</svg>
