<svg width="16" height="16" viewBox="0 0 16 16" fill="none" xmlns="http://www.w3.org/2000/svg">
<path d="M13.5161 6.50115C13.5903 6.50115 13.6642 6.50822 13.7367 6.52218L13.8443 6.54826L13.9492 6.58452C14.516 6.81113 14.8071 7.43239 14.6328 8.00586L14.5994 8.10092L12.8831 12.3939C12.6695 12.9281 12.1711 13.2898 11.604 13.3328L11.4877 13.3373H3.4285C3.4053 13.3373 3.38213 13.3368 3.35899 13.3357L2.83354 13.3343C2.04002 13.3336 1.39066 12.7171 1.3375 11.9367L1.33398 11.834V4.17254C1.33398 3.3796 1.94931 2.73018 2.72882 2.67617L2.83139 2.67254L5.47001 2.66797C5.7779 2.66744 6.07737 2.76163 6.3285 2.93612L6.43304 3.01577L8.01465 4.33401L11.1673 4.33448C11.9251 4.33448 12.5517 4.89646 12.653 5.6264L12.6639 5.73178L12.6673 5.83448V6.50068L13.5161 6.50115ZM4.82389 7.50115C4.63701 7.50115 4.46788 7.60506 4.38213 7.76691L4.35401 7.83023L2.95862 11.6664C2.86422 11.9259 2.99807 12.2128 3.25758 12.3072C3.2941 12.3205 3.33198 12.3294 3.37045 12.3339L11.4901 12.3371C11.5355 12.3371 11.58 12.3309 11.6224 12.3193L11.6826 12.2978C11.7793 12.2568 11.8619 12.1858 11.9168 12.094L11.9526 12.0213L13.6515 7.72915C13.6854 7.64357 13.6435 7.54672 13.5579 7.51284L13.5277 7.5041L13.4965 7.50115H4.82389ZM5.47174 3.66797L2.83312 3.67254C2.5803 3.67298 2.37157 3.861 2.33854 4.10477L2.33398 4.17254L2.33332 10.4586L3.41425 7.48839C3.61637 6.93273 4.12413 6.55124 4.70649 6.50572L4.82389 6.50115L11.6667 6.50064L11.6673 5.83448C11.6673 5.58135 11.4792 5.37215 11.2352 5.33904L11.1673 5.33448H7.65292L5.79275 3.78391C5.72068 3.72383 5.63354 3.68555 5.54152 3.67274L5.47174 3.66797Z" fill="white"/>
</svg>
