<svg width="16" height="16" viewBox="0 0 16 16" fill="none" xmlns="http://www.w3.org/2000/svg">
<path d="M12.015 3.72022L11.944 3.62306H11.4465L10.8336 3.67606C10.7554 3.75297 10.6868 3.83897 10.6293 3.93221V11.6078H9.02144C8.74199 11.607 8.46383 11.6456 8.19531 11.7226C7.92483 11.7862 7.66468 11.8873 7.42248 12.0229V4.20602C7.54107 4.10327 7.66894 4.01161 7.80446 3.93221C7.908 3.57885 8.05102 3.23815 8.23085 2.91645C8.14051 2.93766 8.05152 2.96421 7.96435 2.99595C7.62202 3.12114 7.30361 3.30334 7.02274 3.53474C6.73609 3.31582 6.4149 3.14569 6.07225 3.03128C5.73406 2.90431 5.37658 2.83561 5.01516 2.82812H2.64337V3.62306H1V14.0014H13.0544V4.84197L12.015 3.72022ZM3.40732 3.62306H5.01516C5.31829 3.61487 5.6201 3.66589 5.90347 3.77322C6.18647 3.86117 6.44705 4.00879 6.66742 4.20602V12.0229C6.42282 11.8858 6.15951 11.7846 5.88571 11.7226C5.61745 11.6444 5.33912 11.6057 5.05958 11.6078H3.40732V3.62306ZM1.75506 13.2507V4.418H2.64337V12.3674H5.01516C5.1969 12.3711 5.37807 12.3888 5.55703 12.4204C5.71531 12.4601 5.86986 12.5133 6.01895 12.5794C6.16972 12.6549 6.31514 12.7404 6.45423 12.8355C6.60204 12.9325 6.73644 13.0483 6.85397 13.18L1.75506 13.2507ZM12.2371 13.2507H7.18264C7.30826 13.1205 7.44832 13.0049 7.60015 12.9062C7.71499 12.7976 7.83991 12.7 7.97324 12.6147C8.12841 12.5486 8.28886 12.4954 8.45292 12.4557C8.63957 12.4103 8.82976 12.3807 9.02144 12.3674H11.4465V4.418H12.2371V13.2507Z" fill="white"/>
<path d="M12.5922 3.14453V3.16203L12.5835 3.15328L12.5922 3.14453Z" fill="#0095D7"/>
<path d="M12.5922 3.14453V3.16203L12.5835 3.15328L12.5922 3.14453Z" fill="#0095D7"/>
<path d="M13.4892 1.45695H13.4717V1.43945L13.4892 1.45695Z" fill="#0095D7"/>
<path d="M14.9999 1.85486L13.4809 3.36525L13.1433 3.70089L12.5926 3.16209L13.4809 2.27883H12.2284C11.8949 2.30078 11.5676 2.37841 11.2601 2.50848V2.50848C10.9868 2.62852 10.73 2.78288 10.4962 2.96778L10.283 3.15326C10.1072 3.33048 9.95491 3.52936 9.82993 3.74505C9.74101 3.87652 9.66373 4.01542 9.59897 4.16019C9.41394 4.54696 9.31401 4.96853 9.30583 5.39676H8.50635C8.50814 5.04178 8.55591 4.68851 8.64848 4.34567C8.70495 4.14638 8.77621 3.95152 8.86167 3.76272C8.90817 3.63623 8.96771 3.51487 9.03933 3.40058C9.13568 3.24348 9.24252 3.09299 9.35913 2.95011C9.44796 2.83529 9.55455 2.72046 9.66115 2.60564C9.83998 2.43008 10.0364 2.27322 10.2474 2.1375C10.3097 2.08256 10.3783 2.03513 10.4517 1.99618C10.5486 1.93634 10.6495 1.88322 10.7538 1.83719L11.0291 1.72237L11.4022 1.59871C11.7463 1.50291 12.1021 1.45534 12.4593 1.45739H13.4809L12.5926 0.574123L13.1433 0L14.9999 1.85486Z" fill="#0095D7"/>
</svg>
