<svg id="Layer_1" data-name="Layer 1" xmlns="http://www.w3.org/2000/svg" viewBox="0 0 16 16"><defs><style>.cls-1{fill:#fff;}.cls-2{fill:#0095d7;}</style></defs><title>open_notebook_inverse</title><path class="cls-1" d="M12.55,4.21l-.08-.11h-.56l-.69.06a1.54,1.54,0,0,0-.23.29v8.69H9.18a3.32,3.32,0,0,0-.93.13,3.34,3.34,0,0,0-.87.34V4.76a2.88,2.88,0,0,1,.43-.31A5.58,5.58,0,0,1,8.29,3.3a2.63,2.63,0,0,0-.3.09A3.62,3.62,0,0,0,6.93,4a3.68,3.68,0,0,0-1.07-.57A3.58,3.58,0,0,0,4.67,3.2H2v.9H.15V15.85H13.72V5.48ZM2.86,4.1H4.67a2.61,2.61,0,0,1,1,.17,2.32,2.32,0,0,1,.86.49v8.85a3.27,3.27,0,0,0-.88-.34,3.22,3.22,0,0,0-.93-.13H2.86ZM1,15V5H2v9H4.67a3.94,3.94,0,0,1,.61.06,3.2,3.2,0,0,1,.52.18,4.19,4.19,0,0,1,.49.29,2.28,2.28,0,0,1,.45.39ZM12.8,15H7.11a2.7,2.7,0,0,1,.47-.39A2.83,2.83,0,0,1,8,14.28a3.42,3.42,0,0,1,.54-.18A3.81,3.81,0,0,1,9.18,14h2.73V5h.89Z"/><polygon class="cls-2" points="13.2 3.56 13.2 3.58 13.19 3.57 13.2 3.56"/><path class="cls-2" d="M13.19,3.57h0v0Z"/><polygon class="cls-2" points="13.2 3.56 13.2 3.58 13.19 3.57 13.2 3.56"/><polygon class="cls-2" points="14.21 1.65 14.19 1.65 14.19 1.63 14.21 1.65"/><path class="cls-2" d="M15.91,2.1,14.2,3.81l-.38.38-.62-.61v0l1-1H12.79a3.35,3.35,0,0,0-1.09.26h0a3.94,3.94,0,0,0-.86.52l-.24.21s0,0,0,0a3.3,3.3,0,0,0-.51.67,3.1,3.1,0,0,0-.26.47A3.41,3.41,0,0,0,9.5,6.11H8.6a4.68,4.68,0,0,1,.16-1.19A4.74,4.74,0,0,1,9,4.26a2.21,2.21,0,0,1,.2-.41,4.66,4.66,0,0,1,.36-.51c.1-.13.22-.26.34-.39a4.14,4.14,0,0,1,.66-.53,1.19,1.19,0,0,1,.23-.16,2.79,2.79,0,0,1,.34-.18l.31-.13.42-.14a4.32,4.32,0,0,1,1.19-.16h1.15l-1-1L13.82,0Z"/></svg>