<svg width="16" height="16" viewBox="0 0 16 16" fill="none" xmlns="http://www.w3.org/2000/svg">
<path d="M15.5469 5.84375C15.375 6.01562 15.2083 6.17188 15.0469 6.3125C14.8854 6.45312 14.7161 6.57552 14.5391 6.67969C14.362 6.78385 14.1719 6.85938 13.9688 6.90625C13.7656 6.95312 13.5312 6.98177 13.2656 6.99219C13.0885 6.99219 12.9193 6.97656 12.7578 6.94531L9.79688 9.90625C9.86458 10.1042 9.91406 10.3073 9.94531 10.5156C9.97656 10.724 9.99219 10.9323 9.99219 11.1406C9.99219 11.4792 9.95833 11.7865 9.89062 12.0625C9.82292 12.3385 9.72656 12.599 9.60156 12.8438C9.47656 13.0885 9.32031 13.3203 9.13281 13.5391C8.94531 13.7578 8.73958 13.9844 8.51562 14.2188L5.5 11.2031L1.0625 15.6484L0 16L0.351562 14.9375L4.79688 10.5L1.78125 7.48438L2.13281 7.13281C2.4974 6.76823 2.91406 6.48958 3.38281 6.29688C3.85156 6.10417 4.34635 6.00781 4.86719 6.00781C5.29427 6.00781 5.70312 6.07292 6.09375 6.20312L9.05469 3.24219C9.02344 3.08073 9.00781 2.91146 9.00781 2.73438C9.00781 2.47917 9.03385 2.25 9.08594 2.04688C9.13802 1.84375 9.21615 1.65104 9.32031 1.46875C9.42448 1.28646 9.54427 1.11719 9.67969 0.960938C9.8151 0.804688 9.97396 0.635417 10.1562 0.453125L15.5469 5.84375ZM13.2656 5.99219C13.5521 5.99219 13.8229 5.92448 14.0781 5.78906L10.2109 1.92188C10.0755 2.17708 10.0078 2.44792 10.0078 2.73438C10.0078 2.88021 10.0234 3.01562 10.0547 3.14062C10.0859 3.26562 10.125 3.39844 10.1719 3.53906L6.32812 7.375C6.19792 7.32292 6.07552 7.27344 5.96094 7.22656C5.84635 7.17969 5.73177 7.14062 5.61719 7.10938C5.5026 7.07812 5.38542 7.05469 5.26562 7.03906C5.14583 7.02344 5.01302 7.01302 4.86719 7.00781C4.57031 7.00781 4.28385 7.04948 4.00781 7.13281C3.73177 7.21615 3.47135 7.34375 3.22656 7.51562L8.48438 12.7734C8.65104 12.5339 8.77865 12.276 8.86719 12C8.95573 11.724 9 11.4375 9 11.1406C9 11 8.99219 10.8698 8.97656 10.75C8.96094 10.6302 8.9349 10.5104 8.89844 10.3906C8.86198 10.2708 8.82031 10.1536 8.77344 10.0391C8.72656 9.92448 8.67708 9.80208 8.625 9.67188L12.4609 5.82812C12.5964 5.86979 12.7266 5.90625 12.8516 5.9375C12.9766 5.96875 13.1146 5.98698 13.2656 5.99219Z" fill="white"/>
</svg>
