<svg width="16" height="17" viewBox="0 0 16 17" fill="none" xmlns="http://www.w3.org/2000/svg">
<path fill-rule="evenodd" clip-rule="evenodd" d="M8.26991 1.02742C8.02998 0.993516 7.777 0.976562 7.51099 0.976562C6.97897 0.976562 6.49127 1.04567 6.04791 1.1839C5.60456 1.32212 5.1612 1.53467 4.71784 1.82155C4.34229 2.06148 3.96674 2.25708 3.59119 2.40835C3.21564 2.55961 2.83488 2.67697 2.4489 2.76042C2.06292 2.84388 1.6665 2.90125 1.25966 2.93255C0.852811 2.96385 0.432925 2.97949 0 2.97949V6.98536C0 7.74689 0.0951916 8.4693 0.285574 9.15259C0.475954 9.83589 0.739362 10.484 1.07579 11.0968C1.41223 11.7097 1.80994 12.2874 2.26895 12.8299C2.72795 13.3723 3.22607 13.8822 3.76332 14.3594C4.30056 14.8367 4.8678 15.2814 5.46503 15.6934C6.06226 16.1055 6.6634 16.4862 7.26845 16.8357L7.51099 16.9765L7.75353 16.8357C8.35859 16.4862 8.95972 16.1055 9.55695 15.6934C10.1542 15.2814 10.7214 14.8367 11.2587 14.3594C11.7959 13.8822 12.294 13.3723 12.753 12.8299C13.212 12.2874 13.6098 11.7097 13.9462 11.0968C14.2826 10.484 14.546 9.83589 14.7364 9.15259C14.9268 8.4693 15.022 7.74689 15.022 6.98536V2.97949C14.5891 2.97949 14.1692 2.96385 13.7623 2.93255C13.3555 2.90125 12.9591 2.84388 12.5731 2.76042C12.1871 2.67697 11.8063 2.55961 11.4308 2.40835C11.0552 2.25708 10.6797 2.06149 10.3041 1.82155C10.0799 1.68072 9.85817 1.55684 9.6391 1.44991C9.42003 1.34299 9.19705 1.25431 8.97016 1.1839C8.74326 1.11348 8.50985 1.06132 8.26991 1.02742ZM11.7868 3.58976C12.4988 3.7984 13.2433 3.92358 14.0205 3.96531L14.0205 6.98536C14.0205 7.64778 13.9331 8.28413 13.7584 8.8944C13.5837 9.50467 13.345 10.0863 13.0425 10.6391C12.74 11.192 12.3801 11.7149 11.9628 12.2078C11.5455 12.7008 11.097 13.1637 10.6171 13.5966C10.1372 14.0295 9.63259 14.4312 9.10317 14.8015C8.57375 15.1718 8.04302 15.5109 7.51099 15.8186C6.97897 15.5109 6.44824 15.1718 5.91882 14.8015C5.3894 14.4312 4.88476 14.0295 4.40489 13.5966C3.92502 13.1637 3.47645 12.7008 3.05917 12.2078C2.64189 11.7149 2.28199 11.192 1.97946 10.6391C1.67694 10.0863 1.43831 9.50467 1.26357 8.8944C1.08884 8.28413 1.00147 7.64778 1.00147 6.98536V3.96531C1.77865 3.92358 2.52323 3.7984 3.23521 3.58976C3.94719 3.38112 4.63178 3.06556 5.28899 2.64306C5.64368 2.41356 5.99706 2.24535 6.34914 2.13842C6.70122 2.03149 7.0885 1.97803 7.51099 1.97803C7.93348 1.97803 8.32077 2.03149 8.67285 2.13842C9.02493 2.24535 9.3783 2.41356 9.73299 2.64306C10.3902 3.06556 11.0748 3.38112 11.7868 3.58976Z" fill="white"/>
</svg>
