<svg xmlns="http://www.w3.org/2000/svg" width="18" height="18" viewBox="0 0 18 18">
  <defs>
    <linearGradient id="ef376e2c-38fd-4835-83bc-bb24ee960fff" x1="6.267" y1="13.967" x2="6.267" gradientUnits="userSpaceOnUse">
      <stop offset="0" stop-color="#949494"/>
      <stop offset="1" stop-color="#b3b3b3"/>
    </linearGradient>
    <linearGradient id="e033a847-5835-46c3-85cf-d40f22eafd80" x1="10.135" y1="14.02" x2="10.135" y2="5.219" gradientUnits="userSpaceOnUse">
      <stop offset="0" stop-color="#0078d4"/>
      <stop offset="1" stop-color="#5ea0ef"/>
    </linearGradient>
  </defs>
  <g id="f77d0813-503e-4294-a8a2-c0c5e582bfd9">
    <path d="M17.549,15.146c-.16.7-1.035,1.391-2.617,1.929a21.585,21.585,0,0,1-12.125.017C1.35,16.578.564,15.922.441,15.25c-.022-.118,0-1.966,0-1.966l17.136-.16S17.569,15.061,17.549,15.146Z" fill="#5ea0ef"/>
    <ellipse cx="9.001" cy="13.246" rx="8.576" ry="2.965" transform="translate(-0.133 0.091) rotate(-0.575)" fill="#50e6ff"/>
    <path d="M10.368,13.491a.484.484,0,0,1-.476.476H2.641a.476.476,0,0,1-.476-.476V.476A.468.468,0,0,1,2.624,0H9.892a.476.476,0,0,1,.476.476Z" fill="url(#ef376e2c-38fd-4835-83bc-bb24ee960fff)"/>
    <path d="M3.368,4.895a.893.893,0,0,1,.886-.885H8.347a.893.893,0,0,1,.918.868v.017h0a.9.9,0,0,1-.894.9H4.254A.893.893,0,0,1,3.368,4.895Zm.886-1.754h4.11a.893.893,0,0,0,.9-.885h0a.226.226,0,0,0,0-.026.893.893,0,0,0-.918-.868H4.254a.89.89,0,0,0,0,1.779Z" fill="#003067"/>
    <path d="M4.3,1.654a.6.6,0,1,1-.6.6A.6.6,0,0,1,4.3,1.654ZM3.7,4.895a.6.6,0,1,0,.6-.6A.6.6,0,0,0,3.7,4.895Z" fill="#50e6ff"/>
    <path d="M16.366,11.252a2.806,2.806,0,0,0-2.431-2.689A3.524,3.524,0,0,0,10.3,5.221,3.611,3.611,0,0,0,6.843,7.543,3.342,3.342,0,0,0,3.9,10.76a3.39,3.39,0,0,0,3.508,3.257h6.174A2.831,2.831,0,0,0,16.366,11.252Z" fill="url(#e033a847-5835-46c3-85cf-d40f22eafd80)"/>
    <path d="M13.117,11.562V8.755H12.34V12.2h2.047v-.634ZM7.186,10.183a1.852,1.852,0,0,1-.426-.259.368.368,0,0,1-.1-.267.286.286,0,0,1,.126-.251.555.555,0,0,1,.351-.1,1.387,1.387,0,0,1,.835.242V8.83a2.4,2.4,0,0,0-.835-.125,1.41,1.41,0,0,0-.911.275.92.92,0,0,0-.342.744,1.117,1.117,0,0,0,.785,1,2.089,2.089,0,0,1,.509.3.353.353,0,0,1,.126.267.286.286,0,0,1-.126.251.631.631,0,0,1-.376.1,1.358,1.358,0,0,1-.9-.351v.769a1.889,1.889,0,0,0,.861.192,1.589,1.589,0,0,0,.96-.234.9.9,0,0,0,.36-.76.837.837,0,0,0-.209-.585A1.972,1.972,0,0,0,7.186,10.183ZM11.5,11.5a1.977,1.977,0,0,0,.276-1.053,1.91,1.91,0,0,0-.209-.935,1.474,1.474,0,0,0-.576-.618A1.619,1.619,0,0,0,10.1,8.68a1.844,1.844,0,0,0-.835.242,1.562,1.562,0,0,0-.61.643,2.114,2.114,0,0,0-.226.952,1.888,1.888,0,0,0,.2.877,1.567,1.567,0,0,0,.568.619,1.674,1.674,0,0,0,.835.242l.71.835h1l-.994-.919A1.515,1.515,0,0,0,11.5,11.5Zm-.777-.209a.818.818,0,0,1-1.261-.008,1.254,1.254,0,0,1-.234-.836,1.221,1.221,0,0,1,.242-.835.769.769,0,0,1,.643-.309.72.72,0,0,1,.619.309,1.288,1.288,0,0,1,.234.835A1.228,1.228,0,0,1,10.719,11.294Z" fill="#f2f2f2"/>
  </g>
</svg>
