<svg xmlns="http://www.w3.org/2000/svg" width="16" height="16" viewBox="0 0 16 16">
  <title>opac_command_icons_bv</title>
  <path d="M6.5,14h0c-.007.01-.062,0-.093-.01L.408,12.929A.5.5,0,0,1,0,12.437v-8.4a.5.5,0,0,1,.375-.484L6.366,2.019a.464.464,0,0,1,.243-.007h0l.013,0,8,2A.5.5,0,0,1,15,4.5v6a.5.5,0,0,1-.324.468l-7.989,3A.528.528,0,0,1,6.5,14h0ZM1,12.018,6,12.9V3.145L1,4.429ZM7,3.141v9.637l7-2.625V4.891Z"/>
  <polygon points="3 3.947 3 12.357 4 12.534 4 3.69 3 3.947"/>
  <polygon points="8 4.592 8 11.086 9 10.752 9 4.814 8 4.592"/>
  <polygon points="10 5.037 10 10.419 11 10.086 11 5.259 10 5.037"/>
  <polygon points="12 5.481 12 9.752 13 9.419 13 5.703 12 5.481"/>
  <rect x="-0.004" width="16" height="16" fill="none"/>
</svg>
