<?xml version="1.0" encoding="UTF-8" standalone="no"?>
<svg
   xmlns:dc="http://purl.org/dc/elements/1.1/"
   xmlns:cc="http://creativecommons.org/ns#"
   xmlns:rdf="http://www.w3.org/1999/02/22-rdf-syntax-ns#"
   xmlns:svg="http://www.w3.org/2000/svg"
   xmlns="http://www.w3.org/2000/svg"
   version="1.1"
   viewBox="0 0 16 16"
   data-name="Layer 1"
   id="Layer_1">
  <metadata
     id="metadata17">
    <rdf:RDF>
      <cc:Work
         rdf:about="">
        <dc:format>image/svg+xml</dc:format>
        <dc:type
           rdf:resource="http://purl.org/dc/dcmitype/StillImage" />
        <dc:title>sql_bigdata_cluster</dc:title>
      </cc:Work>
    </rdf:RDF>
  </metadata>
  <defs
     id="defs4">
    <style
       id="style2">.cls-1{fill:#212121;}.cls-2{fill:#231f20;}</style>
  </defs>
  <title
     id="title6">sql_bigdata_cluster</title>
  <path
     style="fill:#212121;stroke-width:1.00282443"
     id="path8"
     d="M 7.995,0 C 5.605,0 1.575,0.45254557 1.465,2.1319925 V 13.737272 C 1.465,15.517285 5.575,16 7.995,16 c 2.42,0 6.54,-0.482715 6.54,-2.262728 V 2.1319925 C 14.435,0.45254557 10.405,0 7.995,0 Z m 5.45,13.737272 c -0.14,0.392206 -2.18,1.166562 -5.45,1.166562 -3.27,0 -5.32,-0.784412 -5.43,-1.166562 V 3.5097423 a 14.67,14.752986 0 0 0 5.43,0.8749214 14.71,14.793212 0 0 0 5.45,-0.8749214 z m 0,-11.5549967 c -0.17,0.3922062 -2.19,1.1062225 -5.45,1.1062225 -3.26,0 -5.2,-0.6939032 -5.43,-1.0861094 0.23,-0.4022627 2.22,-1.1062225 5.43,-1.1062225 3.21,0 5.27,0.7240729 5.45,1.0659963 v 0 z"
     class="cls-1" />
  <polygon
     style="fill:#231f20"
     transform="translate(0.075)"
     id="polygon10"
     points="13.57,2.35 13.58,2.36 13.57,2.37 "
     class="cls-2" />
  <path
     id="path12"
     d="m 9.6501562,5.2372858 c -0.1362374,0 -0.2728654,0.026375 -0.4003906,0.082031 -0.123585,0.050567 -0.2358691,0.1260731 -0.3300781,0.2207031 -0.094256,0.096634 -0.1724299,0.2082024 -0.2304688,0.3300781 -0.062701,0.1283175 -0.099426,0.2676857 -0.109375,0.4101562 -0.00186,0.1267925 0.022265,0.2517914 0.070312,0.3691407 0.045212,0.1164344 0.1088696,0.2248797 0.1894531,0.3203125 L 8.2107031,7.9384577 C 8.011051,7.8519995 7.7980699,7.8002026 7.5798437,7.7997858 7.2852043,7.7997877 7.0158159,7.8890317 6.7790625,8.0283014 L 6.3435156,7.4677545 C 6.4851678,7.2819801 6.5620085,7.0548883 6.5622656,6.8212702 6.5623837,6.2311827 6.0839937,5.7527927 5.4939062,5.7529108 4.9038187,5.7527927 4.4254288,6.2311827 4.4255469,6.8212702 4.4254288,7.4113576 4.9038188,7.8897476 5.4939062,7.8896295 5.646983,7.8892233 5.7981841,7.8559185 5.9372656,7.7919733 l 0.4628906,0.5351562 c -0.2593431,0.2844532 -0.4218723,0.6589599 -0.421875,1.0742188 1.1e-6,0.1550931 0.029186,0.301527 0.070312,0.4433594 L 5.2692969,10.19041 C 5.0668671,9.9352433 4.7590727,9.7863779 4.4333593,9.7861139 3.8432718,9.7859958 3.3648819,10.264386 3.365,10.854473 c -1.179e-4,0.590087 0.478272,1.068477 1.0683593,1.068359 0.5900874,1.18e-4 1.0684773,-0.478272 1.0683594,-1.068359 -2.425e-4,-0.05958 -0.00547,-0.119029 -0.015625,-0.177734 l 0.7675782,-0.376953 c 0.2881162,0.42403 0.7748778,0.703124 1.3261718,0.703124 0.087028,-9e-5 0.1739047,-0.0073 0.2597656,-0.02148 l 0.2011719,0.597656 c -0.2806104,0.199117 -0.4474678,0.523359 -0.4472656,0.869137 -8.57e-5,0.586839 0.4721644,1.062587 1.0546875,1.0625 0.5825231,8.7e-5 1.054773,-0.475661 1.054687,-1.0625 8.6e-5,-0.586839 -0.4721639,-1.062587 -1.054687,-1.0625 -0.043779,5.16e-4 -0.087483,0.0038 -0.1308594,0.0098 L 8.3220312,10.819317 C 8.6909643,10.625493 8.9698168,10.295494 9.099375,9.8993953 l 0.5449219,0.089844 h 0.00195 c 0.05025,0.5310507 0.4958731,0.9369327 1.0292971,0.9374997 0.571737,8.6e-5 1.035243,-0.46342 1.035156,-1.0351567 C 11.710786,9.3198482 11.247281,8.8563402 10.675544,8.8564264 10.264465,8.85697 9.8926723,9.100743 9.7282783,9.4775202 L 9.1814062,9.3798639 C 9.1740509,8.9410593 8.9869509,8.524497 8.6638281,8.2275202 L 9.3103125,7.2607233 c 0.1095989,0.036162 0.2244742,0.051906 0.3398437,0.048828 0.1376991,0.0043 0.2729851,-0.023148 0.3984378,-0.080078 0.126162,-0.045588 0.239468,-0.119827 0.330078,-0.21875 0.09823,-0.093286 0.176943,-0.2056351 0.230469,-0.3300781 0.05137,-0.1271794 0.07858,-0.2632358 0.08008,-0.4003907 -4.88e-4,-0.140498 -0.02772,-0.2797842 -0.08008,-0.4101562 C 10.551096,5.7482226 10.472932,5.6366542 10.378672,5.5400202 10.284463,5.44539 10.172179,5.369883 10.048594,5.3193171 9.9210683,5.2636605 9.7863933,5.2372858 9.6501562,5.2372858 Z m -0.00195,0.4746094 C 9.9659223,5.7112473 10.223947,5.9683972 10.224378,6.2861139 10.225028,6.6045936 9.9666863,6.8629356 9.6482062,6.8622858 9.3304864,6.8618548 9.0733369,6.6038302 9.0739843,6.2861139 9.0744163,5.9691601 9.3312493,5.7123255 9.6482031,5.7118952 Z m -4.1543,0.4941406 C 5.8337444,6.2059063 6.1092701,6.481432 6.1091406,6.8212702 6.1092701,7.1611084 5.8337444,7.4366342 5.4939062,7.4365045 5.1540681,7.436634 4.8785424,7.1611083 4.8786719,6.8212702 4.8785424,6.481432 5.154068,6.2059063 5.4939062,6.2060358 Z M 7.5817969,8.3700983 A 1.0403689,1.0403689 0 0 1 8.6228125,9.4111139 1.0403689,1.0403689 0 0 1 7.5817969,10.450176 1.0403689,1.0403689 0 0 1 6.5427343,9.4111139 1.0403689,1.0403689 0 0 1 7.5817969,8.3700983 Z m 3.0585941,0.9277344 h 0.002 c 0.01432,-5.13e-4 0.02865,-5.13e-4 0.04297,0 0.331066,2.151e-4 0.599395,0.2685422 0.59961,0.5996096 -2.16e-4,0.3310657 -0.268544,0.5993937 -0.59961,0.5996087 -0.331828,8.64e-4 -0.601347,-0.26778 -0.601562,-0.5996087 -7.66e-4,-0.3150021 0.242463,-0.5768467 0.556641,-0.5996096 z M 4.4216406,10.260723 c 0.3398381,-1.3e-4 0.6153637,0.275396 0.6152344,0.615234 1.299e-4,0.339838 -0.2753959,0.615365 -0.6152344,0.615235 -0.3398385,1.3e-4 -0.6153643,-0.275397 -0.6152344,-0.615235 -1.293e-4,-0.339838 0.2753963,-0.615364 0.6152344,-0.615234 z m 4.2382813,1.589844 c 0.3452152,-8.4e-5 0.6250885,0.272792 0.625,0.609375 8.81e-5,0.336583 -0.2797848,0.609459 -0.625,0.609375 -0.3452157,8.4e-5 -0.6250889,-0.272792 -0.625,-0.609375 -8.86e-5,-0.336583 0.2797844,-0.609459 0.625,-0.609375 z" />
</svg>
