<svg id="Layer_1" data-name="Layer 1" xmlns="http://www.w3.org/2000/svg" viewBox="0 0 16 16"><defs><style>.cls-1{fill:#212121;}.cls-2{fill:#fff;}</style></defs><title>sql_server</title><path id="iconBg" class="cls-1" d="M6.72,12.14H5.58V6.71H8.84v.83A4.85,4.85,0,0,1,9.93,7v-.3H11v.05a5,5,0,0,1,.54-.05,4.83,4.83,0,0,1,1.63.3V2.63c0-1.27-3.35-2.5-6.76-2.5S.15,1.31.15,2.53V13c0,1.32,3.57,2.5,6.94,2.5.49,0,1,0,1.41-.07A4.86,4.86,0,0,1,6.72,12.14ZM6.64,1.21C9,1.21,11,1.75,11,2.43S9,3.65,6.64,3.65,2.29,3.1,2.29,2.43,4.24,1.21,6.64,1.21ZM4.5,7.79H2.32V8.88H4.5v3.26H1.24V11.05H3.41V10H1.24V6.71H4.5Zm2.23,3.26H6.67V7.79H7.76v.76A4.84,4.84,0,0,0,6.72,11.05Zm7.79,1.26a3.06,3.06,0,0,1-.36.86L15,14.24a4.32,4.32,0,0,1-.77.77l-1.07-.83a3,3,0,0,1-.86.36l-.17,1.34a4.17,4.17,0,0,1-.55.06,4.14,4.14,0,0,1-.55-.06l-.17-1.34a3,3,0,0,1-.86-.36L8.91,15a4.32,4.32,0,0,1-.77-.77L9,13.18a3,3,0,0,1-.36-.86l-1.34-.17a4,4,0,0,1-.06-.55A4.14,4.14,0,0,1,7.27,11l1.34-.17A3,3,0,0,1,9,10L8.14,8.95a4.32,4.32,0,0,1,.77-.77L10,9a3,3,0,0,1,.86-.36L11,7.31a4.14,4.14,0,0,1,.55-.06,4.14,4.14,0,0,1,.55.06l.17,1.34a3,3,0,0,1,.86.36l1.07-.83a4.32,4.32,0,0,1,.77.77L14.15,10a3,3,0,0,1,.36.86l1.34.17a4.14,4.14,0,0,1,.06.55,4.14,4.14,0,0,1-.06.55ZM11.56,9.42a2.17,2.17,0,1,0,2.17,2.17,2.17,2.17,0,0,0-2.17-2.17Zm0,1.09a1.09,1.09,0,1,0,1.09,1.09A1.09,1.09,0,0,0,11.56,10.51Z"/><g id="iconFg"><path class="cls-2" d="M9.93,6.71H11v.05A4.87,4.87,0,0,0,9.93,7ZM6.64,3.65C9,3.65,11,3.1,11,2.43S9,1.2,6.64,1.2s-4.34.55-4.34,1.22S4.24,3.65,6.64,3.65ZM1.24,6.71V10H3.41v1.09H1.24v1.09H4.5V8.88H2.32V7.79H4.5V6.71ZM6.67,11.6a5,5,0,0,1,.05-.54H6.67V7.79H7.76v.76a4.92,4.92,0,0,1,1.09-1V6.71H5.58v5.43H6.72A5,5,0,0,1,6.67,11.6Z"/></g></svg>