<?xml version="1.0" encoding="utf-8"?>
<!-- Generator: Adobe Illustrator 23.0.4, SVG Export Plug-In . SVG Version: 6.00 Build 0)  -->
<svg version="1.1" id="Layer_1" xmlns="http://www.w3.org/2000/svg" xmlns:xlink="http://www.w3.org/1999/xlink" x="0px" y="0px"
	 viewBox="0 0 16 16" style="enable-background:new 0 0 16 16;" xml:space="preserve">
<style type="text/css">
	.st0{fill:#FFFFFF;}
</style>
<path class="st0" d="M6.1,6.6v1.2H6V6.6H6.1z M5.7,6.6v1.2H5.6V6.6H5.7z M4.1,6.2V5h0.1v1.2H4.1z M5.3,5v1.2H5.1V5H5.3z M3.9,6.2V5
	H4v1.2H3.9z M3.7,6.2V5h0.1v1.2H3.7z M3.5,6.2V5h0.1v1.2H3.5z M5.9,6.6v1.2H5.8V6.6H5.9z M5.5,6.6v1.2H5.4V6.6H5.5z M5.5,5v1.2H5.4
	V5H5.5z M5.9,5v1.2H5.8V5H5.9z M5.7,5v1.2H5.6V5H5.7z M5.3,6.6v1.2H5.1V6.6H5.3z M6.1,5v1.2H6V5H6.1z M6.3,6.6v1.2H6.2V6.6H6.3z
	 M2.1,7.8V6.6h0.1v1.2H2.1z M1.9,7.8V6.6H2v1.2H1.9z M2.3,7.8V6.6h0.1v1.2H2.3z M4.4,6.2V5h0.1v1.2H4.4z M2.9,7.8V6.6h0.1v1.2H2.9z
	 M4.6,7.8V6.6h0.1v1.2H4.6z M2.5,7.8V6.6h0.1v1.2H2.5z M2.7,7.8V6.6h0.1v1.2H2.7z M3.5,7.8V6.6h0.1v1.2H3.5z M4.6,6.2V5h0.1v1.2H4.6
	z M3.7,7.8V6.6h0.1v1.2H3.7z M4.4,7.8V6.6h0.1v1.2H4.4z M4.1,7.8V6.6h0.1v1.2H4.1z M3.9,7.8V6.6H4v1.2H3.9z M6.3,5v1.2H6.2V5H6.3z
	 M7.3,3.4v1.2H7.2V3.4H7.3z M7.1,3.4v1.2H7V3.4H7.1z M6.9,5v1.2H6.8V5H6.9z M6.9,3.4v1.2H6.8V3.4H6.9z M7.9,3.4v1.2H7.8V3.4H7.9z
	 M7.5,3.4v1.2H7.4V3.4H7.5z M7.7,3.4v1.2H7.6V3.4H7.7z M9.6,6.6v1.2H9.5V6.6H9.6z M8.7,6.6v1.2H8.6V6.6H8.7z M8.5,6.6v1.2H8.4V6.6
	H8.5z M9.4,6.6v1.2H9.2V6.6H9.4z M8.9,6.6v1.2H8.8V6.6H8.9z M9.1,6.6v1.2H9V6.6H9.1z M7.1,6.6v1.2H7V6.6H7.1z M7.3,6.6v1.2H7.2V6.6
	H7.3z M7.5,6.6v1.2H7.4V6.6H7.5z M6.9,6.6v1.2H6.8V6.6H6.9z M7.1,5v1.2H7V5H7.1z M7.9,5v1.2H7.8V5H7.9z M7.7,6.6v1.2H7.6V6.6H7.7z
	 M7.9,6.6v1.2H7.8V6.6H7.9z M7.7,5v1.2H7.6V5H7.7z M7.5,5v1.2H7.4V5H7.5z M7.3,5v1.2H7.2V5H7.3z M4.8,10.3c0,0-0.1,0.1-0.1,0.1
	c0,0,0,0.1,0,0.1s0,0,0.1,0c0.1,0,0.1,0,0.1-0.1c0,0,0,0.1,0,0.1c0,0.1,0,0.1-0.1,0.2s-0.1,0.1-0.2,0.1c-0.1,0-0.1,0-0.2-0.1
	s-0.1-0.1-0.1-0.2c0-0.1,0-0.1,0.1-0.2s0.1-0.1,0.2-0.1C4.7,10.3,4.7,10.3,4.8,10.3z M16,6.8L15.9,7c-0.1,0.2-0.2,0.4-0.4,0.5
	s-0.3,0.3-0.5,0.4S14.6,8,14.4,8s-0.4,0.1-0.6,0.1h-0.1c0,0-0.1,0-0.1,0c-0.4,0.9-0.8,1.6-1.4,2.3s-1.2,1.2-1.9,1.6
	s-1.5,0.7-2.3,0.9s-1.7,0.3-2.6,0.3c-0.7,0-1.4-0.1-2-0.3S2.1,12.4,1.6,12s-0.9-0.9-1.2-1.5S0,9.3,0,8.6c0-0.1,0-0.2,0-0.4
	S0,8,0,7.9h1.5V6.3h1.6V4.7h3.2V3h1.9v3.2h1.6v1.6h0.8c0.3,0,0.6,0,0.9-0.1s0.6-0.2,0.8-0.3c-0.1-0.2-0.2-0.4-0.3-0.6
	s-0.1-0.4-0.1-0.7c0-0.3,0-0.6,0.1-0.8s0.2-0.5,0.5-0.7c0.1,0.1,0.3,0.2,0.4,0.4s0.3,0.3,0.4,0.4s0.2,0.3,0.3,0.5s0.1,0.4,0.1,0.6
	c0.1,0,0.2-0.1,0.4-0.1s0.3,0,0.4,0c0.3,0,0.5,0,0.7,0.1S15.8,6.6,16,6.8z M3.4,4.9v1.4h1.4V4.9H3.4z M5.1,10.6c0-0.1,0-0.2-0.1-0.3
	s-0.2-0.1-0.3-0.1c-0.1,0-0.2,0-0.3,0.1s-0.1,0.2-0.1,0.3c0,0.1,0,0.2,0.1,0.3S4.6,11,4.7,11s0.2,0,0.3-0.1S5.1,10.7,5.1,10.6z
	 M3.4,6.5v1.4h1.4V6.5H3.4z M1.8,6.5v1.4h1.4V6.5H1.8z M5.3,13h0.2c0.1,0,0.1,0,0.2,0c-0.4-0.2-0.8-0.4-1.1-0.7s-0.6-0.6-0.7-1
	c-0.2,0.1-0.4,0.1-0.6,0.1s-0.4,0-0.6,0.1l0,0c-0.1,0-0.3,0-0.4,0s-0.3,0-0.4,0c-0.1,0-0.2,0-0.3,0s-0.2,0-0.3,0
	c0.3,0.3,0.6,0.5,0.9,0.7s0.6,0.4,0.9,0.5s0.7,0.2,1,0.3S4.9,13,5.3,13z M6.4,7.9V6.5H5.1v1.4H6.4z M6.4,6.3V4.9H5.1v1.4H6.4z
	 M8,7.9V6.5H6.7v1.4H8z M8,6.3V4.9H6.7v1.4H8z M8,4.7V3.3H6.7v1.4H8z M9.7,7.9V6.5H8.3v1.4H9.7z"/>
</svg>
