<svg xmlns="http://www.w3.org/2000/svg" width="16" height="16" viewBox="0 0 16 16">
  <title>opac_command_icons_bv</title>
  <path d="M6.5,14h0c-.007-.013-.062,0-.093-.01L.408,12.928A.5.5,0,0,1,0,12.436V4.042a.5.5,0,0,1,.375-.485l6-1.54a.511.511,0,0,1,.246,0h0l.008,0,8,2A.5.5,0,0,1,15,4.5v6a.5.5,0,0,1-.324.467l-7.989,3A.506.506,0,0,1,6.5,14h0ZM1,12.017,6,12.9V3.144L1,4.429ZM7,3.14v9.638l7-2.625V4.89Z" fill="#fff"/>
  <polygon points="3 3.947 3 12.357 4 12.534 4 3.69 3 3.947" fill="#fff"/>
  <polygon points="8 4.592 8 11.086 9 10.752 9 4.814 8 4.592" fill="#fff"/>
  <polygon points="10 5.037 10 10.419 11 10.086 11 5.259 10 5.037" fill="#fff"/>
  <polygon points="12 5.481 12 9.752 13 9.419 13 5.703 12 5.481" fill="#fff"/>
  <rect width="16" height="16" fill="none"/>
</svg>
