<svg width="16" height="16" viewBox="0 0 16 16" fill="none" xmlns="http://www.w3.org/2000/svg">
<path d="M9.1 4.4L8.6 2H7.4L6.9 4.4L6.2 4.7L4.2 3.4L3.3 4.2L4.6 6.2L4.4 6.9L2 7.4V8.6L4.4 9.1L4.7 9.9L3.4 11.9L4.2 12.7L6.2 11.4L7 11.7L7.4 14H8.6L9.1 11.6L9.9 11.3L11.9 12.6L12.7 11.8L11.4 9.8L11.7 9L14 8.6V7.4L11.6 6.9L11.3 6.1L12.6 4.1L11.8 3.3L9.8 4.6L9.1 4.4ZM9.4 1L9.9 3.4L12 2.1L14 4.1L12.6 6.2L15 6.6V9.4L12.6 9.9L14 12L12 14L9.9 12.6L9.4 15H6.6L6.1 12.6L4 13.9L2 11.9L3.4 9.8L1 9.4V6.6L3.4 6.1L2.1 4L4.1 2L6.2 3.4L6.6 1H9.4ZM10 8C10 9.1 9.1 10 8 10C6.9 10 6 9.1 6 8C6 6.9 6.9 6 8 6C9.1 6 10 6.9 10 8ZM8 9C8.6 9 9 8.6 9 8C9 7.4 8.6 7 8 7C7.4 7 7 7.4 7 8C7 8.6 7.4 9 8 9Z" fill="#424242"/>
</svg>
