<svg width="16" height="16" viewBox="0 0 16 16" fill="none" xmlns="http://www.w3.org/2000/svg">
<path d="M15 8H8V15H0V0H15V8ZM7 8H1V14H7V8ZM7 1H1V7H7V1ZM14 1H8V7H14V1ZM14.9531 12.0234C14.9844 12.1797 15 12.3385 15 12.5C15 12.6615 14.9844 12.8203 14.9531 12.9766L15.9219 13.375L15.5391 14.3047L14.5703 13.8984C14.4818 14.0339 14.3802 14.1589 14.2656 14.2734C14.1562 14.3828 14.0339 14.4818 13.8984 14.5703L14.3047 15.5391L13.375 15.9219L12.9766 14.9531C12.8203 14.9844 12.6615 15 12.5 15C12.3385 15 12.1797 14.9844 12.0234 14.9531L11.625 15.9219L10.6953 15.5391L11.1016 14.5703C10.8307 14.3932 10.6068 14.1693 10.4297 13.8984L9.46094 14.3047L9.07812 13.375L10.0469 12.9766C10.0156 12.8203 10 12.6615 10 12.5C10 12.3385 10.0156 12.1797 10.0469 12.0234L9.07812 11.625L9.46094 10.6953L10.4297 11.1016C10.5182 10.9661 10.6172 10.8438 10.7266 10.7344C10.8411 10.6198 10.9661 10.5182 11.1016 10.4297L10.6953 9.46094L11.625 9.07812L12.0234 10.0469C12.0964 10.0365 12.1667 10.0286 12.2344 10.0234C12.3073 10.013 12.3802 10.0078 12.4531 10.0078C12.5417 10.0078 12.6276 10.013 12.7109 10.0234C12.7943 10.0339 12.8802 10.0469 12.9688 10.0625L13.375 9.07812L14.3047 9.46094L13.8906 10.4453C14.026 10.5339 14.151 10.6328 14.2656 10.7422C14.3802 10.8464 14.4818 10.9661 14.5703 11.1016L15.5391 10.6953L15.9219 11.625L14.9531 12.0234ZM12.5078 14C12.7109 14 12.9036 13.9609 13.0859 13.8828C13.2682 13.7995 13.4271 13.6901 13.5625 13.5547C13.6979 13.4193 13.8047 13.2604 13.8828 13.0781C13.9609 12.8958 14 12.7031 14 12.5C14 12.2917 13.9609 12.0964 13.8828 11.9141C13.8047 11.7318 13.6979 11.5729 13.5625 11.4375C13.4271 11.3021 13.2682 11.1953 13.0859 11.1172C12.9036 11.0391 12.7083 11 12.5 11C12.2969 11 12.1042 11.0391 11.9219 11.1172C11.7396 11.1953 11.5781 11.3047 11.4375 11.4453C11.3021 11.5807 11.1953 11.7396 11.1172 11.9219C11.0391 12.1042 11 12.2969 11 12.5C11 12.7083 11.0391 12.9036 11.1172 13.0859C11.2005 13.2682 11.3099 13.4271 11.4453 13.5625C11.5807 13.6979 11.7396 13.8047 11.9219 13.8828C12.1094 13.9609 12.3047 14 12.5078 14Z" fill="#ffffff"/>
</svg>
