<svg id="Layer_1" data-name="Layer 1" xmlns="http://www.w3.org/2000/svg" viewBox="0 0 16 16"><defs><style>.cls-1{fill:#fff;}</style></defs><title>new_servergroup_inverse_16x16</title><path class="cls-1" d="M10.2,13h-5v-.75a1.12,1.12,0,0,1,.07-.43,1.81,1.81,0,0,1,.18-.34,3.89,3.89,0,0,1,.24-.32,2.14,2.14,0,0,0,.24-.36,2.26,2.26,0,0,0,.18-.45,2.16,2.16,0,0,0,.07-.61v-5a1,1,0,0,0-.07-.39A1,1,0,0,0,5.87,4l-3-3h8.29V7.08h1V1a1,1,0,0,0-.08-.39,1,1,0,0,0-.54-.54A1,1,0,0,0,11.16,0h-10V13.41L3.45,15.7a1,1,0,0,0,.71.3,1,1,0,0,0,.38-.08A1,1,0,0,0,5,15.56,1,1,0,0,0,5.16,15V14h5ZM5.09,10.18a1.81,1.81,0,0,1-.18.34,3.89,3.89,0,0,1-.24.32,2.14,2.14,0,0,0-.24.36,2.26,2.26,0,0,0-.18.45,2.16,2.16,0,0,0-.07.61V15l-2-2V1.71l3,3v5A1.12,1.12,0,0,1,5.09,10.18Z"/><path class="cls-1" d="M11,12.67V10.75H9.11V9.93H11V8h.82V9.93h1.93v.82H11.85v1.93Z"/></svg>