<svg id="Icon" xmlns="http://www.w3.org/2000/svg" width="16" height="16" viewBox="0 0 16 16"><defs><style>.cls-1,.cls-2{fill:#f6f6f6;}.cls-1{opacity:0;}.cls-3{fill:#424242;}.cls-4{fill:#00539c;}</style></defs><title>output_parameter_16x</title><rect id="canvas" class="cls-1" width="16" height="16"/><path id="outline" class="cls-2" d="M14.22,6.39a5.65,5.65,0,0,0-1.86-1A6.8,6.8,0,0,0,10.16,5a6.63,6.63,0,0,0-1.73.22c-.15,0-.28.1-.42.15V3L5,0H3L0,3V9L2,7V9H4.38c-.07.19-.13.38-.18.58A6.69,6.69,0,0,0,4,11.21a6.08,6.08,0,0,0,.44,2.36,5.06,5.06,0,0,0,2,2.43h7.16V14.51l.12-.05a3.57,3.57,0,0,0,1.19-.91,4.5,4.5,0,0,0,.78-1.38A5.43,5.43,0,0,0,16,10.33a5.22,5.22,0,0,0-.48-2.25A5.07,5.07,0,0,0,14.22,6.39Z"/><path id="iconBG" class="cls-3" d="M13.57,7.16A4.65,4.65,0,0,0,12,6.3,5.78,5.78,0,0,0,10.16,6a5.59,5.59,0,0,0-1.47.19,5.09,5.09,0,0,0-1.26.52A4.78,4.78,0,0,0,5.64,8.58a5.33,5.33,0,0,0-.47,1.24A5.67,5.67,0,0,0,5,11.21a5.08,5.08,0,0,0,.37,2,4.37,4.37,0,0,0,1,1.51,4.58,4.58,0,0,0,1.57,1A5.74,5.74,0,0,0,10,16c.34,0,.64,0,.92,0s.52-.06.74-.1a4.79,4.79,0,0,0,.57-.14l.42-.15v-.95l-.51.2a4.5,4.5,0,0,1-.58.16,6.38,6.38,0,0,1-.67.1,7.12,7.12,0,0,1-.78,0,4.52,4.52,0,0,1-1.68-.29A3.61,3.61,0,0,1,7.15,14a3.5,3.5,0,0,1-.79-1.25,4.54,4.54,0,0,1-.27-1.59,4.63,4.63,0,0,1,.3-1.69,4.18,4.18,0,0,1,.84-1.36,3.92,3.92,0,0,1,1.28-.91,4,4,0,0,1,1.62-.33A4.63,4.63,0,0,1,11.39,7a3.72,3.72,0,0,1,1,.41,3,3,0,0,1,.71.61,3.45,3.45,0,0,1,.49.74,3.63,3.63,0,0,1,.27.81,4.41,4.41,0,0,1,0,1.85,3,3,0,0,1-.3.77,1.43,1.43,0,0,1-.43.48.88.88,0,0,1-.5.16.58.58,0,0,1-.24,0,.4.4,0,0,1-.18-.17,1,1,0,0,1-.12-.34,2.85,2.85,0,0,1,0-.55c0-.07,0-.19,0-.36s0-.37,0-.59,0-.46.06-.71,0-.49.06-.72,0-.43.05-.61,0-.3,0-.38h-1l-.06.67h0A.86.86,0,0,0,11,8.75a1,1,0,0,0-.26-.24,1.27,1.27,0,0,0-.34-.16A1.46,1.46,0,0,0,10,8.3a2.18,2.18,0,0,0-1,.24,2.42,2.42,0,0,0-.8.67,3.09,3.09,0,0,0-.52,1,4,4,0,0,0-.19,1.26,3.08,3.08,0,0,0,.15,1,2.15,2.15,0,0,0,.4.72,1.58,1.58,0,0,0,.59.42,1.81,1.81,0,0,0,.71.14,1.71,1.71,0,0,0,.55-.09,1.61,1.61,0,0,0,.48-.26,1.77,1.77,0,0,0,.39-.42,2,2,0,0,0,.26-.58h0a1.39,1.39,0,0,0,.34,1,1.29,1.29,0,0,0,1,.37,2.22,2.22,0,0,0,1-.22,2.55,2.55,0,0,0,.85-.65,3.48,3.48,0,0,0,.6-1.07A4.42,4.42,0,0,0,15,10.33a4.21,4.21,0,0,0-.38-1.82,4.07,4.07,0,0,0-1-1.36m-2.63,4.19a2.83,2.83,0,0,1-.27.8,1.57,1.57,0,0,1-.45.53,1.07,1.07,0,0,1-.64.2.86.86,0,0,1-.38-.09.91.91,0,0,1-.32-.26,1.37,1.37,0,0,1-.22-.43,2.13,2.13,0,0,1-.08-.61,3.9,3.9,0,0,1,.09-.81,2.82,2.82,0,0,1,.28-.75,1.74,1.74,0,0,1,.46-.55,1.08,1.08,0,0,1,1-.14.82.82,0,0,1,.31.22,1,1,0,0,1,.21.37,1.71,1.71,0,0,1,.08.53,5.54,5.54,0,0,1-.09,1"/><path id="colorAction" class="cls-4" d="M7,6,5,4V8H3V4L1,6V4L4,1,7,4Z"/></svg>