<svg xmlns="http://www.w3.org/2000/svg" width="16" height="16"><style type="text/css">.icon-canvas-transparent{opacity:0;fill:#F6F6F6;} .icon-vs-out{fill:#F6F6F6;} .icon-vs-bg{fill:#424242;} .icon-vs-fg{fill:#F0EFF1;}</style><path class="icon-canvas-transparent" d="M16 16h-16v-16h16v16z" id="canvas"/><path class="icon-vs-out" d="M16 14h-7v2h-9v-16h16v14z" id="outline"/><path class="icon-vs-bg" d="M15 1v12h-6v-1h5v-8h-7.055c-.632-.617-1.492-1-2.445-1-.952 0-1.813.383-2.444 1h-.056v.056c-.617.631-1 1.492-1 2.444v-5.5h14zm-13 8c-.65-.635-1-1.52-1-2.5v2.5h1zm2.5 3l-1.5-2h-2v5h7v-5h-2l-1.5 2zm2.5-5.5c0-1.38-1.121-2.5-2.5-2.5-1.381 0-2.5 1.12-2.5 2.5s1.119 2.5 2.5 2.5c1.379 0 2.5-1.119 2.5-2.5z" id="iconBg"/><path class="icon-vs-fg" d="M2 4h.056l-.056.056v-.056zm4.945 0c.649.635 1.055 1.52 1.055 2.5s-.35 1.865-1 2.5h2v3h5v-8h-7.055z" id="iconFg"/></svg>