<svg xmlns="http://www.w3.org/2000/svg" width="16" height="16" viewBox="0 0 16 16"><defs><style>.cls-1,.cls-2{fill:#f6f6f6;}.cls-1{opacity:0;}.cls-3{fill:#424242;}.cls-4{fill:#f0eff1;}</style></defs><title>assemblyfile_16x</title><g id="outline"><rect class="cls-1" width="16" height="16"/><path class="cls-2" d="M4,15a2,2,0,0,1-2-2V3A2,2,0,0,1,4,1h6.06L14,4.56V13a2,2,0,0,1-2,2Z"/></g><g id="icon_bg"><path class="cls-3" d="M9.64,2H4A1,1,0,0,0,3,3V13a1,1,0,0,0,1,1h8a1,1,0,0,0,1-1V5ZM12,13H4V3H9V6h3Z"/><rect class="cls-3" x="5" y="5" width="3" height="1"/><rect class="cls-3" x="5" y="7" width="6" height="1"/><rect class="cls-3" x="5" y="9" width="6" height="1"/><rect class="cls-3" x="5" y="11" width="6" height="1"/></g><g id="icon_fg"><path class="cls-4" d="M9,6V3H4V13h8V6ZM5,5H8V6H5Zm6,7H5V11h6Zm0-2H5V9h6Zm0-2H5V7h6Z"/></g></svg>