<svg xmlns="http://www.w3.org/2000/svg" width="16" height="16"><style type="text/css">.icon-canvas-transparent{opacity:0;fill:#F6F6F6;} .icon-vs-out{fill:#F6F6F6;} .icon-vs-bg{fill:#424242;} .icon-vs-fg{fill:#F0EFF1;} .icon-vs-action-blue{fill:#00539C;}</style><path class="icon-canvas-transparent" d="M16 16h-16v-16h16v16z" id="canvas"/><path class="icon-vs-out" d="M16 4v12h-16v-12.414l3.586-3.586h.828l3.586 3.586v.414h8z" id="outline"/><path class="icon-vs-bg" d="M15 5v10h-14v-4.586l1 1v2.586h12v-7l-5 5h-2l-.793-.793 1-1 .793.793 5-5h-5v-1h7z" id="iconBg"/><path class="icon-vs-fg" d="M13 6l-5 5-.793-.793.793-.793v-3.414h5zm-4 6h-2l-.793-.793-2.207 2.207-2-2v2.586h12v-7l-5 5z" id="iconFg"/><path class="icon-vs-action-blue" d="M5 9l2-2v2l-3 3-3-3v-2l2 2v-5l-2 2v-2l3-3 3 3v2l-2-2v5z" id="colorAction"/></svg>