<svg xmlns="http://www.w3.org/2000/svg" width="16" height="16"><style type="text/css">.icon-canvas-transparent{opacity:0;fill:#F6F6F6;} .icon-vs-out{fill:#F6F6F6;} .icon-vs-bg{fill:#424242;} .icon-vs-fg{fill:#F0EFF1;}</style><path class="icon-canvas-transparent" d="M16 16h-16v-16h16v16z" id="canvas"/><path class="icon-vs-out" d="M16 14h-9.719l.5 2h-3.002l-.279-.838-.279.838h-3.001l.78-3.125v-1.24c-.317-.483-.5-1.047-.5-1.635 0-.438.099-.85.268-1.225.067-.149.143-.293.232-.427v-7.348h15v13z" id="outline"/><path class="icon-vs-bg" d="M5.5 10c0-1.104-.896-2-2-2s-2 .896-2 2c0 .672.335 1.264.843 1.627l-.843 3.373h1l1-3 1 3h1l-.843-3.373c.508-.363.843-.955.843-1.627zm-2 1c-.552 0-1-.447-1-1 0-.553.448-1 1-1s1 .447 1 1c0 .553-.448 1-1 1zm11.5-9v11h-8.969l-.261-1.045c.122-.141.228-.293.32-.452l.002-.006c.092-.158.167-.324.229-.496v-.001h.679v1h1v-1h1v1h1v-1h1v1h1v-1h1v1h1v-1h-1v-1h1v-1h-1v-1h1v-1h-1v-1h1v-1h-1v-1h1v-1h-1v1h-1v-1h-1v1h-1v-1h-1v1h-1v-1h-1v1h-1v-1h-1v1h-1v-1h-1v1h1v1h-1v1h1v1.051c-.164-.028-.329-.051-.5-.051-.549 0-1.057.159-1.5.417v-5.417h13zm-3 4h-7v-1h7v1zm-1 1v1h-5v-1h5zm-7.62.009l.12-.009-.12.009zm-.38.029l.38-.029-.38.04v-.011z" id="iconBg"/><path class="icon-vs-fg" d="M4.5 10c0 .553-.448 1-1 1s-1-.447-1-1c0-.553.448-1 1-1s1 .447 1 1zm9.5-7h-1v1h1v-1zm0 8h-1v1h1v-1zm-8.219 1zm-2.781-4.95c.164-.027.329-.05.5-.05-.172 0-.338.021-.5.05zm10-1.05v1h1v1h-1v1h1v1h-1v1h-1v1h-1v-1h-1v1h-1v-1h-1v1h-1v-1h-1c.002-.318.339-.655.339-1 0-1.483-.923-2.71-2.339-2.949v-1.051h-1v-1h1v-1h1v-1h1v1h1v-1h1v1h1v-1h1v1h1v-1h1v1h1v1h1v1h-1zm-2 1h-5v1h5v-1zm1-2h-7v1h7v-1zm-6 6.003zm.09.5c-.092.159-.198.312-.32.452l.011.045-.011-.045c.242-.281.427-.606.551-.952-.063.171-.137.337-.229.494l-.002.006zm-2.09-4.452c-.164-.028-.329-.051-.5-.051.172 0 .336.023.5.051zm0-4.051h-1v1h1v-1z" id="iconFg"/></svg>