<svg xmlns="http://www.w3.org/2000/svg" width="16" height="16" viewBox="0 0 16 16"><defs><style>.cls-1,.cls-2{fill:#f6f6f6;}.cls-1{opacity:0;}.cls-3{fill:#424242;}.cls-4{fill:#f0eff1;}.cls-5{fill:#e51400;}</style></defs><title>Availability_Database_Offline_16x</title><g id="outline"><rect class="cls-1" width="16" height="16"/><path class="cls-2" d="M15,11.4l1-1V9.59l-1-1V4c0-2.28-3-4-7-4S1,1.72,1,4v8c0,2.28,3,4,7,4a13.05,13.05,0,0,0,1.5-.09l.09.09h.83l.29-.29A8.73,8.73,0,0,0,12.63,15l1,1h.83L16,14.41v-.82l-1.06-1.07A2.6,2.6,0,0,0,15,12Z"/></g><g id="icon_bg"><path class="cls-3" d="M8,1C4.69,1,2,2.34,2,4v8c0,1.66,2.69,3,6,3h.57l-1-1,2-2-2-2L10,7.59l2,2,2-2V4C14,2.34,11.31,1,8,1ZM8,6C4.95,6,3,4.82,3,4S4.95,2,8,2s5,1.18,5,2S11.05,6,8,6Z"/></g><g id="icon_fg"><path class="cls-4" d="M8,2C4.95,2,3,3.18,3,4S4.95,6,8,6s5-1.18,5-2S11.05,2,8,2Z"/></g><g id="not_bg"><path class="cls-5" d="M13,12l2,2-1,1-2-2-2,2L9,14l2-2L9,10l1-1,2,2,2-2,1,1Z"/></g></svg>