<svg id="Icon" xmlns="http://www.w3.org/2000/svg" width="16" height="16" viewBox="0 0 16 16"><defs><style>.cls-1,.cls-2{fill:#f6f6f6;}.cls-1{opacity:0;}.cls-3{fill:#424242;}.cls-4{fill:#f0eff1;}</style></defs><title>database_roles_16x_16x</title><rect id="canvas" class="cls-1" width="16" height="16"/><path id="outline" class="cls-2" d="M9,0C5,0,2,1.72,2,4v.06A3.48,3.48,0,0,0,1,6.5,3.44,3.44,0,0,0,2,9H0v7H9c4,0,7-1.72,7-4V4C16,1.72,13,0,9,0Z"/><g id="iconBG"><path class="cls-3" d="M2,6.5A2.5,2.5,0,1,1,4.5,9,2.5,2.5,0,0,1,2,6.5M8,10v5H1V10H3l1.5,2L6,10Z"/><path class="cls-3" d="M9,1C6.2,1,3.85,2,3.19,3.26A3.49,3.49,0,0,1,4.5,3,3.5,3.5,0,0,1,5,3a8.16,8.16,0,0,1,4-.92c2.93,0,4.88,1.13,4.88,1.88S11.93,5.88,9,5.88c-.37,0-.73,0-1.07-.05A3.51,3.51,0,0,1,8,6.5,3.44,3.44,0,0,1,7,9H9v6c3.31,0,6-1.34,6-3V4C15,2.34,12.31,1,9,1Z"/></g><path id="iconFG" class="cls-4" d="M9,2.13A8.16,8.16,0,0,0,5,3a3.49,3.49,0,0,1,3,2.78c.34,0,.69.05,1.07.05,2.93,0,4.88-1.13,4.88-1.87S11.93,2.13,9,2.13Z"/></svg>