<svg xmlns="http://www.w3.org/2000/svg" width="16" height="16" viewBox="0 0 16 16"><defs><style>.cls-1{fill:#f6f6f6;}.cls-2{fill:#424242;}.cls-3{fill:#f0eff1;}</style></defs><title>database_16x</title><g id="outline"><path class="cls-1" d="M8,0C4,0,1,1.72,1,4v8c0,2.28,3,4,7,4s7-1.72,7-4V4C15,1.72,12,0,8,0Z"/></g><g id="icon_bg"><path class="cls-2" d="M8,1C4.69,1,2,2.34,2,4v8c0,1.66,2.69,3,6,3s6-1.34,6-3V4C14,2.34,11.31,1,8,1ZM8,5.88C5.07,5.88,3.12,4.75,3.12,4S5.07,2.13,8,2.13,12.87,3.25,12.87,4,10.93,5.88,8,5.88Z"/></g><g id="icon_fg"><path class="cls-3" d="M8,2.13C5.07,2.13,3.12,3.25,3.12,4S5.07,5.88,8,5.88,12.87,4.75,12.87,4,10.93,2.13,8,2.13Z"/></g></svg>