<?xml version="1.0" encoding="utf-8"?>
<!-- Generator: Adobe Illustrator 25.0.0, SVG Export Plug-In . SVG Version: 6.00 Build 0)  -->
<svg version="1.1" id="Layer1" xmlns="http://www.w3.org/2000/svg" xmlns:xlink="http://www.w3.org/1999/xlink" x="0px" y="0px"
	 viewBox="0 0 16 16" style="enable-background:new 0 0 16 16;" xml:space="preserve">
<style type="text/css">
	.st0{fill:#F6F6F6;}
	.st1{fill:#424242;}
	.st2{fill:#F0EFF1;}
</style>
<path id="outline" class="st0" d="M16,9l0-0.7l-0.5-0.2L14,7.3v-4c0-0.7-0.3-1.9-2.3-2.6C10.5,0.2,9.3,0,8,0C6.7,0,5.5,0.2,4.3,0.6
	C2.3,1.4,2,2.6,2,3.2v9.5c0,0.7,0.3,1.9,2.3,2.6C5.5,15.8,6.7,16,8,16c0.9,0,1.7-0.1,2.6-0.3c0.2,0.1,0.4,0.2,0.7,0.2l0.2,0.1
	l0.2-0.1C16.1,14.9,16,9.2,16,9z"/>
<path id="IconBg" class="st1" d="M7,9l0-0.6l4.5-2.6L13,6.7V3.2c0-0.7-0.6-1.3-1.6-1.7C10.3,1.2,9.1,1,8,1C6.9,1,5.7,1.2,4.6,1.5
	C3.6,2,3,2.6,3,3.2v9.5c0,0.7,0.6,1.3,1.6,1.7C5.7,14.8,6.9,15,8,15c0.4,0,0.8,0,1.3-0.1C6.9,12.9,7,9.2,7,9z M4,3.2
	C4,2.8,5.4,2,8,2s4,0.8,4,1.2s-1.4,1.2-4,1.2S4,3.7,4,3.2z M15,9L15,9l-4,4l-1.9-1.9l0.7-0.7l1.1,1.1l3.1-3.1L11.5,7L8,9
	c0,0-0.1,5.1,3.5,6C15.1,14.1,15,9,15,9z"/>
<path id="iconFg" class="st2" d="M8,4.5c2.6,0,4-0.8,4-1.2S10.6,2,8,2S4,2.8,4,3.2S5.4,4.5,8,4.5z"/>
</svg>
