<?xml version="1.0" encoding="utf-8"?>
<!-- Generator: Adobe Illustrator 25.0.0, SVG Export Plug-In . SVG Version: 6.00 Build 0)  -->
<svg version="1.1" id="Layer_1" xmlns="http://www.w3.org/2000/svg" xmlns:xlink="http://www.w3.org/1999/xlink" x="0px" y="0px"
	 width="16px" height="16px" viewBox="0 0 16 16" enable-background="new 0 0 16 16" xml:space="preserve">
<path id="outline" fill="#F6F6F6" d="M15.999,8.964l-0.026-0.663L15.43,8.084L15,7.836V4c0-2.28-3-4-7-4S1,1.72,1,4v8
	c0,2.28,3,4,7,4c0.937,0,1.816-0.098,2.618-0.272c0.204,0.08,0.413,0.156,0.641,0.212l0.24,0.06l0.24-0.06
	C16.098,14.861,16.005,9.204,15.999,8.964z"/>
<g id="icon_fg">
	<path fill="#F0EFF1" d="M8,2.13C5.07,2.13,3.12,3.25,3.12,4S5.07,5.88,8,5.88S12.87,4.75,12.87,4S10.93,2.13,8,2.13z"/>
</g>
<path id="Icon_bg" fill="#424242" d="M7,8.964l0.014-0.561l4.485-2.588L14,7.259V4c0-1.66-2.69-3-6-3S2,2.34,2,4v8
	c0,1.66,2.69,3,6,3c0.435,0,0.858-0.024,1.267-0.068C6.933,12.95,6.995,9.16,7,8.964z M3.12,4c0-0.75,1.95-1.87,4.88-1.87
	S12.87,3.25,12.87,4S10.93,5.88,8,5.88S3.12,4.75,3.12,4z M14.999,8.99l-0.01-0.004l-3.984,3.984l-1.854-1.854l0.707-0.707
	l1.146,1.146l3.088-3.088L11.499,6.97l-3.5,2.02c0,0-0.13,5.083,3.5,5.98C15.128,14.072,14.999,8.99,14.999,8.99z"/>
</svg>
