<svg xmlns="http://www.w3.org/2000/svg" width="16" height="16" viewBox="0 0 16 16"><title>ExternalFileFormat_16x</title><path d="M16,16H0V0H16Z" fill="#f6f6f6" opacity="0"/><path d="M12.06,1H8V0H4L3,1V0H0V8H4v5a2,2,0,0,0,2,2h8a2,2,0,0,0,2-2V4.56Z" fill="#f6f6f6"/><path d="M11.64,2H8V3h3V6h3v7H6V8H5v5a1,1,0,0,0,1,1h8a1,1,0,0,0,1-1V5Z" fill="#424242"/><polygon points="11 6 11 3 8 3 8 3.98 6.99 5 8 5 8 8 6 8 6 13 14 13 14 6 11 6" fill="#f0eff1"/><polygon points="7 6 2 6 2 1 1 1 1 7 7 7 7 6" fill="#00539c"/><polygon points="4.43 1 3.57 1.86 5.54 1.86 3.22 4.18 3.82 4.78 6.14 2.46 6.14 4.43 7 3.57 7 1 4.43 1" fill="#00539c"/></svg>