<svg xmlns="http://www.w3.org/2000/svg" xmlns:xlink="http://www.w3.org/1999/xlink" width="15.984" height="15.984" viewBox="0 0 15.984 15.984">
  <defs>
    <clipPath id="a">
      <rect width="15.984" height="15.984" fill="none"/>
    </clipPath>
  </defs>
  <title>Folder_mounted_updatedSize</title>
  <g clip-path="url(#a)">
    <g>
      <path d="M15.984,2.5v9.99a1.5,1.5,0,0,1-1.5,1.5H2.5a1.5,1.5,0,0,1-1.5-1.5V4.5A1.5,1.5,0,0,1,2.5,3H5.385l1-2h8.1A1.5,1.5,0,0,1,15.984,2.5Z" fill="#f6f6f6"/>
      <path d="M14.486,2H7L6,4H2.5a.5.5,0,0,0-.5.5v7.992a.5.5,0,0,0,.5.5H14.486a.5.5,0,0,0,.5-.5V2.5A.5.5,0,0,0,14.486,2Zm-.5,2H7.493l.5-1h5.994Z" fill="#dcb67a"/>
      <path d="M13.986,3V4H7.493l.5-1Z" fill="#f0eff1"/>
    </g>
  </g>
  <path d="M7.143,10.989H6.474l.519,1c.38,0,1,0,1,1,0,.38,0,1-.779,1H5.574a3.735,3.735,0,0,0-.829-.939c-.289-.19-.749.29-.459.929a5.716,5.716,0,0,1,.529,1H6.993a1.8,1.8,0,0,0,2-1.573,1.777,1.777,0,0,0,0-.425C8.991,11.489,8.262,10.989,7.143,10.989Z" fill="#424242"/>
  <path d="M2.9,14.985h.639l-.539-1c-.37,0-1,0-1-1,0-.37,0-1,.779-1H4.456a3.735,3.735,0,0,0,.829.939c.289.19.749-.29.459-.929a5.716,5.716,0,0,1-.529-1H3a1.8,1.8,0,0,0-2,1.573A1.777,1.777,0,0,0,1,13C1,14.486,1.768,14.985,2.9,14.985Z" fill="#424242"/>
  <path d="M7.2,15.984a2.592,2.592,0,0,1-.264-.013h-2.8L3.9,15.354a4.752,4.752,0,0,0-.437-.825l-.044-.066-.039-.077a1.8,1.8,0,0,1,.081-1.727A1.38,1.38,0,0,1,4.606,12a1.248,1.248,0,0,1,.686.205l.081.058a4.675,4.675,0,0,1,.721.72h.3l-1.559-3H7.143A2.647,2.647,0,0,1,10,12.415a2.6,2.6,0,0,1-.007.507,2.8,2.8,0,0,1-2.52,3.049A2.617,2.617,0,0,1,7.2,15.984Z" fill="#f6f6f6"/>
  <path d="M7.143,10.989H6.474l.519,1c.38,0,1,0,1,1,0,.38,0,1-.779,1H5.574a3.735,3.735,0,0,0-.829-.939c-.289-.19-.749.29-.459.929a5.716,5.716,0,0,1,.529,1H6.993a1.8,1.8,0,0,0,2-1.573,1.777,1.777,0,0,0,0-.425C8.991,11.489,8.262,10.989,7.143,10.989Z" fill="#424242"/>
  <path d="M2.9,15.984A2.67,2.67,0,0,1,0,13.565a2.587,2.587,0,0,1,0-.513A2.8,2.8,0,0,1,2.52,10a2.707,2.707,0,0,1,.53,0H5.886l.254.621a4.738,4.738,0,0,0,.436.824l.044.066.034.075a1.8,1.8,0,0,1-.081,1.727,1.38,1.38,0,0,1-1.149.655,1.248,1.248,0,0,1-.686-.205l-.081-.058a4.65,4.65,0,0,1-.716-.721H3.6l1.619,3Z" fill="#f6f6f6"/>
  <path d="M2.9,14.985h.639l-.539-1c-.37,0-1,0-1-1,0-.37,0-1,.779-1H4.456a3.735,3.735,0,0,0,.829.939c.289.19.749-.29.459-.929a5.716,5.716,0,0,1-.529-1H3a1.8,1.8,0,0,0-2,1.573A1.777,1.777,0,0,0,1,13C1,14.486,1.768,14.985,2.9,14.985Z" fill="#424242"/>
</svg>
