<svg id="Icon" xmlns="http://www.w3.org/2000/svg" width="16" height="16" viewBox="0 0 16 16"><defs><style>.cls-1{fill:#f6f6f6;}.cls-2{fill:#424242;}.cls-3{fill:#e51400;}.cls-4{fill:#fff;}.cls-5{fill:none;}</style></defs><title>full_text_stoplist_16x</title><path id="Outline" class="cls-1" d="M15,8.69V1H0V15H8.69a4.43,4.43,0,0,0,5.61,0H15v-.7a4.43,4.43,0,0,0,0-5.61ZM1,14V2H14V7.76a4.48,4.48,0,0,0-1-.48V5H2v8H7.28a4.48,4.48,0,0,0,.48,1ZM7,8V9H3V8ZM3,7V6H7V7Zm4,3v1H3V10ZM8,7V6h4V7H8Zm.7,1a4.5,4.5,0,0,0-.7.7V8Zm2.8,7A3.5,3.5,0,1,1,15,11.5,3.5,3.5,0,0,1,11.5,15Z"/><rect class="cls-2" x="3" y="6" width="4" height="1"/><polygon class="cls-2" points="12 7 12 6 8 6 8 7 11.5 7 12 7"/><rect class="cls-2" x="3" y="8" width="4" height="1"/><path class="cls-2" d="M8,8.7A4.5,4.5,0,0,1,8.7,8H8Z"/><rect class="cls-2" x="3" y="10" width="4" height="1"/><path class="cls-2" d="M2,13V5H13V7.28a4.48,4.48,0,0,1,1,.48V2H1V14H7.76a4.48,4.48,0,0,1-.48-1Z"/><path class="cls-3" d="M11.5,8A3.5,3.5,0,1,0,15,11.5,3.5,3.5,0,0,0,11.5,8ZM13,13H10V10h3Z"/><polygon class="cls-4" points="10 10 10 13 13 13 13 10 12 10 10 10"/><rect id="Canvas" class="cls-5" width="16" height="16"/></svg>