<svg xmlns="http://www.w3.org/2000/svg" width="16" height="16" viewBox="0 0 16 16"><defs><style>.cls-1,.cls-2{fill:#f6f6f6;}.cls-1{opacity:0;}.cls-3{fill:#424242;}</style></defs><title>unique_key_16x</title><g id="outline"><rect class="cls-1" width="16" height="16"/><path class="cls-2" d="M12,8.67V2.59L9.41,0H7.59L6,1.59V7.77A4.45,4.45,0,0,0,4,11.5a4.5,4.5,0,0,0,9,0A4.45,4.45,0,0,0,12,8.67Z"/></g><g id="icon_bg"><path class="cls-3" d="M10,8.35V8h1V7L10,6h1V5L10,4h1V3L9,1H8L7,2V8.35a3.5,3.5,0,1,0,3,0ZM9,13a1,1,0,1,1,1-1A1,1,0,0,1,9,13Z"/></g></svg>