<svg xmlns="http://www.w3.org/2000/svg" width="16" height="16" viewBox="0 0 16 16"><defs><style>.a,.b{fill:#f6f6f6;}.a{opacity:0;}.c{fill:#424242;}.d{fill:#f0eff1;}</style></defs><title>foreign_key_16x</title><rect class="a" width="16" height="16"/><path class="b" d="M13.41,5H7.33A4.44,4.44,0,0,0,4.5,4a4.5,4.5,0,0,0,0,9,4.45,4.45,0,0,0,3.73-2h6.18L16,9.41V7.59Z"/><path class="c" d="M13,6H12V7L11,6H10V7L9,6H8V7H7.65a3.5,3.5,0,1,0,0,3H14l1-1V8Zm1,3H6.95a2.5,2.5,0,1,1,0-1H14Z"/><circle class="c" cx="4" cy="8" r="1"/><path class="d" d="M6.95,8a2.5,2.5,0,1,0,0,1H14V8ZM4,9A1,1,0,1,1,5,8,1,1,0,0,1,4,9Z"/></svg>