<svg id="Icon" xmlns="http://www.w3.org/2000/svg" width="16" height="16" viewBox="0 0 16 16"><defs><style>.cls-1{fill:#f6f6f6;}.cls-2{fill:#424242;}.cls-3{fill:#f0eff1;}</style></defs><title>message_type_16x</title><path class="cls-1" d="M16,0H6V7H0v9H10V15h1.5a2.5,2.5,0,0,0,2.37-1.71L15,14.41V10.09L13.91,9H16ZM10,10.09V9h1.09Z"/><path class="cls-2" d="M7,1V8H1v7H9V8h6V1ZM8,14H2V11l2,2H6l2-2ZM5,12,2,9H8Zm9-5H8V4l2,2h2l2-2ZM11,5,8,2h6Zm1.5,4L14,10.5V12l-1-1v1.5A1.5,1.5,0,0,1,11.5,14H10V13h1.5a.5.5,0,0,0,.5-.5V11l-1,1V10.5Z"/><path class="cls-3" d="M12,6l2-2V7H8V4l2,2Zm2-4H8l3,3ZM4,13,2,11v3H8V11L6,13ZM8,9H2l3,3Z"/></svg>