<svg xmlns="http://www.w3.org/2000/svg" width="16" height="16" viewBox="0 0 16 16"><defs><style>.a,.b{fill:#f6f6f6;}.a{opacity:0;}.c{fill:#424242;}.d{fill:#f0eff1;}</style></defs><title>partition_function_16x</title><rect class="a" width="16" height="16"/><path class="b" d="M13.5,3.8l-1,.67v-1L7.3,0H6.7L0,4.46v6.07l1.47,1L1.32,12h.54l-.37,1.33H1.43a1.46,1.46,0,0,0-1,.33,1.29,1.29,0,0,0-.48,1A1.3,1.3,0,0,0,.55,15.7a1.7,1.7,0,0,0,1,.3A2.61,2.61,0,0,0,3,15.62a3,3,0,0,0,1-1.06L4,14.43l.09.09a1.41,1.41,0,0,0,1,.35,1.86,1.86,0,0,0,.74-.15,2.38,2.38,0,0,0,.62-.43l0,0v.21L8.7,16H9.3L16,11.54V5.46Z"/><path class="c" d="M13.5,5l-2,1.33V4L7,1,1,5v5l.78.52.29-.93h.13L2,9.46V6.27l2.69,1.8A2.84,2.84,0,0,1,5.26,8a1.88,1.88,0,0,1,.85.19L10.5,5.27V7l-3,2v.72l.08.12.23-.14a1.76,1.76,0,0,1,.78-.18,1.41,1.41,0,0,1,1,.37,1.38,1.38,0,0,1,0,2,1.31,1.31,0,0,1-.39.26l1.11.58-.63.93a3.2,3.2,0,0,1-.92.94,1.86,1.86,0,0,1-.23.11L9,15l6-4V6Zm-8,2.4L2.35,5.3,7,2.2l3.15,2.1Z"/><path class="c" d="M5.47,12.19l.05-.06,0-.06-.44.08h.05A1.39,1.39,0,0,1,5.47,12.19Z"/><path class="c" d="M4.22,10.6a2.79,2.79,0,0,1,.59-1.21.62.62,0,0,1,.44-.24.1.1,0,0,1,.07,0,.07.07,0,0,1,0,.06.33.33,0,0,1-.06.12.32.32,0,0,0-.06.17.25.25,0,0,0,.09.2.35.35,0,0,0,.24.08.35.35,0,0,0,.36-.37.38.38,0,0,0-.16-.31A.82.82,0,0,0,5.26,9a1.74,1.74,0,0,0-1,.29,2.84,2.84,0,0,0-.84,1,.79.79,0,0,1-.26.29.87.87,0,0,1-.39.06L2.68,11h.5l-.74,2.62c-.12.43-.21.7-.25.8a1,1,0,0,1-.29.37.28.28,0,0,1-.18.06l-.05,0,0,0s0,0,.05-.07a.21.21,0,0,0,.05-.16.24.24,0,0,0-.09-.19.36.36,0,0,0-.25-.08.47.47,0,0,0-.31.1.29.29,0,0,0-.12.23.31.31,0,0,0,.14.25.76.76,0,0,0,.45.11,1.61,1.61,0,0,0,.86-.23,2,2,0,0,0,.66-.71,7,7,0,0,0,.58-1.56L4.11,11h.51l.13-.38Z"/><path class="c" d="M8.84,13.08,8.72,13a1.87,1.87,0,0,1-.32.34.3.3,0,0,1-.16,0A.3.3,0,0,1,8,13.27a6,6,0,0,1-.6-1.43,2.13,2.13,0,0,1,.46-.57.49.49,0,0,1,.29-.1l.21,0a1.1,1.1,0,0,0,.27,0,.37.37,0,0,0,.27-.1A.33.33,0,0,0,9,10.88a.34.34,0,0,0-.11-.27.43.43,0,0,0-.3-.1.76.76,0,0,0-.33.08,1.61,1.61,0,0,0-.4.33,7.8,7.8,0,0,0-.53.67,3.1,3.1,0,0,0-.48-1.08H5.31v.56c.09,0,.42-.26.49-.26a.38.38,0,0,1,.31.15,5.12,5.12,0,0,1,.54,1.4c-.18.22-.52.59-.59.66a1.08,1.08,0,0,1-.27.21.41.41,0,0,1-.19,0,.73.73,0,0,1-.26-.08.6.6,0,0,0-.22-.05.43.43,0,0,0-.3.11.35.35,0,0,0-.12.27.33.33,0,0,0,.11.26.43.43,0,0,0,.3.1.86.86,0,0,0,.34-.07,1.59,1.59,0,0,0,.4-.29c.16-.15.6-.61.88-.94a7.68,7.68,0,0,0,.4.9.82.82,0,0,0,.27.3.72.72,0,0,0,.38.09.83.83,0,0,0,.45-.15A2.26,2.26,0,0,0,8.84,13.08Z"/><polygon class="d" points="7 2.2 2.35 5.3 5.5 7.4 10.15 4.3 7 2.2"/><path class="d" d="M6.11,8.19a1.49,1.49,0,0,1,.27.14,1.36,1.36,0,0,1,.54,1.1s0,.06,0,.09h.44l.14.2V9l3-2V5.27Z"/><path class="d" d="M2,9.46l.19.13h.48A3.69,3.69,0,0,1,3.74,8.45a2.7,2.7,0,0,1,1-.39L2,6.27Z"/></svg>