<svg id="Icon" xmlns="http://www.w3.org/2000/svg" width="16" height="16" viewBox="0 0 16 16"><defs><style>.cls-1{fill:none;}.cls-2{fill:#f6f6f6;}.cls-3{fill:#424242;}.cls-4{fill:#f0eff1;}</style></defs><title>remote_service_16x</title><rect class="cls-1" width="16" height="16"/><path class="cls-2" d="M13.44,4.37l-.1-.77-1.12-.14.7-.9-.48-.61a5,5,0,0,0-.89-.89L10.94.58l-.9.7L9.9.16,9,0A3.81,3.81,0,0,0,8.5,0,3.81,3.81,0,0,0,8,0L7.1.16,7,1.28l-.9-.7-.61.48a5,5,0,0,0-.89.89l-.48.61.7.9-.35,0-.78.19-.1.77A3.87,3.87,0,0,0,3.5,5a4.61,4.61,0,0,0,.06.63l.1.77,1.12.14-.7.89L4.56,8a5,5,0,0,0,.89.89l.61.48.9-.7L7,9v1H5v1H3v3H5v1h7V14h2V11H12V10H10V9l0-.32.9.7.61-.48A5,5,0,0,0,12.44,8l.48-.61-.7-.89.35,0,.78-.19.1-.77a3.87,3.87,0,0,0,0-.54A4.61,4.61,0,0,0,13.44,4.37Z"/><path class="cls-3" d="M11,12V11H9V8.95H9l.15-1.24a2.78,2.78,0,0,0,.8-.33l1,.77a4,4,0,0,0,.71-.71l-.77-1a2.74,2.74,0,0,0,.33-.79l1.24-.15A3.9,3.9,0,0,0,12.5,5a3.9,3.9,0,0,0-.05-.5l-1.24-.15a2.74,2.74,0,0,0-.33-.79l.77-1a4,4,0,0,0-.71-.71l-1,.77a2.76,2.76,0,0,0-.8-.33L9,1.05A4,4,0,0,0,8.5,1a4,4,0,0,0-.5.05L7.84,2.29a2.76,2.76,0,0,0-.8.33l-1-.77a4,4,0,0,0-.71.71l.77,1a2.74,2.74,0,0,0-.33.79L4.55,4.5A3.9,3.9,0,0,0,4.5,5a3.9,3.9,0,0,0,.05.5l1.24.15a2.74,2.74,0,0,0,.33.79l-.77,1a4,4,0,0,0,.71.71l1-.77a2.78,2.78,0,0,0,.8.33L8,8.95H8V11H6v1H4v1H6v1h5V13h2V12ZM6.5,5a2,2,0,1,1,2,2A2,2,0,0,1,6.5,5Zm2,1a1,1,0,1,1,1-1A1,1,0,0,1,8.5,6Z"/><path class="cls-4" d="M8.5,3a2,2,0,1,0,2,2A2,2,0,0,0,8.5,3Zm0,3a1,1,0,1,1,1-1A1,1,0,0,1,8.5,6Z"/></svg>