<svg id="Icon" xmlns="http://www.w3.org/2000/svg" width="16" height="16" viewBox="0 0 16 16"><defs><style>.cls-1{opacity:0;}.cls-2{fill:#f6f6f6;}.cls-3{fill:#424242;}.cls-4{fill:#f0eff1;}</style></defs><title>route_16x</title><g class="cls-1"><rect class="cls-2" width="16" height="16"/></g><path id="outline" class="cls-2" d="M15.94,10.37l-.1-.77-1.12-.14.7-.9L14.94,8a5,5,0,0,0-.89-.89l-.61-.48-.9.7,0-.35-.19-.78L11.54,6A3.85,3.85,0,0,0,11,6a4.55,4.55,0,0,0-.63.06l-.77.1L9.46,7.28l-.9-.7-.61.48c-.12.09-.23.2-.35.31l-.1.09h0a5.05,5.05,0,0,0-.44.5L7,8V6H4.91l2.5-2.5L4.91,1H3V0H0V2.5A2.5,2.5,0,0,0,1.71,4.87L.59,6H0v9H7V14l.06.08a5.08,5.08,0,0,0,.44.49h0a5.09,5.09,0,0,0,.4.35l0,0,.61.48.9-.7,0,.35.19.78.77.1A3.86,3.86,0,0,0,11,16a4.63,4.63,0,0,0,.63-.06l.77-.1.14-1.12.9.7.61-.48a5.05,5.05,0,0,0,.89-.89l.48-.61-.7-.9.35,0,.78-.19.1-.77A3.88,3.88,0,0,0,16,11,4.66,4.66,0,0,0,15.94,10.37ZM6.16,9.6,6,10V9h.92l.36.46Z"/><g id="iconBG"><path class="cls-3" d="M14.95,11.5A3.86,3.86,0,0,0,15,11a3.93,3.93,0,0,0-.05-.5l-1.24-.15a2.8,2.8,0,0,0-.33-.79l.77-1a4,4,0,0,0-.71-.71l-1,.77a2.77,2.77,0,0,0-.79-.33L11.5,7.05A3.9,3.9,0,0,0,11,7a3.9,3.9,0,0,0-.5.05l-.15,1.24a2.77,2.77,0,0,0-.79.33l-1-.77a4,4,0,0,0-.71.71l.77,1a2.8,2.8,0,0,0-.33.79l-1.24.15A3.93,3.93,0,0,0,7,11a3.86,3.86,0,0,0,.05.5l1.24.15a2.8,2.8,0,0,0,.33.79l-.77,1a4,4,0,0,0,.71.71l1-.77a2.83,2.83,0,0,0,.79.33l.15,1.23A3.89,3.89,0,0,0,11,15a3.89,3.89,0,0,0,.5-.05l.15-1.23a2.83,2.83,0,0,0,.79-.33l1,.77a4,4,0,0,0,.71-.71l-.77-1a2.8,2.8,0,0,0,.33-.79ZM11,13a2,2,0,1,1,2-2A2,2,0,0,1,11,13Z"/><circle class="cls-3" cx="11" cy="11" r="1"/><rect class="cls-3" x="1" y="7" width="5" height="1"/><rect class="cls-3" x="1" y="10" width="4" height="1"/><rect class="cls-3" x="1" y="13" width="5" height="1"/><path class="cls-3" d="M4,4,3,5H4.5L6,3.5,4.5,2H3L4,3H2.5A.5.5,0,0,1,2,2.5V1H1V2.5A1.5,1.5,0,0,0,2.5,4Z"/></g><path id="iconFG" class="cls-4" d="M11,9a2,2,0,1,0,2,2A2,2,0,0,0,11,9Zm0,3a1,1,0,1,1,1-1A1,1,0,0,1,11,12Z"/></svg>