<svg id="Icon" xmlns="http://www.w3.org/2000/svg" width="16" height="16" viewBox="0 0 16 16"><defs><style>.cls-1,.cls-2{fill:#f6f6f6;}.cls-1{opacity:0;}.cls-3{fill:#424242;}.cls-4{fill:#f0eff1;}</style></defs><title>aggregate_valued_function_16x</title><rect id="canvas" class="cls-1" width="16" height="16"/><path id="outline" class="cls-2" d="M10,10h6V0H5V7a2.69,2.69,0,0,0-1.26.43A3.67,3.67,0,0,0,2.67,8.6H2.06L1.32,11h.54l-.37,1.33H1.43a1.45,1.45,0,0,0-.95.33,1.29,1.29,0,0,0-.49,1A1.3,1.3,0,0,0,.55,14.7a1.69,1.69,0,0,0,1,.3A2.6,2.6,0,0,0,3,14.62a3,3,0,0,0,1-1.06L4,13.42l.09.11a1.41,1.41,0,0,0,1,.35,1.88,1.88,0,0,0,.74-.15,2.37,2.37,0,0,0,.62-.43,1.64,1.64,0,0,0,.4.34,1.71,1.71,0,0,0,.9.24,1.79,1.79,0,0,0,1-.3,3.19,3.19,0,0,0,.92-.94l.64-.93-1.12-.58A1.29,1.29,0,0,0,10,10Zm-4.5,1.19a1.44,1.44,0,0,0-.35,0H5l.46-.08,0,.06Z"/><g id="iconBG"><path class="cls-3" d="M4.22,9.6a2.79,2.79,0,0,1,.59-1.21.62.62,0,0,1,.43-.24.1.1,0,0,1,.07,0,.07.07,0,0,1,0,.06.33.33,0,0,1-.06.12.32.32,0,0,0-.06.17.25.25,0,0,0,.09.2.35.35,0,0,0,.24.08.35.35,0,0,0,.36-.37.38.38,0,0,0-.16-.31A.82.82,0,0,0,5.26,8a1.74,1.74,0,0,0-1,.29,2.83,2.83,0,0,0-.83,1,.8.8,0,0,1-.26.29.87.87,0,0,1-.39.06L2.68,10h.5l-.74,2.62c-.12.43-.21.7-.25.8a1,1,0,0,1-.29.37.28.28,0,0,1-.18.06l-.05,0,0,0s0,0,.05-.07a.21.21,0,0,0,.05-.16.24.24,0,0,0-.09-.19.36.36,0,0,0-.25-.08.47.47,0,0,0-.31.1.29.29,0,0,0-.12.23.3.3,0,0,0,.14.25.76.76,0,0,0,.45.11,1.61,1.61,0,0,0,.86-.23,2,2,0,0,0,.66-.71,7,7,0,0,0,.58-1.56L4.11,10h.51l.13-.38Z"/><path class="cls-3" d="M8.59,9.52a.76.76,0,0,0-.33.08,1.6,1.6,0,0,0-.4.33,7.68,7.68,0,0,0-.53.67,3.08,3.08,0,0,0-.48-1.08H5.31v.56c.09,0,.42-.26.49-.26a.38.38,0,0,1,.31.15,5.12,5.12,0,0,1,.54,1.4c-.18.22-.52.59-.59.66a1.07,1.07,0,0,1-.27.21.41.41,0,0,1-.19,0,.73.73,0,0,1-.26-.08.59.59,0,0,0-.22-.05.43.43,0,0,0-.3.11.35.35,0,0,0-.12.27.33.33,0,0,0,.11.26.43.43,0,0,0,.3.1.86.86,0,0,0,.34-.07,1.59,1.59,0,0,0,.4-.29c.16-.15.6-.61.88-.94a7.77,7.77,0,0,0,.39.9.82.82,0,0,0,.27.3.72.72,0,0,0,.38.09.83.83,0,0,0,.45-.15,2.26,2.26,0,0,0,.62-.66L8.71,12a1.86,1.86,0,0,1-.32.34A.27.27,0,0,1,8,12.27a6,6,0,0,1-.6-1.43,2.13,2.13,0,0,1,.46-.57.49.49,0,0,1,.29-.1l.21,0a1.1,1.1,0,0,0,.27,0,.37.37,0,0,0,.27-.1A.34.34,0,0,0,9,9.88a.34.34,0,0,0-.11-.27A.43.43,0,0,0,8.59,9.52Z"/><path class="cls-3" d="M9.56,3a1.37,1.37,0,0,0-1.16.53A2.49,2.49,0,0,0,8,5.05C8,6.34,8.49,7,9.48,7a1.33,1.33,0,0,0,1.13-.52A2.45,2.45,0,0,0,11,5Q11,3,9.56,3ZM9.51,6.34q-.58,0-.58-1.3t.59-1.38q.55,0,.55,1.34C10.07,5.89,9.88,6.34,9.51,6.34Z"/><path class="cls-3" d="M12,3.37c-.09,0-.19.08-.29.12v.77l.12,0,.2-.1L12.15,4V7H13V3h-.51A3.39,3.39,0,0,1,12,3.37Z"/><path class="cls-3" d="M6,1V7.14a1.48,1.48,0,0,1,.38.19,1.37,1.37,0,0,1,.54,1.1s0,.06,0,.09h.45l.22.32.22-.13a1.78,1.78,0,0,1,.79-.19,1.41,1.41,0,0,1,1,.37A1.23,1.23,0,0,1,9.66,9H15V1Zm8,7H7V2h7Z"/></g><g id="iconFG"><path class="cls-4" d="M9.52,3.65q-.59,0-.59,1.38t.58,1.3c.38,0,.57-.45.57-1.34S9.89,3.65,9.52,3.65Z"/><path class="cls-4" d="M7,2V8h7V2Zm3.61,4.46A1.33,1.33,0,0,1,9.48,7C8.49,7,8,6.34,8,5.05a2.49,2.49,0,0,1,.4-1.53A1.37,1.37,0,0,1,9.56,3Q11,3,11,5A2.45,2.45,0,0,1,10.61,6.46ZM13,7h-.85V4L12,4.12l-.2.1-.12,0V3.48c.1,0,.2-.07.29-.12A3.39,3.39,0,0,0,12.49,3H13Z"/></g></svg>