<svg id="Icon" xmlns="http://www.w3.org/2000/svg" width="16" height="16" viewBox="0 0 16 16"><defs><style>.cls-1,.cls-2{fill:#f6f6f6;}.cls-1{opacity:0;}.cls-3{fill:#424242;}.cls-4{fill:#00539c;}</style></defs><title>parameter_return_16x</title><rect id="canvas" class="cls-1" width="16" height="16"/><path id="outline" class="cls-2" d="M11,5v.83A5.2,5.2,0,0,0,8.11,5a5.13,5.13,0,0,0-2.77.76L3.18,3.89A.5.5,0,0,1,3,3.5a.49.49,0,0,1,0-.08L4.59,5H8V1.51L6.4,0H5V.34A3,3,0,0,0,3.5,0,3.49,3.49,0,0,0,.34,5H0V15H5v-.86A5.12,5.12,0,0,0,8,15a6.51,6.51,0,0,0,2.52-.44l.51-.22V15h5V5ZM1.17,6.11h0ZM3,12V10.32A5.21,5.21,0,0,0,3.31,12Zm0-2V7.69L3.4,8A5.3,5.3,0,0,0,3,10Zm10,2h-.75A3.84,3.84,0,0,0,13,9.77Zm0-2.61A4.56,4.56,0,0,0,12.74,8H13Z"/><g id="iconBG"><polygon class="cls-3" points="12 6 12 7 14 7 14 13 12 13 12 14 15 14 15 6 12 6"/><path class="cls-3" d="M2,13V6.83l-.78-.67A1.53,1.53,0,0,1,1.07,6H1v8H4V13Z"/><path class="cls-3" d="M8.82,11.15h0a1.36,1.36,0,0,1-1.37,1,1.3,1.3,0,0,1-1.05-.49A2,2,0,0,1,6,10.39a2.92,2.92,0,0,1,.55-1.82A1.73,1.73,0,0,1,8,7.85,1,1,0,0,1,8.57,8a.84.84,0,0,1,.35.45h0c0-.09,0-.28.07-.56h.81q-.23,2.56-.23,2.61,0,1,.5,1a.87.87,0,0,0,.76-.54,2.81,2.81,0,0,0,.3-1.39,2.76,2.76,0,0,0-.82-2.06,3.1,3.1,0,0,0-2.26-.8,3,3,0,0,0-2.3,1,3.39,3.39,0,0,0-.91,2.42,3.13,3.13,0,0,0,.88,2.31,3.19,3.19,0,0,0,2.36.88,4.57,4.57,0,0,0,2-.4v.75A5.51,5.51,0,0,1,8,14a4,4,0,0,1-2.89-1.07A3.72,3.72,0,0,1,4,10.13,4,4,0,0,1,8.11,6a4.08,4.08,0,0,1,2.8,1A3.26,3.26,0,0,1,12,9.55a2.9,2.9,0,0,1-.6,1.9,1.82,1.82,0,0,1-1.47.74C9.2,12.19,8.82,11.85,8.82,11.15ZM8,8.54a1,1,0,0,0-.86.52,2.41,2.41,0,0,0-.33,1.31,1.38,1.38,0,0,0,.22.83.7.7,0,0,0,.59.3A1,1,0,0,0,8.51,11a3,3,0,0,0,.31-1.46C8.82,8.86,8.56,8.54,8,8.54Z"/></g><path id="colorAction" class="cls-4" d="M6,1V2.36l-.89-.77A2.34,2.34,0,0,0,3.5,1,2.5,2.5,0,0,0,1.87,5.4l2,1.68.63-.74L2.53,4.64A1.5,1.5,0,0,1,3.5,2a1.76,1.76,0,0,1,1,.36L5.24,3H4L5,4H7V1.95Z"/></svg>