<svg id="Icon" xmlns="http://www.w3.org/2000/svg" width="16" height="16" viewBox="0 0 16 16"><defs><style>.cls-1,.cls-2{fill:#f6f6f6;}.cls-1{opacity:0;}.cls-3{fill:#424242;}.cls-4{fill:#f0eff1;}</style></defs><title>search_property_list_16x</title><rect id="canvas" class="cls-1" width="16" height="16"/><path id="outline" class="cls-2" d="M7.94,1A3.48,3.48,0,0,0,3.06,1H1V5.59l-1,1v.83l1,1V15H16V1Z"/><g id="iconBG"><rect class="cls-3" x="5" y="7" width="7" height="1"/><rect class="cls-3" x="5" y="9" width="7" height="1"/><path class="cls-3" d="M14,5v8H3V8.41l-1,1V14H15V2H8.65A3.46,3.46,0,0,1,9,3.5,3.46,3.46,0,0,1,8.65,5Z"/><path class="cls-3" d="M8,3.5A2.5,2.5,0,0,1,5.5,6a2.47,2.47,0,0,1-1.19-.31L2,8,1,7,3.31,4.69A2.47,2.47,0,0,1,3,3.5a2.5,2.5,0,0,1,5,0Zm-4,0A1.5,1.5,0,1,0,5.5,2,1.5,1.5,0,0,0,4,3.5Z"/></g><g id="iconFG"><circle class="cls-4" cx="5.5" cy="3.5" r="1.5"/><path class="cls-4" d="M8.65,5A3.5,3.5,0,0,1,5.5,7H12V8H5V7h.5a3.36,3.36,0,0,1-.95-.14L3,8.41V13H14V5ZM12,10H5V9h7Z"/></g></svg>