<?xml version="1.0" encoding="utf-8"?>
<!-- Generator: Adobe Illustrator 18.0.0, SVG Export Plug-In . SVG Version: 6.00 Build 0)  -->
<!DOCTYPE svg PUBLIC "-//W3C//DTD SVG 1.1//EN" "http://www.w3.org/Graphics/SVG/1.1/DTD/svg11.dtd">
<svg version="1.1" xmlns="http://www.w3.org/2000/svg" xmlns:xlink="http://www.w3.org/1999/xlink" x="0px" y="0px" width="16px"
	 height="16px" viewBox="0 0 16 16" style="enable-background:new 0 0 16 16;" xml:space="preserve">
<style type="text/css">
	.icon-canvas-transparent{opacity:0;fill:#F6F6F6;}
	.icon-vs-out{fill:#F6F6F6;}
	.icon-vs-bg{fill:#424242;}
	.icon-vs-fg{fill:#F0EFF1;}
</style>
<g id="canvas">
	<path class="icon-canvas-transparent" d="M16,16H0V0h16V16z"/>
</g>
<g id="outline">
	<path class="icon-vs-out" d="M16,2v14H1V7.88l-1-0.8V0h8v2H16z"/>
</g>
<g id="iconBg">
	<path class="icon-vs-bg" d="M7,1H1v5.6L4,9l3-2.4V1z M6,5.8L4,7.401L2,5.8V3h4V5.8z M8,3v3h2v2H7V7.88L5.6,9H6v2H3
		V9.48l-1-0.8V15h13V3H8z M6,14H3v-2h3V14z M10,14H7v-2h3V14z M10,11H7V9h3V11z M14,14h-3v-2h3V14z M14,11h-3V9h3V11z M14,8h-3V6h3
		V8z"/>
</g>
<g id="iconFg">
	<path class="icon-vs-fg" d="M6,5.8L4,7.401L2,5.8V3h4V5.8z M4,10.28l-1-0.8V11h3V9H5.6L4,10.28z M7,14h3v-2H7V14z
		 M3,14h3v-2H3V14z M7,11h3V9H7V11z M11,6v2h3V6H11z M8,7.081l-1,0.8V8h3V6H8V7.081z M11,11h3V9h-3V11z M11,14h3v-2h-3V14z"/>
</g>
</svg>
