<svg xmlns="http://www.w3.org/2000/svg" width="16" height="16" viewBox="0 0 16 16"><defs><style>.cls-1{fill:#fff;opacity:0;}.cls-2{fill:#f6f6f6;}.cls-3{fill:#424242;}.cls-4{fill:#f0eff1;}</style></defs><title>endpoint_16x</title><g id="outline"><rect class="cls-1" width="16" height="16"/><path class="cls-2" d="M13,9V3A2.58,2.58,0,0,0,11.5.82,7.17,7.17,0,0,0,8,0,7.17,7.17,0,0,0,4.5.82,2.58,2.58,0,0,0,3,3V9a2.8,2.8,0,0,0,2,2.43V12H3v3H5v1h6V15h2V12H11v-.57A2.8,2.8,0,0,0,13,9Z"/></g><g id="icon_bg"><path class="cls-3" d="M11,1.69A6.21,6.21,0,0,0,8,1a6.21,6.21,0,0,0-3,.69A1.65,1.65,0,0,0,4,3V9c0,.93,1.28,1.71,3,1.93V12H6v1H4v1H6v1h4V14h2V13H10V12H9V10.93c1.72-.22,3-1,3-1.93V3A1.65,1.65,0,0,0,11,1.69ZM8,4.33c-2,0-3.33-.8-3.33-1.33S6,1.67,8,1.67s3.33.8,3.33,1.33S10,4.33,8,4.33Z"/></g><g id="icon_fg"><path class="cls-4" d="M8,1.67c-2,0-3.33.8-3.33,1.33S6,4.33,8,4.33s3.33-.8,3.33-1.33S10,1.67,8,1.67Z"/></g></svg>