<svg xmlns="http://www.w3.org/2000/svg" width="16" height="16" viewBox="0 0 16 16"><defs><style>.a,.b{fill:#f6f6f6;}.a{opacity:0;}.c{fill:#424242;}.d{fill:#f0eff1;}</style></defs><title>broker_service_16x</title><rect class="a" width="16" height="16"/><path class="b" d="M16,5.74l-1-.56,1-.6V4l-.1-.35a4.07,4.07,0,0,0-.18-.56,4.29,4.29,0,0,0-.27-.5L15,1.84l-1.29.38L14,.91,13.36.53A5.42,5.42,0,0,0,12.1,0L12,0h-.72L10.7,1l-.6-1H9.52L9.16.1a4.08,4.08,0,0,0-.54.18,4.07,4.07,0,0,0-.51.27L7.35,1,7.73,2.3,6.42,2,6,2.64a5.42,5.42,0,0,0-.5,1.26l-.19.75,1.18.65L5.37,6V6A3.15,3.15,0,0,0,5,6a4.55,4.55,0,0,0-.63.06l-.77.1L3.46,7.28l-.9-.7-.61.48A5,5,0,0,0,1.06,8l-.48.61.7.9-.35,0L.15,9.7l-.1.77A3.85,3.85,0,0,0,0,11a4.55,4.55,0,0,0,.06.63l.1.77,1.12.14-.7.9.48.61a5,5,0,0,0,.89.89l.61.48.9-.7,0,.35.19.78.77.1A3.87,3.87,0,0,0,5,16a4.62,4.62,0,0,0,.63-.06l.77-.1.14-1.12.9.7.61-.48A5,5,0,0,0,8.94,14l.48-.61-.7-.9.35,0,.78-.19.1-.77A3.85,3.85,0,0,0,10,11a3.58,3.58,0,0,0,0-.4l.2.05.65-1.18.68,1.16.85-.24a4.05,4.05,0,0,0,.55-.18,4.88,4.88,0,0,0,.6-.33l.66-.4-.37-1.28,1.31.34.38-.68A5.46,5.46,0,0,0,16,6.58l0-.12Z"/><path class="c" d="M13.8,5.67a3.06,3.06,0,0,0,0-.95L15,4a4.25,4.25,0,0,0-.17-.53A4.56,4.56,0,0,0,14.53,3l-1.32.38a3,3,0,0,0-.68-.66l.35-1.33a4.42,4.42,0,0,0-1-.41l-.66,1.2a3.08,3.08,0,0,0-.95,0L9.55,1A4.36,4.36,0,0,0,9,1.2a4.32,4.32,0,0,0-.49.27l.38,1.31a3,3,0,0,0-.66.68L6.92,3.12a4.44,4.44,0,0,0-.41,1l1.2.66a3,3,0,0,0,0,.95l-1.18.69A4.29,4.29,0,0,0,6.72,7,4.24,4.24,0,0,0,7,7.47L8.3,7.09A3,3,0,0,0,9,7.75L8.64,9.08a4.45,4.45,0,0,0,1,.41l.66-1.2a3.08,3.08,0,0,0,.95,0L12,9.45a4.28,4.28,0,0,0,.53-.17A4.11,4.11,0,0,0,13,9L12.6,7.7A3,3,0,0,0,13.26,7l1.33.35a4.39,4.39,0,0,0,.41-1ZM11.63,7.26a2.2,2.2,0,1,1,1.15-2.89A2.2,2.2,0,0,1,11.63,7.26Z"/><path class="c" d="M7.71,10.34a2.74,2.74,0,0,0-.33-.79l.77-1a4,4,0,0,0-.71-.71l-1,.77a2.78,2.78,0,0,0-.8-.33L5.5,7.05A3.9,3.9,0,0,0,5,7a3.9,3.9,0,0,0-.5.05L4.34,8.29a2.78,2.78,0,0,0-.8.33l-1-.77a4,4,0,0,0-.71.71l.77,1a2.74,2.74,0,0,0-.33.79l-1.24.15A3.9,3.9,0,0,0,1,11a3.9,3.9,0,0,0,.05.5l1.24.15a2.74,2.74,0,0,0,.33.79l-.77,1a4,4,0,0,0,.71.71l1-.77a2.78,2.78,0,0,0,.8.33l.15,1.24A3.89,3.89,0,0,0,5,15a3.89,3.89,0,0,0,.5-.05l.15-1.24a2.78,2.78,0,0,0,.8-.33l1,.77a4,4,0,0,0,.71-.71l-.77-1a2.74,2.74,0,0,0,.33-.79l1.24-.15A3.9,3.9,0,0,0,9,11a3.9,3.9,0,0,0-.05-.5ZM5,13a2,2,0,1,1,2-2A2,2,0,0,1,5,13Z"/><circle class="c" cx="5" cy="11" r="1"/><circle class="c" cx="10.76" cy="5.24" r="1.1" transform="translate(-1.2 4.68) rotate(-23.3)"/><path class="d" d="M5,9a2,2,0,1,0,2,2A2,2,0,0,0,5,9Zm0,3a1,1,0,1,1,1-1A1.05,1.05,0,0,1,5,12Z"/><path class="d" d="M12.78,4.37a2.2,2.2,0,1,0-1.15,2.89A2.2,2.2,0,0,0,12.78,4.37ZM11.21,6.3a1.15,1.15,0,1,1,.6-1.52A1.15,1.15,0,0,1,11.21,6.3Z"/></svg>