<svg id="Icon" xmlns="http://www.w3.org/2000/svg" width="16" height="16" viewBox="0 0 16 16"><defs><style>.cls-1,.cls-2{fill:#f6f6f6;}.cls-1{opacity:0;}.cls-3{fill:#424242;}.cls-4{fill:#f0eff1;}</style></defs><title>Trigger_16x</title><rect id="canvas" class="cls-1" width="16" height="16"/><rect id="outline" class="cls-2" y="1" width="16" height="14"/><g id="iconBG"><polygon class="cls-3" points="1 2 1 14 4.38 14 4.88 13 2 13 2 5 14 5 14 13 7.41 13 6.41 14 15 14 15 2 1 2"/><polygon class="cls-3" points="10 9 7 9 10 6 7 6 5 10 7.5 10 6 13 10 9"/></g><g id="iconFG"><polygon class="cls-4" points="6.38 5 2 5 2 13 4.88 13 5.88 11 4 11 4 9.76 6.38 5"/><polygon class="cls-4" points="11 5 11 6.41 9.41 8 11 8 11 9.41 7.41 13 14 13 14 5 11 5"/></g></svg>