<svg xmlns="http://www.w3.org/2000/svg" width="16" height="16"><style type="text/css">.icon-canvas-transparent{opacity:0;fill:#F6F6F6;} .icon-vs-out{fill:#F6F6F6;} .icon-vs-bg{fill:#424242;} .icon-vs-fg{fill:#F0EFF1;}</style><path class="icon-canvas-transparent" d="M16 16h-16v-16h16v16z" id="canvas"/><path class="icon-vs-out" d="M11.108 0c2.774.481 4.892 2.898 4.892 5.808 0 3.255-2.648 5.901-5.9 5.901-.646 0-1.283-.111-1.906-.331l-4.625 4.622h-.887l-2.682-2.641v-1.156l4.508-4.488c-.22-.623-.31-1.261-.31-1.907 0-2.91 2.118-5.327 4.892-5.808h2.018" id="outline"/><path class="icon-vs-bg" d="M1.323 13.07l1.607 1.609 4.822-4.82c.649.326.968.797 2.419.797 2.669 0 4.829-2.162 4.829-4.828 0-2.667-2.16-4.828-4.828-4.828-2.666 0-4.804 2.161-4.804 4.828 0 1.609.447 1.771.776 2.422l-4.821 4.82zm5.117-7.242c0-2.092 1.63-3.755 3.723-3.755 2.092 0 3.787 1.663 3.787 3.755 0 2.092-1.695 3.754-3.787 3.754-2.093 0-3.723-1.662-3.723-3.754" id="iconBg"/><path class="icon-vs-fg" d="M6.44 5.828c0-2.092 1.63-3.755 3.723-3.755 2.092 0 3.787 1.663 3.787 3.755 0 2.092-1.695 3.754-3.787 3.754-2.093 0-3.723-1.662-3.723-3.754" id="iconFg"/></svg>