<svg xmlns="http://www.w3.org/2000/svg" width="16" height="16"><style type="text/css">.icon-canvas-transparent{opacity:0;fill:#F6F6F6;} .icon-vs-out{fill:#F6F6F6;} .icon-vs-bg{fill:#424242;}</style><path class="icon-canvas-transparent" d="M16 16h-16v-16h16v16z" id="canvas"/><path class="icon-vs-out" d="M14 7v9h-12v-9h3.5c-.839-.733-1.5-1.798-1.5-3 0-2.209 1.791-4 4-4s4 1.791 4 4c0 1.202-.661 2.267-1.5 3h3.5z" id="outline"/><path class="icon-vs-bg" d="M5 4c0-1.656 1.343-3 3-3 1.654 0 3 1.344 3 3 0 1.657-1.346 3-3 3-1.657 0-3-1.343-3-3zm5 4l-2 3-2-3h-3v7h10v-7h-3z" id="iconBg"/></svg>