<svg id="Icon" xmlns="http://www.w3.org/2000/svg" width="16" height="16" viewBox="0 0 16 16"><defs><style>.cls-1,.cls-2{fill:#f6f6f6;}.cls-1{opacity:0;}.cls-3{fill:#424242;}.cls-4{fill:#f0eff1;}</style></defs><title>stored_procedure_16x</title><rect id="canvas" class="cls-1" width="16" height="16"/><rect id="outline" class="cls-2" x="1" width="15" height="15"/><path id="iconBG" class="cls-3" d="M2,1V14H15V1ZM14,13H3V4H14ZM8,6H4V5H8Zm3,2H9V7h2ZM6,12H4V11H6Zm6-2H9V9h3Zm1,2H7V11h6ZM8,8H4V7H8Zm0,2H4V9H8Z"/><path id="iconFG" class="cls-4" d="M3,4v9H14V4ZM9,7h2V8H9ZM9,9h3v1H9ZM4,5H8V6H4ZM4,7,8,7V8H4ZM4,9H8v1H4Zm2,3H4V11H6Zm7,0H7V11h6Z"/></svg>