<svg id="Icon" xmlns="http://www.w3.org/2000/svg" width="16" height="16" viewBox="0 0 16 16"><defs><style>.cls-1{fill:#efeef0;opacity:0;}.cls-2{fill:#f6f6f6;}.cls-3{fill:#424242;}.cls-4{fill:#f0eff1;}</style></defs><title>udt_16x</title><rect id="canvas" class="cls-1" width="16" height="16"/><path id="outline" class="cls-2" d="M12.06,1H6A2,2,0,0,0,4,3H0v8H4v2a2,2,0,0,0,2,2h8a2,2,0,0,0,2-2V4.56Z"/><g id="iconBG"><path class="cls-3" d="M11.64,2H6A1,1,0,0,0,5,3h6V6h3v7H6V11H5v2a1,1,0,0,0,1,1h8a1,1,0,0,0,1-1V5Z"/><path class="cls-3" d="M3.52,5.65q-.59,0-.59,1.38t.58,1.3c.38,0,.57-.45.57-1.34S3.89,5.65,3.52,5.65Z"/><path class="cls-3" d="M1,4v6H8V4ZM4.61,8.46A1.33,1.33,0,0,1,3.48,9C2.49,9,2,8.34,2,7.05a2.49,2.49,0,0,1,.4-1.53A1.37,1.37,0,0,1,3.56,5Q5,5,5,7A2.45,2.45,0,0,1,4.61,8.46ZM7,9H6.15V6L6,6.12l-.2.1-.12,0V5.48c.1,0,.2-.07.29-.12A3.39,3.39,0,0,0,6.49,5H7Z"/></g><g id="iconFG"><polygon class="cls-4" points="11 6 11 3 9 3 9 11 6 11 6 13 14 13 14 6 11 6"/><path class="cls-4" d="M3.56,5a1.37,1.37,0,0,0-1.16.53A2.49,2.49,0,0,0,2,7.05C2,8.34,2.49,9,3.48,9a1.33,1.33,0,0,0,1.13-.52A2.45,2.45,0,0,0,5,7Q5,5,3.56,5ZM3.51,8.34q-.58,0-.58-1.3t.59-1.38q.55,0,.55,1.34C4.07,7.89,3.88,8.34,3.51,8.34Z"/><path class="cls-4" d="M6,5.37c-.09,0-.19.08-.29.12v.77l.12,0,.2-.1L6.15,6V9H7V5H6.49A3.39,3.39,0,0,1,6,5.37Z"/></g></svg>