<?xml version="1.0" encoding="utf-8"?>
<!-- Generator: Adobe Illustrator 25.0.0, SVG Export Plug-In . SVG Version: 6.00 Build 0)  -->
<svg version="1.1" id="Layer1" xmlns="http://www.w3.org/2000/svg" xmlns:xlink="http://www.w3.org/1999/xlink" x="0px" y="0px"
	 viewBox="0 0 16 16" style="enable-background:new 0 0 16 16;" xml:space="preserve">
<style type="text/css">
	.st0{fill:#F6F6F6;}
	.st1{fill:#424242;}
	.st2{fill:#F0EFF1;}
</style>
<path id="outline" class="st0" d="M16,9l0-0.7l-0.5-0.2L15,7.8V0H0v14h8.4c0.6,0.9,1.5,1.6,2.8,1.9l0.2,0.1l0.2-0.1
	c1.3-0.3,2.2-1.1,2.8-1.9H15v-0.7C16,11.4,16,9.1,16,9z"/>
<path id="IconBg" class="st1" d="M6,12v-2h1C7,9.5,7,9.1,7,9H6V7h3v0.3L11.2,6H10V4h3v2h-1.2L14,7.3V1H1v12h6.8
	c-0.2-0.3-0.3-0.7-0.4-1H6z M6,4h3v2H6V4z M5,12H2v-2h3V12z M5,9H2V7h3V9z M5,6H2V4h3V6z M15,9L15,9l-4,4l-1.9-1.9l0.7-0.7l1.1,1.1
	l3.1-3.1L11.5,7L8,9c0,0-0.1,5.1,3.5,6C15.1,14.1,15,9,15,9z"/>
<path id="iconFg" class="st2" d="M6,6h3V4H6V6z M6,9h1c0,0,0,0,0,0l0-0.6l2-1.1V7H6V9z M10,4v2h1.2l0.3-0.2L11.8,6H13V4H10z M2,9h3
	V7H2V9z M2,12h3v-2H2V12z M6,10v2h1.5c-0.2-0.7-0.3-1.5-0.4-2H6z M2,6h3V4H2V6z"/>
</svg>
