<?xml version="1.0" encoding="UTF-8"?>
<svg xmlns="http://www.w3.org/2000/svg" xmlns:xlink="http://www.w3.org/1999/xlink" width="16px" height="16px" viewBox="0 0 16 16" version="1.1">
<g id="surface1">
<path style=" stroke:none;fill-rule:nonzero;fill:rgb(0%,0%,0%);fill-opacity:1;" d="M 2 5.023438 C 2 8.699219 2.023438 9.023438 2.449219 8.949219 C 2.75 8.898438 2.898438 8.601562 2.949219 7.925781 L 3.023438 7 L 6 7 L 6 8 C 6 8.699219 5.898438 9 5.648438 9 C 5.425781 9 5.601562 9.324219 6.074219 9.800781 C 6.550781 10.300781 6.898438 10.5 6.949219 10.300781 C 7 10.148438 7.351562 10 7.726562 10 C 8.101562 10 8.625 9.773438 8.875 9.5 C 9.324219 9 9.300781 9 8.175781 9 L 7 9 L 7 7 L 10 7 L 10 7.875 C 10 8.574219 10.101562 8.75 10.5 8.75 C 10.898438 8.75 11 8.574219 11 7.875 L 11 7 L 14 7 L 14 8 C 14 8.898438 13.949219 9 13.351562 9 L 12.699219 9 L 13.425781 9.699219 C 14.101562 10.300781 14.5 11.148438 14.824219 12.625 C 14.898438 12.898438 14.949219 10.398438 14.976562 7.050781 L 15 1 L 2 1 Z M 6 5 L 6 6 L 3 6 L 3 4 L 6 4 Z M 10 5 L 10 6 L 7 6 L 7 4 L 10 4 Z M 14 5 L 14 6 L 11 6 L 11 4 L 14 4 Z M 14 5 "/>
<path style=" stroke:none;fill-rule:nonzero;fill:rgb(0%,0%,0%);fill-opacity:1;" d="M 2.023438 10.648438 C 1.398438 11.175781 1.25 11.476562 1.25 12.300781 C 1.25 12.824219 1.375 13.5 1.5 13.773438 C 1.898438 14.5 3.199219 15.074219 4.074219 14.898438 C 4.925781 14.726562 6 13.851562 6 13.324219 C 6 13.101562 6.375 13 7.199219 13 C 8.25 13 8.449219 13.101562 9.074219 13.875 C 10.625 15.824219 13.476562 14.898438 13.5 12.425781 C 13.5 9.898438 10.023438 9.023438 8.875 11.25 C 8.523438 11.898438 8.351562 12 7.375 12 C 6.398438 12 6.226562 11.898438 5.875 11.25 C 5.148438 9.824219 3.324219 9.550781 2.023438 10.648438 Z M 4.601562 11.273438 C 5.375 11.898438 5.449219 12.800781 4.75 13.5 C 4.050781 14.199219 3.148438 14.125 2.523438 13.351562 C 1.851562 12.5 1.875 12.101562 2.625 11.375 C 3.351562 10.625 3.75 10.601562 4.601562 11.273438 Z M 12.226562 11.375 C 12.699219 11.824219 12.648438 12.925781 12.125 13.5 C 11.550781 14.148438 10.625 14.125 10 13.5 C 8.550781 12.050781 10.726562 9.976562 12.226562 11.375 Z M 12.226562 11.375 "/>
</g>
</svg>
