<svg xmlns="http://www.w3.org/2000/svg" width="16" height="16" viewBox="0 0 16 16"><defs><style>.cls-1{fill:#f6f6f6;}.cls-2{fill:none;}.cls-3{fill:#424242;}.cls-4{fill:#f0eff1;}</style></defs><title>table_valued_function</title><g id="outline"><path class="cls-1" d="M16,0H1V13.17a1.52,1.52,0,0,0-.51.29,1.4,1.4,0,0,0,.07,2.18A1.86,1.86,0,0,0,1.74,16a2.91,2.91,0,0,0,1.63-.47,3.6,3.6,0,0,0,1.15-1.31c0-.06.07-.15.1-.22H5s0,.07.07.1a1.49,1.49,0,0,0,1.07.41A2,2,0,0,0,7,14.32,2.33,2.33,0,0,0,7.46,14h.72a1.73,1.73,0,0,0,.26.22,1.83,1.83,0,0,0,1,.29,2,2,0,0,0,1.12-.36l.18-.14H16Z"/></g><g id="icon_bg"><rect class="cls-2" x="11" y="4" width="3" height="2"/><rect class="cls-2" x="3" y="4" width="3" height="2"/><rect class="cls-2" x="7" y="4" width="3" height="2"/><path class="cls-3" d="M2,1V9.83l.5-1.71H3V7H4a3.46,3.46,0,0,1,.5-.44A3.07,3.07,0,0,1,6.33,6a1.92,1.92,0,0,1,1.27.39A1.49,1.49,0,0,1,8,7h2V8.1A1.89,1.89,0,0,1,10.49,8a1.61,1.61,0,0,1,.51.08V7h3V9H11.91a1.41,1.41,0,0,1,0,1H14v2H12v.42l-.35.55,0,0H15V1ZM6,6H3V4H6Zm4,0H7V4h3Zm4,0H11V4h3Z"/><path class="cls-3" d="M5,9.13a3.82,3.82,0,0,1,.74-1.62.76.76,0,0,1,.54-.32.13.13,0,0,1,.09,0,.1.1,0,0,1,0,.08.43.43,0,0,1-.08.17.46.46,0,0,0-.07.23A.35.35,0,0,0,6.4,8a.42.42,0,0,0,.3.11A.43.43,0,0,0,7,7.94a.49.49,0,0,0,.13-.36A.51.51,0,0,0,7,7.16,1,1,0,0,0,6.33,7a2.08,2.08,0,0,0-1.22.38,3.73,3.73,0,0,0-1,1.27,1,1,0,0,1-.32.39,1,1,0,0,1-.49.08l-.15.51h.63l-.92,3.5q-.23.86-.31,1.06a1.26,1.26,0,0,1-.36.5.33.33,0,0,1-.23.08l-.06,0,0,0s0,0,.07-.09A.28.28,0,0,0,2,14.44a.33.33,0,0,0-.11-.25.43.43,0,0,0-.31-.1.57.57,0,0,0-.39.13.4.4,0,0,0-.15.31.42.42,0,0,0,.18.33.9.9,0,0,0,.56.14,1.91,1.91,0,0,0,1.08-.31,2.6,2.6,0,0,0,.82-1,9.81,9.81,0,0,0,.72-2.08l.53-2h.63l.16-.51Z"/><path class="cls-3" d="M10.49,9a.89.89,0,0,0-.42.1,2,2,0,0,0-.5.44,10.81,10.81,0,0,0-.67.89A4.28,4.28,0,0,0,8.3,9H6.39v.75c.12,0,.53-.35.61-.35a.47.47,0,0,1,.39.2,7.14,7.14,0,0,1,.68,1.86c-.23.29-.65.79-.74.88a1.32,1.32,0,0,1-.34.28.49.49,0,0,1-.23.05.88.88,0,0,1-.32-.11.7.7,0,0,0-.27-.07.52.52,0,0,0-.38.15.48.48,0,0,0-.15.37.45.45,0,0,0,.14.34.52.52,0,0,0,.37.13,1,1,0,0,0,.42-.09,2,2,0,0,0,.5-.39c.2-.2.75-.82,1.1-1.25A10.7,10.7,0,0,0,8.64,13a1.07,1.07,0,0,0,.34.41.87.87,0,0,0,.48.12,1,1,0,0,0,.57-.2,3,3,0,0,0,.78-.87l-.16-.09a2.46,2.46,0,0,1-.4.46.36.36,0,0,1-.2.06.37.37,0,0,1-.27-.17A8.33,8.33,0,0,1,9,10.79,2.79,2.79,0,0,1,9.59,10a.59.59,0,0,1,.36-.13l.26,0a1.32,1.32,0,0,0,.33.05.45.45,0,0,0,.33-.13A.47.47,0,0,0,11,9.51a.47.47,0,0,0-.13-.35A.52.52,0,0,0,10.49,9Z"/><path class="cls-3" d="M6.15,11.52a1.55,1.55,0,0,1,.51.09l.3-.35c-.07-.23-.13-.42-.18-.56l-.2.06L6,10.87v.67Z"/><path class="cls-3" d="M10.11,10.94l.11.31.16-.21.63.36v-.49a1.47,1.47,0,0,1-.46.08A2.14,2.14,0,0,1,10.11,10.94Z"/><path class="cls-3" d="M2,10.65v1.62l.43-1.62Z"/></g><g id="icon_fg"><rect class="cls-4" x="11" y="4" width="3" height="2"/><rect class="cls-4" x="7" y="4" width="3" height="2"/><path class="cls-4" d="M8.15,7.58A1.6,1.6,0,0,1,8.09,8h.75l.34.52a2.18,2.18,0,0,1,.42-.3A2,2,0,0,1,10,8.1V7H8A1.55,1.55,0,0,1,8.15,7.58Z"/><path class="cls-4" d="M5.38,11.72A1.52,1.52,0,0,1,6,11.54v-.67L5.58,11Z"/><rect class="cls-4" x="3" y="4" width="3" height="2"/><path class="cls-4" d="M11,8.11a1.45,1.45,0,0,1,.58.34,1.43,1.43,0,0,1,.33.55H14V7H11Z"/><path class="cls-4" d="M11.58,10.56a1.44,1.44,0,0,1-.58.35v.49L12,12v0h2V10H11.91A1.41,1.41,0,0,1,11.58,10.56Z"/><path class="cls-4" d="M3,8.13h.21A5.42,5.42,0,0,1,4,7H3Z"/></g></svg>