<?xml version="1.0" encoding="utf-8"?>
<!-- Generator: Adobe Illustrator 25.0.0, SVG Export Plug-In . SVG Version: 6.00 Build 0)  -->
<svg version="1.1" id="Layer_1" xmlns="http://www.w3.org/2000/svg" xmlns:xlink="http://www.w3.org/1999/xlink" x="0px" y="0px"
	 viewBox="0 0 16 16" style="enable-background:new 0 0 16 16;" xml:space="preserve">
<style type="text/css">
	.st0{fill:#F6F6F6;}
	.st1{fill:#F6F6F6;fill-opacity:0;}
	.st2{fill:#424242;}
	.st3{fill:#F0EFF1;}
</style>
<path class="st0" d="M16,1H1v12.1c0,0,0,0.1,0,0.1V15h0.8c0.6,0.6,1.4,1,2.2,1c0.3,0,0.5,0,0.8-0.1c0.6-0.2,1.1-0.5,1.5-0.9h1.6
	c0.6,0.6,1.3,1,2.2,1h0c0.3,0,0.5,0,0.8-0.1c0.6-0.2,1.1-0.5,1.5-0.9H16V1z"/>
<path id="canvas" class="st1" d="M16,16H0V0h16V16z"/>
<path class="st2" d="M2,2v8.8c0.4-0.3,0.8-0.6,1.2-0.7C3.5,10,3.7,10,4,10H3V8h3v2H4c1.1,0,2.1,0.6,2.6,1.5H7V11h0.8
	c0.6-0.6,1.3-1,2.2-1H7V8h3v2h0c0.9,0,1.7,0.4,2.2,1H14v2h-1c0,0.3,0,0.7-0.2,1H15V2H2z M6,7H3V5h3V7z M10,7H7V5h3V7z M14,10h-3V8h3
	V10z M14,7h-3V5h3V7z"/>
<path class="st2" d="M10,11c-0.9,0-1.7,0.6-1.9,1.5H5.9c-0.3-1.1-1.4-1.7-2.4-1.4c-1.1,0.3-1.7,1.4-1.4,2.4c0.3,1.1,1.4,1.7,2.4,1.4
	c0.7-0.2,1.3-0.7,1.4-1.4h2.1c0.3,1.1,1.4,1.7,2.4,1.4c1.1-0.3,1.7-1.4,1.4-2.4C11.7,11.6,10.9,11,10,11z M4,14c-0.6,0-1-0.4-1-1
	s0.4-1,1-1s1,0.4,1,1S4.6,14,4,14z M10,14c-0.6,0-1-0.4-1-1s0.4-1,1-1c0.6,0,1,0.4,1,1S10.6,14,10,14z"/>
<g>
	<rect x="3" y="5" class="st3" width="3" height="2"/>
	<rect x="7" y="8" class="st3" width="3" height="2"/>
	<path class="st3" d="M7.4,11.5c0.1-0.2,0.2-0.3,0.4-0.5H7v0.5H7.4z"/>
	<rect x="7" y="5" class="st3" width="3" height="2"/>
	<rect x="11" y="5" class="st3" width="3" height="2"/>
	<polygon class="st3" points="4,10 4,10 6,10 6,8 3,8 3,10 4,10 	"/>
	<rect x="11" y="8" class="st3" width="3" height="2"/>
	<path class="st3" d="M12.9,12.2C13,12.5,13,12.8,13,13h1v-2h-1.8C12.6,11.3,12.8,11.8,12.9,12.2z"/>
</g>
</svg>
