<?xml version="1.0" encoding="UTF-8"?>
<svg xmlns="http://www.w3.org/2000/svg" xmlns:xlink="http://www.w3.org/1999/xlink" width="16px" height="16px" viewBox="0 0 16 16" version="1.1">
<g id="surface1">
<path style=" stroke:none;fill-rule:nonzero;fill:rgb(0%,0%,0%);fill-opacity:1;" d="M 2 5.023438 C 2 8.601562 2.050781 9.023438 2.398438 8.898438 C 2.625 8.824219 2.851562 8.75 2.898438 8.75 C 2.949219 8.75 3 8.351562 3 7.875 L 3 7 L 6 7 L 6 8 C 6 8.699219 5.898438 9 5.648438 9 C 5.425781 9 5.601562 9.324219 6.074219 9.800781 C 6.550781 10.300781 6.898438 10.5 6.949219 10.300781 C 7 10.101562 7.550781 10 8.523438 10 L 10 10 L 10 12 L 8.625 12 C 7.425781 12 7.25 12.050781 7.25 12.5 C 7.25 12.976562 7.425781 13 11.125 13 L 15 13 L 15 1 L 2 1 Z M 6 5 L 6 6 L 3 6 L 3 4 L 6 4 Z M 10 5 L 10 6 L 7 6 L 7 4 L 10 4 Z M 14 5 L 14 6 L 11 6 L 11 4 L 14 4 Z M 10 8 L 10 9 L 7 9 L 7 7 L 10 7 Z M 14 8 L 14 9 L 11 9 L 11 7 L 14 7 Z M 14 11 L 14 12 L 11 12 L 11 10 L 14 10 Z M 14 11 "/>
<path style=" stroke:none;fill-rule:nonzero;fill:rgb(0%,0%,0%);fill-opacity:1;" d="M 2.5 10.175781 C 1.925781 10.476562 1.523438 10.925781 1.300781 11.550781 C 0.976562 12.375 1 12.574219 1.398438 13.425781 C 2.375 15.398438 5.050781 15.351562 5.898438 13.375 C 6.824219 11.148438 4.625 9.101562 2.5 10.175781 Z M 2.5 10.175781 "/>
</g>
</svg>
