<svg xmlns="http://www.w3.org/2000/svg" width="16" height="16" viewBox="0 0 16 16"><defs><style>.cls-1,.cls-2{fill:#f6f6f6;}.cls-1{opacity:0;}.cls-3{fill:#424242;}.cls-4{fill:none;}.cls-5{fill:#f0eff1;}</style></defs><title>default_16x</title><g id="outline"><rect class="cls-1" width="16" height="16"/><path class="cls-2" d="M15,0V16H1V8H5V0Z"/></g><g id="icon_bg"><path class="cls-3" d="M6,1V8H7V7h6v3H10v1h3v3H10v1h4V1Zm7,5H7V3h6Z"/><path class="cls-3" d="M4.52,10.65q-.59,0-.59,1.38t.58,1.3c.38,0,.57-.45.57-1.34S4.89,10.65,4.52,10.65Z"/><path class="cls-3" d="M2,9v6H9V9Zm3.61,4.46A1.33,1.33,0,0,1,4.48,14C3.49,14,3,13.34,3,12.05a2.49,2.49,0,0,1,.4-1.53A1.37,1.37,0,0,1,4.56,10Q6,10,6,12A2.45,2.45,0,0,1,5.61,13.46ZM8,14H7.15V11L7,11.12l-.2.1-.12,0v-.77c.1,0,.2-.07.29-.12A3.39,3.39,0,0,0,7.49,10H8Z"/></g><g id="icon_fg"><rect class="cls-4" x="4" y="12" width="1" height="1"/><rect class="cls-5" x="7" y="3" width="6" height="3"/><rect class="cls-5" x="10.01" y="11" width="2.99" height="3"/><polygon class="cls-5" points="7 8 10.01 8 10.01 10 13 10 13 7 7 7 7 8"/><path class="cls-5" d="M4.56,10a1.37,1.37,0,0,0-1.16.53A2.49,2.49,0,0,0,3,12.05C3,13.34,3.49,14,4.48,14a1.33,1.33,0,0,0,1.13-.52A2.45,2.45,0,0,0,6,12Q6,10,4.56,10Zm-.05,3.34q-.58,0-.58-1.3t.59-1.38q.55,0,.55,1.34C5.07,12.89,4.88,13.34,4.51,13.34Z"/><path class="cls-5" d="M7,10.37c-.09,0-.19.08-.29.12v.77l.12,0,.2-.1L7.15,11v3H8V10H7.49A3.39,3.39,0,0,1,7,10.37Z"/></g></svg>