<svg xmlns="http://www.w3.org/2000/svg" width="16" height="16" viewBox="0 0 16 16"><defs><style>.cls-1,.cls-2{fill:#f6f6f6;}.cls-1{opacity:0;}.cls-3{fill:none;}.cls-4{fill:#424242;}.cls-5{fill:#f0eff1;}</style></defs><title>UserDefinedType_16x</title><g id="outline"><rect class="cls-1" width="16" height="16"/><path class="cls-2" d="M10.5,7A4.09,4.09,0,0,0,12,4,4,4,0,1,0,4,4,4.09,4.09,0,0,0,5.5,7H2V8.25A2.52,2.52,0,0,0,0,10.5v3a2.53,2.53,0,0,0,2,2.27V16H14V7Z"/></g><g id="icon_bg"><path class="cls-3" d="M3.5,9.5c-1.14,0-2,.53-2,1s.86,1,2,1,2-.53,2-1S4.64,9.5,3.5,9.5Z"/><circle class="cls-4" cx="8" cy="4" r="3"/><path class="cls-4" d="M10,8,8,11,6,8H3.5C5.5,8,7,9.07,7,10.5v3A2.08,2.08,0,0,1,6.32,15H13V8Z"/><path class="cls-4" d="M3.5,9C2.12,9,1,9.67,1,10.5v3C1,14.33,2.12,15,3.5,15S6,14.33,6,13.5v-3C6,9.67,4.88,9,3.5,9Zm0,2.43c-1.08,0-1.92-.5-1.92-.93s.84-.92,1.92-.92,1.92.5,1.92.92S4.58,11.43,3.5,11.43Z"/></g><g id="icon_fg"><path class="cls-5" d="M3.5,9.58c-1.08,0-1.92.5-1.92.92s.84.93,1.92.93,1.92-.5,1.92-.93S4.58,9.58,3.5,9.58Z"/></g></svg>