<svg xmlns="http://www.w3.org/2000/svg" width="16" height="16"><style type="text/css">.icon-canvas-transparent{opacity:0;fill:#F6F6F6;} .icon-vs-out{fill:#F6F6F6;} .icon-vs-bg{fill:#424242;} .icon-vs-fg{fill:#F0EFF1;}</style><path class="icon-canvas-transparent" d="M16 16h-16v-16h16v16z" id="canvas"/><path class="icon-vs-out" d="M0 16v-13h2v-3h14v13h-2v3h-14z" id="outline"/><path class="icon-vs-bg" d="M15 1h-12v3h-2v11h12v-3h2v-11zm-3 13h-10v-8h1v6h9v2zm0-3h-8v-5h8v5zm2 0h-1v-7h-9v-1h10v8zm-9-2v-1h6v1h-6z" id="iconBg"/><path class="icon-vs-fg" d="M2 6h1v6h9v2h-10v-8zm2-3v1h9v7h1v-8h-10zm8 3v5h-8v-5h8zm-1 2h-6v1h6v-1z" id="iconFg"/></svg>