<?xml version="1.0" encoding="utf-8"?>
<!-- Generator: Adobe Illustrator 25.0.0, SVG Export Plug-In . SVG Version: 6.00 Build 0)  -->
<svg version="1.1" id="Layer_1" xmlns="http://www.w3.org/2000/svg" xmlns:xlink="http://www.w3.org/1999/xlink" x="0px" y="0px"
	 viewBox="0 0 16 16" style="enable-background:new 0 0 16 16;" xml:space="preserve">
<style type="text/css">
	.st0{fill:#F6F6F6;}
	.st1{fill:#424242;}
	.st2{fill:#F0EFF1;}
</style>
<path id="outline" class="st0" d="M16,9.1C16,9,16,9,16,9V0H2v3H0v13h14v-1.3c0.5-0.5,0.9-1.1,1.2-1.7H16V9.1z"/>
<path id="IconBg" class="st1" d="M15,9L15,9l-4,4l-1.9-1.9l0.7-0.7l1.1,1.1l3.1-3.1L11.5,7L8,9c0,0-0.1,5.1,3.5,6
	C15.1,14.1,15,9,15,9z M8.4,14H2V6h1v6h4.5c-0.1-0.3-0.2-0.7-0.3-1H4V6h7.2l0.3-0.2L11.8,6H12v0.1l1,0.6V4H4V3h10v4.3l1,0.6V1H3v3H1
	v11h8.4C9,14.7,8.7,14.4,8.4,14z M7,9C7,9,7,9,7,9l0-0.6L7.7,8H5v1H7z"/>
<path id="IconFg" class="st2" d="M3,12V6H2v8h6.4c-0.5-0.6-0.8-1.3-1-2H3z M4,3v1h9v2.7l1,0.6V3H4z M12,6.1V6h-0.2L12,6.1z M4,11
	h3.2C7,10,7,9.2,7,9H5V8h2.7l3.5-2H4V11z"/>
</svg>
