<svg id="Layer_1" data-name="Layer 1" xmlns="http://www.w3.org/2000/svg" viewBox="0 0 16 16"><title>info_notification</title><path d="M8,16a7.93,7.93,0,0,1-2.13-.28A8,8,0,0,1,4,14.91,8,8,0,0,1,0,8,7.94,7.94,0,0,1,.28,5.88,8,8,0,0,1,1.09,4,8,8,0,0,1,4,1.1,8.08,8.08,0,0,1,5.86.3a8.13,8.13,0,0,1,4.25,0,8,8,0,0,1,3.53,2.05A8,8,0,0,1,14.9,4a8,8,0,0,1,.8,1.91,8,8,0,0,1-2.05,7.78A7.93,7.93,0,0,1,12,14.91a8,8,0,0,1-1.91.8A7.93,7.93,0,0,1,8,16ZM8,1.08a6.72,6.72,0,0,0-1.84.25A7.09,7.09,0,0,0,4.5,2,6.92,6.92,0,0,0,2,4.52a7.09,7.09,0,0,0-.7,1.66,6.87,6.87,0,0,0,0,3.67A7.07,7.07,0,0,0,2,11.5,6.92,6.92,0,0,0,4.5,14a7.09,7.09,0,0,0,1.65.7,6.89,6.89,0,0,0,3.68,0,7.07,7.07,0,0,0,1.66-.7A6.92,6.92,0,0,0,14,11.5a7.08,7.08,0,0,0,.7-1.65,6.89,6.89,0,0,0,0-3.68A7.09,7.09,0,0,0,14,4.52,6.92,6.92,0,0,0,11.48,2a7.07,7.07,0,0,0-1.66-.7A6.74,6.74,0,0,0,8,1.08Zm-.53,3.2H8.52V5.34H7.46Zm0,2.13H8.52v5.33H7.46Z"/></svg>