<svg xmlns="http://www.w3.org/2000/svg" width="64" height="64" viewBox="0 0 64 64">
  <g>
    <g>
      <path d="M36.426,51.323,34.9,50.692H21.23l-3.665,10.08-6.617-18.2L7.991,50.692H2.669v3.971c0,5.152,8.352,9.329,18.665,9.329,6.146,0,11.6-1.48,15-3.778l-.37-.925L34.954,56.81l-.989-2.462,2.459-1,.927-.378c-.013-.214-.018-.422-.018-.633s.005-.425.018-.633Z" fill="#008575"/>
      <path d="M29.333,29.329a13.077,13.077,0,0,1-5.2-1.048,13.187,13.187,0,0,1-5.8-4.728H2.669V48.027H6.126l4.822-13.264,6.617,18.2,1.8-4.94H34.9l.066-.171,1-2.48,1.006-2.491,2.482,1.021.545.227v-14.8Z" fill="#008575"/>
    </g>
    <g opacity="0.25">
      <path d="M10.948,34.763l6.617,18.2,1.8-4.94h1.969V26.682A13.074,13.074,0,0,1,19.9,25.438a13.361,13.361,0,0,1-1.563-1.885H2.669V48.027H6.126Z" fill="#fff"/>
      <path d="M21.23,50.692l-3.665,10.08-6.617-18.2L7.991,50.692H2.669v3.971c0,5.152,8.352,9.329,18.665,9.329v-13.3Z" fill="#fff"/>
    </g>
    <path d="M29.333,29.329a13.077,13.077,0,0,1-5.2-1.048A13.255,13.255,0,0,1,19.9,25.438a13.483,13.483,0,0,1-2.847-4.231A13.165,13.165,0,0,1,16,16a13.785,13.785,0,0,1,.07-1.4c-7.743,1.138-13.4,4.715-13.4,8.954,0,5.155,8.354,9.335,18.665,9.335,5.948,0,11.242-1.394,14.657-3.559Z" fill="#b8d432"/>
    <path d="M29.333,29.329a13.077,13.077,0,0,1-5.2-1.048A13.255,13.255,0,0,1,19.9,25.438a13.483,13.483,0,0,1-2.847-4.231A13.165,13.165,0,0,1,16,16a13.785,13.785,0,0,1,.07-1.4c-7.743,1.138-13.4,4.715-13.4,8.954,0,5.155,8.354,9.335,18.665,9.335,5.948,0,11.242-1.394,14.657-3.559Z" fill="#008575"/>
    <path d="M53.269,10.664a7.878,7.878,0,0,1,3.133.625,8.258,8.258,0,0,1,2.566,1.7A7.918,7.918,0,0,1,60.7,15.519a8.08,8.08,0,0,1,.011,6.258,7.984,7.984,0,0,1-1.72,2.541,8.138,8.138,0,0,1-2.547,1.72,7.741,7.741,0,0,1-3.106.624h-24a10.418,10.418,0,0,1-4.156-.834,10.642,10.642,0,0,1-3.4-2.275,10.779,10.779,0,0,1-2.28-3.395,10.8,10.8,0,0,1,0-8.319,10.706,10.706,0,0,1,2.277-3.394,10.821,10.821,0,0,1,3.4-2.282,10.486,10.486,0,0,1,4.158-.833,10.28,10.28,0,0,1,1.937.189A12.579,12.579,0,0,1,33.2,3.2a11.88,11.88,0,0,1,2.4-1.739A11.822,11.822,0,0,1,41.334,0,11.7,11.7,0,0,1,45.7.811a11.875,11.875,0,0,1,6.25,5.629A12.565,12.565,0,0,1,53.269,10.664Z" fill="#008575"/>
    <path d="M24.143,24.958a11.971,11.971,0,0,1,0-9.19,11.778,11.778,0,0,1,6.283-6.281,11.685,11.685,0,0,1,6.745-.714A13.873,13.873,0,0,1,39.3,6.206,12.733,12.733,0,0,1,41.941,4.28a12.92,12.92,0,0,1,3.037-1.2,13.3,13.3,0,0,1,3.32-.417c.206,0,.387.046.594.05A11.934,11.934,0,0,0,45.7.811,11.7,11.7,0,0,0,41.334,0a11.883,11.883,0,0,0-5.752,1.457A11.9,11.9,0,0,0,33.193,3.2,12.374,12.374,0,0,0,31.27,5.519a10.28,10.28,0,0,0-1.937-.189,10.469,10.469,0,0,0-4.156.833A10.624,10.624,0,0,0,19.5,11.836a10.711,10.711,0,0,0,2.277,11.713A10.616,10.616,0,0,0,24.388,25.4C24.315,25.251,24.213,25.122,24.143,24.958Z" fill="#fff" opacity="0.2" style="isolation: isolate"/>
    <path d="M58.665,52.105a9.5,9.5,0,0,1-.292,2.313l2.851,1.164-1,2.481-2.879-1.189A9.322,9.322,0,0,1,54.1,60.128l1.187,2.848L52.812,64l-1.173-2.853a9.369,9.369,0,0,1-4.626,0L45.848,64l-2.477-1.024,1.185-2.848a9.054,9.054,0,0,1-3.251-3.254l-2.876,1.189-1-2.481,2.853-1.164A9.494,9.494,0,0,1,40,52.105a9.2,9.2,0,0,1,.3-2.311l-2.858-1.17,1-2.477,2.879,1.182a9.286,9.286,0,0,1,3.248-3.248l-1.188-2.876,2.483-1,1.165,2.853a9.392,9.392,0,0,1,4.624,0L52.814,40.2l2.48,1-1.185,2.876a9.669,9.669,0,0,1,3.246,3.248l2.876-1.182,1,2.477-2.85,1.17A9.811,9.811,0,0,1,58.665,52.105Zm-9.334,6.667a6.434,6.434,0,0,0,2.584-.522,6.7,6.7,0,0,0,2.114-1.428A6.82,6.82,0,0,0,55.466,54.7a6.565,6.565,0,0,0,0-5.173,6.819,6.819,0,0,0-3.551-3.553,6.34,6.34,0,0,0-2.584-.531,6.422,6.422,0,0,0-2.594.531,6.879,6.879,0,0,0-2.126,1.437,6.632,6.632,0,0,0-1.425,2.116,6.669,6.669,0,0,0,0,5.173,6.626,6.626,0,0,0,3.551,3.554A6.517,6.517,0,0,0,49.331,58.772Z" fill="#008575"/>
    <path d="M29.333,29.329a13.077,13.077,0,0,1-5.2-1.048A13.255,13.255,0,0,1,19.9,25.438a13.483,13.483,0,0,1-2.847-4.231A13.165,13.165,0,0,1,16,16a13.785,13.785,0,0,1,.07-1.4c-7.743,1.138-13.4,4.715-13.4,8.954,0,5.155,8.354,9.335,18.665,9.335,5.948,0,11.242-1.394,14.657-3.559Z" fill="#fff" opacity="0.55"/>
  </g>
  <rect width="64" height="64" fill="none"/>
</svg>
