<svg id="Layer_1" data-name="Layer 1" xmlns="http://www.w3.org/2000/svg" viewBox="0 0 36.65 50"><defs><style>.cls-1{fill:#7fba00;}.cls-2{fill:#b8d432;opacity:0.4;isolation:isolate;}.cls-3{fill:#fff;}</style></defs><title>secure</title><path class="cls-1" d="M31.19,6h0c-11-1.22-12.86-6-12.86-6S15.85,6.24,0,6.24V31.85c0,3.1,1.72,6,4.1,8.53h0C9.51,46.13,18.33,50,18.33,50s18.33-8,18.33-18.15V6.24A49.77,49.77,0,0,1,31.19,6Z"/><path class="cls-2" d="M22.86,16.54,31.19,6c-11-1.22-12.86-6-12.86-6S15.85,6.24,0,6.24V31.85c0,3.1,1.72,6,4.1,8.53l6.15-7.82Z"/><path class="cls-3" d="M25.6,24.46H24.53V20.91a6.7,6.7,0,0,0-1.67-4.45h0l-.11-.13a6,6,0,0,0-8.84,0,6.7,6.7,0,0,0-1.78,4.58v3.55H11.06a.8.8,0,0,0-.8.8v7.22h0v2.17a.8.8,0,0,0,.8.8H25.6a.8.8,0,0,0,.8-.8V25.26A.8.8,0,0,0,25.6,24.46Zm-4,0H15.07V20.91a3.75,3.75,0,0,1,1-2.57,3,3,0,0,1,4.54,0,3.67,3.67,0,0,1,.39.5h0a3.8,3.8,0,0,1,.6,2.06Z"/></svg>