<svg width="16" height="16" viewBox="0 0 16 16" fill="none" xmlns="http://www.w3.org/2000/svg">
<g clip-path="url(#clip0)">
<path d="M14 3H13V14.5C13 14.7083 12.9609 14.9036 12.8828 15.0859C12.8047 15.2682 12.6979 15.4271 12.5625 15.5625C12.4271 15.6979 12.2682 15.8047 12.0859 15.8828C11.9036 15.9609 11.7083 16 11.5 16H3.5C3.29167 16 3.09635 15.9609 2.91406 15.8828C2.73177 15.8047 2.57292 15.6979 2.4375 15.5625C2.30208 15.4271 2.19531 15.2682 2.11719 15.0859C2.03906 14.9036 2 14.7083 2 14.5V3H1V2H5V1C5 0.859375 5.02604 0.729167 5.07812 0.609375C5.13021 0.489583 5.20052 0.385417 5.28906 0.296875C5.38281 0.203125 5.48958 0.130208 5.60938 0.078125C5.72917 0.0260417 5.85938 0 6 0H9C9.14062 0 9.27083 0.0260417 9.39062 0.078125C9.51042 0.130208 9.61458 0.203125 9.70312 0.296875C9.79688 0.385417 9.86979 0.489583 9.92188 0.609375C9.97396 0.729167 10 0.859375 10 1V2H14V3ZM6 2H9V1H6V2ZM12 3H3V14.5C3 14.6354 3.04948 14.7526 3.14844 14.8516C3.2474 14.9505 3.36458 15 3.5 15H11.5C11.6354 15 11.7526 14.9505 11.8516 14.8516C11.9505 14.7526 12 14.6354 12 14.5V3ZM6 13H5V5H6V13ZM8 13H7V5H8V13ZM10 13H9V5H10V13Z" fill="white"/>
</g>
<defs>
<clipPath id="clip0">
<rect width="16" height="16" fill="white"/>
</clipPath>
</defs>
</svg>
