<svg width="16" height="16" viewBox="0 0 16 16" fill="none" xmlns="http://www.w3.org/2000/svg">
<path d="M5.98438 5.05811H2.98438V6.05811H5.98438V5.05811Z" fill="#323130"/>
<path d="M5.98438 9.05811H2.98438V10.0581H5.98438V9.05811Z" fill="#323130"/>
<path d="M5.98438 7.05811H2.98438V8.0581H5.98438V7.05811Z" fill="#323130"/>
<path d="M13 5.05811H10V6.05811H13V5.05811Z" fill="#323130"/>
<path d="M13 9.05811H10V10.0581H13V9.05811Z" fill="#323130"/>
<path d="M13 7.05811H10V8.0581H13V7.05811Z" fill="#323130"/>
<path d="M10 2C9.61049 2.00104 9.22665 2.0934 8.8793 2.26968C8.53196 2.44595 8.2308 2.70123 8 3.015C7.7692 2.70123 7.46804 2.44595 7.1207 2.26968C6.77335 2.0934 6.38951 2.00104 6 2H1V13H6.5C6.76522 13 7.01957 13.1054 7.20711 13.2929C7.39464 13.4804 7.5 13.7348 7.5 14H8.5C8.5 13.7348 8.60536 13.4804 8.79289 13.2929C8.98043 13.1054 9.23478 13 9.5 13H15V2H10ZM6.5 12H2V3H6C6.39782 3 6.77936 3.15804 7.06066 3.43934C7.34196 3.72064 7.5 4.10218 7.5 4.5V12.278C7.19736 12.098 6.85214 12.002 6.5 12V12ZM14 12H9.4V12.01C9.0829 12.0261 8.77428 12.118 8.5 12.278V4.5C8.5 4.10218 8.65804 3.72064 8.93934 3.43934C9.22064 3.15804 9.60218 3 10 3H14V12Z" fill="#323130"/>
</svg>
