<svg xmlns="http://www.w3.org/2000/svg" width="16" height="16" viewBox="0 0 16 16">
  <title>Artboard 60</title>
  <g>
    <polygon points="9 16 9 15 2 15 2 13 3 13 3 12 2 12 2 10.023 3 10.023 3 9.023 2 9.023 2 7.039 3 7.039 3 6.039 2 6.039 2 4 3 4 3 3 2 3 2 1 13 1 13 10 14 10 14 0 1 0 1 3 0 3 0 4 1 4 1 6.039 0 6.039 0 7.039 1 7.039 1 9.023 0 9.023 0 10.023 1 10.023 1 12 0 12 0 13 1 13 1 16 9 16"/>
    <path d="M5,6h6V3H5ZM6,4h4V5H6Z"/>
    <path d="M16,16H15V13.009q0-.485.042-1.071H14.8a5.346,5.346,0,0,1-.157.663L13.47,16h-.92l-1.192-3.364a6.467,6.467,0,0,1-.157-.7h-.246q.045.739.045,1.3V16H10V11h1.849l1.022,2.964a4.271,4.271,0,0,1,.178.715h.021a7.215,7.215,0,0,1,.2-.722L14.29,11H16Z"/>
  </g>
</svg>
