<svg id="Layer_1" data-name="Layer 1" xmlns="http://www.w3.org/2000/svg" viewBox="0 0 16 16"><defs><style>.cls-1{fill:#388a34;}</style></defs><title>new_notebook</title><path d="M11.86,1.24V.33H9.13A3.78,3.78,0,0,0,7.91.52a3.48,3.48,0,0,0-1.07.58A3.6,3.6,0,0,0,5.78.52,3.78,3.78,0,0,0,4.57.33H1.83v.91H0V13.1H9.66v-.91H7a4,4,0,0,1,.47-.39A2.39,2.39,0,0,1,8,11.52a2.2,2.2,0,0,1,.53-.18,2.93,2.93,0,0,1,.61-.06h2.74V2.15h.91V9h.91V1.24Zm-9.13,0H4.57a3,3,0,0,1,1,.17,2.58,2.58,0,0,1,.85.49v8.93a3.94,3.94,0,0,0-.88-.35,3.73,3.73,0,0,0-.94-.12H2.73Zm-1.82,11v-10h.91v9.13H4.57a2.93,2.93,0,0,1,.61.06,2.55,2.55,0,0,1,.53.18,2.68,2.68,0,0,1,.49.28,3.29,3.29,0,0,1,.46.39Zm8.21-1.83a3.73,3.73,0,0,0-.94.12,4.22,4.22,0,0,0-.89.35V1.9a2.74,2.74,0,0,1,.86-.49,2.91,2.91,0,0,1,1-.17h1.82v9.12ZM12.86,10v2.2h-2.2v.91h3V10Z"/><polygon class="cls-1" points="15.99 12.19 15.99 13.13 13.79 13.13 13.79 15.33 12.87 15.33 12.87 13.13 10.66 13.13 10.66 12.19 12.87 12.19 12.87 9.99 13.79 9.99 13.79 12.19 15.99 12.19"/><path class="cls-1" d="M13.79,12.19V10h-.93v2.2h-2.2v.94h2.2v2.2h.93v-2.2H16v-.94Z"/></svg>