<svg width="16" height="16" viewBox="0 0 16 16" fill="none" xmlns="http://www.w3.org/2000/svg">
<path d="M11.6608 4.33834L11.592 4.24704H11.1105L10.5173 4.29684C10.4416 4.36911 10.3752 4.44993 10.3196 4.53755V11.7506H8.73766C8.46719 11.7498 8.19798 11.7861 7.9381 11.8585C7.67631 11.9183 7.42453 12.0133 7.19013 12.1407V4.79486C7.3049 4.6983 7.42865 4.61217 7.55981 4.53755C7.66823 4.20443 7.81532 3.88421 7.99828 3.583C7.91085 3.60294 7.82472 3.62788 7.74036 3.65771C7.40904 3.77536 7.10087 3.94658 6.82904 4.16403C6.5516 3.95831 6.24074 3.79843 5.90911 3.69091C5.5818 3.5716 5.23581 3.50703 4.88602 3.5H2.55613V4.24704H1V14H12.6667V5.39249L11.6608 4.33834ZM3.32989 4.24704H4.88602C5.1794 4.23934 5.4715 4.28728 5.74576 4.38814C6.01966 4.47079 6.27185 4.60952 6.48514 4.79486V12.1407C6.2484 12.0118 5.99356 11.9168 5.72857 11.8585C5.46894 11.785 5.19956 11.7486 4.92901 11.7506H3.32989V4.24704ZM1.77377 13.2945V4.99407H2.55613V12.4644H4.88602C5.06191 12.4679 5.23726 12.4845 5.41046 12.5142C5.56365 12.5515 5.71323 12.6015 5.85753 12.6636C6.00344 12.7346 6.14419 12.815 6.2788 12.9043C6.42187 12.9955 6.55194 13.1043 6.66568 13.2281L1.77377 13.2945ZM11.8757 13.2945H7.01818C7.13976 13.1722 7.27531 13.0636 7.42226 12.9708C7.5485 12.878 7.68383 12.7974 7.82633 12.73C7.97652 12.6679 8.13181 12.6179 8.29059 12.5806C8.43659 12.5318 8.58598 12.4929 8.73766 12.4644H11.0847V4.99407H11.8499L11.8757 13.2945Z" fill="#212121"/>
<path d="M14.9998 1.60656L13.5837 2.91475L13.278 3.20546L12.7791 2.7388L13.5837 1.97377H12.4895C12.1875 1.99278 11.891 2.06003 11.6125 2.17268V2.17268C11.3649 2.27665 11.1324 2.41035 10.9205 2.57049L10.7274 2.73115C10.5682 2.88464 10.4303 3.0569 10.3171 3.24372C10.2365 3.35759 10.1665 3.4779 10.1079 3.60328C9.95801 3.93938 9.884 4.30166 9.89064 4.66667H9.1665C9.16813 4.35921 9.21139 4.05323 9.29524 3.75628C9.349 3.58346 9.41624 3.41469 9.49639 3.25137C9.53851 3.14181 9.59243 3.0367 9.65731 2.9377C9.74458 2.80164 9.84135 2.67129 9.94696 2.54754C10.0274 2.44809 10.124 2.34863 10.2205 2.24918C10.3825 2.09713 10.5604 1.96126 10.7516 1.84372C10.808 1.79613 10.8701 1.75504 10.9366 1.72131C11.0116 1.67354 11.0895 1.63011 11.17 1.59126L11.4194 1.4918L11.7573 1.3847C12.0689 1.30172 12.3912 1.26052 12.7148 1.2623H13.6401L12.8355 0.497268L13.3182 0L14.9998 1.60656Z" fill="#00539C"/>
</svg>
