<svg width="16" height="16" viewBox="0 0 16 16" fill="none" xmlns="http://www.w3.org/2000/svg">
<path d="M11.5 9C11.9844 9 12.4375 9.09115 12.8594 9.27344C13.2812 9.45573 13.6536 9.70573 13.9766 10.0234C14.2995 10.3411 14.5495 10.7109 14.7266 11.1328C14.9036 11.5547 14.9948 12.0104 15 12.5C15 12.9844 14.9089 13.4375 14.7266 13.8594C14.5443 14.2812 14.2943 14.6536 13.9766 14.9766C13.6589 15.2995 13.2891 15.5495 12.8672 15.7266C12.4453 15.9036 11.9896 15.9948 11.5 16C11.0156 16 10.5625 15.9089 10.1406 15.7266C9.71875 15.5443 9.34635 15.2943 9.02344 14.9766C8.70052 14.6589 8.45052 14.2891 8.27344 13.8672C8.09635 13.4453 8.00521 12.9896 8 12.5C8 12.0156 8.09115 11.5625 8.27344 11.1406C8.45573 10.7188 8.70573 10.3464 9.02344 10.0234C9.34115 9.70052 9.71094 9.45052 10.1328 9.27344C10.5547 9.09635 11.0104 9.00521 11.5 9ZM9 12.5C9 12.8438 9.0651 13.1667 9.19531 13.4688C9.32552 13.7708 9.5026 14.0365 9.72656 14.2656C9.95052 14.4948 10.2161 14.6745 10.5234 14.8047C10.8307 14.9349 11.1562 15 11.5 15C11.7448 15 11.9844 14.9661 12.2188 14.8984C12.4531 14.8307 12.6719 14.7266 12.875 14.5859L9.41406 11.125C9.27865 11.3281 9.17708 11.5469 9.10938 11.7812C9.04167 12.0156 9.00521 12.2552 9 12.5ZM13.5859 13.875C13.7214 13.6719 13.8229 13.4531 13.8906 13.2188C13.9583 12.9844 13.9948 12.7448 14 12.5C14 12.1562 13.9349 11.8333 13.8047 11.5312C13.6745 11.2292 13.4948 10.9661 13.2656 10.7422C13.0365 10.5182 12.7708 10.3385 12.4688 10.2031C12.1667 10.0677 11.8438 10 11.5 10C11.2552 10 11.0156 10.0339 10.7812 10.1016C10.5469 10.1693 10.3281 10.2734 10.125 10.4141L13.5859 13.875ZM15.5469 5.84375C15.375 6.01562 15.2083 6.17188 15.0469 6.3125C14.8854 6.45312 14.7161 6.57552 14.5391 6.67969C14.362 6.78385 14.1719 6.85938 13.9688 6.90625C13.7656 6.95312 13.5312 6.98177 13.2656 6.99219C13.0885 6.99219 12.9193 6.97656 12.7578 6.94531L11.7109 8H10.2891L12.4609 5.82812L12.5391 5.85156C12.6589 5.88802 12.7786 5.91927 12.8984 5.94531C13.0182 5.97135 13.1406 5.98698 13.2656 5.99219C13.5521 5.99219 13.8229 5.92448 14.0781 5.78906L10.2109 1.92188C10.0755 2.17708 10.0078 2.44792 10.0078 2.73438C10.0078 2.85938 10.0208 2.98177 10.0469 3.10156C10.0729 3.22135 10.1068 3.34115 10.1484 3.46094L10.1719 3.53906L6.32812 7.375C6.20312 7.32292 6.08333 7.27344 5.96875 7.22656C5.85417 7.17969 5.73958 7.14062 5.625 7.10938C5.51042 7.07812 5.39323 7.05469 5.27344 7.03906C5.15365 7.02344 5.02083 7.01302 4.875 7.00781C4.57812 7.00781 4.28906 7.04948 4.00781 7.13281C3.72656 7.21615 3.46615 7.34375 3.22656 7.51562L7 11.2891V12.7109L5.5 11.2031L1.0625 15.6484L0 16L0.351562 14.9375L4.79688 10.5L1.78125 7.48438L2.13281 7.13281C2.4974 6.76823 2.91927 6.48958 3.39844 6.29688C3.8776 6.10417 4.375 6.00781 4.89062 6.00781C5.09375 6.00781 5.29427 6.02344 5.49219 6.05469C5.6901 6.08594 5.89062 6.13542 6.09375 6.20312L9.05469 3.24219C9.02344 3.08073 9.00781 2.91146 9.00781 2.73438C9.00781 2.47917 9.03385 2.25 9.08594 2.04688C9.13802 1.84375 9.21615 1.65104 9.32031 1.46875C9.42448 1.28646 9.54427 1.11719 9.67969 0.960938C9.8151 0.804688 9.97396 0.635417 10.1562 0.453125L15.5469 5.84375Z" fill="#323130"/>
</svg>
