<svg id="Layer_1" data-name="Layer 1" xmlns="http://www.w3.org/2000/svg" viewBox="0 0 16 16"><defs><style>.cls-1{fill:#fff;}.cls-2{fill:#231f20;}</style></defs><title>database_inverse</title><path class="cls-1" d="M8,0C5.6,0,1.57.49,1.46,2.16V13.7C1.46,15.48,5.57,16,8,16s6.54-.48,6.54-2.25V2.16C14.43.49,10.4,0,8,0ZM13.44,13.7c-.14.39-2.18,1.16-5.45,1.16s-5.33-.78-5.44-1.16V3.53A14.55,14.55,0,0,0,8,4.41a14.57,14.57,0,0,0,5.45-.87Zm0-11.48C13.27,2.6,11.25,3.31,8,3.31S2.79,2.62,2.56,2.23C2.79,1.84,4.78,1.14,8,1.14s5.26.72,5.45,1.06h0Z"/><polygon class="cls-2" points="13.65 2.35 13.64 2.36 13.64 2.34 13.65 2.35"/></svg>