<svg id="Layer_1" data-name="Layer 1" xmlns="http://www.w3.org/2000/svg" viewBox="0 0 16 16"><defs><style>.cls-1{fill:#fff;}</style></defs><title>delete_inverse_16x16</title><path class="cls-1" d="M14.75,3h-1V14.5a1.47,1.47,0,0,1-.12.59,1.49,1.49,0,0,1-.8.8,1.47,1.47,0,0,1-.59.12h-8a1.47,1.47,0,0,1-.59-.12,1.49,1.49,0,0,1-.8-.8,1.47,1.47,0,0,1-.12-.59V3h-1V2h4V1A1,1,0,0,1,5.83.61,1,1,0,0,1,6.36.08,1,1,0,0,1,6.75,0h3a1,1,0,0,1,.39.08,1,1,0,0,1,.53.53,1,1,0,0,1,.08.39V2h4Zm-2,0h-9V14.5a.51.51,0,0,0,.5.5h8a.51.51,0,0,0,.5-.5Zm-6,10h-1V5h1Zm0-11h3V1h-3Zm2,11h-1V5h1Zm2,0h-1V5h1Z"/></svg>