<svg id="Layer_1" data-name="Layer 1" xmlns="http://www.w3.org/2000/svg" viewBox="0 0 16 16"><defs><style>.cls-1{fill:#231f20;}.cls-2{fill:#fff;}</style></defs><title>folder_inverse_16x16</title><polygon class="cls-1" points="13.59 2.34 13.58 2.35 13.58 2.33 13.59 2.34"/><text></text><path class="cls-2" d="M16,14.13H0v-12a1,1,0,0,1,.08-.39,1,1,0,0,1,.53-.53A1,1,0,0,1,1,1.13H4.75a2.16,2.16,0,0,1,.61.07,2.26,2.26,0,0,1,.45.18,2.14,2.14,0,0,1,.36.24l.32.24a1.8,1.8,0,0,0,.34.18,1.12,1.12,0,0,0,.43.07H15a1,1,0,0,1,.39.08,1,1,0,0,1,.53.53,1,1,0,0,1,.08.39ZM1,2.13v1H4.75a1.36,1.36,0,0,0,.33,0A1,1,0,0,0,5.34,3l.23-.16.25-.21-.25-.21-.23-.16a1,1,0,0,0-.26-.1,1.36,1.36,0,0,0-.33,0Zm14,11v-10H7.25a1.12,1.12,0,0,0-.43.07,1.8,1.8,0,0,0-.34.18l-.32.24a2.14,2.14,0,0,1-.36.24,2.26,2.26,0,0,1-.45.18,2.16,2.16,0,0,1-.61.07H1v9Z"/></svg>