<svg id="Layer_1" data-name="Layer 1" xmlns="http://www.w3.org/2000/svg" xmlns:xlink="http://www.w3.org/1999/xlink" viewBox="0 0 21 21"><defs><style>.cls-1,.cls-2,.cls-3{fill:#fff;}.cls-1{clip-rule:evenodd;}.cls-3{fill-rule:evenodd;}.cls-4{clip-path:url(#clip-path);}.cls-5{fill:#0095d7;}</style><clipPath id="clip-path"><path class="cls-1" d="M17.17,5c-2.1,0-3.38-.73-3.38-1.1V2.71a6.44,6.44,0,0,0,3.38.79,6.44,6.44,0,0,0,3.38-.79V3.86C20.55,4.23,19.26,5,17.17,5Zm0,2.26c-2.1,0-3.38-.73-3.38-1.1V5a6.44,6.44,0,0,0,3.38.79A6.44,6.44,0,0,0,20.55,5V6.12C20.55,6.55,19.26,7.22,17.17,7.22Zm0,2.26c-2.1,0-3.38-.73-3.38-1.1V7.22A6.44,6.44,0,0,0,17.17,8a6.44,6.44,0,0,0,3.38-.79V8.37C20.55,8.74,19.26,9.47,17.17,9.47Zm0-9c2.1,0,3.38.75,3.38,1.13s-1.29,1.13-3.38,1.13S13.78,2,13.78,1.58,15.07.45,17.17.45ZM21,1.75C20.94.78,19.21,0,17.17,0S13.4.78,13.33,1.75V8.69c.13.91,1.79,1.69,3.83,1.69S20.87,9.6,21,8.69Z"/></clipPath></defs><title>polybase_inverse</title><path class="cls-2" d="M0,6.49v14.2H9.41V6.49Zm.89.89H8.51v8H.89ZM8.51,19.8H.89V16.29H8.51Z"/><path class="cls-2" d="M3.93,10.22H1.73V8h2.2ZM2.18,9.78h1.3V8.47H2.18Z"/><path class="cls-3" d="M17.17,5c-2.1,0-3.38-.73-3.38-1.1V2.71a6.44,6.44,0,0,0,3.38.79,6.44,6.44,0,0,0,3.38-.79V3.86C20.55,4.23,19.26,5,17.17,5Zm0,2.26c-2.1,0-3.38-.73-3.38-1.1V5a6.44,6.44,0,0,0,3.38.79A6.44,6.44,0,0,0,20.55,5V6.12C20.55,6.55,19.26,7.22,17.17,7.22Zm0,2.26c-2.1,0-3.38-.73-3.38-1.1V7.22A6.44,6.44,0,0,0,17.17,8a6.44,6.44,0,0,0,3.38-.79V8.37C20.55,8.74,19.26,9.47,17.17,9.47Zm0-9c2.1,0,3.38.75,3.38,1.13s-1.29,1.13-3.38,1.13S13.78,2,13.78,1.58,15.07.45,17.17.45ZM21,1.75C20.94.78,19.21,0,17.17,0S13.4.78,13.33,1.75V8.69c.13.91,1.79,1.69,3.83,1.69S20.87,9.6,21,8.69Z"/><g class="cls-4"><rect class="cls-2" x="10.09" y="-3.24" width="14.15" height="16.86"/></g><path class="cls-5" d="M10.69,5a4.6,4.6,0,0,0-.94.1,4.55,4.55,0,0,0-.89.28A4.79,4.79,0,0,0,7.33,6.49V6a3.31,3.31,0,0,1,.12-.89A3.37,3.37,0,0,1,9.8,2.77a3.31,3.31,0,0,1,.89-.12V1.21l2.64,2.64L10.69,6.49Zm.48-1.92h-.43l-.39,0L10,3.22a2.72,2.72,0,0,0-.41.14A2.76,2.76,0,0,0,9,3.7a2.87,2.87,0,0,0-.5.48,2.94,2.94,0,0,0-.37.58,2.8,2.8,0,0,0-.22.66,5,5,0,0,1,1.35-.63,5.13,5.13,0,0,1,1.47-.21h.48v.76l1.48-1.48L11.17,2.37Z"/><path class="cls-5" d="M12,11.83a4.6,4.6,0,0,0,.94-.1,4.55,4.55,0,0,0,.89-.28,4.79,4.79,0,0,0,1.53-1.07v.48a3.31,3.31,0,0,1-.12.89,3.37,3.37,0,0,1-2.34,2.36,3.31,3.31,0,0,1-.89.12v1.44L9.41,13,12,10.39Zm-.47,1.92H12l.39,0,.38-.07a2.72,2.72,0,0,0,.4-.14,2.76,2.76,0,0,0,.6-.35,2.87,2.87,0,0,0,.5-.48,2.94,2.94,0,0,0,.37-.58,2.8,2.8,0,0,0,.22-.66,5,5,0,0,1-1.34.64,5.13,5.13,0,0,1-1.47.22h-.48v-.76L10.09,13l1.49,1.47Z"/></svg>