<svg id="Layer_1" data-name="Layer 1" xmlns="http://www.w3.org/2000/svg" viewBox="0 0 16 16"><defs><style>.cls-1{fill:#fff;}</style></defs><title>sql_server_inverse</title><path id="iconBg" class="cls-1" d="M6.43.14C3,.14.15,1.31.15,2.53V13c0,1.32,3.58,2.49,6.94,2.49a12.79,12.79,0,0,0,1.41-.07,4.86,4.86,0,0,1-1.77-3.24H5.59V6.71H8.85v.82A4.88,4.88,0,0,1,9.93,7v-.3H11v0a4.94,4.94,0,0,1,.54,0,4.86,4.86,0,0,1,1.63.3V2.63C13.19,1.36,9.84.14,6.43.14ZM4.5,7.79H2.33V8.88H4.5v3.26H1.24V11H3.41V10H1.24V6.71H4.5ZM6.64,3.65c-2.4,0-4.34-.55-4.34-1.22S4.24,1.21,6.64,1.21,11,1.75,11,2.43,9,3.65,6.64,3.65Zm0,4.14V11h.06a4.87,4.87,0,0,1,1-2.49V7.79Zm4.89,2.72a1.09,1.09,0,1,0,1.09,1.09A1.08,1.08,0,0,0,11.56,10.51Zm0,0a1.09,1.09,0,1,0,1.09,1.09A1.08,1.08,0,0,0,11.56,10.51Zm0,0a1.09,1.09,0,1,0,1.09,1.09A1.08,1.08,0,0,0,11.56,10.51Zm0,0a1.09,1.09,0,1,0,1.09,1.09A1.08,1.08,0,0,0,11.56,10.51Zm4.29,1.63a3.18,3.18,0,0,0,.06-.54,3.3,3.3,0,0,0-.06-.55l-1.34-.17a2.85,2.85,0,0,0-.36-.86L15,8.95a4.79,4.79,0,0,0-.78-.78L13.14,9a2.85,2.85,0,0,0-.86-.36l-.17-1.34a3.31,3.31,0,0,0-.55-.06,3.31,3.31,0,0,0-.54.06l-.17,1.34A2.85,2.85,0,0,0,10,9L8.91,8.17a4.74,4.74,0,0,0-.77.78L9,10a3.13,3.13,0,0,0-.36.86L7.27,11a4.89,4.89,0,0,0,0,.55,5.12,5.12,0,0,0,0,.55l1.35.16a2.77,2.77,0,0,0,.36.87l-.84,1.07a4,4,0,0,0,.77.77L10,14.19a3.13,3.13,0,0,0,.86.36L11,15.89a5,5,0,0,0,.54.06,4.86,4.86,0,0,0,.55-.06l.17-1.34a3.13,3.13,0,0,0,.86-.36l1.07.83a4.37,4.37,0,0,0,.78-.77l-.84-1.07a3,3,0,0,0,.36-.87Zm-4.29,1.63a2.17,2.17,0,1,1,2.18-2.17A2.17,2.17,0,0,1,11.56,13.77Zm0-3.26a1.09,1.09,0,1,0,1.09,1.09A1.08,1.08,0,0,0,11.56,10.51Zm0,0a1.09,1.09,0,1,0,1.09,1.09A1.08,1.08,0,0,0,11.56,10.51Zm0,0a1.09,1.09,0,1,0,1.09,1.09A1.08,1.08,0,0,0,11.56,10.51Zm0,0a1.09,1.09,0,1,0,1.09,1.09A1.08,1.08,0,0,0,11.56,10.51Zm0,0a1.09,1.09,0,1,0,1.09,1.09A1.08,1.08,0,0,0,11.56,10.51Z"/></svg>