<svg id="Layer_1" data-name="Layer 1" xmlns="http://www.w3.org/2000/svg" viewBox="0 0 16 16"><defs><style>.cls-1{fill:#fff;}</style></defs><title>blocker_inverse</title><polygon class="cls-1" points="0.99 3.99 -0.01 3.99 -0.01 0.03 3.98 0.03 3.98 1.03 0.99 1.03 0.99 3.99"/><polygon class="cls-1" points="16.01 3.99 15.01 3.99 15.01 1.03 12.02 1.03 12.02 0.03 16.01 0.03 16.01 3.99"/><polygon class="cls-1" points="16.01 15.97 12.02 15.97 12.02 14.97 15.01 14.97 15.01 12.01 16.01 12.01 16.01 15.97"/><polygon class="cls-1" points="4 15.97 0.01 15.97 0.01 12.01 1.01 12.01 1.01 14.97 4 14.97 4 15.97"/><path class="cls-1" d="M8.41,3.18A4.82,4.82,0,1,0,13.23,8,4.83,4.83,0,0,0,8.41,3.18Zm0,.74A4.08,4.08,0,0,1,12.49,8a4,4,0,0,1-.85,2.47L5.69,5A4,4,0,0,1,8.41,3.93Zm0,8.15A4.08,4.08,0,0,1,4.34,8a4,4,0,0,1,.85-2.47L11.14,11A4,4,0,0,1,8.41,12.07Z"/></svg>