<svg id="Layer_1" data-name="Layer 1" xmlns="http://www.w3.org/2000/svg" xmlns:xlink="http://www.w3.org/1999/xlink" viewBox="0 0 16 16"><defs><style>.cls-1{fill:none;clip-rule:evenodd;}.cls-2{clip-path:url(#clip-path);}.cls-3{fill:#d02e00;}</style><clipPath id="clip-path"><path class="cls-1" d="M8.88,8l2.67-2.67-.88-.88L8,7.12,5.33,4.45l-.88.88L7.12,8,4.45,10.67l.88.88L8,8.88l2.67,2.67.88-.88ZM8,0a7.92,7.92,0,0,1,4,1.09A8.15,8.15,0,0,1,14.91,4a8,8,0,0,1,0,8.07A8.15,8.15,0,0,1,12,14.91a8,8,0,0,1-8.07,0A8.15,8.15,0,0,1,1.09,12,8,8,0,0,1,1.09,4,8.15,8.15,0,0,1,4,1.09,7.92,7.92,0,0,1,8,0Z"/></clipPath></defs><title>failed</title><g class="cls-2"><rect class="cls-3" x="-5" y="-5" width="26" height="26"/></g></svg>