<svg id="Layer_1" data-name="Layer 1" xmlns="http://www.w3.org/2000/svg" viewBox="0 0 16 16"><title>security</title><path d="M6,8a4.88,4.88,0,0,0-1.33.18,5.11,5.11,0,0,0-1.2.5,5,5,0,0,0-1.79,1.79,5.11,5.11,0,0,0-.5,1.2A4.88,4.88,0,0,0,1,13H0a5.9,5.9,0,0,1,.28-1.79,6.12,6.12,0,0,1,2-2.94,5.33,5.33,0,0,1,1.58-.88,4.18,4.18,0,0,1-.79-.65,4,4,0,0,1-.59-.8A4.05,4.05,0,0,1,2.13,5a4,4,0,0,1,.18-2.57A4,4,0,0,1,4.44.31a4,4,0,0,1,3.12,0A4,4,0,0,1,9.69,2.44,4,4,0,0,1,9.87,5a4.05,4.05,0,0,1-.37.93,4,4,0,0,1-.59.8,4.18,4.18,0,0,1-.79.65,6.14,6.14,0,0,1,1,.5,5.73,5.73,0,0,1,.91.69l-.68.74a5,5,0,0,0-1.57-1A4.93,4.93,0,0,0,6,8ZM3,4a2.92,2.92,0,0,0,.23,1.17,3,3,0,0,0,1.6,1.6,3,3,0,0,0,2.33,0,3,3,0,0,0,1.6-1.6,3,3,0,0,0,0-2.33,3,3,0,0,0-1.6-1.6,3,3,0,0,0-2.33,0,3,3,0,0,0-1.6,1.6A2.92,2.92,0,0,0,3,4Zm12,8a2.45,2.45,0,0,1,0,1l1,.4-.38.93-1-.41a2.59,2.59,0,0,1-.67.67l.41,1-.93.38L13,15a2.45,2.45,0,0,1-1,0l-.4,1-.93-.38.41-1a2.59,2.59,0,0,1-.67-.67l-1,.41-.38-.93,1-.4a2.45,2.45,0,0,1,0-1l-1-.4.38-.93,1,.41a2.59,2.59,0,0,1,.67-.67l-.41-1,.93-.38.4,1a2.45,2.45,0,0,1,1,0l.4-1,.93.38-.41,1a2.59,2.59,0,0,1,.67.67l1-.41.38.93ZM12.5,14a1.47,1.47,0,0,0,.59-.12,1.49,1.49,0,0,0,.8-.8,1.52,1.52,0,0,0,0-1.17,1.49,1.49,0,0,0-.8-.8,1.52,1.52,0,0,0-1.17,0,1.49,1.49,0,0,0-.8.8,1.52,1.52,0,0,0,0,1.17,1.49,1.49,0,0,0,.8.8A1.47,1.47,0,0,0,12.5,14Z"/></svg>