<svg id="Layer_1" data-name="Layer 1" xmlns="http://www.w3.org/2000/svg" xmlns:xlink="http://www.w3.org/1999/xlink" viewBox="0 0 16 16"><defs><style>.cls-1{fill:none;clip-rule:evenodd;}.cls-2{clip-path:url(#clip-path);}.cls-3{fill:#3bb44a;}.cls-4{clip-path:url(#clip-path-2);}.cls-5{fill:#fff;}</style><clipPath id="clip-path"><path class="cls-1" d="M16,8a7.92,7.92,0,0,1-1.09,4A8.15,8.15,0,0,1,12,14.91a8,8,0,0,1-8.07,0A8.15,8.15,0,0,1,1.09,12,8,8,0,0,1,1.09,4,8.15,8.15,0,0,1,4,1.09a8,8,0,0,1,8.07,0A8.15,8.15,0,0,1,14.91,4,7.92,7.92,0,0,1,16,8Z"/></clipPath><clipPath id="clip-path-2"><polygon class="cls-1" points="10.9 4.9 11.6 5.6 6.5 10.71 3.65 7.85 4.35 7.15 6.5 9.29 10.9 4.9"/></clipPath></defs><title>success_complete</title><g class="cls-2"><rect class="cls-3" x="-5" y="-5" width="26" height="26"/></g><g class="cls-4"><rect class="cls-5" x="-1.35" y="-0.1" width="17.95" height="15.81"/></g></svg>