<svg xmlns="http://www.w3.org/2000/svg" width="16" height="16" viewBox="0 0 16 16" fill="none">
  <path d="M15.4,4.9a8.3,8.3,0,0,1,0,6.2,9.009,9.009,0,0,1-1.7,2.6,9.009,9.009,0,0,1-2.6,1.7A8.112,8.112,0,0,1,8,16a7.509,7.509,0,0,1-2.6-.4,7.609,7.609,0,0,1-2.3-1.3,7.31,7.31,0,0,1-1.7-1.8L.7,11.4c-.1-.4-.3-.8-.4-1.3l1-.2a7.207,7.207,0,0,0,.9,2,8.716,8.716,0,0,0,1.6,1.7,6.9,6.9,0,0,0,1.9,1A6.184,6.184,0,0,0,8,15l1.9-.2,1.6-.8a4.9,4.9,0,0,0,1.4-1.1A4.9,4.9,0,0,0,14,11.5a7.976,7.976,0,0,0,.8-1.6A12.233,12.233,0,0,0,15,8a12.233,12.233,0,0,0-.2-1.9A7.976,7.976,0,0,0,14,4.5a4.9,4.9,0,0,0-1.1-1.4A4.9,4.9,0,0,0,11.5,2a4.61,4.61,0,0,0-1.6-.7A6.283,6.283,0,0,0,8,1a6.879,6.879,0,0,0-2,.3,5.292,5.292,0,0,0-1.7.8A4.708,4.708,0,0,0,2.8,3.4,4.6,4.6,0,0,0,1.7,5H4V6H0V2H1V4.1l.3-.4.3-.5A9.122,9.122,0,0,1,3.3,1.5,7.6,7.6,0,0,1,5.5.4,7.308,7.308,0,0,1,8,0a8.112,8.112,0,0,1,3.1.6,9.009,9.009,0,0,1,2.6,1.7A9.009,9.009,0,0,1,15.4,4.9Z" />
  <polygon points="8 3 8 7.3 10.9 10.1 10.1 10.9 7 7.7 7 3 8 3" />
</svg>
