<svg xmlns="http://www.w3.org/2000/svg" width="16" height="16" viewBox="0 0 16 16">
  <g id="a63b6503-ed32-4629-9b3e-d4e4692c75ea" data-name="Icons">
    <path d="M11,8v2.711l1.4,1.39.7-.7L12,10.289V8ZM1,10V3H12V5.05a5.4,5.4,0,0,1,1,.183V0H0V11H6.117L6.03,10ZM1,1H12V2H1ZM15.64,8.75a4.615,4.615,0,0,0-.961-1.429A4.448,4.448,0,0,0,11.5,6a5.092,5.092,0,0,0-1,.118,4.329,4.329,0,0,0-.945.32,4.447,4.447,0,0,0-.844.523A4.233,4.233,0,0,0,8,7.672V6H7V9h3V8H9.055A3.474,3.474,0,0,1,11.5,7a3.487,3.487,0,0,1,1.367.282,3.521,3.521,0,0,1,1.859,1.859A3.378,3.378,0,0,1,15,10.5a3.522,3.522,0,0,1-2.141,3.226A3.378,3.378,0,0,1,11.5,14a3.268,3.268,0,0,1-1.141-.2,3.745,3.745,0,0,1-.984-.539A3.413,3.413,0,0,1,8.133,11.4l-.969.258a4.273,4.273,0,0,0,.61,1.352,4.748,4.748,0,0,0,.992,1.054A4.381,4.381,0,0,0,11.5,15a4.459,4.459,0,0,0,1.75-.36,4.615,4.615,0,0,0,1.429-.961A4.468,4.468,0,0,0,15.64,8.75Z"/>
  </g>
</svg>
