<svg id="Layer_1" data-name="Layer 1" xmlns="http://www.w3.org/2000/svg" viewBox="0 0 16 16"><title>dashboard</title><path d="M8,.19a7.61,7.61,0,0,1,2.07.28,8,8,0,0,1,1.87.79,7.8,7.8,0,0,1,2.8,2.8,8,8,0,0,1,.79,1.87,7.78,7.78,0,0,1,0,4.14,8,8,0,0,1-.79,1.87,7.8,7.8,0,0,1-2.8,2.8,8,8,0,0,1-1.87.79,7.78,7.78,0,0,1-4.14,0,8,8,0,0,1-1.87-.79,7.8,7.8,0,0,1-2.8-2.8,8,8,0,0,1-.79-1.87,7.78,7.78,0,0,1,0-4.14,8,8,0,0,1,.79-1.87,7.8,7.8,0,0,1,2.8-2.8A8,8,0,0,1,5.93.47,7.6,7.6,0,0,1,8,.19ZM8,14.77a6.58,6.58,0,0,0,1.8-.24,6.94,6.94,0,0,0,1.62-.68,6.77,6.77,0,0,0,2.43-2.43,6.94,6.94,0,0,0,.68-1.62,6.75,6.75,0,0,0,0-3.6,6.94,6.94,0,0,0-.68-1.62,6.77,6.77,0,0,0-2.43-2.43A6.94,6.94,0,0,0,9.8,1.47a6.75,6.75,0,0,0-3.6,0,6.93,6.93,0,0,0-1.62.68A6.77,6.77,0,0,0,2.16,4.59,6.94,6.94,0,0,0,1.47,6.2a6.75,6.75,0,0,0,0,3.6,6.94,6.94,0,0,0,.68,1.62,6.77,6.77,0,0,0,2.43,2.43,6.93,6.93,0,0,0,1.62.68A6.57,6.57,0,0,0,8,14.77Zm1.92-11A4.68,4.68,0,0,0,8,3.31,4.58,4.58,0,0,0,5.62,4a4.7,4.7,0,0,0-.94.74A4.77,4.77,0,0,0,4,5.64a4.68,4.68,0,0,0-.47,1.12,4.69,4.69,0,0,0,.19,3,4.66,4.66,0,0,0,1,1.52l-.74.74a5.72,5.72,0,0,1-.9-6.94A5.75,5.75,0,0,1,3.95,4,5.76,5.76,0,0,1,9.2,2.41a5.58,5.58,0,0,1,1.14.38ZM9.4,7.32A1.52,1.52,0,0,1,9.56,8a1.54,1.54,0,0,1-.12.61,1.55,1.55,0,0,1-.83.83,1.59,1.59,0,0,1-1.22,0,1.55,1.55,0,0,1-.83-.83,1.59,1.59,0,0,1,0-1.22,1.55,1.55,0,0,1,.83-.83A1.53,1.53,0,0,1,8,6.44a1.51,1.51,0,0,1,.68.16h0l3-3,.73.73-3,3ZM8,8.52a.53.53,0,1,0-.37-.15A.5.5,0,0,0,8,8.52Zm5.21-2.86a5.58,5.58,0,0,1,.38,1.14A5.71,5.71,0,0,1,13.71,8a5.78,5.78,0,0,1-.43,2.19,5.55,5.55,0,0,1-1.23,1.86l-.74-.74a4.71,4.71,0,0,0,1-1.51A4.52,4.52,0,0,0,12.69,8a4.68,4.68,0,0,0-.42-1.95Z"/></svg>