<?xml version="1.0" encoding="utf-8"?>
<!-- Generator: Adobe Illustrator 16.0.0, SVG Export Plug-In . SVG Version: 6.00 Build 0)  -->
<!DOCTYPE svg PUBLIC "-//W3C//DTD SVG 1.1//EN" "http://www.w3.org/Graphics/SVG/1.1/DTD/svg11.dtd">
<svg version="1.1" id="Layer_1" xmlns="http://www.w3.org/2000/svg" xmlns:xlink="http://www.w3.org/1999/xlink" x="0px" y="0px"
	 width="24px" height="24px" viewBox="0 0 24 24" style="enable-background:new 0 0 24 24;" xml:space="preserve">
<g style="opacity:0.2;">
	<path style="fill:#646464;" d="M12.654,19.244l-0.572-0.236H6.958l-1.374,3.777l-2.48-6.824l-1.108,3.047H0v1.488
		c0,1.932,3.131,3.496,6.997,3.496c2.304,0,4.348-0.555,5.621-1.416l-0.139-0.346l-0.377-0.93l-0.371-0.924l0.922-0.375l0.348-0.143
		c-0.005-0.08-0.007-0.158-0.007-0.236c0-0.08,0.002-0.16,0.007-0.238L12.654,19.244z"/>
	<path style="fill:#646464;" d="M12.491,10.999c-1.28,0.812-3.265,1.334-5.494,1.334C3.132,12.333,0,10.766,0,8.833v9.174h1.296
		l1.808-4.973l2.48,6.824l0.675-1.852h5.822l0.024-0.064l0.376-0.93l0.377-0.934l0.931,0.383l0.204,0.086v-5.55H12.491z"/>
	<g>
		<path style="fill:#646464;" d="M18.968,4.002c0.419,0,0.809,0.078,1.175,0.234c0.368,0.156,0.688,0.369,0.962,0.636
			c0.274,0.27,0.49,0.586,0.647,0.949C21.91,6.188,21.99,6.579,21.99,7c0,0.418-0.078,0.806-0.234,1.168
			c-0.155,0.363-0.371,0.68-0.645,0.953s-0.593,0.488-0.955,0.645c-0.365,0.158-0.755,0.234-1.164,0.234H9.995
			c-0.551,0-1.069-0.103-1.558-0.312C7.951,9.48,7.526,9.195,7.164,8.833C6.804,8.473,6.518,8.047,6.31,7.561
			c-0.209-0.488-0.312-1.008-0.312-1.56c0-0.551,0.104-1.069,0.312-1.559c0.206-0.484,0.492-0.91,0.854-1.272
			C7.526,2.809,7.95,2.524,8.437,2.315c0.489-0.208,1.008-0.312,1.559-0.312c0.237,0,0.48,0.023,0.727,0.071
			c0.209-0.322,0.448-0.613,0.722-0.871c0.276-0.258,0.572-0.474,0.897-0.652c0.321-0.176,0.666-0.312,1.028-0.407
			c0.365-0.093,0.738-0.14,1.125-0.14c0.577,0,1.122,0.1,1.636,0.304c0.513,0.203,0.968,0.483,1.362,0.839
			c0.396,0.357,0.723,0.782,0.98,1.271C18.729,2.907,18.893,3.437,18.968,4.002z"/>
	</g>
	<path style="fill:#646464;" d="M20.991,19.537c0,0.287-0.037,0.576-0.109,0.867l1.068,0.436l-0.374,0.93l-1.079-0.445
		c-0.308,0.512-0.712,0.918-1.216,1.221l0.445,1.066l-0.93,0.385l-0.439-1.07c-0.291,0.074-0.58,0.109-0.867,0.109
		S16.915,23,16.623,22.926l-0.437,1.07l-0.929-0.385l0.444-1.066c-0.511-0.303-0.918-0.709-1.219-1.221l-1.078,0.445l-0.373-0.93
		l1.069-0.436c-0.072-0.291-0.108-0.58-0.108-0.867s0.036-0.574,0.111-0.867l-1.071-0.438l0.374-0.93l1.079,0.443
		c0.3-0.504,0.706-0.91,1.218-1.217l-0.445-1.078l0.931-0.375l0.437,1.068c0.29-0.072,0.58-0.107,0.866-0.107
		s0.577,0.035,0.867,0.107l0.438-1.068l0.93,0.375l-0.444,1.078c0.503,0.307,0.908,0.713,1.217,1.217l1.078-0.443l0.374,0.93
		l-1.068,0.438C20.954,18.963,20.991,19.25,20.991,19.537z M17.492,22.035c0.344,0,0.666-0.064,0.969-0.195
		c0.302-0.129,0.566-0.309,0.792-0.535s0.407-0.492,0.539-0.797c0.133-0.303,0.199-0.627,0.199-0.971s-0.066-0.666-0.199-0.969
		c-0.132-0.303-0.313-0.566-0.539-0.793s-0.49-0.406-0.792-0.539c-0.303-0.133-0.625-0.199-0.969-0.199
		c-0.343,0-0.667,0.066-0.973,0.199c-0.304,0.133-0.568,0.312-0.797,0.539c-0.228,0.227-0.404,0.49-0.534,0.793
		c-0.131,0.303-0.195,0.625-0.195,0.969c0,0.342,0.064,0.668,0.195,0.971c0.13,0.305,0.309,0.57,0.534,0.797
		s0.493,0.406,0.797,0.535C16.825,21.971,17.149,22.035,17.492,22.035z"/>
	<path style="fill:#646464;" d="M9.886,10.988c-0.644-0.014-1.265-0.135-1.839-0.382C7.443,10.351,6.91,9.992,6.458,9.541
		C6.01,9.092,5.65,8.558,5.391,7.954C5.193,7.493,5.094,6.997,5.045,6.488C2.525,6.88,1,7.982,1,8.833c0,1.044,2.281,2.5,5.997,2.5
		C8.014,11.333,9.004,11.209,9.886,10.988z"/>
</g>
</svg>
