<?xml version="1.0" encoding="utf-8"?>
<!-- Generator: Adobe Illustrator 21.1.0, SVG Export Plug-In . SVG Version: 6.00 Build 0)  -->
<svg version="1.1" id="Layer_1" xmlns="http://www.w3.org/2000/svg" xmlns:xlink="http://www.w3.org/1999/xlink" x="0px" y="0px"
	 viewBox="0 0 24 24" style="enable-background:new 0 0 24 24;" xml:space="preserve">
<style type="text/css">
	.st0{opacity:0.2;}
	.st1{fill:#646464;}
</style>
<g class="st0">
	<path class="st1" d="M12.7,19.2L12.1,19H7l-1.4,3.8L3.1,16L2,19H0v1.5C0,22.4,3.1,24,7,24c2.3,0,4.3-0.6,5.6-1.4l-0.1-0.3l-0.4-0.9
		l-0.4-0.9l0.9-0.4l0.3-0.1c0-0.1,0-0.2,0-0.2c0-0.1,0-0.2,0-0.2L12.7,19.2z"/>
	<path class="st1" d="M12.5,11c-1.3,0.8-3.3,1.3-5.5,1.3c-3.9,0-7-1.6-7-3.5V18h1.3l1.8-5l2.5,6.8L6.3,18h5.8l0-0.1l0.4-0.9l0.4-0.9
		l0.9,0.4l0.2,0.1V11L12.5,11L12.5,11z"/>
	<g>
		<path class="st1" d="M19,4c0.4,0,0.8,0.1,1.2,0.2c0.4,0.2,0.7,0.4,1,0.6c0.3,0.3,0.5,0.6,0.6,0.9C21.9,6.2,22,6.6,22,7
			c0,0.4-0.1,0.8-0.2,1.2c-0.2,0.4-0.4,0.7-0.6,1c-0.3,0.3-0.6,0.5-1,0.6C19.8,9.9,19.4,10,19,10h-9c-0.6,0-1.1-0.1-1.6-0.3
			C8,9.5,7.5,9.2,7.2,8.8C6.8,8.5,6.5,8,6.3,7.6C6.1,7.1,6,6.6,6,6c0-0.6,0.1-1.1,0.3-1.6C6.5,4,6.8,3.5,7.2,3.2
			c0.4-0.4,0.8-0.6,1.3-0.9C8.9,2.1,9.4,2,10,2c0.2,0,0.5,0,0.7,0.1c0.2-0.3,0.4-0.6,0.7-0.9c0.3-0.3,0.6-0.5,0.9-0.7
			c0.3-0.2,0.7-0.3,1-0.4C13.7,0.1,14.1,0,14.5,0c0.6,0,1.1,0.1,1.6,0.3c0.5,0.2,1,0.5,1.4,0.8c0.4,0.4,0.7,0.8,1,1.3
			C18.7,2.9,18.9,3.4,19,4z"/>
	</g>
	<path class="st1" d="M21,19.5c0,0.3,0,0.6-0.1,0.9l1.1,0.4l-0.4,0.9l-1.1-0.4c-0.3,0.5-0.7,0.9-1.2,1.2l0.4,1.1L18.8,24l-0.4-1.1
		C18.1,23,17.8,23,17.5,23s-0.6,0-0.9-0.1L16.2,24l-0.9-0.4l0.4-1.1c-0.5-0.3-0.9-0.7-1.2-1.2l-1.1,0.4L13,20.8l1.1-0.4
		C14,20.1,14,19.8,14,19.5s0-0.6,0.1-0.9L13,18.2l0.4-0.9l1.1,0.4c0.3-0.5,0.7-0.9,1.2-1.2l-0.4-1.1l0.9-0.4l0.4,1.1
		c0.3-0.1,0.6-0.1,0.9-0.1s0.6,0,0.9,0.1l0.4-1.1l0.9,0.4l-0.4,1.1c0.5,0.3,0.9,0.7,1.2,1.2l1.1-0.4l0.4,0.9l-1.1,0.4
		C21,19,21,19.2,21,19.5z M17.5,22c0.3,0,0.7-0.1,1-0.2c0.3-0.1,0.6-0.3,0.8-0.5s0.4-0.5,0.5-0.8c0.1-0.3,0.2-0.6,0.2-1
		s-0.1-0.7-0.2-1c-0.1-0.3-0.3-0.6-0.5-0.8s-0.5-0.4-0.8-0.5c-0.3-0.1-0.6-0.2-1-0.2c-0.3,0-0.7,0.1-1,0.2c-0.3,0.1-0.6,0.3-0.8,0.5
		c-0.2,0.2-0.4,0.5-0.5,0.8c-0.1,0.3-0.2,0.6-0.2,1c0,0.3,0.1,0.7,0.2,1c0.1,0.3,0.3,0.6,0.5,0.8s0.5,0.4,0.8,0.5
		C16.8,22,17.1,22,17.5,22z"/>
	<path class="st1" d="M9.9,11c-0.6,0-1.3-0.1-1.8-0.4C7.4,10.4,6.9,10,6.5,9.5C6,9.1,5.7,8.6,5.4,8C5.2,7.5,5.1,7,5,6.5
		C2.5,6.9,1,8,1,8.8c0,1,2.3,2.5,6,2.5C8,11.3,9,11.2,9.9,11z"/>
</g>
</svg>
