<svg width="16" height="16" viewBox="0 0 16 16" fill="none" xmlns="http://www.w3.org/2000/svg">
<path d="M9.09976 4.4L8.59976 2H7.39976L6.89976 4.4L6.19976 4.7L4.19976 3.4L3.29976 4.2L4.59976 6.2L4.39976 6.9L1.99976 7.4V8.6L4.39976 9.1L4.69976 9.9L3.39976 11.9L4.19976 12.7L6.19976 11.4L6.99976 11.7L7.39976 14H8.59976L9.09976 11.6L9.89976 11.3L11.8998 12.6L12.6998 11.8L11.3998 9.8L11.6998 9L13.9998 8.6V7.4L11.5998 6.9L11.2998 6.1L12.5998 4.1L11.7998 3.3L9.79976 4.6L9.09976 4.4ZM9.39976 1L9.89976 3.4L11.9998 2.1L13.9998 4.1L12.5998 6.2L14.9998 6.6V9.4L12.5998 9.9L13.9998 12L11.9998 14L9.89976 12.6L9.39976 15H6.59976L6.09976 12.6L3.99976 13.9L1.99976 11.9L3.39976 9.8L0.999756 9.4V6.6L3.39976 6.1L2.09976 4L4.09976 2L6.19976 3.4L6.59976 1H9.39976ZM9.99976 8C9.99976 9.1 9.09976 10 7.99976 10C6.89976 10 5.99976 9.1 5.99976 8C5.99976 6.9 6.89976 6 7.99976 6C9.09976 6 9.99976 6.9 9.99976 8ZM7.99976 9C8.59976 9 8.99976 8.6 8.99976 8C8.99976 7.4 8.59976 7 7.99976 7C7.39976 7 6.99976 7.4 6.99976 8C6.99976 8.6 7.39976 9 7.99976 9Z" fill="#C5C5C5"/>
</svg>
