<?xml version="1.0" standalone="no"?>
<!DOCTYPE svg PUBLIC "-//W3C//DTD SVG 20010904//EN"
 "http://www.w3.org/TR/2001/REC-SVG-20010904/DTD/svg10.dtd">
<svg version="1.0" xmlns="http://www.w3.org/2000/svg"
 width="980.000000pt" height="980.000000pt" viewBox="0 0 980.000000 980.000000"
 preserveAspectRatio="xMidYMid meet">
<g transform="translate(0.000000,980.000000) scale(0.100000,-0.100000)"
fill="#ffffff" stroke="none">
<path d="M416 9784 c-141 -34 -282 -144 -350 -273 -72 -137 -66 279 -66 -4611
0 -4892 -6 -4474 66 -4611 71 -135 228 -250 378 -278 43 -8 1098 -11 3646 -11
3541 0 3588 0 3664 20 43 11 101 32 129 47 73 39 178 146 215 219 56 110 65
161 66 354 l1 175 -135 0 -135 0 -5 -175 c-4 -146 -8 -181 -24 -214 -27 -53
-80 -104 -135 -130 l-46 -21 -3605 0 -3605 0 -41 22 c-64 34 -103 71 -132 127
l-27 51 0 4425 0 4425 23 47 c26 53 87 112 141 136 33 16 225 17 2384 20
l2347 2 0 -567 c0 -448 3 -582 14 -634 42 -195 184 -349 386 -415 52 -17 125
-19 1188 -22 l1132 -3 0 -269 0 -270 141 0 141 0 -5 293 c-5 324 -10 357 -73
478 -70 134 -49 120 -1347 898 -653 392 -1211 723 -1240 735 -28 13 -76 28
-105 35 -39 8 -713 11 -2490 10 -2067 -1 -2446 -3 -2496 -15z"/>
<path d="M1090 8165 l0 -275 1768 2 1767 3 3 273 2 272 -1770 0 -1770 0 0
-275z"/>
<path d="M6260 7340 c-349 -34 -667 -112 -986 -243 -268 -110 -536 -269 -775
-458 -122 -97 -339 -307 -449 -434 -361 -419 -618 -952 -724 -1504 -46 -238
-51 -301 -51 -626 1 -326 12 -445 66 -690 133 -608 440 -1167 884 -1610 506
-506 1117 -813 1845 -927 128 -20 181 -22 465 -22 283 0 337 2 465 22 619 97
1147 333 1625 727 128 106 358 341 464 474 480 605 731 1360 708 2126 -17 554
-165 1075 -439 1549 -63 109 -200 308 -290 420 -102 127 -353 378 -478 477
-491 392 -1026 620 -1650 704 -138 19 -546 27 -680 15z m610 -556 c1255 -157
2234 -1157 2370 -2420 16 -148 8 -543 -14 -684 -90 -575 -354 -1096 -761
-1506 -77 -78 -183 -175 -235 -216 -687 -543 -1554 -724 -2399 -502 -182 47
-296 91 -496 189 -819 400 -1375 1172 -1502 2086 -24 173 -24 539 1 704 73
499 246 917 543 1308 112 147 372 404 523 516 448 333 932 508 1510 545 93 6
339 -5 460 -20z"/>
<path d="M6447 6246 c-92 -33 -157 -106 -177 -199 -8 -37 -10 -344 -8 -1047
l3 -995 22 -41 c27 -50 76 -99 128 -127 l40 -22 869 -3 c1000 -3 942 -7 1032
82 41 42 56 66 70 111 38 134 -24 268 -151 326 -37 17 -85 19 -752 19 l-712 0
-3 848 -3 847 -24 53 c-57 126 -208 193 -334 148z"/>
<path d="M1090 5990 l0 -270 1090 0 1090 0 0 270 0 270 -1090 0 -1090 0 0
-270z"/>
<path d="M1090 3810 l0 -270 815 0 815 0 0 270 0 270 -815 0 -815 0 0 -270z"/>
<path d="M1090 1635 l0 -275 1225 0 1225 0 0 275 0 275 -1225 0 -1225 0 0
-275z"/>
</g>
</svg>
