<svg id="b5f5c9b0-d3fa-415d-8540-6bd32b8a5433" data-name="icon" xmlns="http://www.w3.org/2000/svg" xmlns:xlink="http://www.w3.org/1999/xlink" width="18" height="18" viewBox="0 0 18 18">
  <defs>
    <linearGradient id="a42db308-c624-4092-b558-087b84167065" x1="3.427" y1="263.506" x2="14.573" y2="263.506" gradientTransform="matrix(1, 0, 0, -1, 0, 272)" gradientUnits="userSpaceOnUse">
      <stop offset="0" stop-color="#005ba1"/>
      <stop offset="0.07" stop-color="#0060a9"/>
      <stop offset="0.36" stop-color="#0071c8"/>
      <stop offset="0.52" stop-color="#0078d4"/>
      <stop offset="0.64" stop-color="#0074cd"/>
      <stop offset="0.82" stop-color="#006abb"/>
      <stop offset="1" stop-color="#005ba1"/>
    </linearGradient>
  </defs>
  <title>Data_controller</title>
  <path d="M17.548,15.194c-.16.7-1.035,1.391-2.617,1.929a21.585,21.585,0,0,1-12.125.017C1.349,16.626.563,15.97.44,15.3c-.022-.118,0-1.966,0-1.966l17.136-.16S17.568,15.109,17.548,15.194Z" fill="#5ea0ef"/>
  <ellipse cx="9" cy="13.294" rx="8.576" ry="2.965" transform="translate(-0.133 0.091) rotate(-0.575)" fill="#50e6ff"/>
  <g>
    <path d="M9,4.129c-3.078,0-5.573-.869-5.573-2.017V12.859c0,1.1,2.452,2,5.5,2.017H9c3.078,0,5.573-.87,5.573-2.017V2.112C14.573,3.234,12.078,4.129,9,4.129Z" fill="url(#a42db308-c624-4092-b558-087b84167065)"/>
    <path d="M14.573,2.112c0,1.122-2.5,2.017-5.573,2.017S3.427,3.26,3.427,2.112,5.922.1,9,.1s5.573.87,5.573,2.017" fill="#e8e8e8"/>
    <path d="M13.278,1.947c0,.713-1.922,1.287-4.278,1.287S4.722,2.66,4.722,1.947,6.644.669,9,.669s4.278.574,4.278,1.278" fill="#50e6ff"/>
    <path d="M9,2.269a10.032,10.032,0,0,0-3.382.495A9.92,9.92,0,0,0,9,3.234a9.711,9.711,0,0,0,3.382-.5A10.279,10.279,0,0,0,9,2.269Z" fill="#198ab3"/>
  </g>
  <path d="M12.039,9.808v-.69h-.1l-.74-.24-.19-.47.37-.8-.48-.48-.1.05-.76.31-.48-.19-.3-.84h-.65v.1l-.24.74-.47.19-.86-.38-.48.49.05.09.43.69-.2.47-.88.36v.68h.09l.74.24.19.47-.37.8.48.48h.1l.69-.35.47.19.3.83h.69v-.09l.24-.74.47-.19.8.37.48-.48-.05-.1-.35-.69.19-.47Zm-3,1a1.33,1.33,0,1,1,1.32-1.34v.01A1.322,1.322,0,0,1,9.05,10.81l-.071,0Z" fill="#fff"/>
</svg>
