<svg width="16" height="16" viewBox="0 0 16 16" fill="none" xmlns="http://www.w3.org/2000/svg">
<path d="M14.5 3.0001H13.5V14.5001C13.5146 14.7052 13.4803 14.9108 13.4 15.1001L13.1 15.6001L12.6 15.9001H3.4L2.9 15.6001L2.6 15.1001C2.51969 14.9108 2.48542 14.7052 2.5 14.5001V3.0001H1.5V2.0001H5.5V1.0001C5.48504 0.859138 5.52046 0.717432 5.6 0.600098L5.8 0.300098L6.1 0.100098H9.9L10.2 0.300098L10.4 0.600098C10.4795 0.717432 10.515 0.859138 10.5 1.0001V2.0001H14.5V3.0001ZM12.5 3.0001H3.5V14.5001C3.48504 14.6411 3.52046 14.7828 3.6 14.9001H12.4C12.4795 14.7828 12.515 14.6411 12.5 14.5001V3.0001ZM6.5 13.0001H5.5V5.0001H6.5V13.0001ZM6.5 2.0001H9.5V1.0001H6.5V2.0001ZM8.5 13.0001H7.5V5.0001H8.5V13.0001ZM10.5 13.0001H9.5V5.0001H10.5V13.0001Z" fill="#0078D4"/>
</svg>
