<svg width="16" height="16" viewBox="0 0 16 16" fill="none" xmlns="http://www.w3.org/2000/svg">
<path d="M2 7C2.14062 7 2.27083 7.02604 2.39062 7.07812C2.51042 7.13021 2.61458 7.20312 2.70312 7.29688C2.79688 7.38542 2.86979 7.48958 2.92188 7.60938C2.97396 7.72917 3 7.85938 3 8C3 8.14062 2.97396 8.27083 2.92188 8.39062C2.86979 8.51042 2.79688 8.61719 2.70312 8.71094C2.61458 8.79948 2.51042 8.86979 2.39062 8.92188C2.27083 8.97396 2.14062 9 2 9C1.85938 9 1.72917 8.97396 1.60938 8.92188C1.48958 8.86979 1.38281 8.79948 1.28906 8.71094C1.20052 8.61719 1.13021 8.51042 1.07812 8.39062C1.02604 8.27083 1 8.14062 1 8C1 7.85938 1.02604 7.72917 1.07812 7.60938C1.13021 7.48958 1.20052 7.38542 1.28906 7.29688C1.38281 7.20312 1.48958 7.13021 1.60938 7.07812C1.72917 7.02604 1.85938 7 2 7ZM8 7C8.14062 7 8.27083 7.02604 8.39062 7.07812C8.51042 7.13021 8.61458 7.20312 8.70312 7.29688C8.79688 7.38542 8.86979 7.48958 8.92188 7.60938C8.97396 7.72917 9 7.85938 9 8C9 8.14062 8.97396 8.27083 8.92188 8.39062C8.86979 8.51042 8.79688 8.61719 8.70312 8.71094C8.61458 8.79948 8.51042 8.86979 8.39062 8.92188C8.27083 8.97396 8.14062 9 8 9C7.85938 9 7.72917 8.97396 7.60938 8.92188C7.48958 8.86979 7.38281 8.79948 7.28906 8.71094C7.20052 8.61719 7.13021 8.51042 7.07812 8.39062C7.02604 8.27083 7 8.14062 7 8C7 7.85938 7.02604 7.72917 7.07812 7.60938C7.13021 7.48958 7.20052 7.38542 7.28906 7.29688C7.38281 7.20312 7.48958 7.13021 7.60938 7.07812C7.72917 7.02604 7.85938 7 8 7ZM14 7C14.1406 7 14.2708 7.02604 14.3906 7.07812C14.5104 7.13021 14.6146 7.20312 14.7031 7.29688C14.7969 7.38542 14.8698 7.48958 14.9219 7.60938C14.974 7.72917 15 7.85938 15 8C15 8.14062 14.974 8.27083 14.9219 8.39062C14.8698 8.51042 14.7969 8.61719 14.7031 8.71094C14.6146 8.79948 14.5104 8.86979 14.3906 8.92188C14.2708 8.97396 14.1406 9 14 9C13.8594 9 13.7292 8.97396 13.6094 8.92188C13.4896 8.86979 13.3828 8.79948 13.2891 8.71094C13.2005 8.61719 13.1302 8.51042 13.0781 8.39062C13.026 8.27083 13 8.14062 13 8C13 7.85938 13.026 7.72917 13.0781 7.60938C13.1302 7.48958 13.2005 7.38542 13.2891 7.29688C13.3828 7.20312 13.4896 7.13021 13.6094 7.07812C13.7292 7.02604 13.8594 7 14 7Z" fill="#0078D4"/>
</svg>
