<svg id="a2f0dd32-c564-48d6-97d7-86323bfba35b" xmlns="http://www.w3.org/2000/svg" viewBox="0 0 18 18">
  <defs>
    <linearGradient id="b863127b-2eb8-42a1-a46b-989a6a8d258c" x1="9" y1="18" x2="9" gradientUnits="userSpaceOnUse">
      <stop offset="0" stop-color="#32bedd" />
      <stop offset="0.576" stop-color="#32ceef" />
      <stop offset="1" stop-color="#32d4f5" />
    </linearGradient>
  </defs>
  <path d="M18,9.972V7.92l-.288-.108-2.2-.72-.576-1.4,1.116-2.376-1.44-1.44-.288.144L12.276,3.06l-1.4-.576L9.972,0H7.92L7.812.288l-.72,2.2-1.4.576L3.348,1.944l-1.44,1.44.144.288L3.1,5.724l-.576,1.4L0,8.028V10.08l.288.108,2.2.72.576,1.4L1.944,14.688l1.44,1.44.288-.144L5.724,14.94l1.4.576L8.028,18H10.08l.108-.288.72-2.2,1.4-.576,2.376,1.116,1.44-1.44-.144-.288L14.94,12.276l.576-1.4ZM9,12.95A3.95,3.95,0,1,1,12.95,9,3.947,3.947,0,0,1,9,12.95Z" fill="url(#b863127b-2eb8-42a1-a46b-989a6a8d258c)" />
</svg>
