<svg width="16" height="16" viewBox="0 0 16 16" fill="none" xmlns="http://www.w3.org/2000/svg">
<path d="M13.9 7.7V8L15.9 9.3L14.7 12.3L12.3 12L12 12.3L12.5 14.7L9.5 15.9L8.2 13.9H7.7L6.4 15.9L3.4 14.7L4 12.3L3.6 12L1.2 12.5L0 9.5L2 8.2V7.8L0 6.4L1.2 3.4L3.6 4C3.68017 3.8224 3.8224 3.68017 4 3.6L3.4 1.2L6.4 0L7.7 2H8.2L9.5 0L12.5 1.2L12 3.6L12.3 4L14.7 3.4L15.9 6.4L13.9 7.7ZM13 8.7V7.2L14.8 6.1L14.1 4.4L12 4.9C11.8873 4.6869 11.7131 4.51266 11.5 4.4C11.3873 4.1869 11.2131 4.01266 11 3.9L11.5 1.8L9.8 1.1L8.7 2.9H7.2L6.1 1.1L4.4 1.8L4.9 3.9C4.6869 4.01266 4.51266 4.1869 4.4 4.4C4.1869 4.51266 4.01266 4.6869 3.9 4.9L1.8 4.4L1.1 6.1L2.9 7.2V8.7L1.1 9.8L1.8 11.5L3.9 11L4.4 11.5L4.9 12L4.4 14.1L6.1 14.8L7.2 13H8.7L9.8 14.8L11.5 14.1L11 12L11.5 11.5L12 11L14.1 11.5L14.8 9.8L13 8.7ZM8 5L9.1 5.2C9.4563 5.35019 9.76673 5.59163 10 5.9C10.287 6.15414 10.5243 6.4593 10.7 6.8C10.8232 7.1885 10.8905 7.59254 10.9 8C10.8815 8.37381 10.8143 8.7436 10.7 9.1C10.5498 9.4563 10.3084 9.76673 10 10C9.76673 10.3084 9.4563 10.5498 9.1 10.7L8 10.9L6.8 10.7C6.4593 10.5243 6.15414 10.287 5.9 10C5.59163 9.76673 5.35019 9.4563 5.2 9.1C5.08575 8.7436 5.01851 8.37381 5 8C5.00946 7.59254 5.0768 7.1885 5.2 6.8C5.37568 6.4593 5.61303 6.15414 5.9 5.9C6.15414 5.61303 6.4593 5.37568 6.8 5.2L8 5ZM8 10H8.8L9.4 9.5L9.9 8.9C9.98784 8.60859 10.0217 8.30359 10 8C10.0157 7.69656 9.98194 7.39259 9.9 7.1L9.4 6.5L8.8 6.1C8.5621 5.94828 8.28131 5.87808 8 5.9C7.68644 5.87053 7.37156 5.9405 7.1 6.1L6.5 6.5L6.1 7.1C5.9405 7.37156 5.87053 7.68644 5.9 8C5.87808 8.28131 5.94828 8.5621 6.1 8.8L6.5 9.4L7.1 9.9L8 10Z" fill="#0078D4"/>
</svg>
