<svg xmlns="http://www.w3.org/2000/svg" viewBox="0 0 16 16">
  <path d="M13.95,7.75h0v.3h0l2,1.3-1.2,3-2.4-.3-.3.3.5,2.4-3,1.2-1.3-2h-.5l-1.3,2-3-1.2.6-2.4-.4-.3-2.4.5-1.2-3,2-1.3h0v-.4h0l-2-1.4,1.2-3,2.4.6a.8.8,0,0,1,.4-.4l-.6-2.4,3-1.2,1.3,2h.5l1.3-2,3,1.2-.5,2.4.3.4,2.4-.6,1.2,3Zm-.9,1V7.25l1.8-1.1-.7-1.7-2.1.5a1.205,1.205,0,0,0-.5-.5,1.205,1.205,0,0,0-.5-.5l.5-2.1-1.7-.7-1.1,1.8H7.25l-1.1-1.8-1.7.7.5,2.1a1.205,1.205,0,0,0-.5.5,1.205,1.205,0,0,0-.5.5l-2.1-.5-.7,1.7,1.8,1.1v1.5l-1.8,1.1.7,1.7,2.1-.5.5.5.5.5-.5,2.1,1.7.7,1.1-1.8h1.5l1.1,1.8,1.7-.7-.5-2.1.5-.5.5-.5,2.1.5.7-1.7Zm-5-3.7,1.1.2a2.2,2.2,0,0,1,.9.7,3.1,3.1,0,0,1,.7.9,4.3,4.3,0,0,1,.2,1.2,4.328,4.328,0,0,1-.2,1.1,2.2,2.2,0,0,1-.7.9,2.2,2.2,0,0,1-.9.7l-1.1.2-1.2-.2a3.1,3.1,0,0,1-.9-.7,2.2,2.2,0,0,1-.7-.9,4.328,4.328,0,0,1-.2-1.1,4.3,4.3,0,0,1,.2-1.2,3.1,3.1,0,0,1,.7-.9,3.1,3.1,0,0,1,.9-.7Zm0,5h.8l.6-.5.5-.6a2.489,2.489,0,0,0,.1-.9,2.793,2.793,0,0,0-.1-.9l-.5-.6-.6-.4a1.3,1.3,0,0,0-.8-.2,1.507,1.507,0,0,0-.9.2l-.6.4-.4.6a1.507,1.507,0,0,0-.2.9,1.3,1.3,0,0,0,.2.8l.4.6.6.5Z" />
</svg>
