<svg width="16" height="14" viewBox="0 0 16 14" fill="none" xmlns="http://www.w3.org/2000/svg">
<path d="M11.8002 -8.11447e-06C12.3474 0.00189106 12.8896 0.103554 13.4002 0.299992L14.8002 1.19999L15.7002 2.59999C15.9043 3.14328 16.0061 3.71966 16.0002 4.29999C15.9983 4.84713 15.8967 5.38933 15.7002 5.89999C15.4966 6.42202 15.1906 6.89803 14.8002 7.29999L8.00024 14L1.20024 7.29999C0.809851 6.89803 0.503844 6.42202 0.300236 5.89999C0.103798 5.38933 0.0021352 4.84713 0.000236026 4.29999C-0.00557996 3.71966 0.0961354 3.14328 0.300236 2.59999L1.20024 1.19999L2.60024 0.299992C3.14352 0.0958913 3.71991 -0.0058241 4.30024 -8.11447e-06H5.40024L6.30024 0.499992C6.64198 0.628901 6.9498 0.834113 7.20024 1.09999L8.00024 1.99999L8.80024 1.19999C9.05067 0.934113 9.35849 0.728901 9.70024 0.599992L10.6002 0.0999919L11.8002 -8.11447e-06ZM14.0002 6.49999C14.3492 6.24177 14.6249 5.89713 14.8002 5.49999C14.9155 5.10962 14.9827 4.70664 15.0002 4.29999C15.0064 3.84882 14.9035 3.40282 14.7002 2.99999C14.5855 2.6224 14.3794 2.27893 14.1002 1.99999C13.799 1.67702 13.4204 1.43611 13.0002 1.29999L11.8002 0.999992L10.6002 1.19999L9.60024 1.79999L8.80024 2.49999L8.00024 3.39999L7.20024 2.59999L6.30024 1.79999L5.40024 1.19999L4.30024 0.999992C3.84906 0.993784 3.40307 1.09671 3.00024 1.29999C2.60363 1.4394 2.23217 1.64201 1.90024 1.89999C1.64226 2.23192 1.43964 2.60338 1.30024 2.99999C1.09695 3.40282 0.994028 3.84882 1.00024 4.29999C1.01781 4.70664 1.08497 5.10962 1.20024 5.49999C1.37556 5.89713 1.65127 6.24177 2.00024 6.49999L8.00024 12.6L14.0002 6.49999Z" fill="#0078D4"/>
</svg>
