<svg width="34" height="34" viewBox="0 0 34 34" fill="none" xmlns="http://www.w3.org/2000/svg">
<path d="M9.49995 0H2.69995V34H9.49995V0Z" fill="#E5E5E5"/>
<path d="M8.1501 1.34998H4.1001V32.65H8.1501V1.34998Z" fill="#59B4D9"/>
<path opacity="0.6" d="M8.2001 13.6H4.1001V32.65H8.2001V13.6Z" fill="white"/>
<path d="M9.49995 12.25H2.69995V14.95H9.49995V12.25Z" fill="#7A7A7A"/>
<path opacity="0.7" d="M9.49995 12.25H2.69995V13.6H9.49995V12.25Z" fill="white"/>
<path d="M20.4001 0H13.6001V34H20.4001V0Z" fill="#E5E5E5"/>
<path d="M19 1.34998H14.95V32.65H19V1.34998Z" fill="#59B4D9"/>
<path opacity="0.6" d="M19.05 24.5H14.95V32.65H19.05V24.5Z" fill="white"/>
<path d="M20.4001 23.1H13.6001V25.8H20.4001V23.1Z" fill="#7A7A7A"/>
<path opacity="0.7" d="M20.4001 23.1H13.6001V24.45H20.4001V23.1Z" fill="white"/>
<path d="M31.3 0H24.5V34H31.3V0Z" fill="#E5E5E5"/>
<path d="M29.9001 1.34998H25.8501V32.65H29.9001V1.34998Z" fill="#59B4D9"/>
<path opacity="0.6" d="M29.9501 13.6H25.8501V32.65H29.9501V13.6Z" fill="white"/>
<path d="M31.3 12.25H24.5V14.95H31.3V12.25Z" fill="#7A7A7A"/>
<path opacity="0.7" d="M31.3 12.25H24.5V13.6H31.3V12.25Z" fill="white"/>
<path opacity="0.2" d="M9.49995 14.95H2.69995V16.3H9.49995V14.95Z" fill="#1E1E1E"/>
<path opacity="0.2" d="M31.25 14.95H24.45V16.3H31.25V14.95Z" fill="#1E1E1E"/>
<path opacity="0.2" d="M20.4001 25.85H13.6001V27.2H20.4001V25.85Z" fill="#1E1E1E"/>
</svg>
