<svg width="16" height="16" viewBox="0 0 16 16" fill="none" xmlns="http://www.w3.org/2000/svg">
<path d="M7 5H2V0H3V3.3L3.8 2.4L4.6 1.7L5.4 1L6.3 0.5C6.59362 0.297586 6.94345 0.192635 7.3 0.2L8.5 0L9.9 0.2L11.3 0.8L12.4 1.6C12.7233 1.95924 12.9927 2.36344 13.2 2.8C13.459 3.20359 13.6609 3.64107 13.8 4.1C13.9226 4.55696 13.9897 5.027 14 5.5C13.9637 6.21504 13.8291 6.92168 13.6 7.6C13.2924 8.22655 12.8874 8.80035 12.4 9.3L5.9 15.9L5.1 15.1L11.7 8.6C12.0904 8.19804 12.3964 7.72203 12.6 7.2C12.8748 6.67624 13.0125 6.09136 13 5.5C13.0218 4.90769 12.8836 4.32046 12.6 3.8C12.4219 3.23995 12.072 2.75016 11.6 2.4C11.2498 1.928 10.76 1.57815 10.2 1.4C9.67954 1.11642 9.09231 0.978247 8.5 1C7.9834 0.981133 7.4696 1.08389 7 1.3L5.8 2L4.8 2.9L3.7 4H7V5Z" fill="#0078D4"/>
</svg>
