<svg width="16" height="16" viewBox="0 0 16 16" fill="none" xmlns="http://www.w3.org/2000/svg">
<g clip-path="url(#clip0)">
<path d="M9.10021 10.4C9.67398 10.0352 10.148 9.53353 10.4797 8.94002C10.8114 8.34651 10.9902 7.67983 11.0002 7C11.0002 5.93913 10.5788 4.92172 9.82863 4.17157C9.07849 3.42143 8.06107 3 7.00021 3C5.93934 3 4.92192 3.42143 4.17178 4.17157C3.42163 4.92172 3.00021 5.93913 3.00021 7C3.01016 7.67983 3.18903 8.34651 3.5207 8.94002C3.85237 9.53353 4.32643 10.0352 4.90021 10.4C3.75008 10.8144 2.75707 11.5758 2.05842 12.5789C1.35978 13.5821 0.990001 14.7776 1.00021 16H2.00021C2.00021 14.6739 2.52699 13.4021 3.46467 12.4645C4.40235 11.5268 5.67412 11 7.00021 11C8.32629 11 9.59806 11.5268 10.5357 12.4645C11.4734 13.4021 12.0002 14.6739 12.0002 16H13.0002C13.0104 14.7776 12.6406 13.5821 11.942 12.5789C11.2433 11.5758 10.2503 10.8144 9.10021 10.4ZM4.00021 7C3.98624 6.60227 4.05428 6.20592 4.2001 5.83563C4.34592 5.46533 4.5664 5.12901 4.84781 4.8476C5.12922 4.56619 5.46554 4.34572 5.83583 4.1999C6.20613 4.05408 6.60248 3.98603 7.00021 4C7.39793 3.98603 7.79428 4.05408 8.16458 4.1999C8.53487 4.34572 8.87119 4.56619 9.1526 4.8476C9.43401 5.12901 9.65449 5.46533 9.80031 5.83563C9.94613 6.20592 10.0142 6.60227 10.0002 7C10.0142 7.39773 9.94613 7.79408 9.80031 8.16437C9.65449 8.53467 9.43401 8.87099 9.1526 9.1524C8.87119 9.43381 8.53487 9.65428 8.16458 9.8001C7.79428 9.94592 7.39793 10.014 7.00021 10C6.60248 10.014 6.20613 9.94592 5.83583 9.8001C5.46554 9.65428 5.12922 9.43381 4.84781 9.1524C4.5664 8.87099 4.34592 8.53467 4.2001 8.16437C4.05428 7.79408 3.98624 7.39773 4.00021 7Z" fill="#0078D4"/>
<path d="M14 7C14.0277 6.07324 13.8656 5.1506 13.5236 4.28881C13.1816 3.42701 12.667 2.64425 12.0114 1.98864C11.3557 1.33303 10.573 0.818415 9.71119 0.47643C8.84939 0.134445 7.92676 -0.0276878 7 -4.59957e-06C5.53483 0.0317979 4.12829 0.58158 3.02993 1.5518C1.93157 2.52202 1.21239 3.84995 1 5.3H1C1 5.4326 1.05268 5.55978 1.14645 5.65355C1.24021 5.74732 1.36739 5.8 1.5 5.8C1.59374 5.81785 1.69063 5.8085 1.77923 5.77306C1.86782 5.73762 1.94443 5.67757 2 5.6C2.18072 4.37665 2.77585 3.25239 3.68592 2.41513C4.59599 1.57786 5.76586 1.07832 7 0.999995C7.79166 0.98646 8.57795 1.13241 9.31202 1.42914C10.0461 1.72588 10.7129 2.16733 11.2728 2.7272C11.8327 3.28707 12.2741 3.95391 12.5709 4.68798C12.8676 5.42205 13.0135 6.20833 13 7V8H8.5C8.36739 8 8.24021 8.05267 8.14645 8.14644C8.05268 8.24021 8 8.36739 8 8.5C8 8.6326 8.05268 8.75978 8.14645 8.85355C8.24021 8.94732 8.36739 9 8.5 9H13.5C13.6326 9 13.7598 8.94732 13.8536 8.85355C13.9473 8.75978 14 8.6326 14 8.5V7Z" fill="#0078D4"/>
</g>
<defs>
<clipPath id="clip0">
<path d="M0 0H16V16H0V0Z" fill="white"/>
</clipPath>
</defs>
</svg>
