<svg xmlns="http://www.w3.org/2000/svg" width="18" height="18" viewBox="0 0 18 18">
  <defs>
    <linearGradient id="a8a99b72-4483-4aed-9c09-505d227627b7" x1="9" y1="778.831" x2="9" y2="790.831" gradientTransform="matrix(1, 0, 0, -1, 0, 791.516)" gradientUnits="userSpaceOnUse">
      <stop offset="0" stop-color="#0078d4" />
      <stop offset="0.82" stop-color="#5ea0ef" />
    </linearGradient>
    <linearGradient id="ab11b5a0-213c-48d8-9a74-d2a9e98a4058" x1="9" y1="774.201" x2="9" y2="778.831" gradientTransform="matrix(1, 0, 0, -1, 0, 791.516)" gradientUnits="userSpaceOnUse">
      <stop offset="0" stop-color="#ccc" />
      <stop offset="1" stop-color="#707070" />
    </linearGradient>
  </defs>
  <rect y="0.685" width="18" height="12" rx="0.6" fill="url(#a8a99b72-4483-4aed-9c09-505d227627b7)" />
  <path d="M12.61,16.315c-1.78-.28-1.85-1.56-1.85-3.63H7.23c0,2.07-.06,3.35-1.84,3.63a1,1,0,0,0-.89,1h9A1,1,0,0,0,12.61,16.315Z" fill="url(#ab11b5a0-213c-48d8-9a74-d2a9e98a4058)" />
  <path d="M4.939,6.782l0,2.588a.147.147,0,0,0,.147.147.149.149,0,0,0,.086-.028l.712-.512A4.174,4.174,0,0,0,7.506,10.3a4.084,4.084,0,0,0,1.674.361,3.909,3.909,0,0,0,.684-.06,3.993,3.993,0,0,0,1.123-.369,3.848,3.848,0,0,0,.952-.677,3.917,3.917,0,0,0,1.108-1.983.224.224,0,0,0-.153-.261.216.216,0,0,0-.066-.01.223.223,0,0,0-.214.158v0A3.372,3.372,0,0,1,11.52,9.079a3.186,3.186,0,0,1-1.762.712c-.093.009-.186.013-.278.013a3.161,3.161,0,0,1-1.531-.4,3.106,3.106,0,0,1-1.135-1.1l.99-.712a.147.147,0,0,0-.048-.261L5.123,6.641a.128.128,0,0,0-.038,0A.146.146,0,0,0,4.939,6.782Z" fill="#fff" opacity="0.8" />
  <path d="M13.065,6.628V4.041a.148.148,0,0,0-.148-.147.146.146,0,0,0-.085.028l-.67.484a4.193,4.193,0,0,0-1.7-1.357,4.114,4.114,0,0,0-1.618-.335A3.929,3.929,0,0,0,4.962,5.857a.2.2,0,0,0,.136.227.225.225,0,0,0,.058.008.2.2,0,0,0,.188-.139v0a3.4,3.4,0,0,1,1.1-1.632A3.213,3.213,0,0,1,8.2,3.607c.094-.009.188-.014.281-.014a3.13,3.13,0,0,1,1.517.4,3.052,3.052,0,0,1,1.154,1.143l-.957.69a.147.147,0,0,0,.049.261l2.634.687a.122.122,0,0,0,.037.005A.147.147,0,0,0,13.065,6.628Z" fill="#fff" />
</svg>