<svg width="16" height="16" viewBox="0 0 16 16" fill="none" xmlns="http://www.w3.org/2000/svg">
<g clip-path="url(#clip0)">
<path d="M15.1 1.7L15.4 2.4C15.5736 2.55387 15.6811 2.76881 15.7 3C15.8005 3.22232 15.8678 3.45816 15.9 3.7C15.9823 3.95823 16.0162 4.22945 16 4.5C15.9824 4.90665 15.9153 5.30963 15.8 5.7C15.7111 6.08133 15.5768 6.45063 15.4 6.8L14.7 7.7L13.8 8.4L12.7 8.8L11.5 9H10.8L4.5 15.2L3.6 15.8L2.6 16L1.6 15.8C1.27608 15.6906 0.995712 15.4803 0.8 15.2C0.519663 15.0043 0.309389 14.7239 0.2 14.4C0.0862188 14.0778 0.0188766 13.7411 0 13.4C0.00910713 13.0577 0.0767509 12.7195 0.2 12.4C0.32891 12.0583 0.534121 11.7504 0.8 11.5L7.1 5.2C7.06382 5.15942 7.03629 5.11188 7.01909 5.0603C7.0019 5.00872 6.9954 4.95418 7 4.9V4.5C7.01757 4.09335 7.08474 3.69037 7.2 3.3C7.2889 2.91867 7.42319 2.54937 7.6 2.2L8.3 1.3L9.2 0.6L10.3 0.2L11.5 0H12.3L13 0.2C13.2312 0.218943 13.4461 0.326416 13.6 0.5L14.3 0.8L11.2 4L12 4.8L15.1 1.7ZM11.5 8C11.9824 7.99754 12.459 7.8954 12.9 7.7C13.3017 7.52684 13.673 7.29051 14 7C14.2905 6.67302 14.5268 6.30166 14.7 5.9C14.8954 5.45899 14.9975 4.98235 15 4.5C14.9815 4.12619 14.9143 3.7564 14.8 3.4L12 6.2L9.8 4L12.6 1.2L11.5 1C11.0176 1.00246 10.541 1.1046 10.1 1.3C9.69834 1.47316 9.32698 1.70949 9 2C8.70949 2.32698 8.47316 2.69834 8.3 3.1C8.1046 3.54101 8.00246 4.01765 8 4.5V5C8.1 5.2 8.1 5.4 8.2 5.5L1.5 12.2L1.1 12.8C1.01969 12.9893 0.985415 13.1949 1 13.4C0.985415 13.6051 1.01969 13.8107 1.1 14C1.17493 14.206 1.31547 14.3817 1.5 14.5C1.61832 14.6845 1.794 14.8251 2 14.9H3.2L3.8 14.5L10.5 7.8L11 8H11.5Z" fill="#0078D4"/>
</g>
<defs>
<clipPath id="clip0">
<path d="M0 0H16V16H0V0Z" fill="white"/>
</clipPath>
</defs>
</svg>
