<svg id="ae9276e7-2d59-4cda-b488-e59c23657440" data-name="Layer 1" xmlns="http://www.w3.org/2000/svg" xmlns:xlink="http://www.w3.org/1999/xlink" width="64" height="64" viewBox="0 0 64 64">
  <defs>
    <linearGradient id="eb40f46d-1a85-4346-a345-dbe83ede211d" x1="42.639" y1="38.187" x2="42.639" y2="-5.18" gradientUnits="userSpaceOnUse">
      <stop offset="0.287" stop-color="#37c2b1"/>
      <stop offset="0.854" stop-color="#42e8ca"/>
    </linearGradient>
    <linearGradient id="a5ebfa9e-5671-4aea-8a6a-ad9e16dd948a" y1="42.437" x2="37.647" y2="42.437" gradientUnits="userSpaceOnUse">
      <stop offset="0.04" stop-color="#207067"/>
      <stop offset="0.5" stop-color="#37c2b1"/>
      <stop offset="0.587" stop-color="#35bbab"/>
      <stop offset="0.711" stop-color="#30a99a"/>
      <stop offset="0.855" stop-color="#278b7f"/>
      <stop offset="0.96" stop-color="#207067"/>
    </linearGradient>
    <linearGradient id="b3a7c4d5-6857-4867-be19-25c400ab395f" y1="45.028" x2="37.647" y2="45.028" gradientUnits="userSpaceOnUse">
      <stop offset="0.001" stop-color="#dbdbdb"/>
      <stop offset="0.401" stop-color="#f5f5f5"/>
      <stop offset="0.599" stop-color="#f5f5f5"/>
      <stop offset="1" stop-color="#dbdbdb"/>
    </linearGradient>
    <linearGradient id="ed095fb5-47ff-4e8a-88c7-d42bf3d95285" x1="44.676" y1="64" x2="44.676" y2="34.253" gradientUnits="userSpaceOnUse">
      <stop offset="0.039" stop-color="#37c2b1"/>
      <stop offset="0.539" stop-color="#42e8ca"/>
    </linearGradient>
  </defs>
  <title>insiders_64x</title>
  <g>
    <path d="M55.669,11.835A12.218,12.218,0,0,0,43.208,0,12.512,12.512,0,0,0,31.284,8.28,11.557,11.557,0,0,0,21.277,19.547c0,6.311,5.386,11.427,12.03,11.427H54.361A9.931,9.931,0,0,0,64,21.273,9.741,9.741,0,0,0,55.669,11.835Z" fill="url(#eb40f46d-1a85-4346-a345-dbe83ede211d)"/>
    <path d="M18.824,27.712C8.428,27.712,0,24.66,0,20.9V57.161c0,3.734,8.289,6.767,18.565,6.817h.259c10.4,0,18.823-3.051,18.823-6.817V20.9C37.647,24.66,29.219,27.712,18.824,27.712Z" fill="url(#a5ebfa9e-5671-4aea-8a6a-ad9e16dd948a)"/>
    <path d="M37.647,20.9c0,3.765-8.428,6.817-18.823,6.817S0,24.66,0,20.9s8.428-6.817,18.824-6.817S37.647,17.13,37.647,20.9" fill="#f2f2f2"/>
    <path d="M33.252,20.343c0,2.395-6.46,4.334-14.429,4.334S4.394,22.738,4.394,20.343s6.461-4.334,14.429-4.334,14.429,1.94,14.429,4.334" fill="#3cd4c2"/>
    <path d="M18.823,21.342a34.881,34.881,0,0,0-11.43,1.645,33.694,33.694,0,0,0,11.43,1.69,33.692,33.692,0,0,0,11.431-1.69A34.888,34.888,0,0,0,18.823,21.342Z" fill="#258277"/>
    <path d="M23.086,43.474v.011h-.1L19.738,48.5,14.445,33.183l-5.2,9.5C3.72,41.494,0,39.33,0,36.836v3.752c0,2.791,4.646,5.179,11.28,6.232l.008.009,2.379-4.406,5.075,14.449,6.433-9.894c7.255-.946,12.472-3.436,12.472-6.39V36.836C37.647,40.07,31.427,42.774,23.086,43.474Z" fill="url(#b3a7c4d5-6857-4867-be19-25c400ab395f)"/>
    <path d="M46.808,63.815l1.112-3.661L50.1,58.9l3.753,1.668,2.409-2.456v-.278l-1.714-3.289,1.019-2.317,3.753-1.344h.417V47.505h-.463l-3.707-1.112-1.2-2.132,1.622-3.8L53.526,38.1h-.278l-3.29,1.668-2.27-1.39-1.483-4.124H42.777v.51l-1.112,3.66L39.3,39.443,35.27,37.589l-2.363,2.456.232.463L34.9,43.937,33.973,46.3l-4.356,1.344v3.429h.51l3.661,1.112,1.019,2.363L33,58.532l2.456,2.41.417-.232L39.3,58.95l2.364.926L43.24,64h3.382ZM41.248,52.88a4.931,4.931,0,1,1,6.9-7.043h0a4.931,4.931,0,1,1-6.9,7.043Z" fill="url(#ed095fb5-47ff-4e8a-88c7-d42bf3d95285)"/>
  </g>
</svg>
