<svg id="Layer_1" data-name="Layer 1" xmlns="http://www.w3.org/2000/svg" viewBox="0 0 16 16"><defs><style>.cls-1{fill:#fff;}</style></defs><title>sql_database_inverse</title><g id="iconBg"><rect class="cls-1" x="8" y="8" width="1.12" height="3.35"/><path class="cls-1" d="M7.75.13C4.25.13,1.3,1.34,1.3,2.59V13.3c0,1.36,3.67,2.57,7.13,2.57s6.27-1.15,6.27-2.46V2.7C14.7,1.39,11.26.13,7.75.13ZM5.77,8H3.53V9.12H5.77v3.35H2.42V11.35H4.65V10.23H2.42V6.89H5.77Zm-.5-4.51L5,3.42a5.74,5.74,0,0,1-.7-.23,1.92,1.92,0,0,1-.56-.33.51.51,0,0,1-.2-.37c0-.69,2-1.25,4.46-1.25s4.47.56,4.47,1.25a.51.51,0,0,1-.2.37,1.92,1.92,0,0,1-.56.33,6.38,6.38,0,0,1-.7.23l-.31.07-.6.11A13.55,13.55,0,0,1,8,3.75a13.55,13.55,0,0,1-2.1-.15ZM11,14,9.44,12.47H6.88V6.89h3.35v4.79l1.51,1.51Zm2.63-1.51H11.35V6.89h1.11v4.46h1.12Z"/></g></svg>