<svg xmlns="http://www.w3.org/2000/svg" width="16" height="16"><style type="text/css">.icon-canvas-transparent{opacity:0;fill:#F6F6F6;} .icon-vs-out{fill:#F6F6F6;} .icon-vs-bg{fill:#424242;} .icon-vs-fg{fill:#F0EFF1;} .icon-vs-red{fill:#E51400;} .icon-white{fill:#FFFFFF;}</style><path class="icon-canvas-transparent" d="M16 16h-16v-16h16v16z" id="canvas"/><path class="icon-vs-out" d="M15 15h-.706c-.77.616-1.733 1-2.794 1s-2.023-.384-2.793-1h-7.707v-15h14v8.707c.616.77 1 1.733 1 2.793s-.384 2.023-1 2.794v.706z" id="outline"/><path class="icon-vs-bg" d="M11 4v2h-5v-2h5zm-3.724 9h-3.276v-11h9v5.276c.354.126.693.28 1 .485v-6.761h-12v1h1v1h-1v1h1v1h-1v1h1v1h-1v1h1v1h-1v1h1v1h-1v1h1v1h-1v1h5.762c-.206-.307-.36-.646-.486-1z" id="iconBg"/><path class="icon-vs-fg" d="M7 11.5c0-2.481 2.019-4.5 4.5-4.5.528 0 1.028.108 1.5.276v-5.276h-9v11h3.276c-.168-.472-.276-.972-.276-1.5zm-1-6.5v-1h5v2h-5v-1z" id="iconFg"/><path class="icon-vs-red" d="M11.5 8c-1.933 0-3.5 1.567-3.5 3.5s1.567 3.5 3.5 3.5 3.5-1.567 3.5-3.5-1.567-3.5-3.5-3.5zm1.854 4.646l-.707.707-1.147-1.146-1.146 1.147-.707-.707 1.147-1.146-1.147-1.146.707-.707 1.146 1.147 1.146-1.147.707.707-1.146 1.145 1.147 1.146z" id="notificationBg"/><path class="icon-white" d="M12.207 11.5l1.147 1.146-.707.707-1.147-1.146-1.146 1.147-.707-.707 1.147-1.146-1.147-1.146.707-.707 1.146 1.147 1.146-1.147.707.707-1.146 1.145z" id="notificationFg"/></svg>