<svg xmlns="http://www.w3.org/2000/svg" width="16" height="16" viewBox="0 0 16 16">
  <title>Artboard 210</title>
  <g>
    <path d="M11.5,7,7,16h9Zm.5,8H11V14h1Zm-1-1.5V11h1v2.5Z" fill="#db7500"/>
    <path d="M5,6h6V3H5ZM6,4h4V5H6Z" fill="#fff"/>
    <polygon points="5.882 16 6.382 15 2 15 2 13 3 13 3 12 2 12 2 10.023 3 10.023 3 9.023 2 9.023 2 7.039 3 7.039 3 6.039 2 6.039 2 4 3 4 3 3 2 3 2 1 13 1 13 7.764 14 9.764 14 0 1 0 1 3 0 3 0 4 1 4 1 6.039 0 6.039 0 7.039 1 7.039 1 9.023 0 9.023 0 10.023 1 10.023 1 12 0 12 0 13 1 13 1 16 5.882 16" fill="#fff"/>
    <path d="M11,15h1V14H11Zm0-4v2.5h1V11Z" fill="#fff"/>
  </g>
</svg>
