<svg xmlns="http://www.w3.org/2000/svg" width="16" height="16"><style type="text/css">.icon-canvas-transparent{opacity:0;fill:#F6F6F6;} .icon-vs-out{fill:#F6F6F6;} .icon-vs-bg{fill:#424242;} .icon-vs-fg{fill:#F0EFF1;} .icon-vs-yellow{fill:#FFCC00;}</style><path class="icon-canvas-transparent" d="M16 16h-16v-16h16v16z" id="canvas"/><path class="icon-vs-out" d="M16 14l-1 2h-7l-.5-1h-6.5v-15h14v12l1 2z" id="outline"/><path class="icon-vs-bg" d="M11 4v2h-5v-2h5zm-3.515 9h-3.485v-11h9v6.002l1 2.016v-9.018h-12v1h1v1h-1v1h1v1h-1v1h1v1h-1v1h1v1h-1v1h1v1h-1v1h1v1h-1v1h4.982l.503-1z" id="iconBg"/><path class="icon-vs-fg" d="M10.477 7.048l.023-.048h2.5v-4.975l-8.96-.011-.04 10.979h3.488l2.989-5.945zm-4.477-3.048h5v2h-5v-2z" id="iconFg"/><path class="icon-vs-yellow" d="M11.891 8.016h-.781l-3.016 6 .515.984h5.766l.484-1-2.968-5.984zm.109 5.984h-1v-1h1v1zm0-2h-1v-2h1v2z" id="notificationBg"/><path class="icon-black" d="M12 12h-1v-2h1v2zm0 1h-1v1h1v-1z" id="notificationFg"/></svg>