<svg xmlns="http://www.w3.org/2000/svg" width="16" height="16" viewBox="0 0 16 16">
  <title>Artboard 250</title>
  <g>
    <path d="M15.645,9.75A4.528,4.528,0,0,0,13.25,7.356a4.479,4.479,0,0,0-3.5,0A4.528,4.528,0,0,0,7.355,9.75a4.491,4.491,0,0,0,0,3.5A4.526,4.526,0,0,0,9.75,15.645a4.491,4.491,0,0,0,3.5,0,4.526,4.526,0,0,0,2.395-2.395,4.491,4.491,0,0,0,0-3.5Z" fill="#57a300"/>
    <path d="M5,6h6V3H5ZM6,4h4V5H6Z"/>
    <path d="M1,0V3H0V4H1V6.039H0v1H1V9.023H0v1H1V12H0v1H1v3H7.938a6.581,6.581,0,0,1-.524-.464A3.812,3.812,0,0,1,6.961,15H2V13H3V12H2V10.023H3v-1H2V7.039H3v-1H2V4H3V3H2V1H13V5.961a4.87,4.87,0,0,1,1,.375V0Z"/>
    <path d="M13.224,9.794l.7.7-3,3L9.073,11.648l.7-.7,1.148,1.149Z" fill="#fff"/>
  </g>
</svg>
