<svg xmlns="http://www.w3.org/2000/svg" width="16" height="16" viewBox="0 0 16 16">
  <title>Artboard 10</title>
  <path d="M16,16H0V0H16Z" fill="#f6f6f6" fill-opacity="0"/>
  <path d="M15,15h-.706a4.4,4.4,0,0,1-5.587,0H1V0H15V8.707a4.4,4.4,0,0,1,0,5.587Z" fill="#f6f6f6"/>
  <path d="M11,4V6H6V4ZM7.276,13H4V2h9V7.276a4.512,4.512,0,0,1,1,.485V1H2V2H3V3H2V4H3V5H2V6H3V7H2V8H3V9H2v1H3v1H2v1H3v1H2v1H7.762A4.472,4.472,0,0,1,7.276,13Z" fill="#424242"/>
  <path d="M7,11.5A4.505,4.505,0,0,1,11.5,7a4.454,4.454,0,0,1,1.5.276V2H4V13H7.276A4.454,4.454,0,0,1,7,11.5ZM6,5V4h5V6H6Z" fill="#f0eff1"/>
  <path d="M11.5,8A3.5,3.5,0,1,0,15,11.5,3.5,3.5,0,0,0,11.5,8Zm-.75,5.707L8.9,11.853l.708-.706,1.146,1.146L13.4,9.646l.706.707Z" fill="#393"/>
  <path d="M14.1,10.353l-3.35,3.354L8.9,11.853l.708-.706,1.146,1.146L13.4,9.646Z" fill="#fff"/>
</svg>
