<svg width="16" height="16" viewBox="0 0 16 16" fill="none" xmlns="http://www.w3.org/2000/svg">
<g clip-path="url(#clip0)">
<rect width="16" height="16" fill="white"/>
<path d="M8 0C8.73438 0 9.44271 0.0963542 10.125 0.289062C10.8073 0.476562 11.4427 0.744792 12.0312 1.09375C12.625 1.44271 13.1641 1.86198 13.6484 2.35156C14.138 2.83594 14.5573 3.375 14.9062 3.96875C15.2552 4.55729 15.5234 5.19271 15.7109 5.875C15.9036 6.55729 16 7.26562 16 8C16 8.73438 15.9036 9.44271 15.7109 10.125C15.5234 10.8073 15.2552 11.4453 14.9062 12.0391C14.5573 12.6276 14.138 13.1667 13.6484 13.6562C13.1641 14.1406 12.625 14.5573 12.0312 14.9062C11.4427 15.2552 10.8073 15.526 10.125 15.7188C9.44271 15.9062 8.73438 16 8 16C7.26562 16 6.55729 15.9062 5.875 15.7188C5.19271 15.526 4.55469 15.2578 3.96094 14.9141C3.36719 14.5651 2.82552 14.1484 2.33594 13.6641C1.85156 13.1745 1.4349 12.6328 1.08594 12.0391C0.742188 11.4453 0.473958 10.8099 0.28125 10.1328C0.09375 9.45052 0 8.73958 0 8C0 7.26562 0.09375 6.55729 0.28125 5.875C0.473958 5.19271 0.744792 4.55729 1.09375 3.96875C1.44271 3.375 1.85938 2.83594 2.34375 2.35156C2.83333 1.86198 3.3724 1.44271 3.96094 1.09375C4.55469 0.744792 5.19271 0.476562 5.875 0.289062C6.55729 0.0963542 7.26562 0 8 0ZM8 15C8.64583 15 9.26562 14.9167 9.85938 14.75C10.4583 14.5833 11.0156 14.349 11.5312 14.0469C12.0521 13.7396 12.5234 13.375 12.9453 12.9531C13.3724 12.526 13.737 12.0547 14.0391 11.5391C14.3464 11.0182 14.5833 10.4609 14.75 9.86719C14.9167 9.26823 15 8.64583 15 8C15 7.35417 14.9167 6.73438 14.75 6.14062C14.5833 5.54167 14.3464 4.98438 14.0391 4.46875C13.737 3.94792 13.3724 3.47656 12.9453 3.05469C12.5234 2.6276 12.0521 2.26302 11.5312 1.96094C11.0156 1.65365 10.4583 1.41667 9.85938 1.25C9.26562 1.08333 8.64583 1 8 1C7.35417 1 6.73177 1.08333 6.13281 1.25C5.53906 1.41667 4.98177 1.65365 4.46094 1.96094C3.94531 2.26302 3.47396 2.6276 3.04688 3.05469C2.625 3.47656 2.26042 3.94792 1.95312 4.46875C1.65104 4.98438 1.41667 5.54167 1.25 6.14062C1.08333 6.73438 1 7.35417 1 8C1 8.64583 1.08333 9.26823 1.25 9.86719C1.41667 10.4609 1.65104 11.0182 1.95312 11.5391C2.25521 12.0547 2.61979 12.526 3.04688 12.9531C3.47396 13.3802 3.94531 13.7448 4.46094 14.0469C4.98177 14.349 5.53906 14.5833 6.13281 14.75C6.73177 14.9167 7.35417 15 8 15ZM8.5 7.49219H12V8.49219H8.5V12H7.5V8.49219H4V7.49219H7.5V4H8.5V7.49219Z" fill="white"/>
<path d="M8 0C8.73438 0 9.44271 0.0963542 10.125 0.289062C10.8073 0.476562 11.4427 0.744792 12.0312 1.09375C12.625 1.44271 13.1641 1.86198 13.6484 2.35156C14.138 2.83594 14.5573 3.375 14.9062 3.96875C15.2552 4.55729 15.5234 5.19271 15.7109 5.875C15.9036 6.55729 16 7.26562 16 8C16 8.73438 15.9036 9.44271 15.7109 10.125C15.5234 10.8073 15.2552 11.4453 14.9062 12.0391C14.5573 12.6276 14.138 13.1667 13.6484 13.6562C13.1641 14.1406 12.625 14.5573 12.0312 14.9062C11.4427 15.2552 10.8073 15.526 10.125 15.7188C9.44271 15.9062 8.73438 16 8 16C7.26562 16 6.55729 15.9062 5.875 15.7188C5.19271 15.526 4.55469 15.2578 3.96094 14.9141C3.36719 14.5651 2.82552 14.1484 2.33594 13.6641C1.85156 13.1745 1.4349 12.6328 1.08594 12.0391C0.742188 11.4453 0.473958 10.8099 0.28125 10.1328C0.09375 9.45052 0 8.73958 0 8C0 7.26562 0.09375 6.55729 0.28125 5.875C0.473958 5.19271 0.744792 4.55729 1.09375 3.96875C1.44271 3.375 1.85938 2.83594 2.34375 2.35156C2.83333 1.86198 3.3724 1.44271 3.96094 1.09375C4.55469 0.744792 5.19271 0.476562 5.875 0.289062C6.55729 0.0963542 7.26562 0 8 0ZM8 15C8.64583 15 9.26562 14.9167 9.85938 14.75C10.4583 14.5833 11.0156 14.349 11.5312 14.0469C12.0521 13.7396 12.5234 13.375 12.9453 12.9531C13.3724 12.526 13.737 12.0547 14.0391 11.5391C14.3464 11.0182 14.5833 10.4609 14.75 9.86719C14.9167 9.26823 15 8.64583 15 8C15 7.35417 14.9167 6.73438 14.75 6.14062C14.5833 5.54167 14.3464 4.98438 14.0391 4.46875C13.737 3.94792 13.3724 3.47656 12.9453 3.05469C12.5234 2.6276 12.0521 2.26302 11.5312 1.96094C11.0156 1.65365 10.4583 1.41667 9.85938 1.25C9.26562 1.08333 8.64583 1 8 1C7.35417 1 6.73177 1.08333 6.13281 1.25C5.53906 1.41667 4.98177 1.65365 4.46094 1.96094C3.94531 2.26302 3.47396 2.6276 3.04688 3.05469C2.625 3.47656 2.26042 3.94792 1.95312 4.46875C1.65104 4.98438 1.41667 5.54167 1.25 6.14062C1.08333 6.73438 1 7.35417 1 8C1 8.64583 1.08333 9.26823 1.25 9.86719C1.41667 10.4609 1.65104 11.0182 1.95312 11.5391C2.25521 12.0547 2.61979 12.526 3.04688 12.9531C3.47396 13.3802 3.94531 13.7448 4.46094 14.0469C4.98177 14.349 5.53906 14.5833 6.13281 14.75C6.73177 14.9167 7.35417 15 8 15ZM8.5 7.49219H12V8.49219H8.5V12H7.5V8.49219H4V7.49219H7.5V4H8.5V7.49219Z" fill="white"/>
</g>
<defs>
<clipPath id="clip0">
<rect width="16" height="16" fill="white"/>
</clipPath>
</defs>
</svg>
