<svg id="Layer_1" data-name="Layer 1" xmlns="http://www.w3.org/2000/svg" viewBox="0 0 12 12"><defs><style>.cls-1{fill:#fff;}</style></defs><title>add_12x12</title><path class="cls-1" d="M6,.88a5.17,5.17,0,0,1,1.4.19A5.26,5.26,0,0,1,11,4.73a5.3,5.3,0,0,1,0,2.79,5.26,5.26,0,0,1-3.67,3.67,5.3,5.3,0,0,1-2.79,0A5.26,5.26,0,0,1,.9,7.53a5.3,5.3,0,0,1,0-2.79A5.26,5.26,0,0,1,4.57,1.07,5.17,5.17,0,0,1,6,.88Zm0,9.75a4.4,4.4,0,0,0,1.2-.16A4.56,4.56,0,0,0,8.24,10,4.5,4.5,0,0,0,9.85,8.4a4.56,4.56,0,0,0,.45-1.08,4.51,4.51,0,0,0,0-2.39,4.56,4.56,0,0,0-.45-1.08A4.5,4.5,0,0,0,8.24,2.24a4.56,4.56,0,0,0-1.08-.45,4.51,4.51,0,0,0-2.39,0,4.56,4.56,0,0,0-1.08.45A4.5,4.5,0,0,0,2.08,3.86a4.56,4.56,0,0,0-.45,1.08,4.51,4.51,0,0,0,0,2.39A4.56,4.56,0,0,0,2.08,8.4,4.5,4.5,0,0,0,3.7,10a4.56,4.56,0,0,0,1.08.45A4.4,4.4,0,0,0,6,10.63Zm.38-4.88H8.22V6.5H6.34V8.38H5.59V6.5H3.72V5.75H5.59V3.88h.75Z"/></svg>