<?xml version="1.0" encoding="UTF-8" standalone="no"?>
<!-- Generator: Adobe Illustrator 25.0.0, SVG Export Plug-In . SVG Version: 6.00 Build 0)  -->

<svg
   version="1.1"
   id="Layer_1"
   x="0px"
   y="0px"
   viewBox="0 0 16 16"
   style="enable-background:new 0 0 16 16;"
   xml:space="preserve"
   sodipodi:docname="customZoomDark.svg"
   inkscape:version="1.2 (dc2aedaf03, 2022-05-15)"
   xmlns:inkscape="http://www.inkscape.org/namespaces/inkscape"
   xmlns:sodipodi="http://sodipodi.sourceforge.net/DTD/sodipodi-0.dtd"
   xmlns="http://www.w3.org/2000/svg"
   xmlns:svg="http://www.w3.org/2000/svg"><defs
   id="defs148" /><sodipodi:namedview
   id="namedview146"
   pagecolor="#ffffff"
   bordercolor="#000000"
   borderopacity="0.25"
   inkscape:showpageshadow="2"
   inkscape:pageopacity="0.0"
   inkscape:pagecheckerboard="0"
   inkscape:deskcolor="#d1d1d1"
   showgrid="false"
   inkscape:zoom="14.75"
   inkscape:cx="8"
   inkscape:cy="8"
   inkscape:window-width="1792"
   inkscape:window-height="1049"
   inkscape:window-x="-8"
   inkscape:window-y="-8"
   inkscape:window-maximized="1"
   inkscape:current-layer="Layer_1" />
<style
   type="text/css"
   id="style137">
	.st0{fill:#F6F6F6;fill-opacity:0;}
	.st1{fill:#0000;}
	.st2{fill:#fff;}
	.st3{fill:#0000;}
</style>
<g
   id="canvas"
   transform="matrix(-1,0,0,1,15.95,0)">
	<path
   class="st0"
   d="M 16,16 H 0 V 0 h 16 z"
   id="path139" />
</g>
<path
   id="outline"
   class="st1"
   d="m -0.05,5.8 c 0,-3.2 2.6,-5.7 5.8,-5.8 3.2,0 5.8,2.6 5.9,5.8 0,1 -0.3,2 -0.8,2.9 l 4.7,4.7 c 0.6,0.6 0.6,1.5 0,2.1 -0.6,0.6 -1.5,0.6 -2.1,0 l -4.7,-4.7 c -0.4,0.3 -0.9,0.4 -1.3,0.6 l 0.8,0.8 0.7,3.8 h -1.4 l -2.4,-0.8 -5.2,-5.1 1,-1 c -0.6,-1 -1,-2.1 -1,-3.3 z" />
<path
   id="iconBg"
   class="st2"
   d="m 5.55,9.6 c 0.1,0 0.2,0 0.2,0 C 7.95,9.7 9.65,8 9.65,5.8 9.65,3.7 7.95,2 5.75,2 3.65,2 1.95,3.7 1.95,5.8 v 0 c 0,0.6 0.2,1.2 0.5,1.8 L 1.75,8.3 C 1.35,7.6 1.05,6.7 1.05,5.8 1.05,3.2 3.15,1.1 5.85,1 v 0 c 2.6,0 4.8,2.2 4.8,4.8 0,1.1 -0.4,2.2 -1.1,3 l 5.3,5.3 c 0.2,0.2 0.2,0.5 0,0.7 -0.2,0.2 -0.5,0.2 -0.7,0 L 8.85,9.5 c -0.7,0.6 -1.5,0.9 -2.3,1 z m 2.2,5.4 -2.1,-0.7 1.6,-1.6 z m -4.1,-5.8 -1.6,1.6 -0.7,-0.7 1.6,-1.6 z m 2.8,2.8 -1.6,1.6 -2.1,-2.1 1.6,-1.6 z" />
<path
   id="iconFg"
   class="st3"
   d="m 5.75,9.7 c -0.1,0 -0.2,0 -0.2,0 L 2.95,7.1 2.35,7.7 C 2.15,7.1 1.95,6.5 1.95,5.8 1.95,3.7 3.65,2 5.75,2 c 0,0 0,0 0,0 2.2,0 3.9,1.7 3.9,3.8 0,2.2 -1.7,3.9 -3.9,3.9 z" />
</svg>
