<?xml version="1.0" encoding="utf-8"?>
<!-- Generator: Adobe Illustrator 25.0.0, SVG Export Plug-In . SVG Version: 6.00 Build 0)  -->
<svg version="1.1" id="Layer_1" xmlns="http://www.w3.org/2000/svg" xmlns:xlink="http://www.w3.org/1999/xlink" x="0px" y="0px"
	 viewBox="0 0 16 16" style="enable-background:new 0 0 16 16;" xml:space="preserve">
<style type="text/css">
	.st0{fill:#F6F6F6;fill-opacity:0;}
	.st1{fill:#F6F6F6;}
	.st2{fill:#424242;}
	.st3{fill:#F0EFF1;}
</style>
<g id="canvas">
	<path class="st0" d="M16,16H0V0h16V16z"/>
</g>
<path id="outline" class="st1" d="M16,5.8c0-3.2-2.6-5.7-5.8-5.8C7,0,4.4,2.6,4.3,5.8c0,1,0.3,2,0.8,2.9l-4.7,4.7
	c-0.6,0.6-0.6,1.5,0,2.1c0.6,0.6,1.5,0.6,2.1,0l4.7-4.7c0.4,0.3,0.9,0.4,1.3,0.6l-0.8,0.8L7,16h1.4l2.4-0.8l5.2-5.1l-1-1
	C15.6,8.1,16,7,16,5.8z"/>
<path id="iconBg" class="st2" d="M10.4,9.6c-0.1,0-0.2,0-0.2,0C8,9.7,6.3,8,6.3,5.8C6.3,3.7,8,2,10.2,2C12.3,2,14,3.7,14,5.8v0
	c0,0.6-0.2,1.2-0.5,1.8l0.7,0.7c0.4-0.7,0.7-1.6,0.7-2.5c0-2.6-2.1-4.7-4.8-4.8v0C7.5,1,5.3,3.2,5.3,5.8c0,1.1,0.4,2.2,1.1,3
	l-5.3,5.3c-0.2,0.2-0.2,0.5,0,0.7c0.2,0.2,0.5,0.2,0.7,0l5.3-5.3c0.7,0.6,1.5,0.9,2.3,1L10.4,9.6z M8.2,15l2.1-0.7l-1.6-1.6L8.2,15z
	 M12.3,9.2l1.6,1.6l0.7-0.7L13,8.5L12.3,9.2z M9.5,12l1.6,1.6l2.1-2.1l-1.6-1.6L9.5,12z"/>
<path id="iconFg" class="st3" d="M10.2,9.7c0.1,0,0.2,0,0.2,0L13,7.1l0.6,0.6C13.8,7.1,14,6.5,14,5.8C14,3.7,12.3,2,10.2,2
	c0,0,0,0,0,0C8,2,6.3,3.7,6.3,5.8C6.3,8,8,9.7,10.2,9.7z"/>
</svg>
