<?xml version="1.0" encoding="utf-8"?>
<!-- Generator: Adobe Illustrator 25.0.0, SVG Export Plug-In . SVG Version: 6.00 Build 0)  -->
<svg version="1.1" id="Layer_1" xmlns="http://www.w3.org/2000/svg" xmlns:xlink="http://www.w3.org/1999/xlink" x="0px" y="0px"
	 viewBox="0 0 16 16" style="enable-background:new 0 0 16 16;" xml:space="preserve">
<style type="text/css">
	.st0{fill:#F6F6F6;fill-opacity:0;}
	.st1{fill:#0000;}
	.st2{fill:#0000;}
	.st3{fill:#fff;}
	.st4{fill:#fff;}
</style>
<path id="canvas" class="st0" d="M16,16H0V0h16V16z"/>
<path id="outline" class="st1" d="M7.9,0H6.5h-1h-1H2v2.4C1.7,2.5,1.3,2.7,1.1,3H0v13h14v-3h2V0H7.9z"/>
<path id="iconFg" class="st2" d="M9.2,2.8L10,3.5l-4.1,4L5,6.7V9H3.5C2.9,9,2.3,8.8,1.8,8.6v5.7h10.5v-3h2V2.8H9.2z"/>
<path id="iconBg" class="st3" d="M11,8H5v1h6V8z M7.4,1l2,2H14v8h-1V4H9.5l-2,2H12v5H4V9H3.5C3.3,9,3.2,9,3,8.9V12h9v2H2V8.6
	C1.6,8.5,1.3,8.2,1,7.9V15h12v-3h2V1H7.4z"/>
<path id="colorAction" class="st4" d="M1,5.5C1,4.1,2.1,3,3.5,3h3.1L5.2,1.6l0.7-0.7l0,0l0,0l2.6,2.6L5.9,6.2l0,0L5.2,5.5L6.6,4H3.5
	C2.7,4,2,4.7,2,5.5S2.7,7,3.5,7H4v1H3.5C2.1,8,1,6.9,1,5.5z"/>
</svg>
