<svg xmlns="http://www.w3.org/2000/svg" viewBox="0 0 16 16"><style type="text/css">.icon-canvas-transparent{opacity:0;fill:#F6F6F6;} .icon-vs-out{fill:#00000000;} .icon-vs-bg{fill:#fff;} .icon-vs-fg{fill:#00000000;}</style><rect class="icon-canvas-transparent" viewBox="0 0 16 16" id="canvas"/><rect class="icon-vs-out" width="16" height="15" id="outline"/><path class="icon-vs-bg" d="M1 1v13h14v-13h-14zm13 12h-12v-11h12v11zm-4-8h-6v-1h6v1zm-6 1h8v1h-8v-1zm6 3h-6v-1h6v1zm-6 1h8v1h-8v-1z" id="iconBg"/><path class="icon-vs-fg" d="M2 2v11h12v-11h-12zm2 2h6v1h-6v-1zm0 4h6v1h-6v-1zm8 3h-8v-1h8v1zm0-4h-8v-1h8v1z" id="iconFg"/></svg>
