<?xml version="1.0" encoding="utf-8"?>
<!-- Generator: Adobe Illustrator 25.0.0, SVG Export Plug-In . SVG Version: 6.00 Build 0)  -->
<svg version="1.1" id="Layer_1" xmlns="http://www.w3.org/2000/svg" xmlns:xlink="http://www.w3.org/1999/xlink" x="0px" y="0px"
	 viewBox="0 0 16 16" style="enable-background:new 0 0 16 16;" xml:space="preserve">
<style type="text/css">
	.st0{fill:#0000;}
	.st1{fill:#fff;}
	.st2{fill:#fff;}
</style>
<path id="outline" class="st0" d="M12.2,8L12.2,8h-0.5h-1.3H9H6.5L10,4.5L6.7,1.2L5.9,0.5L3.8,2.6L4.2,3H3.5C1.6,3,0,4.6,0,6.5
	S1.6,10,3.5,10h0.3l-2,2l4,4h0.1h0.4h1.3H9h2.7h0.5h0l3.8-3.8v-0.4L12.2,8z"/>
<path id="iconBg" class="st1" d="M7.3,14.8l0.9,0.4l2.4-6L9.7,8.8L7.3,14.8z M6.1,9.1L5.2,10h0l-2,2l2.9,2.9l0.7-0.7L4.6,12l2-2h0
	l0.1-0.1L6.1,9.1z M12.8,10L12.8,10l-0.9-0.9l-0.7,0.7l0.1,0.1h0l2,2l-2.1,2.1l0.7,0.7l2.9-2.9L12.8,10z"/>
<path id="colorAction" class="st2" d="M1,6.5C1,5.1,2.1,4,3.5,4h3.1L5.2,2.6l0.7-0.7l0,0l0,0l2.6,2.6L5.9,7.2l0,0L5.2,6.5L6.6,5H3.5
	C2.7,5,2,5.7,2,6.5S2.7,8,3.5,8H4v1H3.5C2.1,9,1,7.9,1,6.5z"/>
</svg>
