<svg xmlns="http://www.w3.org/2000/svg" viewBox="0 0 16 16"><defs><style>.icon-canvas-transparent,.icon-vs-out{fill:#f6f6f6;}.canvas,.icon-canvas-transparent{opacity:0;}.canvas{fill:none;}.icon-vs-bg{fill:#424242;}.icon-vs-action-purple{fill:#652d90;}</style></defs><title>ResetView_16x</title><g id="canvas"><path class="icon-canvas-transparent" d="M16,16H0V0H16Z"/></g><g id="outline"><path class="icon-vs-out" d="M16,0V16H0V0Z"/></g><g id="iconBg"><path class="canvas" d="M16,16H0V0H16Z"/><path class="icon-vs-bg" d="M1,1H5V2H2V5H1ZM11,1V2h3V5h1V1Zm3,13H11v1h4V11H14ZM2,11H1v4H5V14H2Z"/></g><g id="colorImportance"><path class="icon-vs-action-purple" d="M8,3.567,4,5.876V10.5l4,2.31,4-2.31V5.876Zm2.536,2.619L8,7.65,5.464,6.186,8,4.722ZM5,7.072,7.5,8.516v2.846L5,9.917Zm3.5,4.29V8.516L11,7.072V9.917Z"/></g></svg>