<svg xmlns="http://www.w3.org/2000/svg" viewBox="0 0 16 16"><defs><style>.icon-canvas-transparent,.icon-vs-out{fill:#f6f6f6;}.icon-canvas-transparent{opacity:0;}.icon-vs-fg{fill:#f0eff1;}.icon-vs-bg{fill:#424242;}</style></defs><title>Search_16x</title><g id="canvas"><path class="icon-canvas-transparent" d="M16,16H0V0H16Z"/></g><g id="outline"><path class="icon-vs-out" d="M16,5.833a5.84,5.84,0,0,1-5.833,5.834,5.688,5.688,0,0,1-2.913-.8L2.561,15.561A1.5,1.5,0,0,1,.439,13.439L5.133,8.745a5.694,5.694,0,0,1-.8-2.912A5.834,5.834,0,0,1,16,5.833Z"/></g><g id="iconFg"><path class="icon-vs-fg" d="M14,5.833A3.834,3.834,0,1,1,10.167,2,3.838,3.838,0,0,1,14,5.833Z"/></g><g id="iconBg"><path class="icon-vs-bg" d="M10.167,1A4.839,4.839,0,0,0,5.333,5.833a4.786,4.786,0,0,0,1.1,3.029L1.147,14.146a.5.5,0,0,0,.707.708L7.138,9.569a4.783,4.783,0,0,0,3.029,1.1,4.834,4.834,0,0,0,0-9.667Zm0,8.667A3.834,3.834,0,1,1,14,5.833,3.838,3.838,0,0,1,10.167,9.667Z"/></g></svg>