<svg xmlns="http://www.w3.org/2000/svg" viewBox="0 0 16 16" enable-background="new 0 0 16 16"><style type="text/css">.icon-canvas-transparent{opacity:0;fill:#F6F6F6;} .icon-vs-out{fill:#F6F6F6;} .icon-vs-bg{fill:#424242;}</style><path class="icon-canvas-transparent" d="M16 16h-16v-16h16v16z" id="canvas"/><path class="icon-vs-out" d="M5.986 16l-.373-2.237-1.846 1.317-2.848-2.847 1.319-1.847-2.238-.373v-4.027l2.238-.373-1.319-1.846 2.849-2.848 1.846 1.319.372-2.238h4.028l.372 2.238 1.847-1.319 2.847 2.848-1.318 1.846 2.238.373v4.028l-2.238.372 1.318 1.847-2.847 2.847-1.847-1.318-.373 2.238h-4.027z" id="outline"/><path class="icon-vs-bg" d="M9.964 3.257l-.443-.133-.354-2.124h-2.334l-.353 2.121c-.296.093-.58.21-.855.354l-1.75-1.25-1.65 1.65 1.252 1.752-.22.409-.133.443-2.124.354v2.333l2.121.354c.092.296.21.58.354.855l-1.25 1.75 1.65 1.65 1.752-1.252.408.219.444.134.354 2.124h2.333l.354-2.121c.296-.092.58-.21.854-.354l1.75 1.25 1.65-1.65-1.252-1.752.219-.408.134-.444 2.125-.354v-2.334l-2.121-.353c-.092-.296-.21-.58-.354-.854l1.25-1.75-1.65-1.65-1.752 1.252-.409-.221zm.248 4.743c0 1.222-.991 2.212-2.212 2.212-1.222 0-2.212-.991-2.212-2.212s.99-2.212 2.212-2.212c1.222 0 2.212.99 2.212 2.212z" id="iconBg"/></svg>
