<svg xmlns="http://www.w3.org/2000/svg" viewBox="0 0 16 16"><defs><style>.icon-canvas-transparent,.icon-vs-out{fill:#0000;}.icon-canvas-transparent{opacity:0;}.icon-vs-bg{fill:#fff;}.icon-vs-fg{fill:#0000;}.icon-vs-action-blue{fill:#fff;}</style></defs><title>SortDescending_16x</title><g id="canvas"><path class="icon-canvas-transparent" d="M16,16H0V0H16Z"/></g><g id="outline"><path class="icon-vs-out" d="M16,9.4v.536l-4.484,4.5L9,11.923V16H0V7H1V4.586L2.586,3H1V0H8V3H7.462L6.449,4H8V7H9v.682l1,1V3h3V8.7l1.148-1.144Z"/></g><g id="iconBg"><path class="icon-vs-bg" d="M7,6H2V5L5,2H2V1H7V2H6.952L7,2.051,4.013,5H7ZM3.8,12H5.2l-.7-1.75ZM8,8v7H1V8ZM7,14,5,9H4L2,14H3l.4-1H5.6L6,14Z"/></g><g id="iconFg"><path class="icon-vs-fg" d="M5,9H4L2,14H3l.4-1H5.6L6,14H7ZM3.8,12l.7-1.75L5.2,12Z"/></g><g id="colorAction"><path class="icon-vs-action-blue" d="M14.855,9.671l-3.34,3.352L8.163,9.671l.707-.707L11,11.086V4h1v7.1l2.148-2.14Z"/></g></svg>
