<svg xmlns="http://www.w3.org/2000/svg" viewBox="0 0 16 16"><style>.icon-canvas-transparent{opacity:0;fill:#f6f6f6}.icon-vs-out{fill:#0000}.icon-vs-bg{fill:#fff}.icon-vs-blue{fill:#fff}</style><path class="icon-canvas-transparent" d="M16 16H0V0h16v16z" id="canvas"/><path class="icon-vs-out" d="M5 4v1.6c.2.1.3.3.4.4H15v3H6v2h9v3H5.6c0 .3-.1.5-.2.6-.1.3-.3.6-.5.8-.2.2-.5.4-.8.5-.2 0-.4.1-.6.1H2.2c-.1 0-.3-.1-.4-.1-.2-.1-.4-.2-.5-.3l-.3-.2V8.9S1.6 8 2.1 8H1V6.3c0-.5.3-.9 1-1.1V2.7l-1 .2V1l2.8-1H5v1h10v3H5z" id="outline"/><path class="icon-vs-bg" d="M14 3H6V2h8v1zm0 4H6v1h8V7zm0 5H6v1h8v-1z" id="iconBg"/><path class="icon-vs-blue" d="M4.5 5V4H4V1l-1.6.4v.7l.6-.2V4h-.4v1h1.9zM3.4 9.1s1-1.2 1.1-1.3c.1-.1.1-.2.1-.3v-.3c0-.2 0-.3-.1-.4 0-.3 0-.4-.2-.5-.1-.1-.2-.2-.3-.2-.2-.1-.4-.1-.6-.1H3c-.1 0-1 .3-1 .3v1c0-.1.6-.3.7-.4.1 0 .2-.1.3-.1h.6c.1 0 .2.2.2.4 0 .1-.1.4-.3.6C3.3 7.9 2 9.3 2 9.3v.7h2.6v-.9H3.4zm1.2 4.2c-.2-.4-.6-.5-.6-.5.7-.1.6-.9.6-1 0-.1 0-.2-.1-.4 0-.1-.1-.2-.2-.3-.1-.1-.2-.2-.4-.2-.2-.1-.4-.1-.6-.1H3c-.1 0-.2 0-.3.1-.1 0-.2 0-.2.1-.3-.1-.5 0-.5 0v.7c.5-.3 1.1-.2 1.2-.2.5.1.2.8.1.8s-.1.1-.3.1H2.4v.7h.8c.1 0 .2.1.3.1.1 0 .1.1.2.2 0 .1.1.2.1.3 0 .2-.1.3-.2.4-.1.1-.3.2-.6.2h-.2c-.1 0-.2 0-.3-.1-.1 0-.2-.1-.2-.1-.2 0-.2-.1-.3-.1v.8c.1 0 .1.1.2.1s.2 0 .3.1h.6c.3 0 .5 0 .7-.1.2-.1.4-.2.5-.3.1-.1.2-.2.3-.4 0 0 .1-.5 0-.9z" id="colorImportance"/></svg>
