<svg xmlns="http://www.w3.org/2000/svg" viewBox="0 0 16 16"><defs><style>.cls-1,.icon-canvas-transparent{fill:#0000;}.icon-canvas-transparent{opacity:0;}.icon-vs-bg{fill:#fff;}.icon-white{fill:#0000;}.icon-vs-action-blue{fill:#fff;}</style></defs><title>SortAscending_16x</title><g id="canvas"><path class="icon-canvas-transparent" d="M16,16H0V0H16Z"/></g><g id="outline"><path class="cls-1" d="M16,9.983l-4.467,4.484-3.3-3.3L6.449,13H8v3H1V13.586L2.586,12H1V9H0V0H9V7.692l1.018,1.014V3.027h3v5.7l1.148-1.145L16,9.412Z"/></g><g id="iconBg"><path class="icon-vs-bg" d="M2,11H5L2,14v1H7V14H4.013L7,11.051,6.952,11H7V10H2ZM4.5,3.25,5.2,5H3.8ZM8,1V8H1V1ZM7,7,5,2H4L2,7H3l.4-1H5.6L6,7Z"/></g><g id="iconFg"><path class="icon-white" d="M6,7H7L5,2H4L2,7H3l.4-1H5.6ZM3.8,5l.7-1.75L5.2,5Z"/></g><g id="colorAction"><path class="icon-vs-action-blue" d="M14.154,8.968l.707.707-3.34,3.352L8.169,9.675l.707-.707,2.13,2.122V4h1v7.1Z"/></g></svg>
