<svg xmlns:xlink="http://www.w3.org/1999/xlink" xmlns="http://www.w3.org/2000/svg" viewBox="0 0 16 16" width="16"  height="16" ><style type="text/css">.icon-canvas-transparent{opacity:0;fill:#F6F6F6;} .icon-vs-out{fill:#F6F6F6;} .icon-vs-bg{fill:#424242;} .icon-vs-fg{fill:#F0EFF1;}</style><path class="icon-canvas-transparent" d="M16 16h-16v-16h16v16z" id="canvas"/><path class="icon-vs-out" d="M14 14h-12v-12h12v12z" id="outline"/><path class="icon-vs-bg" d="M3 3v10h10v-10h-10zm3 9h-2v-2h2v2zm0-3h-2v-2h2v2zm0-3h-2v-2h2v2zm3 6h-2v-2h2v2zm0-3h-2v-2h2v2zm0-3h-2v-2h2v2zm3 6h-2v-2h2v2zm0-3h-2v-2h2v2zm0-3h-2v-2h2v2z" id="iconBg"/><path class="icon-vs-fg" d="M9 9h-2v-2h2v2zm0 1h-2v2h2v-2zm0-6h-2v2h2v-2zm3 3h-2v2h2v-2zm0 3h-2v2h2v-2zm0-6h-2v2h2v-2zm-6 0h-2v2h2v-2zm0 3h-2v2h2v-2zm0 3h-2v2h2v-2z" id="iconFg"/></svg>