<svg xmlns="http://www.w3.org/2000/svg" viewBox="0 0 16 16"><defs><style>.icon-canvas-transparent,.icon-vs-out{fill:#0000;}.icon-canvas-transparent{opacity:0;}.icon-vs-bg{fill:#fff;}.icon-vs-action-blue{fill:#fff;}</style></defs><title>ZoomIn_16x</title><g id="canvas"><path class="icon-canvas-transparent" d="M16,0V16H0V0Z"/></g><g id="outline"><path class="icon-vs-out" d="M14.5,16a1.494,1.494,0,0,1-1.061-.439L9.909,12.03A6.51,6.51,0,1,1,12.03,9.909l3.531,3.53A1.5,1.5,0,0,1,14.5,16Z"/></g><g id="iconBg"><path class="icon-vs-bg" d="M14.854,14.146l-4.13-4.129a5.509,5.509,0,1,0-.707.707l4.129,4.13a.5.5,0,0,0,.708-.708ZM6.5,11A4.5,4.5,0,1,1,11,6.5,4.505,4.505,0,0,1,6.5,11Z"/></g><g id="colorAction"><path class="icon-vs-action-blue" d="M9,6V7H7V9H6V7H4V6H6V4H7V6Z"/></g></svg>
