<svg xmlns="http://www.w3.org/2000/svg" viewBox="0 0 16 16"><defs><style>.icon-canvas-transparent,.icon-vs-out{fill:#f6f6f6;}.icon-canvas-transparent{opacity:0;}.icon-vs-bg{fill:#424242;}</style></defs><title>ZoomToFit_16x</title><g id="canvas"><path class="icon-canvas-transparent" d="M16,16H0V0H16Z"/></g><g id="outline"><path class="icon-vs-out" d="M12.977,15s1.03.98,1.053,1h1.944c.008-.007.018-.009.026-.016V13.755l-1-.972V3H13V0H2V3H0V13H2v2Z"/></g><g id="iconBg"><path class="icon-vs-bg" d="M15.349,14.517l-4.257-4.139A4.581,4.581,0,0,0,12.125,7.5,4.625,4.625,0,1,0,7.5,12.126a4.579,4.579,0,0,0,2.885-1.04l4.266,4.147a.5.5,0,0,0,.7-.716ZM3.875,7.5A3.625,3.625,0,1,1,7.5,11.126,3.629,3.629,0,0,1,3.875,7.5ZM8,7h2V8H8v2H7V8H5V7H7V5H8ZM1,4H2v8H1ZM12,2H3V1h9ZM3,13h9v1H3Zm11-1H13V4h1Z"/></g></svg>