<?xml version="1.0" encoding="utf-8"?>
<!-- Generator: Adobe Illustrator 25.0.0, SVG Export Plug-In . SVG Version: 6.00 Build 0)  -->
<svg version="1.1" id="Layer_1" xmlns="http://www.w3.org/2000/svg" xmlns:xlink="http://www.w3.org/1999/xlink" x="0px" y="0px"
	 viewBox="0 0 16 16" style="enable-background:new 0 0 16 16;" xml:space="preserve">
<style type="text/css">
	.st0{fill:#000000;fill-opacity:0;}
	.st1{fill:#0000;}
	.st2{fill:#fff;}
</style>
<g id="canvas">
	<path class="st0" d="M16,0v16H0V0H16z"/>
</g>
<g id="outline">
	<path class="st1" d="M14.5,16c-0.4,0-0.8-0.2-1.1-0.4L9.9,12C6.8,13.9,2.8,13,1,9.9S0,2.8,3.1,1s7.1-0.9,9,2.1
		c1.3,2.1,1.3,4.7,0,6.8l3.5,3.5c0.6,0.6,0.6,1.5,0,2.1C15.3,15.8,14.9,16,14.5,16z"/>
</g>
<g id="iconBg">
	<path class="st2" d="M14.9,14.1L10.7,10c1.9-2.3,1.6-5.8-0.7-7.8S4.2,0.6,2.3,3S0.6,8.8,3,10.7c2,1.7,5,1.7,7.1,0l4.1,4.1
		c0.2,0.2,0.5,0.2,0.7,0S15,14.3,14.9,14.1z M6.5,11C4,11,2,9,2,6.5S4,2,6.5,2S11,4,11,6.5C11,9,9,11,6.5,11z"/>
</g>
</svg>
