<svg width="16" height="16" viewBox="0 0 16 16" fill="none" xmlns="http://www.w3.org/2000/svg">
<path d="M1 7C1.27083 7 1.52865 6.94792 1.77344 6.84375C2.01823 6.73438 2.22917 6.59115 2.40625 6.41406C2.58854 6.23177 2.73177 6.02083 2.83594 5.78125C2.94531 5.53646 3 5.27604 3 5C3 4.63021 2.99219 4.26042 2.97656 3.89062C2.96094 3.52083 2.97135 3.16146 3.00781 2.8125C3.04948 2.45833 3.13281 2.11719 3.25781 1.78906C3.38802 1.46094 3.59375 1.15625 3.875 0.875C4.15625 0.59375 4.48177 0.377604 4.85156 0.226562C5.22135 0.0755208 5.60417 0 6 0V1C5.72396 1 5.46354 1.05469 5.21875 1.16406C4.97917 1.26823 4.76823 1.41146 4.58594 1.59375C4.40885 1.77083 4.26562 1.98177 4.15625 2.22656C4.05208 2.47135 4 2.72917 4 3C4 3.29167 4.00521 3.58073 4.01562 3.86719C4.02604 4.14844 4.02604 4.42708 4.01562 4.70312C4.01042 4.97396 3.98698 5.23958 3.94531 5.5C3.90365 5.75521 3.83333 6 3.73438 6.23438C3.63542 6.46875 3.5 6.69271 3.32812 6.90625C3.15625 7.11979 2.9349 7.31771 2.66406 7.5C2.9349 7.68229 3.15625 7.88021 3.32812 8.09375C3.5 8.30729 3.63542 8.53125 3.73438 8.76562C3.83333 9 3.90365 9.2474 3.94531 9.50781C3.98698 9.76302 4.01042 10.0286 4.01562 10.3047C4.02604 10.5755 4.02604 10.8542 4.01562 11.1406C4.00521 11.4219 4 11.7083 4 12C4 12.276 4.05208 12.5365 4.15625 12.7812C4.26562 13.0208 4.40885 13.2318 4.58594 13.4141C4.76823 13.5911 4.97917 13.7344 5.21875 13.8438C5.46354 13.9479 5.72396 14 6 14V15C5.60417 15 5.22135 14.9245 4.85156 14.7734C4.48177 14.6224 4.15625 14.4062 3.875 14.125C3.59375 13.8438 3.38802 13.5391 3.25781 13.2109C3.13281 12.8828 3.04948 12.5443 3.00781 12.1953C2.97135 11.8411 2.96094 11.4792 2.97656 11.1094C2.99219 10.7396 3 10.3698 3 10C3 9.72917 2.94531 9.47135 2.83594 9.22656C2.73177 8.98177 2.58854 8.77083 2.40625 8.59375C2.22917 8.41146 2.01823 8.26823 1.77344 8.16406C1.52865 8.05469 1.27083 8 1 8V7ZM10 0C10.3958 0 10.7786 0.0755208 11.1484 0.226562C11.5182 0.377604 11.8438 0.59375 12.125 0.875C12.4062 1.15625 12.6094 1.46094 12.7344 1.78906C12.8646 2.11719 12.9479 2.45833 12.9844 2.8125C13.026 3.16146 13.0391 3.52083 13.0234 3.89062C13.0078 4.26042 13 4.63021 13 5C13 5.27604 13.0521 5.53646 13.1562 5.78125C13.2656 6.02083 13.4089 6.23177 13.5859 6.41406C13.7682 6.59115 13.9792 6.73438 14.2188 6.84375C14.4635 6.94792 14.724 7 15 7V8C14.724 8 14.4635 8.05469 14.2188 8.16406C13.9792 8.26823 13.7682 8.41146 13.5859 8.59375C13.4089 8.77083 13.2656 8.98177 13.1562 9.22656C13.0521 9.47135 13 9.72917 13 10C13 10.3698 13.0078 10.7396 13.0234 11.1094C13.0391 11.4792 13.026 11.8411 12.9844 12.1953C12.9479 12.5443 12.8646 12.8828 12.7344 13.2109C12.6094 13.5391 12.4062 13.8438 12.125 14.125C11.8438 14.4062 11.5182 14.6224 11.1484 14.7734C10.7786 14.9245 10.3958 15 10 15V14C10.2708 14 10.5286 13.9479 10.7734 13.8438C11.0182 13.7344 11.2292 13.5911 11.4062 13.4141C11.5885 13.2318 11.7318 13.0208 11.8359 12.7812C11.9453 12.5365 12 12.276 12 12C12 11.7083 11.9948 11.4219 11.9844 11.1406C11.974 10.8542 11.9714 10.5755 11.9766 10.3047C11.987 10.0286 12.013 9.76302 12.0547 9.50781C12.0964 9.2474 12.1667 9 12.2656 8.76562C12.3646 8.53125 12.5 8.30729 12.6719 8.09375C12.8438 7.88021 13.0651 7.68229 13.3359 7.5C13.0651 7.31771 12.8438 7.11979 12.6719 6.90625C12.5 6.69271 12.3646 6.46875 12.2656 6.23438C12.1667 6 12.0964 5.75521 12.0547 5.5C12.013 5.23958 11.987 4.97396 11.9766 4.70312C11.9714 4.42708 11.974 4.14844 11.9844 3.86719C11.9948 3.58073 12 3.29167 12 3C12 2.72917 11.9453 2.47135 11.8359 2.22656C11.7318 1.98177 11.5885 1.77083 11.4062 1.59375C11.2292 1.41146 11.0182 1.26823 10.7734 1.16406C10.5286 1.05469 10.2708 1 10 1V0Z" fill="white"/>
</svg>
