<svg id="Layer_1" data-name="Layer 1" xmlns="http://www.w3.org/2000/svg" xmlns:xlink="http://www.w3.org/1999/xlink" viewBox="0 0 16 16"><defs><style>.cls-1{fill:none;}.cls-2{fill:#4894fe;}.cls-3{fill:#d02e00;}.cls-4{clip-path:url(#clip-path);}</style><clipPath id="clip-path"><rect class="cls-1" x="-804.35" y="-93.32" width="15.81" height="13.48"/></clipPath></defs><title>Not_trusted_command_inverse</title><path class="cls-2" d="M13.74,2.25a9.47,9.47,0,0,1-1.19-.17,6.53,6.53,0,0,1-1.14-.35,6.23,6.23,0,0,1-1.12-.64C10.07,1,9.85.83,9.62.72S9.21.54,9,.46A4.79,4.79,0,0,0,8.26.25c-.25,0-.51,0-.76,0A4.77,4.77,0,0,0,6,.46a5.51,5.51,0,0,0-1.29.63,6.64,6.64,0,0,1-1.12.59A6.53,6.53,0,0,1,2.45,2a9.58,9.58,0,0,1-1.19.22H0v4A7.5,7.5,0,0,0,.29,8.41a9.37,9.37,0,0,0,.78,1.94,10.35,10.35,0,0,0,1.2,1.74,12.59,12.59,0,0,0,1.49,1.52,15.55,15.55,0,0,0,1.7,1.33c.59.42,1.19.8,1.8,1.15l.24.16.24-.14c.61-.35,1.21-.73,1.8-1.15a11.79,11.79,0,0,0,1.24-1l-.7-.7a12.52,12.52,0,0,1-1,.76c-.53.37-1.06.7-1.59,1-.53-.3-1.06-.64-1.59-1a16.79,16.79,0,0,1-1.5-1.17A13.12,13.12,0,0,1,3,11.46,9.41,9.41,0,0,1,2,9.9a8.86,8.86,0,0,1-.72-1.74A7.23,7.23,0,0,1,1,6.25v-3a9.37,9.37,0,0,0,2.23-.37,7.81,7.81,0,0,0,2-.95,4.67,4.67,0,0,1,1.06-.5,4.22,4.22,0,0,1,2.37,0,4.67,4.67,0,0,1,1.06.5,7.81,7.81,0,0,0,2,1A9.31,9.31,0,0,0,14,3.25v3a7.21,7.21,0,0,1-.26,1.91A8.35,8.35,0,0,1,13,9.9l-.1.18.73.73a2.69,2.69,0,0,0,.28-.46,8.85,8.85,0,0,0,.78-1.94A7.52,7.52,0,0,0,15,6.25v-4Z"/><polygon class="cls-3" points="13.82 13.49 16 15.66 15.43 16.23 13.26 14.05 11.07 16.23 10.5 15.66 12.69 13.49 10.46 11.26 11.03 10.69 13.26 12.92 15.43 10.74 16 11.3 13.82 13.49"/></svg>