<?xml version="1.0" encoding="utf-8"?>
<!-- Generator: Adobe Illustrator 23.0.2, SVG Export Plug-In . SVG Version: 6.00 Build 0)  -->
<svg version="1.1" id="Layer_1" xmlns="http://www.w3.org/2000/svg" xmlns:xlink="http://www.w3.org/1999/xlink" x="0px" y="0px"
	 viewBox="0 0 16 16" style="enable-background:new 0 0 16 16;" xml:space="preserve">
<style type="text/css">
	.st0{fill:#4894FE;}
	.st1{fill:#061C08;}
	.st2{fill:#3BB44A;}
</style>
<title>trust_inverse</title>
<path class="st0" d="M13.7,2c-0.4,0-0.8-0.1-1.2-0.2c-0.4-0.1-0.8-0.2-1.1-0.4c-0.4-0.2-0.8-0.4-1.1-0.6c-0.2-0.1-0.4-0.3-0.7-0.4
	C9.2,0.3,8.7,0.1,8.3,0.1C8,0,7.8,0,7.5,0C7,0,6.5,0.1,6,0.2C5.5,0.4,5.1,0.6,4.7,0.9C4.4,1.1,4,1.3,3.6,1.5
	C3.2,1.6,2.8,1.7,2.5,1.8C2.1,1.9,1.7,2,1.3,2C0.9,2,0.4,2,0,2v4c0,0.7,0.1,1.5,0.3,2.2c0.2,0.7,0.4,1.3,0.8,1.9
	c0.3,0.6,0.7,1.2,1.2,1.7c0.5,0.5,1,1.1,1.5,1.5c0.5,0.5,1.1,0.9,1.7,1.3c0.6,0.4,1.2,0.8,1.8,1.1L7.5,16l0.2-0.1
	c0.3-0.2,0.6-0.3,0.9-0.5l-0.7-0.7l-0.4,0.2c-0.5-0.3-1.1-0.6-1.6-1c-0.5-0.4-1-0.8-1.5-1.2c-0.5-0.4-1-0.9-1.4-1.4
	c-0.4-0.5-0.7-1-1-1.6C1.7,9.1,1.5,8.5,1.3,7.9C1.1,7.3,1,6.7,1,6V3c0.8,0,1.5-0.2,2.2-0.4c0.7-0.2,1.4-0.6,2-1
	c0.3-0.2,0.7-0.4,1.1-0.5C6.7,1,7.1,1,7.5,1c0.4,0,0.8,0,1.2,0.2C9,1.3,9.4,1.4,9.7,1.7c0.6,0.4,1.3,0.8,2,1C12.5,2.9,13.2,3,14,3v3
	c0,0.6-0.1,1.3-0.3,1.9c-0.2,0.6-0.4,1.2-0.7,1.8c-0.3,0.6-0.6,1.1-1,1.6c-0.3,0.3-0.5,0.6-0.8,0.9l0.7,0.7c0.3-0.3,0.6-0.7,0.9-1
	c0.5-0.5,0.9-1.1,1.2-1.7c0.3-0.6,0.6-1.3,0.8-1.9C14.9,7.4,15,6.7,15,6V2C14.6,2,14.1,2,13.7,2z M10,13.1c-0.3,0.2-0.6,0.5-0.9,0.7
	l0.5,0.6l0.2,0.2c0.3-0.2,0.6-0.4,0.9-0.7L10,13.1z"/>
<polygon class="st1" points="16,10.9 11.1,15.8 10.5,15.1 9.9,14.5 9.7,14.3 9.1,13.8 8.8,13.4 9.6,12.7 10,13.1 10.8,13.8 
	10.9,13.9 11.1,14.2 15.2,10.1 15.3,10.3 "/>
<polygon class="st2" points="16,10.9 11.1,15.8 10.5,15.1 9.9,14.5 9.7,14.3 9.1,13.8 8.8,13.4 9.6,12.7 10,13.1 10.8,13.8 
	10.9,13.9 11.1,14.2 15.2,10.1 15.3,10.3 "/>
</svg>
