<svg id="Layer_1" data-name="Layer 1" xmlns="http://www.w3.org/2000/svg" viewBox="0 0 16 16"><defs><style>.cls-1{fill:#fff;}.cls-2{fill:#061c08;}.cls-3{fill:#3bb44a;}</style></defs><title>trust_inverse      </title><path class="cls-1" d="M13.74,2a9.46,9.46,0,0,1-1.19-.17,8.28,8.28,0,0,1-1.14-.35A6.72,6.72,0,0,1,10.29.87,7.43,7.43,0,0,0,9.62.5,4,4,0,0,0,8.26.08,4.62,4.62,0,0,0,7.5,0,5.15,5.15,0,0,0,6,.23,5.39,5.39,0,0,0,4.71.87a6.72,6.72,0,0,1-1.12.59,8.28,8.28,0,0,1-1.14.35A9.46,9.46,0,0,1,1.26,2C.85,2,.43,2,0,2V6A7.62,7.62,0,0,0,.29,8.19a9.37,9.37,0,0,0,.78,1.94,10.69,10.69,0,0,0,1.2,1.73,14.32,14.32,0,0,0,1.49,1.53,15.82,15.82,0,0,0,1.7,1.33q.88.62,1.8,1.14L7.5,16l.24-.14c.28-.16.57-.33.85-.52l-.71-.72-.38.23q-.79-.46-1.59-1a15.89,15.89,0,0,1-1.51-1.2A14.78,14.78,0,0,1,3,11.24,9.26,9.26,0,0,1,2,9.67a8.29,8.29,0,0,1-.72-1.74A7,7,0,0,1,1,6V3a10.09,10.09,0,0,0,2.23-.37,8.08,8.08,0,0,0,2-1,4.05,4.05,0,0,1,1.06-.5A3.87,3.87,0,0,1,7.5,1a3.87,3.87,0,0,1,1.16.16,4.06,4.06,0,0,1,1.06.5,8.08,8.08,0,0,0,2,1A10.09,10.09,0,0,0,14,3V6a7,7,0,0,1-.26,1.9A8.29,8.29,0,0,1,13,9.67,9.26,9.26,0,0,1,12,11.24a10.85,10.85,0,0,1-.8.86l.71.71a12.86,12.86,0,0,0,.87-1,10.69,10.69,0,0,0,1.2-1.73,9.37,9.37,0,0,0,.78-1.94A7.62,7.62,0,0,0,15,6V2C14.57,2,14.15,2,13.74,2ZM10,13.1a9.54,9.54,0,0,1-.89.68l.54.55.16.16c.31-.21.61-.44.9-.68Z"/><polygon class="cls-2" points="16 10.94 11.15 15.79 10.49 15.13 9.85 14.49 9.69 14.33 9.15 13.78 8.81 13.44 9.59 12.66 10.04 13.1 10.75 13.81 10.85 13.91 11.15 14.21 15.22 10.15 15.33 10.26 16 10.94"/><polygon class="cls-3" points="16 10.94 11.15 15.79 10.49 15.13 9.85 14.49 9.69 14.33 9.15 13.78 8.81 13.44 9.59 12.66 10.04 13.1 10.75 13.81 10.85 13.91 11.15 14.21 15.22 10.15 15.33 10.26 16 10.94"/></svg>