<?xml version="1.0" encoding="utf-8"?>
<!-- Generator: Adobe Illustrator 24.1.2, SVG Export Plug-In . SVG Version: 6.00 Build 0)  -->
<svg version="1.1" id="Layer_1" xmlns="http://www.w3.org/2000/svg" xmlns:xlink="http://www.w3.org/1999/xlink" x="0px" y="0px"
	 viewBox="0 0 16 16" style="enable-background:new 0 0 16 16;" xml:space="preserve">
<style type="text/css">
	.st0{fill:#FFFFFF;}
</style>
<g id="bfab5a2d-3852-4560-ab09-23c2bd7bcabc">
	<g>
		<path class="st0" d="M16,5.7L15.3,5l-1.5,1.5C13,6,12,6.1,11.4,6.8L10,8.2l2.8,2.8l1.4-1.4C14.9,8.9,15,8,14.5,7.2L16,5.7z
			 M13.5,8.9l-0.7,0.7l-1.4-1.4l0.7-0.7c0.4-0.4,1-0.4,1.4,0C13.9,7.8,13.9,8.5,13.5,8.9C13.5,8.9,13.5,8.9,13.5,8.9L13.5,8.9z"/>
		<path class="st0" d="M7.9,10.3c-0.6,0.6-0.8,1.6-0.3,2.4l-1.5,1.5l0.7,0.7l1.5-1.5c0.8,0.5,1.8,0.3,2.4-0.3l1.4-1.4L9.3,8.9
			L7.9,10.3z M10,12.4c-0.4,0.4-1,0.4-1.4,0s-0.4-1,0-1.4l0,0l0.7-0.7l1.4,1.4L10,12.4z"/>
	</g>
	<path class="st0" d="M15.3,3.6L16,4.3V3c0-0.1,0-0.3-0.1-0.4c-0.1-0.1-0.1-0.2-0.2-0.3c-0.1-0.1-0.2-0.2-0.3-0.2
		C15.3,2,15.1,2,15,2H7.3C7.1,2,7,2,6.8,1.9c-0.1,0-0.2-0.1-0.3-0.2C6.4,1.7,6.3,1.6,6.2,1.5C6.1,1.4,5.9,1.3,5.8,1.3
		C5.7,1.2,5.5,1.1,5.4,1.1C5.2,1,5,1,4.8,1H1C0.9,1,0.7,1,0.6,1.1C0.5,1.1,0.4,1.2,0.3,1.3C0.2,1.4,0.1,1.5,0.1,1.6C0,1.7,0,1.9,0,2
		v11h5.9l0.5-0.5c0-0.2-0.1-0.3-0.1-0.5H1V4h3.8C5,4,5.2,4,5.4,3.9c0.2,0,0.3-0.1,0.5-0.2c0.1-0.1,0.2-0.2,0.4-0.2
		c0.1-0.1,0.2-0.2,0.3-0.2c0.1-0.1,0.2-0.1,0.3-0.2C7,3,7.1,3,7.3,3H15L15.3,3.6z M1,2h3.8C4.9,2,5,2,5.1,2c0.1,0,0.2,0.1,0.3,0.1
		c0.1,0,0.2,0.1,0.2,0.2c0.1,0.1,0.2,0.1,0.2,0.2C5.7,2.6,5.6,2.7,5.6,2.7C5.5,2.8,5.4,2.8,5.3,2.9C5.3,2.9,5.2,2.9,5.1,3
		C5,3,4.9,3,4.8,3H1V2z"/>
</g>
</svg>
