<?xml version="1.0" encoding="utf-8"?>
<!-- Generator: Adobe Illustrator 24.1.2, SVG Export Plug-In . SVG Version: 6.00 Build 0)  -->
<svg version="1.1" id="Layer_1" xmlns="http://www.w3.org/2000/svg" xmlns:xlink="http://www.w3.org/1999/xlink" x="0px" y="0px"
	 viewBox="0 0 16 16" style="enable-background:new 0 0 16 16;" xml:space="preserve">
<style type="text/css">
	.st0{fill:#FFFFFF;}
</style>
<g id="bd0904b6-a61f-436a-830a-2c089789edc1">
	<path class="st0" d="M5.2,14.8l0.2-0.2l0.7-0.7c-0.1,0-0.2,0-0.3,0c-0.3,0-0.6-0.1-0.9-0.2c-0.3-0.1-0.5-0.2-0.8-0.3
		c-0.1,0-0.2-0.1-0.3-0.1c-0.1-0.1-0.3-0.1-0.4-0.2c-0.1-0.1-0.2-0.2-0.3-0.3C3.1,12.7,3,12.6,3,12.5V5c0.3,0.2,0.7,0.4,1,0.5
		c0.4,0.1,0.8,0.2,1.2,0.3C5.6,5.9,6,5.9,6.4,5.9C6.8,6,7.2,6,7.5,6s0.7,0,1.1-0.1c0.4,0,0.8-0.1,1.2-0.2c0.4-0.1,0.8-0.2,1.2-0.3
		c0.4-0.1,0.7-0.3,1-0.5v1.4c0.3-0.1,0.5-0.1,0.8-0.1c0.1,0,0.1,0,0.2,0V3.5c0-0.2-0.1-0.4-0.2-0.6c-0.1-0.2-0.2-0.4-0.4-0.5
		c-0.3-0.3-0.7-0.5-1-0.7c-0.4-0.2-0.9-0.3-1.3-0.4C9.7,1.2,9.2,1.1,8.8,1.1C8.3,1,7.9,1,7.5,1C7.1,1,6.7,1,6.3,1.1
		c-0.5,0-0.9,0.1-1.4,0.2C4.4,1.4,4,1.5,3.6,1.7c-0.4,0.2-0.7,0.4-1,0.7C2.4,2.5,2.3,2.7,2.2,2.9C2.1,3.1,2,3.3,2,3.5v9
		c0,0.2,0.1,0.4,0.2,0.6c0.1,0.2,0.2,0.4,0.4,0.5c0.3,0.3,0.7,0.5,1,0.7c0.4,0.2,0.9,0.3,1.3,0.4C5,14.7,5.1,14.8,5.2,14.8z
		 M3.1,3.2C3.2,3.1,3.3,3,3.5,2.9c0.1-0.1,0.3-0.2,0.4-0.2C4,2.6,4.1,2.6,4.2,2.5c0.3-0.1,0.5-0.2,0.8-0.3c0.3-0.1,0.6-0.1,0.9-0.2
		C6.1,2.1,6.4,2,6.7,2C7,2,7.2,2,7.5,2s0.5,0,0.8,0s0.6,0,0.9,0.1s0.6,0.1,0.9,0.2c0.3,0.1,0.5,0.2,0.8,0.3c0.1,0,0.2,0.1,0.3,0.1
		c0.1,0.1,0.3,0.1,0.4,0.2c0.1,0.1,0.2,0.2,0.3,0.3C12,3.3,12,3.4,12,3.5c0,0,0,0.1,0,0.1c0,0,0,0.1-0.1,0.1
		c-0.1,0.2-0.3,0.3-0.5,0.4c-0.2,0.1-0.5,0.2-0.7,0.3c-0.3,0.1-0.5,0.2-0.8,0.2C9.6,4.8,9.3,4.8,9.1,4.9C8.8,4.9,8.5,5,8.2,5
		C8,5,7.7,5,7.5,5S7.1,5,6.8,5S6.2,4.9,6,4.9S5.4,4.8,5.1,4.7C4.8,4.7,4.5,4.6,4.3,4.5C4,4.4,3.8,4.3,3.6,4.2
		C3.4,4.1,3.2,3.9,3.1,3.7c0,0,0-0.1-0.1-0.1c0,0,0-0.1,0-0.1C3,3.4,3.1,3.3,3.1,3.2z"/>
	<g>
		<path class="st0" d="M16,6.8l-0.7-0.7l-1.5,1.5C13,7.1,12,7.2,11.4,7.9L10,9.3l2.8,2.8l1.4-1.4c0.6-0.6,0.8-1.6,0.3-2.4L16,6.8z
			 M13.5,10l-0.7,0.7l-1.4-1.4l0.7-0.7c0.4-0.4,1-0.4,1.4,0S13.9,9.6,13.5,10z"/>
		<path class="st0" d="M7.9,11.4c-0.6,0.6-0.8,1.6-0.3,2.4l-1.5,1.5L6.8,16l1.5-1.5C9,15,10,14.9,10.7,14.2l1.4-1.4L9.3,10L7.9,11.4
			z M10,13.5c-0.4,0.4-1,0.4-1.4,0c-0.4-0.4-0.4-1,0-1.4l0.7-0.7l1.4,1.4L10,13.5z"/>
	</g>
</g>
</svg>
