<svg width="16" height="16" viewBox="0 0 16 16" fill="none" xmlns="http://www.w3.org/2000/svg">
<path d="M10.1562 9.38281L8.03906 11.5L8.74219 12.2031L6.97656 13.9766C6.64844 14.3047 6.27083 14.5573 5.84375 14.7344C5.41667 14.9115 4.96875 15 4.5 15C4.11979 15 3.7526 14.9427 3.39844 14.8281C3.04427 14.7135 2.71354 14.5391 2.40625 14.3047L0.851562 15.8516L0.148438 15.1484L1.69531 13.5938C1.46615 13.2917 1.29427 12.9635 1.17969 12.6094C1.0651 12.2552 1.00521 11.8854 1 11.5C1 11.0365 1.08854 10.5911 1.26562 10.1641C1.44271 9.73698 1.69531 9.35677 2.02344 9.02344L3.79688 7.25781L4.5 7.96094L6.61719 5.84375L7.32812 6.54688L5.20312 8.67188L7.32812 10.7969L9.45312 8.67188L10.1562 9.38281ZM4.5 14C4.83333 14 5.15104 13.9375 5.45312 13.8125C5.75521 13.6875 6.02604 13.5052 6.26562 13.2656L7.32812 12.2031L3.79688 8.67188L2.73438 9.73438C2.5 9.96875 2.32031 10.237 2.19531 10.5391C2.07031 10.8411 2.00521 11.1615 2 11.5C2 11.8438 2.0651 12.1667 2.19531 12.4688C2.32552 12.7708 2.5026 13.0365 2.72656 13.2656C2.95052 13.4948 3.21615 13.6745 3.52344 13.8047C3.83073 13.9349 4.15625 14 4.5 14ZM14.3047 2.40625C14.5339 2.70833 14.7057 3.03646 14.8203 3.39062C14.9349 3.74479 14.9948 4.11458 15 4.5C15 4.96354 14.9115 5.40885 14.7344 5.83594C14.5573 6.26302 14.3047 6.64323 13.9766 6.97656L12.2031 8.74219L7.25781 3.79688L9.02344 2.02344C9.35156 1.69531 9.72917 1.44271 10.1562 1.26562C10.5833 1.08854 11.0312 1 11.5 1C11.8802 1 12.2474 1.05729 12.6016 1.17188C12.9557 1.28646 13.2865 1.46094 13.5938 1.69531L15.1484 0.148438L15.8516 0.851562L14.3047 2.40625ZM13.2656 6.26562C13.5 6.03125 13.6797 5.76302 13.8047 5.46094C13.9297 5.15885 13.9948 4.83854 14 4.5C14 4.15625 13.9349 3.83333 13.8047 3.53125C13.6745 3.22917 13.4948 2.96615 13.2656 2.74219C13.0365 2.51823 12.7708 2.33854 12.4688 2.20312C12.1667 2.06771 11.8438 2 11.5 2C11.1667 2 10.849 2.0625 10.5469 2.1875C10.2448 2.3125 9.97396 2.49479 9.73438 2.73438L8.67188 3.79688L12.2031 7.32812L13.2656 6.26562Z" fill="#0078D4"/>
</svg>
