<svg width="12" height="12" viewBox="0 0 12 12" fill="none" xmlns="http://www.w3.org/2000/svg">
<g clip-path="url(#clip0)">
<path d="M3.5625 1.5C3.73828 1.5 3.88867 1.51758 4.01367 1.55273C4.13867 1.58789 4.25195 1.63477 4.35352 1.69336C4.45508 1.75195 4.54492 1.8125 4.62305 1.875C4.70117 1.9375 4.7793 1.99805 4.85742 2.05664C4.93555 2.11523 5.02148 2.16016 5.11523 2.19141C5.20898 2.22266 5.31641 2.24219 5.4375 2.25H11.25C11.3555 2.25 11.4531 2.26953 11.543 2.30859C11.6328 2.34766 11.7109 2.40039 11.7773 2.4668C11.8437 2.5332 11.8984 2.61328 11.9414 2.70703C11.9844 2.80078 12.0039 2.89844 12 3V10.5H0V2.25C0 2.14453 0.0195313 2.04688 0.0585938 1.95703C0.0976562 1.86719 0.150391 1.78906 0.216797 1.72266C0.283203 1.65625 0.363281 1.60156 0.457031 1.55859C0.550781 1.51562 0.648437 1.49609 0.75 1.5H3.5625ZM0.75 2.25V3H3.5625C3.65625 3 3.73828 2.99219 3.80859 2.97656C3.87891 2.96094 3.94336 2.93555 4.00195 2.90039C4.06055 2.86523 4.11719 2.82617 4.17188 2.7832C4.22656 2.74023 4.28906 2.6875 4.35938 2.625C4.29297 2.56641 4.23242 2.51563 4.17773 2.47266C4.12305 2.42969 4.06445 2.39063 4.00195 2.35547C3.93945 2.32031 3.875 2.29492 3.80859 2.2793C3.74219 2.26367 3.66016 2.25391 3.5625 2.25H0.75ZM11.25 3H5.4375C5.31641 3 5.21094 3.01758 5.12109 3.05273C5.03125 3.08789 4.94531 3.13477 4.86328 3.19336C4.78125 3.25195 4.70117 3.3125 4.62305 3.375C4.54492 3.4375 4.45703 3.49805 4.35938 3.55664C4.26172 3.61523 4.14844 3.66016 4.01953 3.69141C3.89062 3.72266 3.73828 3.74219 3.5625 3.75H0.75V9.75H11.25V3Z" fill="white"/>
</g>
<defs>
<clipPath id="clip0">
<rect width="12" height="12" fill="white"/>
</clipPath>
</defs>
</svg>
