<?xml version="1.0" encoding="utf-8"?>
<!-- Generator: Adobe Illustrator 24.1.2, SVG Export Plug-In . SVG Version: 6.00 Build 0)  -->
<svg version="1.1" id="e771b594-7335-45d5-a42f-4ffe553df1ba"
	 xmlns="http://www.w3.org/2000/svg" xmlns:xlink="http://www.w3.org/1999/xlink" x="0px" y="0px" viewBox="0 0 16 16"
	 style="enable-background:new 0 0 16 16;" xml:space="preserve">
<style type="text/css">
	.st0{fill:#FFFFFF;}
</style>
<path class="st0" d="M8,13.9H4v-4h4V13.9z M5,12.9h2v-2H5V12.9z"/>
<path class="st0" d="M16,15h-6V9h6V15z M11,14h4v-4h-4V14z"/>
<rect x="8.5" y="11.4" class="st0" width="1" height="1"/>
<path class="st0" d="M10,8h1V3.5c0-0.2-0.1-0.4-0.2-0.6c-0.1-0.2-0.2-0.4-0.4-0.5c-0.3-0.3-0.7-0.5-1-0.7C9,1.5,8.6,1.4,8.1,1.3
	C7.7,1.2,7.2,1.1,6.7,1.1C6.3,1,5.9,1,5.5,1C5.1,1,4.7,1,4.3,1.1c-0.5,0-0.9,0.1-1.4,0.2C2.4,1.4,2,1.5,1.6,1.7
	c-0.4,0.2-0.7,0.4-1,0.7C0.4,2.5,0.3,2.7,0.2,2.9C0,3.1,0,3.3,0,3.5v9c0,0.2,0.1,0.4,0.2,0.6c0.1,0.2,0.2,0.4,0.4,0.5
	c0.3,0.3,0.7,0.5,1,0.7c0.4,0.2,0.9,0.3,1.3,0.4c0,0,0.1,0,0.1,0v-1c0,0,0,0-0.1,0c-0.3-0.1-0.5-0.2-0.8-0.3c-0.1,0-0.2-0.1-0.3-0.1
	c-0.1-0.1-0.3-0.1-0.4-0.2c-0.1-0.1-0.2-0.2-0.3-0.3C1.1,12.7,1,12.6,1,12.5V5c0.3,0.2,0.7,0.4,1,0.5c0.4,0.1,0.8,0.2,1.2,0.3
	C3.6,5.9,4,5.9,4.4,5.9C4.8,6,5.2,6,5.5,6s0.7,0,1.1-0.1c0.4,0,0.8-0.1,1.2-0.2C8.2,5.7,8.6,5.6,9,5.5C9.3,5.3,9.7,5.2,10,5V8z
	 M10,3.6c0,0,0,0.1-0.1,0.1C9.8,3.9,9.6,4.1,9.4,4.2C9.2,4.3,9,4.4,8.7,4.5C8.5,4.6,8.2,4.7,7.9,4.7C7.6,4.8,7.3,4.8,7.1,4.9
	S6.5,5,6.2,5C5.9,5,5.7,5,5.5,5C5.3,5,5.1,5,4.8,5c-0.3,0-0.5,0-0.8-0.1S3.4,4.8,3.1,4.7C2.8,4.7,2.5,4.6,2.3,4.5
	C2,4.4,1.8,4.3,1.6,4.2C1.4,4.1,1.2,3.9,1.1,3.7c0,0,0-0.1-0.1-0.1c0,0,0-0.1,0-0.1c0-0.1,0.1-0.2,0.1-0.3C1.2,3.1,1.3,3,1.5,2.9
	c0.1-0.1,0.3-0.2,0.4-0.2C2,2.6,2.1,2.6,2.1,2.5c0.3-0.1,0.5-0.2,0.8-0.3c0.3-0.1,0.6-0.1,0.9-0.2C4.1,2.1,4.4,2,4.7,2
	C5,2,5.2,2,5.5,2S6,2,6.3,2s0.6,0,0.9,0.1s0.6,0.1,0.9,0.2c0.3,0.1,0.5,0.2,0.8,0.3c0.1,0,0.2,0.1,0.3,0.1c0.1,0.1,0.3,0.1,0.4,0.2
	C9.7,3,9.8,3.1,9.9,3.2C9.9,3.3,10,3.4,10,3.5C10,3.5,10,3.6,10,3.6z"/>
</svg>
