<svg xmlns="http://www.w3.org/2000/svg" viewBox="0 0 16 16"><style>.st0{opacity:0}.st0,.st1{fill:#f6f6f6}.st2{fill:#424242}.st3{fill:#f0eff1}</style><g id="outline"><path class="st0" d="M0 0h16v16H0z"/><path class="st1" d="M9 5v2H8V0H1v7h2v8h6v1h6V5H9zm0 7H6v-2h3v2z"/></g><path class="st2" d="M14 10V6h-4v2H5V6h2V1H2v5h2v8h6v1h4v-4h-4v2H5V9h5v1h4zm-3-3h2v2h-2V7zm0 5h2v2h-2v-2zM3 5V2h3v3H3z" id="icon_x5F_bg"/><g id="icon_x5F_fg"><path class="st3" d="M11 7h2v2h-2zM11 12h2v2h-2zM3 2h3v3H3z"/></g></svg>