<svg id="Layer_1" data-name="Layer 1" xmlns="http://www.w3.org/2000/svg" viewBox="0 0 16 16"><defs><style>.cls-1{fill:#fff;}.cls-2{fill:#d02e00;}</style></defs><title>disconnected_server_inverse_16x16</title><path class="cls-1" d="M1.42.06V16H11a3.31,3.31,0,0,1-1.94-1H2.42V11h6a3.31,3.31,0,0,1,.54-.8,1.81,1.81,0,0,1,.19-.2H2.42v-9H11v8a3.68,3.68,0,0,1,.58,0l.39,0h0v-9Z"/><path class="cls-1" d="M3.43,1.79V4.24H5.89V1.79Zm2,2H3.93V2.29H5.39Z"/><path class="cls-2" d="M11.08,16a2.22,2.22,0,0,0,.45,0,2.59,2.59,0,0,0,.4,0Z"/><path class="cls-2" d="M12,9.08h0l-.39,0a3.68,3.68,0,0,0-.58,0A3.41,3.41,0,0,0,9.14,10a1.81,1.81,0,0,0-.19.2,3.46,3.46,0,0,0-.89,2.3,3.4,3.4,0,0,0,.85,2.26,1.29,1.29,0,0,0,.16.17A3.31,3.31,0,0,0,11,16H12a3.46,3.46,0,0,0,2.17-1.13,3.41,3.41,0,0,0,.88-2.3A3.47,3.47,0,0,0,12,9.08Zm0,5.72a1.72,1.72,0,0,1-.39,0,2.23,2.23,0,0,1-.77-.14,2.29,2.29,0,0,1-1.54-2.17A2.22,2.22,0,0,1,9.79,11a2.29,2.29,0,0,1,1-.67,2.23,2.23,0,0,1,.77-.14,1.72,1.72,0,0,1,.39,0h0a2.3,2.3,0,0,1,0,4.53Z"/></svg>