<svg width="753" height="242" viewBox="0 0 753 242" fill="none" xmlns="http://www.w3.org/2000/svg">
<g opacity="0.1" clip-path="url(#clip0)">
<path d="M800.6 183.598C800.071 167.361 793.039 151.822 780.765 139.764C768.49 127.707 751.774 119.92 733.614 117.798C732.488 95.043 721.302 73.5964 702.478 58.1003C683.653 42.6042 658.704 34.3053 633.032 34.9999C612.318 34.6988 592.007 40.0883 574.885 50.4291C557.762 60.77 544.667 75.5556 537.396 92.7577C515.512 95.1492 495.315 104.406 480.458 118.855C465.601 133.304 457.065 151.99 456.394 171.535C457.307 193.515 468.023 214.275 486.188 229.252C504.352 244.23 528.479 252.199 553.266 251.409H718.155C719.527 251.511 720.906 251.511 722.278 251.409C742.717 251.368 762.332 244.261 776.957 231.599C791.582 218.937 800.063 201.717 800.6 183.598Z" fill="url(#paint0_linear)"/>
<path d="M629.526 226.734C579.029 226.734 538.219 215.219 538.219 200.962V338.228C538.219 352.302 579.441 363.817 628.29 364H629.526C679.817 364 720.628 352.485 720.628 338.228V200.962C720.628 215.219 679.817 226.734 629.526 226.734Z" fill="url(#paint1_linear)"/>
<path d="M720.628 200.962C720.628 215.219 679.405 226.734 629.526 226.734C579.647 226.734 538.219 215.219 538.219 200.962C538.219 186.706 579.441 175.191 629.526 175.191C679.611 175.191 720.628 186.706 720.628 200.962Z" fill="#E8E8E8"/>
<path d="M699.4 199.5C699.4 208.456 668.071 215.95 629.528 215.95C590.986 215.95 559.451 208.456 559.451 199.5C559.451 190.544 590.78 183.05 629.528 183.05C668.277 183.05 699.4 190.361 699.4 199.5Z" fill="#50E6FF"/>
<path d="M629.526 202.79C610.799 202.403 592.112 204.497 574.082 209.004C592.093 213.609 610.786 215.766 629.526 215.402C648.264 215.741 666.953 213.584 684.97 209.004C666.934 204.524 648.252 202.43 629.526 202.79Z" fill="#32BEDD"/>
<path d="M572.646 126.389L626.028 78.5012C626.605 77.9761 627.294 77.5588 628.055 77.2738C628.816 76.9888 629.634 76.842 630.46 76.842C631.286 76.842 632.104 76.9888 632.865 77.2738C633.626 77.5588 634.315 77.9761 634.891 78.5012L688.274 126.389C688.732 126.715 689.056 127.166 689.197 127.672C689.338 128.178 689.287 128.711 689.053 129.189C688.818 129.666 688.414 130.063 687.9 130.316C687.387 130.57 686.794 130.667 686.213 130.593H653.441C652.676 130.593 651.942 130.862 651.401 131.342C650.86 131.822 650.556 132.473 650.556 133.152V191.823C650.588 192.095 650.552 192.369 650.449 192.626C650.347 192.883 650.181 193.116 649.963 193.309C649.746 193.502 649.483 193.649 649.193 193.74C648.903 193.831 648.594 193.863 648.288 193.834H612.425C611.824 193.834 611.247 193.622 610.822 193.245C610.397 192.868 610.158 192.357 610.158 191.823V132.603C610.218 132.001 610.017 131.401 609.596 130.926C609.174 130.45 608.565 130.135 607.891 130.045H574.501C574.055 129.987 573.632 129.831 573.272 129.59C572.912 129.35 572.627 129.033 572.442 128.668C572.257 128.304 572.179 127.904 572.214 127.505C572.25 127.107 572.398 126.723 572.646 126.389Z" fill="#F2F2F2"/>
</g>
<rect y="0.000427246" width="1018" height="403" fill="url(#paint2_linear)"/>
<defs>
<linearGradient id="paint0_linear" x1="628.497" y1="251.409" x2="628.497" y2="34.9999" gradientUnits="userSpaceOnUse">
<stop stop-color="#0078D4"/>
<stop offset="0.16" stop-color="#1380DA"/>
<stop offset="0.53" stop-color="#3C91E5"/>
<stop offset="0.82" stop-color="#559CEC"/>
<stop offset="1" stop-color="#5EA0EF"/>
</linearGradient>
<linearGradient id="paint1_linear" x1="538.219" y1="282.481" x2="720.628" y2="282.481" gradientUnits="userSpaceOnUse">
<stop stop-color="#32BEDD"/>
<stop offset="0.06" stop-color="#37C5E3"/>
<stop offset="0.3" stop-color="#49DDF7"/>
<stop offset="0.45" stop-color="#50E6FF"/>
<stop offset="0.55" stop-color="#50E6FF"/>
<stop offset="0.7" stop-color="#49DDF7"/>
<stop offset="0.94" stop-color="#37C5E3"/>
<stop offset="1" stop-color="#32BEDD"/>
</linearGradient>
<linearGradient id="paint2_linear" x1="509" y1="403" x2="509" y2="0.000435431" gradientUnits="userSpaceOnUse">
<stop stop-color="#F0F0F0"/>
<stop offset="1" stop-color="#F2F2F2" stop-opacity="0"/>
<stop offset="1" stop-color="#F2F2F2" stop-opacity="0.0572917"/>
</linearGradient>
<clipPath id="clip0">
<rect width="371" height="329" fill="white" transform="translate(443 35)"/>
</clipPath>
</defs>
</svg>
