<svg width="310" height="207" viewBox="0 0 310 207" fill="none" xmlns="http://www.w3.org/2000/svg">
<g opacity="0.1" clip-path="url(#clip0)">
<path d="M357.6 148.598C357.071 132.361 350.039 116.822 337.765 104.764C325.49 92.7068 308.774 84.9197 290.614 82.7983C289.488 60.043 278.302 38.5964 259.478 23.1003C240.653 7.60415 215.704 -0.694702 190.032 -6.17467e-05C169.318 -0.301247 149.007 5.08827 131.885 15.4291C114.762 25.77 101.667 40.5556 94.3959 57.7577C72.5117 60.1492 52.3148 69.4064 37.4581 83.8552C22.6013 98.304 14.0655 116.99 13.3943 136.535C14.307 158.515 25.0232 179.275 43.1878 194.252C61.3524 209.23 85.4793 217.199 110.266 216.409H275.155C276.527 216.511 277.906 216.511 279.278 216.409C299.717 216.368 319.332 209.261 333.957 196.599C348.582 183.937 357.063 166.717 357.6 148.598Z" fill="url(#paint0_linear)"/>
<path d="M186.526 191.734C136.029 191.734 95.2192 180.219 95.2192 165.962V303.228C95.2192 317.302 136.441 328.817 185.29 329H186.526C236.818 329 277.628 317.485 277.628 303.228V165.962C277.628 180.219 236.818 191.734 186.526 191.734Z" fill="url(#paint1_linear)"/>
<path d="M277.628 165.962C277.628 180.219 236.405 191.734 186.526 191.734C136.648 191.734 95.2192 180.219 95.2192 165.962C95.2192 151.706 136.441 140.191 186.526 140.191C236.612 140.191 277.628 151.706 277.628 165.962Z" fill="#E8E8E8"/>
<path d="M256.4 164.5C256.4 173.456 225.071 180.95 186.528 180.95C147.986 180.95 116.451 173.456 116.451 164.5C116.451 155.544 147.78 148.05 186.528 148.05C225.277 148.05 256.4 155.361 256.4 164.5Z" fill="#50E6FF"/>
<path d="M186.526 167.79C167.799 167.403 149.112 169.497 131.082 174.004C149.093 178.609 167.787 180.766 186.526 180.402C205.264 180.741 223.954 178.584 241.97 174.004C223.934 169.524 205.252 167.43 186.526 167.79Z" fill="#32BEDD"/>
<path d="M129.646 91.389L183.028 43.5012C183.605 42.9761 184.294 42.5588 185.055 42.2738C185.816 41.9888 186.634 41.842 187.46 41.842C188.286 41.842 189.104 41.9888 189.865 42.2738C190.626 42.5588 191.315 42.9761 191.891 43.5012L245.274 91.389C245.732 91.7153 246.056 92.1662 246.197 92.672C246.338 93.1779 246.287 93.7107 246.053 94.1885C245.818 94.6663 245.414 95.0626 244.901 95.3164C244.387 95.5701 243.794 95.6673 243.213 95.5929H210.441C209.676 95.5929 208.942 95.8625 208.401 96.3423C207.86 96.8222 207.556 97.4731 207.556 98.1517V156.823C207.588 157.095 207.552 157.369 207.449 157.626C207.347 157.883 207.181 158.116 206.963 158.309C206.746 158.502 206.483 158.649 206.193 158.74C205.903 158.831 205.594 158.863 205.288 158.834H169.425C168.824 158.834 168.247 158.622 167.822 158.245C167.397 157.868 167.158 157.357 167.158 156.823V97.6034C167.218 97.0011 167.017 96.4012 166.596 95.9258C166.175 95.4503 165.565 95.1352 164.891 95.0445H131.501C131.055 94.9871 130.632 94.8309 130.272 94.5903C129.913 94.3497 129.627 94.0326 129.442 93.6681C129.257 93.3037 129.179 92.9038 129.214 92.5054C129.25 92.107 129.398 91.723 129.646 91.389Z" fill="#F2F2F2"/>
</g>
<defs>
<linearGradient id="paint0_linear" x1="185.497" y1="216.409" x2="185.497" y2="-5.72786e-05" gradientUnits="userSpaceOnUse">
<stop stop-color="#0078D4"/>
<stop offset="0.16" stop-color="#1380DA"/>
<stop offset="0.53" stop-color="#3C91E5"/>
<stop offset="0.82" stop-color="#559CEC"/>
<stop offset="1" stop-color="#5EA0EF"/>
</linearGradient>
<linearGradient id="paint1_linear" x1="95.2192" y1="247.481" x2="277.628" y2="247.481" gradientUnits="userSpaceOnUse">
<stop stop-color="#32BEDD"/>
<stop offset="0.06" stop-color="#37C5E3"/>
<stop offset="0.3" stop-color="#49DDF7"/>
<stop offset="0.45" stop-color="#50E6FF"/>
<stop offset="0.55" stop-color="#50E6FF"/>
<stop offset="0.7" stop-color="#49DDF7"/>
<stop offset="0.94" stop-color="#37C5E3"/>
<stop offset="1" stop-color="#32BEDD"/>
</linearGradient>
<clipPath id="clip0">
<rect width="371" height="329" fill="white"/>
</clipPath>
</defs>
</svg>
