<svg width="804" height="186" viewBox="0 0 804 186" fill="none" xmlns="http://www.w3.org/2000/svg">
<g clip-path="url(#clip0)">
<path opacity="0.5" d="M171.212 133.929L244.704 141.064L268.012 127.626L244.704 114.188L171.212 133.929Z" stroke="#32B0E7" stroke-width="0.847" stroke-linejoin="round"/>
<path opacity="0.5" d="M213.666 78.5137L244.585 114.19L267.893 100.99L244.823 87.3137L213.666 78.5137Z" stroke="#32B0E7" stroke-width="0.847" stroke-miterlimit="10"/>
<path opacity="0.5" d="M244.585 114.188L244.704 87.3135L267.893 100.988V127.626L244.585 114.188Z" stroke="#32B0E7" stroke-width="0.847" stroke-linejoin="round"/>
<path opacity="0.5" d="M171.212 133.93L213.666 78.5137L244.585 114.189V141.065L171.212 133.93Z" stroke="#32B0E7" stroke-width="0.847" stroke-linejoin="round"/>
<path d="M247.444 140.827C247.444 141.415 247.27 141.989 246.943 142.478C246.616 142.967 246.152 143.348 245.609 143.573C245.066 143.798 244.468 143.857 243.891 143.743C243.314 143.628 242.785 143.345 242.369 142.929C241.953 142.513 241.67 141.983 241.555 141.407C241.44 140.83 241.499 140.232 241.724 139.689C241.949 139.146 242.33 138.681 242.819 138.355C243.308 138.028 243.883 137.854 244.471 137.854C244.863 137.85 245.251 137.924 245.613 138.072C245.976 138.22 246.305 138.439 246.582 138.716C246.859 138.993 247.078 139.322 247.226 139.684C247.374 140.047 247.448 140.435 247.444 140.827V140.827Z" fill="#32B0E7"/>
<path d="M247.677 113.952C247.677 114.54 247.503 115.114 247.176 115.603C246.849 116.092 246.385 116.473 245.842 116.698C245.298 116.923 244.701 116.982 244.124 116.868C243.547 116.753 243.018 116.47 242.602 116.054C242.186 115.638 241.903 115.108 241.788 114.532C241.673 113.955 241.732 113.357 241.957 112.814C242.182 112.271 242.563 111.806 243.052 111.48C243.541 111.153 244.116 110.979 244.704 110.979C245.095 110.975 245.484 111.049 245.846 111.197C246.208 111.345 246.538 111.564 246.815 111.841C247.091 112.118 247.31 112.447 247.458 112.81C247.606 113.172 247.681 113.56 247.677 113.952V113.952Z" fill="#32B0E7"/>
<path d="M270.744 100.751C270.744 101.339 270.569 101.914 270.243 102.403C269.916 102.892 269.452 103.273 268.909 103.498C268.365 103.723 267.768 103.782 267.191 103.667C266.614 103.552 266.084 103.269 265.669 102.854C265.253 102.438 264.97 101.908 264.855 101.331C264.74 100.755 264.799 100.157 265.024 99.6136C265.249 99.0704 265.63 98.6061 266.119 98.2794C266.608 97.9527 267.183 97.7783 267.771 97.7783C268.555 97.7907 269.305 98.1079 269.859 98.6628C270.414 99.2177 270.731 99.9667 270.744 100.751V100.751Z" fill="#32B0E7"/>
<path d="M247.558 87.3131C247.557 87.9009 247.382 88.4754 247.055 88.964C246.728 89.4525 246.264 89.833 245.72 90.0576C245.177 90.2822 244.579 90.3406 244.003 90.2256C243.426 90.1105 242.897 89.8271 242.482 89.4112C242.066 88.9953 241.783 88.4656 241.669 87.889C241.554 87.3123 241.613 86.7147 241.838 86.1716C242.064 85.6286 242.445 85.1644 242.933 84.8379C243.422 84.5113 243.997 84.3371 244.585 84.3371C244.977 84.3332 245.365 84.4075 245.728 84.5557C246.09 84.704 246.42 84.9231 246.697 85.2002C246.974 85.4774 247.192 85.807 247.34 86.1698C247.488 86.5326 247.562 86.9213 247.558 87.3131V87.3131Z" fill="#32B0E7"/>
<path d="M216.644 78.5132C216.644 79.1012 216.469 79.676 216.143 80.1649C215.816 80.6538 215.352 81.0349 214.808 81.2599C214.265 81.4849 213.667 81.5438 213.091 81.4291C212.514 81.3143 211.984 81.0312 211.569 80.6154C211.153 80.1996 210.87 79.6699 210.755 79.0932C210.64 78.5165 210.699 77.9187 210.924 77.3755C211.149 76.8322 211.53 76.3679 212.019 76.0412C212.508 75.7145 213.083 75.5402 213.671 75.5402C214.062 75.5363 214.451 75.6106 214.813 75.7586C215.175 75.9066 215.505 76.1255 215.782 76.4023C216.058 76.6792 216.277 77.0084 216.425 77.3709C216.573 77.7333 216.648 78.1217 216.644 78.5132V78.5132Z" fill="#32B0E7"/>
<path d="M270.744 127.626C270.744 128.214 270.569 128.789 270.243 129.278C269.916 129.767 269.452 130.148 268.909 130.373C268.365 130.598 267.768 130.657 267.191 130.542C266.614 130.428 266.084 130.144 265.669 129.729C265.253 129.313 264.97 128.783 264.855 128.206C264.74 127.63 264.799 127.032 265.024 126.489C265.249 125.946 265.63 125.481 266.119 125.155C266.608 124.828 267.183 124.653 267.771 124.653C268.162 124.65 268.551 124.724 268.913 124.872C269.276 125.02 269.605 125.239 269.882 125.516C270.159 125.792 270.377 126.122 270.525 126.484C270.673 126.847 270.748 127.235 270.744 127.626Z" fill="#32B0E7"/>
<path opacity="0.5" d="M641.192 157.407L714.684 164.542L737.992 151.104L714.684 137.666L641.192 157.407Z" stroke="#32B0E7" stroke-width="0.847" stroke-linejoin="round"/>
<path opacity="0.5" d="M683.644 101.991L714.563 137.667L737.871 124.467L714.801 110.791L683.644 101.991Z" stroke="#32B0E7" stroke-width="0.847" stroke-miterlimit="10"/>
<path opacity="0.5" d="M714.565 137.666L714.684 110.791L737.873 124.466V151.104L714.565 137.666Z" stroke="#32B0E7" stroke-width="0.847" stroke-linejoin="round"/>
<path opacity="0.5" d="M641.192 157.407L683.644 101.991L714.563 137.666V164.542L641.192 157.407Z" stroke="#32B0E7" stroke-width="0.847" stroke-linejoin="round"/>
<path d="M717.419 164.304C717.419 164.892 717.244 165.467 716.918 165.956C716.591 166.445 716.127 166.826 715.583 167.051C715.04 167.276 714.442 167.335 713.866 167.22C713.289 167.105 712.759 166.822 712.343 166.406C711.928 165.991 711.644 165.461 711.53 164.884C711.415 164.307 711.474 163.71 711.699 163.166C711.924 162.623 712.305 162.159 712.794 161.832C713.283 161.506 713.858 161.331 714.446 161.331C714.837 161.327 715.225 161.402 715.588 161.55C715.95 161.698 716.28 161.916 716.557 162.193C716.833 162.47 717.052 162.799 717.2 163.162C717.348 163.524 717.423 163.913 717.419 164.304Z" fill="#32B0E7"/>
<path d="M717.657 137.429C717.657 138.017 717.483 138.592 717.156 139.081C716.829 139.57 716.365 139.951 715.822 140.176C715.278 140.401 714.681 140.46 714.104 140.345C713.527 140.23 712.998 139.947 712.582 139.531C712.166 139.116 711.883 138.586 711.768 138.009C711.653 137.432 711.712 136.835 711.937 136.291C712.162 135.748 712.543 135.284 713.032 134.957C713.521 134.631 714.096 134.456 714.684 134.456C715.075 134.452 715.464 134.527 715.826 134.675C716.189 134.823 716.518 135.041 716.795 135.318C717.072 135.595 717.29 135.924 717.439 136.287C717.587 136.649 717.661 137.038 717.657 137.429Z" fill="#32B0E7"/>
<path d="M740.727 124.229C740.727 124.817 740.552 125.392 740.226 125.881C739.899 126.369 739.435 126.751 738.891 126.976C738.348 127.201 737.75 127.259 737.174 127.145C736.597 127.03 736.067 126.747 735.652 126.331C735.236 125.915 734.953 125.386 734.838 124.809C734.723 124.232 734.782 123.634 735.007 123.091C735.232 122.548 735.613 122.084 736.102 121.757C736.591 121.43 737.166 121.256 737.754 121.256C738.538 121.268 739.287 121.585 739.842 122.14C740.397 122.695 740.714 123.444 740.727 124.229V124.229Z" fill="#32B0E7"/>
<path d="M717.538 110.791C717.538 111.379 717.363 111.954 717.037 112.443C716.71 112.932 716.246 113.313 715.703 113.538C715.159 113.763 714.562 113.822 713.985 113.707C713.408 113.593 712.878 113.31 712.463 112.894C712.047 112.478 711.764 111.948 711.649 111.371C711.534 110.795 711.593 110.197 711.818 109.654C712.043 109.111 712.424 108.646 712.913 108.32C713.402 107.993 713.977 107.819 714.565 107.819C714.956 107.815 715.345 107.889 715.707 108.037C716.07 108.185 716.399 108.404 716.676 108.681C716.952 108.957 717.171 109.287 717.319 109.649C717.467 110.012 717.542 110.4 717.538 110.791Z" fill="#32B0E7"/>
<path d="M686.619 101.992C686.619 102.58 686.445 103.155 686.118 103.643C685.791 104.132 685.327 104.513 684.784 104.738C684.24 104.963 683.643 105.022 683.066 104.908C682.489 104.793 681.959 104.51 681.544 104.094C681.128 103.678 680.845 103.148 680.73 102.572C680.615 101.995 680.674 101.397 680.899 100.854C681.124 100.311 681.505 99.8464 681.994 99.5197C682.483 99.1931 683.058 99.0187 683.646 99.0187C684.037 99.0148 684.426 99.0891 684.788 99.2371C685.151 99.3851 685.48 99.604 685.757 99.8808C686.034 100.158 686.252 100.487 686.4 100.849C686.548 101.212 686.623 101.6 686.619 101.992Z" fill="#32B0E7"/>
<path d="M644.471 156.35C644.471 156.938 644.297 157.513 643.97 158.002C643.643 158.491 643.179 158.872 642.636 159.097C642.092 159.322 641.495 159.381 640.918 159.266C640.341 159.151 639.811 158.868 639.396 158.452C638.98 158.037 638.697 157.507 638.582 156.93C638.467 156.353 638.526 155.756 638.751 155.212C638.976 154.669 639.357 154.205 639.846 153.878C640.335 153.551 640.91 153.377 641.498 153.377C641.889 153.373 642.278 153.447 642.64 153.596C643.003 153.744 643.332 153.962 643.609 154.239C643.886 154.516 644.104 154.845 644.252 155.208C644.401 155.57 644.475 155.959 644.471 156.35V156.35Z" fill="#32B0E7"/>
<path d="M740.727 151.104C740.727 151.692 740.552 152.267 740.226 152.756C739.899 153.245 739.435 153.626 738.891 153.851C738.348 154.076 737.75 154.135 737.174 154.02C736.597 153.905 736.067 153.622 735.652 153.206C735.236 152.79 734.953 152.261 734.838 151.684C734.723 151.107 734.782 150.51 735.007 149.966C735.232 149.423 735.613 148.959 736.102 148.632C736.591 148.305 737.166 148.131 737.754 148.131C738.145 148.127 738.534 148.201 738.896 148.349C739.259 148.497 739.588 148.716 739.865 148.993C740.141 149.27 740.36 149.599 740.508 149.962C740.656 150.324 740.731 150.712 740.727 151.104Z" fill="#32B0E7"/>
<path opacity="0.5" d="M701.395 89.6375L724.465 103.076L800.453 84.1675L724.465 76.4375L701.395 89.6375Z" stroke="#32B0E7" stroke-width="0.847" stroke-linecap="round" stroke-linejoin="round"/>
<path opacity="0.5" d="M701.395 62.7576L724.584 76.4376L747.891 62.9996L724.821 49.5576L701.395 62.7576Z" stroke="#32B0E7" stroke-width="0.847" stroke-miterlimit="10"/>
<path opacity="0.5" d="M724.465 76.4375L724.584 49.5615L747.773 62.9995L800.573 84.1665L724.465 76.4375Z" stroke="#32B0E7" stroke-width="0.847" stroke-linecap="round" stroke-linejoin="round"/>
<path opacity="0.5" d="M701.395 89.6368V62.7568L724.584 76.4368V103.074L701.395 89.6368Z" stroke="#32B0E7" stroke-width="0.847" stroke-miterlimit="10"/>
<path d="M803.307 82.2814C803.307 82.8694 803.133 83.4442 802.806 83.9332C802.479 84.4221 802.015 84.8031 801.472 85.0281C800.928 85.2532 800.331 85.312 799.754 85.1973C799.177 85.0826 798.647 84.7995 798.232 84.3837C797.816 83.9679 797.533 83.4382 797.418 82.8614C797.303 82.2847 797.362 81.687 797.587 81.1437C797.812 80.6005 798.193 80.1362 798.682 79.8095C799.171 79.4828 799.746 79.3084 800.334 79.3084C800.728 79.2945 801.121 79.3618 801.488 79.5063C801.855 79.6507 802.188 79.8692 802.467 80.1481C802.746 80.427 802.965 80.7604 803.109 81.1274C803.254 81.4944 803.321 81.8873 803.307 82.2814V82.2814Z" fill="#32B0E7"/>
<path d="M704.249 89.394C704.249 89.9821 704.075 90.557 703.748 91.046C703.422 91.535 702.957 91.9163 702.414 92.1414C701.871 92.3666 701.273 92.4256 700.696 92.311C700.12 92.1964 699.59 91.9133 699.174 91.4976C698.758 91.0819 698.475 90.5521 698.36 89.9754C698.245 89.3987 698.304 88.8008 698.529 88.2575C698.754 87.7142 699.135 87.2499 699.624 86.9231C700.113 86.5964 700.688 86.422 701.276 86.422C701.667 86.4181 702.055 86.4924 702.418 86.6403C702.78 86.7883 703.109 87.0071 703.386 87.2838C703.663 87.5605 703.882 87.8897 704.03 88.252C704.178 88.6144 704.253 89.0026 704.249 89.394Z" fill="#32B0E7"/>
<path d="M727.556 76.3137C727.555 76.9016 727.38 77.4761 727.053 77.9645C726.726 78.4529 726.261 78.8333 725.718 79.0577C725.174 79.282 724.577 79.3403 724 79.225C723.424 79.1098 722.894 78.8262 722.479 78.4102C722.064 77.9942 721.781 77.4643 721.667 76.8877C721.552 76.311 721.612 75.7134 721.837 75.1704C722.062 74.6274 722.443 74.1634 722.932 73.837C723.421 73.5106 723.996 73.3365 724.584 73.3367C724.978 73.3229 725.371 73.3904 725.739 73.5352C726.106 73.68 726.439 73.8988 726.718 74.1782C726.997 74.4575 727.215 74.7913 727.359 75.1587C727.504 75.5261 727.57 75.9193 727.556 76.3137V76.3137Z" fill="#32B0E7"/>
<path d="M750.864 63.1138C750.864 63.7018 750.689 64.2766 750.363 64.7655C750.036 65.2544 749.572 65.6354 749.028 65.8605C748.485 66.0855 747.887 66.1444 747.311 66.0296C746.734 65.9149 746.204 65.6318 745.789 65.216C745.373 64.8002 745.09 64.2705 744.975 63.6938C744.86 63.1171 744.919 62.5193 745.144 61.9761C745.369 61.4328 745.75 60.9685 746.239 60.6418C746.728 60.3151 747.303 60.1408 747.891 60.1408C748.282 60.1369 748.671 60.2111 749.033 60.3592C749.395 60.5072 749.725 60.7261 750.002 61.0029C750.278 61.2797 750.497 61.609 750.645 61.9715C750.793 62.3339 750.868 62.7223 750.864 63.1138V63.1138Z" fill="#32B0E7"/>
<path d="M727.438 49.5571C727.438 50.1451 727.263 50.7199 726.937 51.2088C726.61 51.6977 726.146 52.0788 725.602 52.3038C725.059 52.5288 724.461 52.5877 723.885 52.473C723.308 52.3583 722.778 52.0751 722.362 51.6594C721.947 51.2436 721.664 50.7138 721.549 50.1371C721.434 49.5604 721.493 48.9627 721.718 48.4194C721.943 47.8762 722.324 47.4118 722.813 47.0852C723.302 46.7585 723.877 46.5841 724.465 46.5841C724.856 46.5803 725.245 46.6545 725.607 46.8025C725.969 46.9506 726.299 47.1694 726.576 47.4463C726.852 47.7231 727.071 48.0524 727.219 48.4148C727.367 48.7773 727.442 49.1656 727.438 49.5571V49.5571Z" fill="#32B0E7"/>
<path d="M704.367 62.7573C704.367 63.3454 704.193 63.9202 703.866 64.4091C703.539 64.8981 703.075 65.2791 702.531 65.5041C701.988 65.7291 701.39 65.7879 700.813 65.6731C700.237 65.5583 699.707 65.2751 699.291 64.8592C698.876 64.4433 698.593 63.9135 698.478 63.3367C698.363 62.7599 698.422 62.1621 698.647 61.6189C698.873 61.0757 699.254 60.6114 699.743 60.2849C700.232 59.9583 700.807 59.7841 701.395 59.7843C701.786 59.7806 702.175 59.8549 702.537 60.003C702.899 60.1511 703.228 60.37 703.505 60.6468C703.782 60.9236 704.001 61.2529 704.149 61.6153C704.297 61.9776 704.371 62.3659 704.367 62.7573V62.7573Z" fill="#32B0E7"/>
<path opacity="0.5" d="M180.383 78.937L157.313 65.499L81.3247 84.402L157.313 92.131L180.383 78.937Z" stroke="#32B0E7" stroke-width="0.847" stroke-linecap="round" stroke-linejoin="round"/>
<path opacity="0.5" d="M180.383 105.807L157.194 92.1309L133.887 105.569L156.957 119.007L180.383 105.807Z" stroke="#32B0E7" stroke-width="0.847" stroke-miterlimit="10"/>
<path opacity="0.5" d="M157.313 92.1313L157.194 119.007L134.005 105.569L81.2051 84.4023L157.313 92.1313Z" stroke="#32B0E7" stroke-width="0.847" stroke-linecap="round" stroke-linejoin="round"/>
<path opacity="0.5" d="M180.383 78.9371V105.807L157.194 92.1311V65.4941L180.383 78.9371Z" stroke="#32B0E7" stroke-width="0.847" stroke-miterlimit="10"/>
<path d="M78.471 84.2835C78.471 83.6955 78.6454 83.1207 78.9721 82.6318C79.2988 82.1429 79.7631 81.7619 80.3063 81.5368C80.8496 81.3118 81.4473 81.253 82.024 81.3677C82.6008 81.4824 83.1305 81.7655 83.5463 82.1813C83.9621 82.5971 84.2452 83.1268 84.3599 83.7035C84.4746 84.2802 84.4158 84.878 84.1907 85.4213C83.9657 85.9645 83.5847 86.4288 83.0958 86.7555C82.6068 87.0822 82.032 87.2565 81.444 87.2565C81.0499 87.2705 80.657 87.2032 80.29 87.0587C79.923 86.9143 79.5896 86.6958 79.3107 86.4169C79.0318 86.138 78.8133 85.8046 78.6689 85.4376C78.5244 85.0706 78.4571 84.6777 78.471 84.2835Z" fill="#32B0E7"/>
<path d="M177.529 79.1703C177.529 78.5822 177.703 78.0073 178.03 77.5183C178.356 77.0293 178.82 76.6481 179.364 76.4229C179.907 76.1977 180.505 76.1387 181.081 76.2533C181.658 76.3679 182.188 76.651 182.604 77.0667C183.02 77.4825 183.303 78.0122 183.418 78.5889C183.533 79.1657 183.474 79.7635 183.249 80.3068C183.024 80.8501 182.643 81.3145 182.154 81.6412C181.665 81.9679 181.09 82.1423 180.502 82.1423C180.111 82.1462 179.722 82.0719 179.36 81.924C178.998 81.776 178.668 81.5572 178.391 81.2805C178.115 81.0038 177.896 80.6746 177.748 80.3123C177.6 79.9499 177.525 79.5617 177.529 79.1703V79.1703Z" fill="#32B0E7"/>
<path d="M154.222 92.2503C154.222 91.6623 154.396 91.0875 154.723 90.5985C155.05 90.1096 155.514 89.7285 156.058 89.5036C156.601 89.2786 157.199 89.2197 157.775 89.3345C158.352 89.4493 158.882 89.7326 159.298 90.1485C159.713 90.5644 159.996 91.0942 160.111 91.6709C160.226 92.2477 160.167 92.8455 159.941 93.3888C159.716 93.932 159.335 94.3962 158.846 94.7228C158.357 95.0494 157.782 95.2235 157.194 95.2233C156.8 95.2372 156.407 95.1697 156.04 95.0252C155.673 94.8807 155.34 94.6622 155.061 94.3833C154.783 94.1044 154.564 93.7711 154.42 93.4041C154.275 93.0372 154.208 92.6444 154.222 92.2503V92.2503Z" fill="#32B0E7"/>
<path d="M130.914 105.451C130.914 104.863 131.088 104.288 131.415 103.799C131.741 103.31 132.206 102.929 132.749 102.704C133.292 102.479 133.89 102.42 134.467 102.535C135.043 102.649 135.573 102.933 135.989 103.348C136.405 103.764 136.688 104.294 136.803 104.871C136.917 105.447 136.858 106.045 136.633 106.588C136.408 107.132 136.027 107.596 135.538 107.923C135.05 108.249 134.475 108.424 133.887 108.424C133.495 108.427 133.107 108.353 132.744 108.205C132.382 108.057 132.053 107.838 131.776 107.561C131.499 107.285 131.28 106.955 131.132 106.593C130.984 106.23 130.91 105.842 130.914 105.451V105.451Z" fill="#32B0E7"/>
<path d="M154.344 119.007C154.344 118.419 154.518 117.844 154.845 117.355C155.172 116.867 155.636 116.486 156.179 116.26C156.722 116.035 157.32 115.977 157.897 116.091C158.474 116.206 159.003 116.489 159.419 116.905C159.835 117.321 160.118 117.85 160.233 118.427C160.347 119.004 160.289 119.602 160.064 120.145C159.839 120.688 159.458 121.152 158.969 121.479C158.48 121.806 157.905 121.98 157.317 121.98C156.925 121.984 156.537 121.91 156.175 121.762C155.812 121.614 155.483 121.395 155.206 121.118C154.929 120.841 154.71 120.512 154.562 120.149C154.414 119.787 154.34 119.399 154.344 119.007V119.007Z" fill="#32B0E7"/>
<path d="M177.411 105.807C177.411 105.219 177.585 104.644 177.912 104.155C178.239 103.666 178.703 103.285 179.246 103.06C179.79 102.835 180.387 102.776 180.964 102.891C181.541 103.006 182.071 103.289 182.486 103.705C182.902 104.121 183.185 104.651 183.3 105.228C183.414 105.804 183.355 106.402 183.13 106.945C182.905 107.489 182.524 107.953 182.035 108.279C181.546 108.606 180.971 108.78 180.383 108.78C179.991 108.784 179.603 108.709 179.241 108.561C178.878 108.413 178.549 108.194 178.273 107.917C177.996 107.641 177.777 107.311 177.629 106.949C177.481 106.587 177.407 106.198 177.411 105.807Z" fill="#32B0E7"/>
<path opacity="0.5" d="M312.454 105.47L369.772 161.124L359.072 106.065L335.764 92.2646L312.454 105.47Z" stroke="#32B0E7" stroke-width="0.847" stroke-linejoin="round"/>
<path opacity="0.5" d="M294.378 34L335.762 92.269L442.787 62.896L336.713 41.61L294.378 34Z" stroke="#32B0E7" stroke-width="0.847" stroke-miterlimit="10"/>
<path opacity="0.5" d="M335.762 92.2692L336.713 41.4912L442.787 62.7782L359.069 106.063L335.762 92.2692Z" stroke="#32B0E7" stroke-width="0.847" stroke-miterlimit="10"/>
<path opacity="0.5" d="M312.454 105.469L294.378 34L335.762 92.269L369.772 161.003L312.454 105.469Z" stroke="#32B0E7" stroke-width="0.847" stroke-linejoin="round"/>
<path d="M361.923 106.065C361.923 106.653 361.748 107.228 361.422 107.716C361.095 108.205 360.631 108.586 360.087 108.811C359.544 109.036 358.946 109.095 358.369 108.98C357.793 108.866 357.263 108.582 356.847 108.166C356.431 107.751 356.148 107.221 356.034 106.644C355.919 106.067 355.978 105.469 356.203 104.926C356.429 104.383 356.81 103.919 357.299 103.592C357.788 103.266 358.363 103.091 358.951 103.092C359.345 103.078 359.738 103.145 360.105 103.29C360.471 103.434 360.805 103.653 361.083 103.932C361.362 104.211 361.581 104.544 361.725 104.911C361.869 105.278 361.937 105.671 361.923 106.065V106.065Z" fill="#32B0E7"/>
<path d="M315.427 105.469C315.427 106.057 315.253 106.632 314.926 107.121C314.599 107.61 314.135 107.991 313.592 108.216C313.048 108.441 312.451 108.5 311.874 108.385C311.297 108.27 310.768 107.987 310.352 107.571C309.936 107.156 309.653 106.626 309.538 106.049C309.423 105.473 309.482 104.875 309.707 104.332C309.932 103.788 310.313 103.324 310.802 102.997C311.291 102.671 311.866 102.496 312.454 102.496C312.845 102.492 313.234 102.567 313.596 102.715C313.959 102.863 314.288 103.082 314.565 103.358C314.842 103.635 315.061 103.965 315.209 104.327C315.357 104.689 315.431 105.078 315.427 105.469Z" fill="#32B0E7"/>
<path d="M338.616 92.3882C338.616 92.9762 338.442 93.551 338.115 94.0399C337.788 94.5288 337.324 94.9099 336.781 95.1349C336.237 95.3599 335.64 95.4188 335.063 95.304C334.486 95.1893 333.956 94.9062 333.541 94.4904C333.125 94.0746 332.842 93.5449 332.727 92.9682C332.612 92.3915 332.671 91.7937 332.896 91.2505C333.121 90.7072 333.502 90.2429 333.991 89.9162C334.48 89.5895 335.055 89.4152 335.643 89.4152C336.034 89.4114 336.423 89.4858 336.785 89.6339C337.147 89.7819 337.477 90.0008 337.754 90.2776C338.03 90.5544 338.249 90.8837 338.397 91.246C338.545 91.6084 338.62 91.9967 338.616 92.3882Z" fill="#32B0E7"/>
<path d="M444.76 62.896C444.76 63.484 444.586 64.0589 444.259 64.548C443.933 65.037 443.469 65.4182 442.925 65.6434C442.382 65.8686 441.784 65.9276 441.208 65.813C440.631 65.6984 440.101 65.4153 439.685 64.9996C439.269 64.5838 438.986 64.0541 438.871 63.4773C438.756 62.9006 438.815 62.3028 439.04 61.7595C439.265 61.2162 439.646 60.7518 440.135 60.4251C440.624 60.0984 441.199 59.924 441.787 59.924C442.178 59.9201 442.567 59.9943 442.929 60.1423C443.291 60.2903 443.621 60.509 443.897 60.7858C444.174 61.0625 444.393 61.3917 444.541 61.754C444.689 62.1163 444.764 62.5046 444.76 62.896V62.896Z" fill="#32B0E7"/>
<path d="M339.567 41.6099C339.567 42.1979 339.393 42.7727 339.066 43.2616C338.739 43.7505 338.275 44.1315 337.732 44.3566C337.189 44.5816 336.591 44.6404 336.014 44.5257C335.437 44.411 334.908 44.1279 334.492 43.7121C334.076 43.2963 333.793 42.7666 333.678 42.1899C333.564 41.6132 333.622 41.0154 333.847 40.4721C334.072 39.9289 334.453 39.4646 334.942 39.1379C335.431 38.8112 336.006 38.6369 336.594 38.6369C336.986 38.633 337.374 38.7072 337.736 38.8553C338.099 39.0033 338.428 39.2221 338.705 39.499C338.982 39.7758 339.201 40.1051 339.349 40.4676C339.497 40.83 339.571 41.2184 339.567 41.6099Z" fill="#32B0E7"/>
<path d="M297.47 34.0005C297.47 34.5885 297.296 35.1634 296.969 35.6523C296.642 36.1412 296.178 36.5223 295.634 36.7473C295.091 36.9723 294.493 37.0311 293.917 36.9163C293.34 36.8015 292.81 36.5182 292.394 36.1024C291.979 35.6865 291.696 35.1566 291.581 34.5799C291.466 34.0031 291.525 33.4053 291.751 32.8621C291.976 32.3188 292.357 31.8546 292.846 31.528C293.335 31.2015 293.91 31.0273 294.498 31.0275C294.889 31.0237 295.278 31.0981 295.64 31.2462C296.002 31.3943 296.331 31.6131 296.608 31.89C296.885 32.1668 297.104 32.496 297.252 32.8584C297.4 33.2208 297.474 33.6091 297.47 34.0005Z" fill="#32B0E7"/>
<path opacity="0.5" d="M383.399 109.366L406.588 123.042L429.896 109.842L406.826 96.166L383.399 109.366Z" stroke="#32B0E7" stroke-width="0.847" stroke-miterlimit="10"/>
<path opacity="0.5" d="M365.61 55.5244L406.826 96.1664L495.062 100.328L407.707 72.2914L365.61 55.5244Z" stroke="#32B0E7" stroke-width="0.847" stroke-linejoin="round"/>
<path opacity="0.5" d="M406.707 96.166L407.707 72.291L495.062 100.328L429.896 109.842L406.707 96.166Z" stroke="#32B0E7" stroke-width="0.847" stroke-linejoin="round"/>
<path opacity="0.5" d="M384.399 109.689L367.16 57.5371L406.826 96.1671L407.588 123.367L384.399 109.689Z" stroke="#32B0E7" stroke-width="0.847" stroke-linejoin="round"/>
<path d="M432.631 109.723C432.631 110.311 432.456 110.886 432.13 111.375C431.803 111.864 431.339 112.245 430.796 112.47C430.252 112.695 429.655 112.754 429.078 112.639C428.501 112.524 427.971 112.241 427.556 111.825C427.14 111.41 426.857 110.88 426.742 110.303C426.627 109.726 426.686 109.129 426.911 108.585C427.136 108.042 427.517 107.578 428.006 107.251C428.495 106.925 429.07 106.75 429.658 106.75C430.049 106.746 430.438 106.821 430.8 106.969C431.163 107.117 431.492 107.335 431.769 107.612C432.046 107.889 432.264 108.218 432.412 108.581C432.56 108.943 432.635 109.332 432.631 109.723V109.723Z" fill="#32B0E7"/>
<path d="M409.323 122.923C409.323 123.511 409.149 124.086 408.822 124.575C408.495 125.064 408.031 125.445 407.488 125.67C406.944 125.895 406.347 125.954 405.77 125.839C405.193 125.724 404.664 125.441 404.248 125.025C403.832 124.609 403.549 124.08 403.434 123.503C403.319 122.926 403.378 122.329 403.603 121.785C403.828 121.242 404.209 120.778 404.698 120.451C405.187 120.124 405.762 119.95 406.35 119.95C406.744 119.936 407.137 120.003 407.504 120.148C407.871 120.292 408.204 120.511 408.483 120.79C408.762 121.069 408.981 121.402 409.125 121.769C409.27 122.136 409.337 122.529 409.323 122.923V122.923Z" fill="#32B0E7"/>
<path d="M386.253 109.247C386.253 109.835 386.079 110.41 385.752 110.899C385.425 111.388 384.961 111.769 384.418 111.994C383.874 112.219 383.277 112.278 382.7 112.163C382.123 112.048 381.593 111.765 381.178 111.349C380.762 110.934 380.479 110.404 380.364 109.827C380.249 109.251 380.308 108.653 380.533 108.11C380.758 107.566 381.139 107.102 381.628 106.775C382.117 106.449 382.692 106.274 383.28 106.274C383.674 106.26 384.067 106.328 384.434 106.472C384.801 106.617 385.134 106.835 385.413 107.114C385.692 107.393 385.911 107.726 386.055 108.093C386.2 108.46 386.267 108.853 386.253 109.247V109.247Z" fill="#32B0E7"/>
<path d="M409.561 96.048C409.561 96.636 409.386 97.2108 409.06 97.6998C408.733 98.1887 408.269 98.5697 407.725 98.7947C407.182 99.0197 406.584 99.0786 406.008 98.9639C405.431 98.8492 404.901 98.5661 404.486 98.1503C404.07 97.7345 403.787 97.2047 403.672 96.628C403.557 96.0513 403.616 95.4536 403.841 94.9103C404.066 94.3671 404.447 93.9028 404.936 93.5761C405.425 93.2494 406 93.075 406.588 93.075C406.982 93.0611 407.375 93.1284 407.742 93.2729C408.109 93.4173 408.442 93.6358 408.721 93.9147C409 94.1936 409.218 94.527 409.363 94.894C409.507 95.261 409.575 95.6539 409.561 96.048Z" fill="#32B0E7"/>
<path d="M497.798 100.21C497.798 100.798 497.623 101.373 497.297 101.862C496.97 102.351 496.506 102.732 495.963 102.957C495.419 103.182 494.822 103.241 494.245 103.126C493.668 103.011 493.138 102.728 492.723 102.312C492.307 101.897 492.024 101.367 491.909 100.79C491.794 100.213 491.853 99.6156 492.078 99.0724C492.303 98.5292 492.684 98.0648 493.173 97.7382C493.662 97.4115 494.237 97.2371 494.825 97.2371C495.219 97.2233 495.612 97.2907 495.979 97.4353C496.346 97.5798 496.679 97.7983 496.958 98.0771C497.237 98.356 497.455 98.6893 497.6 99.0563C497.744 99.4232 497.812 99.816 497.798 100.21V100.21Z" fill="#32B0E7"/>
<path d="M410.444 71.4104C410.444 71.9984 410.269 72.5732 409.943 73.0621C409.616 73.551 409.152 73.932 408.609 74.157C408.065 74.3821 407.468 74.4409 406.891 74.3262C406.314 74.2115 405.784 73.9284 405.369 73.5126C404.953 73.0968 404.67 72.5671 404.555 71.9904C404.44 71.4136 404.499 70.8159 404.724 70.2726C404.949 69.7294 405.33 69.2651 405.819 68.9384C406.308 68.6117 406.883 68.4374 407.471 68.4374C407.865 68.4234 408.258 68.4907 408.625 68.6352C408.992 68.7796 409.325 68.9981 409.604 69.277C409.883 69.5559 410.102 69.8893 410.246 70.2563C410.39 70.6233 410.458 71.0162 410.444 71.4104V71.4104Z" fill="#32B0E7"/>
<path d="M368.702 55.5239C368.702 56.1119 368.528 56.6867 368.201 57.1756C367.874 57.6645 367.41 58.0456 366.867 58.2706C366.323 58.4956 365.726 58.5545 365.149 58.4398C364.572 58.3251 364.042 58.0419 363.627 57.6262C363.211 57.2104 362.928 56.6806 362.813 56.1039C362.698 55.5272 362.757 54.9295 362.982 54.3862C363.207 53.843 363.588 53.3786 364.077 53.052C364.566 52.7253 365.141 52.5509 365.729 52.5509C366.12 52.547 366.509 52.6213 366.871 52.7693C367.234 52.9174 367.563 53.1362 367.84 53.4131C368.117 53.6899 368.335 54.0192 368.483 54.3816C368.631 54.7441 368.706 55.1324 368.702 55.5239V55.5239Z" fill="#32B0E7"/>
<path opacity="0.5" d="M269.287 56.1836V87.5196L292.595 69.8586L269.287 56.1836Z" stroke="#32B0E7" stroke-width="0.847" stroke-linejoin="round"/>
<path opacity="0.5" d="M269.287 87.1622V55.8262L292.595 69.5022L326.129 66.6482L269.287 87.1622Z" stroke="#32B0E7" stroke-width="0.847" stroke-miterlimit="10"/>
<path d="M328.983 66.6479C328.983 67.236 328.808 67.8108 328.482 68.2998C328.155 68.7887 327.69 69.1697 327.147 69.3947C326.604 69.6197 326.006 69.6785 325.429 69.5637C324.853 69.4489 324.323 69.1657 323.907 68.7498C323.491 68.3339 323.208 67.8041 323.094 67.2273C322.979 66.6506 323.038 66.0528 323.263 65.5095C323.488 64.9663 323.87 64.5021 324.359 64.1755C324.848 63.8489 325.423 63.6747 326.011 63.6749C326.402 63.6712 326.79 63.7455 327.153 63.8936C327.515 64.0417 327.844 64.2606 328.121 64.5374C328.398 64.8143 328.616 65.1435 328.764 65.5059C328.912 65.8683 328.987 66.2565 328.983 66.6479Z" fill="#32B0E7"/>
<path d="M271.744 85.9975C271.744 86.5856 271.57 87.1605 271.243 87.6496C270.917 88.1387 270.452 88.5199 269.909 88.745C269.366 88.9702 268.768 89.0291 268.191 88.9144C267.614 88.7998 267.084 88.5166 266.669 88.1008C266.253 87.6849 265.97 87.1551 265.855 86.5783C265.74 86.0015 265.799 85.4036 266.024 84.8603C266.249 84.3171 266.631 83.8527 267.12 83.5261C267.609 83.1995 268.184 83.0253 268.772 83.0255C269.163 83.0218 269.551 83.0961 269.914 83.2441C270.276 83.3922 270.605 83.6109 270.882 83.8877C271.158 84.1644 271.377 84.4935 271.525 84.8558C271.673 85.218 271.748 85.6062 271.744 85.9975V85.9975Z" fill="#32B0E7"/>
<path d="M295.33 69.2642C295.33 69.8522 295.155 70.427 294.829 70.9159C294.502 71.4048 294.038 71.7858 293.495 72.0108C292.951 72.2359 292.353 72.2947 291.777 72.18C291.2 72.0653 290.67 71.7822 290.255 71.3664C289.839 70.9506 289.556 70.4209 289.441 69.8442C289.326 69.2675 289.385 68.6697 289.61 68.1264C289.835 67.5832 290.216 67.1189 290.705 66.7922C291.194 66.4655 291.769 66.2912 292.357 66.2912C292.748 66.2873 293.137 66.3615 293.499 66.5096C293.862 66.6576 294.191 66.8764 294.468 67.1533C294.744 67.4301 294.963 67.7594 295.111 68.1219C295.259 68.4843 295.334 68.8727 295.33 69.2642V69.2642Z" fill="#32B0E7"/>
<path opacity="0.5" d="M499.729 166.371L478.07 182.637L498.904 166.537L524.344 176.942L499.729 166.371Z" stroke="#32B0E7" stroke-width="0.847" stroke-linejoin="round"/>
<path opacity="0.5" d="M493.244 116.12L390.132 148.883L499.732 166.371L534.493 103.924L493.244 116.12Z" stroke="#32B0E7" stroke-width="0.847" stroke-miterlimit="10"/>
<path opacity="0.5" d="M478.07 182.637L390.119 148.77L493.228 116.007L499.728 166.376L478.07 182.637Z" stroke="#32B0E7" stroke-width="0.847" stroke-miterlimit="10"/>
<path opacity="0.5" d="M498.891 166.417L499.728 166.371L534.489 103.924L524.344 176.942L498.891 166.417Z" stroke="#32B0E7" stroke-width="0.847" stroke-linejoin="round"/>
<path d="M477.862 179.665C478.446 179.601 479.037 179.711 479.559 179.982C480.08 180.253 480.51 180.673 480.793 181.189C481.077 181.704 481.201 182.292 481.15 182.878C481.099 183.463 480.876 184.021 480.508 184.48C480.14 184.939 479.644 185.278 479.084 185.455C478.523 185.632 477.922 185.639 477.358 185.475C476.793 185.311 476.29 184.983 475.911 184.533C475.533 184.082 475.297 183.53 475.233 182.945C475.176 182.555 475.2 182.157 475.303 181.777C475.407 181.396 475.587 181.041 475.834 180.734C476.08 180.426 476.388 180.172 476.737 179.989C477.086 179.805 477.469 179.695 477.862 179.665V179.665Z" fill="#32B0E7"/>
<path d="M524.015 173.988C524.599 173.923 525.19 174.034 525.711 174.305C526.233 174.576 526.663 174.996 526.946 175.511C527.229 176.027 527.353 176.615 527.302 177.2C527.251 177.786 527.027 178.344 526.659 178.803C526.292 179.261 525.796 179.601 525.235 179.778C524.674 179.955 524.074 179.962 523.509 179.797C522.945 179.633 522.441 179.305 522.063 178.855C521.685 178.404 521.449 177.852 521.385 177.268C521.338 176.879 521.369 176.485 521.477 176.108C521.585 175.732 521.766 175.381 522.011 175.075C522.256 174.77 522.559 174.516 522.903 174.33C523.247 174.143 523.625 174.027 524.015 173.988V173.988Z" fill="#32B0E7"/>
<path d="M499.534 163.521C500.118 163.456 500.709 163.567 501.23 163.838C501.752 164.109 502.182 164.529 502.465 165.045C502.748 165.56 502.872 166.148 502.821 166.733C502.77 167.319 502.546 167.877 502.179 168.335C501.811 168.794 501.315 169.134 500.755 169.311C500.194 169.488 499.594 169.495 499.029 169.331C498.464 169.167 497.961 168.839 497.583 168.389C497.205 167.938 496.968 167.386 496.904 166.802C496.857 166.413 496.888 166.019 496.996 165.642C497.103 165.266 497.285 164.914 497.53 164.609C497.775 164.303 498.078 164.05 498.422 163.863C498.766 163.676 499.144 163.56 499.534 163.521V163.521Z" fill="#32B0E7"/>
<path d="M493.034 113.153C493.618 113.088 494.209 113.199 494.73 113.47C495.252 113.741 495.682 114.161 495.965 114.676C496.248 115.192 496.372 115.779 496.321 116.365C496.27 116.951 496.046 117.508 495.679 117.967C495.311 118.426 494.815 118.765 494.255 118.943C493.694 119.12 493.094 119.127 492.529 118.963C491.964 118.798 491.461 118.471 491.083 118.02C490.705 117.57 490.468 117.018 490.404 116.434C490.357 116.045 490.388 115.651 490.496 115.274C490.603 114.898 490.785 114.546 491.03 114.241C491.275 113.935 491.578 113.682 491.922 113.495C492.266 113.308 492.644 113.192 493.034 113.153Z" fill="#32B0E7"/>
<path d="M534.044 100.983C534.628 100.918 535.219 101.029 535.74 101.3C536.262 101.571 536.692 101.991 536.975 102.507C537.258 103.022 537.382 103.61 537.331 104.196C537.28 104.781 537.056 105.339 536.688 105.798C536.321 106.256 535.825 106.596 535.264 106.773C534.704 106.95 534.103 106.957 533.538 106.792C532.974 106.628 532.47 106.3 532.092 105.85C531.714 105.4 531.478 104.847 531.414 104.263C531.367 103.874 531.399 103.48 531.506 103.103C531.614 102.727 531.795 102.376 532.04 102.07C532.285 101.765 532.588 101.511 532.932 101.325C533.276 101.138 533.654 101.022 534.044 100.983V100.983Z" fill="#32B0E7"/>
<path opacity="0.5" d="M426.029 154.384L429.517 178.019L466.044 133.111L426.029 154.384Z" stroke="#32B0E7" stroke-width="0.847" stroke-linejoin="round"/>
<path d="M465.596 130.17C466.18 130.106 466.771 130.216 467.293 130.488C467.814 130.759 468.244 131.179 468.527 131.694C468.81 132.209 468.934 132.797 468.883 133.383C468.832 133.969 468.608 134.526 468.241 134.985C467.873 135.444 467.377 135.783 466.816 135.96C466.256 136.137 465.655 136.144 465.09 135.98C464.526 135.816 464.023 135.488 463.644 135.037C463.266 134.587 463.03 134.035 462.966 133.45C462.919 133.061 462.95 132.667 463.058 132.291C463.165 131.914 463.347 131.563 463.592 131.258C463.837 130.952 464.14 130.699 464.484 130.512C464.828 130.325 465.206 130.209 465.596 130.17Z" fill="#32B0E7"/>
<path d="M426.36 151.422C426.944 151.358 427.535 151.468 428.057 151.74C428.578 152.011 429.008 152.431 429.291 152.946C429.574 153.461 429.698 154.049 429.647 154.635C429.596 155.221 429.372 155.778 429.005 156.237C428.637 156.696 428.141 157.035 427.58 157.212C427.02 157.389 426.419 157.396 425.854 157.232C425.29 157.068 424.787 156.74 424.408 156.289C424.03 155.839 423.794 155.287 423.73 154.702C423.683 154.313 423.715 153.919 423.822 153.543C423.93 153.166 424.111 152.815 424.356 152.51C424.601 152.204 424.904 151.951 425.248 151.764C425.593 151.577 425.97 151.461 426.36 151.422V151.422Z" fill="#32B0E7"/>
<path opacity="0.5" d="M561.856 123.23L540.184 139.374L565.284 154.374L561.856 123.226V123.23Z" stroke="#32B0E7" stroke-width="0.847" stroke-linejoin="round"/>
<path opacity="0.5" d="M506.5 139.85L540.146 139.018L561.817 122.875L565.245 154.022L506.5 139.85Z" stroke="#32B0E7" stroke-width="0.847" stroke-miterlimit="10"/>
<path d="M506.293 136.882C506.877 136.818 507.468 136.928 507.989 137.199C508.511 137.471 508.941 137.891 509.224 138.406C509.507 138.921 509.631 139.509 509.58 140.095C509.529 140.681 509.305 141.238 508.937 141.697C508.57 142.156 508.074 142.495 507.513 142.672C506.953 142.849 506.352 142.856 505.787 142.692C505.223 142.528 504.719 142.2 504.341 141.749C503.963 141.299 503.727 140.747 503.663 140.162C503.616 139.773 503.648 139.379 503.755 139.003C503.863 138.626 504.044 138.275 504.289 137.97C504.534 137.664 504.837 137.411 505.181 137.224C505.525 137.037 505.903 136.921 506.293 136.882V136.882Z" fill="#32B0E7"/>
<path d="M540.03 135.8C540.614 135.736 541.205 135.846 541.726 136.117C542.248 136.389 542.678 136.808 542.961 137.324C543.244 137.839 543.368 138.427 543.317 139.013C543.266 139.598 543.042 140.156 542.675 140.615C542.307 141.073 541.811 141.413 541.251 141.59C540.69 141.767 540.09 141.774 539.525 141.61C538.96 141.446 538.457 141.118 538.079 140.668C537.701 140.218 537.464 139.665 537.4 139.081C537.353 138.692 537.385 138.298 537.492 137.922C537.6 137.545 537.781 137.194 538.026 136.888C538.271 136.583 538.574 136.329 538.918 136.142C539.262 135.956 539.64 135.839 540.03 135.8V135.8Z" fill="#32B0E7"/>
<path d="M272.26 55.8264C272.26 56.4144 272.086 56.9892 271.759 57.4781C271.432 57.967 270.968 58.348 270.425 58.5731C269.881 58.7981 269.284 58.857 268.707 58.7422C268.13 58.6275 267.601 58.3444 267.185 57.9286C266.769 57.5128 266.486 56.9831 266.371 56.4064C266.256 55.8297 266.315 55.2319 266.54 54.6886C266.765 54.1454 267.146 53.6811 267.635 53.3544C268.124 53.0277 268.699 52.8534 269.287 52.8534C269.681 52.8394 270.074 52.9067 270.441 53.0512C270.808 53.1957 271.141 53.4141 271.42 53.693C271.699 53.9719 271.918 54.3053 272.062 54.6723C272.207 55.0393 272.274 55.4322 272.26 55.8264V55.8264Z" fill="#32B0E7"/>
<path opacity="0.5" d="M579.875 126.301L585.134 157.192L605.144 135.87L579.872 126.301H579.875Z" stroke="#32B0E7" stroke-width="0.847" stroke-linejoin="round"/>
<path opacity="0.5" d="M585.074 156.837L579.815 125.946L605.087 135.516L637.668 127.074L585.074 156.837Z" stroke="#32B0E7" stroke-width="0.847" stroke-miterlimit="10"/>
<path d="M587.303 155.279C587.402 155.858 587.326 156.454 587.087 156.991C586.847 157.528 586.453 157.982 585.955 158.295C585.457 158.608 584.878 158.767 584.29 158.751C583.702 158.734 583.132 158.544 582.653 158.204C582.173 157.864 581.805 157.389 581.595 156.84C581.385 156.291 581.343 155.691 581.474 155.118C581.604 154.545 581.902 154.023 582.329 153.619C582.757 153.215 583.294 152.946 583.874 152.848C584.259 152.778 584.654 152.786 585.036 152.871C585.419 152.956 585.78 153.116 586.099 153.343C586.418 153.569 586.689 153.857 586.896 154.189C587.103 154.522 587.241 154.892 587.303 155.279V155.279Z" fill="#32B0E7"/>
<path d="M607.744 134.826C607.842 135.405 607.767 136.001 607.527 136.538C607.287 137.075 606.893 137.528 606.395 137.841C605.898 138.154 605.318 138.313 604.73 138.296C604.143 138.28 603.573 138.09 603.093 137.75C602.614 137.41 602.246 136.935 602.036 136.386C601.826 135.836 601.784 135.237 601.914 134.664C602.045 134.091 602.342 133.569 602.77 133.165C603.197 132.761 603.734 132.492 604.314 132.394C604.699 132.324 605.094 132.332 605.477 132.417C605.859 132.502 606.22 132.662 606.54 132.889C606.859 133.115 607.13 133.403 607.337 133.736C607.544 134.069 607.682 134.439 607.744 134.826Z" fill="#32B0E7"/>
<path d="M582.744 125.45C582.842 126.03 582.767 126.626 582.527 127.163C582.287 127.7 581.893 128.153 581.395 128.466C580.898 128.779 580.318 128.937 579.73 128.921C579.143 128.905 578.573 128.715 578.093 128.374C577.614 128.034 577.246 127.56 577.036 127.01C576.826 126.461 576.784 125.862 576.914 125.289C577.045 124.715 577.342 124.194 577.77 123.79C578.197 123.386 578.734 123.117 579.314 123.018C579.7 122.939 580.099 122.939 580.485 123.02C580.871 123.101 581.236 123.26 581.558 123.489C581.879 123.717 582.151 124.009 582.355 124.346C582.559 124.684 582.691 125.06 582.744 125.45Z" fill="#32B0E7"/>
<path d="M641.344 126.407C641.442 126.987 641.367 127.583 641.127 128.12C640.887 128.656 640.493 129.11 639.995 129.423C639.498 129.736 638.918 129.894 638.33 129.878C637.743 129.862 637.173 129.671 636.693 129.331C636.214 128.991 635.846 128.517 635.636 127.967C635.426 127.418 635.384 126.819 635.514 126.246C635.645 125.672 635.943 125.151 636.37 124.746C636.797 124.342 637.334 124.074 637.914 123.975C638.3 123.896 638.699 123.896 639.085 123.977C639.47 124.058 639.836 124.218 640.157 124.446C640.479 124.674 640.75 124.966 640.955 125.303C641.159 125.641 641.291 126.016 641.344 126.407Z" fill="#32B0E7"/>
<path opacity="0.5" d="M413.485 15.8975L505.527 38.3735L528.597 52.0485L394.504 37.1165L413.485 15.8975Z" stroke="#32B0E7" stroke-width="0.847" stroke-linejoin="round"/>
<path opacity="0.5" d="M482.338 78.4485V51.5735L413.604 15.8975L505.527 92.1235L482.338 78.4485Z" stroke="#32B0E7" stroke-width="0.847" stroke-linejoin="round"/>
<path d="M398.144 36.8589C398.144 37.4469 397.969 38.0217 397.643 38.5106C397.316 38.9995 396.852 39.3806 396.308 39.6056C395.765 39.8306 395.167 39.8895 394.591 39.7748C394.014 39.66 393.484 39.3769 393.069 38.9611C392.653 38.5453 392.37 38.0156 392.255 37.4389C392.14 36.8622 392.199 36.2644 392.424 35.7212C392.649 35.1779 393.03 34.7136 393.519 34.3869C394.008 34.0602 394.583 33.8859 395.171 33.8859C395.562 33.882 395.951 33.9563 396.313 34.1043C396.676 34.2523 397.005 34.4712 397.282 34.748C397.558 35.0249 397.777 35.3541 397.925 35.7166C398.073 36.079 398.148 36.4674 398.144 36.8589V36.8589Z" fill="#32B0E7"/>
<path d="M508.262 91.8851C508.262 92.4731 508.088 93.048 507.761 93.5371C507.435 94.0261 506.971 94.4073 506.427 94.6325C505.884 94.8577 505.286 94.9167 504.71 94.8021C504.133 94.6875 503.603 94.4044 503.187 93.9887C502.771 93.5729 502.488 93.0432 502.373 92.4665C502.258 91.8897 502.317 91.2919 502.542 90.7486C502.767 90.2053 503.148 89.7409 503.637 89.4142C504.126 89.0875 504.701 88.9131 505.289 88.9131C506.073 88.9252 506.822 89.2422 507.377 89.7969C507.932 90.3516 508.25 91.1006 508.262 91.8851V91.8851Z" fill="#32B0E7"/>
<path d="M485.311 78.2104C485.311 78.7985 485.136 79.3733 484.81 79.8622C484.483 80.3511 484.019 80.7321 483.475 80.9571C482.932 81.1822 482.334 81.241 481.758 81.1263C481.181 81.0116 480.651 80.7285 480.236 80.3127C479.82 79.8969 479.537 79.3672 479.422 78.7905C479.307 78.2137 479.366 77.616 479.591 77.0727C479.816 76.5295 480.197 76.0652 480.686 75.7385C481.175 75.4118 481.75 75.2374 482.338 75.2374C482.729 75.2336 483.118 75.3078 483.48 75.4559C483.842 75.6039 484.172 75.8227 484.449 76.0996C484.725 76.3764 484.944 76.7057 485.092 77.0682C485.24 77.4306 485.315 77.819 485.311 78.2104V78.2104Z" fill="#32B0E7"/>
<path d="M416.458 15.6597C416.458 16.2477 416.283 16.8225 415.957 17.3114C415.63 17.8003 415.166 18.1813 414.622 18.4064C414.079 18.6314 413.481 18.6903 412.905 18.5755C412.328 18.4608 411.798 18.1777 411.382 17.7619C410.967 17.3461 410.684 16.8164 410.569 16.2397C410.454 15.663 410.513 15.0652 410.738 14.5219C410.963 13.9787 411.344 13.5144 411.833 13.1877C412.322 12.861 412.897 12.6867 413.485 12.6867C413.876 12.6828 414.265 12.757 414.627 12.9051C414.989 13.0531 415.319 13.272 415.596 13.5488C415.872 13.8256 416.091 14.1549 416.239 14.5174C416.387 14.8798 416.462 15.2682 416.458 15.6597V15.6597Z" fill="#32B0E7"/>
<path d="M531.689 51.8099C531.689 52.3979 531.514 52.9727 531.188 53.4616C530.861 53.9505 530.397 54.3316 529.853 54.5566C529.31 54.7816 528.712 54.8405 528.136 54.7258C527.559 54.6111 527.029 54.3279 526.613 53.9121C526.198 53.4964 525.915 52.9666 525.8 52.3899C525.685 51.8132 525.744 51.2154 525.969 50.6722C526.194 50.129 526.575 49.6646 527.064 49.338C527.553 49.0113 528.128 48.8369 528.716 48.8369C529.5 48.8493 530.249 49.1665 530.804 49.7214C531.359 50.2763 531.676 51.0253 531.689 51.8099V51.8099Z" fill="#32B0E7"/>
<path d="M508.381 38.3734C508.381 38.9614 508.206 39.5362 507.88 40.0251C507.553 40.514 507.089 40.8951 506.546 41.1201C506.002 41.3451 505.405 41.404 504.828 41.2893C504.251 41.1745 503.721 40.8914 503.306 40.4756C502.89 40.0598 502.607 39.5301 502.492 38.9534C502.377 38.3767 502.436 37.7789 502.661 37.2357C502.886 36.6924 503.267 36.2281 503.756 35.9014C504.245 35.5748 504.82 35.4004 505.408 35.4004C506.192 35.4128 506.941 35.73 507.496 36.2848C508.051 36.8397 508.368 37.5888 508.381 38.3734Z" fill="#32B0E7"/>
<path d="M485.311 51.5726C485.311 52.1606 485.136 52.7354 484.81 53.2243C484.483 53.7132 484.019 54.0943 483.475 54.3193C482.932 54.5443 482.334 54.6032 481.758 54.4885C481.181 54.3738 480.651 54.0906 480.236 53.6748C479.82 53.2591 479.537 52.7293 479.422 52.1526C479.307 51.5759 479.366 50.9781 479.591 50.4349C479.816 49.8916 480.197 49.4273 480.686 49.1006C481.175 48.774 481.75 48.5996 482.338 48.5996C483.122 48.612 483.871 48.9292 484.426 49.4841C484.981 50.0389 485.298 50.788 485.311 51.5726Z" fill="#32B0E7"/>
<path opacity="0.5" d="M561.623 94.1369L581.29 71.3369L638.89 65.6699" stroke="#32B0E7" stroke-width="0.847" stroke-linejoin="round"/>
<path opacity="0.5" d="M568.956 47.0029L561.623 94.1369" stroke="#32B0E7" stroke-width="0.847" stroke-linejoin="round"/>
<path opacity="0.5" d="M638.824 26.9375L656.024 76.0045L688.957 51.8715L638.824 26.9375Z" stroke="#32B0E7" stroke-width="0.847" stroke-linejoin="round"/>
<path opacity="0.5" d="M568.69 47.4033L506.897 71.6033" stroke="#32B0E7" stroke-width="0.847" stroke-linejoin="round"/>
<path opacity="0.5" d="M596.162 1.80176L619.808 10.4838L608.596 38.2308C608.596 38.2308 594.596 2.23876 594.548 2.01976" stroke="#32B0E7" stroke-width="0.847" stroke-linejoin="round"/>
<path opacity="0.5" d="M670.558 86.6701L688.958 51.8701L650.958 86.0041L669.158 86.6701" stroke="#32B0E7" stroke-width="0.847" stroke-linejoin="round"/>
<path opacity="0.5" d="M639.291 65.8035L568.691 47.4035L638.625 26.6035L639.625 65.6705C639.595 65.6557 639.561 65.6474 639.528 65.6461C639.494 65.6448 639.46 65.6506 639.429 65.6632C639.397 65.6757 639.369 65.6946 639.345 65.7188C639.321 65.743 639.303 65.7718 639.291 65.8035V65.8035Z" stroke="#32B0E7" stroke-width="0.847" stroke-linejoin="round"/>
<path opacity="0.5" d="M562.09 94.4705L506.897 71.6035" stroke="#32B0E7" stroke-width="0.847" stroke-linejoin="round"/>
<path opacity="0.5" d="M608.072 38.4912L639.624 65.6702" stroke="#32B0E7" stroke-width="0.847" stroke-linejoin="round"/>
<path d="M603.757 39.2028C607.357 41.4688 610.69 38.1358 608.424 34.5358C604.823 32.2028 601.49 35.6028 603.757 39.2028Z" fill="#32B0E7"/>
<path d="M617.475 13.2097C621.075 15.4767 624.408 12.1437 622.141 8.54268C618.544 6.20968 615.208 9.60968 617.475 13.2097Z" fill="#32B0E7"/>
<path d="M593.172 5.43721C596.772 7.70321 600.105 4.37021 597.839 0.770215C594.244 -1.56279 590.905 1.83721 593.172 5.43721Z" fill="#32B0E7"/>
<path d="M561.556 97.3374C561.957 97.3517 562.356 97.2844 562.731 97.1395C563.105 96.9946 563.446 96.7753 563.732 96.4948C564.019 96.2142 564.246 95.8784 564.399 95.5075C564.552 95.1367 564.628 94.7386 564.623 94.3374C564.629 93.9243 564.552 93.5142 564.397 93.1314C564.241 92.7485 564.011 92.4007 563.719 92.1086C563.427 91.8164 563.079 91.5859 562.696 91.4306C562.313 91.2753 561.903 91.1984 561.49 91.2044C561.089 91.199 560.691 91.2752 560.32 91.4282C559.949 91.5812 559.613 91.8079 559.333 92.0946C559.052 92.3813 558.833 92.722 558.688 93.096C558.543 93.47 558.476 93.8696 558.49 94.2704C558.51 95.0774 558.839 95.8458 559.41 96.4166C559.981 96.9875 560.749 97.3172 561.556 97.3374V97.3374Z" fill="#32B0E7"/>
<path d="M508.244 74.4124C508.838 74.2907 509.383 73.9955 509.81 73.5641C510.236 73.1328 510.525 72.5846 510.64 71.989C510.755 71.3934 510.691 70.7771 510.455 70.218C510.22 69.6589 509.824 69.1821 509.318 68.848C508.812 68.5139 508.218 68.3374 507.611 68.3409C507.004 68.3443 506.412 68.5276 505.91 68.8675C505.408 69.2074 505.017 69.6887 504.788 70.2504C504.559 70.8122 504.502 71.4292 504.624 72.0234C504.806 72.81 505.283 73.4965 505.957 73.9412C506.63 74.3858 507.449 74.5545 508.244 74.4124V74.4124Z" fill="#32B0E7"/>
<path d="M638.157 30.2037C640.624 30.2037 642.224 27.6037 640.557 24.8037L640.49 24.7377C637.69 23.0037 635.09 24.6037 635.09 27.1377C635.089 27.5407 635.167 27.94 635.321 28.3126C635.475 28.6852 635.701 29.0237 635.986 29.3087C636.271 29.5936 636.609 29.8194 636.982 29.973C637.355 30.1266 637.754 30.205 638.157 30.2037V30.2037Z" fill="#32B0E7"/>
<path d="M535.421 20.6369C536.028 20.6371 536.621 20.4574 537.125 20.1205C537.63 19.7836 538.023 19.3047 538.255 18.7443C538.487 18.1839 538.548 17.5672 538.43 16.9722C538.312 16.3772 538.02 15.8306 537.591 15.4016C537.162 14.9726 536.616 14.6804 536.021 14.5619C535.426 14.4435 534.809 14.5042 534.248 14.7363C533.688 14.9684 533.209 15.3615 532.872 15.8659C532.535 16.3703 532.355 16.9633 532.355 17.5699C532.343 17.976 532.413 18.3802 532.563 18.7578C532.713 19.1354 532.938 19.4784 533.225 19.7657C533.513 20.053 533.855 20.2785 534.233 20.4283C534.611 20.5781 535.015 20.6491 535.421 20.6369V20.6369Z" fill="#32B0E7"/>
<path opacity="0.5" d="M538.555 17.5693L574.689 30.8373L568.956 47.0043C568.956 47.0043 536.156 18.2373 536.088 17.9043" stroke="#32B0E7" stroke-width="0.847" stroke-linejoin="round"/>
<path d="M574.689 33.5705C575.295 33.5705 575.888 33.3907 576.393 33.0536C576.897 32.7166 577.29 32.2376 577.522 31.6772C577.754 31.1168 577.815 30.5001 577.697 29.9052C577.578 29.3102 577.286 28.7638 576.857 28.3348C576.428 27.9059 575.882 27.6138 575.287 27.4955C574.692 27.3771 574.075 27.4379 573.515 27.67C572.955 27.9021 572.476 28.2952 572.139 28.7996C571.802 29.304 571.622 29.8969 571.622 30.5035C571.615 30.9082 571.69 31.31 571.841 31.6852C571.993 32.0603 572.219 32.4011 572.505 32.6873C572.791 32.9734 573.132 33.1991 573.507 33.3508C573.882 33.5026 574.284 33.5773 574.689 33.5705V33.5705Z" fill="#32B0E7"/>
<path d="M639.624 68.9371C640.371 68.8976 641.078 68.5828 641.607 68.0534C642.136 67.5241 642.451 66.8176 642.49 66.0701C642.511 65.6268 642.44 65.1839 642.28 64.7699C642.12 64.3559 641.875 63.9799 641.562 63.666C641.248 63.3521 640.872 63.1074 640.458 62.9474C640.044 62.7874 639.601 62.7158 639.158 62.7371C638.41 62.7761 637.704 63.0905 637.174 63.6197C636.645 64.149 636.33 64.8555 636.291 65.6031C636.264 66.0478 636.332 66.4932 636.49 66.9098C636.648 67.3263 636.892 67.7047 637.207 68.0198C637.522 68.3349 637.901 68.5796 638.317 68.7377C638.734 68.8958 639.179 68.9638 639.624 68.9371V68.9371Z" fill="#32B0E7"/>
<path d="M651.691 89.6701C652.298 89.6701 652.891 89.4902 653.395 89.1532C653.899 88.8161 654.292 88.3371 654.525 87.7766C654.757 87.2161 654.817 86.5994 654.699 86.0044C654.58 85.4095 654.288 84.863 653.859 84.4341C653.43 84.0052 652.884 83.7132 652.289 83.5949C651.694 83.4767 651.077 83.5376 650.517 83.7699C649.956 84.0022 649.477 84.3954 649.14 84.8999C648.803 85.4044 648.624 85.9975 648.624 86.6041C648.617 87.0087 648.692 87.4104 648.844 87.7855C648.996 88.1605 649.221 88.5012 649.507 88.7872C649.794 89.0733 650.134 89.2989 650.509 89.4505C650.885 89.6022 651.286 89.6769 651.691 89.6701V89.6701Z" fill="#32B0E7"/>
<path d="M568.823 50.0031C569.429 50.0031 570.022 49.8233 570.527 49.4863C571.031 49.1492 571.424 48.6702 571.656 48.1098C571.888 47.5494 571.949 46.9327 571.831 46.3378C571.713 45.7429 571.42 45.1964 570.991 44.7674C570.563 44.3385 570.016 44.0464 569.421 43.9281C568.826 43.8097 568.21 43.8705 567.649 44.1026C567.089 44.3347 566.61 44.7278 566.273 45.2322C565.936 45.7366 565.756 46.3295 565.756 46.9361C565.749 47.3407 565.824 47.7425 565.976 48.1176C566.128 48.4927 566.353 48.8335 566.639 49.1196C566.925 49.4057 567.266 49.6314 567.641 49.7832C568.016 49.935 568.418 50.0098 568.823 50.0031Z" fill="#32B0E7"/>
<path d="M670.091 89.8039C670.697 89.8039 671.29 89.6241 671.795 89.287C672.299 88.95 672.692 88.471 672.924 87.9106C673.157 87.3502 673.217 86.7335 673.099 86.1386C672.981 85.5436 672.688 84.9972 672.26 84.5682C671.831 84.1393 671.284 83.8472 670.689 83.7289C670.094 83.6105 669.478 83.6713 668.917 83.9034C668.357 84.1355 667.878 84.5286 667.541 85.033C667.204 85.5374 667.024 86.1303 667.024 86.7369C667.017 87.1415 667.092 87.5433 667.244 87.9184C667.396 88.2935 667.621 88.6342 667.907 88.9204C668.194 89.2065 668.534 89.4322 668.909 89.584C669.284 89.7357 669.686 89.8106 670.091 89.8039V89.8039Z" fill="#32B0E7"/>
<path d="M581.49 74.4699C582.096 74.4699 582.689 74.2901 583.194 73.9531C583.698 73.6161 584.091 73.1371 584.323 72.5766C584.555 72.0162 584.616 71.3995 584.498 70.8046C584.38 70.2097 584.087 69.6632 583.659 69.2342C583.23 68.8053 582.683 68.5132 582.088 68.3949C581.493 68.2765 580.877 68.3373 580.316 68.5694C579.756 68.8015 579.277 69.1946 578.94 69.699C578.603 70.2034 578.423 70.7963 578.423 71.4029C578.405 71.8105 578.472 72.2174 578.62 72.5976C578.767 72.9779 578.993 73.3232 579.281 73.6117C579.57 73.9002 579.915 74.1255 580.295 74.2732C580.675 74.421 581.082 74.488 581.49 74.4699V74.4699Z" fill="#32B0E7"/>
<path opacity="0.5" d="M51.6329 85.624L81.3529 112.234L27.8159 112.156" stroke="#32B0E7" stroke-width="0.847" stroke-linecap="round" stroke-linejoin="round"/>
<path opacity="0.5" d="M49.3228 84.7373L3.28076 98.4463L27.8158 112.156L49.3228 84.7373Z" stroke="#32B0E7" stroke-width="0.847" stroke-linecap="round" stroke-linejoin="round"/>
<path d="M0.0438482 96.9772C-0.0331969 97.4025 -0.0239838 97.8389 0.0709421 98.2605C0.165868 98.6821 0.344568 99.0804 0.596428 99.4316C0.848288 99.7828 1.16817 100.08 1.53707 100.305C1.90596 100.53 2.31635 100.679 2.74385 100.742C3.1691 100.819 3.6055 100.81 4.02713 100.715C4.44875 100.62 4.847 100.441 5.1982 100.19C5.54941 99.9378 5.84641 99.6179 6.07156 99.249C6.29671 98.8801 6.44542 98.4697 6.50885 98.0422C6.5859 97.6169 6.57669 97.1804 6.48178 96.7587C6.38686 96.3371 6.20817 95.9387 5.95632 95.5875C5.70447 95.2362 5.3846 94.9391 5.0157 94.7138C4.64679 94.4886 4.23639 94.3398 3.80885 94.2762C3.38416 94.2052 2.94962 94.2188 2.5302 94.3163C2.11079 94.4137 1.71476 94.5931 1.36489 94.8441C1.01503 95.0951 0.718209 95.4127 0.491499 95.7788C0.264789 96.1449 0.112659 96.5521 0.0438482 96.9772V96.9772Z" fill="#32B0E7"/>
<path d="M46.2988 84.2437C46.193 84.8835 46.2794 85.5403 46.547 86.131C46.8145 86.7217 47.2513 87.2198 47.8021 87.5622C48.3528 87.9046 48.9927 88.076 49.6408 88.0546C50.289 88.0333 50.9162 87.8202 51.4432 87.4422C51.9702 87.0643 52.3732 86.5386 52.6014 85.9315C52.8295 85.3245 52.8724 84.6634 52.7248 84.032C52.5771 83.4005 52.2455 82.827 51.7718 82.3841C51.2981 81.9412 50.7037 81.6487 50.0638 81.5437C49.6386 81.4668 49.2022 81.4761 48.7806 81.5711C48.3591 81.6661 47.9609 81.8448 47.6097 82.0966C47.2585 82.3485 46.9615 82.6683 46.7363 83.0371C46.5111 83.4059 46.3624 83.8162 46.2988 84.2437V84.2437Z" fill="#32B0E7"/>
<path d="M24.581 111.626C24.5039 112.051 24.5131 112.488 24.6081 112.909C24.703 113.331 24.8817 113.729 25.1335 114.08C25.3854 114.431 25.7053 114.729 26.0742 114.954C26.4431 115.179 26.8535 115.328 27.281 115.391C28.1389 115.532 29.0177 115.326 29.7238 114.819C30.43 114.311 30.9058 113.544 31.0465 112.686C31.1872 111.828 30.9813 110.95 30.4741 110.244C29.9669 109.537 29.1999 109.062 28.342 108.921C27.9166 108.845 27.4803 108.854 27.0588 108.95C26.6374 109.045 26.2394 109.225 25.8886 109.477C25.5378 109.729 25.2412 110.05 25.0166 110.419C24.792 110.788 24.6438 111.198 24.581 111.626V111.626Z" fill="#32B0E7"/>
<path opacity="0.5" d="M624.113 84.418L657.748 105.868H607.648" stroke="#32B0E7" stroke-width="0.847" stroke-linejoin="round"/>
<path opacity="0.5" d="M621.69 83.9189L579.85 102.447L607.01 106.153L621.69 83.9189Z" stroke="#32B0E7" stroke-width="0.847" stroke-linejoin="round"/>
<path d="M603.519 105.725C603.519 106.374 603.711 107.007 604.071 107.546C604.431 108.085 604.943 108.506 605.542 108.754C606.141 109.002 606.8 109.067 607.436 108.94C608.072 108.814 608.656 108.502 609.115 108.043C609.573 107.585 609.885 107.001 610.012 106.365C610.138 105.729 610.073 105.07 609.825 104.471C609.577 103.872 609.157 103.36 608.618 103C608.079 102.64 607.445 102.447 606.797 102.447C605.934 102.469 605.113 102.821 604.503 103.431C603.893 104.042 603.541 104.863 603.519 105.725V105.725Z" fill="#32B0E7"/>
<path d="M618.626 83.92C618.626 84.5684 618.818 85.2021 619.178 85.7412C619.539 86.2803 620.05 86.7004 620.649 86.9485C621.248 87.1966 621.908 87.2615 622.543 87.135C623.179 87.0086 623.763 86.6964 624.222 86.2379C624.68 85.7795 624.992 85.1954 625.119 84.5595C625.245 83.9237 625.181 83.2646 624.932 82.6656C624.684 82.0666 624.264 81.5547 623.725 81.1945C623.186 80.8343 622.552 80.642 621.904 80.642C621.472 80.635 621.042 80.715 620.641 80.8772C620.24 81.0395 619.876 81.2807 619.57 81.5865C619.265 81.8923 619.023 82.2564 618.861 82.6573C618.699 83.0582 618.619 83.4876 618.626 83.92V83.92Z" fill="#32B0E7"/>
<path d="M654.399 105.798C654.399 106.446 654.591 107.08 654.951 107.619C655.312 108.158 655.824 108.578 656.422 108.826C657.021 109.074 657.681 109.139 658.316 109.013C658.952 108.886 659.536 108.574 659.995 108.115C660.453 107.657 660.765 107.073 660.892 106.437C661.018 105.801 660.953 105.142 660.705 104.543C660.457 103.944 660.037 103.432 659.498 103.072C658.959 102.712 658.325 102.52 657.677 102.52C656.814 102.541 655.993 102.893 655.383 103.503C654.773 104.114 654.42 104.935 654.399 105.798V105.798Z" fill="#32B0E7"/>
<path d="M576.898 102.438C576.898 103.086 577.09 103.72 577.45 104.259C577.811 104.798 578.322 105.218 578.921 105.466C579.52 105.714 580.179 105.779 580.815 105.653C581.451 105.526 582.035 105.214 582.494 104.755C582.952 104.297 583.264 103.713 583.391 103.077C583.517 102.441 583.452 101.782 583.204 101.183C582.956 100.584 582.536 100.072 581.997 99.712C581.458 99.3518 580.824 99.1596 580.176 99.1596C579.743 99.1526 579.314 99.2326 578.913 99.3948C578.512 99.5571 578.148 99.7982 577.842 100.104C577.537 100.41 577.295 100.774 577.133 101.175C576.971 101.576 576.891 102.005 576.898 102.438V102.438Z" fill="#32B0E7"/>
</g>
<defs>
<clipPath id="clip0">
<rect width="803.308" height="185.594" fill="white"/>
</clipPath>
</defs>
</svg>
