<svg width="16" height="16" viewBox="0 0 16 16" fill="none" xmlns="http://www.w3.org/2000/svg">
<path d="M8 0C8.71058 0.0013355 9.41747 0.102319 10.1 0.3C10.7724 0.46224 11.4141 0.732411 12 1.1C12.6054 1.44216 13.1749 1.84417 13.7 2.3C14.1558 2.82512 14.5578 3.39464 14.9 4C15.2676 4.58594 15.5378 5.2276 15.7 5.9C16.1 7.27143 16.1 8.72857 15.7 10.1C15.5378 10.7724 15.2676 11.4141 14.9 12C14.5578 12.6054 14.1558 13.1749 13.7 13.7C13.1749 14.1558 12.6054 14.5578 12 14.9C11.4141 15.2676 10.7724 15.5378 10.1 15.7C8.72857 16.1 7.27143 16.1 5.9 15.7C5.2276 15.5378 4.58594 15.2676 4 14.9C3.39464 14.5578 2.82512 14.1558 2.3 13.7C1.84417 13.1749 1.44216 12.6054 1.1 12C0.732411 11.4141 0.46224 10.7724 0.3 10.1C-0.1 8.72857 -0.1 7.27143 0.3 5.9C0.46224 5.2276 0.732411 4.58594 1.1 4C1.44216 3.39464 1.84417 2.82512 2.3 2.3C2.82512 1.84417 3.39464 1.44216 4 1.1C4.58594 0.732411 5.2276 0.46224 5.9 0.3C6.58253 0.102319 7.28942 0.0013355 8 0V0ZM8 15C8.81874 15.0292 9.63498 14.8931 10.4 14.6C11.1869 14.2645 11.9265 13.8275 12.6 13.3L2.7 3.4C2.1725 4.07345 1.73546 4.81307 1.4 5.6C1.10685 6.36502 0.970814 7.18126 1 8C1.00215 8.64496 1.10333 9.28576 1.3 9.9C1.42902 10.4731 1.66664 11.0163 2 11.5C2.25062 12.0472 2.62764 12.527 3.1 12.9C3.47297 13.3724 3.95281 13.7494 4.5 14L6.1 14.8L8 15ZM13.3 12.6C13.8275 11.9265 14.2645 11.1869 14.6 10.4C14.8931 9.63498 15.0292 8.81874 15 8C14.9827 7.36244 14.9158 6.72719 14.8 6.1C14.594 5.53844 14.3256 5.00175 14 4.5C13.7494 3.95281 13.3724 3.47297 12.9 3.1C12.527 2.62764 12.0472 2.25062 11.5 2C11.0163 1.66664 10.4731 1.42902 9.9 1.3C9.28576 1.10333 8.64496 1.00215 8 1C7.18126 0.970814 6.36502 1.10685 5.6 1.4C4.81307 1.73546 4.07345 2.1725 3.4 2.7L13.3 12.6Z" fill="#0078D4"/>
</svg>
