<svg width="24" height="24" viewBox="0 0 24 24" fill="none" xmlns="http://www.w3.org/2000/svg">
<path d="M12 24C18.6274 24 24 18.6274 24 12C24 5.37258 18.6274 0 12 0C5.37258 0 0 5.37258 0 12C0 18.6274 5.37258 24 12 24Z" fill="#015CDA"/>
<path d="M7.5 12C7.50098 11.6796 7.53669 11.3602 7.6065 11.0475L4.6965 10.35C4.56899 10.8908 4.50307 11.4443 4.5 12C4.50776 12.6186 4.59241 13.2338 4.752 13.8315L7.6635 13.1355C7.56019 12.7656 7.50523 12.3839 7.5 12Z" fill="white"/>
<path d="M8.53486 14.8365L6.19336 16.689C6.91792 17.5931 7.84208 18.3171 8.89336 18.804L10.1519 16.0905C9.52399 15.8018 8.97079 15.3728 8.53486 14.8365Z" fill="white"/>
<path d="M8.4372 9.28199C8.86985 8.71437 9.4313 8.25781 10.0752 7.94999L8.8167 5.23499C7.74951 5.74195 6.81719 6.49387 6.0957 7.42949L8.4372 9.28199Z" fill="white"/>
<path d="M12 4.5V7.5C13.1935 7.5 14.3381 7.97411 15.182 8.81802C16.0259 9.66193 16.5 10.8065 16.5 12C16.5 13.1935 16.0259 14.3381 15.182 15.182C14.3381 16.0259 13.1935 16.5 12 16.5V19.5C13.9891 19.5 15.8968 18.7098 17.3033 17.3033C18.7098 15.8968 19.5 13.9891 19.5 12C19.5 10.0109 18.7098 8.10322 17.3033 6.6967C15.8968 5.29018 13.9891 4.5 12 4.5Z" fill="white"/>
</svg>
