<svg width="160" height="135" viewBox="0 0 160 135" fill="none" xmlns="http://www.w3.org/2000/svg">
<g opacity="0.3" clip-path="url(#clip0)">
<path d="M151.11 0H67.2346C62.3254 0 58.3457 3.97969 58.3457 8.88889V92.7644C58.3457 97.6736 62.3254 101.653 67.2346 101.653H151.11C156.019 101.653 159.999 97.6736 159.999 92.7644V8.88889C159.999 3.97969 156.019 0 151.11 0Z" fill="url(#paint0_linear)"/>
<path d="M131.964 27.8136H8.88889C3.97969 27.8136 0 31.7933 0 36.7025V151.111C0 156.021 3.97969 160 8.88889 160H131.964C136.874 160 140.853 156.021 140.853 151.111V36.7025C140.853 31.7933 136.874 27.8136 131.964 27.8136Z" fill="url(#paint1_linear)"/>
<path d="M83.0311 66.2128V38.3195H75.6534V72.2039H95.8311V66.2128H83.0311ZM24.4534 52.515C22.9304 51.8979 21.5167 51.0395 20.2667 49.9728C19.9314 49.6179 19.6718 49.1984 19.5037 48.74C19.3356 48.2815 19.2625 47.7937 19.2889 47.3061C19.2625 46.8246 19.3616 46.3445 19.5767 45.9128C19.7917 45.4812 20.1153 45.1128 20.5156 44.8439C21.527 44.1489 22.7388 43.8054 23.9645 43.8661C26.8855 43.7362 29.7683 44.5702 32.1689 46.2395V39.2261C29.559 38.2547 26.783 37.8076 24 37.9106C20.7812 37.74 17.6081 38.7305 15.0578 40.7017C13.938 41.554 13.0366 42.6601 12.4278 43.9288C11.8189 45.1975 11.52 46.5927 11.5556 47.9995C11.5556 52.1861 14.1778 55.4661 19.76 57.9284C21.5721 58.6945 23.2804 59.6861 24.8445 60.8795C25.2332 61.2063 25.5453 61.6146 25.7588 62.0754C25.9723 62.5362 26.082 63.0383 26.08 63.5461C26.0795 64.0441 25.9599 64.5348 25.731 64.977C25.5021 65.4193 25.1707 65.8004 24.7645 66.0884C23.6475 66.7372 22.3655 67.0461 21.0756 66.9773C17.7767 66.9508 14.5994 65.7286 12.1334 63.5373V71.1106C14.8417 72.5056 17.8618 73.1849 20.9067 73.0839C24.3403 73.2983 27.7472 72.3598 30.5867 70.4173C31.5901 69.4707 32.3579 68.3024 32.8287 67.0058C33.2994 65.7092 33.4601 64.3204 33.2978 62.9506C33.3341 60.8506 32.6041 58.8092 31.2445 57.2084C29.3325 55.1879 27.0193 53.5893 24.4534 52.515ZM67.4489 65.555C69.2972 62.4305 70.2219 58.846 70.1156 55.2173C69.9408 52.1468 69.0259 49.1642 67.4489 46.5239C66.1678 43.9629 64.1737 41.8268 61.7067 40.3728C59.2059 38.9553 56.3767 38.2197 53.5022 38.2395C50.394 38.1633 47.3229 38.928 44.6134 40.4528C42.0799 41.866 40.0017 43.972 38.6222 46.5239C37.1659 49.4227 36.4339 52.6314 36.4889 55.875C36.5072 58.7241 37.1792 61.5311 38.4534 64.0795C39.7069 66.613 41.6754 68.7237 44.1156 70.1506C46.5934 71.6628 49.4191 72.5108 52.32 72.6128L59.3778 80.8173H69.3334L59.2445 71.795C62.6427 70.7733 65.5568 68.557 67.4489 65.555ZM59.2445 63.5106C58.4972 64.4346 57.5473 65.1742 56.4683 65.672C55.3893 66.1699 54.2102 66.4127 53.0222 66.3817C51.8243 66.4199 50.6345 66.1712 49.5522 65.6563C48.4698 65.1414 47.5262 64.3752 46.8 63.4217C45.0627 61.0537 44.2188 58.1475 44.4178 55.2173C44.228 52.288 45.071 49.3849 46.8 47.0128C47.5719 46.0607 48.5476 45.2941 49.6553 44.7695C50.763 44.2448 51.9744 43.9756 53.2 43.9817C54.3977 43.9274 55.5897 44.1769 56.6651 44.7068C57.7405 45.2368 58.6645 46.03 59.3511 47.0128C60.964 49.433 61.7413 52.3142 61.5645 55.2173C61.8413 58.1733 61.015 61.1273 59.2445 63.5106Z" fill="white"/>
<path d="M131.377 132.018C131.252 127.673 129.584 123.515 126.671 120.288C123.759 117.062 119.793 114.978 115.484 114.409C115.216 108.321 112.561 102.583 108.094 98.4378C103.628 94.2922 97.7084 92.0722 91.6173 92.258C86.7016 92.1757 81.8808 93.6163 77.8162 96.3822C73.7517 99.1482 70.6424 103.104 68.915 107.707C63.7219 108.348 58.9295 110.826 55.4046 114.693C51.8798 118.56 49.8553 123.561 49.6973 128.791C49.9287 134.664 52.4774 140.206 56.7855 144.205C61.0935 148.203 66.8101 150.331 72.6839 150.125H111.795C112.12 150.151 112.447 150.151 112.773 150.125C117.617 150.111 122.266 148.214 125.738 144.835C129.21 141.456 131.232 136.86 131.377 132.018Z" fill="url(#paint2_linear)"/>
<path d="M77.5024 121.698L91.0046 108.045C91.1491 107.9 91.3209 107.784 91.5101 107.706C91.6992 107.627 91.902 107.587 92.1068 107.587C92.3117 107.587 92.5145 107.627 92.7036 107.706C92.8928 107.784 93.0645 107.9 93.2091 108.045L106.702 121.698C106.772 121.753 106.83 121.822 106.873 121.9C106.916 121.978 106.943 122.063 106.953 122.151C106.963 122.24 106.955 122.329 106.931 122.415C106.906 122.5 106.865 122.58 106.809 122.649C106.735 122.742 106.637 122.814 106.527 122.857C106.416 122.901 106.296 122.915 106.178 122.898H97.8935C97.7002 122.898 97.5148 122.975 97.3781 123.112C97.2414 123.248 97.1646 123.434 97.1646 123.627V140.356C97.172 140.424 97.1659 140.492 97.1466 140.558C97.1273 140.623 97.0952 140.684 97.0522 140.737C97.0092 140.79 96.9562 140.833 96.8961 140.866C96.8361 140.898 96.7702 140.918 96.7024 140.925C96.6674 140.934 96.6307 140.934 96.5957 140.925H87.5646C87.4129 140.925 87.2673 140.865 87.1592 140.759C87.0511 140.652 86.9892 140.507 86.9868 140.356V123.467C87.0047 123.295 86.9554 123.124 86.8493 122.988C86.7432 122.852 86.5886 122.762 86.418 122.738H77.9735C77.8856 122.726 77.8009 122.697 77.7244 122.652C77.648 122.607 77.5813 122.547 77.5283 122.475C77.4753 122.404 77.4371 122.323 77.4159 122.237C77.3946 122.151 77.3908 122.061 77.4046 121.974C77.4142 121.875 77.4477 121.78 77.5024 121.698Z" fill="#F2F2F2"/>
</g>
<defs>
<linearGradient id="paint0_linear" x1="109.172" y1="101.653" x2="109.172" y2="0" gradientUnits="userSpaceOnUse">
<stop stop-color="#005BA1"/>
<stop offset="0.525" stop-color="#0074CD"/>
<stop offset="1" stop-color="#0078D4"/>
</linearGradient>
<linearGradient id="paint1_linear" x1="70.4267" y1="160" x2="70.4267" y2="27.8136" gradientUnits="userSpaceOnUse">
<stop stop-color="#0078D4"/>
<stop offset="0.16" stop-color="#1380DA"/>
<stop offset="0.53" stop-color="#3C91E5"/>
<stop offset="0.82" stop-color="#559CEC"/>
<stop offset="1" stop-color="#5EA0EF"/>
</linearGradient>
<linearGradient id="paint2_linear" x1="90.5417" y1="150.187" x2="90.5417" y2="92.2402" gradientUnits="userSpaceOnUse">
<stop stop-color="#32BEDD"/>
<stop offset="0.175" stop-color="#32CAEA"/>
<stop offset="0.41" stop-color="#32D2F2"/>
<stop offset="0.775" stop-color="#32D4F5"/>
</linearGradient>
<clipPath id="clip0">
<rect width="160" height="160" fill="white"/>
</clipPath>
</defs>
</svg>
