<svg width="16" height="16" viewBox="0 0 16 16" fill="none" xmlns="http://www.w3.org/2000/svg">
<path d="M16 2.62C15.9975 2.96301 15.9296 3.3024 15.8 3.62C15.6698 3.94212 15.476 4.23464 15.23 4.48L5 14.77L0 16L1.23 11.05L11.52 0.77C11.7654 0.524034 12.0579 0.330158 12.38 0.2C12.6976 0.0704162 13.037 0.00253902 13.38 0C13.7242 0.000976246 14.0645 0.0724452 14.38 0.21C14.6919 0.338295 14.9743 0.528845 15.21 0.77C15.4479 1.00841 15.638 1.29014 15.77 1.6C15.9171 1.92018 15.9955 2.26766 16 2.62ZM1.38 14.62L4 14C3.94126 13.7636 3.85395 13.5353 3.74 13.32C3.62299 13.1141 3.48201 12.9228 3.32 12.75C3.14724 12.588 2.95591 12.447 2.75 12.33C2.51363 12.2036 2.26139 12.1094 2 12.05L1.38 14.62ZM2.55 11.16C3.0852 11.3342 3.57163 11.6324 3.96961 12.0304C4.36759 12.4284 4.66583 12.9148 4.84 13.45L13.29 5L11 2.71L2.55 11.16ZM14 4.29L14.38 3.92C14.4943 3.80702 14.6012 3.68677 14.7 3.56C14.789 3.42875 14.8628 3.28786 14.92 3.14C14.9755 2.97236 15.0026 2.79659 15 2.62C15.0032 2.40625 14.9588 2.19445 14.87 2C14.7902 1.80451 14.6711 1.62751 14.52 1.48C14.3725 1.32892 14.1955 1.20978 14 1.13C13.8055 1.04118 13.5938 0.996774 13.38 1C13.2034 0.997418 13.0276 1.02446 12.86 1.08C12.7121 1.13724 12.5712 1.21105 12.44 1.3C12.3108 1.39589 12.1904 1.50297 12.08 1.62L11.71 2L14 4.29Z" fill="#0078D4"/>
</svg>
