<svg width="14" height="16" viewBox="0 0 14 16" fill="none" xmlns="http://www.w3.org/2000/svg">
<path d="M13.5457 7.46667C13.5457 11.7689 8.34654 15.232 7.21499 15.9342C7.1504 15.9743 7.07589 15.9955 6.99988 15.9955C6.92386 15.9955 6.84936 15.9743 6.78477 15.9342C5.65321 15.232 0.454102 11.7689 0.454102 7.46667V2.29511C0.454303 2.18779 0.496421 2.08479 0.571476 2.00807C0.646531 1.93136 0.748585 1.88699 0.855879 1.88444C4.90032 1.77778 3.96877 0 6.99988 0C10.031 0 9.09943 1.77778 13.1439 1.88444C13.2512 1.88699 13.3532 1.93136 13.4283 2.00807C13.5033 2.08479 13.5455 2.18779 13.5457 2.29511V7.46667Z" fill="#0078D4"/>
<path d="M13.0032 7.51473C13.0032 11.4596 8.23432 14.6356 7.19698 15.2801C7.13784 15.3171 7.06945 15.3368 6.99965 15.3368C6.92985 15.3368 6.86146 15.3171 6.80232 15.2801C5.76498 14.6356 0.996094 11.4578 0.996094 7.51473V2.76806C0.996529 2.6697 1.03531 2.57538 1.1042 2.50517C1.17309 2.43495 1.26665 2.39438 1.36498 2.39206C5.07432 2.29162 4.22009 0.664062 6.99965 0.664062C9.7792 0.664062 8.92498 2.29162 12.6343 2.39206C12.7327 2.39438 12.8262 2.43495 12.8951 2.50517C12.964 2.57538 13.0028 2.6697 13.0032 2.76806V7.51473Z" fill="url(#paint0_linear_2925_37809)"/>
<path d="M9.84998 6.88273C10.0787 6.65301 10.2071 6.34203 10.2071 6.01784C10.2071 5.69366 10.0787 5.38268 9.84998 5.15295L7.74598 3.04184C7.63284 2.92829 7.49839 2.83819 7.35036 2.77672C7.20232 2.71524 7.0436 2.68359 6.88331 2.68359C6.72301 2.68359 6.5643 2.71524 6.41626 2.77672C6.26822 2.83819 6.13378 2.92829 6.02064 3.04184L3.91575 5.15562C3.68702 5.38535 3.55859 5.69633 3.55859 6.02051C3.55859 6.34469 3.68702 6.65567 3.91575 6.8854L5.66686 8.63918C5.69876 8.67102 5.72405 8.70885 5.74129 8.75049C5.75853 8.79213 5.76737 8.83677 5.76731 8.88184V12.1467C5.76682 12.202 5.77734 12.2567 5.79825 12.3079C5.81915 12.359 5.85004 12.4054 5.88909 12.4445L6.68909 13.2445C6.74105 13.2962 6.81136 13.3252 6.88464 13.3252C6.95793 13.3252 7.02823 13.2962 7.0802 13.2445L7.85353 12.4685V12.4614L8.31042 12.0045C8.34006 11.9744 8.35667 11.9339 8.35667 11.8916C8.35667 11.8494 8.34006 11.8088 8.31042 11.7787L7.98153 11.449C7.94975 11.4158 7.93201 11.3717 7.93201 11.3258C7.93201 11.28 7.94975 11.2358 7.98153 11.2027L8.31042 10.8738C8.34027 10.8439 8.35704 10.8033 8.35704 10.761C8.35704 10.7186 8.34027 10.6781 8.31042 10.6481L7.98153 10.3183C7.94975 10.2852 7.93201 10.2411 7.93201 10.1952C7.93201 10.1493 7.94975 10.1052 7.98153 10.0721L8.31042 9.74229C8.34022 9.71245 8.35696 9.67201 8.35696 9.62984C8.35696 9.58768 8.34022 9.54723 8.31042 9.5174L7.85353 9.05873V8.88895L9.84998 6.88273ZM6.88286 3.55562C7.02046 3.55509 7.15511 3.59541 7.26977 3.67147C7.38443 3.74753 7.47394 3.8559 7.52696 3.98287C7.57998 4.10984 7.59413 4.24969 7.56761 4.3847C7.54109 4.51971 7.4751 4.64382 7.37799 4.7413C7.28089 4.83878 7.15704 4.90525 7.02212 4.93229C6.88721 4.95932 6.74731 4.94571 6.62014 4.89318C6.49297 4.84065 6.38425 4.75156 6.30775 4.63719C6.23126 4.52282 6.19042 4.38833 6.19042 4.25073C6.19018 4.06677 6.26298 3.89023 6.39281 3.7599C6.52264 3.62956 6.6989 3.55609 6.88286 3.55562Z" fill="url(#paint1_radial_2925_37809)"/>
<path opacity="0.75" d="M6.33529 12.2158C6.35667 12.2365 6.38378 12.2504 6.41311 12.2555C6.44244 12.2606 6.47262 12.2567 6.49975 12.2445C6.52687 12.2322 6.54968 12.2121 6.56521 12.1867C6.58074 12.1613 6.58828 12.1318 6.58684 12.1021V9.46117C6.58706 9.43544 6.58093 9.41006 6.56899 9.38726C6.55705 9.36447 6.53967 9.34498 6.5184 9.3305C6.49548 9.31571 6.46894 9.30748 6.44167 9.3067C6.4144 9.30592 6.38743 9.31263 6.36371 9.3261C6.33998 9.33957 6.3204 9.35928 6.30708 9.38309C6.29376 9.4069 6.28723 9.4339 6.28818 9.46117V12.1021C6.28797 12.1232 6.29204 12.1442 6.30014 12.1637C6.30823 12.1833 6.32019 12.201 6.33529 12.2158Z" fill="#FF9300"/>
<path opacity="0.75" d="M5.38296 5.85645H8.47007C8.51958 5.85645 8.56705 5.87611 8.60206 5.91112C8.63707 5.94613 8.65674 5.99361 8.65674 6.04311V6.07778C8.65674 6.12752 8.63697 6.17523 8.6018 6.2104C8.56663 6.24557 8.51892 6.26534 8.46918 6.26534H5.38296C5.33345 6.26534 5.28597 6.24567 5.25096 6.21066C5.21596 6.17566 5.19629 6.12818 5.19629 6.07867V6.04489C5.19617 6.02026 5.20091 5.99585 5.21023 5.97305C5.21954 5.95025 5.23326 5.92951 5.2506 5.91201C5.26793 5.89451 5.28854 5.8806 5.31125 5.87106C5.33396 5.86153 5.35833 5.85656 5.38296 5.85645Z" fill="#FF9300"/>
<path opacity="0.75" d="M5.38287 6.52148H8.46998C8.51949 6.52148 8.56697 6.54115 8.60197 6.57616C8.63698 6.61116 8.65665 6.65864 8.65665 6.70815V6.74282C8.65665 6.76745 8.65179 6.79184 8.64237 6.81459C8.63294 6.83735 8.61913 6.85802 8.60171 6.87544C8.5843 6.89286 8.56362 6.90667 8.54087 6.9161C8.51811 6.92552 8.49372 6.93037 8.46909 6.93037H5.38287C5.35824 6.93037 5.33385 6.92552 5.31109 6.9161C5.28834 6.90667 5.26766 6.89286 5.25025 6.87544C5.23283 6.85802 5.21902 6.83735 5.20959 6.81459C5.20016 6.79184 5.19531 6.76745 5.19531 6.74282V6.70815C5.19555 6.65856 5.21541 6.61109 5.25056 6.5761C5.28571 6.54112 5.33328 6.52148 5.38287 6.52148Z" fill="#FF9300"/>
<defs>
<linearGradient id="paint0_linear_2925_37809" x1="6.99965" y1="1.20984" x2="6.99965" y2="15.8827" gradientUnits="userSpaceOnUse">
<stop offset="0.183" stop-color="#5EA0EF"/>
<stop offset="1" stop-color="#0078D4"/>
</linearGradient>
<radialGradient id="paint1_radial_2925_37809" cx="0" cy="0" r="1" gradientUnits="userSpaceOnUse" gradientTransform="translate(6.20383 7.74549) scale(6.22306 6.23627)">
<stop offset="0.266" stop-color="#FFD70F"/>
<stop offset="0.487" stop-color="#FFCB12"/>
<stop offset="0.884" stop-color="#FEAC19"/>
<stop offset="1" stop-color="#FEA11B"/>
</radialGradient>
</defs>
</svg>
