<svg width="17" height="17" viewBox="0 0 17 17" fill="none" xmlns="http://www.w3.org/2000/svg">
<path d="M8.09961 16.1C12.5179 16.1 16.0996 12.5183 16.0996 8.09998C16.0996 3.6817 12.5179 0.0999756 8.09961 0.0999756C3.68133 0.0999756 0.0996094 3.6817 0.0996094 8.09998C0.0996094 12.5183 3.68133 16.1 8.09961 16.1Z" fill="#015CDA"/>
<path d="M7.99978 5.56499C8.80004 5.56499 9.44878 4.91625 9.44878 4.11599C9.44878 3.31573 8.80004 2.66699 7.99978 2.66699C7.19952 2.66699 6.55078 3.31573 6.55078 4.11599C6.55078 4.91625 7.19952 5.56499 7.99978 5.56499Z" fill="white"/>
<path d="M9.10039 13.9871V6.98706H6.91139L6.90039 13.9871H9.10039Z" fill="white"/>
</svg>
