<svg width="16" height="16" viewBox="0 0 16 16" fill="none" xmlns="http://www.w3.org/2000/svg">
<path d="M8 16C12.4183 16 16 12.4183 16 8C16 3.58172 12.4183 0 8 0C3.58172 0 0 3.58172 0 8C0 12.4183 3.58172 16 8 16Z" fill="#015CDA"/>
<path d="M5 8.00002C5.00065 7.78641 5.02446 7.5735 5.071 7.36502L3.131 6.90002C3.04599 7.26058 3.00205 7.62959 3 8.00002C3.00517 8.41241 3.06161 8.82256 3.168 9.22102L5.109 8.75702C5.04013 8.51046 5.00349 8.25601 5 8.00002Z" fill="white"/>
<path d="M5.68991 9.89099L4.12891 11.126C4.61194 11.7287 5.22805 12.2113 5.92891 12.536L6.76791 10.727C6.34933 10.5345 5.98052 10.2485 5.68991 9.89099Z" fill="white"/>
<path d="M5.62545 6.18799C5.91388 5.80958 6.28818 5.50521 6.71745 5.29999L5.87845 3.48999C5.16699 3.82797 4.54544 4.32925 4.06445 4.95299L5.62545 6.18799Z" fill="white"/>
<path d="M8 3V5C8.79565 5 9.55871 5.31607 10.1213 5.87868C10.6839 6.44129 11 7.20435 11 8C11 8.79565 10.6839 9.55871 10.1213 10.1213C9.55871 10.6839 8.79565 11 8 11V13C9.32608 13 10.5979 12.4732 11.5355 11.5355C12.4732 10.5979 13 9.32608 13 8C13 6.67392 12.4732 5.40215 11.5355 4.46447C10.5979 3.52678 9.32608 3 8 3Z" fill="white"/>
</svg>
