<svg width="32" height="32" viewBox="0 0 32 32" fill="none" xmlns="http://www.w3.org/2000/svg">
<g clip-path="url(#clip0)">
<path d="M16.0962 8.57407C9.43251 8.57407 4.03027 6.69183 4.03027 4.20703V27.4729C4.03027 29.8637 9.33843 31.8022 15.9266 31.84H16.0962C22.7583 31.84 28.1602 29.9578 28.1602 27.4729V4.20703C28.1602 6.63519 22.7583 8.57407 16.0962 8.57407Z" fill="url(#paint0_linear)"/>
<path d="M28.1595 4.20713C28.1595 6.63529 22.7576 8.57417 16.0955 8.57417C9.43344 8.57417 4.02832 6.69193 4.02832 4.20713C4.02832 1.72233 9.43056 -0.159912 16.0955 -0.159912C22.7605 -0.159912 28.1595 1.72233 28.1595 4.20713Z" fill="#E8E8E8"/>
<path d="M25.3562 3.84932C25.3562 5.39299 21.1962 6.63523 16.0951 6.63523C10.994 6.63523 6.83398 5.39299 6.83398 3.84932C6.83398 2.30564 10.994 1.08228 16.0951 1.08228C21.1962 1.08228 25.3562 2.32484 25.3562 3.84932Z" fill="#50E6FF"/>
<path d="M16.0957 4.54601C13.6115 4.48262 11.1349 4.84552 8.77344 5.61897C11.1372 6.3781 13.6145 6.72196 16.0957 6.63529C18.5818 6.70824 21.0611 6.33865 23.4179 5.54377C21.0497 4.80582 18.5749 4.4686 16.0957 4.54601Z" fill="#198AB3"/>
<path d="M25.9198 31.4391C29.2777 31.4391 31.9998 28.7169 31.9998 25.3591C31.9998 22.0012 29.2777 19.2791 25.9198 19.2791C22.562 19.2791 19.8398 22.0012 19.8398 25.3591C19.8398 28.7169 22.562 31.4391 25.9198 31.4391Z" fill="url(#paint1_linear)"/>
<path d="M22.446 24.9316H21.2949V25.7867H22.446V24.9316Z" fill="white"/>
<path d="M30.5456 24.9316H29.3945V25.7867H30.5456V24.9316Z" fill="white"/>
<path d="M26.2135 27.9412V26.1255H24.3524V22.7805L23.2928 22.7869C23.064 22.7887 22.8453 22.8812 22.6845 23.044C22.5238 23.2069 22.4343 23.4269 22.4356 23.6557L22.4586 27.1085C22.4604 27.3365 22.5522 27.5545 22.714 27.7151C22.8759 27.8757 23.0946 27.9658 23.3226 27.9658H23.3284" fill="white"/>
<path d="M25.6846 22.7773V24.7933H27.5467V27.9399L28.5483 27.9329C28.7771 27.9311 28.9958 27.8386 29.1565 27.6757C29.3173 27.5129 29.4068 27.2929 29.4055 27.0641L29.3828 23.6113C29.3811 23.3832 29.2893 23.1651 29.1275 23.0045C28.9657 22.8438 28.7469 22.7537 28.5188 22.7537H28.5131" fill="white"/>
<path d="M25.9198 31.4391C29.2777 31.4391 31.9998 28.7169 31.9998 25.3591C31.9998 22.0012 29.2777 19.2791 25.9198 19.2791C22.562 19.2791 19.8398 22.0012 19.8398 25.3591C19.8398 28.7169 22.562 31.4391 25.9198 31.4391Z" fill="url(#paint2_linear)"/>
<path d="M22.446 24.9316H21.2949V25.7867H22.446V24.9316Z" fill="white"/>
<path d="M30.5456 24.9316H29.3945V25.7867H30.5456V24.9316Z" fill="white"/>
<path d="M26.2135 27.9412V26.1255H24.3524V22.7805L23.2928 22.7869C23.064 22.7887 22.8453 22.8812 22.6845 23.044C22.5238 23.2069 22.4343 23.4269 22.4356 23.6557L22.4586 27.1085C22.4604 27.3365 22.5522 27.5545 22.714 27.7151C22.8759 27.8757 23.0946 27.9658 23.3226 27.9658H23.3284" fill="white"/>
<path d="M25.6846 22.7773V24.7933H27.5467V27.9399L28.5483 27.9329C28.7771 27.9311 28.9958 27.8386 29.1565 27.6757C29.3173 27.5129 29.4068 27.2929 29.4055 27.0641L29.3828 23.6113C29.3811 23.3832 29.2893 23.1651 29.1275 23.0045C28.9657 22.8438 28.7469 22.7537 28.5188 22.7537H28.5131" fill="white"/>
<path d="M24.6767 31.0313C28.1699 31.0313 31.0018 28.1995 31.0018 24.7062C31.0018 21.213 28.1699 18.3811 24.6767 18.3811C21.1834 18.3811 18.3516 21.213 18.3516 24.7062C18.3516 28.1995 21.1834 31.0313 24.6767 31.0313Z" fill="white"/>
<path d="M24.677 19.3414C25.7382 19.3414 26.7755 19.6561 27.6578 20.2456C28.5401 20.8351 29.2277 21.6731 29.6338 22.6534C30.0399 23.6338 30.1461 24.7126 29.9391 25.7533C29.732 26.7941 29.221 27.75 28.4706 28.5003C27.7203 29.2506 26.7643 29.7616 25.7235 29.9686C24.6828 30.1756 23.604 30.0693 22.6237 29.6631C21.6433 29.257 20.8054 28.5693 20.216 27.687C19.6265 26.8046 19.3119 25.7673 19.3119 24.7062C19.3119 24.0016 19.4507 23.304 19.7203 22.6531C19.99 22.0022 20.3852 21.4108 20.8834 20.9126C21.3816 20.4144 21.973 20.0193 22.6239 19.7497C23.2749 19.4801 23.9725 19.3413 24.677 19.3414ZM24.677 17.4214C23.2362 17.4213 21.8276 17.8485 20.6295 18.649C19.4314 19.4495 18.4976 20.5873 17.9462 21.9185C17.3948 23.2497 17.2505 24.7145 17.5316 26.1277C17.8127 27.5409 18.5065 28.839 19.5254 29.8579C20.5442 30.8767 21.8423 31.5706 23.2555 31.8517C24.6688 32.1328 26.1336 31.9885 27.4648 31.437C28.796 30.8856 29.9337 29.9518 30.7342 28.7537C31.5347 27.5556 31.9619 26.1471 31.9618 24.7062C31.9596 22.7748 31.1914 20.9232 29.8257 19.5575C28.4601 18.1918 26.6084 17.4236 24.677 17.4214Z" fill="#212121"/>
<path d="M21.3037 24.3186H20.1494V25.1762H21.3037V24.3186Z" fill="#76BC2D"/>
<path d="M29.4247 24.3186H28.2705V25.1762H29.4247V24.3186Z" fill="#76BC2D"/>
<path d="M25.0812 27.337V25.5159H23.2139V22.1616L22.1515 22.168C22.0378 22.1686 21.9253 22.1917 21.8204 22.2358C21.7156 22.28 21.6205 22.3445 21.5407 22.4255C21.4608 22.5065 21.3977 22.6025 21.3551 22.708C21.3124 22.8134 21.291 22.9263 21.292 23.04L21.3151 26.5024C21.3168 26.7307 21.4085 26.949 21.5702 27.11C21.732 27.271 21.9508 27.3617 22.1791 27.3623H22.1848" fill="#76BC2D"/>
<path d="M24.5518 22.1583V24.1788H26.419V27.3343L27.4241 27.3279C27.5378 27.3273 27.6503 27.3043 27.7551 27.2602C27.86 27.2161 27.9551 27.1517 28.0349 27.0707C28.1148 26.9898 28.1779 26.8939 28.2207 26.7885C28.2634 26.683 28.2849 26.5702 28.2839 26.4565L28.2609 22.9941C28.2591 22.7659 28.1674 22.5476 28.0056 22.3866C27.8438 22.2256 27.6251 22.1349 27.3969 22.1343H27.3911" fill="#76BC2D"/>
</g>
<defs>
<linearGradient id="paint0_linear" x1="4.02899" y1="18.0237" x2="28.1608" y2="18.0237" gradientUnits="userSpaceOnUse">
<stop stop-color="#005BA1"/>
<stop offset="0.07" stop-color="#0060A9"/>
<stop offset="0.36" stop-color="#0071C8"/>
<stop offset="0.52" stop-color="#0078D4"/>
<stop offset="0.64" stop-color="#0074CD"/>
<stop offset="0.82" stop-color="#006ABB"/>
<stop offset="1" stop-color="#005BA1"/>
</linearGradient>
<linearGradient id="paint1_linear" x1="25.9198" y1="31.4391" x2="25.9198" y2="19.2791" gradientUnits="userSpaceOnUse">
<stop stop-color="#5E9624"/>
<stop offset="0.254" stop-color="#619C25"/>
<stop offset="0.511" stop-color="#76BC2D"/>
<stop offset="0.91" stop-color="#86D633"/>
<stop offset="1" stop-color="#86D633"/>
</linearGradient>
<linearGradient id="paint2_linear" x1="25.9198" y1="31.4391" x2="25.9198" y2="19.2791" gradientUnits="userSpaceOnUse">
<stop stop-color="#5E9624"/>
<stop offset="0.254" stop-color="#619C25"/>
<stop offset="0.511" stop-color="#76BC2D"/>
<stop offset="0.91" stop-color="#86D633"/>
<stop offset="1" stop-color="#86D633"/>
</linearGradient>
<clipPath id="clip0">
<rect width="32" height="32" fill="white"/>
</clipPath>
</defs>
</svg>
