<svg id="b15e05d5-34e2-4c79-a9a5-c1b52415ef11" data-name="Layer 1" xmlns="http://www.w3.org/2000/svg" xmlns:xlink="http://www.w3.org/1999/xlink" width="32" height="32" viewBox="0 0 18 18">
  <defs>
    <linearGradient id="bde8e97f-66c0-43a9-a1d7-5ab946144ffc" x1="12.282" y1="11.436" x2="12.282" gradientUnits="userSpaceOnUse">
      <stop offset="0" stop-color="#005ba1"/>
      <stop offset="0.525" stop-color="#0074cd"/>
      <stop offset="1" stop-color="#0078d4"/>
    </linearGradient>
    <linearGradient id="f113b540-5195-433b-b39c-6990b98ebd7e" x1="7.923" y1="18" x2="7.923" y2="3.129" gradientUnits="userSpaceOnUse">
      <stop offset="0" stop-color="#0078d4"/>
      <stop offset="0.16" stop-color="#1380da"/>
      <stop offset="0.53" stop-color="#3c91e5"/>
      <stop offset="0.82" stop-color="#559cec"/>
      <stop offset="1" stop-color="#5ea0ef"/>
    </linearGradient>
    <linearGradient id="ecdaa277-bf04-4a14-a013-fa7c95492ff5" x1="308.186" y1="365.104" x2="308.186" y2="371.623" gradientTransform="matrix(1, 0, 0, -1, -298, 382)" gradientUnits="userSpaceOnUse">
      <stop offset="0" stop-color="#32bedd"/>
      <stop offset="0.175" stop-color="#32caea"/>
      <stop offset="0.41" stop-color="#32d2f2"/>
      <stop offset="0.775" stop-color="#32d4f5"/>
    </linearGradient>
  </defs>
  <rect x="6.564" width="11.436" height="11.436" rx="1" fill="url(#bde8e97f-66c0-43a9-a1d7-5ab946144ffc)"/>
  <rect y="3.129" width="15.846" height="14.871" rx="1" fill="url(#f113b540-5195-433b-b39c-6990b98ebd7e)"/>
  <path d="M9.341,7.449V4.311h-.83V8.123h2.27V7.449ZM2.751,5.908a1.722,1.722,0,0,1-.471-.286.405.405,0,0,1-.11-.3.313.313,0,0,1,.138-.277.63.63,0,0,1,.388-.11,1.5,1.5,0,0,1,.923.267V4.413A2.382,2.382,0,0,0,2.7,4.265a1.514,1.514,0,0,0-1.006.314A1,1,0,0,0,1.3,5.4c0,.471.295.84.923,1.117a2.634,2.634,0,0,1,.572.332.39.39,0,0,1,.139.3.351.351,0,0,1-.148.286.747.747,0,0,1-.415.1,1.533,1.533,0,0,1-1.006-.387V8a2.01,2.01,0,0,0,.987.222,1.737,1.737,0,0,0,1.089-.3.994.994,0,0,0,.305-.84.972.972,0,0,0-.231-.646A2.246,2.246,0,0,0,2.751,5.908ZM7.588,7.375a2.16,2.16,0,0,0,.3-1.163,2.145,2.145,0,0,0-.3-.978,1.671,1.671,0,0,0-.646-.692,1.846,1.846,0,0,0-.923-.24,1.942,1.942,0,0,0-1,.249,1.717,1.717,0,0,0-.674.683,2.258,2.258,0,0,0-.24,1.052,2.094,2.094,0,0,0,.221.923,1.627,1.627,0,0,0,.637.683,1.9,1.9,0,0,0,.923.277l.794.923H7.8L6.665,8.077A1.654,1.654,0,0,0,7.588,7.375Zm-.923-.23a.871.871,0,0,1-.7.323.846.846,0,0,1-.7-.333,1.4,1.4,0,0,1-.268-.923,1.412,1.412,0,0,1,.268-.923.921.921,0,0,1,.72-.341.8.8,0,0,1,.692.341,1.5,1.5,0,0,1,.249.923A1.353,1.353,0,0,1,6.665,7.145Z" fill="#fff"/>
  <path d="M14.78,14.852a2.058,2.058,0,0,0-1.788-1.981,2.608,2.608,0,0,0-2.685-2.492,2.68,2.68,0,0,0-2.554,1.738,2.465,2.465,0,0,0-2.162,2.372,2.5,2.5,0,0,0,2.586,2.4h4.4a.673.673,0,0,0,.11,0A2.1,2.1,0,0,0,14.78,14.852Z" fill="url(#ecdaa277-bf04-4a14-a013-fa7c95492ff5)"/>
  <path d="M8.719,13.691l1.519-1.536a.175.175,0,0,1,.248,0l0,0,1.518,1.536a.076.076,0,0,1,.012.107.077.077,0,0,1-.071.028h-.932a.082.082,0,0,0-.082.082h0V15.79a.058.058,0,0,1-.052.064.024.024,0,0,1-.012,0H9.851a.065.065,0,0,1-.065-.064v-1.9a.075.075,0,0,0-.064-.082h-.95a.075.075,0,0,1-.064-.086A.068.068,0,0,1,8.719,13.691Z" fill="#f2f2f2"/>
</svg>
