<svg width="16" height="16" viewBox="0 0 16 16" fill="none" xmlns="http://www.w3.org/2000/svg">
<g clip-path="url(#clip0_2413_24797)">
<path d="M12.5 1.4C13.2046 1.91999 13.8427 2.52451 14.4 3.2C14.916 3.86386 15.3212 4.60678 15.6 5.4C15.8855 6.23633 16.0209 7.11654 16 8C15.9987 8.71058 15.8977 9.41747 15.7 10.1C15.5378 10.7724 15.2676 11.4141 14.9 12C14.5578 12.6054 14.1558 13.1749 13.7 13.7C13.1749 14.1558 12.6054 14.5578 12 14.9C11.4141 15.2676 10.7724 15.5378 10.1 15.7C8.72857 16.1 7.27143 16.1 5.9 15.7C5.2276 15.5378 4.58594 15.2676 4 14.9C3.39464 14.5578 2.82512 14.1558 2.3 13.7C1.84417 13.1749 1.44216 12.6054 1.1 12C0.732411 11.4141 0.46224 10.7724 0.3 10.1C-0.1 8.72857 -0.1 7.27143 0.3 5.9C0.505656 5.21052 0.77342 4.54111 1.1 3.9C1.47763 3.32372 1.91323 2.7876 2.4 2.3C2.92265 1.81195 3.49206 1.37652 4.1 1H2V0H6V4H5V1.7C4.37688 1.97103 3.80256 2.34265 3.3 2.8C2.82329 3.23349 2.41827 3.73976 2.1 4.3C1.73422 4.8145 1.4633 5.39021 1.3 6C1.10231 6.64831 1.00123 7.32222 1 8C1.00215 8.64496 1.10333 9.28576 1.3 9.9C1.42902 10.4731 1.66664 11.0163 2 11.5C2.2781 12.0299 2.65092 12.5044 3.1 12.9C3.49558 13.3491 3.97007 13.7219 4.5 14L6.1 14.8L8 15L9.9 14.8L11.5 14C12.0299 13.7219 12.5044 13.3491 12.9 12.9C13.3491 12.5044 13.7219 12.0299 14 11.5C14.3256 10.9983 14.594 10.4616 14.8 9.9C14.9158 9.27281 14.9827 8.63756 15 8C15.0135 7.21492 14.8778 6.43442 14.6 5.7C14.3679 5.01837 14.0304 4.37727 13.6 3.8C13.1078 3.19271 12.536 2.65454 11.9 2.2C11.2832 1.79963 10.6087 1.49611 9.9 1.3L10.1 0.3C10.9659 0.501287 11.7822 0.875438 12.5 1.4Z" fill="#0078D4"/>
</g>
<defs>
<clipPath id="clip0_2413_24797">
<rect width="16" height="16" fill="white"/>
</clipPath>
</defs>
</svg>
