<svg width="96" height="96" viewBox="0 0 96 96" fill="none" xmlns="http://www.w3.org/2000/svg">
<path d="M82.7395 92.2314L80.0176 93.8144C80.8052 93.3549 81.2955 92.382 81.2994 90.9959L84.0213 89.413C84.0174 90.799 83.531 91.772 82.7395 92.2314Z" fill="#D2D2D2"/>
<path d="M81.403 54.8659L81.2987 90.9958C81.291 93.7872 79.3181 94.9108 76.8896 93.5093L17.2083 59.0472C14.7837 57.6457 12.8185 54.2481 12.8262 51.4606L12.9305 15.3306L81.403 54.8659Z" fill="#F4F4F4"/>
<path d="M81.403 54.8659L84.1249 53.283L84.0207 89.413L81.2988 90.9921L81.403 54.8659Z" fill="#D2D2D2"/>
<path d="M12.9316 15.3306L15.6535 13.7515L84.126 53.2829L81.4041 54.8658L12.9316 15.3306Z" fill="#D2D2D2"/>
<path d="M14.2129 3.76731L16.9349 2.18436C17.7341 1.72105 18.8421 1.78283 20.0622 2.48936L17.3403 4.07232C16.1202 3.36964 15.0121 3.30401 14.2129 3.76731Z" fill="#AAAAAA"/>
<path d="M81.4041 46.121L84.126 44.5381L84.099 53.1401L81.3809 54.7192L81.4041 46.121Z" fill="#AAAAAA"/>
<path d="M17.3398 4.07612L20.0618 2.49316L79.743 36.9514L77.0211 38.5344L17.3398 4.07612Z" fill="#AAAAAA"/>
<path d="M77.0217 38.5345C79.4502 39.936 81.4115 43.3335 81.4038 46.1211L81.3806 54.7192L12.9043 15.1878L12.9275 6.58965C12.9352 3.80211 14.9119 2.67473 17.3366 4.07623L77.0217 38.5345Z" fill="url(#paint0_linear)"/>
<path d="M77.0215 38.5344L79.7434 36.9514C82.1719 38.3529 84.1332 41.7505 84.1255 44.538L81.4036 46.121C81.4113 43.3334 79.45 39.9359 77.0215 38.5344Z" fill="#AAAAAA"/>
<path d="M95.6528 70.5142L61.1777 50.3644C61.1424 50.3384 61.1007 50.3223 61.057 50.318C61.0133 50.3136 60.9693 50.3211 60.9295 50.3397L60.0684 50.8461C60.1083 50.8277 60.1523 50.8203 60.196 50.8248C60.2397 50.8292 60.2813 50.8454 60.3166 50.8715L94.7917 71.0219C94.8929 71.0889 94.9771 71.1786 95.0373 71.2839C95.0976 71.3892 95.1323 71.5073 95.1387 71.6284L95.1203 78.1574C95.1245 78.2006 95.1174 78.2442 95.0996 78.2838C95.0818 78.3234 95.0539 78.3576 95.0188 78.3831L95.8798 77.8768C95.9152 77.8515 95.9432 77.8172 95.961 77.7776C95.9789 77.738 95.9859 77.6943 95.9814 77.6511L95.9997 71.1214C95.9935 71.0001 95.9588 70.8819 95.8986 70.7765C95.8383 70.671 95.7541 70.5812 95.6528 70.5142Z" fill="#D2D2D2"/>
<path d="M94.973 83.3867L60.498 63.2369C60.4628 63.2106 60.4211 63.1943 60.3774 63.1899C60.3337 63.1854 60.2896 63.1929 60.2498 63.2115L59.3887 63.7186C59.4284 63.7 59.4725 63.6925 59.5162 63.6968C59.5599 63.7011 59.6016 63.7172 59.6369 63.7433L94.1119 83.893C94.2132 83.9599 94.2973 84.0497 94.3576 84.155C94.4178 84.2603 94.4526 84.3783 94.4589 84.4995L94.4406 91.0285C94.4448 91.0718 94.4376 91.1155 94.4198 91.1552C94.402 91.1949 94.3742 91.2292 94.339 91.2549L95.2001 90.7478C95.2355 90.7225 95.2635 90.6883 95.2813 90.6487C95.2991 90.609 95.3062 90.5654 95.3017 90.5222L95.32 83.9932C95.3136 83.872 95.2789 83.754 95.2187 83.6486C95.1584 83.5433 95.0743 83.4536 94.973 83.3867Z" fill="#D2D2D2"/>
<path d="M35.7008 36.1561L1.2258 16.0057C1.19072 15.9797 1.1493 15.9636 1.10587 15.9592C1.06244 15.9547 1.01861 15.962 0.978976 15.9803L0.117188 16.4874C0.156707 16.4687 0.200544 16.4612 0.244018 16.4655C0.287492 16.4699 0.328966 16.486 0.364015 16.512L34.8412 36.6632C34.9422 36.7298 35.0261 36.8194 35.086 36.9245C35.1459 37.0296 35.1802 37.1474 35.186 37.2683L35.1684 43.798C35.1727 43.8414 35.1656 43.8851 35.1476 43.9249C35.1297 43.9646 35.1016 43.9989 35.0661 44.0244L35.9279 43.518C35.9633 43.4924 35.9913 43.4579 36.0091 43.4181C36.0269 43.3782 36.034 43.3344 36.0295 43.2909L36.0478 36.7619C36.0419 36.6407 36.0074 36.5227 35.9471 36.4174C35.8868 36.3121 35.8024 36.2226 35.7008 36.1561Z" fill="#AAAAAA"/>
<path d="M34.8425 36.6631C34.9433 36.73 35.027 36.8196 35.087 36.9247C35.147 37.0297 35.1816 37.1474 35.188 37.2682L35.1697 43.7979C35.1697 44.0207 35.0138 44.1124 34.822 43.9996L0.344858 23.8491C0.243915 23.7819 0.160136 23.692 0.100246 23.5865C0.0403556 23.4811 0.00602015 23.3631 0 23.2419L0.0183366 16.7129C0.0183366 16.4894 0.173487 16.3998 0.365309 16.5119L34.8425 36.6631Z" fill="#DCDCDC"/>
<path d="M94.1116 83.8934C94.2128 83.9603 94.297 84.0501 94.3572 84.1554C94.4175 84.2607 94.4522 84.3787 94.4585 84.4999L94.4402 91.0296C94.4402 91.2525 94.2829 91.3427 94.0876 91.2306L59.6119 71.0809C59.5106 71.0137 59.4264 70.9237 59.3663 70.8182C59.3062 70.7126 59.2717 70.5943 59.2656 70.473L59.2832 63.9433C59.2832 63.7204 59.4405 63.6315 59.6358 63.7437L94.1116 83.8934Z" fill="white"/>
<path d="M94.9109 71.0222C95.0121 71.0891 95.0962 71.1788 95.1565 71.2842C95.2168 71.3895 95.2515 71.5075 95.2578 71.6287L95.2395 78.1577C95.2395 78.3812 95.0822 78.4715 94.8869 78.3594L60.4147 58.2089C60.3133 58.1417 60.2291 58.0516 60.169 57.9459C60.1088 57.8402 60.0744 57.7218 60.0684 57.6003L60.086 51.0713C60.086 50.8478 60.2433 50.7596 60.4386 50.8717L94.9109 71.0222Z" fill="white"/>
<defs>
<linearGradient id="paint0_linear" x1="47.1541" y1="3.47375" x2="47.1541" y2="54.7192" gradientUnits="userSpaceOnUse">
<stop offset="0.177741" stop-color="#F4F4F4"/>
<stop offset="0.631431" stop-color="#DCDCDC"/>
</linearGradient>
</defs>
</svg>
