<svg width="198" height="151" viewBox="0 0 198 151" fill="none" xmlns="http://www.w3.org/2000/svg">
<path d="M133.739 92.2314L131.018 93.8144C131.805 93.3549 132.295 92.382 132.299 90.9959L135.021 89.413C135.017 90.799 134.531 91.772 133.739 92.2314Z" fill="#D2D2D2"/>
<path d="M132.403 54.8659L132.299 90.9958C132.291 93.7872 130.318 94.9108 127.89 93.5093L68.2083 59.0472C65.7837 57.6457 63.8185 54.2481 63.8262 51.4606L63.9305 15.3306L132.403 54.8659Z" fill="#F4F4F4"/>
<path d="M132.403 54.8659L135.125 53.283L135.021 89.413L132.299 90.9921L132.403 54.8659Z" fill="#D2D2D2"/>
<path d="M63.9316 15.3306L66.6535 13.7515L135.126 53.2829L132.404 54.8658L63.9316 15.3306Z" fill="#D2D2D2"/>
<path d="M65.2129 3.76731L67.9349 2.18436C68.7341 1.72105 69.8421 1.78283 71.0622 2.48936L68.3403 4.07232C67.1202 3.36964 66.0121 3.30401 65.2129 3.76731Z" fill="#AAAAAA"/>
<path d="M132.404 46.121L135.126 44.5381L135.099 53.1401L132.381 54.7192L132.404 46.121Z" fill="#AAAAAA"/>
<path d="M68.3398 4.07612L71.0618 2.49316L130.743 36.9514L128.021 38.5344L68.3398 4.07612Z" fill="#AAAAAA"/>
<path d="M128.022 38.5345C130.45 39.936 132.411 43.3335 132.404 46.1211L132.381 54.7192L63.9043 15.1878L63.9275 6.58965C63.9352 3.80211 65.9119 2.67473 68.3366 4.07623L128.022 38.5345Z" fill="url(#paint0_linear)"/>
<path d="M128.021 38.5344L130.743 36.9514C133.172 38.3529 135.133 41.7505 135.125 44.538L132.404 46.121C132.411 43.3334 130.45 39.9359 128.021 38.5344Z" fill="#AAAAAA"/>
<path d="M146.653 70.5142L112.178 50.3644C112.142 50.3384 112.101 50.3223 112.057 50.318C112.013 50.3136 111.969 50.3211 111.929 50.3397L111.068 50.8461C111.108 50.8277 111.152 50.8203 111.196 50.8248C111.24 50.8292 111.281 50.8454 111.317 50.8715L145.792 71.0219C145.893 71.0889 145.977 71.1786 146.037 71.2839C146.098 71.3892 146.132 71.5073 146.139 71.6284L146.12 78.1574C146.124 78.2006 146.117 78.2442 146.1 78.2838C146.082 78.3234 146.054 78.3576 146.019 78.3831L146.88 77.8768C146.915 77.8515 146.943 77.8172 146.961 77.7776C146.979 77.738 146.986 77.6943 146.981 77.6511L147 71.1214C146.993 71.0001 146.959 70.8819 146.899 70.7765C146.838 70.671 146.754 70.5812 146.653 70.5142Z" fill="#D2D2D2"/>
<path d="M145.973 83.3867L111.498 63.2369C111.463 63.2106 111.421 63.1943 111.377 63.1899C111.334 63.1854 111.29 63.1929 111.25 63.2115L110.389 63.7186C110.428 63.7 110.472 63.6925 110.516 63.6968C110.56 63.7011 110.602 63.7172 110.637 63.7433L145.112 83.893C145.213 83.9599 145.297 84.0497 145.358 84.155C145.418 84.2603 145.453 84.3783 145.459 84.4995L145.441 91.0285C145.445 91.0718 145.438 91.1155 145.42 91.1552C145.402 91.1949 145.374 91.2292 145.339 91.2549L146.2 90.7478C146.235 90.7225 146.263 90.6883 146.281 90.6487C146.299 90.609 146.306 90.5654 146.302 90.5222L146.32 83.9932C146.314 83.872 146.279 83.754 146.219 83.6486C146.158 83.5433 146.074 83.4536 145.973 83.3867Z" fill="#D2D2D2"/>
<path d="M86.7008 36.1561L52.2258 16.0057C52.1907 15.9797 52.1493 15.9636 52.1059 15.9592C52.0624 15.9547 52.0186 15.962 51.979 15.9803L51.1172 16.4874C51.1567 16.4687 51.2005 16.4612 51.244 16.4655C51.2875 16.4699 51.329 16.486 51.364 16.512L85.8412 36.6632C85.9422 36.7298 86.0261 36.8194 86.086 36.9245C86.1459 37.0296 86.1802 37.1474 86.186 37.2683L86.1684 43.798C86.1727 43.8414 86.1656 43.8851 86.1476 43.9249C86.1297 43.9646 86.1016 43.9989 86.0661 44.0244L86.9279 43.518C86.9633 43.4924 86.9913 43.4579 87.0091 43.4181C87.0269 43.3782 87.034 43.3344 87.0295 43.2909L87.0478 36.7619C87.0419 36.6407 87.0074 36.5227 86.9471 36.4174C86.8868 36.3121 86.8024 36.2226 86.7008 36.1561Z" fill="#AAAAAA"/>
<path d="M85.8425 36.6631C85.9433 36.73 86.027 36.8196 86.087 36.9247C86.147 37.0297 86.1816 37.1474 86.188 37.2682L86.1697 43.7979C86.1697 44.0207 86.0138 44.1124 85.822 43.9996L51.3449 23.8491C51.2439 23.7819 51.1601 23.692 51.1002 23.5865C51.0404 23.4811 51.006 23.3631 51 23.2419L51.0183 16.7129C51.0183 16.4894 51.1735 16.3998 51.3653 16.5119L85.8425 36.6631Z" fill="#DCDCDC"/>
<path d="M145.112 83.8934C145.213 83.9603 145.297 84.0501 145.357 84.1554C145.418 84.2607 145.452 84.3787 145.459 84.4999L145.44 91.0296C145.44 91.2525 145.283 91.3427 145.088 91.2306L110.612 71.0809C110.511 71.0137 110.426 70.9237 110.366 70.8182C110.306 70.7126 110.272 70.5943 110.266 70.473L110.283 63.9433C110.283 63.7204 110.441 63.6315 110.636 63.7437L145.112 83.8934Z" fill="white"/>
<path d="M145.911 71.0222C146.012 71.0891 146.096 71.1788 146.156 71.2842C146.217 71.3895 146.251 71.5075 146.258 71.6287L146.239 78.1577C146.239 78.3812 146.082 78.4715 145.887 78.3594L111.415 58.2089C111.313 58.1417 111.229 58.0516 111.169 57.9459C111.109 57.8402 111.074 57.7218 111.068 57.6003L111.086 51.0713C111.086 50.8478 111.243 50.7596 111.439 50.8717L145.911 71.0222Z" fill="white"/>
<path d="M22.0195 130H20.9297L20.0391 127.645H16.4766L15.6387 130H14.543L17.7656 121.598H18.7852L22.0195 130ZM19.7168 126.76L18.3984 123.18C18.3555 123.062 18.3125 122.875 18.2695 122.617H18.2461C18.207 122.855 18.1621 123.043 18.1113 123.18L16.8047 126.76H19.7168ZM28.2539 130H27.293V128.98H27.2695C26.8242 129.754 26.1367 130.141 25.207 130.141C24.4531 130.141 23.8496 129.873 23.3965 129.338C22.9473 128.799 22.7227 128.066 22.7227 127.141C22.7227 126.148 22.9727 125.354 23.4727 124.756C23.9727 124.158 24.6387 123.859 25.4707 123.859C26.2949 123.859 26.8945 124.184 27.2695 124.832H27.293V121.117H28.2539V130ZM27.293 127.287V126.402C27.293 125.918 27.1328 125.508 26.8125 125.172C26.4922 124.836 26.0859 124.668 25.5938 124.668C25.0078 124.668 24.5469 124.883 24.2109 125.312C23.875 125.742 23.707 126.336 23.707 127.094C23.707 127.785 23.8672 128.332 24.1875 128.734C24.5117 129.133 24.9453 129.332 25.4883 129.332C26.0234 129.332 26.457 129.139 26.7891 128.752C27.125 128.365 27.293 127.877 27.293 127.287ZM35.3203 130H34.3594V128.98H34.3359C33.8906 129.754 33.2031 130.141 32.2734 130.141C31.5195 130.141 30.916 129.873 30.4629 129.338C30.0137 128.799 29.7891 128.066 29.7891 127.141C29.7891 126.148 30.0391 125.354 30.5391 124.756C31.0391 124.158 31.7051 123.859 32.5371 123.859C33.3613 123.859 33.9609 124.184 34.3359 124.832H34.3594V121.117H35.3203V130ZM34.3594 127.287V126.402C34.3594 125.918 34.1992 125.508 33.8789 125.172C33.5586 124.836 33.1523 124.668 32.6602 124.668C32.0742 124.668 31.6133 124.883 31.2773 125.312C30.9414 125.742 30.7734 126.336 30.7734 127.094C30.7734 127.785 30.9336 128.332 31.2539 128.734C31.5781 129.133 32.0117 129.332 32.5547 129.332C33.0898 129.332 33.5234 129.139 33.8555 128.752C34.1914 128.365 34.3594 127.877 34.3594 127.287ZM45.334 124L42.5742 130.961C42.082 132.203 41.3906 132.824 40.5 132.824C40.25 132.824 40.041 132.799 39.873 132.748V131.887C40.0801 131.957 40.2695 131.992 40.4414 131.992C40.9258 131.992 41.2891 131.703 41.5312 131.125L42.0117 129.988L39.668 124H40.7344L42.3574 128.617C42.377 128.676 42.418 128.828 42.4805 129.074H42.5156C42.5352 128.98 42.5742 128.832 42.6328 128.629L44.3379 124H45.334ZM48.8789 130.141C47.9922 130.141 47.2832 129.861 46.752 129.303C46.2246 128.74 45.9609 127.996 45.9609 127.07C45.9609 126.062 46.2363 125.275 46.7871 124.709C47.3379 124.143 48.082 123.859 49.0195 123.859C49.9141 123.859 50.6113 124.135 51.1113 124.686C51.6152 125.236 51.8672 126 51.8672 126.977C51.8672 127.934 51.5957 128.701 51.0527 129.279C50.5137 129.854 49.7891 130.141 48.8789 130.141ZM48.9492 124.668C48.332 124.668 47.8438 124.879 47.4844 125.301C47.125 125.719 46.9453 126.297 46.9453 127.035C46.9453 127.746 47.127 128.307 47.4902 128.717C47.8535 129.127 48.3398 129.332 48.9492 129.332C49.5703 129.332 50.0469 129.131 50.3789 128.729C50.7148 128.326 50.8828 127.754 50.8828 127.012C50.8828 126.262 50.7148 125.684 50.3789 125.277C50.0469 124.871 49.5703 124.668 48.9492 124.668ZM58.2539 130H57.293V129.051H57.2695C56.8711 129.777 56.2539 130.141 55.418 130.141C53.9883 130.141 53.2734 129.289 53.2734 127.586V124H54.2285V127.434C54.2285 128.699 54.7129 129.332 55.6816 129.332C56.1504 129.332 56.5352 129.16 56.8359 128.816C57.1406 128.469 57.293 128.016 57.293 127.457V124H58.2539V130ZM63.3281 124.973C63.1602 124.844 62.918 124.779 62.6016 124.779C62.1914 124.779 61.8477 124.973 61.5703 125.359C61.2969 125.746 61.1602 126.273 61.1602 126.941V130H60.1992V124H61.1602V125.236H61.1836C61.3203 124.814 61.5293 124.486 61.8105 124.252C62.0918 124.014 62.4062 123.895 62.7539 123.895C63.0039 123.895 63.1953 123.922 63.3281 123.977V124.973ZM74.2969 130H73.207L72.3164 127.645H68.7539L67.916 130H66.8203L70.043 121.598H71.0625L74.2969 130ZM71.9941 126.76L70.6758 123.18C70.6328 123.062 70.5898 122.875 70.5469 122.617H70.5234C70.4844 122.855 70.4395 123.043 70.3887 123.18L69.082 126.76H71.9941ZM79.5938 124.275L76.043 129.18H79.5586V130H74.6309V129.701L78.1816 124.82H74.9648V124H79.5938V124.275ZM85.6875 130H84.7266V129.051H84.7031C84.3047 129.777 83.6875 130.141 82.8516 130.141C81.4219 130.141 80.707 129.289 80.707 127.586V124H81.6621V127.434C81.6621 128.699 82.1465 129.332 83.1152 129.332C83.584 129.332 83.9688 129.16 84.2695 128.816C84.5742 128.469 84.7266 128.016 84.7266 127.457V124H85.6875V130ZM90.7617 124.973C90.5938 124.844 90.3516 124.779 90.0352 124.779C89.625 124.779 89.2812 124.973 89.0039 125.359C88.7305 125.746 88.5938 126.273 88.5938 126.941V130H87.6328V124H88.5938V125.236H88.6172C88.7539 124.814 88.9629 124.486 89.2441 124.252C89.5254 124.014 89.8398 123.895 90.1875 123.895C90.4375 123.895 90.6289 123.922 90.7617 123.977V124.973ZM96.627 127.24H92.3906C92.4062 127.908 92.5859 128.424 92.9297 128.787C93.2734 129.15 93.7461 129.332 94.3477 129.332C95.0234 129.332 95.6445 129.109 96.2109 128.664V129.566C95.6836 129.949 94.9863 130.141 94.1191 130.141C93.2715 130.141 92.6055 129.869 92.1211 129.326C91.6367 128.779 91.3945 128.012 91.3945 127.023C91.3945 126.09 91.6582 125.33 92.1855 124.744C92.7168 124.154 93.375 123.859 94.1602 123.859C94.9453 123.859 95.5527 124.113 95.9824 124.621C96.4121 125.129 96.627 125.834 96.627 126.736V127.24ZM95.6426 126.426C95.6387 125.871 95.5039 125.439 95.2383 125.131C94.9766 124.822 94.6113 124.668 94.1426 124.668C93.6895 124.668 93.3047 124.83 92.9883 125.154C92.6719 125.479 92.4766 125.902 92.4023 126.426H95.6426ZM105.674 130H104.713V129.062H104.689C104.271 129.781 103.656 130.141 102.844 130.141C102.246 130.141 101.777 129.982 101.438 129.666C101.102 129.35 100.934 128.93 100.934 128.406C100.934 127.285 101.594 126.633 102.914 126.449L104.713 126.197C104.713 125.178 104.301 124.668 103.477 124.668C102.754 124.668 102.102 124.914 101.52 125.406V124.422C102.109 124.047 102.789 123.859 103.559 123.859C104.969 123.859 105.674 124.605 105.674 126.098V130ZM104.713 126.965L103.266 127.164C102.82 127.227 102.484 127.338 102.258 127.498C102.031 127.654 101.918 127.934 101.918 128.336C101.918 128.629 102.021 128.869 102.229 129.057C102.439 129.24 102.719 129.332 103.066 129.332C103.543 129.332 103.936 129.166 104.244 128.834C104.557 128.498 104.713 128.074 104.713 127.562V126.965ZM111.574 129.725C111.113 130.002 110.566 130.141 109.934 130.141C109.078 130.141 108.387 129.863 107.859 129.309C107.336 128.75 107.074 128.027 107.074 127.141C107.074 126.152 107.357 125.359 107.924 124.762C108.49 124.16 109.246 123.859 110.191 123.859C110.719 123.859 111.184 123.957 111.586 124.152V125.137C111.141 124.824 110.664 124.668 110.156 124.668C109.543 124.668 109.039 124.889 108.645 125.33C108.254 125.768 108.059 126.344 108.059 127.059C108.059 127.762 108.242 128.316 108.609 128.723C108.98 129.129 109.477 129.332 110.098 129.332C110.621 129.332 111.113 129.158 111.574 128.811V129.725ZM117.117 129.725C116.656 130.002 116.109 130.141 115.477 130.141C114.621 130.141 113.93 129.863 113.402 129.309C112.879 128.75 112.617 128.027 112.617 127.141C112.617 126.152 112.9 125.359 113.467 124.762C114.033 124.16 114.789 123.859 115.734 123.859C116.262 123.859 116.727 123.957 117.129 124.152V125.137C116.684 124.824 116.207 124.668 115.699 124.668C115.086 124.668 114.582 124.889 114.188 125.33C113.797 125.768 113.602 126.344 113.602 127.059C113.602 127.762 113.785 128.316 114.152 128.723C114.523 129.129 115.02 129.332 115.641 129.332C116.164 129.332 116.656 129.158 117.117 128.811V129.725ZM121.078 130.141C120.191 130.141 119.482 129.861 118.951 129.303C118.424 128.74 118.16 127.996 118.16 127.07C118.16 126.062 118.436 125.275 118.986 124.709C119.537 124.143 120.281 123.859 121.219 123.859C122.113 123.859 122.811 124.135 123.311 124.686C123.814 125.236 124.066 126 124.066 126.977C124.066 127.934 123.795 128.701 123.252 129.279C122.713 129.854 121.988 130.141 121.078 130.141ZM121.148 124.668C120.531 124.668 120.043 124.879 119.684 125.301C119.324 125.719 119.145 126.297 119.145 127.035C119.145 127.746 119.326 128.307 119.689 128.717C120.053 129.127 120.539 129.332 121.148 129.332C121.77 129.332 122.246 129.131 122.578 128.729C122.914 128.326 123.082 127.754 123.082 127.012C123.082 126.262 122.914 125.684 122.578 125.277C122.246 124.871 121.77 124.668 121.148 124.668ZM130.453 130H129.492V129.051H129.469C129.07 129.777 128.453 130.141 127.617 130.141C126.188 130.141 125.473 129.289 125.473 127.586V124H126.428V127.434C126.428 128.699 126.912 129.332 127.881 129.332C128.35 129.332 128.734 129.16 129.035 128.816C129.34 128.469 129.492 128.016 129.492 127.457V124H130.453V130ZM137.379 130H136.418V126.578C136.418 125.305 135.953 124.668 135.023 124.668C134.543 124.668 134.145 124.85 133.828 125.213C133.516 125.572 133.359 126.027 133.359 126.578V130H132.398V124H133.359V124.996H133.383C133.836 124.238 134.492 123.859 135.352 123.859C136.008 123.859 136.51 124.072 136.857 124.498C137.205 124.92 137.379 125.531 137.379 126.332V130ZM141.979 129.941C141.752 130.066 141.453 130.129 141.082 130.129C140.031 130.129 139.506 129.543 139.506 128.371V124.82H138.475V124H139.506V122.535L140.467 122.225V124H141.979V124.82H140.467V128.201C140.467 128.604 140.535 128.891 140.672 129.062C140.809 129.234 141.035 129.32 141.352 129.32C141.594 129.32 141.803 129.254 141.979 129.121V129.941ZM149.338 129.941C149.111 130.066 148.812 130.129 148.441 130.129C147.391 130.129 146.865 129.543 146.865 128.371V124.82H145.834V124H146.865V122.535L147.826 122.225V124H149.338V124.82H147.826V128.201C147.826 128.604 147.895 128.891 148.031 129.062C148.168 129.234 148.395 129.32 148.711 129.32C148.953 129.32 149.162 129.254 149.338 129.121V129.941ZM153.129 130.141C152.242 130.141 151.533 129.861 151.002 129.303C150.475 128.74 150.211 127.996 150.211 127.07C150.211 126.062 150.486 125.275 151.037 124.709C151.588 124.143 152.332 123.859 153.27 123.859C154.164 123.859 154.861 124.135 155.361 124.686C155.865 125.236 156.117 126 156.117 126.977C156.117 127.934 155.846 128.701 155.303 129.279C154.764 129.854 154.039 130.141 153.129 130.141ZM153.199 124.668C152.582 124.668 152.094 124.879 151.734 125.301C151.375 125.719 151.195 126.297 151.195 127.035C151.195 127.746 151.377 128.307 151.74 128.717C152.104 129.127 152.59 129.332 153.199 129.332C153.82 129.332 154.297 129.131 154.629 128.729C154.965 128.326 155.133 127.754 155.133 127.012C155.133 126.262 154.965 125.684 154.629 125.277C154.297 124.871 153.82 124.668 153.199 124.668ZM165.662 124L163.271 130H162.328L160.055 124H161.109L162.633 128.359C162.746 128.68 162.816 128.959 162.844 129.197H162.867C162.906 128.896 162.969 128.625 163.055 128.383L164.648 124H165.662ZM167.191 122.477C167.02 122.477 166.873 122.418 166.752 122.301C166.631 122.184 166.57 122.035 166.57 121.855C166.57 121.676 166.631 121.527 166.752 121.41C166.873 121.289 167.02 121.229 167.191 121.229C167.367 121.229 167.516 121.289 167.637 121.41C167.762 121.527 167.824 121.676 167.824 121.855C167.824 122.027 167.762 122.174 167.637 122.295C167.516 122.416 167.367 122.477 167.191 122.477ZM167.66 130H166.699V124H167.66V130ZM174.428 127.24H170.191C170.207 127.908 170.387 128.424 170.73 128.787C171.074 129.15 171.547 129.332 172.148 129.332C172.824 129.332 173.445 129.109 174.012 128.664V129.566C173.484 129.949 172.787 130.141 171.92 130.141C171.072 130.141 170.406 129.869 169.922 129.326C169.438 128.779 169.195 128.012 169.195 127.023C169.195 126.09 169.459 125.33 169.986 124.744C170.518 124.154 171.176 123.859 171.961 123.859C172.746 123.859 173.354 124.113 173.783 124.621C174.213 125.129 174.428 125.834 174.428 126.736V127.24ZM173.443 126.426C173.439 125.871 173.305 125.439 173.039 125.131C172.777 124.822 172.412 124.668 171.943 124.668C171.49 124.668 171.105 124.83 170.789 125.154C170.473 125.479 170.277 125.902 170.203 126.426H173.443ZM183.445 124L181.646 130H180.65L179.414 125.705C179.367 125.541 179.336 125.355 179.32 125.148H179.297C179.285 125.289 179.244 125.471 179.174 125.693L177.832 130H176.871L175.055 124H176.062L177.305 128.512C177.344 128.648 177.371 128.828 177.387 129.051H177.434C177.445 128.879 177.48 128.695 177.539 128.5L178.922 124H179.801L181.043 128.523C181.082 128.668 181.111 128.848 181.131 129.062H181.178C181.186 128.91 181.219 128.73 181.277 128.523L182.496 124H183.445ZM10.6406 143.24H6.4043C6.41992 143.908 6.59961 144.424 6.94336 144.787C7.28711 145.15 7.75977 145.332 8.36133 145.332C9.03711 145.332 9.6582 145.109 10.2246 144.664V145.566C9.69727 145.949 9 146.141 8.13281 146.141C7.28516 146.141 6.61914 145.869 6.13477 145.326C5.65039 144.779 5.4082 144.012 5.4082 143.023C5.4082 142.09 5.67188 141.33 6.19922 140.744C6.73047 140.154 7.38867 139.859 8.17383 139.859C8.95898 139.859 9.56641 140.113 9.99609 140.621C10.4258 141.129 10.6406 141.834 10.6406 142.736V143.24ZM9.65625 142.426C9.65234 141.871 9.51758 141.439 9.25195 141.131C8.99023 140.822 8.625 140.668 8.15625 140.668C7.70312 140.668 7.31836 140.83 7.00195 141.154C6.68555 141.479 6.49023 141.902 6.41602 142.426H9.65625ZM16.4824 140L14.4668 143.035L16.4473 146H15.3281L14.1504 144.055C14.0762 143.934 13.9883 143.781 13.8867 143.598H13.8633C13.8438 143.633 13.752 143.785 13.5879 144.055L12.3867 146H11.2793L13.3242 143.059L11.3672 140H12.4863L13.6465 142.051C13.7324 142.203 13.8164 142.359 13.8984 142.52H13.9219L15.4219 140H16.4824ZM18.0996 138.477C17.9277 138.477 17.7812 138.418 17.6602 138.301C17.5391 138.184 17.4785 138.035 17.4785 137.855C17.4785 137.676 17.5391 137.527 17.6602 137.41C17.7812 137.289 17.9277 137.229 18.0996 137.229C18.2754 137.229 18.4238 137.289 18.5449 137.41C18.6699 137.527 18.7324 137.676 18.7324 137.855C18.7324 138.027 18.6699 138.174 18.5449 138.295C18.4238 138.416 18.2754 138.477 18.0996 138.477ZM18.5684 146H17.6074V140H18.5684V146ZM20.1504 145.783V144.752C20.6738 145.139 21.25 145.332 21.8789 145.332C22.7227 145.332 23.1445 145.051 23.1445 144.488C23.1445 144.328 23.1074 144.193 23.0332 144.084C22.9629 143.971 22.8652 143.871 22.7402 143.785C22.6191 143.699 22.4746 143.623 22.3066 143.557C22.1426 143.486 21.9648 143.414 21.7734 143.34C21.5078 143.234 21.2734 143.129 21.0703 143.023C20.8711 142.914 20.7031 142.793 20.5664 142.66C20.4336 142.523 20.332 142.369 20.2617 142.197C20.1953 142.025 20.1621 141.824 20.1621 141.594C20.1621 141.312 20.2266 141.064 20.3555 140.85C20.4844 140.631 20.6562 140.449 20.8711 140.305C21.0859 140.156 21.3301 140.045 21.6035 139.971C21.8809 139.896 22.166 139.859 22.459 139.859C22.9785 139.859 23.4434 139.949 23.8535 140.129V141.102C23.4121 140.812 22.9043 140.668 22.3301 140.668C22.1504 140.668 21.9883 140.689 21.8438 140.732C21.6992 140.771 21.5742 140.828 21.4688 140.902C21.3672 140.977 21.2871 141.066 21.2285 141.172C21.1738 141.273 21.1465 141.387 21.1465 141.512C21.1465 141.668 21.1738 141.799 21.2285 141.904C21.2871 142.01 21.3711 142.104 21.4805 142.186C21.5898 142.268 21.7227 142.342 21.8789 142.408C22.0352 142.475 22.2129 142.547 22.4121 142.625C22.6777 142.727 22.916 142.832 23.127 142.941C23.3379 143.047 23.5176 143.168 23.666 143.305C23.8145 143.438 23.9277 143.592 24.0059 143.768C24.0879 143.943 24.1289 144.152 24.1289 144.395C24.1289 144.691 24.0625 144.949 23.9297 145.168C23.8008 145.387 23.627 145.568 23.4082 145.713C23.1895 145.857 22.9375 145.965 22.6523 146.035C22.3672 146.105 22.0684 146.141 21.7559 146.141C21.1387 146.141 20.6035 146.021 20.1504 145.783ZM28.3945 145.941C28.168 146.066 27.8691 146.129 27.498 146.129C26.4473 146.129 25.9219 145.543 25.9219 144.371V140.82H24.8906V140H25.9219V138.535L26.8828 138.225V140H28.3945V140.82H26.8828V144.201C26.8828 144.604 26.9512 144.891 27.0879 145.062C27.2246 145.234 27.4512 145.32 27.7676 145.32C28.0098 145.32 28.2188 145.254 28.3945 145.121V145.941ZM30.1699 138.477C29.998 138.477 29.8516 138.418 29.7305 138.301C29.6094 138.184 29.5488 138.035 29.5488 137.855C29.5488 137.676 29.6094 137.527 29.7305 137.41C29.8516 137.289 29.998 137.229 30.1699 137.229C30.3457 137.229 30.4941 137.289 30.6152 137.41C30.7402 137.527 30.8027 137.676 30.8027 137.855C30.8027 138.027 30.7402 138.174 30.6152 138.295C30.4941 138.416 30.3457 138.477 30.1699 138.477ZM30.6387 146H29.6777V140H30.6387V146ZM37.5645 146H36.6035V142.578C36.6035 141.305 36.1387 140.668 35.209 140.668C34.7285 140.668 34.3301 140.85 34.0137 141.213C33.7012 141.572 33.5449 142.027 33.5449 142.578V146H32.584V140H33.5449V140.996H33.5684C34.0215 140.238 34.6777 139.859 35.5371 139.859C36.1934 139.859 36.6953 140.072 37.043 140.498C37.3906 140.92 37.5645 141.531 37.5645 142.332V146ZM44.502 145.52C44.502 147.723 43.4473 148.824 41.3379 148.824C40.5957 148.824 39.9473 148.684 39.3926 148.402V147.441C40.0684 147.816 40.7129 148.004 41.3262 148.004C42.8027 148.004 43.541 147.219 43.541 145.648V144.992H43.5176C43.0605 145.758 42.373 146.141 41.4551 146.141C40.709 146.141 40.1074 145.875 39.6504 145.344C39.1973 144.809 38.9707 144.092 38.9707 143.193C38.9707 142.174 39.2148 141.363 39.7031 140.762C40.1953 140.16 40.8672 139.859 41.7188 139.859C42.5273 139.859 43.127 140.184 43.5176 140.832H43.541V140H44.502V145.52ZM43.541 143.287V142.402C43.541 141.926 43.3789 141.518 43.0547 141.178C42.7344 140.838 42.334 140.668 41.8535 140.668C41.2598 140.668 40.7949 140.885 40.459 141.318C40.123 141.748 39.9551 142.352 39.9551 143.129C39.9551 143.797 40.1152 144.332 40.4355 144.734C40.7598 145.133 41.1875 145.332 41.7188 145.332C42.2578 145.332 42.6953 145.141 43.0312 144.758C43.3711 144.375 43.541 143.885 43.541 143.287ZM58.2598 146H57.2988V142.555C57.2988 141.891 57.1953 141.41 56.9883 141.113C56.7852 140.816 56.4414 140.668 55.957 140.668C55.5469 140.668 55.1973 140.855 54.9082 141.23C54.623 141.605 54.4805 142.055 54.4805 142.578V146H53.5195V142.438C53.5195 141.258 53.0645 140.668 52.1543 140.668C51.7324 140.668 51.3848 140.846 51.1113 141.201C50.8379 141.553 50.7012 142.012 50.7012 142.578V146H49.7402V140H50.7012V140.949H50.7246C51.1504 140.223 51.7715 139.859 52.5879 139.859C52.998 139.859 53.3555 139.975 53.6602 140.205C53.9648 140.432 54.1738 140.73 54.2871 141.102C54.7324 140.273 55.3965 139.859 56.2793 139.859C57.5996 139.859 58.2598 140.674 58.2598 142.303V146ZM60.5684 138.477C60.3965 138.477 60.25 138.418 60.1289 138.301C60.0078 138.184 59.9473 138.035 59.9473 137.855C59.9473 137.676 60.0078 137.527 60.1289 137.41C60.25 137.289 60.3965 137.229 60.5684 137.229C60.7441 137.229 60.8926 137.289 61.0137 137.41C61.1387 137.527 61.2012 137.676 61.2012 137.855C61.2012 138.027 61.1387 138.174 61.0137 138.295C60.8926 138.416 60.7441 138.477 60.5684 138.477ZM61.0371 146H60.0762V140H61.0371V146ZM68.1035 145.52C68.1035 147.723 67.0488 148.824 64.9395 148.824C64.1973 148.824 63.5488 148.684 62.9941 148.402V147.441C63.6699 147.816 64.3145 148.004 64.9277 148.004C66.4043 148.004 67.1426 147.219 67.1426 145.648V144.992H67.1191C66.6621 145.758 65.9746 146.141 65.0566 146.141C64.3105 146.141 63.709 145.875 63.252 145.344C62.7988 144.809 62.5723 144.092 62.5723 143.193C62.5723 142.174 62.8164 141.363 63.3047 140.762C63.7969 140.16 64.4688 139.859 65.3203 139.859C66.1289 139.859 66.7285 140.184 67.1191 140.832H67.1426V140H68.1035V145.52ZM67.1426 143.287V142.402C67.1426 141.926 66.9805 141.518 66.6562 141.178C66.3359 140.838 65.9355 140.668 65.4551 140.668C64.8613 140.668 64.3965 140.885 64.0605 141.318C63.7246 141.748 63.5566 142.352 63.5566 143.129C63.5566 143.797 63.7168 144.332 64.0371 144.734C64.3613 145.133 64.7891 145.332 65.3203 145.332C65.8594 145.332 66.2969 145.141 66.6328 144.758C66.9727 144.375 67.1426 143.885 67.1426 143.287ZM73.1777 140.973C73.0098 140.844 72.7676 140.779 72.4512 140.779C72.041 140.779 71.6973 140.973 71.4199 141.359C71.1465 141.746 71.0098 142.273 71.0098 142.941V146H70.0488V140H71.0098V141.236H71.0332C71.1699 140.814 71.3789 140.486 71.6602 140.252C71.9414 140.014 72.2559 139.895 72.6035 139.895C72.8535 139.895 73.0449 139.922 73.1777 139.977V140.973ZM78.5156 146H77.5547V145.062H77.5312C77.1133 145.781 76.498 146.141 75.6855 146.141C75.0879 146.141 74.6191 145.982 74.2793 145.666C73.9434 145.35 73.7754 144.93 73.7754 144.406C73.7754 143.285 74.4355 142.633 75.7559 142.449L77.5547 142.197C77.5547 141.178 77.1426 140.668 76.3184 140.668C75.5957 140.668 74.9434 140.914 74.3613 141.406V140.422C74.9512 140.047 75.6309 139.859 76.4004 139.859C77.8105 139.859 78.5156 140.605 78.5156 142.098V146ZM77.5547 142.965L76.1074 143.164C75.6621 143.227 75.3262 143.338 75.0996 143.498C74.873 143.654 74.7598 143.934 74.7598 144.336C74.7598 144.629 74.8633 144.869 75.0703 145.057C75.2812 145.24 75.5605 145.332 75.9082 145.332C76.3848 145.332 76.7773 145.166 77.0859 144.834C77.3984 144.498 77.5547 144.074 77.5547 143.562V142.965ZM83.1094 145.941C82.8828 146.066 82.584 146.129 82.2129 146.129C81.1621 146.129 80.6367 145.543 80.6367 144.371V140.82H79.6055V140H80.6367V138.535L81.5977 138.225V140H83.1094V140.82H81.5977V144.201C81.5977 144.604 81.666 144.891 81.8027 145.062C81.9395 145.234 82.166 145.32 82.4824 145.32C82.7246 145.32 82.9336 145.254 83.1094 145.121V145.941ZM84.8848 138.477C84.7129 138.477 84.5664 138.418 84.4453 138.301C84.3242 138.184 84.2637 138.035 84.2637 137.855C84.2637 137.676 84.3242 137.527 84.4453 137.41C84.5664 137.289 84.7129 137.229 84.8848 137.229C85.0605 137.229 85.209 137.289 85.3301 137.41C85.4551 137.527 85.5176 137.676 85.5176 137.855C85.5176 138.027 85.4551 138.174 85.3301 138.295C85.209 138.416 85.0605 138.477 84.8848 138.477ZM85.3535 146H84.3926V140H85.3535V146ZM89.8066 146.141C88.9199 146.141 88.2109 145.861 87.6797 145.303C87.1523 144.74 86.8887 143.996 86.8887 143.07C86.8887 142.062 87.1641 141.275 87.7148 140.709C88.2656 140.143 89.0098 139.859 89.9473 139.859C90.8418 139.859 91.5391 140.135 92.0391 140.686C92.543 141.236 92.7949 142 92.7949 142.977C92.7949 143.934 92.5234 144.701 91.9805 145.279C91.4414 145.854 90.7168 146.141 89.8066 146.141ZM89.877 140.668C89.2598 140.668 88.7715 140.879 88.4121 141.301C88.0527 141.719 87.873 142.297 87.873 143.035C87.873 143.746 88.0547 144.307 88.418 144.717C88.7812 145.127 89.2676 145.332 89.877 145.332C90.498 145.332 90.9746 145.131 91.3066 144.729C91.6426 144.326 91.8105 143.754 91.8105 143.012C91.8105 142.262 91.6426 141.684 91.3066 141.277C90.9746 140.871 90.498 140.668 89.877 140.668ZM99.3105 146H98.3496V142.578C98.3496 141.305 97.8848 140.668 96.9551 140.668C96.4746 140.668 96.0762 140.85 95.7598 141.213C95.4473 141.572 95.291 142.027 95.291 142.578V146H94.3301V140H95.291V140.996H95.3145C95.7676 140.238 96.4238 139.859 97.2832 139.859C97.9395 139.859 98.4414 140.072 98.7891 140.498C99.1367 140.92 99.3105 141.531 99.3105 142.332V146ZM100.764 145.783V144.752C101.287 145.139 101.863 145.332 102.492 145.332C103.336 145.332 103.758 145.051 103.758 144.488C103.758 144.328 103.721 144.193 103.646 144.084C103.576 143.971 103.479 143.871 103.354 143.785C103.232 143.699 103.088 143.623 102.92 143.557C102.756 143.486 102.578 143.414 102.387 143.34C102.121 143.234 101.887 143.129 101.684 143.023C101.484 142.914 101.316 142.793 101.18 142.66C101.047 142.523 100.945 142.369 100.875 142.197C100.809 142.025 100.775 141.824 100.775 141.594C100.775 141.312 100.84 141.064 100.969 140.85C101.098 140.631 101.27 140.449 101.484 140.305C101.699 140.156 101.943 140.045 102.217 139.971C102.494 139.896 102.779 139.859 103.072 139.859C103.592 139.859 104.057 139.949 104.467 140.129V141.102C104.025 140.812 103.518 140.668 102.943 140.668C102.764 140.668 102.602 140.689 102.457 140.732C102.312 140.771 102.188 140.828 102.082 140.902C101.98 140.977 101.9 141.066 101.842 141.172C101.787 141.273 101.76 141.387 101.76 141.512C101.76 141.668 101.787 141.799 101.842 141.904C101.9 142.01 101.984 142.104 102.094 142.186C102.203 142.268 102.336 142.342 102.492 142.408C102.648 142.475 102.826 142.547 103.025 142.625C103.291 142.727 103.529 142.832 103.74 142.941C103.951 143.047 104.131 143.168 104.279 143.305C104.428 143.438 104.541 143.592 104.619 143.768C104.701 143.943 104.742 144.152 104.742 144.395C104.742 144.691 104.676 144.949 104.543 145.168C104.414 145.387 104.24 145.568 104.021 145.713C103.803 145.857 103.551 145.965 103.266 146.035C102.98 146.105 102.682 146.141 102.369 146.141C101.752 146.141 101.217 146.021 100.764 145.783ZM113.812 146H112.852V145.062H112.828C112.41 145.781 111.795 146.141 110.982 146.141C110.385 146.141 109.916 145.982 109.576 145.666C109.24 145.35 109.072 144.93 109.072 144.406C109.072 143.285 109.732 142.633 111.053 142.449L112.852 142.197C112.852 141.178 112.439 140.668 111.615 140.668C110.893 140.668 110.24 140.914 109.658 141.406V140.422C110.248 140.047 110.928 139.859 111.697 139.859C113.107 139.859 113.812 140.605 113.812 142.098V146ZM112.852 142.965L111.404 143.164C110.959 143.227 110.623 143.338 110.396 143.498C110.17 143.654 110.057 143.934 110.057 144.336C110.057 144.629 110.16 144.869 110.367 145.057C110.578 145.24 110.857 145.332 111.205 145.332C111.682 145.332 112.074 145.166 112.383 144.834C112.695 144.498 112.852 144.074 112.852 143.562V142.965ZM120.604 146H119.643V142.578C119.643 141.305 119.178 140.668 118.248 140.668C117.768 140.668 117.369 140.85 117.053 141.213C116.74 141.572 116.584 142.027 116.584 142.578V146H115.623V140H116.584V140.996H116.607C117.061 140.238 117.717 139.859 118.576 139.859C119.232 139.859 119.734 140.072 120.082 140.498C120.43 140.92 120.604 141.531 120.604 142.332V146ZM127.541 146H126.58V144.98H126.557C126.111 145.754 125.424 146.141 124.494 146.141C123.74 146.141 123.137 145.873 122.684 145.338C122.234 144.799 122.01 144.066 122.01 143.141C122.01 142.148 122.26 141.354 122.76 140.756C123.26 140.158 123.926 139.859 124.758 139.859C125.582 139.859 126.182 140.184 126.557 140.832H126.58V137.117H127.541V146ZM126.58 143.287V142.402C126.58 141.918 126.42 141.508 126.1 141.172C125.779 140.836 125.373 140.668 124.881 140.668C124.295 140.668 123.834 140.883 123.498 141.312C123.162 141.742 122.994 142.336 122.994 143.094C122.994 143.785 123.154 144.332 123.475 144.734C123.799 145.133 124.232 145.332 124.775 145.332C125.311 145.332 125.744 145.139 126.076 144.752C126.412 144.365 126.58 143.877 126.58 143.287ZM135.562 145.941C135.336 146.066 135.037 146.129 134.666 146.129C133.615 146.129 133.09 145.543 133.09 144.371V140.82H132.059V140H133.09V138.535L134.051 138.225V140H135.562V140.82H134.051V144.201C134.051 144.604 134.119 144.891 134.256 145.062C134.393 145.234 134.619 145.32 134.936 145.32C135.178 145.32 135.387 145.254 135.562 145.121V145.941ZM141.826 146H140.865V142.543C140.865 141.293 140.4 140.668 139.471 140.668C139.002 140.668 138.607 140.85 138.287 141.213C137.967 141.572 137.807 142.035 137.807 142.602V146H136.846V137.117H137.807V140.996H137.83C138.291 140.238 138.947 139.859 139.799 139.859C141.15 139.859 141.826 140.674 141.826 142.303V146ZM148.465 143.24H144.229C144.244 143.908 144.424 144.424 144.768 144.787C145.111 145.15 145.584 145.332 146.186 145.332C146.861 145.332 147.482 145.109 148.049 144.664V145.566C147.521 145.949 146.824 146.141 145.957 146.141C145.109 146.141 144.443 145.869 143.959 145.326C143.475 144.779 143.232 144.012 143.232 143.023C143.232 142.09 143.496 141.33 144.023 140.744C144.555 140.154 145.213 139.859 145.998 139.859C146.783 139.859 147.391 140.113 147.82 140.621C148.25 141.129 148.465 141.834 148.465 142.736V143.24ZM147.48 142.426C147.477 141.871 147.342 141.439 147.076 141.131C146.814 140.822 146.449 140.668 145.98 140.668C145.527 140.668 145.143 140.83 144.826 141.154C144.51 141.479 144.314 141.902 144.24 142.426H147.48ZM150.416 138.477C150.244 138.477 150.098 138.418 149.977 138.301C149.855 138.184 149.795 138.035 149.795 137.855C149.795 137.676 149.855 137.527 149.977 137.41C150.098 137.289 150.244 137.229 150.416 137.229C150.592 137.229 150.74 137.289 150.861 137.41C150.986 137.527 151.049 137.676 151.049 137.855C151.049 138.027 150.986 138.174 150.861 138.295C150.74 138.416 150.592 138.477 150.416 138.477ZM150.885 146H149.924V140H150.885V146ZM155.959 140.973C155.791 140.844 155.549 140.779 155.232 140.779C154.822 140.779 154.479 140.973 154.201 141.359C153.928 141.746 153.791 142.273 153.791 142.941V146H152.83V140H153.791V141.236H153.814C153.951 140.814 154.16 140.486 154.441 140.252C154.723 140.014 155.037 139.895 155.385 139.895C155.635 139.895 155.826 139.922 155.959 139.977V140.973ZM159.932 145.783V144.752C160.455 145.139 161.031 145.332 161.66 145.332C162.504 145.332 162.926 145.051 162.926 144.488C162.926 144.328 162.889 144.193 162.814 144.084C162.744 143.971 162.646 143.871 162.521 143.785C162.4 143.699 162.256 143.623 162.088 143.557C161.924 143.486 161.746 143.414 161.555 143.34C161.289 143.234 161.055 143.129 160.852 143.023C160.652 142.914 160.484 142.793 160.348 142.66C160.215 142.523 160.113 142.369 160.043 142.197C159.977 142.025 159.943 141.824 159.943 141.594C159.943 141.312 160.008 141.064 160.137 140.85C160.266 140.631 160.438 140.449 160.652 140.305C160.867 140.156 161.111 140.045 161.385 139.971C161.662 139.896 161.947 139.859 162.24 139.859C162.76 139.859 163.225 139.949 163.635 140.129V141.102C163.193 140.812 162.686 140.668 162.111 140.668C161.932 140.668 161.77 140.689 161.625 140.732C161.48 140.771 161.355 140.828 161.25 140.902C161.148 140.977 161.068 141.066 161.01 141.172C160.955 141.273 160.928 141.387 160.928 141.512C160.928 141.668 160.955 141.799 161.01 141.904C161.068 142.01 161.152 142.104 161.262 142.186C161.371 142.268 161.504 142.342 161.66 142.408C161.816 142.475 161.994 142.547 162.193 142.625C162.459 142.727 162.697 142.832 162.908 142.941C163.119 143.047 163.299 143.168 163.447 143.305C163.596 143.438 163.709 143.592 163.787 143.768C163.869 143.943 163.91 144.152 163.91 144.395C163.91 144.691 163.844 144.949 163.711 145.168C163.582 145.387 163.408 145.568 163.189 145.713C162.971 145.857 162.719 145.965 162.434 146.035C162.148 146.105 161.85 146.141 161.537 146.141C160.92 146.141 160.385 146.021 159.932 145.783ZM168.176 145.941C167.949 146.066 167.65 146.129 167.279 146.129C166.229 146.129 165.703 145.543 165.703 144.371V140.82H164.672V140H165.703V138.535L166.664 138.225V140H168.176V140.82H166.664V144.201C166.664 144.604 166.732 144.891 166.869 145.062C167.006 145.234 167.232 145.32 167.549 145.32C167.791 145.32 168 145.254 168.176 145.121V145.941ZM173.754 146H172.793V145.062H172.77C172.352 145.781 171.736 146.141 170.924 146.141C170.326 146.141 169.857 145.982 169.518 145.666C169.182 145.35 169.014 144.93 169.014 144.406C169.014 143.285 169.674 142.633 170.994 142.449L172.793 142.197C172.793 141.178 172.381 140.668 171.557 140.668C170.834 140.668 170.182 140.914 169.6 141.406V140.422C170.189 140.047 170.869 139.859 171.639 139.859C173.049 139.859 173.754 140.605 173.754 142.098V146ZM172.793 142.965L171.346 143.164C170.9 143.227 170.564 143.338 170.338 143.498C170.111 143.654 169.998 143.934 169.998 144.336C169.998 144.629 170.102 144.869 170.309 145.057C170.52 145.24 170.799 145.332 171.146 145.332C171.623 145.332 172.016 145.166 172.324 144.834C172.637 144.498 172.793 144.074 172.793 143.562V142.965ZM178.348 145.941C178.121 146.066 177.822 146.129 177.451 146.129C176.4 146.129 175.875 145.543 175.875 144.371V140.82H174.844V140H175.875V138.535L176.836 138.225V140H178.348V140.82H176.836V144.201C176.836 144.604 176.904 144.891 177.041 145.062C177.178 145.234 177.404 145.32 177.721 145.32C177.963 145.32 178.172 145.254 178.348 145.121V145.941ZM184.482 146H183.521V145.051H183.498C183.1 145.777 182.482 146.141 181.646 146.141C180.217 146.141 179.502 145.289 179.502 143.586V140H180.457V143.434C180.457 144.699 180.941 145.332 181.91 145.332C182.379 145.332 182.764 145.16 183.064 144.816C183.369 144.469 183.521 144.016 183.521 143.457V140H184.482V146ZM186.064 145.783V144.752C186.588 145.139 187.164 145.332 187.793 145.332C188.637 145.332 189.059 145.051 189.059 144.488C189.059 144.328 189.021 144.193 188.947 144.084C188.877 143.971 188.779 143.871 188.654 143.785C188.533 143.699 188.389 143.623 188.221 143.557C188.057 143.486 187.879 143.414 187.688 143.34C187.422 143.234 187.188 143.129 186.984 143.023C186.785 142.914 186.617 142.793 186.48 142.66C186.348 142.523 186.246 142.369 186.176 142.197C186.109 142.025 186.076 141.824 186.076 141.594C186.076 141.312 186.141 141.064 186.27 140.85C186.398 140.631 186.57 140.449 186.785 140.305C187 140.156 187.244 140.045 187.518 139.971C187.795 139.896 188.08 139.859 188.373 139.859C188.893 139.859 189.357 139.949 189.768 140.129V141.102C189.326 140.812 188.818 140.668 188.244 140.668C188.064 140.668 187.902 140.689 187.758 140.732C187.613 140.771 187.488 140.828 187.383 140.902C187.281 140.977 187.201 141.066 187.143 141.172C187.088 141.273 187.061 141.387 187.061 141.512C187.061 141.668 187.088 141.799 187.143 141.904C187.201 142.01 187.285 142.104 187.395 142.186C187.504 142.268 187.637 142.342 187.793 142.408C187.949 142.475 188.127 142.547 188.326 142.625C188.592 142.727 188.83 142.832 189.041 142.941C189.252 143.047 189.432 143.168 189.58 143.305C189.729 143.438 189.842 143.592 189.92 143.768C190.002 143.943 190.043 144.152 190.043 144.395C190.043 144.691 189.977 144.949 189.844 145.168C189.715 145.387 189.541 145.568 189.322 145.713C189.104 145.857 188.852 145.965 188.566 146.035C188.281 146.105 187.982 146.141 187.67 146.141C187.053 146.141 186.518 146.021 186.064 145.783ZM191.859 146.129C191.68 146.129 191.525 146.064 191.396 145.936C191.271 145.807 191.209 145.652 191.209 145.473C191.209 145.293 191.271 145.139 191.396 145.01C191.525 144.877 191.68 144.811 191.859 144.811C192.043 144.811 192.199 144.877 192.328 145.01C192.457 145.139 192.521 145.293 192.521 145.473C192.521 145.652 192.457 145.807 192.328 145.936C192.199 146.064 192.043 146.129 191.859 146.129Z" fill="#605E5C"/>
<defs>
<linearGradient id="paint0_linear" x1="98.1541" y1="3.47375" x2="98.1541" y2="54.7192" gradientUnits="userSpaceOnUse">
<stop offset="0.177741" stop-color="#F4F4F4"/>
<stop offset="0.631431" stop-color="#DCDCDC"/>
</linearGradient>
</defs>
</svg>
