<svg width="16" height="16" viewBox="0 0 16 16" fill="none" xmlns="http://www.w3.org/2000/svg">
<path d="M8 16C12.4183 16 16 12.4183 16 8C16 3.58172 12.4183 0 8 0C3.58172 0 0 3.58172 0 8C0 12.4183 3.58172 16 8 16Z" fill="#8A2DA5"/>
<path d="M12.6321 3.36997C12.6321 3.36997 10.8941 3.28797 9.70109 4.48097C9.68909 4.49297 7.32409 6.85797 7.12009 7.06197C7.12009 7.06197 5.18009 6.57797 4.23109 7.52597L2.03809 9.72297L5.43909 8.76297L3.86309 10.925L5.07509 12.137L7.24409 10.572L6.27809 13.96L8.47509 11.767C9.43609 10.806 8.94409 8.87397 8.94409 8.87397C9.14609 8.67197 11.5071 6.30997 11.5191 6.29897C12.7121 5.10597 12.6321 3.36997 12.6321 3.36997Z" fill="white"/>
<path d="M10.5 6.25C10.9142 6.25 11.25 5.91421 11.25 5.5C11.25 5.08579 10.9142 4.75 10.5 4.75C10.0858 4.75 9.75 5.08579 9.75 5.5C9.75 5.91421 10.0858 6.25 10.5 6.25Z" fill="#8A2DA5"/>
</svg>
