<svg width="16" height="16" viewBox="0 0 16 16" fill="none" xmlns="http://www.w3.org/2000/svg">
  <path d="M9,4.05h3.3l-1.1-1.1a4.811,4.811,0,0,0-1.1-.9A4.079,4.079,0,0,0,9,1.35a4,4,0,0,0-1.5-.3,3.909,3.909,0,0,0-1.8.4,3.3,3.3,0,0,0-1.4,1,3.4,3.4,0,0,0-.9,1.4A3.293,3.293,0,0,0,3,5.55a5.105,5.105,0,0,0,.3,1.7,7.082,7.082,0,0,0,1,1.4l6.5,6.5-.7.8L3.6,9.35a6.617,6.617,0,0,1-1.2-1.7A5.2,5.2,0,0,1,2,5.55a5.863,5.863,0,0,1,.2-1.4,3.1,3.1,0,0,1,.6-1.3,4.986,4.986,0,0,1,.8-1.2L4.7.85A7.5,7.5,0,0,1,6,.25L7.5.05l1.2.2a1.907,1.907,0,0,1,1,.3l.9.5.8.7.7.7.9.9V.05h1v5H9Z" fill="#0078D4"/>
</svg>
