<svg width="16" height="16" viewBox="0 0 14 14" fill="none" xmlns="http://www.w3.org/2000/svg">
<path d="M13 1.00029H14V5.00027H10V4.00027H12.1953C11.9297 3.54194 11.612 3.12788 11.2422 2.75809C10.8724 2.3883 10.4609 2.0732 10.0078 1.81278C9.55469 1.55237 9.07552 1.35185 8.57031 1.21122C8.0651 1.0706 7.54167 1.00029 7 1.00029C6.28125 1.00029 5.59635 1.12008 4.94531 1.35966C4.29427 1.59924 3.70833 1.93518 3.1875 2.36747C2.66667 2.79976 2.22396 3.31278 1.85938 3.90652C1.49479 4.50027 1.24479 5.14871 1.10938 5.85183L0.125 5.65652C0.229167 5.10964 0.393229 4.59142 0.617188 4.10183C0.841146 3.61225 1.11719 3.15913 1.44531 2.74247C1.77344 2.3258 2.14062 1.94559 2.54688 1.60184C2.95312 1.2581 3.39583 0.971639 3.875 0.742474C4.35417 0.513308 4.85417 0.331017 5.375 0.195601C5.89583 0.0601849 6.4375 -0.00491896 7 0.000289351C7.61458 0.000289351 8.21354 0.078414 8.79688 0.234663C9.38021 0.390913 9.92969 0.617474 10.4453 0.914348C10.9609 1.21122 11.4375 1.56799 11.875 1.98466C12.3125 2.40132 12.6875 2.87007 13 3.3909V1.00029ZM7 13.0002C7.71875 13.0002 8.40365 12.8804 9.05469 12.6409C9.70573 12.4013 10.2917 12.0653 10.8125 11.6331C11.3333 11.2008 11.776 10.6903 12.1406 10.1018C12.5052 9.51327 12.7552 8.86483 12.8906 8.1565L13.8672 8.344C13.7109 9.16692 13.4219 9.92212 13 10.6096C12.5781 11.2971 12.0625 11.8935 11.4531 12.3987C10.8438 12.9039 10.1589 13.2971 9.39844 13.5784C8.63802 13.8596 7.83854 14.0002 7 14.0002C6.38021 14.0002 5.77865 13.9221 5.19531 13.7659C4.61198 13.6096 4.0599 13.383 3.53906 13.0862C3.01823 12.7893 2.54427 12.4351 2.11719 12.0237C1.6901 11.6122 1.31771 11.1409 1 10.6096V13.0002H0V9.00025H4V10.0002H1.80469C2.07031 10.4638 2.38802 10.8805 2.75781 11.2502C3.1276 11.62 3.53906 11.9325 3.99219 12.1877C4.44531 12.4429 4.92188 12.6435 5.42188 12.7893C5.92188 12.9351 6.44792 13.0054 7 13.0002Z" fill="#0078D4"/>
</svg>
