<svg xmlns="http://www.w3.org/2000/svg" viewBox="0 0 2048 2048">
  <path d="M384 1536h768v128H256q-27 0-50 10t-41 27-27 40-10 51q0 27 10 50t27 41 40 27 51 10h896v128H256q-53 0-99-20t-82-55-55-81-20-100q0-53 20-99t55-82 81-55 100-20V256q0-53 20-99t55-82 81-55T512 0h1280q53 0 99 20t82 55 55 81 20 100q0 53-20 99t-55 82-81 55-100 20h-128v704l-128-64V256q0-70 34-128H512q-27 0-50 10t-40 27-28 41-10 50v1280zM1920 256q0-27-10-50t-27-40-41-28-50-10q-27 0-50 10t-40 27-28 41-10 50v128h128q27 0 50-10t40-27 28-41 10-50zm-640 896l768 443-768 444v-887zm128 665l384-222-384-221v443z" />
</svg>