<svg width="16" height="16" viewBox="0 0 16 16" fill="none" xmlns="http://www.w3.org/2000/svg">
<path d="M14.0004 1H14.4004L14.7004 1.2L14.9004 1.5C14.9528 1.57088 14.9889 1.65243 15.0062 1.73885C15.0235 1.82527 15.0215 1.91443 15.0004 2V15H2.80042L1.00042 13.2V2C0.98546 1.85904 1.02089 1.71733 1.10042 1.6L1.30042 1.3L1.60042 1.1H14.0004V1ZM14.0004 2H13.0004V8H3.00042V2H2.00042V12.8L3.20042 14H4.00042V10H11.0004V14H14.0004V2ZM4.00042 7H12.0004V2H4.00042V7ZM10.0004 11H5.00042V14H6.00042V12H7.00042V14H10.0004V11Z" fill="#0078D4"/>
</svg>
