<svg width="16" height="16" viewBox="0 0 16 16" fill="none" xmlns="http://www.w3.org/2000/svg">
<path d="M7.48438 10.375C8.01042 10.5833 8.48958 10.8594 8.92188 11.2031C9.35417 11.5469 9.72396 11.9453 10.0312 12.3984C10.3385 12.8516 10.5755 13.3385 10.7422 13.8594C10.9089 14.3802 10.9948 14.9271 11 15.5V16H10V15.5C10 14.8802 9.88281 14.2969 9.64844 13.75C9.41406 13.2031 9.09115 12.7266 8.67969 12.3203C8.26823 11.9141 7.79167 11.5938 7.25 11.3594C6.70833 11.125 6.125 11.0052 5.5 11C4.88021 11 4.29688 11.1172 3.75 11.3516C3.20312 11.5859 2.72656 11.9089 2.32031 12.3203C1.91406 12.7318 1.59375 13.2083 1.35938 13.75C1.125 14.2917 1.00521 14.875 1 15.5V16H0V15.5C0 14.9323 0.0833333 14.3854 0.25 13.8594C0.416667 13.3333 0.65625 12.8464 0.96875 12.3984C1.28125 11.9505 1.65104 11.5547 2.07812 11.2109C2.50521 10.8672 2.98438 10.5885 3.51562 10.375C3.28125 10.2135 3.07031 10.026 2.88281 9.8125C2.69531 9.59896 2.53646 9.36979 2.40625 9.125C2.27604 8.88021 2.17708 8.61979 2.10938 8.34375C2.04167 8.06771 2.00521 7.78646 2 7.5C2 7.01562 2.09115 6.5625 2.27344 6.14062C2.45573 5.71875 2.70573 5.34896 3.02344 5.03125C3.34115 4.71354 3.71094 4.46354 4.13281 4.28125C4.55469 4.09896 5.01042 4.00521 5.5 4C5.98438 4 6.4375 4.09115 6.85938 4.27344C7.28125 4.45573 7.65104 4.70573 7.96875 5.02344C8.28646 5.34115 8.53646 5.71094 8.71875 6.13281C8.90104 6.55469 8.99479 7.01042 9 7.5C9 7.78646 8.96615 8.0651 8.89844 8.33594C8.83073 8.60677 8.72917 8.86719 8.59375 9.11719C8.45833 9.36719 8.29948 9.59896 8.11719 9.8125C7.9349 10.026 7.72396 10.2135 7.48438 10.375ZM5.5 10C5.84375 10 6.16667 9.9349 6.46875 9.80469C6.77083 9.67448 7.03385 9.4974 7.25781 9.27344C7.48177 9.04948 7.66146 8.78385 7.79688 8.47656C7.93229 8.16927 8 7.84375 8 7.5C8 7.15625 7.9349 6.83333 7.80469 6.53125C7.67448 6.22917 7.49479 5.96615 7.26562 5.74219C7.03646 5.51823 6.77083 5.33854 6.46875 5.20312C6.16667 5.06771 5.84375 5 5.5 5C5.15625 5 4.83333 5.0651 4.53125 5.19531C4.22917 5.32552 3.96354 5.50521 3.73438 5.73438C3.50521 5.96354 3.32552 6.22917 3.19531 6.53125C3.0651 6.83333 3 7.15625 3 7.5C3 7.84375 3.0651 8.16667 3.19531 8.46875C3.32552 8.77083 3.5026 9.03646 3.72656 9.26562C3.95052 9.49479 4.21615 9.67448 4.52344 9.80469C4.83073 9.9349 5.15625 10 5.5 10ZM16 0V8H14L11 11V8H10V7H12V8.58594L13.5859 7H15V1H5V2.79688C4.83333 2.81771 4.66667 2.84375 4.5 2.875C4.33333 2.90625 4.16667 2.95312 4 3.01562V0H16Z" fill="#0078D4"/>
</svg>
