<svg width="24" height="24" viewBox="0 0 24 24" fill="none" xmlns="http://www.w3.org/2000/svg">
<path d="M11.9998 6.8531C7.27979 6.8531 3.45312 5.51977 3.45312 3.75977V20.2398C3.45312 21.9331 7.21312 23.3064 11.8798 23.3331H11.9998C16.7198 23.3331 20.5465 21.9998 20.5465 20.2398V3.75977C20.5465 5.47977 16.7198 6.8531 11.9998 6.8531Z" fill="url(#paint0_linear_2925_37792)"/>
<path d="M20.5465 3.76033C20.5465 5.48033 16.7198 6.85366 11.9998 6.85366C7.27979 6.85366 3.45312 5.52033 3.45312 3.76033C3.45312 2.00033 7.27979 0.666992 11.9998 0.666992C16.7198 0.666992 20.5465 2.00033 20.5465 3.76033Z" fill="#E8E8E8"/>
<path d="M18.5595 3.50688C18.5595 4.60021 15.6128 5.48021 11.9995 5.48021C8.38612 5.48021 5.43945 4.60021 5.43945 3.50688C5.43945 2.41354 8.38612 1.54688 11.9995 1.54688C15.6128 1.54688 18.5595 2.42688 18.5595 3.50688Z" fill="#50E6FF"/>
<path d="M12.0001 3.99985C10.2405 3.95467 8.48617 4.21173 6.81348 4.75985C8.48786 5.29735 10.2427 5.54095 12.0001 5.47985C13.7612 5.53147 15.5174 5.26962 17.1868 4.70652C15.5093 4.18395 13.7563 3.94511 12.0001 3.99985Z" fill="#198AB3"/>
<path d="M19 24C21.7614 24 24 21.7614 24 19C24 16.2386 21.7614 14 19 14C16.2386 14 14 16.2386 14 19C14 21.7614 16.2386 24 19 24Z" fill="#57A300"/>
<path d="M16.221 19.1822C16.1747 19.1329 16.151 19.0679 16.1535 19.0004C16.156 18.9322 16.1847 18.8697 16.2347 18.8229L16.7566 18.3404C16.8041 18.2972 16.8647 18.2735 16.9279 18.2735C16.9979 18.2735 17.0654 18.3029 17.1129 18.3541L18.4479 19.7866L20.8272 16.7397C20.8754 16.6779 20.9479 16.6416 21.0266 16.6416C21.0829 16.6416 21.136 16.6597 21.181 16.6941L21.7472 17.131C21.8554 17.211 21.8785 17.3666 21.7972 17.4772L18.7547 21.3729C18.6366 21.5241 18.411 21.5341 18.2797 21.3935L16.221 19.1822Z" fill="white"/>
<defs>
<linearGradient id="paint0_linear_2925_37792" x1="3.45312" y1="13.5464" x2="20.5465" y2="13.5464" gradientUnits="userSpaceOnUse">
<stop stop-color="#005BA1"/>
<stop offset="0.07" stop-color="#0060A9"/>
<stop offset="0.36" stop-color="#0071C8"/>
<stop offset="0.52" stop-color="#0078D4"/>
<stop offset="0.64" stop-color="#0074CD"/>
<stop offset="0.82" stop-color="#006ABB"/>
<stop offset="1" stop-color="#005BA1"/>
</linearGradient>
</defs>
</svg>
