<svg width="18" height="18" viewBox="0 0 18 18" fill="none" xmlns="http://www.w3.org/2000/svg">
<path d="M8.99984 5.13995C5.45984 5.13995 2.58984 4.13995 2.58984 2.81995V15.1799C2.58984 16.4499 5.40984 17.4799 8.90984 17.4999H8.99984C12.5398 17.4999 15.4098 16.4999 15.4098 15.1799V2.81995C15.4098 4.10995 12.5398 5.13995 8.99984 5.13995Z" fill="url(#paint0_linear)"/>
<path d="M15.4098 2.82C15.4098 4.11 12.5398 5.14 8.99984 5.14C5.45984 5.14 2.58984 4.14 2.58984 2.82C2.58984 1.5 5.45984 0.5 8.99984 0.5C12.5398 0.5 15.4098 1.5 15.4098 2.82Z" fill="#E8E8E8"/>
<path d="M13.9201 2.63003C13.9201 3.45003 11.7101 4.11003 9.00008 4.11003C6.29008 4.11003 4.08008 3.45003 4.08008 2.63003C4.08008 1.81003 6.29008 1.16003 9.00008 1.16003C11.7101 1.16003 13.9201 1.82003 13.9201 2.63003Z" fill="#50E6FF"/>
<path d="M8.99937 3.00001C7.67966 2.9663 6.36394 3.15909 5.10938 3.57001C6.36513 3.97329 7.68125 4.15599 8.99937 4.11001C10.3202 4.1487 11.6373 3.95231 12.8894 3.53001C11.6312 3.1381 10.3165 2.95897 8.99937 3.00001Z" fill="#198AB3"/>
<path d="M12.9 11.4V7.99995H12V12.13H14.46V11.4H12.9ZM5.76001 9.72995C5.57419 9.65522 5.4019 9.5505 5.25001 9.41995C5.20968 9.37731 5.17828 9.32704 5.15767 9.27208C5.13706 9.21712 5.12766 9.1586 5.13001 9.09995C5.12695 9.04125 5.13915 8.98275 5.16544 8.93017C5.19173 8.87759 5.23121 8.83272 5.28001 8.79995C5.403 8.71485 5.55062 8.67268 5.70001 8.67995C6.05617 8.66395 6.40767 8.76588 6.70001 8.96995V8.10995C6.38052 7.99108 6.04064 7.9367 5.70001 7.94995C5.30768 7.92906 4.92089 8.04972 4.61001 8.28995C4.47451 8.39443 4.36577 8.5296 4.29275 8.68433C4.21973 8.83907 4.18451 9.00894 4.19001 9.17995C4.19001 9.68995 4.51001 10.09 5.19001 10.39C5.41087 10.4837 5.61915 10.6046 5.81001 10.75C5.85676 10.7892 5.8944 10.8381 5.92031 10.8934C5.94621 10.9487 5.95976 11.0089 5.96001 11.07C5.96004 11.1306 5.94552 11.1905 5.91769 11.2444C5.88985 11.2983 5.8495 11.3448 5.80001 11.38C5.66392 11.4596 5.50752 11.4979 5.35001 11.49C4.94779 11.4866 4.56046 11.3374 4.26001 11.07V12C4.59025 12.1702 4.95868 12.2529 5.33001 12.24C5.74916 12.2648 6.16457 12.1486 6.51001 11.91C6.63202 11.7944 6.72538 11.652 6.78267 11.494C6.83996 11.336 6.85959 11.1669 6.84001 11C6.84482 10.7439 6.75591 10.495 6.59001 10.3C6.35637 10.0539 6.07358 9.85966 5.76001 9.72995ZM11 11.32C11.227 10.9396 11.3415 10.5027 11.33 10.06C11.3074 9.68512 11.1942 9.32137 11 8.99995C10.8439 8.68767 10.6008 8.42721 10.3 8.24995C9.99521 8.07719 9.65036 7.98753 9.30001 7.98995C8.92233 7.98165 8.54935 8.0749 8.22001 8.25995C7.9113 8.43223 7.65807 8.68892 7.49001 8.99995C7.31298 9.35353 7.2238 9.74458 7.23001 10.14C7.2321 10.4873 7.31423 10.8295 7.47001 11.14C7.62262 11.4488 7.86254 11.7061 8.16001 11.88C8.46205 12.0642 8.80645 12.1675 9.16001 12.18L10.02 13.18H11.23L10 12.08C10.4142 11.9557 10.7694 11.6858 11 11.32ZM10 11.07C9.90896 11.183 9.79296 11.2735 9.6611 11.3342C9.52924 11.3949 9.38511 11.4243 9.24001 11.42C9.09384 11.4247 8.94864 11.3945 8.81647 11.3319C8.6843 11.2693 8.56896 11.176 8.48001 11.06C8.26863 10.7712 8.16594 10.417 8.19001 10.06C8.1668 9.70297 8.26941 9.34913 8.48001 9.05995C8.57413 8.94393 8.69305 8.85047 8.82803 8.78645C8.96301 8.72242 9.11062 8.68944 9.26001 8.68995C9.40604 8.68366 9.5513 8.71426 9.68238 8.77892C9.81347 8.84359 9.92614 8.94024 10.01 9.05995C10.207 9.35476 10.3019 9.70605 10.28 10.06C10.3149 10.4197 10.2151 10.7795 10 11.07Z" fill="url(#paint1_radial)"/>
<path d="M17.8698 16.7L13.7892 8.48188C13.4567 7.83938 12.5423 7.83938 12.2117 8.48188L8.13045 16.5725C7.79795 17.215 8.13045 17.9862 8.79483 17.9862H17.2055C17.8698 18.1137 18.2017 17.3438 17.8698 16.7Z" fill="#DB7500"/>
<path d="M12.9994 17.0306C13.4995 17.0306 13.905 16.6251 13.905 16.125C13.905 15.6248 13.4995 15.2194 12.9994 15.2194C12.4992 15.2194 12.0938 15.6248 12.0938 16.125C12.0938 16.6251 12.4992 17.0306 12.9994 17.0306Z" fill="white"/>
<path d="M12.125 10.5L12.4375 14.25H13.5625L13.875 10.5H12.125Z" fill="white"/>
<defs>
<linearGradient id="paint0_linear" x1="2.58984" y1="10.1599" x2="15.4098" y2="10.1599" gradientUnits="userSpaceOnUse">
<stop stop-color="#005BA1"/>
<stop offset="0.07" stop-color="#0060A9"/>
<stop offset="0.36" stop-color="#0071C8"/>
<stop offset="0.52" stop-color="#0078D4"/>
<stop offset="0.64" stop-color="#0074CD"/>
<stop offset="0.82" stop-color="#006ABB"/>
<stop offset="1" stop-color="#005BA1"/>
</linearGradient>
<radialGradient id="paint1_radial" cx="0" cy="0" r="1" gradientUnits="userSpaceOnUse" gradientTransform="translate(9.36001 10.57) scale(7.07)">
<stop stop-color="#F2F2F2"/>
<stop offset="0.58" stop-color="#EEEEEE"/>
<stop offset="1" stop-color="#E6E6E6"/>
</radialGradient>
</defs>
</svg>
