<svg width="24" height="24" viewBox="0 0 24 24" fill="none" xmlns="http://www.w3.org/2000/svg">
<path d="M11.9998 6.8531C7.27979 6.8531 3.45312 5.51977 3.45312 3.75977V20.2398C3.45312 21.9331 7.21312 23.3064 11.8798 23.3331H11.9998C16.7198 23.3331 20.5465 21.9998 20.5465 20.2398V3.75977C20.5465 5.47977 16.7198 6.8531 11.9998 6.8531Z" fill="url(#paint0_linear_2785_40307)"/>
<path d="M20.5465 3.76033C20.5465 5.48033 16.7198 6.85366 11.9998 6.85366C7.27979 6.85366 3.45312 5.52033 3.45312 3.76033C3.45312 2.00033 7.27979 0.666992 11.9998 0.666992C16.7198 0.666992 20.5465 2.00033 20.5465 3.76033Z" fill="#E8E8E8"/>
<path d="M18.5595 3.50688C18.5595 4.60021 15.6128 5.48021 11.9995 5.48021C8.38612 5.48021 5.43945 4.60021 5.43945 3.50688C5.43945 2.41354 8.38612 1.54688 11.9995 1.54688C15.6128 1.54688 18.5595 2.42688 18.5595 3.50688Z" fill="#50E6FF"/>
<path d="M12.0001 3.99985C10.2405 3.95467 8.48617 4.21173 6.81348 4.75985C8.48786 5.29735 10.2427 5.54095 12.0001 5.47985C13.7612 5.53147 15.5174 5.26962 17.1868 4.70652C15.5093 4.18395 13.7563 3.94511 12.0001 3.99985Z" fill="#198AB3"/>
<g clip-path="url(#clip0_2785_40307)">
<path d="M19 24C19.9889 24 20.9556 23.7068 21.7779 23.1574C22.6001 22.6079 23.241 21.827 23.6194 20.9134C23.9978 19.9998 24.0969 18.9945 23.9039 18.0246C23.711 17.0546 23.2348 16.1637 22.5355 15.4645C21.8363 14.7652 20.9454 14.289 19.9755 14.0961C19.0055 13.9031 18.0002 14.0022 17.0866 14.3806C16.173 14.759 15.3921 15.3999 14.8427 16.2222C14.2932 17.0444 14 18.0111 14 19C14 20.3261 14.5268 21.5979 15.4645 22.5355C16.4021 23.4732 17.6739 24 19 24Z" fill="#E00B1C"/>
<path d="M21.8714 16.8927L20.9827 16.0039L18.9377 18.0489L16.8927 16.0039L16.0039 16.8927L18.0489 18.9377L16.0039 20.9827L16.8927 21.8714L18.9377 19.8264L20.9827 21.8714L21.8714 20.9827L19.8264 18.9377L21.8714 16.8927Z" fill="white"/>
</g>
<defs>
<linearGradient id="paint0_linear_2785_40307" x1="3.45312" y1="13.5464" x2="20.5465" y2="13.5464" gradientUnits="userSpaceOnUse">
<stop stop-color="#005BA1"/>
<stop offset="0.07" stop-color="#0060A9"/>
<stop offset="0.36" stop-color="#0071C8"/>
<stop offset="0.52" stop-color="#0078D4"/>
<stop offset="0.64" stop-color="#0074CD"/>
<stop offset="0.82" stop-color="#006ABB"/>
<stop offset="1" stop-color="#005BA1"/>
</linearGradient>
<clipPath id="clip0_2785_40307">
<rect width="10" height="10" fill="white" transform="translate(14 14)"/>
</clipPath>
</defs>
</svg>
