<svg width="16" height="16" viewBox="0 0 16 16" fill="none" xmlns="http://www.w3.org/2000/svg">
<path d="M9.1733 14.8978C9.17102 15.0314 9.11691 15.159 9.02238 15.2535C8.92785 15.348 8.8003 15.4021 8.66664 15.4044H0.951083C0.816707 15.4044 0.687834 15.3511 0.592816 15.256C0.497798 15.161 0.444417 15.0321 0.444417 14.8978V1.04888C0.443212 0.982009 0.455494 0.915584 0.480529 0.853567C0.505565 0.791551 0.542841 0.735216 0.590132 0.687925C0.637422 0.640635 0.693758 0.603359 0.755774 0.578323C0.81779 0.553287 0.884215 0.541005 0.951083 0.54221H8.66664C8.80101 0.54221 8.92989 0.595591 9.02491 0.69061C9.11992 0.785628 9.1733 0.914501 9.1733 1.04888V14.8978Z" fill="url(#paint0_linear)"/>
<path d="M1.72461 5.75114C1.72693 5.50197 1.82694 5.26366 2.00314 5.08746C2.17934 4.91126 2.41766 4.81124 2.66683 4.80892H7.02239C7.14877 4.80537 7.27459 4.82706 7.3925 4.87271C7.5104 4.91836 7.61802 4.98705 7.70906 5.07479C7.8001 5.16252 7.87274 5.26752 7.92272 5.38365C7.97271 5.49978 7.99903 5.62472 8.00016 5.75114C8.00021 5.87832 7.97476 6.00422 7.9253 6.12139C7.87584 6.23855 7.80339 6.34461 7.71223 6.43329C7.62107 6.52197 7.51305 6.59146 7.39456 6.63766C7.27607 6.68386 7.14951 6.70582 7.02239 6.70226H2.66683C2.41612 6.69991 2.17648 6.59867 2.00003 6.42056C1.82358 6.24244 1.7246 6.00186 1.72461 5.75114Z" fill="#003067"/>
<path d="M1.72461 2.9423C1.7246 2.69158 1.82358 2.451 2.00003 2.27289C2.17648 2.09477 2.41612 1.99353 2.66683 1.99119H7.02239C7.14951 1.98762 7.27607 2.00959 7.39456 2.05579C7.51305 2.10199 7.62107 2.17148 7.71223 2.26016C7.80339 2.34883 7.87584 2.45489 7.9253 2.57206C7.97476 2.68923 8.00021 2.81512 8.00016 2.9423C7.99903 3.06873 7.97271 3.19366 7.92272 3.30979C7.87274 3.42593 7.8001 3.53093 7.70906 3.61866C7.61802 3.70639 7.5104 3.77509 7.3925 3.82074C7.27459 3.86639 7.14877 3.88807 7.02239 3.88452H2.66683C2.41766 3.8822 2.17934 3.78219 2.00314 3.60599C1.82694 3.42979 1.72693 3.19147 1.72461 2.9423Z" fill="#003067"/>
<path d="M2.72008 3.58215C3.07354 3.58215 3.36008 3.29562 3.36008 2.94215C3.36008 2.58869 3.07354 2.30215 2.72008 2.30215C2.36662 2.30215 2.08008 2.58869 2.08008 2.94215C2.08008 3.29562 2.36662 3.58215 2.72008 3.58215Z" fill="#50E6FF"/>
<path d="M2.72008 6.39111C3.07354 6.39111 3.36008 6.10458 3.36008 5.75111C3.36008 5.39765 3.07354 5.11111 2.72008 5.11111C2.36662 5.11111 2.08008 5.39765 2.08008 5.75111C2.08008 6.10458 2.36662 6.39111 2.72008 6.39111Z" fill="#50E6FF"/>
<path d="M15.5557 12.5156C15.5326 11.8097 15.26 11.1348 14.7865 10.6108C14.3129 10.0868 13.669 9.74759 12.969 9.65337C12.9183 8.67249 12.4849 7.75062 11.7619 7.0858C11.0389 6.42098 10.084 6.06625 9.10235 6.09782C8.30877 6.07883 7.5288 6.30625 6.86979 6.74877C6.21077 7.1913 5.7051 7.82719 5.42235 8.56893C4.57763 8.67064 3.79738 9.07188 3.22327 9.69981C2.64917 10.3277 2.31926 11.1407 2.29346 11.9912C2.3305 12.9453 2.7442 13.846 3.44396 14.4957C4.14371 15.1455 5.07247 15.4915 6.02679 15.4578H6.35568H12.4446H12.5957C13.3734 15.4443 14.1158 15.1305 14.6675 14.5821C15.2192 14.0337 15.5374 13.2933 15.5557 12.5156Z" fill="url(#paint1_linear)"/>
<path d="M12.0976 12.8444V9.85777H11.271V13.52H13.4487V12.8444H12.0976ZM5.78652 11.3778C5.62374 11.3066 5.47127 11.214 5.33319 11.1022C5.29733 11.0643 5.26943 11.0196 5.25111 10.9708C5.23279 10.9219 5.22443 10.8699 5.22652 10.8178C5.22379 10.7656 5.23465 10.7136 5.25801 10.6669C5.28138 10.6201 5.31647 10.5802 5.35985 10.5511C5.46858 10.4742 5.60024 10.4366 5.73319 10.4444C6.04946 10.4328 6.36109 10.5232 6.62207 10.7022V9.93777C6.33592 9.84143 6.03502 9.7963 5.73319 9.80444C5.38601 9.78717 5.0436 9.89084 4.7643 10.0978C4.64654 10.1925 4.55235 10.3132 4.48912 10.4505C4.42588 10.5878 4.39533 10.7378 4.39985 10.8889C4.41424 11.1305 4.50191 11.362 4.65118 11.5526C4.80045 11.7432 5.00425 11.8837 5.23541 11.9555C5.43037 12.036 5.61292 12.1438 5.77763 12.2755C5.81919 12.3104 5.85264 12.3539 5.87567 12.4031C5.8987 12.4522 5.91074 12.5057 5.91096 12.56C5.91369 12.6122 5.90284 12.6642 5.87947 12.7109C5.8561 12.7576 5.82101 12.7975 5.77763 12.8267C5.65899 12.9038 5.5189 12.9411 5.37763 12.9333C5.0227 12.9307 4.6811 12.7978 4.41763 12.56V13.3778C4.70229 13.5175 5.01611 13.5876 5.33319 13.5822C5.69168 13.6096 6.04962 13.5224 6.35541 13.3333C6.48058 13.2402 6.58091 13.1177 6.64756 12.9766C6.71422 12.8356 6.74515 12.6803 6.73763 12.5244C6.74625 12.2962 6.66668 12.0734 6.51541 11.9022C6.31315 11.6768 6.06449 11.4979 5.78652 11.3778ZM10.3732 12.7822C10.5736 12.4436 10.6753 12.0556 10.6665 11.6622C10.6785 11.3168 10.602 10.9741 10.4443 10.6667C10.3082 10.3924 10.0951 10.1638 9.83097 10.0089C9.54548 9.84326 9.21846 9.76305 8.88874 9.77777C8.57614 9.79168 8.27139 9.88005 7.99985 10.0355C7.72201 10.1963 7.49664 10.434 7.35096 10.72C7.19247 11.0342 7.11025 11.3814 7.11096 11.7333C7.10582 12.0571 7.17901 12.3773 7.3243 12.6667C7.46198 12.937 7.67101 13.1644 7.92874 13.3244C8.19708 13.4873 8.50377 13.5763 8.81763 13.5822L9.57319 14.4711H10.6399L9.58208 13.4933C9.9184 13.3522 10.1972 13.1016 10.3732 12.7822ZM9.54652 12.56C9.46653 12.6616 9.36359 12.7427 9.24616 12.7968C9.12873 12.8509 9.00014 12.8763 8.87096 12.8711C8.74241 12.8746 8.61486 12.8474 8.49892 12.7917C8.38298 12.7361 8.28198 12.6536 8.2043 12.5511C8.01815 12.2939 7.92989 11.9787 7.95541 11.6622C7.92917 11.3443 8.02094 11.0279 8.21319 10.7733C8.29217 10.6672 8.39571 10.5819 8.51492 10.5246C8.63413 10.4673 8.76545 10.4398 8.89763 10.4444C9.02608 10.4395 9.1537 10.4671 9.26867 10.5246C9.38364 10.5821 9.48226 10.6676 9.55541 10.7733C9.73878 11.0319 9.82675 11.346 9.8043 11.6622C9.83192 11.983 9.74013 12.3027 9.54652 12.56Z" fill="#F2F2F2"/>
<defs>
<linearGradient id="paint0_linear" x1="4.80886" y1="15.4044" x2="4.80886" y2="0.542211" gradientUnits="userSpaceOnUse">
<stop stop-color="#949494"/>
<stop offset="0.53" stop-color="#A2A2A2"/>
<stop offset="1" stop-color="#B3B3B3"/>
</linearGradient>
<linearGradient id="paint1_linear" x1="8.92457" y1="15.4578" x2="8.92457" y2="6.06226" gradientUnits="userSpaceOnUse">
<stop stop-color="#0078D4"/>
<stop offset="0.16" stop-color="#1380DA"/>
<stop offset="0.53" stop-color="#3C91E5"/>
<stop offset="0.82" stop-color="#559CEC"/>
<stop offset="1" stop-color="#5EA0EF"/>
</linearGradient>
</defs>
</svg>
