<svg width="16" height="17" viewBox="0 0 16 17" fill="none" xmlns="http://www.w3.org/2000/svg">
<g clip-path="url(#clip0_165_1075)">
<path d="M15.0134 7.77127C14.9886 7.02403 14.7001 6.30968 14.199 5.75485C13.6979 5.20003 13.0165 4.84055 12.2756 4.74015C12.2316 3.69638 11.7774 2.71215 11.0118 2.00141C10.2461 1.29067 9.23085 0.910881 8.18669 0.944599C7.34115 0.929662 6.51195 1.17841 5.81424 1.65629C5.11654 2.13417 4.58497 2.81746 4.29336 3.61127C3.40213 3.71901 2.57885 4.14208 1.97238 4.80398C1.36592 5.46588 1.01628 6.32292 0.986694 7.22015C1.02606 8.22935 1.46326 9.18195 2.20276 9.86982C2.94226 10.5577 3.92396 10.9249 4.93336 10.8913H5.28003H11.68C11.7359 10.9005 11.793 10.9005 11.8489 10.8913C12.6784 10.8845 13.4728 10.555 14.0635 9.97262C14.6542 9.39019 14.9949 8.60062 15.0134 7.77127V7.77127Z" fill="url(#paint0_linear_165_1075)"/>
<path d="M7.99998 9.75337C5.95553 9.75337 4.28442 9.22003 4.28442 8.57114V14.8734C4.28442 15.5223 5.92887 16.0467 7.95553 16.0556H7.99998C10.0533 16.0556 11.7155 15.5223 11.7155 14.8734V8.57114C11.7511 9.22003 10.0889 9.75337 7.99998 9.75337Z" fill="url(#paint1_linear_165_1075)"/>
<path d="M11.7512 8.57111C11.7512 9.22 10.089 9.75333 8.03562 9.75333C5.98229 9.75333 4.32007 9.22 4.32007 8.57111C4.32007 7.92222 5.99118 7.38889 8.00007 7.38889C10.009 7.38889 11.7156 7.91333 11.7156 8.57111" fill="#E8E8E8"/>
<path d="M10.8889 8.50005C10.8889 8.91783 9.60894 9.2556 8.03561 9.2556C6.46227 9.2556 5.19116 8.89116 5.19116 8.50005C5.19116 8.10894 6.47116 7.71783 8.00005 7.71783C9.52894 7.71783 10.8534 8.0556 10.8534 8.47338" fill="#50E6FF"/>
<path d="M7.99999 8.65091C7.24037 8.63304 6.48235 8.72891 5.7511 8.93536C6.48136 9.14735 7.23978 9.24627 7.99999 9.22869C8.76315 9.2469 9.52459 9.14798 10.2578 8.93536C9.52361 8.7283 8.76256 8.63242 7.99999 8.65091V8.65091Z" fill="#32BEDD"/>
<path d="M5.58223 4.94452L7.88445 2.63341C7.91006 2.60761 7.94053 2.58714 7.97409 2.57316C8.00765 2.55919 8.04365 2.55199 8.08001 2.55199C8.11636 2.55199 8.15236 2.55919 8.18592 2.57316C8.21948 2.58714 8.24995 2.60761 8.27556 2.63341L10.5778 4.94452C10.5927 4.96225 10.6024 4.98379 10.6057 5.00672C10.6091 5.02965 10.606 5.05305 10.5967 5.0743C10.5875 5.09555 10.5725 5.1138 10.5534 5.12699C10.5344 5.14019 10.512 5.1478 10.4889 5.14897H9.07556C9.04256 5.14897 9.0109 5.16208 8.98757 5.18542C8.96423 5.20876 8.95112 5.24041 8.95112 5.27341V8.13564C8.95416 8.15668 8.94955 8.17812 8.93813 8.19606C8.92672 8.214 8.90925 8.22725 8.88889 8.23341H7.30667C7.29349 8.23481 7.28016 8.23325 7.26766 8.22883C7.25516 8.22441 7.24381 8.21725 7.23443 8.20788C7.22506 8.1985 7.2179 8.18715 7.21348 8.17465C7.20906 8.16215 7.20749 8.14882 7.20889 8.13564V5.26452C7.20956 5.23566 7.20017 5.20746 7.18234 5.18476C7.1645 5.16205 7.13932 5.14626 7.11112 5.14008H5.67112C5.64951 5.13785 5.62887 5.13 5.61123 5.11732C5.5936 5.10464 5.57959 5.08756 5.5706 5.06779C5.56161 5.04802 5.55796 5.02623 5.56 5.00461C5.56204 4.98298 5.5697 4.96227 5.58223 4.94452Z" fill="#F2F2F2"/>
</g>
<defs>
<linearGradient id="paint0_linear_165_1075" x1="8.00003" y1="10.8913" x2="8.00003" y2="0.9446" gradientUnits="userSpaceOnUse">
<stop stop-color="#0078D4"/>
<stop offset="0.16" stop-color="#1380DA"/>
<stop offset="0.53" stop-color="#3C91E5"/>
<stop offset="0.82" stop-color="#559CEC"/>
<stop offset="1" stop-color="#5EA0EF"/>
</linearGradient>
<linearGradient id="paint1_linear_165_1075" x1="4.31998" y1="12.3134" x2="11.7511" y2="12.3134" gradientUnits="userSpaceOnUse">
<stop stop-color="#32BEDD"/>
<stop offset="0.06" stop-color="#37C5E3"/>
<stop offset="0.3" stop-color="#49DDF7"/>
<stop offset="0.45" stop-color="#50E6FF"/>
<stop offset="0.55" stop-color="#50E6FF"/>
<stop offset="0.7" stop-color="#49DDF7"/>
<stop offset="0.94" stop-color="#37C5E3"/>
<stop offset="1" stop-color="#32BEDD"/>
</linearGradient>
<clipPath id="clip0_165_1075">
<rect width="16" height="16" fill="white" transform="translate(0 0.5)"/>
</clipPath>
</defs>
</svg>
