<svg width="18" height="18" viewBox="0 0 18 18" fill="none" xmlns="http://www.w3.org/2000/svg">
<path d="M6.84 5.09004C3.34 5.09004 0.5 4.09004 0.5 2.79004V15C0.5 16.26 3.29 17.28 6.75 17.3H6.84C10.34 17.3 13.18 16.3 13.18 15V2.79004C13.18 4.06004 10.34 5.09004 6.84 5.09004Z" fill="url(#paint0_linear)"/>
<path d="M13.18 2.79024C13.18 4.06024 10.34 5.09024 6.84 5.09024C3.34 5.09024 0.5 4.06024 0.5 2.79024C0.5 1.52023 3.34 0.490234 6.84 0.490234C10.34 0.490234 13.18 1.49023 13.18 2.79024Z" fill="#E8E8E8"/>
<path d="M11.7 2.60014C11.7 3.41014 9.52 4.06014 6.84 4.06014C4.16 4.06014 2 3.41014 2 2.60014C2 1.79014 4.16 1.14014 6.84 1.14014C9.52 1.14014 11.7 1.80014 11.7 2.60014Z" fill="#50E6FF"/>
<path d="M6.84 2.93982C5.53864 2.91368 4.2417 3.09944 3 3.48982C4.24047 3.90205 5.5433 4.09494 6.85 4.05982C8.1567 4.09494 9.45953 3.90205 10.7 3.48982C9.45192 3.09729 8.14805 2.9115 6.84 2.93982Z" fill="#198AB3"/>
<path d="M10.7411 11.1V7.71997H9.81107V11.86H12.2711V11.1H10.7411ZM3.59107 9.42997C3.40595 9.35385 3.23387 9.24926 3.08107 9.11997C3.01392 9.02771 2.98523 8.91298 3.00107 8.79997C3.00104 8.73928 3.01556 8.67946 3.04339 8.62552C3.07123 8.57159 3.11158 8.52511 3.16107 8.48997C3.28642 8.41096 3.43309 8.37255 3.58107 8.37997C3.93679 8.3676 4.28716 8.46921 4.58107 8.66997V7.80997C4.261 7.69333 3.92156 7.63902 3.58107 7.64997C3.15153 7.61397 2.72391 7.73869 2.38107 7.99997C2.24897 8.10909 2.14341 8.24681 2.07238 8.40273C2.00135 8.55866 1.96671 8.72869 1.97107 8.89997C1.97107 9.40997 2.29107 9.80997 2.97107 10.11C3.18835 10.2046 3.39321 10.3255 3.58107 10.47C3.63075 10.5072 3.67107 10.5555 3.69884 10.6111C3.72661 10.6666 3.74107 10.7279 3.74107 10.79C3.7411 10.8507 3.72658 10.9105 3.69875 10.9644C3.67091 11.0184 3.63056 11.0648 3.58107 11.1C3.4476 11.1867 3.29 11.2287 3.13107 11.22C2.70985 11.2246 2.30381 11.0629 2.00107 10.77V11.7C2.3339 11.862 2.70106 11.9409 3.07107 11.93C3.48816 11.9491 3.90078 11.8372 4.25107 11.61C4.39139 11.5025 4.50374 11.3627 4.57859 11.2026C4.65344 11.0424 4.68859 10.8666 4.68107 10.69C4.69077 10.4332 4.60125 10.1825 4.43107 9.98997C4.19355 9.74633 3.90732 9.55551 3.59107 9.42997ZM8.79107 11C9.01691 10.6155 9.13118 10.1757 9.12107 9.72997C9.1295 9.34832 9.04363 8.97049 8.87107 8.62997C8.71495 8.31769 8.47185 8.05723 8.17107 7.87997C7.86626 7.70721 7.52142 7.61755 7.17107 7.61997C6.79039 7.61324 6.41459 7.70633 6.08107 7.88997C5.7685 8.07077 5.51496 8.33821 5.35107 8.65997C5.17053 9.01586 5.08119 9.41102 5.09107 9.80997C5.08528 10.1742 5.16762 10.5344 5.33107 10.86C5.4827 11.1689 5.71839 11.4289 6.01107 11.61C6.31295 11.7932 6.65798 11.8933 7.01107 11.9L7.86107 12.9H9.05107L7.85107 11.79C8.24688 11.6442 8.57936 11.3648 8.79107 11ZM7.86107 10.74C7.7672 10.8515 7.6501 10.9411 7.51795 11.0026C7.38581 11.0641 7.24182 11.0959 7.09607 11.0959C6.95032 11.0959 6.80633 11.0641 6.67419 11.0026C6.54204 10.9411 6.42494 10.8515 6.33107 10.74C6.12245 10.4502 6.02324 10.0959 6.05107 9.73997C6.02342 9.38252 6.12647 9.02718 6.34107 8.73997C6.4309 8.6192 6.54898 8.52231 6.68498 8.4578C6.82097 8.39329 6.97071 8.36313 7.12107 8.36997C7.26683 8.36548 7.41146 8.39687 7.54224 8.46139C7.67301 8.52591 7.78594 8.62157 7.87107 8.73997C8.06808 9.03477 8.16293 9.38607 8.14107 9.73997C8.18108 10.1063 8.08106 10.4743 7.86107 10.77V10.74Z" fill="#F2F2F2"/>
<path d="M14.8096 17.4899L15.0496 16.6999L15.5196 16.4299L16.3296 16.7899L16.8496 16.2599V16.1999L16.4796 15.4899L16.6996 14.9899L17.5096 14.6999H17.5996V13.9699H17.4996L16.6996 13.7299L16.4396 13.2699L16.7896 12.4499L16.2596 11.9399H16.1996L15.4896 12.2999L14.9996 11.9999L14.6796 11.1099H13.9396V11.2199L13.6996 12.0099L13.1896 12.2299L12.3196 11.8299L11.8096 12.3599L11.8596 12.4599L12.2396 13.1999L12.0396 13.7099L11.0996 13.9999V14.7399H11.2096L11.9996 14.9799L12.2196 15.4899L11.8296 16.3499L12.3596 16.8699L12.4496 16.8199L13.1896 16.4399L13.6996 16.6399L14.0396 17.5299H14.7696L14.8096 17.4899ZM13.6096 15.1299C13.408 14.9323 13.2932 14.6627 13.2904 14.3805C13.2876 14.0982 13.397 13.8264 13.5946 13.6249C13.7922 13.4233 14.0618 13.3085 14.344 13.3057C14.6262 13.3029 14.898 13.4123 15.0996 13.6099C15.1994 13.7077 15.279 13.8242 15.3337 13.9528C15.3885 14.0814 15.4174 14.2195 15.4188 14.3593C15.4202 14.499 15.3941 14.6377 15.3419 14.7673C15.2897 14.897 15.2124 15.0151 15.1146 15.1149C15.0168 15.2147 14.9002 15.2942 14.7717 15.349C14.6431 15.4038 14.505 15.4327 14.3652 15.4341C14.2255 15.4354 14.0868 15.4093 13.9572 15.3571C13.8275 15.3049 13.7094 15.2277 13.6096 15.1299Z" fill="#949494"/>
<defs>
<linearGradient id="paint0_linear" x1="0.5" y1="10.04" x2="13.18" y2="10.04" gradientUnits="userSpaceOnUse">
<stop stop-color="#005BA1"/>
<stop offset="0.07" stop-color="#0060A9"/>
<stop offset="0.36" stop-color="#0071C8"/>
<stop offset="0.52" stop-color="#0078D4"/>
<stop offset="0.64" stop-color="#0074CD"/>
<stop offset="0.82" stop-color="#006ABB"/>
<stop offset="1" stop-color="#005BA1"/>
</linearGradient>
</defs>
</svg>
