<svg width="16" height="16" viewBox="0 0 16 16" fill="none" xmlns="http://www.w3.org/2000/svg">
<path fill-rule="evenodd" clip-rule="evenodd" d="M10.2187 3.27736C9.48438 3.09246 8.74479 3.00002 8 3.00002C7.2552 3.00002 6.51562 3.09246 5.78125 3.27736C5.04687 3.46226 4.35416 3.73439 3.70312 4.09376C3.05208 4.45314 2.46224 4.89715 1.93359 5.4258C1.40495 5.95444 0.973958 6.56251 0.640625 7.25001C0.432291 7.68231 0.273437 8.12892 0.164062 8.58986C0.0546874 9.05079 0 9.52084 0 10H0.999999C0.999999 9.38543 1.09375 8.80991 1.28125 8.27345C1.46875 7.73699 1.72786 7.24741 2.05859 6.8047C2.38932 6.36199 2.77864 5.96616 3.22656 5.6172C3.67448 5.26825 4.15755 4.97398 4.67578 4.73439C5.19401 4.49481 5.73698 4.31252 6.30469 4.18752C6.87239 4.06252 7.4375 4.00002 8 4.00002C8.5625 4.00002 9.1276 4.06252 9.69531 4.18752C10.263 4.31252 10.806 4.49481 11.3242 4.73439C11.8424 4.97398 12.3255 5.26824 12.7734 5.6172C13.2213 5.96616 13.6107 6.36199 13.9414 6.8047C14.2721 7.24741 14.5312 7.73699 14.7187 8.27345C14.9062 8.80991 15 9.38542 15 10H16C16 9.52085 15.9453 9.0508 15.8359 8.58986C15.7266 8.12892 15.5677 7.6823 15.3594 7.25001C15.026 6.56251 14.595 5.95444 14.0664 5.4258C13.5378 4.89715 12.9479 4.45314 12.2969 4.09376C11.6458 3.73439 10.9531 3.46226 10.2187 3.27736ZM8 7.00001C8.41146 7.00001 8.79948 7.07814 9.16406 7.23439C9.52864 7.39064 9.84766 7.60548 10.1211 7.87892C10.3945 8.15236 10.6094 8.47137 10.7656 8.83595C10.9219 9.20053 11 9.58855 11 10C11 10.4167 10.9219 10.806 10.7656 11.168C10.6094 11.53 10.3945 11.8477 10.1211 12.1211C9.84765 12.3945 9.52864 12.6094 9.16406 12.7656C8.79948 12.9219 8.41146 13 8 13C7.58333 13 7.19401 12.9219 6.83203 12.7656C6.47005 12.6094 6.15234 12.3945 5.87891 12.1211C5.60547 11.8477 5.39062 11.53 5.23437 11.168C5.07812 10.806 5 10.4167 5 10C5 9.58855 5.07812 9.20053 5.23437 8.83595C5.39062 8.47137 5.60547 8.15236 5.87891 7.87892C6.15234 7.60548 6.47005 7.39064 6.83203 7.23439C7.19401 7.07814 7.58333 7.00001 8 7.00001ZM8 12C8.27604 12 8.53516 11.9479 8.77734 11.8438C9.01953 11.7396 9.23177 11.5964 9.41406 11.4141C9.59635 11.2318 9.73958 11.0195 9.84375 10.7774C9.94792 10.5352 10 10.2761 10 10C10 9.72397 9.94792 9.46485 9.84375 9.22267C9.73958 8.98048 9.59635 8.76824 9.41406 8.58595C9.23177 8.40365 9.01953 8.26043 8.77734 8.15626C8.53515 8.05209 8.27604 8.00001 8 8.00001C7.72396 8.00001 7.46484 8.05209 7.22265 8.15626C6.98047 8.26043 6.76823 8.40365 6.58593 8.58595C6.40364 8.76824 6.26041 8.98048 6.15625 9.22267C6.05208 9.46485 6 9.72397 6 10C6 10.2761 6.05208 10.5352 6.15625 10.7774C6.26041 11.0195 6.40364 11.2318 6.58593 11.4141C6.76823 11.5964 6.98047 11.7396 7.22265 11.8438C7.46484 11.9479 7.72396 12 8 12Z" fill="#0078D4"/>
</svg>
