<svg width="12" height="12" viewBox="0 0 12 12" fill="none" xmlns="http://www.w3.org/2000/svg">
<path d="M11.8438 10.44L6.94704 0.57825C6.54804 -0.19275 5.45079 -0.19275 5.05404 0.57825L0.156544 10.287C-0.242456 11.058 0.156544 11.9835 0.953794 11.9835H11.0465C11.8438 12.1365 12.242 11.2125 11.8438 10.44Z" fill="#DB7500"/>
<path d="M5.99984 10.8368C6.60003 10.8368 7.08659 10.3502 7.08659 9.75002C7.08659 9.14982 6.60003 8.66327 5.99984 8.66327C5.39964 8.66327 4.91309 9.14982 4.91309 9.75002C4.91309 10.3502 5.39964 10.8368 5.99984 10.8368Z" fill="white"/>
<path d="M4.9502 3L5.3252 7.5H6.6752L7.0502 3H4.9502Z" fill="white"/>
</svg>
