<svg xmlns="http://www.w3.org/2000/svg" width="1024" height="1024" viewBox="0 0 1024 1024">
  <path d="M1024,1024H0V0H1024Z" fill="#f6f6f6" fill-opacity="0"/>
  <g>
    <g>
      <path d="M582.813,821.171,558.39,811.078h-218.7L281.039,972.344,175.172,681.078l-47.313,130H42.7V874.61c0,82.436,133.634,149.265,298.65,149.265,98.328,0,185.57-23.688,239.93-60.453l-5.922-14.8-16.094-39.672-15.829-39.391,39.344-16.048,14.829-6.046c-.2-3.423-.282-6.751-.282-10.125s.078-6.8.282-10.125Z" fill="#008575"/>
      <path d="M469.32,469.266A209.424,209.424,0,0,1,386.164,452.5a210.842,210.842,0,0,1-92.828-75.656H42.7V768.437H98.016L175.172,556.2,281.039,847.469l28.805-79.032h248.5l1.046-2.749,16.047-39.672,16.094-39.859L631.25,702.5l8.718,3.624V469.266Z" fill="#008575"/>
    </g>
    <g opacity="0.25">
      <path d="M175.172,556.2,281.039,847.469l28.805-79.032h31.508V426.906a209.408,209.408,0,0,1-23.008-19.89,212.537,212.537,0,0,1-25.008-30.172H42.7V768.437H98.016Z" fill="#fff"/>
      <path d="M339.688,811.078,281.039,972.344,175.172,681.078l-47.313,130H42.7V874.61c0,82.436,133.634,149.265,298.65,149.265v-212.8Z" fill="#fff"/>
    </g>
    <path d="M469.32,469.266A209.424,209.424,0,0,1,386.164,452.5a212.329,212.329,0,0,1-67.82-45.484,215.513,215.513,0,0,1-45.555-67.7,210.416,210.416,0,0,1-16.8-83.375,221.318,221.318,0,0,1,1.125-22.359C133.234,251.8,42.7,309.031,42.7,376.844c0,82.484,133.673,149.359,298.65,149.359,95.164,0,179.859-22.3,234.507-56.937Z" fill="#b8d432"/>
    <path d="M469.32,469.266A209.424,209.424,0,0,1,386.164,452.5a212.329,212.329,0,0,1-67.82-45.484,215.513,215.513,0,0,1-45.555-67.7,210.416,210.416,0,0,1-16.8-83.375,221.318,221.318,0,0,1,1.125-22.359C133.234,251.8,42.7,309.031,42.7,376.844c0,82.484,133.673,149.359,298.65,149.359,95.164,0,179.859-22.3,234.507-56.937Z" fill="#008575"/>
    <path d="M852.3,170.625a126.119,126.119,0,0,1,50.139,10,132.135,132.135,0,0,1,41.048,27.156,126.539,126.539,0,0,1,27.64,40.516,129.321,129.321,0,0,1,.173,100.14,128.033,128.033,0,0,1-27.517,40.657,130.32,130.32,0,0,1-40.765,27.515,123.843,123.843,0,0,1-49.688,9.985H469.32a166.759,166.759,0,0,1-66.484-13.344,170.1,170.1,0,0,1-54.352-36.406,172.108,172.108,0,0,1-36.476-54.313,172.741,172.741,0,0,1,0-133.109,171.229,171.229,0,0,1,36.429-54.3A173.023,173.023,0,0,1,402.8,98.61,167.87,167.87,0,0,1,469.32,85.282,164.541,164.541,0,0,1,500.328,88.3a200.977,200.977,0,0,1,30.8-37.157,189.149,189.149,0,0,1,38.312-27.829A189.23,189.23,0,0,1,661.344,0a187.037,187.037,0,0,1,69.813,12.984,191.558,191.558,0,0,1,58.155,35.8,194.176,194.176,0,0,1,41.845,54.265A200.919,200.919,0,0,1,852.3,170.625Z" fill="#008575"/>
    <path d="M386.289,399.328a191.554,191.554,0,0,1,0-147.047A188.377,188.377,0,0,1,486.821,151.8a186.583,186.583,0,0,1,107.913-11.423A222.149,222.149,0,0,1,628.75,99.3a203.4,203.4,0,0,1,42.312-30.813,205.773,205.773,0,0,1,48.594-19.157,212.357,212.357,0,0,1,53.11-6.672c3.3,0,6.2.734,9.5.8a191.241,191.241,0,0,0-51.109-30.469A187.037,187.037,0,0,0,661.344,0a192.068,192.068,0,0,0-48.016,5.954,194.156,194.156,0,0,0-44.016,17.358,189.427,189.427,0,0,0-38.218,27.829A197.207,197.207,0,0,0,500.328,88.3a164.541,164.541,0,0,0-31.008-3.016A167.543,167.543,0,0,0,402.836,98.61a169.992,169.992,0,0,0-90.828,90.765,171.365,171.365,0,0,0,36.429,187.406c12.172,12.172,26.391,21.563,41.766,29.656C389.039,404.016,387.414,401.953,386.289,399.328Z" fill="#fff" opacity="0.2" style="isolation: isolate"/>
    <path d="M938.647,833.672a152.447,152.447,0,0,1-4.672,37.016l45.61,18.624L963.617,929l-46.063-19.016a149.169,149.169,0,0,1-51.891,52.062l19,45.564L844.991,1024l-18.766-45.656a149.9,149.9,0,0,1-74.015,0L733.569,1024l-39.64-16.39L712.9,962.046a144.7,144.7,0,0,1-52.015-52.062L614.866,929l-15.921-39.688,45.64-18.624a152.468,152.468,0,0,1-4.626-37.016,147.047,147.047,0,0,1,4.751-36.97l-45.735-18.718,15.97-39.64,46.062,18.922A148.589,148.589,0,0,1,712.975,705.3l-19-46.016,39.719-16.016,18.641,45.64a150.28,150.28,0,0,1,73.984,0l18.7-45.64,39.687,16.016L865.742,705.3a154.853,154.853,0,0,1,51.937,51.968l46.015-18.922,15.969,39.64L934.07,796.7A157.427,157.427,0,0,1,938.647,833.672ZM789.3,940.344A103.068,103.068,0,0,0,830.647,932a107.121,107.121,0,0,0,33.813-22.843,109.322,109.322,0,0,0,23-34.016,105.036,105.036,0,0,0,0-82.781,109.269,109.269,0,0,0-56.813-56.845,101.608,101.608,0,0,0-41.344-8.5,102.956,102.956,0,0,0-41.515,8.5,110.282,110.282,0,0,0-34.016,23,106.128,106.128,0,0,0-22.8,33.845,106.831,106.831,0,0,0,0,82.781A105.967,105.967,0,0,0,747.788,932,104.438,104.438,0,0,0,789.3,940.344Z" fill="#008575"/>
    <path d="M469.32,469.266A209.424,209.424,0,0,1,386.164,452.5a212.329,212.329,0,0,1-67.82-45.484,215.513,215.513,0,0,1-45.555-67.7,210.416,210.416,0,0,1-16.8-83.375,221.318,221.318,0,0,1,1.125-22.359C133.234,251.8,42.7,309.031,42.7,376.844c0,82.484,133.673,149.359,298.65,149.359,95.164,0,179.859-22.3,234.507-56.937Z" fill="#fff" opacity="0.55"/>
  </g>
</svg>
