<svg id="Layer_1" data-name="Layer 1" xmlns="http://www.w3.org/2000/svg" viewBox="0 0 16 16"><defs><style>.cls-1{fill:#fff;}.cls-2{fill:none;}</style></defs><title>bv</title><path class="cls-1" d="M7.5,1q.563,0,1.246.062a10.962,10.962,0,0,1,1.367.215,7.406,7.406,0,0,1,1.3.418,3.558,3.558,0,0,1,1.039.664,1.991,1.991,0,0,1,.4.516A1.327,1.327,0,0,1,13,3.5v9a1.292,1.292,0,0,1-.152.629,2.2,2.2,0,0,1-.4.512,3.24,3.24,0,0,1-1.027.66,7.741,7.741,0,0,1-1.313.418,10.706,10.706,0,0,1-1.379.219Q8.047,15,7.5,15q-.562,0-1.246-.062a10.962,10.962,0,0,1-1.367-.215,7.323,7.323,0,0,1-1.3-.418,3.538,3.538,0,0,1-1.039-.664,1.958,1.958,0,0,1-.395-.516A1.322,1.322,0,0,1,2,12.5v-9a1.3,1.3,0,0,1,.152-.629,2.217,2.217,0,0,1,.4-.512A3.257,3.257,0,0,1,3.574,1.7a7.924,7.924,0,0,1,1.313-.418,10.883,10.883,0,0,1,1.379-.219Q6.953,1,7.5,1Zm0,1c-.266,0-.543.01-.832.027s-.579.05-.871.094-.577.1-.856.172a6.4,6.4,0,0,0-.793.254c-.078.031-.182.08-.312.144a3.808,3.808,0,0,0-.383.223,1.645,1.645,0,0,0-.32.277A.47.47,0,0,0,3,3.5a.3.3,0,0,0,.023.117.618.618,0,0,0,.063.11,1.445,1.445,0,0,0,.473.437,3.925,3.925,0,0,0,.695.328,6.414,6.414,0,0,0,.824.238q.438.1.871.157t.836.086Q7.189,5,7.5,5t.715-.027q.4-.027.836-.086t.871-.157a6.414,6.414,0,0,0,.824-.238,3.827,3.827,0,0,0,.692-.328,1.542,1.542,0,0,0,.476-.437.618.618,0,0,0,.063-.11A.3.3,0,0,0,12,3.5a.47.47,0,0,0-.133-.309,1.645,1.645,0,0,0-.32-.277,3.808,3.808,0,0,0-.383-.223c-.13-.064-.234-.113-.312-.144a6.4,6.4,0,0,0-.793-.254q-.418-.105-.856-.172t-.871-.094C8.043,2.01,7.766,2,7.5,2Zm0,12q.4,0,.832-.027t.871-.094q.438-.066.856-.168a5.182,5.182,0,0,0,.793-.258q.117-.046.312-.144a3.461,3.461,0,0,0,.383-.223,1.612,1.612,0,0,0,.32-.277A.47.47,0,0,0,12,12.5V4.984a4.572,4.572,0,0,1-1.008.485,8.312,8.312,0,0,1-1.168.312,11.149,11.149,0,0,1-1.207.168Q8.015,6,7.5,6T6.379,5.949a11.047,11.047,0,0,1-1.207-.168,8.368,8.368,0,0,1-1.164-.312A4.572,4.572,0,0,1,3,4.984V12.5a.47.47,0,0,0,.133.309,1.612,1.612,0,0,0,.32.277,3.461,3.461,0,0,0,.383.223q.2.1.312.144a5.182,5.182,0,0,0,.793.258q.418.1.856.168t.871.094Q7.1,14,7.5,14Z"/><rect class="cls-2" width="16" height="16"/></svg>