<svg xmlns="http://www.w3.org/2000/svg" viewBox="0 0 16 16">
	<g id="canvas" opacity="0" fill="none">
		<path d="M16,16H0V0H16Z" opacity="0" fill="none" />
	</g>
	<g id="level-1">
		<g opacity="0.75">
			<path d="M13,8.5V11H12V9H5v2H4V8.5L4.5,8H8V6H9V8h3.5Z" fill="#fff" />
		</g>
		<path d="
	  M6.5,11 h-4 l-.5.5 v3 l.5.5 h4 l.5-.5 v-3 Z
	  M6,14 H3 V12 H6 Z
	  m8.5-3 h-4 l-.5.5 v3 l.5.5 h4 l.5-.5 v-3 Z
	  M14,14 H11 V12 h3 Z
	  M10.5,2 h-4 l-.5.5 v3 l.5.5 h4 l.5-.5 v-3 Z
	  M10,5 H7 V3 h3 Z" fill="#fff" />
		<path d="
		M2.5,11.5 h4 v3 h-4 Z
		m8,0 v3 h4 v-3 Z
		m0-6 v-3 h-4 V5.5 Z" fill="#fff" opacity="0.1" />
	</g>
</svg>
