<?xml version="1.0" encoding="UTF-8" standalone="no"?>
<svg
   viewBox="0 0 16 16"
   version="1.1"
   id="svg23"
   sodipodi:docname="MI Lines 2 INV.svg"
   inkscape:version="1.2-rc (6364d40632, 2022-05-08)"
   xmlns:inkscape="http://www.inkscape.org/namespaces/inkscape"
   xmlns:sodipodi="http://sodipodi.sourceforge.net/DTD/sodipodi-0.dtd"
   xmlns="http://www.w3.org/2000/svg"
   xmlns:svg="http://www.w3.org/2000/svg">
  <defs
     id="defs27" />
  <sodipodi:namedview
     id="namedview25"
     pagecolor="#505050"
     bordercolor="#eeeeee"
     borderopacity="1"
     inkscape:showpageshadow="0"
     inkscape:pageopacity="0"
     inkscape:pagecheckerboard="0"
     inkscape:deskcolor="#505050"
     showgrid="true"
     inkscape:zoom="45.254834"
     inkscape:cx="12.683728"
     inkscape:cy="7.4688154"
     inkscape:window-width="3840"
     inkscape:window-height="2107"
     inkscape:window-x="-8"
     inkscape:window-y="-8"
     inkscape:window-maximized="1"
     inkscape:current-layer="svg23">
    <inkscape:grid
       type="xygrid"
       id="grid187" />
  </sodipodi:namedview>
  <path
     style="color:#000000;-inkscape-font-specification:'Segoe MDL2 Assets, Normal';fill:#ffffff;fill-opacity:1"
     d="M 6.5,8.25 C 6.200803,8.25 5.908727,8.286417 5.625,8.359375 5.341799,8.432198 5.073688,8.5379047 4.822266,8.6757813 4.570594,8.8137948 4.337488,8.9832438 4.123047,9.1855469 3.931792,9.3657672 3.766004,9.5738577 3.615234,9.796875 3.450842,9.7696493 3.28701,9.75 3.125,9.75 2.695215,9.75 2.287061,9.831262 1.904297,9.9941406 1.52716,10.15635 1.194747,10.381425 0.910156,10.666016 0.629096,10.947076 0.406215,11.279281 0.244141,11.660156 0.08108,12.039272 0,12.445214 0,12.875 c 0,0.429786 0.08126,0.837939 0.244141,1.220703 0.162059,0.376789 0.38358,0.709594 0.664062,0.994141 h 0.002 v 0.002 C 1.19475,15.372276 1.527555,15.593796 1.904344,15.755856 2.287061,15.918738 2.695215,16 3.125,16 h 6.75 c 0.324416,0 0.632789,-0.06165 0.921875,-0.185547 0.287171,-0.123073 0.539449,-0.293355 0.753906,-0.507812 0.217872,-0.217872 0.390419,-0.46847 0.513672,-0.751953 v -0.002 C 12.188432,14.26345 12.25,13.953125 12.25,13.625 c 0,-0.331686 -0.0636,-0.644321 -0.191406,-0.933594 v -0.002 C 11.935652,12.403122 11.76273,12.15346 11.544922,11.943362 11.330182,11.728623 11.076273,11.558558 10.785156,11.43555 10.525152,11.32412 10.242884,11.2808 9.951172,11.269534 9.888882,10.865632 9.781388,10.479715 9.59375,10.126956 9.396057,9.7477073 9.141722,9.4201323 8.833984,9.1445344 8.526451,8.8653256 8.170393,8.6457694 7.771484,8.4882844 7.373608,8.3299424 6.948233,8.25 6.5,8.25 Z m 0,1 c 0.3476,0 0.670287,0.065503 0.970703,0.1953125 0.30649,0.130819 0.571898,0.3082255 0.798828,0.5351563 C 8.496462,10.207399 8.673868,10.472806 8.804687,10.779297 8.934497,11.079712 9,11.4024 9,11.75 v 0.5 h 0.875 c 0.191308,0 0.365708,0.0363 0.529297,0.107422 h 0.002 c 0.169707,0.07221 0.316052,0.169567 0.441406,0.294922 0.125355,0.125354 0.222706,0.271699 0.294922,0.441406 v 0.002 c 0.07113,0.163592 0.107425,0.337992 0.107425,0.5293 0,0.191308 -0.03593,0.369092 -0.107422,0.537109 -0.07205,0.165227 -0.169532,0.310158 -0.294922,0.435547 -0.125354,0.125355 -0.271699,0.222706 -0.441406,0.294922 h -0.002 C 10.240708,14.963703 10.066308,15 9.875,15 H 3.125 C 2.828797,15 2.553961,14.943881 2.296875,14.833984 h -0.002 C 2.040312,14.723094 1.816446,14.572114 1.621047,14.380859 l -0.002,-0.0019 C 1.427793,14.18351 1.276812,13.959644 1.165922,13.705081 v -0.0019 C 1.056118,13.446039 1,13.171203 1,12.875 1,12.582229 1.05553,12.308569 1.166016,12.050781 1.277317,11.791079 1.427348,11.566793 1.619141,11.375 1.814944,11.179197 2.03997,11.027082 2.294922,10.916016 2.552512,10.80562 2.828125,10.75 3.125,10.75 3.525851,10.733306 3.790801,10.897438 4.119141,11 4.205831,10.700976 4.41292,10.438965 4.541018,10.210938 l 0.002,-0.002 C 4.69928,10.008078 4.876512,9.8381403 5.076221,9.6972691 l 0.002,-0.00195 C 5.282389,9.5545662 5.506258,9.4453414 5.748143,9.3671941 5.989461,9.2891921 6.239063,9.25 6.5,9.25 Z"
     id="path5117-1"
     sodipodi:nodetypes="sssccscscscccccssssccsccccccccsscscscsccsccscsccssccccccscsccccccccs" />
  <rect
     style="fill:#ffffff;fill-opacity:1;stroke:none;stroke-width:0.333333;stroke-dasharray:none;stroke-opacity:1"
     id="rect8678"
     width="1"
     height="16"
     x="15"
     y="0" />
  <rect
     style="fill:#ffffff;fill-opacity:1;stroke:none;stroke-width:0.25;stroke-dasharray:none;stroke-opacity:1"
     id="rect8680"
     width="1"
     height="9"
     x="6"
     y="0" />
  <path
     id="path8734"
     style="fill:#ffffff;fill-opacity:1;stroke:none;stroke-width:0.25;stroke-dasharray:none;stroke-opacity:1"
     d="M 9.5,2 C 8.6715729,2 8,2.6715729 8,3.5 8,4.3284271 8.6715729,5 9.5,5 h 3 C 13.328427,5 14,4.3284271 14,3.5 14,2.6715729 13.328427,2 12.5,2 Z m 0,1 h 3 C 12.776142,3 13,3.2238576 13,3.5 13,3.7761424 12.776142,4 12.5,4 h -3 C 9.2238576,4 9,3.7761424 9,3.5 9,3.2238576 9.2238576,3 9.5,3 Z"
     sodipodi:nodetypes="ssssssssssssss" />
  <path
     id="path8734-6"
     style="fill:#ffffff;fill-opacity:1;stroke:none;stroke-width:0.25;stroke-dasharray:none;stroke-opacity:1"
     d="M 9.5,6 C 8.6715729,6 8,6.6715729 8,7.5 8,8.3284271 8.6715729,9 9.5,9 h 3 C 13.328427,9 14,8.3284271 14,7.5 14,6.6715729 13.328427,6 12.5,6 Z m 0,1 h 3 C 12.776142,7 13,7.2238576 13,7.5 13,7.7761424 12.776142,8 12.5,8 h -3 C 9.2238576,8 9,7.7761424 9,7.5 9,7.2238576 9.2238576,7 9.5,7 Z"
     sodipodi:nodetypes="ssssssssssssss" />
  <rect
     style="fill:#ffffff;fill-opacity:1;stroke:none;stroke-width:0.235702;stroke-dasharray:none;stroke-opacity:1"
     id="rect9222"
     width="8"
     height="1"
     x="7"
     y="0" />
  <rect
     style="fill:#ffffff;fill-opacity:1;stroke:none;stroke-width:0.220479;stroke-dasharray:none;stroke-opacity:1"
     id="rect9222-7"
     width="7"
     height="1"
     x="8"
     y="15" />
</svg>
