<svg width="12" height="12" viewBox="0 0 12 12" fill="none" xmlns="http://www.w3.org/2000/svg">
<path d="M6.16207 4.40796H5.45432V6.53124H6.16207V4.40796Z" fill="white"/>
<path d="M7.5776 5.11572H6.86984V6.53124H7.5776V5.11572Z" fill="white"/>
<path d="M8.9931 2.99243H8.28534V6.53123H8.9931V2.99243Z" fill="white"/>
<path d="M3.68494 4.42278C3.6848 3.64991 3.91385 2.89435 4.34313 2.25167C4.77241 1.60899 5.38264 1.10804 6.09664 0.812175C6.81063 0.516314 7.59633 0.438831 8.35437 0.589524C9.1124 0.740218 9.80872 1.11232 10.3553 1.65877C10.9018 2.20522 11.2741 2.90148 11.4249 3.65948C11.5757 4.41749 11.4984 5.2032 11.2026 5.91726C10.9069 6.63131 10.4061 7.24162 9.76346 7.67102C9.12086 8.10042 8.36535 8.32961 7.59248 8.32961" stroke="white" stroke-miterlimit="10"/>
<path d="M7.59248 8.32956H3.68494V4.42273" stroke="white" stroke-miterlimit="10"/>
<path d="M2.62328 6.53125H0.5V8.65453H2.62328V6.53125Z" fill="white"/>
<path d="M2.62328 9.36218H0.5V11.4855H2.62328V9.36218Z" fill="white"/>
<path d="M5.45433 9.36218H3.33105V11.4855H5.45433V9.36218Z" fill="white"/>
</svg>
