<?xml version="1.0" encoding="utf-8"?>
<!-- Generator: Adobe Illustrator 25.0.0, SVG Export Plug-In . SVG Version: 6.00 Build 0)  -->
<svg version="1.1" id="Layer_1" xmlns="http://www.w3.org/2000/svg" xmlns:xlink="http://www.w3.org/1999/xlink" x="0px" y="0px"
	 width="16px" height="16px" viewBox="0 0 16 16" style="enable-background:new 0 0 16 16;" xml:space="preserve">
<style type="text/css">
	.st0{fill:#F6F6F6;fill-opacity:0;}
	.st1{fill:#424242;}
	.st2{fill:#FFFFFF;}
</style>
<path id="canvas" class="st0" d="M16,16H0V0h16V16z"/>
<path id="outline" class="st1" d="M15,3.2v9.6c0,1.9-2.6,2.9-5.4,3.2H7.2C4.3,15.8,1,14.7,1,12.8V3.2c0-1.9,2.7-3,5.6-3.2h2.3
	C11.7,0.2,15,1.3,15,3.2z"/>
<path id="iconBg" class="st2" d="M7.8,1C4.6,1,2,2,2,3.2v9.6C2,14,5.3,15,8.4,15s5.6-1,5.6-2.2V3.2C14,2.1,10.9,1,7.8,1z M8,11H7
	V7.7l-1.2,2.7c-0.1,0.2-0.3,0.2-0.4,0.2s-0.1-0.1-0.2-0.2L4,7.7V11H3V6h1l1.2,2.1c0.1,0.1,0.3,0.2,0.4,0.1l0.1-0.1L7,6h1V11z
	 M7.9,4.2C5.7,4.2,4,3.7,4,3.1S5.8,2,7.9,2c2.2,0,3.9,0.5,3.9,1.1S10.1,4.2,7.9,4.2z M13,12.5c0,0.3-0.2,0.5-0.5,0.5H9v-1h3v-1H9.5
	C9.2,11,9,10.8,9,10.5V8h1v2h2V8h1V12.5z"/>
<g id="iconFg">
	<path class="st1" d="M8,6v5H7V7.7l-1.2,2.7c-0.1,0.2-0.3,0.2-0.4,0.2s-0.1-0.1-0.2-0.2L4,7.7V11H3V6h1l1.2,2.1
		c0.1,0.1,0.3,0.2,0.4,0.1l0.1-0.1L7,6H8z M12,8v2h-2V8H9v2.5C9,10.8,9.2,11,9.5,11H12v1H9v1h3.5c0.3,0,0.5-0.2,0.5-0.5V8H12z
		 M11.8,3.1C11.8,2.5,10,2,7.9,2C5.7,1.9,4,2.4,4,3.1s1.8,1.1,3.9,1.1C10.1,4.2,11.8,3.7,11.8,3.1z"/>
</g>
</svg>
