<svg id="Layer_1" data-name="Layer 1" xmlns="http://www.w3.org/2000/svg" viewBox="0 0 11 10.89"><defs><style>.cls-1{fill:#fff;}</style></defs><title>accounts_statusbar_inverse_11x11</title><path class="cls-1" d="M10.08,5.66a3.44,3.44,0,0,0-.34-.75,3.47,3.47,0,0,0-.52-.64A3.23,3.23,0,0,0,8.8,4a2.28,2.28,0,0,0,.7-1.65,2.27,2.27,0,0,0-.18-.89A2.31,2.31,0,0,0,8.09.19,2.19,2.19,0,0,0,7.19,0,2.16,2.16,0,0,0,6.3.19a2.41,2.41,0,0,0-.73.49,2.41,2.41,0,0,0-.49.73,2.16,2.16,0,0,0-.19.89,2.22,2.22,0,0,0,.25,1A2.31,2.31,0,0,0,5.58,4a3.62,3.62,0,0,0-.52.41,3.62,3.62,0,0,0-.41.52A2.31,2.31,0,0,0,4,4.44a2.26,2.26,0,0,0-1-.25,2.16,2.16,0,0,0-.89.19,2.41,2.41,0,0,0-.73.49,2.41,2.41,0,0,0-.49.73,2.16,2.16,0,0,0-.19.89,2.22,2.22,0,0,0,.25,1,2.31,2.31,0,0,0,.45.61A3.7,3.7,0,0,0,1,8.47a3.47,3.47,0,0,0-.52.64,2.88,2.88,0,0,0-.34.75,3.06,3.06,0,0,0-.12.83v.21H1.12v-.21A1.83,1.83,0,0,1,1.27,10a1.9,1.9,0,0,1,1-1A1.83,1.83,0,0,1,3,8.8a1.86,1.86,0,0,1,.73.15,2,2,0,0,1,.6.4,1.9,1.9,0,0,1,.4.6,1.85,1.85,0,0,1,.15.73v.21H6v-.21a3.05,3.05,0,0,0-.11-.83,3.44,3.44,0,0,0-.34-.75A3.25,3.25,0,0,0,5,8.47a3.23,3.23,0,0,0-.43-.32,2.28,2.28,0,0,0,.7-1.65,1.83,1.83,0,0,1,.15-.73,1.9,1.9,0,0,1,1-1,1.83,1.83,0,0,1,.73-.15,1.86,1.86,0,0,1,.73.15,1.9,1.9,0,0,1,1,1,1.82,1.82,0,0,1,.15.73V6.7h1.12V6.49A3.05,3.05,0,0,0,10.08,5.66ZM4.1,7a1.24,1.24,0,0,1-.64.64A1.13,1.13,0,0,1,3,7.68a1.1,1.1,0,0,1-.45-.09,1.21,1.21,0,0,1-.38-.26A1.1,1.1,0,0,1,1.91,7a1.11,1.11,0,0,1-.1-.46A1.13,1.13,0,0,1,1.91,6a1.1,1.1,0,0,1,.26-.38,1.1,1.1,0,0,1,.38-.26A1.1,1.1,0,0,1,3,5.31a1.16,1.16,0,0,1,.46.1A1.24,1.24,0,0,1,4.1,6a1.15,1.15,0,0,1,.09.45A1.13,1.13,0,0,1,4.1,7ZM8.29,2.76a1.24,1.24,0,0,1-.64.64,1.13,1.13,0,0,1-.46.09,1.1,1.1,0,0,1-.45-.09,1.21,1.21,0,0,1-.38-.26,1.1,1.1,0,0,1-.26-.38A1.14,1.14,0,0,1,6,2.3a1.15,1.15,0,0,1,.1-.45,1.1,1.1,0,0,1,.26-.38,1.19,1.19,0,0,1,.83-.36,1.16,1.16,0,0,1,.46.1A1.1,1.1,0,0,1,8,1.47a1.21,1.21,0,0,1,.26.38,1.15,1.15,0,0,1,.09.45A1.13,1.13,0,0,1,8.29,2.76Z"/></svg>