<svg xmlns="http://www.w3.org/2000/svg" width="16" height="16"><style type="text/css">.icon-canvas-transparent{opacity:0;fill:#F6F6F6;} .icon-vs-out{fill:#F6F6F6;} .icon-vs-bg{fill:#424242;} .icon-vs-fg{fill:#F0EFF1;}</style><path class="icon-canvas-transparent" d="M16 16h-16v-16h16v16z" id="canvas"/><path class="icon-vs-out" d="M13.775 8.361l2.225 2.225v1.828l-1.586 1.586h-6.184c-.829 1.247-2.208 2-3.73 2-2.481 0-4.5-2.019-4.5-4.5 0-2.482 2.019-4.5 4.5-4.5 1.057 0 2.043.362 2.826 1h1.361c-.348-.283-.662-.615-.917-1h-6.184l-1.586-1.586v-1.828l2.586-2.586h6.088c.783-.638 1.77-1 2.826-1 2.481 0 4.5 2.018 4.5 4.5 0 1.648-.9 3.077-2.225 3.861z" id="outline"/><path class="icon-vs-bg" d="M8.35 6c.563 1.179 1.756 2 3.15 2 1.934 0 3.5-1.567 3.5-3.5s-1.566-3.5-3.5-3.5c-1.394 0-2.587.821-3.15 2h-.35v-1h-1l-1 1v-1h-1l-1 1v-1h-1l-2 2v1l1 1h6.35zm3.65-3c.553 0 1 .448 1 1s-.447 1-1 1-1-.448-1-1 .447-1 1-1zm0 6v1l-1-1h-1v1l-1-1h-1v1h-.35c-.563-1.179-1.756-2-3.15-2-1.933 0-3.5 1.566-3.5 3.5s1.567 3.5 3.5 3.5c1.394 0 2.587-.82 3.15-2h6.35l1-1v-1l-2-2h-1zm2 3h-7.051c-.231 1.141-1.239 2-2.449 2-1.381 0-2.5-1.119-2.5-2.5s1.119-2.5 2.5-2.5c1.21 0 2.218.859 2.449 2h7.051v1zm-9-1c0 .553-.448 1-1 1s-1-.447-1-1 .448-1 1-1 1 .447 1 1z" id="iconBg"/><path class="icon-vs-fg" d="M6.949 11c-.231-1.141-1.239-2-2.449-2-1.381 0-2.5 1.119-2.5 2.5s1.119 2.5 2.5 2.5c1.21 0 2.218-.859 2.449-2h7.051v-1h-7.051zm-2.949 1c-.553 0-1-.448-1-1s.447-1 1-1 1 .448 1 1-.447 1-1 1z" id="iconFg"/></svg>