<svg id="Icon" xmlns="http://www.w3.org/2000/svg" width="16" height="16" viewBox="0 0 16 16"><defs><style>.cls-1,.cls-2{fill:#f6f6f6;}.cls-1{opacity:0;}.cls-3{fill:#424242;}.cls-4{fill:#f0eff1;}</style></defs><title>contract_16x</title><rect id="canvas" class="cls-1" width="16" height="16"/><path id="outline" class="cls-2" d="M4,15a2,2,0,0,1-2-2V3A2,2,0,0,1,3.85,1h6.22L14,4.56v8.37a2,2,0,0,1-.45,1.45,1.9,1.9,0,0,1-1.5.63Z"/><g id="iconBG"><path class="cls-3" d="M9.68,2H3.93A1,1,0,0,0,3,3V13a1,1,0,0,0,1,1h8.06A.88.88,0,0,0,13,13V5ZM12,13H4V3H9V6h3Z"/><rect class="cls-3" x="8" y="10" width="4" height="1"/><path class="cls-3" d="M7.61,8h-1l-.43.83L6.09,9V9H6l-.5-1H4.41l1,1.51L4.34,11H5.41s.48-.89.5-.94S6,10,6,10v0l.51.95H7.6l-1-1.55Z"/></g><g id="iconFG"><path class="cls-4" d="M12,10V6H9V3H4V13h8V11H8V10ZM7.6,11H6.54l-.44-.81s-.18-.16-.19-.13l-.06.12L5.41,11H4.34l1-1.49L4.41,8H5.48l.43.84A.55.55,0,0,0,6.09,9l.07-.15L6.59,8h1l-1,1.45Z"/></g></svg>