<svg id="Icon" xmlns="http://www.w3.org/2000/svg" width="16" height="16" viewBox="0 0 16 16"><defs><style>.cls-1{fill:#f6f6f6;}.cls-2{fill:#424242;}.cls-3{fill:#f0eff1;}</style></defs><title>column_encryption_key_16x</title><path class="cls-1" d="M13,7.44a4,4,0,1,0-4,0V10H9V9.88A3.34,3.34,0,0,0,5.5,7,3.36,3.36,0,0,0,2,9.87V10H2v6H9V14h4V13h2V8H13Z"/><path class="cls-2" d="M3,15H8V11H3Zm2-3H6v2H5Zm3-2H7A1.47,1.47,0,0,0,5.5,9,1.45,1.45,0,0,0,4,10H3A2.37,2.37,0,0,1,5.5,8,2.36,2.36,0,0,1,8,10ZM8,4a3,3,0,0,0,2,2.82V13h2V12h2V11H12V10h2V9H12V6.82A3,3,0,1,0,8,4Zm4,0a1,1,0,1,1-1-1A1,1,0,0,1,12,4Z"/><path class="cls-3" d="M11,3a1,1,0,1,1-1,1,1,1,0,0,1,1-1M5,14H6V12H5Z"/></svg>