<svg xmlns="http://www.w3.org/2000/svg" width="16" height="16" viewBox="0 0 16 16"><title>ExternalDataSource_16x</title><path d="M9,0c-.34,0-.67,0-1,0V0H4L3,1V0H0V8H2v4c0,2.28,3,4,7,4s7-1.72,7-4V4C16,1.72,13,0,9,0Z" fill="#f6f6f6"/><path d="M9,1c-.34,0-.67,0-1,0V2.17c.32,0,.65,0,1,0,2.93,0,4.87,1.13,4.87,1.88S11.93,5.88,9,5.88c-.35,0-.68,0-1,0V8H3v4c0,1.66,2.69,3,6,3s6-1.34,6-3V4C15,2.34,12.31,1,9,1Z" fill="#424242"/><path d="M9,2.13c-.35,0-.68,0-1,0V4L7,5H8v.83c.32,0,.65,0,1,0,2.93,0,4.87-1.13,4.87-1.87S11.93,2.13,9,2.13Z" fill="#f0eff1"/><polygon points="7 6 2 6 2 1 1 1 1 7 7 7 7 6" fill="#00539c"/><polygon points="4.43 1 3.57 1.86 5.54 1.86 3.22 4.18 3.82 4.78 6.14 2.46 6.14 4.43 7 3.57 7 1 4.43 1" fill="#00539c"/></svg>