<svg xmlns="http://www.w3.org/2000/svg" width="0.222in" height="0.222in" viewBox="0 0 16 16">
  <title>FileGroupFile_mounted</title>
  <path d="M16,16H0V0H16Z" fill="#f6f6f6" fill-opacity="0"/>
  <path d="M15,0V15H1V0Z" fill="#f6f6f6"/>
  <path d="M2,1V2H3V3H2V4H3V5H2V6H3V7H2V8H3V9H2v1H3v1H2v1H3v1H2v1H14V1ZM13,13H4V2h9ZM11,4V6H6V4Z" fill="#424242"/>
  <path d="M4,2V13h9V2Zm7,3V6H6V4h5Z" fill="#f0eff1"/>
  <path d="M7.2,15.984a2.592,2.592,0,0,1-.264-.013h-2.8L3.9,15.354a4.752,4.752,0,0,0-.437-.825l-.044-.066-.039-.077a1.8,1.8,0,0,1,.081-1.727A1.38,1.38,0,0,1,4.606,12a1.248,1.248,0,0,1,.686.205l.081.058a4.675,4.675,0,0,1,.721.72h.3l-1.559-3H7.143A2.647,2.647,0,0,1,10,12.415a2.6,2.6,0,0,1-.007.507,2.8,2.8,0,0,1-2.52,3.049A2.617,2.617,0,0,1,7.2,15.984Z" fill="#f0eff1"/>
  <path d="M7.143,10.989H6.474l.519,1c.38,0,1,0,1,1,0,.38,0,1-.779,1H5.574a3.735,3.735,0,0,0-.829-.939c-.289-.19-.749.29-.459.929a5.716,5.716,0,0,1,.529,1H6.993a1.8,1.8,0,0,0,2-1.573,1.777,1.777,0,0,0,0-.425C8.991,11.489,8.262,10.989,7.143,10.989Z" fill="#424242"/>
  <path d="M2.9,15.984A2.67,2.67,0,0,1,0,13.565a2.587,2.587,0,0,1,0-.513A2.8,2.8,0,0,1,2.52,10a2.707,2.707,0,0,1,.53,0H5.886l.254.621a4.738,4.738,0,0,0,.436.824l.044.066.034.075a1.8,1.8,0,0,1-.081,1.727,1.38,1.38,0,0,1-1.149.655,1.248,1.248,0,0,1-.686-.205l-.081-.058a4.65,4.65,0,0,1-.716-.721H3.6l1.619,3Z" fill="#f0eff1"/>
  <path d="M2.9,14.985h.639l-.539-1c-.37,0-1,0-1-1,0-.37,0-1,.779-1H4.456a3.735,3.735,0,0,0,.829.939c.289.19.749-.29.459-.929a5.716,5.716,0,0,1-.529-1H3a1.8,1.8,0,0,0-2,1.573A1.777,1.777,0,0,0,1,13C1,14.486,1.768,14.985,2.9,14.985Z" fill="#424242"/>
</svg>
