<svg xmlns="http://www.w3.org/2000/svg" xmlns:xlink="http://www.w3.org/1999/xlink" width="0.222in" height="0.222in" viewBox="0 0 16 16">
  <defs>
    <clipPath id="a">
      <rect width="16" height="16" fill="none"/>
    </clipPath>
  </defs>
  <title>Folder_mounted</title>
  <g clip-path="url(#a)">
    <g>
      <path d="M16,2.5v10A1.5,1.5,0,0,1,14.5,14H2.5A1.5,1.5,0,0,1,1,12.5v-8A1.5,1.5,0,0,1,2.5,3H5.39l1-2H14.5A1.5,1.5,0,0,1,16,2.5Z" fill="#f6f6f6"/>
      <path d="M14.5,2H7.008l-1,2H2.5a.5.5,0,0,0-.5.5v8a.5.5,0,0,0,.5.5h12a.5.5,0,0,0,.5-.5V2.5A.5.5,0,0,0,14.5,2ZM14,4h-6.5l.5-1h6Z" fill="#dcb67a"/>
      <path d="M14,3V4H7.5L8,3Z" fill="#f0eff1"/>
    </g>
  </g>
  <path d="M7.15,11H6.48L7,12c.38,0,1,0,1,1,0,.38,0,1-.78,1H5.58a3.744,3.744,0,0,0-.83-.94c-.29-.19-.75.29-.46.93a5.729,5.729,0,0,1,.53,1H7a1.8,1.8,0,0,0,2-2C9,11.5,8.27,11,7.15,11Z" fill="#424242"/>
  <path d="M2.9,15h.64L3,14c-.37,0-1,0-1-1,0-.37,0-1,.78-1H4.46a3.746,3.746,0,0,0,.83.94c.29.19.75-.29.46-.93a5.729,5.729,0,0,1-.53-1H3a1.8,1.8,0,0,0-2,2C1,14.5,1.77,15,2.9,15Z" fill="#424242"/>
  <path d="M7.211,16a2.607,2.607,0,0,1-.264-.013h-2.8L3.9,15.369a4.756,4.756,0,0,0-.438-.825l-.044-.067L3.379,14.4a1.806,1.806,0,0,1,.081-1.728,1.382,1.382,0,0,1,1.151-.656,1.251,1.251,0,0,1,.686.205l.081.058A4.687,4.687,0,0,1,6.1,13h.3l-1.56-3H7.15A2.651,2.651,0,0,1,10,12.935,2.8,2.8,0,0,1,7.211,16Z" fill="#f6f6f6"/>
  <path d="M7.15,11H6.48L7,12c.38,0,1,0,1,1,0,.38,0,1-.78,1H5.58a3.744,3.744,0,0,0-.83-.94c-.29-.19-.75.29-.46.93a5.729,5.729,0,0,1,.53,1H7a1.8,1.8,0,0,0,2-2C9,11.5,8.27,11,7.15,11Z" fill="#424242"/>
  <path d="M2.9,16A2.673,2.673,0,0,1,0,13.065,2.8,2.8,0,0,1,2.789,10a2.607,2.607,0,0,1,.264.013H5.892l.254.622a4.679,4.679,0,0,0,.437.824l.044.067.034.075a1.806,1.806,0,0,1-.081,1.728,1.382,1.382,0,0,1-1.151.656,1.251,1.251,0,0,1-.686-.205l-.081-.058A4.687,4.687,0,0,1,3.945,13H3.6l1.62,3Z" fill="#f6f6f6"/>
  <path d="M2.9,15h.64L3,14c-.37,0-1,0-1-1,0-.37,0-1,.78-1H4.46a3.746,3.746,0,0,0,.83.94c.29.19.75-.29.46-.93a5.729,5.729,0,0,1-.53-1H3a1.8,1.8,0,0,0-2,2C1,14.5,1.77,15,2.9,15Z" fill="#424242"/>
</svg>
