<svg xmlns="http://www.w3.org/2000/svg" width="16" height="16" viewBox="0 0 16 16"><defs><style>.a{fill:#f6f6f6;}.b{fill:#424242;}.c{fill:#f0eff1;}</style></defs><title>partition_scheme_16x</title><polygon class="a" points="13.5 3.8 12.5 4.46 12.5 3.46 7.3 0 6.7 0 0 4.46 0 10.54 1 11.2 1 13 0 13 0 16 8.7 16 9 16 9.3 16 16 11.54 16 5.46 13.5 3.8"/><polygon class="b" points="7 11 5 11 5 9 6 9 6 8 3 8 3 9 4 9 4 11 2 11 2 14 1 14 1 15 4 15 4 14 3 14 3 12 6 12 6 14 5 14 5 15 8 15 8 14 7 14 7 11"/><polygon class="b" points="13.5 5 11.5 6.33 11.5 4 7 1 1 5 1 10 2 10 2 7 2 6.27 3.1 7 4.9 7 2.35 5.3 7 2.2 10.15 4.3 6.1 7 7 7 7 7.6 10.5 5.27 10.5 7 7.5 9 7.5 10 8 10 8 13 9 13 9 15 15 11 15 6 13.5 5"/><polygon class="c" points="10.5 7 10.5 5.27 7 7.6 7 10 7.5 10 7.5 9 10.5 7"/><polygon class="c" points="2 7 3.1 7 2 6.27 2 7"/><polygon class="c" points="7 2.2 2.35 5.3 4.9 7 6.1 7 10.15 4.3 7 2.2"/></svg>