<svg xmlns="http://www.w3.org/2000/svg" width="16" height="16" viewBox="0 0 16 16"><defs><style>.cls-1,.cls-2{fill:#f6f6f6;}.cls-1{opacity:0;}.cls-3{fill:#424242;}.cls-4{fill:#f0eff1;}</style></defs><title>ServerAuditSpecification_16x</title><g id="outline"><rect class="cls-1" width="16" height="16"/><path class="cls-2" d="M6,0V4.28a4.48,4.48,0,0,0-2.65,6L0,13.59v.83L1.59,16h.83l3.35-3.35.24.07V16H16V0Z"/></g><g id="icon_bg"><path class="cls-3" d="M11,8.5a3.5,3.5,0,1,0-6.42,1.92L1,14l1,1,3.58-3.58A3.5,3.5,0,0,0,11,8.5Zm-6,0A2.5,2.5,0,1,1,7.5,11,2.5,2.5,0,0,1,5,8.5Z"/><path class="cls-3" d="M7,1V4.05A4.34,4.34,0,0,1,7.5,4a4.46,4.46,0,0,1,2.79,1H13V6H11.24A4.5,4.5,0,0,1,7.5,13a4.2,4.2,0,0,1-.5-.05V15h8V1Zm6,12H12V12h1Zm0-9H9V3h4Z"/></g><g id="icon_fg"><path class="cls-4" d="M11.24,6H13V5H10.29A4.54,4.54,0,0,1,11.24,6Z"/><rect class="cls-4" x="12" y="12" width="1" height="1"/><rect class="cls-4" x="9" y="3" width="4" height="1"/><circle class="cls-4" cx="7.5" cy="8.5" r="2.5"/></g></svg>