<svg id="Icon" xmlns="http://www.w3.org/2000/svg" width="16" height="16" viewBox="0 0 16 16"><defs><style>.cls-1{fill:#f6f6f6;}.cls-2{fill:#424242;}.cls-3{fill:#f0eff1;}</style></defs><title>symmetric_key_16x</title><path id="outline" class="cls-1" d="M14.29,8A4.49,4.49,0,1,0,8.67,1H2.59L0,3.59V5.41L1.59,7H7.77a4.49,4.49,0,0,0,.91,1H2.59L0,10.59v1.83L1.59,14H7.77a4.45,4.45,0,0,0,3.73,2,4.48,4.48,0,0,0,2.79-8Z"/><g id="iconBG"><path class="cls-2" d="M15,4.5A3.49,3.49,0,0,0,8.35,3H8V2H7L6,3V2H5L4,3V2H3L1,4V5L2,6H8.35A3.49,3.49,0,0,0,15,4.5ZM12,5a1,1,0,1,1,1-1A1,1,0,0,1,12,5Z"/><path class="cls-2" d="M11.5,8a3.49,3.49,0,0,0-3.15,2H8V9H7L6,10V9H5L4,10V9H3L1,11v1l1,1H8.35A3.5,3.5,0,1,0,11.5,8Zm0,6a2.5,2.5,0,0,1-2.45-2H2V11H9.05a2.5,2.5,0,1,1,2.45,3Z"/><circle class="cls-2" cx="12" cy="11" r="1"/></g><path id="iconFG" class="cls-3" d="M11.5,9a2.5,2.5,0,0,0-2.45,2H2v1H9.05A2.5,2.5,0,1,0,11.5,9Zm.5,3a1,1,0,1,1,1-1A1,1,0,0,1,12,12Z"/></svg>