<svg id="Icon" xmlns="http://www.w3.org/2000/svg" width="16" height="16" viewBox="0 0 16 16"><defs><style>.cls-1{fill:#f6f6f6;}.cls-2{fill:#424242;}.cls-3{fill:#f0eff1;}.cls-4{fill:#e51400;}</style></defs><title>database_user_disabled_16x</title><path class="cls-1" d="M9,0C5,0,2,1.72,2,4v.06A3.48,3.48,0,0,0,1,6.5,3.44,3.44,0,0,0,2,9H0v7H9l.57,0,0,0h.83l.09-.09a10.35,10.35,0,0,0,2.43-.57l.65.65h.83L16,14.41v-.82l-.33-.33A2.62,2.62,0,0,0,16,12V4C16,1.72,13,0,9,0Z"/><path class="cls-2" d="M2,6.5A2.5,2.5,0,1,1,4.5,9,2.5,2.5,0,0,1,2,6.5ZM7.59,14,8,13.59V10.42L7.58,10H6L4.5,12,3,10H1v5H8v-.59Zm1-5L10,7.59l2,2,2-2,1,1V4c0-1.66-2.69-3-6-3C6.2,1,3.85,2,3.19,3.26A3.49,3.49,0,0,1,4.5,3,3.5,3.5,0,0,1,5,3a8.16,8.16,0,0,1,4-.92c2.93,0,4.87,1.13,4.87,1.88S11.93,5.88,9,5.88c-.37,0-.73,0-1.07-.05A3.51,3.51,0,0,1,8,6.5,3.44,3.44,0,0,1,7,9Z"/><path class="cls-3" d="M9,2.13A8.16,8.16,0,0,0,5,3a3.49,3.49,0,0,1,3,2.78c.34,0,.69.05,1.07.05,2.93,0,4.88-1.13,4.88-1.87S11.93,2.13,9,2.13Z"/><path class="cls-4" d="M13,12l2,2-1,1-2-2-2,2L9,14l2-2L9,10l1-1,2,2,2-2,1,1Z"/></svg>