<svg id="Icon" xmlns="http://www.w3.org/2000/svg" width="16" height="16" viewBox="0 0 16 16"><defs><style>.cls-1,.cls-2{fill:#f6f6f6;}.cls-1{opacity:0;}.cls-3{fill:#424242;}</style></defs><title>Script_16x</title><rect id="canvas" class="cls-1" width="16" height="16"/><polygon id="outline" class="cls-2" points="14 10 14 7 10 7 10 6 12 6 12 1 5 1 5 6 7 6 7 7 3 7 3 10 1 10 1 15 8 15 8 10 9 10 9 15 16 15 16 10 14 10"/><polygon id="iconBG" class="cls-3" points="13 11 13 8 9 8 9 5 11 5 11 2 6 2 6 5 8 5 8 8 4 8 4 11 2 11 2 14 7 14 7 11 5 11 5 9 12 9 12 11 10 11 10 14 15 14 15 11 13 11"/></svg>