<svg id="Icon" xmlns="http://www.w3.org/2000/svg" width="16" height="16" viewBox="0 0 16 16"><defs><style>.cls-1{fill:#f6f6f6;}.cls-2{fill:#424242;}.cls-3{fill:#f0eff1;}.cls-4{fill:#00539c;}</style></defs><title>Availability_Replica_16x</title><polygon class="cls-1" points="16 0 0 0 0 12 4.5 12 5 12.5 5 15 8 15 7 16 10.5 16 13 13.5 11.5 12 16 12 16 0"/><path class="cls-2" d="M9,1V9h2v2h4V1Zm5,9H13V9h1Zm0-5H10V4h4Zm0-2H10V2h4ZM3,3H6V4H3Zm.5,8H1V1H8V8H7V2H2v8H3.5l-.5.5ZM3,5H6V6H3Z"/><path class="cls-3" d="M5.5,8H7V2H2v8H3.5ZM3,3H6V4H3ZM3,5H6V6H3Zm7-1h4V5H10Zm3,5h1v1H13Zm1-7V3H10V2Z"/><path class="cls-4" d="M11.52,13.5,10,15H9l1-1H6V13h4L9,12h1ZM7,12,6,11h4V10H6L7,9H6L4.52,10.5,6,12Z"/></svg>