<svg id="Icon" xmlns="http://www.w3.org/2000/svg" width="16" height="16" viewBox="0 0 16 16"><defs><style>.cls-1{fill:#f6f6f6;}.cls-2{fill:#424242;}.cls-3{fill:#f0eff1;}.cls-4{fill:#e51400;}</style></defs><title>Availability_Replica_Offline_16x</title><polygon class="cls-1" points="16 0 0 0 0 12 6.57 12 4.59 14.01 6.59 16 7.41 16 9 14.41 10.59 16 11.41 16 13.41 14.01 11.43 12 16 12 16 0"/><path class="cls-2" d="M5.59,11H1V1H8V8.59l-1-1V2H2v8H4.58ZM3,6H6V5H3ZM15,1V11H12.41l1-1H14V9H13v.59l-2-2-2,2V1ZM14,4H10V5h4Zm0-2H10V3h4ZM6,3H3V4H6Z"/><path class="cls-3" d="M7,7.59V2H2v8H4.59ZM3,3H6V4H3ZM3,5H6V6H3Zm7-1h4V5H10Zm3,5h1v1h-.59L13,9.59Zm1-7V3H10V2Z"/><path class="cls-4" d="M10,12l2,2-1,1L9,13,7,15,6,14l2-2L6,10,7,9l2,2,2-2,1,1Z"/></svg>