<svg id="Icon" xmlns="http://www.w3.org/2000/svg" width="16" height="16" viewBox="0 0 16 16"><defs><style>.cls-1{fill:#f6f6f6;}.cls-2{fill:#424242;}.cls-3{fill:#f0eff1;}.cls-4{fill:#1ba1e2;}.cls-5{fill:#fff;}</style></defs><title>Availability_Replica_Unknown_16x</title><path class="cls-1" d="M16,0H0V12H4.05a4.47,4.47,0,0,0,8.9,0H16Z"/><path class="cls-2" d="M4.05,11H1V1H8V7.05a4.46,4.46,0,0,0-1,.23V2H2v8H4.28A4.46,4.46,0,0,0,4.05,11ZM15,1V11H12.95A4.47,4.47,0,0,0,9,7.05V1ZM14,9H13v1h1Zm0-5H10V5h4Zm0-2H10V3h4ZM3,4H6V3H3ZM3,6H6V5H3Z"/><path class="cls-3" d="M14,2V3H10V2ZM10,5h4V4H10Zm3,5h1V9H13ZM4.28,10H2V2H7V7.28A4.48,4.48,0,0,0,4.28,10ZM3,4H6V3H3ZM3,6H6V5H3Z"/><path class="cls-4" d="M8.5,8A3.5,3.5,0,1,0,12,11.5,3.5,3.5,0,0,0,8.5,8ZM9,14H8V13H9Zm1-3a1,1,0,0,1-1,1v.5H8V12a1,1,0,0,1,1-1V10a1.28,1.28,0,0,0-1,0v1H7V10c0-.58.63-1,1.5-1s1.5.42,1.5,1Z"/><path class="cls-5" d="M10,10v1a1,1,0,0,1-1,1v.5H8V12a1,1,0,0,1,1-1V10a1.28,1.28,0,0,0-1,0v1H7V10c0-.58.63-1,1.5-1S10,9.42,10,10ZM9,13H8v1H9Z"/></svg>