<svg xmlns="http://www.w3.org/2000/svg" width="16" height="16" viewBox="0 0 16 16"><defs><style>.cls-1{fill:#f6f6f6;}.cls-2{fill:#424242;}.cls-3{fill:#f0eff1;}.cls-4{fill:#1ba1e2;}.cls-5{fill:#fff;}</style></defs><title>Availability_Database_Unknown_16x</title><g id="outline"><path class="cls-1" d="M15,8.7V4c0-2.28-3-4-7-4S1,1.72,1,4v8c0,2.28,3,4,7,4a12.54,12.54,0,0,0,2.25-.2,4.45,4.45,0,0,0,1.25.2A4.48,4.48,0,0,0,15,8.7Z"/></g><g id="icon_bg"><path class="cls-2" d="M8,1C4.69,1,2,2.34,2,4v8c0,1.66,2.69,3,6,3l.68,0A4.49,4.49,0,0,1,14,7.76V4C14,2.34,11.31,1,8,1ZM8,6C4.95,6,3,4.82,3,4S4.95,2,8,2s5,1.18,5,2S11,6,8,6Z"/></g><g id="icon_fg"><path class="cls-3" d="M8,2C4.95,2,3,3.18,3,4S4.95,6,8,6s5-1.18,5-2S11,2,8,2Z"/></g><g id="not_bg"><path class="cls-4" d="M11.5,8A3.5,3.5,0,1,0,15,11.5,3.5,3.5,0,0,0,11.5,8Zm.5,6H11V13h1Zm1-3a1,1,0,0,1-1,1v.5H11V12a1,1,0,0,1,1-1V10a1.28,1.28,0,0,0-1,0v1H10V10c0-.58.63-1,1.5-1s1.5.42,1.5,1Z"/></g><g id="not_fg"><path class="cls-5" d="M11.5,9c-.87,0-1.5.42-1.5,1v1h1V10a1.28,1.28,0,0,1,1,0v1a1,1,0,0,0-1,1v.5h1V12a1,1,0,0,0,1-1V10C13,9.42,12.37,9,11.5,9Z"/><rect class="cls-5" x="11" y="13" width="1" height="1"/></g></svg>