<svg id="Icon" xmlns="http://www.w3.org/2000/svg" width="16" height="16" viewBox="0 0 16 16"><defs><style>.cls-1{fill:none;}.cls-2{fill:#f6f6f6;}.cls-3{fill:#424242;}.cls-4{fill:#f0eff1;}.cls-5{fill:#393;}.cls-6{fill:#fff;}</style></defs><title>Availability_Database_Synchronizing_16x</title><rect class="cls-1" width="16" height="16"/><path class="cls-2" d="M15,8.71V4c0-2.28-3-4-7-4S1,1.72,1,4v8c0,2.28,3,4,7,4a12.6,12.6,0,0,0,2.25-.2,4.44,4.44,0,0,0,1.25.2A4.5,4.5,0,0,0,16,11.5,4.46,4.46,0,0,0,15,8.71Z"/><path class="cls-3" d="M7,11.5a4.5,4.5,0,0,1,7-3.74V4c0-1.66-2.69-3-6-3S2,2.34,2,4v8c0,1.66,2.69,3,6,3l.68,0A4.47,4.47,0,0,1,7,11.5ZM3.12,4c0-.75,1.94-1.87,4.88-1.87S12.87,3.25,12.87,4,10.93,5.88,8,5.88,3.12,4.75,3.12,4Z"/><path class="cls-4" d="M8,2.13C5.07,2.13,3.12,3.25,3.12,4S5.07,5.88,8,5.88,12.87,4.75,12.87,4,10.93,2.13,8,2.13Z"/><path class="cls-5" d="M11.5,8A3.5,3.5,0,1,0,15,11.5,3.5,3.5,0,0,0,11.5,8ZM10,13V10l3.5,1.5Z"/><polygon class="cls-6" points="10 10 13.5 11.5 10 13 10 10"/></svg>