<svg id="Icon" xmlns="http://www.w3.org/2000/svg" width="16" height="16" viewBox="0 0 16 16"><defs><style>.cls-1{fill:#f6f6f6;}.cls-2{fill:#f0eff1;}.cls-3{fill:#424242;}.cls-4{fill:#00539c;}</style></defs><title>Availability_Group</title><path class="cls-1" d="M14.75,1.65A5.64,5.64,0,0,0,12,1a5.64,5.64,0,0,0-2.75.65A2.13,2.13,0,0,0,8,3.5,2.13,2.13,0,0,0,6.75,1.65,5.64,5.64,0,0,0,4,1a5.64,5.64,0,0,0-2.75.65A2.13,2.13,0,0,0,0,3.5v6C0,10.95,1.68,12,4,12l.47,0L5,12.5V15H8L7,16h3.5L13,13.5,11.47,12c.18,0,.35,0,.53,0,2.32,0,4-1.05,4-2.5v-6A2.13,2.13,0,0,0,14.75,1.65Z"/><path class="cls-2" d="M4,4.49c-1.5,0-2.49-.6-2.49-1s1-1,2.49-1,2.49.6,2.49,1S5.5,4.49,4,4.49Zm8,0c-1.5,0-2.49-.6-2.49-1s1-1,2.49-1,2.49.6,2.49,1S13.5,4.49,12,4.49Z"/><path class="cls-3" d="M3,10.5,5.5,8H7V3.5a1.24,1.24,0,0,0-.75-1A4.65,4.65,0,0,0,4,2a4.65,4.65,0,0,0-2.25.52A1.24,1.24,0,0,0,1,3.5v6c0,.74,1.07,1.35,2.47,1.47Zm-1.49-7c0-.4,1-1,2.49-1s2.49.6,2.49,1-1,1-2.49,1S1.51,3.9,1.51,3.5Z"/><path class="cls-3" d="M14.25,2.52A4.65,4.65,0,0,0,12,2a4.65,4.65,0,0,0-2.25.52A1.24,1.24,0,0,0,9,3.5V9h2v1.91A5.69,5.69,0,0,0,12,11c1.66,0,3-.67,3-1.5v-6A1.24,1.24,0,0,0,14.25,2.52ZM12,4.49c-1.5,0-2.49-.6-2.49-1s1-1,2.49-1,2.49.6,2.49,1S13.5,4.49,12,4.49Z"/><path class="cls-4" d="M11.52,13.5,10,15H9l1-1H6V13h4L9,12h1ZM7,12,6,11h4V10H6L7,9H6L4.52,10.5,6,12Z"/></svg>