<svg id="Icon" xmlns="http://www.w3.org/2000/svg" width="16" height="16" viewBox="0 0 16 16"><defs><style>.cls-1{fill:#f6f6f6;}.cls-2{fill:#424242;}.cls-3{fill:#f0eff1;}.icon-vs-action-blue{fill:#00539c;}</style></defs><title>Availability_Replica_Synchronizing_16x</title><path class="cls-1" d="M16,12V0H0V12H3.09a5,5,0,0,0,3.68,3.92L7,16v0h4.16L13,14.47V13h-.53a4.73,4.73,0,0,0,.39-1Z"/><path class="cls-2" d="M3,3H6V4H3ZM15,1V11H13s0-.07,0-.1A5,5,0,0,0,9.23,6.08L9,6V1ZM14,9H13v1h1Zm0-5H10V5h4Zm0-2H10V3h4ZM6,5H3V6H6ZM3.14,10H2V2H7V6H8V1H1V11H3A4.37,4.37,0,0,1,3.14,10Z"/><path class="cls-3" d="M14,2V3H10V2ZM3.14,10H2V2H7V6H6V5H3V6H4.84L3,7.53V9h.53A4.72,4.72,0,0,0,3.14,10ZM3,4H6V3H3Zm7,1h4V4H10Zm3,5h1V9H13Z"/><path class="icon-vs-action-blue" d="M10.52,14H12l-1.2,1H8V12.2L9.2,11l0,2.22a2.65,2.65,0,0,0-.23-5V7.06a4,4,0,0,1,3,3.84A4.6,4.6,0,0,1,10.52,14ZM5.07,11.27a2.67,2.67,0,0,1,1.7-2.49L6.8,11,8,9.8V7H5.2L4,8H5.48A4.6,4.6,0,0,0,4,11.1a4,4,0,0,0,3,3.84V13.81A2.65,2.65,0,0,1,5.07,11.27Z"/></svg>