<svg id="a7873e7b-9149-4583-acd5-327a6cca8a74" data-name="Layer 1" xmlns="http://www.w3.org/2000/svg" xmlns:xlink="http://www.w3.org/1999/xlink" width="100" height="100" viewBox="0 0 100 100">
  <defs>
    <linearGradient id="fa1a2df5-b243-4ccd-8fb8-af2408d310fc" x1="324" y1="432.822" x2="324" y2="483.565" gradientTransform="translate(-274 -408)" gradientUnits="userSpaceOnUse">
      <stop offset="0" stop-color="#5ea0ef"/>
      <stop offset="1" stop-color="#0078d4"/>
    </linearGradient>
  </defs>
  <g>
    <path d="M24.225,30.625H75.807a1.612,1.612,0,0,1,1.644,1.483V67.892a1.579,1.579,0,0,1-1.644,1.483H24.225a1.612,1.612,0,0,1-1.676-1.483V32.172a1.612,1.612,0,0,1,1.674-1.547Z" fill="url(#fa1a2df5-b243-4ccd-8fb8-af2408d310fc)"/>
    <path d="M45.5,36.008h9.284a.452.452,0,0,1,.452.452h0v9.671a.419.419,0,0,1-.419.419H45.7a.451.451,0,0,1-.451-.451V36.428a.418.418,0,0,1,.29-.42Z" fill="#fff"/>
    <path d="M45.5,51.58h9.284a.487.487,0,0,1,.452.451V61.7a.42.42,0,0,1-.419.42H45.7a.452.452,0,0,1-.451-.452h0V52a.416.416,0,0,1,.29-.419ZM62.589,36.008h9.285a.452.452,0,0,1,.451.452h0v9.671a.419.419,0,0,1-.419.419H62.75A.451.451,0,0,1,62.3,46.1h0V36.428A.418.418,0,0,1,62.589,36.008Z" fill="#83b9f9"/>
    <path d="M62.5,51.58h9.284a.487.487,0,0,1,.452.451V61.7a.42.42,0,0,1-.419.42H62.7a.452.452,0,0,1-.451-.452h0V52a.416.416,0,0,1,.29-.419Z" fill="#83b9f9"/>
    <path d="M29.255,51.58h9.284a.487.487,0,0,1,.452.451V61.7a.42.42,0,0,1-.419.42H29.448A.452.452,0,0,1,29,61.67h0V52a.414.414,0,0,1,.29-.419Z" fill="#fff"/>
    <path d="M29.255,36.008h9.284a.489.489,0,0,1,.452.452v9.671a.419.419,0,0,1-.419.419H29.448A.451.451,0,0,1,29,46.1h0V36.428a.416.416,0,0,1,.29-.42Z" fill="#fff"/>
  </g>
</svg>
