<svg id="Layer_1" data-name="Layer 1" xmlns="http://www.w3.org/2000/svg" viewBox="0 0 16 16"><defs><style>.cls-1{fill:#fff;}</style></defs><title>operator_inverse</title><path class="cls-1" d="M10.36,9.41a7.54,7.54,0,0,1,1.9,1.05A7,7,0,0,1,13.73,12,6.9,6.9,0,0,1,15,16H14a5.79,5.79,0,0,0-.47-2.33,6.07,6.07,0,0,0-3.2-3.2A5.79,5.79,0,0,0,8,10a5.79,5.79,0,0,0-2.33.47,6.07,6.07,0,0,0-3.2,3.2A5.79,5.79,0,0,0,2,16H1a6.89,6.89,0,0,1,2.74-5.54,7.54,7.54,0,0,1,1.9-1.05A5.07,5.07,0,0,1,4,8a4.24,4.24,0,0,1-.73-.06,1.92,1.92,0,0,1-.64-.23,1.25,1.25,0,0,1-.45-.46A1.48,1.48,0,0,1,2,6.5v-3a1.47,1.47,0,0,1,.12-.59,1.49,1.49,0,0,1,.8-.8A1.47,1.47,0,0,1,3.5,2a1.4,1.4,0,0,1,.45.07,4.88,4.88,0,0,1,.8-.87,5.21,5.21,0,0,1,1-.65A4.95,4.95,0,0,1,8,0,4.88,4.88,0,0,1,9.95.39a5,5,0,0,1,2.66,2.66A4.88,4.88,0,0,1,13,5a4.93,4.93,0,0,1-.18,1.34,5,5,0,0,1-.53,1.23,5.12,5.12,0,0,1-.83,1A4.73,4.73,0,0,1,10.36,9.41ZM3,6.5a.51.51,0,0,0,.5.5H4V3.5a.5.5,0,0,0-.85-.35A.48.48,0,0,0,3,3.5ZM5.35,8a3.92,3.92,0,0,0,1.23.74A4,4,0,0,0,8,9a3.85,3.85,0,0,0,1.55-.32,4.05,4.05,0,0,0,2.13-2.13A3.85,3.85,0,0,0,12,5a3.85,3.85,0,0,0-.32-1.55A4.05,4.05,0,0,0,9.55,1.32,3.85,3.85,0,0,0,8,1a4,4,0,0,0-1.83.45A4,4,0,0,0,4.75,2.67a1.47,1.47,0,0,1,.18.51A5.75,5.75,0,0,1,5,3.91q0,.41,0,.85t0,.87q0,.42,0,.78T5,7H7.5a.5.5,0,0,1,0,1Z"/></svg>