<svg id="Layer_1" data-name="Layer 1" xmlns="http://www.w3.org/2000/svg" viewBox="0 0 16 16"><title>proxy_account</title><path d="M12.23,7a3,3,0,0,0-3.39-.77,3,3,0,0,0-1.6,1.6A2.93,2.93,0,0,0,7,9a3,3,0,0,1-1.23,2.41,4.31,4.31,0,0,1,.66.42,4.2,4.2,0,0,1,.57.53V15a2.93,2.93,0,0,0-.23-1.16,3,3,0,0,0-1.6-1.6,3,3,0,0,0-2.33,0,3,3,0,0,0-1.6,1.6A2.93,2.93,0,0,0,1,15H0a3.92,3.92,0,0,1,.16-1.11,4.11,4.11,0,0,1,.45-1,3.87,3.87,0,0,1,.7-.84,4.2,4.2,0,0,1,.92-.63,3,3,0,0,1-1-3.58,3,3,0,0,1,1.6-1.6A2.92,2.92,0,0,1,4,6,3,3,0,0,1,6.41,7.23,4.12,4.12,0,0,1,8.23,5.41,3,3,0,0,1,7,3a2.93,2.93,0,0,1,.23-1.16A3,3,0,0,1,8.83.23a3,3,0,0,1,2.33,0,3,3,0,0,1,1.6,1.6,3,3,0,0,1-.09,2.52,2.94,2.94,0,0,1-.9,1.06,4.07,4.07,0,0,1,1,.67,4,4,0,0,1,.73.92ZM4,11a1.94,1.94,0,0,0,.78-.16A2,2,0,0,0,5.84,9.78a2,2,0,0,0,0-1.55A2,2,0,0,0,4.78,7.16a2,2,0,0,0-1.55,0A2,2,0,0,0,2.16,8.22a2,2,0,0,0,0,1.55,2,2,0,0,0,1.07,1.07A1.94,1.94,0,0,0,4,11ZM8,3a1.94,1.94,0,0,0,.16.78A2,2,0,0,0,9.22,4.84a2,2,0,0,0,1.55,0,2,2,0,0,0,1.07-1.07,2,2,0,0,0,0-1.55,2,2,0,0,0-1.07-1.07,2,2,0,0,0-1.55,0A2,2,0,0,0,8.16,2.22,1.94,1.94,0,0,0,8,3Zm8,7v6H8V10h2V8h4v2Zm-1,1H9v1h6Zm0,2H14v1H13V13H11v1H10V13H9v2h6Zm-4-3h2V9H11Z"/></svg>