<svg id="Layer_1" data-name="Layer 1" xmlns="http://www.w3.org/2000/svg" viewBox="0 0 16 16"><defs><style>.cls-1{fill:#fff;}.cls-2{fill:#101e23;}.cls-3{fill:#4bb8d1;}</style></defs><title>health_inverse</title><path class="cls-1" d="M12.58,1.51A6.36,6.36,0,0,0,8,3.9,6.32,6.32,0,0,0,3.41,1.51,3.81,3.81,0,0,0,0,5.35,5.7,5.7,0,0,0,.64,7.88h.72l0-.08A5.18,5.18,0,0,1,.64,5.39c.07-1.25.87-3.14,2.8-3.23h.12A5.81,5.81,0,0,1,7.73,4.63L8,5.06l.27-.43a5.72,5.72,0,0,1,4.28-2.47c1.93.09,2.73,2,2.8,3.23a5.15,5.15,0,0,1-.64,2.34l0,0a2.38,2.38,0,0,1-.34.68,19.45,19.45,0,0,1-6.57,6.06,11.11,11.11,0,0,1-1.25-.81c-.34-.25-.66-.52-1-.8h0a22.83,22.83,0,0,1-2.76-3H2a18.68,18.68,0,0,0,5.76,5.29h0l0,0h0c3.49-1.63,7-5.73,7.49-7.18V8A5.85,5.85,0,0,0,16,5.35,3.81,3.81,0,0,0,12.58,1.51Z"/><path class="cls-2" d="M1.41,8l-.1-.15h0Z"/><path class="cls-2" d="M7.79,15.22v0h0Z"/><path class="cls-2" d="M7.76,15.23h0v0Z"/><path class="cls-2" d="M14.72,7.73l0,0a.13.13,0,0,0,0,0Z"/><path class="cls-3" d="M12.62,8.7v.12a.48.48,0,0,1-.48.48H8.66l0,.07L7.38,12.65h0A.72.72,0,0,1,6,12.53V9.44H6V6.6L5,9.05H5a.56.56,0,0,1-.52.37H.92V8.36H4.13l0-.07L5.41,5h0a.72.72,0,0,1,1.42.12V8.22h0v2.84L7.77,8.6h0a.56.56,0,0,1,.52-.37h3.84A.48.48,0,0,1,12.62,8.7Z"/><path class="cls-1" d="M12.62,8.7v.12a.48.48,0,0,1-.48.48H8.66l0,.07L7.38,12.65h0A.72.72,0,0,1,6,12.53V9.44H6V6.6L5,9.05H5a.56.56,0,0,1-.52.37H.92V8.36H4.13l0-.07L5.41,5h0a.72.72,0,0,1,1.42.12V8.22h0v2.84L7.77,8.6h0a.56.56,0,0,1,.52-.37h3.84A.48.48,0,0,1,12.62,8.7Z"/></svg>