<svg xmlns="http://www.w3.org/2000/svg" width="16" height="16" viewBox="0 0 16 16">
  <title>TemporaryDatabase</title>
  <g>
    <path d="M3.086,3.758a1.565,1.565,0,0,0,.492.445,3.788,3.788,0,0,0,.719.336,6.428,6.428,0,0,0,.848.234q.449.095.878.153t.817.082c.258.015.477.023.66.023s.4-.008.66-.023.53-.043.817-.082.579-.09.878-.153a6.428,6.428,0,0,0,.848-.234,3.842,3.842,0,0,0,.715-.332,1.6,1.6,0,0,0,.5-.449.555.555,0,0,0,.063-.11A.3.3,0,0,0,12,3.531a.462.462,0,0,0-.133-.312,1.7,1.7,0,0,0-.32-.274,3.616,3.616,0,0,0-.383-.222c-.13-.065-.234-.114-.312-.145a6.1,6.1,0,0,0-.79-.254q-.421-.1-.859-.172t-.871-.093c-.289-.018-.566-.028-.832-.028s-.543.01-.832.028-.58.049-.871.093-.578.1-.859.172a6.047,6.047,0,0,0-.79.254c-.078.031-.182.08-.312.145a3.616,3.616,0,0,0-.383.222,1.673,1.673,0,0,0-.32.274A.462.462,0,0,0,3,3.531a.3.3,0,0,0,.023.117A.555.555,0,0,0,3.086,3.758Z" fill="none"/>
    <path d="M7.435,14.03c-.282,0-.6-.017-.951-.046a10.214,10.214,0,0,1-1.148-.16,7.424,7.424,0,0,1-1.106-.3,3.184,3.184,0,0,1-.894-.481,1.519,1.519,0,0,1-.223-.219A.436.436,0,0,1,3,12.531V5.016A5.236,5.236,0,0,0,4.023,5.5a8.163,8.163,0,0,0,1.149.312,10.5,10.5,0,0,0,1.191.168c.4.035.778.051,1.137.051s.738-.016,1.137-.051a10.368,10.368,0,0,0,1.187-.168A8.39,8.39,0,0,0,10.973,5.5,5.218,5.218,0,0,0,12,5.016V7a5.092,5.092,0,0,1,1,.1V3.531a1.333,1.333,0,0,0-.152-.625,1.97,1.97,0,0,0-.4-.515,3.518,3.518,0,0,0-1.039-.664,7.269,7.269,0,0,0-1.3-.418,10.78,10.78,0,0,0-1.367-.215c-.456-.041-.871-.063-1.246-.063-.245,0-.511.01-.8.028s-.583.048-.891.089-.617.1-.929.164a7.689,7.689,0,0,0-.9.254,5.562,5.562,0,0,0-.8.356,2.788,2.788,0,0,0-.637.469,2.164,2.164,0,0,0-.395.511A1.3,1.3,0,0,0,2,3.531v9a1.316,1.316,0,0,0,.176.676,2.049,2.049,0,0,0,.465.543,3.278,3.278,0,0,0,.656.426,6.65,6.65,0,0,0,.75.32,7.384,7.384,0,0,0,.75.227c.245.06.463.1.656.136a11.923,11.923,0,0,0,2.047.172c.177,0,.354-.005.532-.013A5.006,5.006,0,0,1,7.435,14.03ZM3.133,3.219a1.673,1.673,0,0,1,.32-.274,3.616,3.616,0,0,1,.383-.222c.13-.065.234-.114.312-.145a6.047,6.047,0,0,1,.79-.254q.422-.1.859-.172c.291-.044.582-.075.871-.093s.566-.028.832-.028.543.01.832.028.579.049.871.093.578.1.859.172a6.1,6.1,0,0,1,.79.254c.078.031.182.08.312.145a3.616,3.616,0,0,1,.383.222,1.7,1.7,0,0,1,.32.274A.462.462,0,0,1,12,3.531a.3.3,0,0,1-.023.117.555.555,0,0,1-.063.11,1.6,1.6,0,0,1-.5.449,3.842,3.842,0,0,1-.715.332,6.428,6.428,0,0,1-.848.234q-.449.095-.878.153t-.817.082q-.387.022-.66.023c-.183,0-.4-.008-.66-.023s-.53-.043-.817-.082-.579-.09-.878-.153A6.428,6.428,0,0,1,4.3,4.539,3.788,3.788,0,0,1,3.578,4.2a1.565,1.565,0,0,1-.492-.445.555.555,0,0,1-.063-.11A.3.3,0,0,1,3,3.531.462.462,0,0,1,3.133,3.219Z"/>
    <polygon points="12 10 11 10 11 13 13.5 13 13.5 12 12 12 12 10"/>
    <path d="M15.688,10.441a3.99,3.99,0,0,0-2.129-2.129,4.051,4.051,0,0,0-3.118,0,3.99,3.99,0,0,0-2.129,2.129,4.051,4.051,0,0,0,0,3.118,3.99,3.99,0,0,0,2.129,2.129,4.051,4.051,0,0,0,3.118,0,3.99,3.99,0,0,0,2.129-2.129,4.051,4.051,0,0,0,0-3.118Zm-.922,2.727a3.029,3.029,0,0,1-1.6,1.6,3.022,3.022,0,0,1-2.332,0,3.04,3.04,0,0,1-1.6-1.6,3.022,3.022,0,0,1,0-2.332,3.029,3.029,0,0,1,1.6-1.6,3.022,3.022,0,0,1,2.332,0,3.019,3.019,0,0,1,1.6,1.6,3.022,3.022,0,0,1,0,2.332Z"/>
  </g>
</svg>
