<svg width="12" height="12" viewBox="0 0 12 12" fill="none" xmlns="http://www.w3.org/2000/svg">
<path d="M0.75 5.25C0.953125 5.25 1.14648 5.21094 1.33008 5.13281C1.51367 5.05078 1.67188 4.94336 1.80469 4.81055C1.94141 4.67383 2.04883 4.51562 2.12695 4.33594C2.20898 4.15234 2.25 3.95703 2.25 3.75C2.25 3.47266 2.24414 3.19531 2.23242 2.91797C2.2207 2.64063 2.22852 2.37109 2.25586 2.10938C2.28711 1.84375 2.34961 1.58789 2.44336 1.3418C2.54102 1.0957 2.69531 0.867188 2.90625 0.65625C3.11719 0.445312 3.36133 0.283203 3.63867 0.169922C3.91602 0.0566406 4.20312 0 4.5 0V0.75C4.29297 0.75 4.09766 0.791016 3.91406 0.873047C3.73438 0.951172 3.57617 1.05859 3.43945 1.19531C3.30664 1.32813 3.19922 1.48633 3.11719 1.66992C3.03906 1.85352 3 2.04687 3 2.25C3 2.46875 3.00391 2.68555 3.01172 2.90039C3.01953 3.11133 3.01953 3.32031 3.01172 3.52734C3.00781 3.73047 2.99023 3.92969 2.95898 4.125C2.92773 4.31641 2.875 4.5 2.80078 4.67578C2.72656 4.85156 2.625 5.01953 2.49609 5.17969C2.36719 5.33984 2.20117 5.48828 1.99805 5.625C2.20117 5.76172 2.36719 5.91016 2.49609 6.07031C2.625 6.23047 2.72656 6.39844 2.80078 6.57422C2.875 6.75 2.92773 6.93555 2.95898 7.13086C2.99023 7.32227 3.00781 7.52148 3.01172 7.72852C3.01953 7.93164 3.01953 8.14062 3.01172 8.35547C3.00391 8.56641 3 8.78125 3 9C3 9.20703 3.03906 9.40234 3.11719 9.58594C3.19922 9.76562 3.30664 9.92383 3.43945 10.0605C3.57617 10.1934 3.73438 10.3008 3.91406 10.3828C4.09766 10.4609 4.29297 10.5 4.5 10.5V11.25C4.20312 11.25 3.91602 11.1934 3.63867 11.0801C3.36133 10.9668 3.11719 10.8047 2.90625 10.5938C2.69531 10.3828 2.54102 10.1543 2.44336 9.9082C2.34961 9.66211 2.28711 9.4082 2.25586 9.14648C2.22852 8.88086 2.2207 8.60938 2.23242 8.33203C2.24414 8.05469 2.25 7.77734 2.25 7.5C2.25 7.29688 2.20898 7.10352 2.12695 6.91992C2.04883 6.73633 1.94141 6.57812 1.80469 6.44531C1.67188 6.30859 1.51367 6.20117 1.33008 6.12305C1.14648 6.04102 0.953125 6 0.75 6V5.25ZM7.5 0C7.79688 0 8.08398 0.0566406 8.36133 0.169922C8.63867 0.283203 8.88281 0.445312 9.09375 0.65625C9.30469 0.867188 9.45703 1.0957 9.55078 1.3418C9.64844 1.58789 9.71094 1.84375 9.73828 2.10938C9.76953 2.37109 9.7793 2.64063 9.76758 2.91797C9.75586 3.19531 9.75 3.47266 9.75 3.75C9.75 3.95703 9.78906 4.15234 9.86719 4.33594C9.94922 4.51562 10.0566 4.67383 10.1895 4.81055C10.3262 4.94336 10.4844 5.05078 10.6641 5.13281C10.8477 5.21094 11.043 5.25 11.25 5.25V6C11.043 6 10.8477 6.04102 10.6641 6.12305C10.4844 6.20117 10.3262 6.30859 10.1895 6.44531C10.0566 6.57812 9.94922 6.73633 9.86719 6.91992C9.78906 7.10352 9.75 7.29688 9.75 7.5C9.75 7.77734 9.75586 8.05469 9.76758 8.33203C9.7793 8.60938 9.76953 8.88086 9.73828 9.14648C9.71094 9.4082 9.64844 9.66211 9.55078 9.9082C9.45703 10.1543 9.30469 10.3828 9.09375 10.5938C8.88281 10.8047 8.63867 10.9668 8.36133 11.0801C8.08398 11.1934 7.79688 11.25 7.5 11.25V10.5C7.70312 10.5 7.89648 10.4609 8.08008 10.3828C8.26367 10.3008 8.42188 10.1934 8.55469 10.0605C8.69141 9.92383 8.79883 9.76562 8.87695 9.58594C8.95898 9.40234 9 9.20703 9 9C9 8.78125 8.99609 8.56641 8.98828 8.35547C8.98047 8.14062 8.97852 7.93164 8.98242 7.72852C8.99023 7.52148 9.00977 7.32227 9.04102 7.13086C9.07227 6.93555 9.125 6.75 9.19922 6.57422C9.27344 6.39844 9.375 6.23047 9.50391 6.07031C9.63281 5.91016 9.79883 5.76172 10.002 5.625C9.79883 5.48828 9.63281 5.33984 9.50391 5.17969C9.375 5.01953 9.27344 4.85156 9.19922 4.67578C9.125 4.5 9.07227 4.31641 9.04102 4.125C9.00977 3.92969 8.99023 3.73047 8.98242 3.52734C8.97852 3.32031 8.98047 3.11133 8.98828 2.90039C8.99609 2.68555 9 2.46875 9 2.25C9 2.04687 8.95898 1.85352 8.87695 1.66992C8.79883 1.48633 8.69141 1.32813 8.55469 1.19531C8.42188 1.05859 8.26367 0.951172 8.08008 0.873047C7.89648 0.791016 7.70312 0.75 7.5 0.75V0Z" fill="#0078D4"/>
</svg>
