<svg width="16" height="16" viewBox="0 0 16 16" fill="none" xmlns="http://www.w3.org/2000/svg">
<path d="M16 3.03125V14.9375H2.09375V11.9375H3V14.0312H15.0938V3.9375H9V3.03125H16ZM2.92188 9.9375H0V9.59375C0.0989583 9.57812 0.197917 9.5651 0.296875 9.55469C0.395833 9.53906 0.492188 9.51823 0.585938 9.49219C0.658854 9.47135 0.736979 9.40365 0.820312 9.28906C0.908854 9.17448 0.992188 9.04688 1.07031 8.90625C1.14844 8.76562 1.21875 8.6276 1.28125 8.49219C1.34896 8.35156 1.39844 8.24479 1.42969 8.17188L4.46094 1H5.10156L8.08594 8.25C8.13281 8.36458 8.1875 8.49479 8.25 8.64062C8.31771 8.78646 8.39323 8.92708 8.47656 9.0625C8.5651 9.19271 8.66406 9.30729 8.77344 9.40625C8.88802 9.5 9.01562 9.55469 9.15625 9.57031C9.30208 9.58594 9.44792 9.59375 9.59375 9.59375V9.9375H6.10938V9.59375C6.19792 9.59375 6.29427 9.59635 6.39844 9.60156C6.5026 9.60156 6.59896 9.59115 6.6875 9.57031C6.78125 9.54427 6.85938 9.5026 6.92188 9.44531C6.98438 9.38281 7.01562 9.28646 7.01562 9.15625C7.01562 9.04167 6.98698 8.88542 6.92969 8.6875C6.8724 8.48438 6.80469 8.27604 6.72656 8.0625C6.64844 7.84896 6.56771 7.64323 6.48438 7.44531C6.40625 7.24219 6.34115 7.08073 6.28906 6.96094H2.80469C2.75781 7.08073 2.6875 7.24219 2.59375 7.44531C2.50521 7.64323 2.41667 7.84896 2.32812 8.0625C2.24479 8.27604 2.16927 8.48177 2.10156 8.67969C2.03906 8.8776 2.00781 9.03385 2.00781 9.14844C2.00781 9.27344 2.03906 9.36719 2.10156 9.42969C2.16406 9.48698 2.24219 9.52604 2.33594 9.54688C2.42969 9.56771 2.52865 9.58073 2.63281 9.58594C2.74219 9.58594 2.83854 9.58854 2.92188 9.59375V9.9375ZM3.14062 5.96094H5.82812L4.45312 3.00781L3.14062 5.96094Z" fill="#333333"/>
</svg>
