<svg width="12" height="12" viewBox="0 0 12 12" fill="none" xmlns="http://www.w3.org/2000/svg">
<path d="M12 2.27344V11.2031H1.57031V8.95312H2.25V10.5234H11.3203V2.95312H6.75V2.27344H12ZM2.19141 7.45312H0V7.19531C0.0742188 7.18359 0.148438 7.17383 0.222656 7.16602C0.296875 7.1543 0.369141 7.13867 0.439453 7.11914C0.494141 7.10352 0.552734 7.05273 0.615234 6.9668C0.681641 6.88086 0.744141 6.78516 0.802734 6.67969C0.861328 6.57422 0.914062 6.4707 0.960938 6.36914C1.01172 6.26367 1.04883 6.18359 1.07227 6.12891L3.3457 0.75H3.82617L6.06445 6.1875C6.09961 6.27344 6.14062 6.37109 6.1875 6.48047C6.23828 6.58984 6.29492 6.69531 6.35742 6.79688C6.42383 6.89453 6.49805 6.98047 6.58008 7.05469C6.66602 7.125 6.76172 7.16602 6.86719 7.17773C6.97656 7.18945 7.08594 7.19531 7.19531 7.19531V7.45312H4.58203V7.19531C4.64844 7.19531 4.7207 7.19727 4.79883 7.20117C4.87695 7.20117 4.94922 7.19336 5.01562 7.17773C5.08594 7.1582 5.14453 7.12695 5.19141 7.08398C5.23828 7.03711 5.26172 6.96484 5.26172 6.86719C5.26172 6.78125 5.24023 6.66406 5.19727 6.51562C5.1543 6.36328 5.10352 6.20703 5.04492 6.04688C4.98633 5.88672 4.92578 5.73242 4.86328 5.58398C4.80469 5.43164 4.75586 5.31055 4.7168 5.2207H2.10352C2.06836 5.31055 2.01562 5.43164 1.94531 5.58398C1.87891 5.73242 1.8125 5.88672 1.74609 6.04688C1.68359 6.20703 1.62695 6.36133 1.57617 6.50977C1.5293 6.6582 1.50586 6.77539 1.50586 6.86133C1.50586 6.95508 1.5293 7.02539 1.57617 7.07227C1.62305 7.11523 1.68164 7.14453 1.75195 7.16016C1.82227 7.17578 1.89648 7.18555 1.97461 7.18945C2.05664 7.18945 2.12891 7.19141 2.19141 7.19531V7.45312ZM2.35547 4.4707H4.37109L3.33984 2.25586L2.35547 4.4707Z" fill="#0078D4"/>
</svg>
