<svg id="Layer_1" data-name="Layer 1" xmlns="http://www.w3.org/2000/svg" viewBox="0 0 16 16"><defs><style>.cls-1{fill:#d02e00;}</style></defs><title>nontrust</title><path d="M13.74,2a9.49,9.49,0,0,1-1.19-.17,7.1,7.1,0,0,1-1.14-.35A6.72,6.72,0,0,1,10.29.84,7.43,7.43,0,0,0,9.62.47,5.31,5.31,0,0,0,9,.21,4.18,4.18,0,0,0,8.26,0,6.07,6.07,0,0,0,7.5,0,4.81,4.81,0,0,0,6,.21,5.34,5.34,0,0,0,4.71.84a6.72,6.72,0,0,1-1.12.59,7.09,7.09,0,0,1-1.14.35A9.48,9.48,0,0,1,1.26,2C.85,2,.43,2,0,2V6A7.62,7.62,0,0,0,.29,8.16a9.15,9.15,0,0,0,.78,1.94,10.78,10.78,0,0,0,1.2,1.74,13.35,13.35,0,0,0,1.49,1.52,15.81,15.81,0,0,0,1.7,1.33c.59.42,1.19.8,1.8,1.15L7.5,16l.24-.14c.61-.35,1.21-.73,1.8-1.15a12.71,12.71,0,0,0,1.24-1l-.7-.7c-.32.27-.65.52-1,.76q-.8.55-1.59,1-.79-.46-1.59-1A15.89,15.89,0,0,1,4.4,12.6,13.66,13.66,0,0,1,3,11.21,9.59,9.59,0,0,1,2,9.65a8.52,8.52,0,0,1-.72-1.74A7.1,7.1,0,0,1,1,6V3a9.54,9.54,0,0,0,2.23-.37,8.08,8.08,0,0,0,2-.95,4.4,4.4,0,0,1,1.06-.5A3.87,3.87,0,0,1,7.5,1a3.87,3.87,0,0,1,1.16.16,4.4,4.4,0,0,1,1.06.5,8.08,8.08,0,0,0,2,.95A9.54,9.54,0,0,0,14,3V6a7.1,7.1,0,0,1-.26,1.91A8.51,8.51,0,0,1,13,9.65l-.1.18.73.73a3.14,3.14,0,0,0,.28-.46,9.15,9.15,0,0,0,.78-1.94A7.62,7.62,0,0,0,15,6V2C14.57,2,14.15,2,13.74,2Z"/><polygon class="cls-1" points="13.82 13.24 16 15.41 15.43 15.98 13.26 13.8 11.07 15.98 10.5 15.41 12.69 13.24 10.46 11.01 11.03 10.44 13.26 12.67 15.43 10.49 16 11.05 13.82 13.24"/></svg>