
<svg width="65" height="65" viewBox="0 0 65 65" fill="none" xmlns="http://www.w3.org/2000/svg">
<path d="M30.5645 64.1896L39.1045 59.2296L30.5645 64.1996V64.1896Z" fill="#4473AC"/>
<path d="M30.5645 64.1996L39.1045 59.1996L30.5645 64.1996Z" fill="#4270A7"/>
<path d="M30.5645 64.2296L39.1045 59.2296L30.5645 64.2296Z" fill="#406DA3"/>
<path d="M30.5645 64.2596L39.1045 59.2596L30.5645 64.2596Z" fill="#3E6A9E"/>
<path d="M30.5645 64.2896L39.1045 59.2896L30.5645 64.2896Z" fill="#3C6699"/>
<path d="M30.5547 64.3196L39.0947 59.3196L30.5547 64.3196" fill="#3A6394"/>
<path d="M30.5444 64.3496L39.0844 59.3496L30.5444 64.3496Z" fill="#38608F"/>
<path d="M30.5444 64.3896L39.0844 59.3896L30.5444 64.3896Z" fill="#375D8B"/>
<path d="M30.5246 64.4196L39.0646 59.4196L30.4746 64.4596" fill="#355A86"/>
<path d="M30.4746 64.4597L39.0146 59.4597L30.4746 64.4597Z" fill="#335681"/>
<path d="M30.4745 64.4996L39.0145 59.4996C38.9885 59.5456 38.9505 59.5837 38.9045 59.6096L30.3745 64.6596C30.4209 64.6298 30.4588 64.5884 30.4845 64.5396" fill="#31537C"/>
<path d="M30.5845 56.4796L39.1245 51.5096L39.1045 59.2296L30.5645 64.1896L30.5845 56.4796Z" fill="#185A97"/>
<path d="M18.6646 29.5896L27.2046 24.5896C27.2794 24.5594 27.3606 24.5482 27.4408 24.5569C27.5211 24.5656 27.5979 24.5941 27.6646 24.6396L19.1246 29.6596C19.061 29.6081 18.9849 29.5745 18.9041 29.5622C18.8232 29.5499 18.7405 29.5594 18.6646 29.5896V29.5896Z" fill="#5EA0EF"/>
<path d="M18.6646 29.5896L27.2046 24.5896H27.2646L18.7246 29.5896H18.6646Z" fill="#5EA0EF"/>
<path d="M18.7246 29.5596L27.2646 24.5596L18.7246 29.5596Z" fill="#5EA0EF"/>
<path d="M18.7646 29.5497L27.3046 24.5497L18.7646 29.5497" fill="#5EA0EF"/>
<path d="M18.8047 29.5396L27.3447 24.5396L18.8047 29.5396" fill="#5EA0EF"/>
<path d="M18.8345 29.5396L27.3745 24.5396L18.8345 29.5396" fill="#5EA0EF"/>
<path d="M18.8647 29.5396L27.4047 24.5396H27.4747L18.9347 29.5396" fill="#5EA0EF"/>
<path d="M18.8945 29.5497L27.4345 24.5497H27.4745L18.9345 29.5497" fill="#5EA0EF"/>
<path d="M18.9243 29.5497L27.4643 24.5497H27.4743L18.9343 29.5497" fill="#5EA0EF"/>
<path d="M18.9446 29.5596L27.4846 24.5596H27.4746L18.9346 29.5596" fill="#5EA0EF"/>
<path d="M18.9746 29.5696L27.5146 24.5696L18.9746 29.5696Z" fill="#5EA0EF"/>
<path d="M19.0044 29.5696L27.5444 24.5696L19.0044 29.5696" fill="#5EA0EF"/>
<path d="M19.0244 29.5797L27.5644 24.5797L19.0244 29.5797" fill="#5EA0EF"/>
<path d="M19.0547 29.5896L27.5947 24.5896L19.0847 29.6596" fill="#5EA0EF"/>
<path d="M19.0845 29.6596L27.6145 24.6596L19.1045 29.6596" fill="#5EA0EF"/>
<path d="M19.1045 29.6596L27.6445 24.6596L19.1245 29.6596" fill="#5EA0EF"/>
<path d="M43.2546 51.2397L34.7246 56.2397C36.2446 55.3597 37.1946 53.4797 37.1946 50.7997L45.7346 45.7997C45.7346 48.4797 44.7846 50.3597 43.2546 51.2397Z" fill="#185A97"/>
<path d="M37.1948 50.7596L45.7348 45.7596L37.1948 50.7596Z" fill="#185A97"/>
<path d="M37.1948 50.7796L45.7348 45.7796C45.7348 45.9196 45.7348 46.0596 45.7348 46.1896L37.1948 51.1896C37.1948 51.0596 37.1948 50.9196 37.1948 50.7796Z" fill="#185A97"/>
<path d="M37.1846 51.1896L45.7246 46.1896C45.7246 46.3296 45.7246 46.4596 45.7246 46.5896L37.1846 51.5896C37.1846 51.4496 37.1846 51.3196 37.1846 51.1796" fill="#185A97"/>
<path d="M37.1646 51.5996L45.7045 46.5996C45.7045 46.7396 45.7045 46.8696 45.7045 47.0096L37.1646 52.0096C37.1646 51.8796 37.1646 51.7396 37.1646 51.6096" fill="#185A97"/>
<path d="M37.1245 51.9996L45.6645 46.9996L45.6045 47.4096L37.0645 52.4096L37.1245 51.9996Z" fill="#185A97"/>
<path d="M37.0646 52.4096L45.6046 47.4096L45.4746 47.8596L36.9346 52.8596L37.0246 52.4496" fill="#185A97"/>
<path d="M36.9747 52.8196L45.5147 47.8196C45.5147 47.9596 45.4447 48.1096 45.4047 48.2396L36.8647 53.2396C36.9085 53.1016 36.9452 52.9614 36.9747 52.8196Z" fill="#185A97"/>
<path d="M36.8648 53.2397L45.4048 48.2397C45.3654 48.3962 45.3153 48.5499 45.2548 48.6997L36.7148 53.6997C36.7753 53.5499 36.8254 53.3962 36.8648 53.2397" fill="#185A97"/>
<path d="M36.7146 53.6596L45.2546 48.6596C45.1946 48.8296 45.1246 48.9896 45.0546 49.1496L36.5146 54.1496C36.5846 53.9896 36.6546 53.8296 36.7146 53.6596Z" fill="#185A97"/>
<path d="M36.4748 54.1896L45.0148 49.1896C44.9148 49.3896 44.8048 49.5796 44.6948 49.7596L36.1548 54.7596C36.2732 54.5765 36.3801 54.3861 36.4748 54.1896" fill="#185A97"/>
<path d="M36.1946 54.7596L44.7346 49.7596C44.3675 50.3543 43.8591 50.8489 43.2546 51.1996L34.7246 56.1996C35.3262 55.8486 35.8313 55.3539 36.1946 54.7596" fill="#185A97"/>
<path d="M37.2048 44.4196L45.7448 39.4496L45.7348 45.7996L37.1948 50.7596L37.2048 44.4196Z" fill="#185A97"/>
<path d="M47.1347 40.0396L38.5947 45.0396C38.659 44.9934 38.7103 44.9314 38.7435 44.8596C38.7768 44.7878 38.791 44.7086 38.7847 44.6296L47.3247 39.6296C47.3301 39.7084 47.3154 39.7873 47.2822 39.859C47.249 39.9306 47.1983 39.9928 47.1347 40.0396V40.0396Z" fill="#185A97"/>
<path d="M38.7847 44.5797L47.3247 39.6197L38.7847 44.5897V44.5797Z" fill="#185A97"/>
<path d="M38.7847 44.5897L47.3247 39.5897L38.7847 44.5897Z" fill="#185A97"/>
<path d="M38.7849 44.6597L47.3249 39.6597L38.7749 44.6597" fill="#185A97"/>
<path d="M38.7749 44.6597L47.3149 39.6597L38.7749 44.6597Z" fill="#185A97"/>
<path d="M38.7749 44.6597L47.3149 39.6597L38.7749 44.6597Z" fill="#185A97"/>
<path d="M38.7749 44.7097L47.3149 39.7097L38.7749 44.7097Z" fill="#185A97"/>
<path d="M38.7646 44.7397L47.3046 39.7397L38.7646 44.7397Z" fill="#185A97"/>
<path d="M38.7549 44.7797L47.2949 39.7797L38.7549 44.7797Z" fill="#185A97"/>
<path d="M38.7446 44.8097L47.2846 39.8097L38.7446 44.8097Z" fill="#185A97"/>
<path d="M38.7246 44.8497L47.2646 39.8497C47.2646 39.8497 47.2646 39.8497 47.2646 39.8997L38.7246 44.8997" fill="#185A97"/>
<path d="M38.7047 44.8896L47.2447 39.8896L47.1347 39.9996L38.5947 44.9996C38.6386 44.971 38.676 44.9335 38.7047 44.8896Z" fill="#185A97"/>
<path d="M38.7947 41.7196L47.3247 36.7596V39.6196L38.7847 44.5796L38.7947 41.7196Z" fill="#185A97"/>
<path d="M19.1245 29.6296L27.6645 24.6696L46.6845 35.6496L38.1545 40.6096L19.1245 29.6296Z" fill="#5EA0EF"/>
<path d="M38.1445 40.6596L46.6845 35.6596C46.873 35.7791 47.0297 35.9425 47.1412 36.1359C47.2526 36.3292 47.3156 36.5467 47.3245 36.7696L38.7845 41.7696C38.7756 41.5467 38.7126 41.3292 38.6012 41.1359C38.4897 40.9425 38.333 40.7791 38.1445 40.6596Z" fill="#185A97"/>
<path d="M38.1548 40.6097L46.6848 35.6497L46.6948 35.6597L38.1548 40.6197V40.6097Z" fill="#185A97"/>
<path d="M38.1548 40.6597L46.6948 35.6597L38.1548 40.6597Z" fill="#185A97"/>
<path d="M38.1846 40.6597L46.7246 35.6597L38.1846 40.6597Z" fill="#185A97"/>
<path d="M38.2148 40.6597L46.7548 35.6597L38.2148 40.6597Z" fill="#185A97"/>
<path d="M38.2349 40.6597L46.7749 35.6597L38.2349 40.6597Z" fill="#185A97"/>
<path d="M38.2646 40.6597L46.8046 35.6597L38.2646 40.6597Z" fill="#185A97"/>
<path d="M38.2949 40.7197L46.8349 35.7197L38.2949 40.7197Z" fill="#185A97"/>
<path d="M38.3247 40.7397L46.8647 35.7397L38.3247 40.7397Z" fill="#185A97"/>
<path d="M38.355 40.7697L46.895 35.7697L38.365 40.7697" fill="#185A97"/>
<path d="M38.385 40.7997L46.915 35.7997L38.375 40.7997" fill="#185A97"/>
<path d="M38.4048 40.8196L46.9448 35.8196L38.4048 40.8196Z" fill="#185A97"/>
<path d="M38.4746 40.8497L47.0146 35.8497L38.4746 40.8497Z" fill="#185A97"/>
<path d="M38.4746 40.8797L47.0146 35.8797L38.4746 40.8797Z" fill="#185A97"/>
<path d="M38.4746 40.9097L47.0146 35.9097L38.4746 40.9097Z" fill="#185A97"/>
<path d="M38.4746 40.9496L47.0146 35.9496C47.0188 35.966 47.0188 35.9832 47.0146 35.9996L38.4746 40.9996V40.9396" fill="#185A97"/>
<path d="M38.5449 41.0096L47.0849 36.0096C47.1051 36.0339 47.1219 36.0608 47.1349 36.0896L38.5949 41.0896L38.5449 41.0196" fill="#185A97"/>
<path d="M38.5947 41.0797L47.1347 36.0797L38.5947 41.0797V41.0197Z" fill="#185A97"/>
<path d="M38.625 41.1396L47.165 36.1396L38.625 41.1396Z" fill="#185A97"/>
<path d="M38.645 41.1797L47.185 36.1797L38.645 41.1797Z" fill="#185A97"/>
<path d="M38.6646 41.2097L47.2045 36.2097L38.6646 41.2097Z" fill="#185A97"/>
<path d="M38.6748 41.2397L47.2148 36.2397L38.6748 41.2397Z" fill="#185A97"/>
<path d="M38.6948 41.2697L47.2348 36.2697L38.6948 41.2697Z" fill="#185A97"/>
<path d="M38.7046 41.2997L47.2446 36.2997L38.7046 41.2997Z" fill="#185A97"/>
<path d="M38.7148 41.3297L47.2548 36.3297L38.7148 41.3297Z" fill="#185A97"/>
<path d="M38.7246 41.3697L47.2646 36.3697L38.7246 41.3697Z" fill="#185A97"/>
<path d="M38.7349 41.3997L47.2749 36.3997L38.7349 41.3997Z" fill="#185A97"/>
<path d="M38.7446 41.4297L47.2846 36.4297L38.7446 41.4297Z" fill="#185A97"/>
<path d="M38.7549 41.4697L47.2949 36.4697L38.7549 41.4697Z" fill="#185A97"/>
<path d="M38.7646 41.4997L47.3046 36.4997L38.7646 41.4997Z" fill="#185A97"/>
<path d="M38.7749 41.5297L47.3149 36.5297L38.7749 41.5297Z" fill="#185A97"/>
<path d="M38.7749 41.5696L47.3149 36.5696L38.7749 41.5696Z" fill="#185A97"/>
<path d="M38.7847 41.5997L47.3247 36.5997L38.7847 41.5997Z" fill="#185A97"/>
<path d="M38.7847 41.6597L47.3247 36.6597L38.7847 41.6597Z" fill="#185A97"/>
<path d="M38.7847 41.6597L47.3247 36.6597L38.7847 41.6597Z" fill="#185A97"/>
<path d="M38.7847 41.6597L47.3247 36.6597L38.7847 41.6597Z" fill="#185A97"/>
<path d="M38.1446 40.6596C38.3331 40.7791 38.4898 40.9425 38.6012 41.1359C38.7127 41.3292 38.7756 41.5467 38.7846 41.7696V44.6396C38.7846 45.0396 38.4946 45.2096 38.1346 44.9996L37.2046 44.4697V50.7596C37.2046 55.3996 34.3646 57.6396 30.5946 56.4796V64.1896C30.5946 64.6096 30.3046 64.7796 29.9346 64.5696L27.6746 63.2696C27.4837 63.1462 27.3245 62.9796 27.2099 62.7833C27.0952 62.5871 27.0283 62.3666 27.0146 62.1396V54.4796C23.0946 51.3396 20.1546 45.6596 20.1746 40.9296V34.5896L19.1146 33.9696C18.9279 33.8483 18.7725 33.6845 18.6612 33.4915C18.55 33.2986 18.486 33.0821 18.4746 32.8596V29.9996C18.4746 29.5896 18.7646 29.4296 19.1146 29.6296L38.1446 40.6596Z" fill="#0078D4"/>
<path d="M18.7646 25.2996L27.3046 20.2996C27.3746 20.2593 27.4539 20.238 27.5346 20.238C27.6154 20.238 27.6947 20.2593 27.7646 20.2996L19.2246 25.2996C19.1547 25.2593 19.0754 25.238 18.9946 25.238C18.9139 25.238 18.8346 25.2593 18.7646 25.2996V25.2996Z" fill="#32BEDD"/>
<path d="M18.7646 25.2997L27.3046 20.2997H27.3546L18.8146 25.2997H18.7646" fill="#32BEDD"/>
<path d="M18.8145 25.2697L27.3545 20.2697L18.8145 25.2697" fill="#32BEDD"/>
<path d="M18.8647 25.2596L27.4047 20.2596H27.4747L18.9347 25.2596" fill="#32BEDD"/>
<path d="M18.9048 25.2596L27.4448 20.2596H27.4748L18.9348 25.2596" fill="#32BEDD"/>
<path d="M18.9346 25.2596L27.4746 20.2596L18.9346 25.2596" fill="#32BEDD"/>
<path d="M18.9648 25.2596L27.5048 20.2596L18.9648 25.2596" fill="#32BEDD"/>
<path d="M18.9946 25.2596L27.5346 20.2596L18.9946 25.2596" fill="#32BEDD"/>
<path d="M19.0244 25.2596L27.5644 20.2596L19.0244 25.2596" fill="#32BEDD"/>
<path d="M19.0444 25.2697L27.5844 20.2697L19.0444 25.2697" fill="#32BEDD"/>
<path d="M19.0747 25.2796L27.6147 20.2796L19.0747 25.2796" fill="#32BEDD"/>
<path d="M19.0947 25.2796L27.6347 20.2796L19.0947 25.2796" fill="#32BEDD"/>
<path d="M19.1245 25.2896L27.6645 20.2896L19.1345 25.2896" fill="#32BEDD"/>
<path d="M19.1545 25.3096L27.6845 20.3096L19.1445 25.3096" fill="#32BEDD"/>
<path d="M19.1748 25.3196L27.7148 20.3196L19.1748 25.3196" fill="#32BEDD"/>
<path d="M19.2046 25.3297L27.7446 20.3297L19.2046 25.3297" fill="#32BEDD"/>
<path d="M19.2246 25.3396L27.7646 20.3796L28.6846 20.9096L20.1446 25.8696L19.2246 25.3396Z" fill="#32BEDD"/>
<path d="M47.2246 35.7497L38.6846 40.7497C38.7512 40.7033 38.804 40.6398 38.8374 40.5658C38.8709 40.4919 38.8837 40.4103 38.8746 40.3297L47.4146 35.3297C47.426 35.4105 47.4143 35.4929 47.3806 35.5673C47.347 35.6416 47.2928 35.7049 47.2246 35.7497V35.7497Z" fill="#9CEBFF"/>
<path d="M38.8745 40.2996L47.4145 35.3396L38.8745 40.3096V40.2996Z" fill="#9CEBFF"/>
<path d="M38.8745 40.3096L47.4145 35.3096L38.8745 40.3096Z" fill="#9CEBFF"/>
<path d="M38.8745 40.3396L47.4145 35.3396L38.8745 40.3396Z" fill="#9CEBFF"/>
<path d="M38.8745 40.3696L47.4145 35.3696L38.8845 40.3696" fill="#9CEBFF"/>
<path d="M38.8747 40.3996L47.4047 35.3996L38.8647 40.3996" fill="#9CEBFF"/>
<path d="M38.8647 40.4296L47.4047 35.4296L38.8647 40.4296Z" fill="#9CEBFF"/>
<path d="M38.8545 40.4596L47.3945 35.4596L38.8545 40.4596Z" fill="#9CEBFF"/>
<path d="M38.8545 40.4896L47.3945 35.4896L38.8545 40.4896Z" fill="#9CEBFF"/>
<path d="M38.8345 40.5296L47.3745 35.5296L38.8345 40.5296Z" fill="#9CEBFF"/>
<path d="M38.8247 40.5696L47.3647 35.5696V35.6196L38.8247 40.6196" fill="#9CEBFF"/>
<path d="M38.7946 40.6596L47.3346 35.6596C47.308 35.7026 47.2699 35.7373 47.2246 35.7596L38.6846 40.7596C38.7329 40.7369 38.7718 40.698 38.7946 40.6496" fill="#9CEBFF"/>
<path d="M38.8845 37.4296L47.4245 32.4696L47.4145 35.3396L38.8745 40.2996L38.8845 37.4296Z" fill="#C3F1FF"/>
<path d="M37.1646 35.6997L45.7045 30.7397L46.7845 31.3597L38.2446 36.3197L37.1646 35.6997Z" fill="#32BEDD"/>
<path d="M38.2446 36.3196L46.7846 31.3196C46.9837 31.4416 47.1504 31.6099 47.2706 31.8101C47.3907 32.0103 47.4607 32.2366 47.4746 32.4696L38.9346 37.4696C38.9233 37.2359 38.8543 37.0087 38.7339 36.8081C38.6136 36.6074 38.4455 36.4396 38.2446 36.3196V36.3196Z" fill="#C3F1FF"/>
<path d="M38.2446 36.3196L46.7846 31.3596L46.7946 31.3696L38.2446 36.3296V36.3196Z" fill="#C3F1FF"/>
<path d="M38.2546 36.3296L46.7846 31.3297L38.2446 36.3296" fill="#C3F1FF"/>
<path d="M38.2744 36.3397L46.8144 31.3397L38.2744 36.3397Z" fill="#C3F1FF"/>
<path d="M38.3047 36.3596L46.8447 31.3596L38.3047 36.3596Z" fill="#C3F1FF"/>
<path d="M38.3345 36.3796L46.8745 31.3796L38.3345 36.3796Z" fill="#C3F1FF"/>
<path d="M38.3545 36.3997L46.8945 31.3997L38.3545 36.3997Z" fill="#C3F1FF"/>
<path d="M38.3848 36.4297L46.9248 31.4297L38.3848 36.4297Z" fill="#C3F1FF"/>
<path d="M38.4146 36.4496L46.9545 31.4496L38.4146 36.4496Z" fill="#C3F1FF"/>
<path d="M38.4746 36.4796L47.0146 31.4796L38.4746 36.4796Z" fill="#C3F1FF"/>
<path d="M38.4746 36.4997L47.0146 31.4997L38.4746 36.4997Z" fill="#C3F1FF"/>
<path d="M38.4746 36.5297L47.0146 31.5297L38.4746 36.5297Z" fill="#C3F1FF"/>
<path d="M38.5244 36.5597L47.0644 31.5597L38.5244 36.5597Z" fill="#C3F1FF"/>
<path d="M38.5444 36.5897L47.0844 31.5897L38.5744 36.6597" fill="#C3F1FF"/>
<path d="M38.5747 36.6596L47.1147 31.6596L38.5847 36.6596" fill="#C3F1FF"/>
<path d="M38.6045 36.6596L47.1345 31.6596L47.1845 31.7196L38.6445 36.7196" fill="#C3F1FF"/>
<path d="M38.6445 36.7097L47.1845 31.7097C47.1845 31.7097 47.1845 31.7597 47.1845 31.7897L38.6445 36.7897C38.6445 36.7897 38.6445 36.7397 38.6445 36.7097Z" fill="#C3F1FF"/>
<path d="M38.6846 36.7896L47.2246 31.7896V31.8496L38.6846 36.8496V36.7896" fill="#C3F1FF"/>
<path d="M38.7246 36.8496L47.2646 31.8496L38.7246 36.8496Z" fill="#C3F1FF"/>
<path d="M38.7446 36.8896L47.2846 31.8896L38.7446 36.8896Z" fill="#C3F1FF"/>
<path d="M38.7544 36.9196L47.2944 31.9196L38.7544 36.9196Z" fill="#C3F1FF"/>
<path d="M38.7744 36.9496L47.3144 31.9496L38.7744 36.9496Z" fill="#C3F1FF"/>
<path d="M38.7847 36.9796L47.3247 31.9796L38.7847 36.9796Z" fill="#C3F1FF"/>
<path d="M38.7944 37.0197L47.3344 32.0197L38.7944 37.0197Z" fill="#C3F1FF"/>
<path d="M38.8145 37.0497L47.3545 32.0497L38.8145 37.0497Z" fill="#C3F1FF"/>
<path d="M38.8247 37.0796L47.3647 32.0797L38.8247 37.0796Z" fill="#C3F1FF"/>
<path d="M38.8345 37.1096L47.3745 32.1096L38.8345 37.1096Z" fill="#C3F1FF"/>
<path d="M38.8447 37.1497L47.3847 32.1497L38.8447 37.1497Z" fill="#C3F1FF"/>
<path d="M38.8545 37.1797L47.3945 32.1797L38.8545 37.1797Z" fill="#C3F1FF"/>
<path d="M38.8545 37.2197L47.3945 32.2197L38.8545 37.2197Z" fill="#C3F1FF"/>
<path d="M38.8647 37.2497L47.4047 32.2497L38.8647 37.2497Z" fill="#C3F1FF"/>
<path d="M38.8745 37.2797L47.4145 32.2797L38.8745 37.2797Z" fill="#C3F1FF"/>
<path d="M38.8745 37.3097L47.4145 32.3097L38.8745 37.3097Z" fill="#C3F1FF"/>
<path d="M38.8745 37.3397L47.4145 32.3397L38.8745 37.3397Z" fill="#C3F1FF"/>
<path d="M38.8848 37.3697L47.4248 32.3697L38.8848 37.3697Z" fill="#C3F1FF"/>
<path d="M38.8848 37.4096L47.4248 32.4096L38.8848 37.4096Z" fill="#C3F1FF"/>
<path d="M22.6348 14.0897L31.1748 9.08966C31.804 8.75242 32.4981 8.55384 33.2105 8.50726C33.9229 8.46069 34.637 8.56721 35.3048 8.81966L26.7648 13.8197C26.096 13.5723 25.3826 13.4685 24.671 13.515C23.9595 13.5615 23.2657 13.7573 22.6348 14.0897V14.0897Z" fill="#32BEDD"/>
<path d="M22.6348 14.0897L31.1748 9.08965C31.3963 8.95881 31.6309 8.85156 31.8748 8.76965L23.3348 13.7697C23.0909 13.8516 22.8563 13.9588 22.6348 14.0897" fill="#32BEDD"/>
<path d="M23.335 13.7697L31.875 8.76967C32.0719 8.71778 32.2725 8.68101 32.475 8.65967L23.925 13.6597C23.7245 13.6979 23.5273 13.7514 23.335 13.8197" fill="#32BEDD"/>
<path d="M23.9248 13.6597L32.4748 8.65966L32.9648 8.58966L24.4248 13.5897C24.2596 13.5975 24.0956 13.621 23.9348 13.6597" fill="#32BEDD"/>
<path d="M24.4146 13.5396L32.9545 8.53964H33.3846L24.8446 13.5396C24.7014 13.5297 24.5577 13.5297 24.4146 13.5396" fill="#32BEDD"/>
<path d="M24.8447 13.5197L33.3847 8.51965H33.7947L25.2547 13.5197C25.1182 13.5097 24.9812 13.5097 24.8447 13.5197Z" fill="#32BEDD"/>
<path d="M25.2549 13.5297L33.7949 8.52966C33.9214 8.51982 34.0484 8.51982 34.1749 8.52966L25.6349 13.5297H25.2549" fill="#32BEDD"/>
<path d="M25.6348 13.5697L34.1748 8.65967C34.2962 8.66989 34.4166 8.68995 34.5348 8.71967L26.0048 13.6597L25.6348 13.5997" fill="#32BEDD"/>
<path d="M26.0049 13.6597L34.5349 8.65967L34.8949 8.72967L26.3549 13.7297L26.0049 13.6597Z" fill="#32BEDD"/>
<path d="M26.355 13.7097L34.895 8.70966L35.245 8.80966L26.705 13.8097L26.355 13.7197" fill="#32BEDD"/>
<path d="M26.7046 13.7997L35.2446 8.79965H35.3046L26.7646 13.7997H26.7046" fill="#32BEDD"/>
<path d="M37.1845 29.3697L45.7246 24.3997L45.7045 30.7397L37.1646 35.6997L37.1845 29.3697Z" fill="#C3F1FF"/>
<path d="M30.3447 15.8096L38.8847 10.8096C42.7947 13.9496 45.7347 19.6196 45.7247 24.3596L37.1847 29.3596C37.2047 24.6596 34.2547 18.9496 30.3447 15.8096Z" fill="#C3F1FF"/>
<path d="M30.3447 15.8096L38.8847 10.8096L39.1647 11.0396L30.6247 16.0396L30.3447 15.8096Z" fill="#C3F1FF"/>
<path d="M30.6245 16.0396L39.1645 11.0396L39.5445 11.3696L31.0045 16.3696L30.6245 16.0396" fill="#C3F1FF"/>
<path d="M31.0049 16.3696L39.5449 11.3696L39.9249 11.7196L31.3849 16.7196L31.0049 16.3696" fill="#C3F1FF"/>
<path d="M31.3848 16.7196L39.9248 11.7196L40.2848 12.0696L31.7448 17.0696L31.3848 16.7096" fill="#C3F1FF"/>
<path d="M31.7446 17.0796L40.2846 12.0796L40.6246 12.4496L32.0846 17.4496L31.7446 17.0896" fill="#C3F1FF"/>
<path d="M32.085 17.4396L40.625 12.4396C40.745 12.5596 40.855 12.6796 40.965 12.8096L32.425 17.8096C32.315 17.6796 32.205 17.5596 32.085 17.4396" fill="#C3F1FF"/>
<path d="M32.4746 17.8096L41.0146 12.8096C41.1246 12.9296 41.2346 13.0596 41.3346 13.1896L32.7946 18.1896C32.6946 18.0596 32.5846 17.9396 32.4746 17.8096" fill="#C3F1FF"/>
<path d="M32.7446 18.1896L41.2846 13.1896L41.6146 13.5896L33.0746 18.5896L32.7446 18.1896" fill="#C3F1FF"/>
<path d="M33.0747 18.5896L41.6147 13.5896L41.9747 14.0696L33.4447 19.0696L33.0747 18.5896" fill="#C3F1FF"/>
<path d="M33.4746 19.0696L42.0046 14.0696C42.1846 14.2996 42.3446 14.5396 42.5046 14.7796L33.9646 19.7796L33.4746 19.0696Z" fill="#C3F1FF"/>
<path d="M33.9346 19.7796L42.4746 14.7796C42.7146 15.1296 42.9446 15.4796 43.1546 15.8496L34.6146 20.8496C34.4046 20.4896 34.1746 20.1296 33.9346 19.7796Z" fill="#C3F1FF"/>
<path d="M34.6147 20.8496L43.1547 15.8496C43.3047 16.0996 43.4547 16.3596 43.5847 16.6196L35.0447 21.6196C34.9147 21.3596 34.7647 21.1096 34.6147 20.8496Z" fill="#C3F1FF"/>
<path d="M35.0449 21.6596L43.5849 16.6596C43.6849 16.8296 43.7749 17.0096 43.8549 17.1796L35.3149 22.1796C35.2349 22.0096 35.1449 21.8396 35.0449 21.6596Z" fill="#C3F1FF"/>
<path d="M35.3149 22.1396L43.8549 17.1396L44.0649 17.5696L35.5249 22.5696L35.3149 22.1296" fill="#C3F1FF"/>
<path d="M35.5249 22.5796L44.0649 17.5796C44.1349 17.7196 44.1949 17.8596 44.2549 17.9996L35.7149 22.9996C35.6549 22.8596 35.5949 22.7196 35.5249 22.5896" fill="#C3F1FF"/>
<path d="M35.7148 22.9896L44.2548 17.9896C44.3148 18.1196 44.3748 18.2596 44.4248 18.3896L35.8848 23.3896C35.8348 23.2496 35.7748 23.1196 35.7148 22.9796" fill="#C3F1FF"/>
<path d="M35.8848 23.3996L44.4248 18.3996C44.4848 18.5396 44.5448 18.6796 44.5948 18.8196L36.0548 23.8196C36.0548 23.6796 35.9448 23.5396 35.8848 23.4096" fill="#C3F1FF"/>
<path d="M36.0547 23.8096L44.5947 18.8096C44.6447 18.9396 44.7047 19.0796 44.7547 19.2196L36.2147 24.2196L36.0547 23.7996" fill="#C3F1FF"/>
<path d="M36.2148 24.2296L44.7548 19.2296L44.9048 19.6696L36.3648 24.6696L36.2148 24.2396" fill="#C3F1FF"/>
<path d="M36.3647 24.6596L44.9047 19.6596C44.9547 19.7996 44.9947 19.9496 45.0447 20.0996L36.5047 25.0996L36.3647 24.6596Z" fill="#C3F1FF"/>
<path d="M36.4746 25.0996L45.0146 20.0996C45.0646 20.2496 45.1046 20.3996 45.1446 20.5496L36.6046 25.5496C36.6046 25.3996 36.5246 25.2496 36.4746 25.0996Z" fill="#C3F1FF"/>
<path d="M36.6348 25.5496L45.1748 20.5496L45.2948 20.9996L36.7548 25.9996L36.6348 25.5496Z" fill="#C3F1FF"/>
<path d="M36.7549 25.9996L45.2949 20.9996C45.2949 21.1496 45.3649 21.2996 45.3949 21.4496L36.8549 26.4496C36.8549 26.2996 36.7949 26.1496 36.7549 25.9996Z" fill="#C3F1FF"/>
<path d="M36.8545 26.4496L45.3945 21.4496C45.434 21.5908 45.4641 21.7345 45.4845 21.8796L36.9445 26.8796C36.9241 26.7312 36.8941 26.5842 36.8545 26.4396" fill="#C3F1FF"/>
<path d="M36.9448 26.8896L45.4848 21.8896C45.4848 22.0396 45.4848 22.1796 45.5648 22.3296L37.0248 27.3296C37.0248 27.1896 36.9748 27.0396 36.9448 26.8996" fill="#C3F1FF"/>
<path d="M37.0249 27.3196L45.5649 22.3196L45.6249 22.7396L37.0849 27.7396L37.0249 27.3196Z" fill="#C3F1FF"/>
<path d="M37.085 27.7396L45.625 22.7396C45.625 22.8796 45.625 23.0196 45.625 23.1596L37.085 28.1596C37.085 28.0196 37.085 27.8796 37.085 27.7396Z" fill="#C3F1FF"/>
<path d="M37.1245 28.1596L45.6645 23.1596C45.6645 23.2996 45.6645 23.4296 45.6645 23.5696L37.1245 28.5696C37.1245 28.4396 37.1245 28.2996 37.1245 28.1596Z" fill="#C3F1FF"/>
<path d="M37.1646 28.5696L45.7045 23.5696C45.7045 23.7096 45.7045 23.8396 45.7045 23.9796L37.1646 28.9796C37.1646 28.8496 37.1646 28.7096 37.1646 28.5696Z" fill="#C3F1FF"/>
<path d="M37.1846 28.9796L45.7246 23.9796V24.3596L37.1846 29.3596V28.9696" fill="#C3F1FF"/>
<path d="M26.9746 5.65964L35.4746 0.659645C35.5476 0.617516 35.6304 0.595337 35.7146 0.595337C35.7989 0.595337 35.8816 0.617516 35.9546 0.659645L27.4746 5.71964C27.405 5.66431 27.3214 5.6294 27.2331 5.61881C27.1448 5.60821 27.0553 5.62235 26.9746 5.65964Z" fill="#C3F1FF"/>
<path d="M26.9746 5.65964L35.4746 0.659637H35.5246L27.0246 5.65964H26.9746Z" fill="#C3F1FF"/>
<path d="M27.0244 5.65964L35.5644 0.659637H35.6144L27.0744 5.65964" fill="#C3F1FF"/>
<path d="M27.0747 5.65964L35.6147 0.659637L27.1147 5.65964" fill="#C3F1FF"/>
<path d="M27.1147 5.65964L35.6547 0.659637L27.1447 5.65964" fill="#C3F1FF"/>
<path d="M27.1445 5.65964L35.6845 0.659637L27.1745 5.65964" fill="#C3F1FF"/>
<path d="M27.1748 5.65964L35.7148 0.659637L27.2048 5.65964" fill="#C3F1FF"/>
<path d="M27.2046 5.65964L35.7446 0.659637L27.2346 5.65964" fill="#C3F1FF"/>
<path d="M27.2344 5.65964L35.7744 0.659637L27.2644 5.65964" fill="#C3F1FF"/>
<path d="M27.2646 5.65964L35.8046 0.659637L27.2946 5.65964" fill="#C3F1FF"/>
<path d="M27.2944 5.65964L35.8344 0.659637L27.3144 5.65964" fill="#C3F1FF"/>
<path d="M27.3145 5.65964L35.8545 0.659637L27.3445 5.65964" fill="#C3F1FF"/>
<path d="M27.3447 5.65964L35.8847 0.659637L27.3747 5.65964" fill="#C3F1FF"/>
<path d="M27.3745 5.65964L35.9145 0.659637L27.4045 5.65964" fill="#C3F1FF"/>
<path d="M27.4048 5.65964L35.9448 0.659637L27.4748 5.65964" fill="#C3F1FF"/>
<path d="M27.4746 5.65964L36.0046 0.659637L27.4746 5.71964V5.65964Z" fill="#C3F1FF"/>
<path d="M27.4546 5.71963L35.9946 0.749634L38.2446 2.04963L29.7046 7.01963L27.4546 5.71963Z" fill="#C3F1FF"/>
<path d="M30.3647 8.15964L38.9047 3.18964L38.8847 10.8496L30.3447 15.8096L30.3647 8.15964Z" fill="#32BEDD"/>
<path d="M29.7046 7.01965L38.2446 2.01965C38.4368 2.14407 38.5968 2.31223 38.7115 2.51038C38.8262 2.70853 38.8924 2.93102 38.9046 3.15965L30.3646 8.15965C30.3532 7.93083 30.2874 7.70803 30.1726 7.50976C30.0578 7.31149 29.8974 7.14347 29.7046 7.01965V7.01965Z" fill="#C3F1FF"/>
<path d="M29.7046 7.01965L38.2446 2.04965V2.05965L29.7046 7.01965Z" fill="#C3F1FF"/>
<path d="M29.7046 7.01965L38.2446 2.01965L29.7046 7.01965Z" fill="#C3F1FF"/>
<path d="M29.7344 7.03964L38.2744 2.03964L29.7344 7.03964" fill="#C3F1FF"/>
<path d="M29.7646 7.05966L38.3046 2.05966L29.7646 7.05966Z" fill="#C3F1FF"/>
<path d="M29.7944 7.07965L38.3344 2.07965L29.7944 7.07965Z" fill="#C3F1FF"/>
<path d="M29.8247 7.09964L38.3647 2.09964L29.8247 7.09964" fill="#C3F1FF"/>
<path d="M29.8545 7.11966L38.3945 2.11966L29.8545 7.11966" fill="#C3F1FF"/>
<path d="M29.8848 7.14966L38.4248 2.14966L29.8848 7.14966Z" fill="#C3F1FF"/>
<path d="M29.9146 7.17966L38.4546 2.17966L29.9146 7.17966" fill="#C3F1FF"/>
<path d="M29.9448 7.20966L38.4848 2.20966L29.9448 7.20966" fill="#C3F1FF"/>
<path d="M29.9746 7.23965L38.5146 2.23965L29.9746 7.23965Z" fill="#C3F1FF"/>
<path d="M29.9946 7.25964L38.5346 2.25964L29.9946 7.25964Z" fill="#C3F1FF"/>
<path d="M30.0244 7.28964L38.5644 2.28964L30.0244 7.28964Z" fill="#C3F1FF"/>
<path d="M30.0444 7.32965L38.5844 2.32965L30.0444 7.32965Z" fill="#C3F1FF"/>
<path d="M30.0747 7.35965L38.6147 2.35965L38.6647 2.41965L30.1247 7.41965L30.0747 7.35965Z" fill="#C3F1FF"/>
<path d="M30.1245 7.41965L38.6645 2.41965C38.6597 2.44609 38.6597 2.4732 38.6645 2.49965L30.1245 7.49965C30.1212 7.46974 30.1212 7.43956 30.1245 7.40965" fill="#C3F1FF"/>
<path d="M30.1748 7.50964L38.7148 2.50964V2.56964L30.1748 7.56964V7.51964" fill="#C3F1FF"/>
<path d="M30.2046 7.55966L38.7446 2.55966L30.2046 7.55966Z" fill="#C3F1FF"/>
<path d="M30.2246 7.59964L38.7646 2.59964V2.65964L30.2346 7.65964" fill="#C3F1FF"/>
<path d="M30.2344 7.65967L38.7744 2.65967L30.2544 7.65967" fill="#C3F1FF"/>
<path d="M30.2544 7.65967L38.7944 2.65967L30.2644 7.65967" fill="#C3F1FF"/>
<path d="M30.2646 7.65967L38.8046 2.65967L30.2646 7.65967Z" fill="#C3F1FF"/>
<path d="M30.2744 7.72964L38.8144 2.72964L30.2744 7.72964Z" fill="#C3F1FF"/>
<path d="M30.2944 7.75964L38.8344 2.75964L30.2944 7.75964Z" fill="#C3F1FF"/>
<path d="M30.3047 7.78964L38.8447 2.78964L30.3047 7.78964" fill="#C3F1FF"/>
<path d="M30.3145 7.82965L38.8545 2.82965L30.3145 7.82965Z" fill="#C3F1FF"/>
<path d="M30.3247 7.85965L38.8647 2.85965L30.3247 7.85965" fill="#C3F1FF"/>
<path d="M30.3345 7.88965L38.8745 2.88965L30.3345 7.88965Z" fill="#C3F1FF"/>
<path d="M30.3447 7.92966L38.8847 2.92966L30.3447 7.92966" fill="#C3F1FF"/>
<path d="M30.3447 7.95966L38.8847 2.95966L30.3447 7.95966" fill="#C3F1FF"/>
<path d="M30.3545 7.99966L38.8945 2.99966L30.3545 7.99966" fill="#C3F1FF"/>
<path d="M30.3545 8.02966L38.8945 3.02966L30.3545 8.02966" fill="#C3F1FF"/>
<path d="M30.3647 8.05966L38.9047 3.05966L30.3647 8.05966Z" fill="#C3F1FF"/>
<path d="M30.3647 8.08966L38.9047 3.08966L30.3647 8.08966Z" fill="#C3F1FF"/>
<path d="M30.3647 8.12964L38.9047 3.12964L30.3647 8.12964Z" fill="#C3F1FF"/>
<path d="M29.7045 7.01965C29.8972 7.14347 30.0577 7.31149 30.1724 7.50976C30.2872 7.70803 30.3531 7.93083 30.3645 8.15965V15.8097C34.2745 18.9497 37.2245 24.6197 37.2045 29.3697V35.6997L38.2845 36.3197C38.4707 36.4416 38.6256 36.6056 38.7368 36.7984C38.8479 36.9912 38.9122 37.2074 38.9245 37.4297V40.2997C38.9245 40.7097 38.6345 40.8797 38.2845 40.6697L19.2045 29.6597C19.0188 29.5372 18.8643 29.373 18.7532 29.1803C18.6421 28.9877 18.5775 28.7717 18.5645 28.5497V25.7097C18.5645 25.3097 18.8545 25.1397 19.2145 25.3397L20.1345 25.8697V19.5397C20.1345 14.8997 22.9645 12.6497 26.7345 13.8197V6.08965C26.7345 5.66965 27.0345 5.49965 27.4045 5.71965L29.7045 7.01965Z" fill="#50E6FF"/>
</svg>
