<svg width="42" height="42" viewBox="0 0 42 42" fill="none" xmlns="http://www.w3.org/2000/svg">
<path d="M35.2147 15.831C35.2147 17.029 34.9859 18.1867 34.5282 19.3039C34.0705 20.4077 33.4177 21.3836 32.5696 22.2317L28.2891 26.492L15.508 13.7109L19.7684 9.43039C20.6164 8.58236 21.599 7.94297 22.7163 7.51222C23.8335 7.08147 24.9844 6.8661 26.169 6.8661C27.1382 6.8661 28.0872 7.01417 29.016 7.31031C29.9448 7.59299 30.7995 8.017 31.5803 8.58236L38.1828 2L40 3.81722L33.4177 10.4198C34.0099 11.2005 34.4542 12.0553 34.7503 12.9841C35.0599 13.8994 35.2147 14.8484 35.2147 15.831Z" fill="#0078D4"/>
<path d="M6.78533 26.1688C6.78533 24.9573 7.01417 23.7997 7.47184 22.6959C7.92951 21.5921 8.58236 20.6162 9.43039 19.7682L13.6908 15.5078L26.492 28.3091L22.2317 32.5695C21.3836 33.4175 20.4077 34.0703 19.3039 34.528C18.2001 34.9857 17.0425 35.2145 15.831 35.2145C14.8484 35.2145 13.8927 35.0664 12.9639 34.7703C12.0485 34.4607 11.2005 34.0098 10.4198 33.4175L3.81722 39.9998L2 38.1826L8.58236 31.5801C7.99008 30.7993 7.53914 29.9513 7.22954 29.036C6.9334 28.1072 6.78533 27.1515 6.78533 26.1688Z" fill="#50E6FF"/>
</svg>
