<svg width="47" height="47" viewBox="0 0 47 47" fill="none" xmlns="http://www.w3.org/2000/svg">
<path d="M41.7123 26.9473H5.44336V37.8293C5.44336 42.5715 13.5839 46.417 23.6304 46.417C33.6768 46.417 41.8092 42.5715 41.8092 37.8293C41.8092 37.8293 41.7931 27.02 41.7123 26.9473Z" fill="#0078D7"/>
<path d="M41.7931 25.0146L41.8173 34.5315C41.8173 39.2737 33.6768 43.1191 23.6304 43.1191C13.5839 43.1191 5.44336 39.2656 5.44336 34.5315V25.0146H41.7931Z" fill="#50E6FF"/>
<path d="M41.7123 15.1895H5.44336V26.0716C5.44336 30.8138 13.5839 34.6592 23.6304 34.6592C33.6768 34.6592 41.8173 30.8138 41.8173 26.0716C41.8092 26.0716 41.7931 15.2622 41.7123 15.1895Z" fill="#0078D7"/>
<path d="M41.8092 8.45312H5.44336V17.469C5.44336 22.2113 13.5839 26.0567 23.6303 26.0567C33.6768 26.0567 41.8092 22.2113 41.8092 17.469C41.8092 17.469 41.8092 8.52583 41.8092 8.45312Z" fill="#50E6FF"/>
<path d="M23.6303 17.396C33.6747 17.396 41.8173 13.5982 41.8173 8.91336C41.8173 4.2285 33.6747 0.430664 23.6303 0.430664C13.5859 0.430664 5.44336 4.2285 5.44336 8.91336C5.44336 13.5982 13.5859 17.396 23.6303 17.396Z" fill="#0078D7"/>
</svg>
