<svg width="92" height="92" viewBox="0 0 92 92" fill="none" xmlns="http://www.w3.org/2000/svg">
<g clip-path="url(#clip0)">
<path d="M52.362 73.7779L50.1678 72.8711H30.5187L25.2495 87.3598L15.738 61.1914L11.4873 72.8711H3.83643V78.579C3.83643 85.9854 15.8426 91.9896 30.6682 91.9896C39.5024 91.9896 47.3405 89.8613 52.2244 86.5583L51.6924 85.2288L50.2464 81.6646L48.8243 78.1256L52.3591 76.6838L53.6914 76.1405C53.6731 75.8331 53.6661 75.5341 53.6661 75.2309C53.6661 74.9277 53.6731 74.6202 53.6914 74.3212L52.362 73.7779Z" fill="#0072C6"/>
<path d="M42.1654 42.161C39.5984 42.1738 37.0558 41.6611 34.6943 40.6547C31.3158 39.2426 28.4189 36.8816 26.3543 33.8574H3.83643V69.0396H8.80601L15.738 49.9717L25.2495 76.1401L27.8374 69.0396H50.1636L50.2576 68.7926L51.6993 65.2284L53.1453 61.6473L56.7137 63.1157L57.497 63.4413V42.161H42.1654Z" fill="#0072C6"/>
<path d="M15.738 49.9717L25.2495 76.1401L27.8374 69.0396H30.6682V38.3552C29.9367 37.8104 29.2459 37.2132 28.6011 36.5682C27.7702 35.7357 27.0181 34.8283 26.3542 33.8574H3.83643V69.0396H8.80601L15.738 49.9717Z" fill="#3C9BE4"/>
<path d="M30.5187 72.8711L25.2495 87.3598L15.738 61.1914L11.4873 72.8711H3.83643V78.579C3.83643 85.9854 15.8426 91.9896 30.6682 91.9896V72.8711H30.5187Z" fill="#3C9BE4"/>
<path d="M42.1654 42.1604C39.5983 42.1733 37.0558 41.6606 34.6943 40.6542C32.4179 39.6991 30.3486 38.3113 28.6011 36.5677C26.8619 34.8192 25.4727 32.7546 24.5083 30.4849C23.5006 28.1168 22.9871 25.5678 22.9992 22.9942C22.999 22.3233 23.0327 21.6528 23.1003 20.9854C11.9701 22.6222 3.83643 27.7644 3.83643 33.8569C3.83643 41.2676 15.8461 47.276 30.6682 47.276C39.2181 47.276 46.8275 45.2727 51.7372 42.1605L42.1654 42.1604Z" fill="#B8D432"/>
<path d="M84.3322 74.9008C84.3289 76.0223 84.1879 77.1392 83.9124 78.2264L88.0101 79.8997L86.5755 83.4654L82.4371 81.7569C81.2975 83.6806 79.6949 85.2885 77.775 86.4344L79.482 90.528L75.9177 92.0006L74.2317 87.8987C72.05 88.4545 69.7637 88.4545 67.582 87.8987L65.9071 92.0006L62.3457 90.528L64.0499 86.4344C62.1151 85.3041 60.5053 83.6928 59.3767 81.7569L55.2425 83.4654L53.812 79.8997L57.9125 78.2264C57.6384 77.1391 57.4988 76.0222 57.4969 74.9008C57.4977 73.78 57.6411 72.6639 57.9237 71.5793L53.8147 69.8976L55.2495 66.3361L59.3879 68.0361C60.5288 66.1134 62.1342 64.508 64.0569 63.3671L62.3499 59.2329L65.9183 57.7939L67.5932 61.8944C69.7742 61.3405 72.0591 61.3405 74.2402 61.8944L75.9206 57.7939L79.4862 59.2329L77.782 63.3671C79.6895 64.5266 81.2899 66.128 82.4483 68.0361L86.5824 66.3361L88.0172 69.8976L83.9209 71.5793C84.189 72.6663 84.327 73.7812 84.3322 74.9008ZM70.9145 84.4846C72.1911 84.4934 73.4558 84.2382 74.629 83.7349C75.7638 83.2518 76.7951 82.555 77.6669 81.6826C78.5425 80.8036 79.2437 79.7666 79.7333 78.6265C80.2371 77.4515 80.4969 76.1863 80.4969 74.9078C80.4969 73.6293 80.2371 72.3642 79.7333 71.1891C78.7424 68.9002 76.9175 67.0741 74.629 66.082C73.458 65.5703 72.1925 65.3101 70.9145 65.3184C69.6317 65.3115 68.3615 65.5716 67.1846 66.082C66.0456 66.5734 65.0089 67.2743 64.1285 68.1484C63.2555 69.0199 62.5599 70.0526 62.0804 71.1891C61.5856 72.3665 61.3307 73.6307 61.3307 74.9078C61.3307 76.1849 61.5856 77.4492 62.0804 78.6265C63.0449 80.9335 64.8784 82.7685 67.1846 83.7349C68.3637 84.2369 69.6331 84.492 70.9145 84.4846Z" fill="#0072C6"/>
<path opacity="0.5" d="M84.3322 74.9008C84.3289 76.0223 84.1879 77.1392 83.9124 78.2264L88.0101 79.8997L86.5755 83.4654L82.4371 81.7569C81.2975 83.6806 79.6949 85.2885 77.775 86.4344L79.482 90.528L75.9177 92.0006L74.2317 87.8987C72.05 88.4545 69.7637 88.4545 67.582 87.8987L65.9071 92.0006L62.3457 90.528L64.0499 86.4344C62.1151 85.3041 60.5053 83.6928 59.3767 81.7569L55.2425 83.4654L53.812 79.8997L57.9125 78.2264C57.6384 77.1391 57.4988 76.0222 57.4969 74.9008C57.4977 73.78 57.6411 72.6639 57.9237 71.5793L53.8147 69.8976L55.2495 66.3361L59.3879 68.0361C60.5288 66.1134 62.1342 64.508 64.0569 63.3671L62.3499 59.2329L65.9183 57.7939L67.5932 61.8944C69.7742 61.3405 72.0591 61.3405 74.2402 61.8944L75.9206 57.7939L79.4862 59.2329L77.782 63.3671C79.6895 64.5266 81.2899 66.128 82.4483 68.0361L86.5824 66.3361L88.0172 69.8976L83.9209 71.5793C84.189 72.6663 84.327 73.7812 84.3322 74.9008ZM70.9145 84.4846C72.1911 84.4934 73.4558 84.2382 74.629 83.7349C75.7638 83.2518 76.7951 82.555 77.6669 81.6826C78.5425 80.8036 79.2437 79.7666 79.7333 78.6265C80.2371 77.4515 80.4969 76.1863 80.4969 74.9078C80.4969 73.6293 80.2371 72.3642 79.7333 71.1891C78.7424 68.9002 76.9175 67.0741 74.629 66.082C73.458 65.5703 72.1925 65.3101 70.9145 65.3184C69.6317 65.3115 68.3615 65.5716 67.1846 66.082C66.0456 66.5734 65.0089 67.2743 64.1285 68.1484C63.2555 69.0199 62.5599 70.0526 62.0804 71.1891C61.5856 72.3665 61.3307 73.6307 61.3307 74.9078C61.3307 76.1849 61.5856 77.4492 62.0804 78.6265C63.0449 80.9335 64.8784 82.7685 67.1846 83.7349C68.3637 84.2369 69.6331 84.492 70.9145 84.4846Z" fill="#000C82"/>
<path d="M76.5738 15.33C78.121 15.3188 79.6541 15.6246 81.0785 16.2285C82.4498 16.8036 83.7008 17.6312 84.7664 18.6683C85.8237 19.708 86.6673 20.9446 87.2497 22.3083C87.8503 23.7317 88.161 25.2605 88.1637 26.8053C88.1663 28.3501 87.8609 29.88 87.2653 31.3054C86.6845 32.671 85.845 33.9114 84.793 34.958C83.7402 36.0071 82.4972 36.846 81.1306 37.4302C79.7203 38.0337 78.2004 38.3391 76.6664 38.3272H42.1657C40.1136 38.3408 38.0805 37.9328 36.1925 37.1283C34.3685 36.3642 32.7101 35.2534 31.3093 33.8574C29.9149 32.4554 28.8025 30.7989 28.0321 28.9778C27.2412 27.0834 26.834 25.051 26.834 22.9982C26.834 20.9454 27.2412 18.913 28.0321 17.0187C28.7996 15.1975 29.9109 13.5412 31.3051 12.1405C32.7094 10.7461 34.3671 9.63261 36.189 8.85988C38.079 8.05815 40.1127 7.65069 42.1657 7.66245C43.1008 7.66445 44.0336 7.75518 44.9516 7.93341C45.7365 6.71355 46.6655 5.5927 47.7185 4.59511C48.7566 3.62079 49.913 2.7808 51.1606 2.09486C53.6906 0.707237 56.5323 -0.0135383 59.4179 0.000425235C61.5639 -0.0148422 63.693 0.381137 65.6901 1.16696C67.6103 1.91738 69.38 3.00673 70.915 4.38308C72.4472 5.77251 73.7202 7.42335 74.6745 9.2585C75.6621 11.1539 76.3052 13.2097 76.5738 15.33Z" fill="#59B4D9"/>
<path opacity="0.2" d="M34.7058 35.8776C33.8356 33.784 33.3876 31.5391 33.3876 29.2719C33.3876 27.0047 33.8356 24.7599 34.7058 22.6663C36.422 18.593 39.6638 15.3528 43.7379 13.6384C46.7967 12.3433 50.1712 11.9861 53.4333 12.6122C54.3001 11.2637 55.3262 10.0246 56.4894 8.92169C57.6321 7.83904 58.9098 6.90856 60.2909 6.15336C61.6671 5.39651 63.1342 4.81815 64.6567 4.43224C66.2156 4.03197 67.8189 3.83056 69.4284 3.8328C69.7245 3.8328 69.9855 3.89878 70.2818 3.90439C68.9034 2.75791 67.3541 1.83426 65.69 1.16696C63.6929 0.381137 61.5638 -0.0148422 59.4178 0.000425235C57.963 -0.00381584 56.5135 0.175907 55.1038 0.535319C53.727 0.892022 52.3989 1.41576 51.1493 2.09486C49.9048 2.7816 48.7513 3.62156 47.7156 4.59511C46.6611 5.59057 45.7328 6.71172 44.9515 7.93341C44.0335 7.75518 43.1007 7.66445 42.1656 7.66244C40.1137 7.65034 38.081 8.05783 36.1924 8.85988C32.5108 10.4068 29.5815 13.3341 28.032 17.0146C26.8459 19.8292 26.5238 22.933 27.1066 25.9312C27.6894 28.9294 29.1509 31.6866 31.305 33.8519C32.4139 34.9246 33.6791 35.823 35.0574 36.5163C34.9528 36.2987 34.8069 36.1134 34.7058 35.8776Z" fill="white"/>
</g>
<defs>
<clipPath id="clip0">
<rect width="92" height="92" fill="white"/>
</clipPath>
</defs>
</svg>
