<svg width="42" height="42" viewBox="0 0 42 42" fill="none" xmlns="http://www.w3.org/2000/svg">
<path d="M33.0879 0.410435C34.61 0.709214 35.3011 1.62742 35.3011 2.64765V39.4997C35.3747 40.7605 34.2791 41.8171 33.1908 41.9119C36.3747 41.9264 37.5511 39.8131 37.5511 37.7216V4.65895C37.5511 2.64765 36.132 0.381285 33.0879 0.410435Z" fill="#50E6FF"/>
<path d="M28.5808 0.425781H4.51469C2.02205 0.425781 0 2.4298 0 4.90022V6.96251H3.30147C3.90441 6.96251 4.3897 7.44347 4.3897 8.04104C4.3897 8.63861 3.90441 9.11958 3.30147 9.11958H0V13.5211H3.30147C3.90441 13.5211 4.3897 14.0021 4.3897 14.5997C4.3897 15.1972 3.90441 15.6782 3.30147 15.6782H0V20.0506H3.30147C3.90441 20.0506 4.3897 20.5316 4.3897 21.1291C4.3897 21.7267 3.90441 22.2076 3.30147 22.2076H0V26.6238H3.30147C3.90441 26.6238 4.3897 27.1048 4.3897 27.7023C4.3897 28.2998 3.90441 28.7808 3.30147 28.7808H0V33.1532H3.30147C3.90441 33.1532 4.3897 33.6342 4.3897 34.2318C4.3897 34.8293 3.90441 35.3103 3.30147 35.3103H0V37.3799C0 39.8503 2.02205 41.8543 4.51469 41.8543H28.5882C31.0808 41.8543 33.1029 39.8503 33.1029 37.3799V4.90022C33.0955 2.4298 31.0735 0.425781 28.5808 0.425781Z" fill="#0078D4"/>
<path d="M23.9779 16.954H11.4779C10.0441 16.954 8.88965 15.8026 8.88965 14.3888V9.46262C8.88965 8.04155 10.0514 6.89746 11.4779 6.89746H23.9852C25.4191 6.89746 26.5734 8.04887 26.5734 9.46262V14.3888C26.5734 15.8099 25.4117 16.954 23.9779 16.954Z" fill="#50E6FF"/>
</svg>
