<svg width="42" height="42" viewBox="0 0 42 42" fill="none" xmlns="http://www.w3.org/2000/svg">
<path d="M0.166504 8.98797H41.5738V0.177734H0.166504V8.98797Z" fill="#0078D4"/>
<path d="M0.166504 30.8425H41.5738V22.0322H0.166504V30.8425Z" fill="#0078D4"/>
<path d="M0.166504 20.0143H41.5738V11.2041H0.166504V20.0143Z" fill="#0078D4"/>
<path d="M0.166504 41.6803H41.5738V32.8701H0.166504V41.6803Z" fill="#0078D4"/>
<path d="M19.6755 4.61484C19.6755 5.79149 18.7168 6.75022 17.5402 6.75022C16.3636 6.75022 15.4048 5.79149 15.4048 4.61484C15.4048 3.43823 16.3636 2.47949 17.5402 2.47949C18.7241 2.47949 19.6755 3.43823 19.6755 4.61484Z" fill="white"/>
<path d="M6.60181 4.61484C6.60181 5.79149 5.64304 6.75022 4.46643 6.75022C3.28979 6.75022 2.33105 5.79149 2.33105 4.61484C2.33105 3.43823 3.28979 2.47949 4.46643 2.47949C5.65031 2.47949 6.60181 3.43823 6.60181 4.61484Z" fill="#50E6FF"/>
<path d="M13.1389 4.61484C13.1389 5.79149 12.1801 6.75022 11.0035 6.75022C9.82689 6.75022 8.86816 5.79149 8.86816 4.61484C8.86816 3.43823 9.82689 2.47949 11.0035 2.47949C12.1874 2.47949 13.1389 3.43823 13.1389 4.61484Z" fill="#50E6FF"/>
<path d="M19.6755 15.5114C19.6755 16.688 18.7168 17.6467 17.5402 17.6467C16.3636 17.6467 15.4048 16.688 15.4048 15.5114C15.4048 14.3347 16.3636 13.376 17.5402 13.376C18.7241 13.376 19.6755 14.3347 19.6755 15.5114Z" fill="white"/>
<path d="M6.60181 15.5114C6.60181 16.688 5.64304 17.6467 4.46643 17.6467C3.28979 17.6467 2.33105 16.688 2.33105 15.5114C2.33105 14.3347 3.28979 13.376 4.46643 13.376C5.65031 13.376 6.60181 14.3347 6.60181 15.5114Z" fill="#50E6FF"/>
<path d="M13.1389 15.5114C13.1389 16.688 12.1801 17.6467 11.0035 17.6467C9.82689 17.6467 8.86816 16.688 8.86816 15.5114C8.86816 14.3347 9.82689 13.376 11.0035 13.376C12.1874 13.376 13.1389 14.3347 13.1389 15.5114Z" fill="#50E6FF"/>
<path d="M19.6755 26.4049C19.6755 27.5815 18.7168 28.5403 17.5402 28.5403C16.3636 28.5403 15.4048 27.5815 15.4048 26.4049C15.4048 25.2283 16.3636 24.2695 17.5402 24.2695C18.7241 24.2695 19.6755 25.2283 19.6755 26.4049Z" fill="white"/>
<path d="M6.60181 26.4049C6.60181 27.5815 5.64304 28.5403 4.46643 28.5403C3.28979 28.5403 2.33105 27.5815 2.33105 26.4049C2.33105 25.2283 3.28979 24.2695 4.46643 24.2695C5.65031 24.2695 6.60181 25.2283 6.60181 26.4049Z" fill="#50E6FF"/>
<path d="M13.1389 26.4049C13.1389 27.5815 12.1801 28.5403 11.0035 28.5403C9.82689 28.5403 8.86816 27.5815 8.86816 26.4049C8.86816 25.2283 9.82689 24.2695 11.0035 24.2695C12.1874 24.2695 13.1389 25.2283 13.1389 26.4049Z" fill="#50E6FF"/>
<path d="M19.6755 37.2994C19.6755 38.4761 18.7168 39.4348 17.5402 39.4348C16.3636 39.4348 15.4048 38.4761 15.4048 37.2994C15.4048 36.1228 16.3636 35.1641 17.5402 35.1641C18.7241 35.1641 19.6755 36.1228 19.6755 37.2994Z" fill="white"/>
<path d="M6.60181 37.2994C6.60181 38.4761 5.64304 39.4348 4.46643 39.4348C3.28979 39.4348 2.33105 38.4761 2.33105 37.2994C2.33105 36.1228 3.28979 35.1641 4.46643 35.1641C5.65031 35.1641 6.60181 36.1228 6.60181 37.2994Z" fill="#50E6FF"/>
<path d="M13.1389 37.2994C13.1389 38.4761 12.1801 39.4348 11.0035 39.4348C9.82689 39.4348 8.86816 38.4761 8.86816 37.2994C8.86816 36.1228 9.82689 35.1641 11.0035 35.1641C12.1874 35.1641 13.1389 36.1228 13.1389 37.2994Z" fill="#50E6FF"/>
</svg>
