<svg id="Layer_1" data-name="Layer 1" xmlns="http://www.w3.org/2000/svg" viewBox="0 0 16 16"><defs><style>.cls-1{fill:#fff;}</style></defs><title>change_connection_inverse</title><g id="path1"><path class="cls-1" d="M7.7,6.72h.83l0,2.85H7.68ZM5.51,8.61h.73v1.52A2,2,0,0,0,8,12.3h.19A2,2,0,0,0,10,10.16V8.64h.73v1.52a2.81,2.81,0,0,1-2.52,3H8A2.81,2.81,0,0,1,5.5,10.13ZM6.46,3.8A2.23,2.23,0,0,1,8,3.11h.19a2.81,2.81,0,0,1,2.47,3.06V7.7H10V6.17A2,2,0,0,0,8.24,4H8A2,2,0,0,0,6.26,6.14V7.67H5.52V6.14A3.33,3.33,0,0,1,6.46,3.8Z"/></g><path class="cls-1" d="M8,14.83a7,7,0,0,0,6.76-5l.93.29a7.75,7.75,0,0,1-1.14,2.32,8.11,8.11,0,0,1-4,3A7.88,7.88,0,0,1,8,15.8a8,8,0,0,1-3.9-1,8.14,8.14,0,0,1-1.63-1.2A7.82,7.82,0,0,1,1.18,12v1.85H.2V10H4.1v1H1.69a7.05,7.05,0,0,0,2.6,2.84,7.29,7.29,0,0,0,1.76.79A6.8,6.8,0,0,0,8,14.83ZM15.8,2.15V6H11.9v-1h2.41a7,7,0,0,0-1.12-1.61A7.08,7.08,0,0,0,11.7,2.24a7.28,7.28,0,0,0-1.76-.78A6.8,6.8,0,0,0,8,1.17a7,7,0,0,0-6.76,5L.31,5.91A7.79,7.79,0,0,1,1.44,3.59a8.08,8.08,0,0,1,4-3A7.85,7.85,0,0,1,8,.2a8,8,0,0,1,3.9,1,8.14,8.14,0,0,1,1.63,1.2A7.81,7.81,0,0,1,14.82,4V2.15Z"/></svg>