<svg width="16" height="16" viewBox="0 0 16 16" fill="none" xmlns="http://www.w3.org/2000/svg">
<g clip-path="url(#clip0)">
<path d="M13 8C13.4115 8 13.7995 8.08073 14.1641 8.24219C14.5286 8.39844 14.8464 8.61198 15.1172 8.88281C15.388 9.15365 15.6016 9.47135 15.7578 9.83594C15.9193 10.2005 16 10.5885 16 11C16 11.4115 15.9193 11.7995 15.7578 12.1641C15.6016 12.5286 15.388 12.8464 15.1172 13.1172C14.8464 13.388 14.5286 13.6042 14.1641 13.7656C13.7995 13.9219 13.4115 14 13 14C12.6875 14 12.3828 13.9531 12.0859 13.8594C11.7891 13.7656 11.5156 13.6276 11.2656 13.4453C11.1823 13.5286 11.0417 13.6745 10.8438 13.8828C10.651 14.0859 10.4271 14.3203 10.1719 14.5859C9.91667 14.8464 9.64583 15.1198 9.35938 15.4062C9.07812 15.6875 8.8125 15.9479 8.5625 16.1875C8.3125 16.4219 8.09115 16.6172 7.89844 16.7734C7.70573 16.9245 7.57292 17 7.5 17C7.36458 17 7.2474 16.9505 7.14844 16.8516C7.04948 16.7526 7 16.6354 7 16.5C7 16.4271 7.07552 16.2943 7.22656 16.1016C7.38281 15.9089 7.57812 15.6875 7.8125 15.4375C8.05208 15.1875 8.3125 14.9219 8.59375 14.6406C8.88021 14.3542 9.15365 14.0833 9.41406 13.8281C9.67969 13.5729 9.91406 13.349 10.1172 13.1562C10.3255 12.9583 10.4714 12.8177 10.5547 12.7344C10.3724 12.4844 10.2344 12.2109 10.1406 11.9141C10.0469 11.6172 10 11.3125 10 11C10 10.5885 10.0781 10.2005 10.2344 9.83594C10.3958 9.47135 10.612 9.15365 10.8828 8.88281C11.1536 8.61198 11.4714 8.39844 11.8359 8.24219C12.2005 8.08073 12.5885 8 13 8ZM13 13C13.2708 13 13.5286 12.9479 13.7734 12.8438C14.0182 12.7344 14.2292 12.5911 14.4062 12.4141C14.5885 12.2318 14.7318 12.0208 14.8359 11.7812C14.9453 11.5365 15 11.276 15 11C15 10.7292 14.9453 10.4714 14.8359 10.2266C14.7318 9.98177 14.5885 9.77083 14.4062 9.59375C14.2292 9.41146 14.0182 9.26823 13.7734 9.16406C13.5286 9.05469 13.2708 9 13 9C12.724 9 12.4635 9.05469 12.2188 9.16406C11.9792 9.26823 11.7682 9.41146 11.5859 9.59375C11.4089 9.77083 11.2656 9.98177 11.1562 10.2266C11.0521 10.4714 11 10.7292 11 11C11 11.276 11.0521 11.5365 11.1562 11.7812C11.2656 12.0208 11.4089 12.2318 11.5859 12.4141C11.7682 12.5911 11.9792 12.7344 12.2188 12.8438C12.4635 12.9479 12.724 13 13 13ZM2 12V10H0V1H12V3H14V7.14062C13.8333 7.09896 13.6667 7.0651 13.5 7.03906C13.3333 7.01302 13.1667 7 13 7V4H3V11H9C9 11.1667 9.01302 11.3333 9.03906 11.5C9.0651 11.6667 9.09896 11.8333 9.14062 12H2ZM2 9V3H11V2H1V9H2Z" fill="#4894FE"/>
</g>
<defs>
<clipPath id="clip0">
<rect width="16" height="16" fill="white"/>
</clipPath>
</defs>
</svg>
