<svg width="16" height="16" viewBox="0 0 16 16" fill="none" xmlns="http://www.w3.org/2000/svg">
<g clip-path="url(#clip0)">
<path d="M10.3906 9.39844C11.099 9.64323 11.737 9.98698 12.3047 10.4297C12.8776 10.8672 13.362 11.375 13.7578 11.9531C14.1589 12.5312 14.4661 13.1641 14.6797 13.8516C14.8932 14.5391 15 15.2552 15 16H14C14 15.1458 13.8464 14.3542 13.5391 13.625C13.237 12.8906 12.8177 12.2552 12.2812 11.7188C11.7448 11.1823 11.1094 10.763 10.375 10.4609C9.64583 10.1536 8.85417 10 8 10C7.44271 10 6.90625 10.0703 6.39062 10.2109C5.875 10.3516 5.39323 10.5521 4.94531 10.8125C4.5026 11.0677 4.09896 11.3776 3.73438 11.7422C3.375 12.1016 3.0651 12.5052 2.80469 12.9531C2.54948 13.3958 2.35156 13.875 2.21094 14.3906C2.07031 14.9062 2 15.4427 2 16H1C1 15.25 1.10938 14.5339 1.32812 13.8516C1.54688 13.1641 1.85677 12.5339 2.25781 11.9609C2.65885 11.388 3.14323 10.8828 3.71094 10.4453C4.28385 10.0078 4.92188 9.66146 5.625 9.40625C5.21875 9.1875 4.85417 8.92188 4.53125 8.60938C4.20833 8.29688 3.93229 7.95052 3.70312 7.57031C3.47917 7.1849 3.30469 6.77604 3.17969 6.34375C3.0599 5.90625 3 5.45833 3 5C3 4.30729 3.13021 3.65885 3.39062 3.05469C3.65104 2.44531 4.00781 1.91406 4.46094 1.46094C4.91406 1.00781 5.44271 0.651042 6.04688 0.390625C6.65625 0.130208 7.30729 0 8 0C8.69271 0 9.34115 0.130208 9.94531 0.390625C10.5547 0.651042 11.0859 1.00781 11.5391 1.46094C11.9922 1.91406 12.349 2.44531 12.6094 3.05469C12.8698 3.65885 13 4.30729 13 5C13 5.45833 12.9375 5.90365 12.8125 6.33594C12.6927 6.76823 12.5182 7.17448 12.2891 7.55469C12.0651 7.9349 11.7917 8.28385 11.4688 8.60156C11.151 8.91406 10.7917 9.17969 10.3906 9.39844ZM4 5C4 5.55208 4.10417 6.07031 4.3125 6.55469C4.52604 7.03906 4.8125 7.46354 5.17188 7.82812C5.53646 8.1875 5.96094 8.47396 6.44531 8.6875C6.92969 8.89583 7.44792 9 8 9C8.55208 9 9.07031 8.89583 9.55469 8.6875C10.0391 8.47396 10.4609 8.1875 10.8203 7.82812C11.1849 7.46354 11.4714 7.03906 11.6797 6.55469C11.8932 6.07031 12 5.55208 12 5C12 4.44792 11.8932 3.92969 11.6797 3.44531C11.4714 2.96094 11.1849 2.53906 10.8203 2.17969C10.4609 1.8151 10.0391 1.52865 9.55469 1.32031C9.07031 1.10677 8.55208 1 8 1C7.44792 1 6.92969 1.10677 6.44531 1.32031C5.96094 1.52865 5.53646 1.8151 5.17188 2.17969C4.8125 2.53906 4.52604 2.96094 4.3125 3.44531C4.10417 3.92969 4 4.44792 4 5Z" fill="#333333"/>
</g>
<defs>
<clipPath id="clip0">
<rect width="16" height="16" fill="white"/>
</clipPath>
</defs>
</svg>
