<svg id="Layer_1" data-name="Layer 1" xmlns="http://www.w3.org/2000/svg" viewBox="0 0 16 16"><defs><style>.cls-1{fill:#fff;}</style></defs><title>pin_inverse</title><path class="cls-1" d="M15.55,5.84q-.26.26-.5.47a3,3,0,0,1-.51.36,2.41,2.41,0,0,1-.57.23,2.73,2.73,0,0,1-.7.08,2.67,2.67,0,0,1-.51,0l-3,3a3.51,3.51,0,0,1,.15.61,4.21,4.21,0,0,1,0,.63,3.89,3.89,0,0,1-.1.92,3.44,3.44,0,0,1-.29.78,4,4,0,0,1-.46.7q-.27.33-.62.68l-3-3L1.06,15.65,0,16l.35-1.06L4.8,10.5l-3-3,.35-.35A3.77,3.77,0,0,1,3.39,6.3,3.94,3.94,0,0,1,6.09,6.2l3-3a2.67,2.67,0,0,1,0-.51A2.7,2.7,0,0,1,9.09,2a2.48,2.48,0,0,1,.23-.57A3,3,0,0,1,9.68,1q.22-.25.47-.5ZM13.27,6a1.7,1.7,0,0,0,.81-.2L10.21,1.92a1.7,1.7,0,0,0-.2.81,1.58,1.58,0,0,0,.05.41c0,.13.07.26.11.39L6.33,7.37,6,7.23l-.34-.12L5.26,7a2.63,2.63,0,0,0-.39,0A2.91,2.91,0,0,0,4,7.14a2.79,2.79,0,0,0-.78.38l5.26,5.26A2.88,2.88,0,0,0,8.87,12,2.8,2.8,0,0,0,9,11.14a2.63,2.63,0,0,0,0-.39,2.77,2.77,0,0,0-.08-.36A3.49,3.49,0,0,0,8.77,10l-.15-.37,3.84-3.84.39.11A1.58,1.58,0,0,0,13.27,6Z"/></svg>