<svg id="Layer_1" data-name="Layer 1" xmlns="http://www.w3.org/2000/svg" viewBox="0 0 16 16"><title>services</title><path d="M3.71,4.29,1.91,2.5,3.71.71l.58.58L3.59,2H14V6H13V3H3.59l.7.71ZM14.09,13.5l-1.8,1.79-.58-.58.7-.71H2V10H3v3h9.41l-.7-.71.58-.58Zm-2.2-6.57-1,.4a2.93,2.93,0,0,1,0,1.34l1,.4-.37.92-1-.4a2.82,2.82,0,0,1-.95.95l.4,1-.92.38-.4-1a2.93,2.93,0,0,1-1.34,0l-.4,1L6,11.51l.4-1a2.82,2.82,0,0,1-.95-.95l-1,.4-.37-.92,1-.4a2.93,2.93,0,0,1,0-1.34l-1-.4L4.49,6l1,.4a2.82,2.82,0,0,1,.95-.95l-.4-1,.92-.37.4,1a2.93,2.93,0,0,1,1.34,0l.4-1,.92.38-.4,1a2.82,2.82,0,0,1,.95.95l1-.4ZM8,10a1.92,1.92,0,0,0,.77-.16A2,2,0,0,0,9.84,8.78a2,2,0,0,0,0-1.55A2,2,0,0,0,8.77,6.16a2,2,0,0,0-1.55,0A2,2,0,0,0,6.16,7.23a2,2,0,0,0,0,1.55A2,2,0,0,0,7.22,9.84,1.91,1.91,0,0,0,8,10Z"/></svg>