<svg id="Layer_1" data-name="Layer 1" xmlns="http://www.w3.org/2000/svg" viewBox="0 0 16 16"><defs><style>.cls-1{fill:#fff;}</style></defs><title>unpin_inverse</title><path class="cls-1" d="M15.55,5.84q-.26.26-.5.47a3,3,0,0,1-.51.36,2.41,2.41,0,0,1-.57.23,2.73,2.73,0,0,1-.7.08,2.67,2.67,0,0,1-.51,0L11.71,8H10.29l2.17-2.17.4.11a1.59,1.59,0,0,0,.41.05,1.7,1.7,0,0,0,.81-.2L10.21,1.92a1.7,1.7,0,0,0-.2.81,1.59,1.59,0,0,0,.05.41c0,.13.07.26.11.4L6.33,7.37,6,7.23l-.34-.12L5.27,7a2.63,2.63,0,0,0-.39,0A3,3,0,0,0,4,7.14a2.77,2.77,0,0,0-.78.38L7,11.29v1.42L5.5,11.2,1.06,15.65,0,16l.35-1.06L4.8,10.5l-3-3,.35-.35A3.74,3.74,0,0,1,3.4,6.3,4,4,0,0,1,4.89,6a3.59,3.59,0,0,1,.61.05,4.51,4.51,0,0,1,.6.14l3-3a2.67,2.67,0,0,1,0-.51A2.7,2.7,0,0,1,9.09,2a2.48,2.48,0,0,1,.23-.57A3,3,0,0,1,9.68,1q.22-.25.47-.5ZM11.5,9a3.41,3.41,0,0,1,1.36.27,3.51,3.51,0,0,1,1.86,1.86,3.54,3.54,0,0,1,0,2.73,3.51,3.51,0,0,1-1.86,1.86,3.54,3.54,0,0,1-2.73,0,3.51,3.51,0,0,1-1.86-1.86,3.54,3.54,0,0,1,0-2.73,3.51,3.51,0,0,1,1.86-1.86A3.41,3.41,0,0,1,11.5,9ZM9,12.5a2.45,2.45,0,0,0,.2,1,2.49,2.49,0,0,0,1.33,1.33,2.45,2.45,0,0,0,1,.2,2.49,2.49,0,0,0,.72-.11,2.43,2.43,0,0,0,.66-.31L9.41,11.12a2.43,2.43,0,0,0-.31.66A2.49,2.49,0,0,0,9,12.5Zm4.59,1.38a2.43,2.43,0,0,0,.31-.66A2.49,2.49,0,0,0,14,12.5a2.38,2.38,0,0,0-.2-1,2.56,2.56,0,0,0-1.33-1.33,2.38,2.38,0,0,0-1-.2,2.49,2.49,0,0,0-.72.11,2.43,2.43,0,0,0-.66.31Z"/></svg>