<svg xmlns="http://www.w3.org/2000/svg" xmlns:xlink="http://www.w3.org/1999/xlink" width="18" height="18" viewBox="0 0 18 18">
  <defs>
    <linearGradient id="a" x1="8.624" y1="768.992" x2="8.787" y2="753.364" gradientTransform="matrix(1, 0, 0, -1, 0, 770)" gradientUnits="userSpaceOnUse">
      <stop offset="0" stop-color="#32d4f5"/>
      <stop offset="0.32" stop-color="#31d1f3"/>
      <stop offset="0.53" stop-color="#2ec9eb"/>
      <stop offset="0.7" stop-color="#29bade"/>
      <stop offset="0.86" stop-color="#22a5cb"/>
      <stop offset="1" stop-color="#198ab3"/>
    </linearGradient>
  </defs>
  <title>ML_mlflow</title>
  <g>
    <path d="M16.183,16.517H1.358c-.461,0-.744-.759-.476-1.146L5.987,7.929a.581.581,0,0,0,.1-.342V2.675a.3.3,0,0,0-.3-.3H5.526a.581.581,0,0,1-.581-.58V1.529A.581.581,0,0,1,5.463.892q.032,0,.063,0h6.5a.6.6,0,0,1,.581.6v.268a.6.6,0,0,1-.565.625h-.3a.284.284,0,0,0-.284.283s0,.01,0,.015V7.6a.5.5,0,0,0,.1.327l5.1,7.442C16.942,15.773,16.66,16.517,16.183,16.517Z" fill="url(#a)"/>
    <path d="M3.368,14.553,7.044,9.194a1.289,1.289,0,0,0,.238-.774V6.262a.432.432,0,0,1,.432-.417H9.8a.432.432,0,0,1,.431.417V8.569a.9.9,0,0,0,.149.521l3.766,5.463a.328.328,0,0,1-.268.506H3.636a.327.327,0,0,1-.321-.334A.32.32,0,0,1,3.368,14.553Z" fill="#fff"/>
  </g>
  <rect width="18" height="18" fill="none"/>
</svg>
