<svg xmlns="http://www.w3.org/2000/svg" width="16" height="16" viewBox="0 0 16 16">
  <title>ML_mlflow</title>
  <rect width="16" height="16" fill="none"/>
  <path d="M12.5,9a3.424,3.424,0,0,1,1.363.273,3.5,3.5,0,0,1,1.864,1.864,3.539,3.539,0,0,1,0,2.726,3.5,3.5,0,0,1-1.864,1.864,3.539,3.539,0,0,1-2.726,0,3.5,3.5,0,0,1-1.864-1.864,3.539,3.539,0,0,1,0-2.726,3.5,3.5,0,0,1,1.864-1.864A3.424,3.424,0,0,1,12.5,9ZM10,12.5a2.454,2.454,0,0,0,.2.973,2.487,2.487,0,0,0,1.332,1.332,2.454,2.454,0,0,0,.973.2,2.5,2.5,0,0,0,.719-.105,2.447,2.447,0,0,0,.656-.309l-3.461-3.461a2.447,2.447,0,0,0-.309.656A2.5,2.5,0,0,0,10,12.5Zm4.586,1.375a2.447,2.447,0,0,0,.309-.656A2.5,2.5,0,0,0,15,12.5a2.377,2.377,0,0,0-.2-.969A2.559,2.559,0,0,0,13.469,10.2,2.377,2.377,0,0,0,12.5,10a2.468,2.468,0,0,0-1.375.414Z"/>
  <path d="M8.274,11H1V7H4V8H5V7h6V8h1V7h3V8.759a4.523,4.523,0,0,1,.684.557A4.685,4.685,0,0,1,16,9.7V3H11V1H5V3H0v9H8.049A4.425,4.425,0,0,1,8.274,11ZM6,2h4V3H6ZM1,4H15V6H12V5H11V6H5V5H4V6H1Z"/>
</svg>
