<?xml version="1.0" encoding="UTF-8" standalone="no"?>
<!-- Created with Keyshape -->
<svg xmlns="http://www.w3.org/2000/svg" width="720" height="264" viewBox="0 0 720 264" fill="none">
    <style>
@keyframes cnmt5tr3hu0wymt36zq30ih2_t { 0% { transform: translate(120.475px,71.5343px) scale(1.2,1.2) translate(-84.973px,-48.076px); } 20% { transform: translate(120.475px,71.5343px) scale(1.2,1.2) translate(-84.973px,-48.076px); animation-timing-function: cubic-bezier(0,0,0.465,0.955); } 50% { transform: translate(159.069px,51.0064px) scale(1,1) translate(-84.973px,-48.076px); } 100% { transform: translate(159.069px,51.0064px) scale(1,1) translate(-84.973px,-48.076px); } }
@keyframes cnmt5tr3hu0wymt36zq30ih2_o { 0% { opacity: 0.1; } 6.6667% { opacity: 1; animation-timing-function: cubic-bezier(0.42,0,1,1); } 100% { opacity: 1; } }
@keyframes z0ymetui11zh758db5xwxlex_t { 0% { transform: translate(0px,9.69px); } 20% { transform: translate(0px,9.69px); } 31.3333% { transform: translate(0.855px,-3.741px); } 100% { transform: translate(0.855px,-3.741px); } }
@keyframes z0ymetui11zh758db5xwxlex_o { 0% { opacity: 0.2; } 19.0667% { opacity: 0.2; animation-timing-function: cubic-bezier(0,0,0.58,1); } 34.4667% { opacity: 0.6; } 46.0667% { opacity: 1; } 100% { opacity: 1; } }
@keyframes zn20lqvi7q3wgkb0jbo3ovd3_t { 0% { transform: translate(38.7961px,48.016px); } 20% { transform: translate(38.7961px,48.016px); animation-timing-function: cubic-bezier(0.42,0,0.58,1); } 46.6666% { transform: translate(38.9211px,19.056px); } 100% { transform: translate(38.9211px,19.056px); } }
@keyframes zn20lqvi7q3wgkb0jbo3ovd3_o { 0% { opacity: 0; } 20% { opacity: 0; animation-timing-function: cubic-bezier(0,0,0.43,-0.21); } 26.6667% { opacity: 1; } 100% { opacity: 1; } }
@keyframes rqvc5jb72khvf2h4j9g5kyo7_o { 0% { opacity: 0.5; } 20% { opacity: 0.5; } 50.8% { opacity: 1; } 100% { opacity: 1; } }
@keyframes lkg7xtxm6d2id27hswbrbvy0_t { 0% { transform: translate(60px,63.3756px) scale(0,0) translate(-125.988px,-90.0556px); } 45.7666% { transform: translate(60px,63.3756px) scale(0,0) translate(-125.988px,-90.0556px); animation-timing-function: cubic-bezier(0.42,0,0.58,1); } 55.7666% { transform: translate(51.6082px,63.3756px) scale(1,1) translate(-125.988px,-90.0556px); } 100% { transform: translate(51.6082px,63.3756px) scale(1,1) translate(-125.988px,-90.0556px); } }
@keyframes lkg7xtxm6d2id27hswbrbvy0_o { 0% { opacity: 0; } 45.7667% { opacity: 0; animation-timing-function: cubic-bezier(0.42,0,0.58,1); } 55.7667% { opacity: 1; } 100% { opacity: 1; } }
@keyframes kofco7dpicfyi4qkr386rt9r_t { 0% { transform: translate(74.9262px,90.566px) scale(0.8,0.799611) translate(-36.24px,-32.3504px); } 20% { transform: translate(74.9262px,90.566px) scale(0.8,0.799611) translate(-36.24px,-32.3504px); animation-timing-function: cubic-bezier(0,0,0.465,0.955); } 56.6666% { transform: translate(31.3743px,114.162px) scale(1,1) translate(-36.24px,-32.3504px); } 100% { transform: translate(31.3743px,114.162px) scale(1,1) translate(-36.24px,-32.3504px); } }
@keyframes kofco7dpicfyi4qkr386rt9r_o { 0% { opacity: 0.1; animation-timing-function: cubic-bezier(0.42,0,1,1); } 6.6667% { opacity: 1; } 100% { opacity: 1; } }
@keyframes ljq67ixk83znhpn4ja6ijrk8_t { 0% { transform: translate(0px,20.5452px); } 24.6666% { transform: translate(0px,5.3322px); } 100% { transform: translate(0px,5.3322px); } }
@keyframes ljq67ixk83znhpn4ja6ijrk8_o { 0% { opacity: 0.2; animation-timing-function: cubic-bezier(0,0,0.58,1); } 36.7% { opacity: 1; } 100% { opacity: 1; } }
@keyframes a8_t { 0% { transform: translate(129.271px,126.715px) rotate(36.897855deg); } 53.3333% { transform: translate(129.271px,126.715px) rotate(36.897855deg); animation-timing-function: cubic-bezier(0.42,0,0.58,1); } 70% { transform: translate(122.346px,131.479px) rotate(0deg); } 100% { transform: translate(122.346px,131.479px) rotate(0deg); } }
@keyframes y8q5pln6c59xin6ctuu7e4ip_t { 0% { transform: scale(0,0) translate(-28.9398px,-22.7534px); } 53.3333% { transform: scale(0,0) translate(-28.9398px,-22.7534px); animation-timing-function: cubic-bezier(0.42,0,0.58,1); } 66.6666% { transform: scale(1,1) translate(-28.9398px,-22.7534px); } 100% { transform: scale(1,1) translate(-28.9398px,-22.7534px); } }
@keyframes um51pdeoqf01m9l3mylr8ao6_d { 0% { d: path('M12.1556,-4.26535L44.1861,38.3874'); } 76.6667% { d: path('M12.1556,-4.26535L44.1861,38.3874'); animation-timing-function: cubic-bezier(0.42,0,0.58,1); } 90% { d: path('M-13.9035,14.5019L18.127,57.1547'); } 100% { d: path('M-13.9035,14.5019L18.127,57.1547'); } }
    </style>
    <defs>
        <filter id="ao6jrpxabezx3xydllxoge3s" x="106.813" y="39.7595" width="160.515" height="112.084" filterUnits="userSpaceOnUse" color-interpolation-filters="sRGB">
            <feFlood flood-opacity="0" result="BackgroundImageFix"/>
            <feBlend mode="normal" in="SourceGraphic" in2="BackgroundImageFix" result="shape"/>
            <feGaussianBlur stdDeviation="13.7497" result="effect1_foregroundBlur"/>
        </filter>
        <filter id="l5ngo2vltuip1kyt5f35pa24" x="0.547909" y="17.4567" width="111.527" height="85.4025" filterUnits="userSpaceOnUse" color-interpolation-filters="sRGB">
            <feFlood flood-opacity="0" result="BackgroundImageFix"/>
            <feBlend mode="normal" in="SourceGraphic" in2="BackgroundImageFix" result="shape"/>
            <feGaussianBlur stdDeviation="13.7497" result="effect1_foregroundBlur"/>
        </filter>
        <filter id="n5brqlk6riwqjxpmxu4s8837" x="49.5489" y="59.2534" width="152.992" height="106.689" filterUnits="userSpaceOnUse" color-interpolation-filters="sRGB">
            <feFlood flood-opacity="0" result="BackgroundImageFix"/>
            <feBlend mode="normal" in="SourceGraphic" in2="BackgroundImageFix" result="shape"/>
            <feGaussianBlur stdDeviation="13.7497" result="effect1_foregroundBlur"/>
        </filter>
        <linearGradient id="ndrdzqo917agf7lsad12kd8q" x1="360" y1="264.029" x2="360" y2="0.0295" gradientUnits="userSpaceOnUse" gradientTransform="matrix(1 0 0 -1 0 264.029)">
            <stop offset="0" stop-color="#f8f8f8"/>
            <stop offset="1" stop-color="#ededed"/>
        </linearGradient>
        <radialGradient id="u9uox3nrc7yl0p8lj86glu3v" cx="185.343" cy="61.0331" r="61.2634" fx="185.343" fy="61.0331" gradientUnits="userSpaceOnUse" gradientTransform="matrix(-0.8829 -0.4695 -0.0704 0.1324 353.29 185.949)">
            <stop offset="0" stop-color="#767676"/>
            <stop offset="1" stop-color="#767676" stop-opacity="0"/>
        </radialGradient>
        <radialGradient id="ti9hime3129ovgwu7utzqqcb" cx="127.902" cy="46.221" r="43.2393" fx="127.902" fy="46.221" gradientUnits="userSpaceOnUse" gradientTransform="matrix(-0.866 -0.5 -0.125 0.2165 244.447 175.775)">
            <stop offset="0" stop-color="#767676"/>
            <stop offset="1" stop-color="#767676" stop-opacity="0"/>
        </radialGradient>
        <radialGradient id="via8dmytcl8lpufrqpucb85z" cx="54.6814" cy="97.2692" r="29.4264" fx="54.6814" fy="97.2692" gradientUnits="userSpaceOnUse" gradientTransform="matrix(-0.866 -0.5 -0.125 0.2165 114.195 77.0643)">
            <stop offset="0" stop-color="#767676"/>
            <stop offset="1" stop-color="#767676" stop-opacity="0"/>
        </radialGradient>
        <radialGradient id="xaat8zmf9basj4t2i6zoj48k" cx="155.71" cy="19.6176" r="23.7366" fx="155.71" fy="19.6176" gradientUnits="userSpaceOnUse" gradientTransform="matrix(-0.866 -0.5 -0.125 0.2165 293.011 222.042)">
            <stop offset="0" stop-color="#767676"/>
            <stop offset="1" stop-color="#767676" stop-opacity="0"/>
        </radialGradient>
        <clipPath id="hkdixl9xcf251uu5k3hjmi2s">
            <path id="wsu8t16lvj3i7wvsisyebios" class="st17" d="M94.66,40.66L94.67,36.12L98.62,38.4L98.61,42.94Z" transform="translate(96.64,39.53) translate(-96.64,-39.53)"/>
            <path id="m6ra11ipmmkuyspj06a7ay9a" class="st17" d="M94.66,40.66L94.67,36.12L98.62,38.4L98.61,42.94Z" transform="translate(96.64,39.53) translate(-96.64,-39.53)"/>
        </clipPath>
        <clipPath id="jf4zuk5rbv6x93hk6lkvh65i">
            <path id="xt5l8cxgmt92syt888m1sezy" class="st17" d="M100.6,44.06L100.62,39.52L104.57,41.8L104.55,46.35Z" transform="translate(102.585,42.935) translate(-102.585,-42.935)"/>
            <path id="mg555t4ovcsrm9r5f4kaskcd" class="st17" d="M100.6,44.06L100.62,39.52L104.57,41.8L104.55,46.35Z" transform="translate(102.585,42.935) translate(-102.585,-42.935)"/>
        </clipPath>
        <clipPath id="f5t7t5521lrlt5wnyc81a15o" fill="none">
            <path id="owwngt85ffc7dpc3yp0eohte" class="st17" d="M106.56,47.52L106.57,42.98L110.53,45.26L110.51,49.81Z" transform="translate(108.545,46.395) translate(-108.545,-46.395)"/>
            <path id="by0krylcpum6zwpnhih1nz6w" class="st17" d="M106.56,47.52L106.57,42.98L110.53,45.26L110.51,49.81Z" transform="translate(108.545,46.395) translate(-108.545,-46.395)"/>
        </clipPath>
        <mask id="y89rzqr5uv4lnijciwbjon76">
            <path class="st14" d="M158.18,111.96C158.23,111.99,158.29,112.02,158.34,112.05C159.83,112.91,161.26,113.96,162.64,115.19C164.02,116.43,165.3,117.79,166.5,119.3C167.69,120.8,168.78,122.4,169.78,124.1C170.77,125.8,171.61,127.54,172.3,129.31C172.98,131.08,173.52,132.88,173.92,134.72C174.31,136.55,174.5,138.31,174.48,139.99C174.47,141.7,174.28,143.23,173.89,144.6C173.5,145.96,172.96,147.13,172.25,148.09C171.54,149.06,170.69,149.83,169.71,150.41C168.73,150.99,167.64,151.33,166.44,151.43C165.24,151.53,163.95,151.41,162.55,151.06C161.21,150.73,159.83,150.15,158.41,149.33C158.36,149.3,158.3,149.27,158.25,149.23C156.76,148.37,155.33,147.32,153.95,146.09C152.57,144.86,151.29,143.49,150.09,141.99C148.9,140.49,147.81,138.89,146.81,137.19C145.82,135.49,144.98,133.75,144.29,131.98C143.6,130.21,143.06,128.4,142.67,126.57C142.28,124.74,142.09,122.98,142.11,121.3C142.12,119.59,142.31,118.05,142.7,116.69C143.09,115.33,143.64,114.16,144.34,113.2C145.05,112.23,145.9,111.46,146.88,110.88C147.86,110.3,148.95,109.96,150.15,109.86C151.35,109.76,152.64,109.88,154.04,110.23C155.38,110.57,156.76,111.14,158.18,111.96Z" fill="#50E6FF" transform="translate(13.275,25.615) translate(-158.295,-130.645)"/>
        </mask>
    </defs>
    <rect class="st0" width="720" height="264" fill="url(#ndrdzqo917agf7lsad12kd8q)" transform="translate(360,132) translate(-360,-132)"/>
    <g fill="none" transform="translate(360.407,125.249) scale(1.15907,1.15907) translate(-113.136,-74.5293)">
        <g opacity="0.1" transform="translate(120.475,71.5343) scale(1.2,1.2) translate(-84.973,-48.076)" style="animation: 3s linear both cnmt5tr3hu0wymt36zq30ih2_t, 3s linear both cnmt5tr3hu0wymt36zq30ih2_o;">
            <g class="st1" opacity="0.24" transform="translate(75.66,96.4655) translate(-185.34,-107.02)">
                <path class="st2" d="M261,139.07L134.39,64.8L109.68,74.76L236.24,149.24L261,139.07Z" fill="url(#u9uox3nrc7yl0p8lj86glu3v)" opacity="0.2" transform="translate(185.34,116.71) translate(-185.34,-107.02)" style="animation: 3s linear both z0ymetui11zh758db5xwxlex_t, 3s linear both z0ymetui11zh758db5xwxlex_o;"/>
            </g>
            <g transform="translate(87.0749,55) translate(-57.2553,-57.9305)">
                <path class="st8" d="M233.57,66.32L233.51,66.35L233.53,66.34C233.46,47.73,219.84,24.82,202.93,15.01C194.08,9.88,186.02,9.32,180.33,12.61L171.32,17.82C177.01,14.53,185.08,15.08,193.92,20.22C210.48,29.83,223.87,51.98,224.49,70.38L221.87,71.55C233.54,80.58,244.95,97.04,244.88,110.41C244.84,117.58,242.07,122.48,237.87,124.91L247.18,119.59C251.38,117.16,253.97,112.12,254.01,104.96C254.06,91.59,245.24,75.34,233.57,66.32Z" fill="#D2D2D2" transform="translate(73.1656,57.1778) translate(-212.665,-67.7322)"/>
                <path class="st8" d="M147.51,26.53L156.52,21.32C160.87,18.8,166.69,18.66,173.25,21.29L164.24,26.5C157.68,23.87,151.87,24.01,147.51,26.53Z" fill="#D2D2D2" transform="translate(20.8805,12.3971) translate(-160.38,-22.9516)"/>
                <path class="st9" d="M224.5,71.5C224.43,52.89,210.81,29.98,193.9,20.17C180.22,12.23,168.41,15.24,164.35,26.5C150.25,20.85,139.58,27.99,139.5,44.05C139.41,61.91,152.63,84.09,169.03,93.61C169.91,94.12,170.77,94.58,171.64,94.99L219.74,122.9C220.13,123.13,220.56,123.31,221,123.42C234.25,130.47,244.86,124.69,244.94,110.13C244.99,96.78,236.17,80.53,224.5,71.5Z" fill="#FFFFFF" transform="translate(52.7205,60.5101) translate(-192.22,-71.0646)"/>
            </g>
        </g>
        <g fill="none" opacity="0" transform="translate(92.3211,110.376) translate(-53.525,-62.36)" style="animation: 3s linear both zn20lqvi7q3wgkb0jbo3ovd3_t, 3s linear both zn20lqvi7q3wgkb0jbo3ovd3_o;">
            <g class="st6" opacity="0.41" fill="none" transform="translate(53.525,95.15) translate(-127.905,-121.83)">
                <path class="st7" d="M181.43,140.42L101.05,92.26L74.38,103.01L154.71,151.4L181.43,140.42Z" fill="url(#ti9hime3129ovgwu7utzqqcb)" opacity="0.5" transform="translate(127.905,121.83) translate(-127.905,-121.83)" style="animation: 3s linear both rqvc5jb72khvf2h4j9g5kyo7_o;"/>
            </g>
            <path class="st10" d="M164.88,76.04L173.54,70.93L173.39,136.22L164.73,141.32L164.88,76.04Z" fill="#185A97" transform="translate(94.755,79.445) translate(-169.135,-106.125)"/>
            <path class="st11" d="M164.73,141.33L90.93,98.78L91.08,40.45L164.88,83L164.73,141.33Z" fill="#137AD1" transform="translate(53.525,64.21) translate(-127.905,-90.89)"/>
            <path class="st12" d="M91.08,31.63L164.88,74.18L164.88,76.04L164.88,83.16L91.08,40.46L91.08,33.34L91.08,31.63ZM102.53,44.94C103.61,45.56,104.39,45.09,104.39,43.86C104.39,42.62,103.62,41.23,102.53,40.61C101.45,40.15,100.67,40.61,100.67,41.69C100.67,42.93,101.45,44.48,102.53,44.94ZM96.65,41.69C97.73,42.31,98.51,41.84,98.51,40.61C98.51,39.37,97.74,37.98,96.65,37.36C95.72,36.74,94.79,37.21,94.79,38.44C94.79,39.52,95.72,41.07,96.65,41.69ZM108.56,48.5C109.64,49.12,110.42,48.65,110.42,47.42C110.42,46.18,109.65,44.79,108.56,44.17C107.48,43.55,106.7,44.02,106.7,45.25C106.55,46.33,107.48,47.88,108.56,48.5Z" fill="#45CAF2" transform="translate(53.6,30.715) translate(-127.98,-57.395)"/>
            <path class="st13" d="M164.88,74.18L173.54,69.23L173.54,78.05L164.88,83L164.88,74.18Z" fill="#32B0E7" transform="translate(94.83,49.435) translate(-169.21,-76.115)"/>
            <path class="st14" d="M91.08,31.79L99.74,26.68L173.54,69.23L164.88,74.34L91.08,31.79Z" fill="#50E6FF" transform="translate(57.93,23.83) translate(-132.31,-50.51)"/>
            <path class="st9" d="M126.02,70.18C129.64,72.4,132.57,77.84,132.53,82.27C132.53,86.7,129.55,88.45,125.98,86.24C122.36,83.98,119.43,78.58,119.47,74.2C119.46,69.76,122.4,67.96,126.02,70.18ZM126.06,88.75C131.94,92.08,136.79,99.85,137.37,106.6C137.44,107,137.44,107.4,137.37,107.8C137.24,109.53,136.15,110.64,134.07,110.86C131.85,111.04,128.91,110.11,126.01,108.46C122.92,106.72,120.18,104.44,117.91,101.71C115.83,99.18,114.7,96.78,114.56,94.87C114.54,94.44,114.57,94.01,114.65,93.58C115.43,87.64,120.22,85.42,126.06,88.75L126.06,88.75Z" fill="#FFFFFF" opacity="0" transform="translate(60,63.3756) scale(0,0) translate(-125.988,-90.0556)" style="animation: 3s linear both lkg7xtxm6d2id27hswbrbvy0_t, 3s linear both lkg7xtxm6d2id27hswbrbvy0_o;"/>
            <g fill="none" transform="translate(22.255,12.8488) translate(-96.635,-39.5288)">
                <g class="st17" clip-path="url(#hkdixl9xcf251uu5k3hjmi2s)" transform="translate(96.635,39.5288) translate(-96.635,-39.5288)">
                    <path class="st19" d="M96.65,37.26C95.56,36.63,94.67,37.13,94.66,38.38C94.65,39.63,95.54,41.17,96.63,41.8C97.72,42.43,98.61,41.92,98.61,40.66C98.61,39.4,97.74,37.89,96.65,37.26" fill="#0078D4" transform="translate(96.635,39.5288) translate(-96.635,-39.5288)"/>
                </g>
            </g>
            <g fill="none" transform="translate(28.195,16.2588) translate(-102.575,-42.9388)">
                <g class="st17" clip-path="url(#jf4zuk5rbv6x93hk6lkvh65i)" transform="translate(102.575,42.9388) translate(-102.575,-42.9388)">
                    <path class="st19" d="M102.59,40.67C101.5,40.04,100.61,40.54,100.6,41.79C100.6,43.04,101.48,44.58,102.57,45.21C103.66,45.84,104.55,45.33,104.55,44.07C104.56,42.82,103.69,41.3,102.59,40.67" fill="#0078D4" transform="translate(102.575,42.9388) translate(-102.575,-42.9388)"/>
                </g>
            </g>
            <g class="st17" fill="none" clip-path="url(#f5t7t5521lrlt5wnyc81a15o)" transform="translate(34.155,19.7188) translate(-108.535,-46.3988)">
                <path class="st19" d="M108.55,44.13C107.46,43.5,106.57,44,106.56,45.25C106.56,46.5,107.44,48.04,108.53,48.67C109.62,49.3,110.51,48.79,110.51,47.53C110.52,46.28,109.65,44.76,108.55,44.13" fill="#0078D4" transform="translate(108.535,46.3988) translate(-108.535,-46.3988)"/>
            </g>
        </g>
        <g opacity="0.1" transform="translate(74.9262,90.566) scale(0.8,0.799611) translate(-36.24,-32.3504)" style="animation: 3s linear both kofco7dpicfyi4qkr386rt9r_t, 3s linear both kofco7dpicfyi4qkr386rt9r_o;">
            <g class="st3" opacity="0.22" transform="translate(36.24,44.2508) translate(-54.68,-70.78)">
                <path class="st4" d="M86.8675,82.1398L38.0533,52.6168L22.4925,59.3314L71.2889,88.9432L86.8675,82.1398Z" fill="url(#via8dmytcl8lpufrqpucb85z)" opacity="0.2" transform="translate(54.68,91.3252) translate(-54.68,-70.78)" style="animation: 3s linear both ljq67ixk83znhpn4ja6ijrk8_t, 3s linear both ljq67ixk83znhpn4ja6ijrk8_o;"/>
            </g>
            <g transform="translate(39.8199,26.8) translate(-24.5101,-24.8017)">
                <path class="st8" d="M37.17,33.37L41.03,31.14C42.89,30.06,45.39,30,48.19,31.13L44.33,33.36C41.53,32.23,39.04,32.29,37.17,33.37Z" fill="#D2D2D2" transform="translate(8.93021,5.30887) translate(-42.68,-31.838)"/>
                <path class="st8" d="M74.02,50.4L74,50.42L74.01,50.42C73.98,42.45,68.15,32.65,60.91,28.44C57.12,26.24,53.67,26,51.23,27.41L47.37,29.64C49.81,28.23,53.26,28.47,57.05,30.67C64.14,34.78,69.87,44.27,70.14,52.14L69.02,52.64C74.02,56.5,78.9,63.56,78.87,69.28C78.85,72.35,77.67,74.45,75.87,75.49L79.85,73.21C81.65,72.17,82.76,70.01,82.77,66.94C82.79,61.22,79.02,54.27,74.02,50.4Z" fill="#D2D2D2" transform="translate(31.3203,24.4804) translate(-65.07,-51.0096)"/>
                <path class="st9" d="M70.14,52.62C70.11,44.65,64.28,34.85,57.04,30.64C51.18,27.24,46.13,28.53,44.39,33.35C38.35,30.93,33.78,33.99,33.75,40.86C33.71,48.51,39.37,58,46.39,62.08C46.77,62.3,47.13,62.5,47.51,62.67L68.1,74.63C68.27,74.73,68.45,74.8,68.64,74.85C74.31,77.87,78.86,75.39,78.89,69.16C78.91,63.44,75.13,56.49,70.14,52.62Z" fill="#FFFFFF" transform="translate(22.5701,25.9031) translate(-56.3199,-52.4323)"/>
            </g>
        </g>
        <g style="animation: 3s linear both a8_t;">
            <g fill="none" transform="translate(129.271,126.715) rotate(36.8979) scale(0,0) translate(-28.9398,-22.7534)" style="animation: 3s linear both y8q5pln6c59xin6ctuu7e4ip_t;">
                <path class="st5" d="M185.43,156.38L143.51,132.82L125.99,140.38L167.88,164.05L185.43,156.38Z" fill="url(#xaat8zmf9basj4t2i6zoj48k)" opacity="0.18" transform="translate(29.72,43.085) scale(0.552512,0.552512) translate(-155.71,-148.435)"/>
                <path class="st0" d="M29.5704,29.173C29.5603,28.9111,29.5503,28.649,29.5302,28.3871C29.5202,28.2661,29.5102,28.1452,29.5002,28.0244C29.5002,27.9739,29.49,27.9236,29.49,27.8732C29.48,27.7826,29.48,27.692,29.47,27.6011C29.4499,27.3391,29.4198,27.0773,29.3797,26.8052C29.3496,26.5331,29.3094,26.2612,29.2692,25.989C29.2692,25.9789,29.2692,25.9689,29.2692,25.9689C29.2692,25.9589,29.2692,25.9488,29.2592,25.9386C29.2191,25.6868,29.179,25.4246,29.1287,25.1729C29.0786,24.8907,29.0185,24.6086,28.9583,24.3266C28.9381,24.2258,28.908,24.125,28.888,24.0243C28.8779,23.9637,28.8579,23.9034,28.8478,23.853C28.8177,23.7321,28.7877,23.6011,28.7575,23.4801C28.6872,23.1981,28.607,22.9059,28.5367,22.6238C28.4765,22.4122,28.4162,22.2106,28.356,21.999C28.346,21.9588,28.336,21.9185,28.3259,21.8782C28.3159,21.8378,28.3059,21.8076,28.2958,21.7673C28.2155,21.4852,28.1252,21.2131,28.0248,20.931C27.9346,20.6591,27.8342,20.3768,27.7339,20.1048C27.7138,20.0544,27.6937,20.0041,27.6736,19.9537C27.6536,19.9133,27.6435,19.8731,27.6235,19.8328C27.5633,19.6614,27.493,19.4901,27.4328,19.3188C27.3324,19.057,27.222,18.795,27.1216,18.5329C27.0414,18.3416,26.961,18.1602,26.8809,17.9687C26.8708,17.9386,26.8508,17.8982,26.8407,17.8679C26.8206,17.8277,26.8105,17.7873,26.7905,17.7572C26.6701,17.4952,26.5597,17.2331,26.4392,16.9712C26.3088,16.6893,26.1683,16.407,26.0277,16.1249C26.0077,16.0846,25.9876,16.0443,25.9675,15.994C25.9375,15.9434,25.9073,15.8832,25.8873,15.8327C25.7769,15.6009,25.6564,15.3793,25.5359,15.1577C25.3853,14.8755,25.2249,14.6034,25.0743,14.3313C24.9939,14.1903,24.9137,14.0393,24.8334,13.8982C24.8034,13.8377,24.7733,13.7873,24.7432,13.7269C24.6026,13.485,24.442,13.2532,24.3015,13.0215C24.0908,12.679,23.88,12.3264,23.6493,11.9838C23.6091,11.9334,23.579,11.8729,23.5489,11.8225C23.2177,11.3287,22.8864,10.8553,22.5352,10.3818C22.5352,10.3717,22.5252,10.3717,22.5252,10.3614C22.5252,10.3614,22.5252,10.3614,22.5252,10.3614C22.2944,10.0391,22.0536,9.72679,21.8126,9.41444C21.612,9.16256,21.4213,8.92074,21.2106,8.66885C21.2005,8.65876,21.2005,8.65876,21.1905,8.64869C21.1905,8.64869,21.1805,8.63862,21.1805,8.63862C20.9797,8.38672,20.7689,8.1449,20.5582,7.90308C20.3475,7.67134,20.1468,7.42952,19.926,7.20785C19.8959,7.16754,19.8557,7.13732,19.8256,7.09702C19.7855,7.05671,19.7554,7.01641,19.7152,6.98619C19.5647,6.82498,19.4142,6.67383,19.2636,6.51262C19.0429,6.28089,18.812,6.05922,18.5811,5.83755C18.5109,5.75695,18.4306,5.68642,18.3604,5.62597C18.3102,5.57559,18.2499,5.52521,18.1998,5.47483C18.0893,5.37407,17.979,5.26323,17.8585,5.16247C17.6177,4.95088,17.3869,4.7393,17.146,4.53778C17.0457,4.4471,16.9353,4.3665,16.8248,4.27582C16.7747,4.23551,16.7145,4.18513,16.6642,4.14483C16.584,4.08438,16.5036,4.01383,16.4234,3.95339C16.1927,3.77202,15.9517,3.59067,15.7109,3.40931C15.5403,3.27832,15.3696,3.1574,15.1891,3.0365C15.159,3.01634,15.1289,2.98611,15.0988,2.96597C15.0686,2.94581,15.0385,2.92567,15.0084,2.9055C14.7776,2.7443,14.5568,2.59318,14.3259,2.4521C14.0952,2.31105,13.8744,2.16997,13.6435,2.02893C13.5933,1.9987,13.5332,1.96847,13.483,1.93824C13.3124,1.8375,13.1418,1.74681,12.9712,1.64605C12.7503,1.52514,12.5296,1.4143,12.3088,1.30347C12.1683,1.23295,12.0278,1.17248,11.8874,1.10196C11.8572,1.08181,11.8171,1.07174,11.787,1.05158C11.7468,1.03143,11.7067,1.01128,11.6665,0.991124C11.4557,0.890368,11.235,0.799685,11.0243,0.71908C10.8033,0.628399,10.5926,0.547793,10.3718,0.477262C10.3317,0.467186,10.3016,0.457111,10.2614,0.43696C10.2313,0.426884,10.1911,0.416807,10.161,0.406733C10.0106,0.356353,9.87007,0.305975,9.72956,0.265672C9.49874,0.195141,9.27797,0.134688,9.05717,0.0742327C8.95682,0.0440055,8.84643,0.0238541,8.74607,0.00370259C8.69588,-0.0063732,8.64571,-0.0164493,8.60556,-0.0265248C8.53531,-0.0366003,8.46506,-0.0567513,8.40484,-0.0769033C8.16398,-0.117205,7.92312,-0.157509,7.69231,-0.187737C7.5518,-0.207889,7.41129,-0.217962,7.2708,-0.238115C7.22062,-0.238115,7.17044,-0.248191,7.12026,-0.258266C7.07008,-0.258266,7.01991,-0.268342,6.97976,-0.268342C6.71883,-0.278418,6.46793,-0.288495,6.21705,-0.288495C6.10665,-0.288495,5.99625,-0.278418,5.88585,-0.268342C5.80557,-0.268342,5.71525,-0.258266,5.63496,-0.258266C5.54464,-0.248191,5.46435,-0.258266,5.37402,-0.248191C5.06292,-0.217962,4.7518,-0.177661,4.45072,-0.117205C4.44069,-0.117205,4.44069,-0.117205,4.43066,-0.117205C4.36041,-0.107131,4.3002,-0.0769033,4.22994,-0.0567513C3.91883,0.0137783,3.61776,0.0943842,3.32672,0.195141C3.28658,0.215292,3.25648,0.22537,3.21632,0.235445C3.16615,0.255596,3.11596,0.275748,3.06579,0.295899C2.7045,0.447036,2.35325,0.608247,2.01202,0.809762L-0.105524,2.039C0.235693,1.8375,0.586946,1.67628,0.94824,1.53522C0.998405,1.51507,1.0486,1.49491,1.09878,1.47476C1.42996,1.35386,1.77118,1.26317,2.11239,1.18256C2.18264,1.16241,2.24285,1.14225,2.3131,1.13218C2.7045,1.05158,3.10593,1.0012,3.5174,0.981049C3.59768,0.970973,3.68802,0.970973,3.7683,0.970973C4.16974,0.950822,4.57116,0.960898,4.99267,0.991124C5.04285,0.991124,5.09303,1.0012,5.1432,1.01128C5.57475,1.05158,6.02635,1.1221,6.47796,1.21279C6.52815,1.22286,6.57832,1.23295,6.61847,1.24302C7.08011,1.34378,7.56183,1.47476,8.04355,1.64605C8.07366,1.65612,8.1138,1.6662,8.14391,1.67628C8.64571,1.84757,9.15753,2.05915,9.67939,2.29089C9.70949,2.31105,9.74963,2.32113,9.77975,2.34128C10.3016,2.58309,10.8436,2.86522,11.3755,3.17755C11.9175,3.48991,12.4593,3.84257,12.9913,4.20528C13.0214,4.22543,13.0515,4.25565,13.0916,4.27582C13.5833,4.61839,14.0751,4.99118,14.5568,5.38415C14.607,5.42444,14.6672,5.47483,14.7173,5.51513C15.179,5.898,15.6407,6.30104,16.0923,6.71414C16.1424,6.76452,16.2027,6.8149,16.2529,6.86528C16.7044,7.29853,17.156,7.74187,17.5876,8.20534C17.6277,8.24564,17.6578,8.28595,17.6979,8.31619C18.1596,8.81996,18.6213,9.33383,19.0629,9.86785C19.073,9.87792,19.073,9.87792,19.083,9.888C19.5347,10.432,19.9761,10.9963,20.3976,11.5807C20.3976,11.5907,20.4077,11.5907,20.4077,11.6009C20.7891,12.1248,21.1604,12.6689,21.5217,13.2129C21.7424,13.5556,21.9532,13.8982,22.1739,14.2508C22.3546,14.5431,22.5352,14.8352,22.7159,15.1273C22.7962,15.2684,22.8764,15.4095,22.9567,15.5608C23.2377,16.0544,23.5088,16.5581,23.7697,17.0719C23.7998,17.1224,23.8298,17.1829,23.8499,17.2331C24.1611,17.8479,24.4521,18.4826,24.7331,19.1073C24.7432,19.1376,24.7632,19.1777,24.7733,19.2081C25.0442,19.8226,25.2951,20.4474,25.5259,21.0721C25.5459,21.1124,25.556,21.1527,25.576,21.193C25.8069,21.8378,26.0277,22.4725,26.2184,23.1175C26.2285,23.1576,26.2385,23.1981,26.2485,23.2383C26.4292,23.853,26.5998,24.4778,26.7403,25.0922C26.7504,25.1528,26.7704,25.2131,26.7805,25.2737C26.931,25.9083,27.0514,26.5532,27.1517,27.188C27.1517,27.198,27.1517,27.2083,27.1617,27.2183C27.2621,27.853,27.3424,28.4879,27.3926,29.1225C27.3926,29.173,27.4027,29.2233,27.4027,29.2737C27.4528,29.9084,27.4829,30.5332,27.4729,31.1478C27.4729,31.7625,27.4428,32.357,27.3926,32.9312C27.3926,32.9817,27.3826,33.032,27.3726,33.0823C27.3223,33.6063,27.2421,34.1102,27.1517,34.5938C27.1417,34.6542,27.1216,34.7246,27.1116,34.7851C27.0113,35.2587,26.9009,35.7021,26.7604,36.1353C26.7403,36.2158,26.7102,36.2965,26.6801,36.3772C26.5496,36.7801,26.3991,37.1631,26.2285,37.5358C26.2084,37.5761,26.1984,37.6265,26.1783,37.6669C25.9776,38.0799,25.7668,38.483,25.5259,38.8456C25.4958,38.8961,25.4557,38.9363,25.4256,38.9868C25.2249,39.279,25.024,39.561,24.8034,39.823C24.7231,39.9138,24.6428,40.0044,24.5525,40.0951C24.3618,40.3066,24.1611,40.4981,23.9502,40.6795C23.8599,40.76,23.7797,40.8306,23.6894,40.9113C23.3883,41.153,23.0873,41.3747,22.756,41.5661L24.8736,40.3268C25.2047,40.1353,25.5058,39.9138,25.8069,39.6718C25.8972,39.6014,25.9776,39.5208,26.0679,39.4401C26.2786,39.2588,26.4794,39.0572,26.6701,38.8557C26.7504,38.7651,26.8407,38.6744,26.921,38.5838C27.1417,38.3217,27.3524,38.0497,27.5432,37.7473C27.5733,37.697,27.6134,37.6568,27.6435,37.6062C27.6536,37.5963,27.6536,37.5862,27.6636,37.5761C27.8844,37.2335,28.0851,36.8608,28.2758,36.4678C28.2858,36.4577,28.2858,36.4377,28.2958,36.4275C28.3159,36.3872,28.3259,36.3368,28.346,36.2965C28.4564,36.0547,28.5668,35.8028,28.6571,35.541C28.7073,35.4099,28.7474,35.2688,28.7877,35.1379C28.8177,35.0572,28.8378,34.9766,28.8679,34.896C28.888,34.8255,28.9181,34.755,28.9381,34.6844C29.0185,34.4124,29.0886,34.1403,29.1489,33.8582C29.1689,33.7573,29.189,33.6567,29.2091,33.5559C29.2191,33.4955,29.2391,33.4249,29.2492,33.3644C29.2692,33.2635,29.2893,33.173,29.3094,33.0723C29.3496,32.8204,29.3897,32.5585,29.4198,32.2964C29.4399,32.1554,29.4499,32.0042,29.47,31.8532C29.48,31.8027,29.48,31.7524,29.49,31.702C29.5002,31.6415,29.5002,31.5811,29.5102,31.5205C29.5302,31.2688,29.5503,31.0168,29.5603,30.7548C29.5704,30.4928,29.5804,30.241,29.5804,29.969C29.5804,29.9488,29.5804,29.9388,29.5804,29.9185C29.5804,29.6566,29.5704,29.4148,29.5704,29.173Z" fill="#ACF3FD" transform="translate(32.693,21.2471) rotate(-0.557948) translate(-14.79,-20.77)"/>
                <path class="st14" d="M158.18,111.96C158.23,111.99,158.29,112.02,158.34,112.05C159.83,112.91,161.26,113.96,162.64,115.19C164.02,116.43,165.3,117.79,166.5,119.3C167.69,120.8,168.78,122.4,169.78,124.1C170.77,125.8,171.61,127.54,172.3,129.31C172.98,131.08,173.52,132.88,173.92,134.72C174.31,136.55,174.5,138.31,174.48,139.99C174.47,141.7,174.28,143.23,173.89,144.6C173.5,145.96,172.96,147.13,172.25,148.09C171.54,149.06,170.69,149.83,169.71,150.41C168.73,150.99,167.64,151.33,166.44,151.43C165.24,151.53,163.95,151.41,162.55,151.06C161.21,150.73,159.83,150.15,158.41,149.33C158.36,149.3,158.3,149.27,158.25,149.23C156.76,148.37,155.33,147.32,153.95,146.09C152.57,144.86,151.29,143.49,150.09,141.99C148.9,140.49,147.81,138.89,146.81,137.19C145.82,135.49,144.98,133.75,144.29,131.98C143.6,130.21,143.06,128.4,142.67,126.57C142.28,124.74,142.09,122.98,142.11,121.3C142.12,119.59,142.31,118.05,142.7,116.69C143.09,115.33,143.64,114.16,144.34,113.2C145.05,112.23,145.9,111.46,146.88,110.88C147.86,110.3,148.95,109.96,150.15,109.86C151.35,109.76,152.64,109.88,154.04,110.23C155.38,110.57,156.76,111.14,158.18,111.96Z" fill="#50E6FF" transform="translate(29.305,22.295) translate(-158.295,-130.645)"/>
                <path class="st16" d="M157.33,131.69L157.33,140.52L158.97,141.48L158.97,132.65L166.57,137.03L166.57,135.25L158.97,130.73L158.97,121.9L157.33,120.94L157.33,129.77L149.73,125.39L149.73,127.31L157.33,131.69Z" stroke-width="1.7422" stroke="#FFFFFF" stroke-miterlimit="10" fill="#FFFFFF" transform="translate(28.5071,32.9215) translate(-157.497,-141.271)"/>
                <path d="M12.1556,-4.26535L44.1861,38.3874" stroke="#ffffff" fill="none" stroke-width="3" fill-rule="nonzero" opacity="0.8" mask="url(#y89rzqr5uv4lnijciwbjon76)" transform="translate(16.03,-3.32)" style="animation: 3s linear both um51pdeoqf01m9l3mylr8ao6_d;"/>
            </g>
        </g>
    </g>
</svg>
