<svg id="Layer_1" data-name="Layer 1" xmlns="http://www.w3.org/2000/svg" viewBox="0 0 16 16"><defs><style>.cls-1{fill:#fff;}</style></defs><title>jobalert_inverse</title><path class="cls-1" d="M16,2.24V7.58A5.38,5.38,0,0,0,15,6.5V4.3L12.8,5.39l-.64-.11a5,5,0,0,0-.65,0l-.36,0-.36,0,4.11-2.05H1.12L7.87,6.61,7.49,7a4.7,4.7,0,0,0-.34.39L1,4.3v6.94H6a4.64,4.64,0,0,0,.07.5c0,.17.07.33.11.5H0v-10Zm-4.5,4a4.35,4.35,0,0,1,1.75.36A4.53,4.53,0,0,1,15.64,9a4.49,4.49,0,0,1,0,3.5,4.53,4.53,0,0,1-2.39,2.39,4.49,4.49,0,0,1-3.5,0,4.53,4.53,0,0,1-2.39-2.39,4.49,4.49,0,0,1,0-3.5A4.53,4.53,0,0,1,9.75,6.59,4.35,4.35,0,0,1,11.5,6.24Zm0,8A3.38,3.38,0,0,0,12.86,14a3.53,3.53,0,0,0,1.86-1.86,3.49,3.49,0,0,0,0-2.73,3.53,3.53,0,0,0-1.86-1.86,3.49,3.49,0,0,0-2.73,0A3.53,3.53,0,0,0,8.28,9.37a3.49,3.49,0,0,0,0,2.73A3.53,3.53,0,0,0,10.14,14,3.38,3.38,0,0,0,11.5,14.24Zm-.5-6h1v3H11Zm0,4h1v1H11Z"/></svg>