<svg id="Layer_1" data-name="Layer 1" xmlns="http://www.w3.org/2000/svg" viewBox="0 0 16 16"><defs><style>.cls-1{fill:#212121;}</style></defs><title>refresh</title><path class="cls-1" d="M12.51,1.59a8.06,8.06,0,0,1,3.06,4A7.83,7.83,0,0,1,16,8.2a7.91,7.91,0,0,1-.29,2.12,8.13,8.13,0,0,1-.8,1.91A8,8,0,0,1,12,15.11a8.1,8.1,0,0,1-1.91.8,8.06,8.06,0,0,1-4.25,0A8.08,8.08,0,0,1,4,15.11a8,8,0,0,1-2.87-2.87,8.07,8.07,0,0,1-.8-1.91,8,8,0,0,1,0-4.25,8.11,8.11,0,0,1,.82-1.94,7.86,7.86,0,0,1,1.3-1.66A8,8,0,0,1,4.14,1.2H2V.2H6v4H5V1.88A7,7,0,0,0,1.28,6.24a7,7,0,0,0,0,3.82,7,7,0,0,0,1.8,3.09A7,7,0,0,0,6.14,15a7,7,0,0,0,3.71,0,7,7,0,0,0,1.67-.71,7,7,0,0,0,3.22-4.18,7,7,0,0,0-.13-4.12,7.07,7.07,0,0,0-2.68-3.52,6.78,6.78,0,0,0-2.07-1l.27-1A7.67,7.67,0,0,1,12.51,1.59Z"/></svg>