<?xml version="1.0" encoding="utf-8"?>
<!-- Generator: Adobe Illustrator 23.0.3, SVG Export Plug-In . SVG Version: 6.00 Build 0)  -->
<svg version="1.1" id="Layer_1" xmlns="http://www.w3.org/2000/svg" xmlns:xlink="http://www.w3.org/1999/xlink" x="0px" y="0px"
	 viewBox="0 0 16 16" style="enable-background:new 0 0 16 16;" xml:space="preserve">
<style type="text/css">
	.st0{fill:#FFFFFF;fill-opacity:0;}
	.st1{fill:#FFFFFF;}
</style>
<title>files_Visulizer__16x</title>
<path id="canvas-2" class="st0" d="M10.5,15.7H0.9V6.1h9.6V15.7z"/>
<path id="iconBg" class="st1" d="M5.1,12.7H3.9v-2.4h1.2V12.7z M6.9,9.7H5.7v3h1.2V9.7z M8.7,7.3H7.5v5.4h1.2V7.3z M8.6,12.9
	l-0.4,0.4l0.6,0.6H2.7V7.8l0.7,0.7L3.8,8L2.4,6.6L1,8l0.4,0.4l0.6-0.6v6.8h6.8l-0.7,0.7l0.4,0.4l1.4-1.4L8.6,12.9z"/>
<path id="iconBg-2" class="st1" d="M15,2v12h-4.6c0-0.4,0-0.7,0-1H14V5H2v1.3H1V2H15z"/>
</svg>
