<svg id="Layer_1" data-name="Layer 1" xmlns="http://www.w3.org/2000/svg" viewBox="0 0 16 16"><defs><style>.cls-1,.cls-2{fill:#f6f6f6;}.cls-1{fill-opacity:0;}.cls-3{fill:#424242;}</style></defs><title>viewVisualizerNew</title><path id="canvas" class="cls-1" d="M16.52,16H-.23V-.77H16.52Z"/><path id="canvas-2" class="cls-1" d="M10.61,15.61H.81V5.81h9.8Z"/><path id="outline-2" class="cls-2" d="M1.42,9.87V9.39h0L.81,8.85V7.4L2,6.19h.66l2,1.93L3.32,9.44l-.06-.06v.49H5.09V9.25H6.94V6.8l2.43,0v6.13h0l1.12,1.25v.66L9.48,16H7.87l-.52-.51.07-.07h-6Z"/><path id="iconBg" class="cls-3" d="M5.09,12.92H3.87V10.48H5.09ZM6.94,9.87H5.7v3.05H6.94ZM8.77,7.41H7.55v5.51H8.77Zm-.1,5.69-.43.42.64.66H2.65V7.9l.67.68.44-.44L2.34,6.73.94,8.14l.44.43L2,7.92V14.8H8.89l-.67.68.43.43,1.45-1.42Z"/><path id="iconBg-2" class="cls-3" d="M15.19,2V14.25H10.5v-1h3.68V5.08H2V6.37h-1V2Z"/></svg>
