<svg xmlns="http://www.w3.org/2000/svg" viewBox="0 0 120 120"><path d="M38 6v6h6V6h-6m9 0v6h6V6h-6m9 0v6h6V6h-6m9 0v6h6V6h-6m9 0v6h6V6h-6m9 0h6v6h-6zM29 15v6h6v-6h-6m9 0v6h6v-6h-6m9 0v6h6v-6h-6m9 0v6h6v-6h-6m9 0v6h6v-6h-6m9 0v6h6v-6h-6m9 0h6v6h-6zM20 24v6h6v-6h-6m9 0v6h6v-6h-6m9 0v6h6v-6h-6m9 0v6h6v-6h-6m9 0v6h6v-6h-6m9 0v6h6v-6h-6m9 0v6h6v-6h-6m9 0h6v6h-6zM20 33v6h6v-6h-6m9 0v6h6v-6h-6m9 0v6h6v-6h-6m9 0v6h6v-6h-6m-27 9v6h6v-6h-6m9 0v6h6v-6h-6m9 0v6h6v-6h-6m9 0h6v6h-6zM29 51v6h6v-6h-6m9 0v6h6v-6h-6m9 0v6h6v-6h-6m9 0v6h6v-6h-6m9 0v6h6v-6h-6m9 0h6v6h-6zM38 60v6h6v-6h-6m9 0v6h6v-6h-6m9 0v6h6v-6h-6m9 0v6h6v-6h-6m9 0v6h6v-6h-6m9 0h6v6h-6zM65 69v6h6v-6h-6m9 0v6h6v-6h-6m9 0v6h6v-6h-6m9 0v6h6v-6h-6m-27 9v6h6v-6h-6m9 0v6h6v-6h-6m9 0v6h6v-6h-6m9 0v6h6v-6h-6m-72 9v6h6v-6h-6m9 0v6h6v-6h-6m9 0v6h6v-6h-6m9 0v6h6v-6h-6m9 0v6h6v-6h-6m9 0v6h6v-6h-6m9 0v6h6v-6h-6m9 0v6h6v-6h-6m9 0v6h6v-6h-6m-72 9v6h6v-6h-6m9 0v6h6v-6h-6m9 0v6h6v-6h-6m9 0v6h6v-6h-6m9 0v6h6v-6h-6m9 0v6h6v-6h-6m9 0v6h6v-6h-6m9 0h6v6h-6zM29 105v6h6v-6h-6m9 0v6h6v-6h-6m9 0v6h6v-6h-6m9 0v6h6v-6h-6m9 0v6h6v-6h-6m9 0h6v6h-6z"></path><path d="M29 6v6h6V6z" opacity=".33"></path><path d="M92 6v6h6V6z" opacity=".8"></path><path d="M20 15v6h6v-6z" opacity=".55"></path><path d="M92 15v6h6v-6zM92 24v6h6v-6z" opacity=".8"></path><path d="M56 42v6h6v-6z" opacity=".95"></path><path d="M20 51v6h6v-6z" opacity=".4"></path><path d="M83 51v6h6v-6z" opacity=".25"></path><path d="M29 60v6h6v-6z" opacity=".14"></path><path d="M92 60v6h6v-6z" opacity=".71"></path><path d="M56 69v6h6v-6z" opacity=".91"></path><path d="M92 96v6h6v-6z" opacity=".8"></path><path d="M20 105v6h6v-6z" opacity=".41"></path><path d="M83 105v6h6v-6z" opacity=".6"></path></svg>