<svg id="Layer_1" data-name="Layer 1" xmlns="http://www.w3.org/2000/svg" viewBox="0 0 16 16"><defs><style>.cls-1{fill:#f0eff1;}.cls-2,.cls-3{fill:#f6f6f6;}.cls-2{fill-opacity:0;}.cls-4{fill:#424242;}</style></defs><title>files_Visulizer__16x</title><rect class="cls-1" y="1.08" width="16" height="14.92"/><path id="canvas" class="cls-2" d="M16,16H0V0H16Z"/><path id="outline" class="cls-3" d="M0,16V0H16V16"/><path id="canvas-2" data-name="canvas" class="cls-2" d="M10.5,15.71H.87V6.09H10.5Z"/><path id="outline-2" data-name="outline" class="cls-3" d="M1.47,9.7V9.23l0,0L.87,8.7V7.28L2.06,6.09H2.7L4.62,8,3.34,9.28l-.06-.06V9.7h1.8V9.09H6.89V6.69h2.4v6h0l1.1,1.22v.65l-1,1.14H7.81L7.3,15.2l.07-.07H1.47Z"/><path id="iconBg" class="cls-4" d="M5.08,12.7H3.88V10.3h1.2Zm1.81-3H5.68v3H6.89Zm1.8-2.41H7.49V12.7h1.2Zm-.1,5.58-.42.42.63.64H2.68V7.77l.66.66L3.77,8,2.38,6.62,1,8l.43.42.63-.63v6.75H8.81l-.66.67.42.42L10,14.24Z"/><path id="iconBg-2" data-name="iconBg" class="cls-4" d="M15,2V14l-4.61,0c0-.35,0-.66,0-1H14V5H2V6.26H1V2Z"/></svg>