<svg width="16" height="16" viewBox="0 0 16 16" fill="none" xmlns="http://www.w3.org/2000/svg">
<path d="M12 6V7C12.3958 7 12.7734 7.04688 13.1328 7.14062C13.4974 7.22917 13.8177 7.375 14.0938 7.57812C14.3698 7.77604 14.5885 8.03385 14.75 8.35156C14.9167 8.66406 15 9.04688 15 9.5C15 9.84375 14.9323 10.1667 14.7969 10.4688C14.6667 10.7708 14.487 11.0365 14.2578 11.2656C14.0339 11.4896 13.7708 11.6693 13.4688 11.8047C13.1667 11.9349 12.8438 12 12.5 12H8.5C8.15625 12 7.83333 11.9349 7.53125 11.8047C7.22917 11.6693 6.96354 11.4896 6.73438 11.2656C6.51042 11.0365 6.33073 10.7708 6.19531 10.4688C6.0651 10.1667 6 9.84375 6 9.5C6 9.04688 6.08073 8.66406 6.24219 8.35156C6.40885 8.03385 6.63021 7.77604 6.90625 7.57812C7.18229 7.375 7.5 7.22917 7.85938 7.14062C8.22396 7.04688 8.60417 7 9 7V6H8.5C8.01562 6 7.5599 6.09375 7.13281 6.28125C6.71094 6.46354 6.34115 6.71354 6.02344 7.03125C5.71094 7.34375 5.46094 7.71354 5.27344 8.14062C5.09115 8.5625 5 9.01562 5 9.5C5 9.98438 5.09115 10.4401 5.27344 10.8672C5.46094 11.2891 5.71094 11.6589 6.02344 11.9766C6.34115 12.2891 6.71094 12.5391 7.13281 12.7266C7.5599 12.9089 8.01562 13 8.5 13H12.5C12.9844 13 13.4375 12.9089 13.8594 12.7266C14.2865 12.5391 14.6562 12.2891 14.9688 11.9766C15.2865 11.6589 15.5365 11.2891 15.7188 10.8672C15.9062 10.4401 16 9.98438 16 9.5C16 9.01562 15.9062 8.5625 15.7188 8.14062C15.5365 7.71354 15.2865 7.34375 14.9688 7.03125C14.6562 6.71354 14.2865 6.46354 13.8594 6.28125C13.4375 6.09375 12.9844 6 12.5 6H12ZM7 10V9C7.39583 9 7.77344 8.95573 8.13281 8.86719C8.4974 8.77344 8.81771 8.6276 9.09375 8.42969C9.36979 8.22656 9.58854 7.96875 9.75 7.65625C9.91667 7.33854 10 6.95312 10 6.5C10 6.15625 9.93229 5.83333 9.79688 5.53125C9.66667 5.22917 9.48698 4.96615 9.25781 4.74219C9.03385 4.51302 8.77083 4.33333 8.46875 4.20312C8.16667 4.06771 7.84375 4 7.5 4H3.5C3.15625 4 2.83333 4.06771 2.53125 4.20312C2.22917 4.33333 1.96354 4.51302 1.73438 4.74219C1.51042 4.96615 1.33073 5.22917 1.19531 5.53125C1.0651 5.83333 1 6.15625 1 6.5C1 6.95312 1.08073 7.33854 1.24219 7.65625C1.40885 7.96875 1.63021 8.22656 1.90625 8.42969C2.18229 8.6276 2.5 8.77344 2.85938 8.86719C3.22396 8.95573 3.60417 9 4 9V10H3.5C3.01562 10 2.5599 9.90885 2.13281 9.72656C1.71094 9.53906 1.34115 9.28906 1.02344 8.97656C0.710938 8.65885 0.460938 8.28906 0.273438 7.86719C0.0911458 7.4401 0 6.98438 0 6.5C0 6.01562 0.0911458 5.5625 0.273438 5.14062C0.460938 4.71354 0.710938 4.34375 1.02344 4.03125C1.34115 3.71354 1.71094 3.46354 2.13281 3.28125C2.5599 3.09375 3.01562 3 3.5 3H7.5C7.98438 3 8.4375 3.09375 8.85938 3.28125C9.28646 3.46354 9.65625 3.71354 9.96875 4.03125C10.2865 4.34375 10.5365 4.71354 10.7188 5.14062C10.9062 5.5625 11 6.01562 11 6.5C11 6.98438 10.9062 7.4401 10.7188 7.86719C10.5365 8.28906 10.2865 8.65885 9.96875 8.97656C9.65625 9.28906 9.28646 9.53906 8.85938 9.72656C8.4375 9.90885 7.98438 10 7.5 10H7Z" fill="black"/>
</svg>
