<svg id="Layer_1" data-name="Layer 1" xmlns="http://www.w3.org/2000/svg" xmlns:xlink="http://www.w3.org/1999/xlink" viewBox="0 0 16 16"><defs><style>.cls-1,.cls-2{clip-rule:evenodd;}.cls-2,.cls-5,.cls-7{fill:#fff;}.cls-3,.cls-5{fill-rule:evenodd;}.cls-4{clip-path:url(#clip-path);}.cls-6{clip-path:url(#clip-path-2);}</style><clipPath id="clip-path"><path class="cls-1" d="M11.5-15.92v3.5a3.4,3.4,0,0,1-.23,1.24,3.48,3.48,0,0,1-.63,1.05,3.57,3.57,0,0,1-1,.77A3.43,3.43,0,0,1,8.5-9v6h-1V-9a3.39,3.39,0,0,1-1.2-.4,3.59,3.59,0,0,1-.95-.77,3.48,3.48,0,0,1-.63-1.05,3.4,3.4,0,0,1-.23-1.24v-3.5h1v-3h1v3h3v-3h1v3Zm-1,1h-5v2.5a2.45,2.45,0,0,0,.2,1,2.53,2.53,0,0,0,.53.8,2.53,2.53,0,0,0,.8.53,2.45,2.45,0,0,0,1,.2,2.42,2.42,0,0,0,1-.2,2.53,2.53,0,0,0,.79-.53,2.59,2.59,0,0,0,.54-.8,2.41,2.41,0,0,0,.2-1Z"/></clipPath><clipPath id="clip-path-2"><path class="cls-2" d="M11.5,3V6.5a3.4,3.4,0,0,1-.23,1.24,3.48,3.48,0,0,1-.63,1.05,3.57,3.57,0,0,1-1,.77A3.43,3.43,0,0,1,8.5,10v6h-1V10a3.39,3.39,0,0,1-1.2-.4,3.59,3.59,0,0,1-.95-.77,3.48,3.48,0,0,1-.63-1.05A3.4,3.4,0,0,1,4.5,6.5V3h1V0h1V3h3V0h1V3Zm-1,1h-5V6.5a2.45,2.45,0,0,0,.2,1A2.49,2.49,0,0,0,7,8.8,2.45,2.45,0,0,0,8,9a2.42,2.42,0,0,0,1-.2,2.53,2.53,0,0,0,.79-.53,2.59,2.59,0,0,0,.54-.8,2.41,2.41,0,0,0,.2-1Z"/></clipPath></defs><title>connect_to_inverse</title><path class="cls-3" d="M11.5-15.92v3.5a3.4,3.4,0,0,1-.23,1.24,3.48,3.48,0,0,1-.63,1.05,3.57,3.57,0,0,1-1,.77A3.43,3.43,0,0,1,8.5-9v6h-1V-9a3.39,3.39,0,0,1-1.2-.4,3.59,3.59,0,0,1-.95-.77,3.48,3.48,0,0,1-.63-1.05,3.4,3.4,0,0,1-.23-1.24v-3.5h1v-3h1v3h3v-3h1v3Zm-1,1h-5v2.5a2.45,2.45,0,0,0,.2,1,2.53,2.53,0,0,0,.53.8,2.53,2.53,0,0,0,.8.53,2.45,2.45,0,0,0,1,.2,2.42,2.42,0,0,0,1-.2,2.53,2.53,0,0,0,.79-.53,2.59,2.59,0,0,0,.54-.8,2.41,2.41,0,0,0,.2-1Z"/><g class="cls-4"><rect x="-0.5" y="-23.92" width="17" height="26"/></g><path class="cls-5" d="M11.5,3V6.5a3.4,3.4,0,0,1-.23,1.24,3.48,3.48,0,0,1-.63,1.05,3.57,3.57,0,0,1-1,.77A3.43,3.43,0,0,1,8.5,10v6h-1V10a3.39,3.39,0,0,1-1.2-.4,3.59,3.59,0,0,1-.95-.77,3.48,3.48,0,0,1-.63-1.05A3.4,3.4,0,0,1,4.5,6.5V3h1V0h1V3h3V0h1V3Zm-1,1h-5V6.5a2.45,2.45,0,0,0,.2,1A2.49,2.49,0,0,0,7,8.8,2.45,2.45,0,0,0,8,9a2.42,2.42,0,0,0,1-.2,2.53,2.53,0,0,0,.79-.53,2.59,2.59,0,0,0,.54-.8,2.41,2.41,0,0,0,.2-1Z"/><g class="cls-6"><rect class="cls-7" x="-0.5" y="-5" width="17" height="26"/></g></svg>