<svg id="Icon" xmlns="http://www.w3.org/2000/svg" width="16" height="16" viewBox="0 0 16 16"><defs><style>.cls-1{fill:#f6f6f6;}.cls-2{fill:#424242;}.cls-3{fill:#f0eff1;}</style></defs><title>regserverserver_16x</title><polygon class="cls-1" points="15 0 7 0 7 4 2 4 2 16 10 16 10 12 15 12 15 0"/><path class="cls-2" d="M3,5V15H9V5Zm5,9H7V13H8ZM8,9H4V8H8ZM8,7H4V6H8ZM8,1V4h5V5H10v6h4V1Zm5,9H12V9h1Zm0-7H9V2h4Z"/><path class="cls-3" d="M8,14H7V13H8ZM8,9H4V8H8ZM8,7H4V6H8Zm5,3H12V9h1Zm0-5H10V4h3Zm0-2H9V2h4Z"/></svg>