<svg id="Layer_1" data-name="Layer 1" xmlns="http://www.w3.org/2000/svg" xmlns:xlink="http://www.w3.org/1999/xlink" viewBox="0 0 32 32"><defs><style>.cls-1{fill:none;}.cls-2{clip-path:url(#clip-path);}.cls-3{clip-path:url(#clip-path-2);}.cls-4{clip-path:url(#clip-path-3);}.cls-5{clip-path:url(#clip-path-4);}.cls-6{clip-path:url(#clip-path-5);}.cls-7{clip-path:url(#clip-path-6);}.cls-8{clip-path:url(#clip-path-7);}.cls-9{clip-path:url(#clip-path-8);}.cls-10{fill:#68217a;}</style><clipPath id="clip-path"><rect class="cls-1" x="39.15" y="47.45" width="15.81" height="13.48"/></clipPath><clipPath id="clip-path-2"><rect class="cls-1" x="-754.07" y="415.73" width="15.81" height="13.48"/></clipPath><clipPath id="clip-path-3"><rect class="cls-1" x="-753.07" y="415.73" width="15.81" height="13.48"/></clipPath><clipPath id="clip-path-4"><rect class="cls-1" x="-750.43" y="422" width="10.73" height="0.43"/></clipPath><clipPath id="clip-path-5"><rect class="cls-1" x="-750.13" y="420.77" width="10.14" height="0.43"/></clipPath><clipPath id="clip-path-6"><rect class="cls-1" x="-749.72" y="419.53" width="9.31" height="0.43"/></clipPath><clipPath id="clip-path-7"><rect class="cls-1" x="-749.32" y="418.29" width="8.5" height="0.43"/></clipPath><clipPath id="clip-path-8"><rect class="cls-1" x="-748.89" y="417.05" width="7.65" height="0.43"/></clipPath></defs><title>AKS</title><path class="cls-10" d="M14.66,10.18,9.79,12V4.16l4.86,1.73Z"/><path class="cls-10" d="M5.31,5.5v5.18L9,12.1V4.16Zm.38,4.8-.19-.06V6l.19-.06.19-.06.26-.06v4.67L6,10.37A1.45,1.45,0,0,1,5.7,10.3Zm1,.26L6.4,10.5V5.7l.26-.06.26-.06.26-.06v5.25l-.26-.06Zm1.15.38-.32-.13V5.38l.32-.06.32-.13.38-.13v6.08L8.13,11C8.13,11.07,7.81,10.94,7.81,10.94Z"/><path class="cls-10" d="M26.11,10.18,21.25,12V4.16l4.86,1.73Z"/><path class="cls-10" d="M16.77,5.5v5.18l3.65,1.41V4.16Zm.38,4.8L17,10.24V6l.19-.06.19-.06.26-.06v4.67l-.19-.06A1.45,1.45,0,0,1,17.15,10.3Zm1,.26-.26-.06V5.7l.26-.06.26-.06.26-.06v5.25l-.26-.06Zm1.15.38-.32-.13V5.38l.32-.06.32-.13L20,5.06v6.08L19.58,11C19.58,11.07,19.26,10.94,19.26,10.94Z"/><path class="cls-10" d="M14.66,25.92,9.79,27.78V19.9l4.86,1.73Z"/><path class="cls-10" d="M5.31,21.25v5.18L9,27.84V19.9ZM5.7,26,5.5,26V21.7l.19-.06.19-.06.19-.06v4.67l-.19-.06Zm1,.26-.26-.06v-4.8l.26-.06.26-.06.26-.06V26.5l-.26-.06C6.91,26.37,6.66,26.3,6.66,26.3Zm1.15.38-.32-.13V21.12l.32-.06.32-.13.38-.13v6.08l-.38-.13C8.13,26.82,7.81,26.69,7.81,26.69Z"/><path class="cls-10" d="M26.11,25.92l-4.86,1.86V19.9l4.86,1.73Z"/><path class="cls-10" d="M16.77,21.25v5.18l3.65,1.41V19.9Zm.38,4.8L17,26V21.7l.19-.06.19-.06.19-.06v4.67l-.19-.06Zm1,.26-.26-.06v-4.8l.26-.06.26-.06.26-.06V26.5l-.26-.06C18.37,26.37,18.11,26.3,18.11,26.3Zm1.15.38-.32-.13V21.12l.32-.06.32-.13L20,20.8v6.08l-.38-.13C19.58,26.82,19.26,26.69,19.26,26.69Z"/><path class="cls-10" d="M20.74,18,15.87,19.9V12l4.86,1.73Z"/><path class="cls-10" d="M11.39,13.31V18.5L15,19.9V12Zm.38,4.8L11.58,18V13.76l.19-.06.19-.06.19-.06v4.67L12,18.18C12,18.18,11.78,18.11,11.78,18.11Zm1,.32-.26-.06v-4.8l.26-.06.26-.06.26-.06v5.25L13,18.56C13,18.5,12.74,18.43,12.74,18.43Zm1.15.38-.32-.13V13.25l.32-.06.32-.13.38-.13V19l-.38-.13Z"/><path class="cls-10" d="M9.34,18,4.48,19.9V12l4.86,1.73Z"/><path class="cls-10" d="M0,13.31V18.5L3.65,19.9V12Zm.38,4.8L.19,18V13.76l.19-.06H.64l.19-.06V18.3l-.19-.13Zm1,.32-.26-.06v-4.8l.26-.13.26-.06.26-.06v5.25L1.6,18.5Zm1.15.38-.32-.13V13.25l.32-.06.32-.13.38-.13V19l-.38-.13A2.77,2.77,0,0,0,2.5,18.82Z"/><path class="cls-10" d="M32,18,27.14,19.9V12L32,13.76Z"/><path class="cls-10" d="M22.66,13.31V18.5L26.3,19.9V12Zm.38,4.8L22.85,18V13.76L23,13.7l.19-.06.19-.06v4.67l-.19-.06C23.3,18.18,23,18.11,23,18.11Zm1,.32-.26-.06v-4.8L24,13.5l.26-.06.26-.06v5.25l-.26-.06C24.26,18.5,24,18.43,24,18.43Zm1.15.38-.32-.13V13.25l.32-.06.32-.13.38-.13V19l-.38-.13Z"/></svg>