<svg id="Layer_1" data-name="Layer 1" xmlns="http://www.w3.org/2000/svg" xmlns:xlink="http://www.w3.org/1999/xlink" viewBox="0 0 32 32"><defs><style>.cls-1{fill:none;}.cls-2{clip-path:url(#clip-path);}.cls-3{clip-path:url(#clip-path-2);}.cls-4{clip-path:url(#clip-path-3);}.cls-5{clip-path:url(#clip-path-4);}.cls-6{clip-path:url(#clip-path-5);}.cls-7{clip-path:url(#clip-path-6);}.cls-8{clip-path:url(#clip-path-7);}.cls-9{clip-path:url(#clip-path-8);}.cls-10{fill:#326ce5;}.cls-11{fill:#fff;stroke:#fff;stroke-width:0.25px;}</style><clipPath id="clip-path"><rect class="cls-1" x="39.15" y="85.81" width="15.81" height="13.48"/></clipPath><clipPath id="clip-path-2"><rect class="cls-1" x="-754.07" y="454.09" width="15.81" height="13.48"/></clipPath><clipPath id="clip-path-3"><rect class="cls-1" x="-753.07" y="454.09" width="15.81" height="13.48"/></clipPath><clipPath id="clip-path-4"><rect class="cls-1" x="-750.43" y="460.36" width="10.73" height="0.43"/></clipPath><clipPath id="clip-path-5"><rect class="cls-1" x="-750.13" y="459.12" width="10.14" height="0.43"/></clipPath><clipPath id="clip-path-6"><rect class="cls-1" x="-749.72" y="457.88" width="9.31" height="0.43"/></clipPath><clipPath id="clip-path-7"><rect class="cls-1" x="-749.32" y="456.64" width="8.5" height="0.43"/></clipPath><clipPath id="clip-path-8"><rect class="cls-1" x="-748.89" y="455.4" width="7.65" height="0.43"/></clipPath></defs><title>Kubernetes</title><g id="layer1"><g id="g3052"><path id="path3055" class="cls-10" d="M15.89,0a2.09,2.09,0,0,0-.82.21L3.95,5.69A2.17,2.17,0,0,0,2.8,7.17L.05,19.47a2.21,2.21,0,0,0,.29,1.67l.12.17,7.7,9.87A2.11,2.11,0,0,0,9.83,32H22.17a2.11,2.11,0,0,0,1.66-.82l7.7-9.87a2.21,2.21,0,0,0,.41-1.84L29.2,7.17A2.17,2.17,0,0,0,28,5.69L16.92.22A2.09,2.09,0,0,0,15.89,0Z"/><path id="path3059" class="cls-11" d="M16,4.19a.72.72,0,0,0-.67.76V5c0,.06,0,.13,0,.18a5.89,5.89,0,0,0,.09.65A6.6,6.6,0,0,1,15.5,7a.75.75,0,0,1-.22.35l0,.29a8.46,8.46,0,0,0-5.55,2.75l-.24-.18a.51.51,0,0,1-.4,0,6.29,6.29,0,0,1-.9-.84,5.65,5.65,0,0,0-.44-.48l-.15-.12a.78.78,0,0,0-.46-.18.63.63,0,0,0-.53.24.74.74,0,0,0,.16,1h0l.14.11a5.51,5.51,0,0,0,.55.33,6.22,6.22,0,0,1,1,.72.78.78,0,0,1,.13.4l.21.2a9.1,9.1,0,0,0-1.36,6.19l-.28.08a.94.94,0,0,1-.29.3,6,6,0,0,1-1.19.2,5.41,5.41,0,0,0-.64.05l-.18,0h0a.73.73,0,0,0-.56.84.7.7,0,0,0,.86.5h0l.17,0a5.46,5.46,0,0,0,.6-.24,6.08,6.08,0,0,1,1.16-.35.72.72,0,0,1,.38.14l.29-.05a8.88,8.88,0,0,0,3.84,4.94l-.12.3a.7.7,0,0,1,.06.39,6.77,6.77,0,0,1-.6,1.12,5.76,5.76,0,0,0-.36.55l-.09.18a.74.74,0,0,0,.28,1,.7.7,0,0,0,.92-.39h0l.08-.17a5.85,5.85,0,0,0,.19-.63,4.88,4.88,0,0,1,.52-1.23.53.53,0,0,1,.29-.14l.15-.28a8.36,8.36,0,0,0,5,.37,8.45,8.45,0,0,0,1.14-.35l.14.26a.52.52,0,0,1,.34.21A6.52,6.52,0,0,1,20,26.54a5.87,5.87,0,0,0,.19.63l.08.18a.7.7,0,0,0,.92.39.74.74,0,0,0,.28-1l-.09-.18a5.74,5.74,0,0,0-.36-.55,6.47,6.47,0,0,1-.59-1.09.55.55,0,0,1,.05-.4,2.4,2.4,0,0,1-.11-.28,8.89,8.89,0,0,0,3.84-5l.28.05a.52.52,0,0,1,.37-.14,6.08,6.08,0,0,1,1.16.35,5.47,5.47,0,0,0,.6.24l.17,0h0a.7.7,0,0,0,.86-.5.73.73,0,0,0-.56-.84l-.19,0a5.41,5.41,0,0,0-.64-.05,6,6,0,0,1-1.19-.2.76.76,0,0,1-.29-.3l-.27-.08a9.13,9.13,0,0,0-.14-3.2,9,9,0,0,0-1.25-3l.24-.22a.55.55,0,0,1,.13-.39,6.22,6.22,0,0,1,1-.72,5.53,5.53,0,0,0,.55-.33l.15-.12a.74.74,0,0,0,.16-1,.69.69,0,0,0-1-.06l-.15.12a5.67,5.67,0,0,0-.44.48,6.31,6.31,0,0,1-.9.84.72.72,0,0,1-.4,0l-.25.19A8.63,8.63,0,0,0,16.73,7.7c0-.09,0-.26,0-.31A.54.54,0,0,1,16.5,7a6.62,6.62,0,0,1,.08-1.24,5.89,5.89,0,0,0,.09-.65c0-.06,0-.14,0-.2A.72.72,0,0,0,16,4.19Zm-.83,5.32-.2,3.6h0a.6.6,0,0,1-.59.58.57.57,0,0,1-.35-.12h0l-2.86-2.09a6.79,6.79,0,0,1,4-2Zm1.67,0a6.84,6.84,0,0,1,4,2L18,13.58h0a.58.58,0,0,1-.81-.11.61.61,0,0,1-.13-.35h0Zm-6.72,3.33,2.61,2.41h0a.62.62,0,0,1,.07.83.59.59,0,0,1-.3.21h0l-3.35,1A7.24,7.24,0,0,1,10.11,12.84Zm11.75,0A7.28,7.28,0,0,1,22.72,15a7.36,7.36,0,0,1,.15,2.3l-3.37-1h0a.61.61,0,0,1-.23-1h0l2.6-2.4Zm-6.4,2.6h1.07l.67.86L17,17.36l-1,.48-1-.48-.24-1.07Zm3.43,2.94H19l3.47.6a7,7,0,0,1-2.78,3.59l-1.35-3.35h0a.61.61,0,0,1,.28-.78.57.57,0,0,1,.22-.06Zm-5.82,0a.59.59,0,0,1,.56.47.62.62,0,0,1,0,.37h0l-1.33,3.32A7.07,7.07,0,0,1,9.52,19l3.44-.6h.12ZM16,19.84a.57.57,0,0,1,.27.06.59.59,0,0,1,.26.26h0l1.69,3.16a6.86,6.86,0,0,1-.68.2,6.69,6.69,0,0,1-3.76-.2l1.69-3.15h0A.59.59,0,0,1,16,19.84Z"/></g></g></svg>