<svg id="a8b9457a-0277-4e4a-af7b-2a35817c767b" data-name="icon" xmlns="http://www.w3.org/2000/svg" xmlns:xlink="http://www.w3.org/1999/xlink" width="18" height="18" viewBox="0 0 18 18">
  <defs>
    <linearGradient id="acf91304-a8c9-4c1f-b6a5-36f9b8128409" x1="2.59" y1="-314.16" x2="15.41" y2="-314.16" gradientTransform="matrix(1, 0, 0, -1, 0, -304)" gradientUnits="userSpaceOnUse">
      <stop offset="0" stop-color="#005ba1"/>
      <stop offset="0.15" stop-color="#0078d4"/>
      <stop offset="0.242" stop-color="#1c84dc"/>
      <stop offset="0.414" stop-color="#4c98ea"/>
      <stop offset="0.5" stop-color="#5ea0ef"/>
      <stop offset="0.586" stop-color="#4c98ea"/>
      <stop offset="0.758" stop-color="#1c84dc"/>
      <stop offset="0.85" stop-color="#0078d4"/>
      <stop offset="1" stop-color="#005ba1"/>
    </linearGradient>
    <linearGradient id="ea6a9244-85f4-45fd-be4c-117e3f7d4184" x1="93.192" y1="-20.889" x2="94.554" y2="-19.014" gradientTransform="translate(-76.373 -31.311) rotate(36)" gradientUnits="userSpaceOnUse">
      <stop offset="0.19" stop-color="#9cebff"/>
      <stop offset="0.91" stop-color="#50e6ff"/>
    </linearGradient>
    <linearGradient id="b24253bf-9577-4f4b-8c38-5fd96995c4b7" x1="-75.25" y1="-20.085" x2="-76.612" y2="-18.21" gradientTransform="translate(79.811 -20.731) rotate(-36)" xlink:href="#ea6a9244-85f4-45fd-be4c-117e3f7d4184"/>
    <linearGradient id="ba4dd4c3-07ad-4d29-9073-416b60bf6972" x1="9.026" y1="-279.302" x2="9.026" y2="-281.619" gradientTransform="translate(18 -266.363) rotate(180)" xlink:href="#ea6a9244-85f4-45fd-be4c-117e3f7d4184"/>
    <linearGradient id="f7bc97d7-e820-4bb7-bdc1-4286127d66c0" x1="-127.278" y1="-180.991" x2="-129.482" y2="-181.707" gradientTransform="translate(138.136 -166.001) rotate(-108)" xlink:href="#ea6a9244-85f4-45fd-be4c-117e3f7d4184"/>
    <linearGradient id="b0b2087b-b12e-437b-a3ec-e7ad6bbea89b" x1="145.294" y1="-180.259" x2="147.498" y2="-180.975" gradientTransform="translate(-114.574 -183.12) rotate(108)" xlink:href="#ea6a9244-85f4-45fd-be4c-117e3f7d4184"/>
  </defs>
  <g>
    <path d="M9,5.14c-3.54,0-6.41-1-6.41-2.32V15.18c0,1.27,2.82,2.3,6.32,2.32H9c3.54,0,6.41-1,6.41-2.32V2.82C15.41,4.11,12.54,5.14,9,5.14Z" fill="url(#acf91304-a8c9-4c1f-b6a5-36f9b8128409)"/>
    <path d="M15.41,2.82c0,1.29-2.87,2.32-6.41,2.32s-6.41-1-6.41-2.32S5.46.5,9,.5s6.41,1,6.41,2.32" fill="#e8e8e8"/>
    <path d="M13.92,2.63c0,.82-2.21,1.48-4.92,1.48S4.08,3.45,4.08,2.63,6.29,1.16,9,1.16s4.92.66,4.92,1.47" fill="#b3b3b3"/>
    <path d="M9,3a11.541,11.541,0,0,0-3.89.57A11.428,11.428,0,0,0,9,4.11a11.149,11.149,0,0,0,3.89-.58A11.839,11.839,0,0,0,9,3Z" fill="#767676"/>
  </g>
  <polyline points="11.299 7.724 10.806 8.41 8.974 10.953 7.143 8.41" fill="none" stroke="#f2f2f2" stroke-miterlimit="10" stroke-width="0.75"/>
  <circle cx="11.299" cy="7.724" r="1.158" fill="url(#ea6a9244-85f4-45fd-be4c-117e3f7d4184)"/>
  <circle cx="7.126" cy="8.41" r="1.158" fill="url(#b24253bf-9577-4f4b-8c38-5fd96995c4b7)"/>
  <line x1="8.974" y1="10.953" x2="8.974" y2="14.097" fill="none" stroke="#f2f2f2" stroke-miterlimit="10" stroke-width="0.75"/>
  <polyline points="8.974 10.953 5.984 11.925 5.335 12.136" fill="none" stroke="#f2f2f2" stroke-miterlimit="10" stroke-width="0.75"/>
  <line x1="11.964" y1="11.925" x2="8.974" y2="10.953" fill="none" stroke="#f2f2f2" stroke-miterlimit="10" stroke-width="0.75"/>
  <circle cx="8.974" cy="14.097" r="1.158" fill="url(#ba4dd4c3-07ad-4d29-9073-416b60bf6972)"/>
  <circle cx="5.335" cy="12.136" r="1.158" fill="url(#f7bc97d7-e820-4bb7-bdc1-4286127d66c0)"/>
  <circle cx="11.964" cy="11.925" r="1.158" fill="url(#b0b2087b-b12e-437b-a3ec-e7ad6bbea89b)"/>
</svg>
