<svg id="Layer_1" data-name="Layer 1" xmlns="http://www.w3.org/2000/svg" viewBox="0 0 16 16"><title>usage</title><path d="M7,7H0A6.88,6.88,0,0,1,.25,5.14,7,7,0,0,1,5.14.25,6.92,6.92,0,0,1,7,0ZM6.75,8,1.88,12.87a6.91,6.91,0,0,1-1.4-2.26A7.33,7.33,0,0,1,0,8ZM6,1.08a6,6,0,0,0-1.77.6A6,6,0,0,0,1.68,4.23,6,6,0,0,0,1.08,6H6ZM1.08,9a6.63,6.63,0,0,0,.32,1.23A5.58,5.58,0,0,0,2,11.37L4.34,9ZM8,1l.89,0a8.52,8.52,0,0,1,.86.09,8.14,8.14,0,0,1,.84.18,6.66,6.66,0,0,1,.84.29,7.51,7.51,0,0,1,4.25,4.73,7.58,7.58,0,0,1,.06,4.18A7.51,7.51,0,0,1,15,12.29,7.49,7.49,0,0,1,12.29,15a7.5,7.5,0,0,1-1.79.75,7.63,7.63,0,0,1-4.87-.3A7.53,7.53,0,0,1,3.2,13.8l-.35-.35L8,8.29Zm.5,14a6.31,6.31,0,0,0,1.73-.23,6.66,6.66,0,0,0,1.55-.66,6.5,6.5,0,0,0,2.33-2.33,6.64,6.64,0,0,0,.66-1.55,6.47,6.47,0,0,0,0-3.36,6.69,6.69,0,0,0-.59-1.49,6.45,6.45,0,0,0-.93-1.29,6.63,6.63,0,0,0-1.21-1,6.49,6.49,0,0,0-1.44-.71A6.32,6.32,0,0,0,9,2v6.7L4.27,13.44a6.39,6.39,0,0,0,2,1.16A6.47,6.47,0,0,0,8.5,15Z"/></svg>