<svg id="Layer_1" data-name="Layer 1" xmlns="http://www.w3.org/2000/svg" viewBox="0 0 21 21"><defs><style>.cls-1{fill:#212121;}.cls-2{fill:#231f20;}.cls-3{fill:#00539c;}</style></defs><title>importflatfile</title><path class="cls-1" d="M13.34,1.3c-2.81,0-7.52.53-7.65,2.49V7L7,8.27V5.39a17.11,17.11,0,0,0,6.37,1,17.1,17.1,0,0,0,6.38-1V17.31c-.17.46-2.55,1.35-6.38,1.35a19.63,19.63,0,0,1-3.43-.27V19.7a23.78,23.78,0,0,0,3.43.25C16.2,20,21,19.38,21,17.31V3.79C20.87,1.83,16.16,1.3,13.34,1.3Zm6.38,2.55c-.2.45-2.56,1.28-6.38,1.28S7.24,4.33,7,3.87c.27-.47,2.6-1.29,6.37-1.29s6.16.85,6.38,1.25h0Z"/><polygon class="cls-2" points="18.55 2.79 18.53 2.81 18.53 2.78 18.55 2.79"/><path class="cls-1" d="M7,9.69,5.69,8.41,5,7.7H0V19.58H8.91v-8ZM5.2,9l.49.49L7,10.74l.67.67H5.2Zm3,9.86H.74V8.44H4.46v3.71H8.17Z"/><path class="cls-3" d="M16.5,14.72a.27.27,0,0,1-.08.2L14.2,17.14a.26.26,0,0,1-.19.08.28.28,0,0,1-.2-.08.26.26,0,0,1-.08-.2.82.82,0,0,1,0-.14l.06-.25.08-.32.08-.32.07-.27,0-.17H4.5V14h9.59l0-.17L14,13.53l-.08-.32-.08-.31-.06-.25a.91.91,0,0,1,0-.14.26.26,0,0,1,.08-.2.28.28,0,0,1,.2-.08.26.26,0,0,1,.19.08l2.22,2.22A.26.26,0,0,1,16.5,14.72Z"/></svg>