<svg width="16" height="10" viewBox="0 0 16 10" fill="none" xmlns="http://www.w3.org/2000/svg">
<title>link</title>
<path d="M7 7V6H8.1L9.1 5.5C9.38138 5.32024 9.62024 5.08138 9.8 4.8C9.93294 4.37949 10.0004 3.94103 10 3.5C9.98112 3.15886 9.91378 2.82215 9.8 2.5C9.6702 2.21199 9.50201 1.94288 9.3 1.7L8.5 1.2L7.5 1H3.5L2.5 1.2L1.7 1.7C1.49799 1.94288 1.3298 2.21199 1.2 2.5C1.08622 2.82215 1.01888 3.15886 1 3.5C1.00946 3.90746 1.0768 4.3115 1.2 4.7L1.9 5.4L2.9 5.9H4V7H3.5C3.01765 6.99754 2.54101 6.8954 2.1 6.7C1.69834 6.52684 1.32698 6.29051 1 6C0.709485 5.67302 0.473165 5.30166 0.3 4.9C0.104596 4.45899 0.00245968 3.98235 0 3.5C0.00245968 3.01765 0.104596 2.54101 0.3 2.1C0.473165 1.69834 0.709485 1.32698 1 1C1.32698 0.709485 1.69834 0.473165 2.1 0.3C2.54101 0.104596 3.01765 0.00245968 3.5 0L7.5 0C7.98235 0.00245968 8.45899 0.104596 8.9 0.3C9.30166 0.473165 9.67302 0.709485 10 1C10.2905 1.32698 10.5268 1.69834 10.7 2.1C10.8954 2.54101 10.9975 3.01765 11 3.5C10.9975 3.98235 10.8954 4.45899 10.7 4.9C10.5268 5.30166 10.2905 5.67302 10 6C9.67302 6.29051 9.30166 6.52684 8.9 6.7C8.45899 6.8954 7.98235 6.99754 7.5 7H7ZM12 3V4H13.1L14.1 4.5C14.3814 4.67976 14.6202 4.91862 14.8 5.2C14.9329 5.62051 15.0004 6.05897 15 6.5C14.9811 6.84114 14.9138 7.17785 14.8 7.5C14.6702 7.78801 14.502 8.05712 14.3 8.3L13.5 8.8L12.5 9H8.5L7.5 8.8L6.7 8.3C6.49799 8.05712 6.3298 7.78801 6.2 7.5C6.08622 7.17785 6.01888 6.84114 6 6.5C6.00946 6.09254 6.0768 5.6885 6.2 5.3C6.37976 5.01862 6.61862 4.77976 6.9 4.6L7.9 4.1H9V3H8.5C8.01765 3.00246 7.54101 3.1046 7.1 3.3C6.69834 3.47316 6.32698 3.70949 6 4C5.70949 4.32698 5.47316 4.69834 5.3 5.1C5.10121 5.53996 4.99839 6.01721 4.99839 6.5C4.99839 6.98279 5.10121 7.46004 5.3 7.9C5.47316 8.30166 5.70949 8.67302 6 9C6.32698 9.29051 6.69834 9.52684 7.1 9.7C7.54101 9.8954 8.01765 9.99754 8.5 10H12.5C12.9824 9.99754 13.459 9.8954 13.9 9.7C14.3017 9.52684 14.673 9.29051 15 9C15.2905 8.67302 15.5268 8.30166 15.7 7.9C15.8988 7.46004 16.0016 6.98279 16.0016 6.5C16.0016 6.01721 15.8988 5.53996 15.7 5.1C15.5268 4.69834 15.2905 4.32698 15 4C14.673 3.70949 14.3017 3.47316 13.9 3.3C13.459 3.1046 12.9824 3.00246 12.5 3H12Z" fill="#323130"/>
</svg>
