<svg width="16" height="13" viewBox="0 0 16 13" fill="none" xmlns="http://www.w3.org/2000/svg">
<title>Ordered list</title>
<path d="M16 2V3H4V2H16ZM4 6H16V7H4V6ZM4 10H16V11H4V10ZM1.05469 1.72656C0.981771 1.78385 0.882812 1.84115 0.757812 1.89844C0.638021 1.95052 0.528646 1.97656 0.429688 1.97656V1.4375C0.591146 1.38021 0.744792 1.31771 0.890625 1.25C1.03646 1.18229 1.17708 1.09635 1.3125 0.992188H1.69531V4H1.05469V1.72656ZM1.04688 5.00781C1.17708 5.00781 1.29948 5.02604 1.41406 5.0625C1.53385 5.09375 1.63542 5.14583 1.71875 5.21875C1.80729 5.28646 1.875 5.3724 1.92188 5.47656C1.97396 5.58073 2 5.70312 2 5.84375C2 6.00521 1.96875 6.14844 1.90625 6.27344C1.84375 6.39323 1.76562 6.5026 1.67188 6.60156C1.58333 6.69531 1.48438 6.78125 1.375 6.85938C1.26562 6.93229 1.16406 7.0026 1.07031 7.07031C0.981771 7.13281 0.90625 7.19792 0.84375 7.26562C0.78125 7.32812 0.75 7.39323 0.75 7.46094H2V8H0.0390625C0.0390625 7.88021 0.0390625 7.77344 0.0390625 7.67969C0.0442708 7.58594 0.0703125 7.48438 0.117188 7.375C0.195312 7.19792 0.302083 7.04948 0.4375 6.92969C0.572917 6.80469 0.705729 6.6901 0.835938 6.58594C0.971354 6.48177 1.08854 6.3776 1.1875 6.27344C1.28646 6.16927 1.33594 6.04688 1.33594 5.90625C1.33594 5.76562 1.29688 5.66667 1.21875 5.60938C1.14062 5.55208 1.03646 5.52344 0.90625 5.52344C0.770833 5.52344 0.640625 5.55208 0.515625 5.60938C0.395833 5.66667 0.283854 5.73958 0.179688 5.82812V5.25781C0.440104 5.09115 0.729167 5.00781 1.04688 5.00781ZM1.32812 10.4688C1.51562 10.4948 1.67448 10.5651 1.80469 10.6797C1.9349 10.7943 2 10.9531 2 11.1562C2 11.3177 1.96615 11.4557 1.89844 11.5703C1.83594 11.6849 1.7526 11.7786 1.64844 11.8516C1.54427 11.9193 1.42188 11.9714 1.28125 12.0078C1.14583 12.0391 1.00781 12.0547 0.867188 12.0547C0.742188 12.0547 0.614583 12.0443 0.484375 12.0234C0.359375 12.0026 0.239583 11.9635 0.125 11.9062V11.3359C0.223958 11.4089 0.330729 11.4635 0.445312 11.5C0.565104 11.5365 0.6875 11.5547 0.8125 11.5547C0.947917 11.5547 1.06771 11.526 1.17188 11.4688C1.28125 11.4115 1.33594 11.3047 1.33594 11.1484C1.33594 11.0339 1.30208 10.9505 1.23438 10.8984C1.16667 10.8411 1.08333 10.8021 0.984375 10.7812C0.890625 10.7552 0.791667 10.7422 0.6875 10.7422C0.583333 10.7422 0.494792 10.7422 0.421875 10.7422V10.2422C0.494792 10.2422 0.578125 10.2422 0.671875 10.2422C0.765625 10.2422 0.854167 10.2344 0.9375 10.2188C1.02604 10.1979 1.09896 10.1615 1.15625 10.1094C1.21875 10.0573 1.25 9.97656 1.25 9.86719C1.25 9.73177 1.20573 9.63802 1.11719 9.58594C1.03385 9.53385 0.932292 9.50781 0.8125 9.50781C0.609375 9.50781 0.416667 9.57031 0.234375 9.69531V9.16406C0.348958 9.10677 0.466146 9.06771 0.585938 9.04688C0.710938 9.02083 0.835938 9.00781 0.960938 9.00781C1.07552 9.00781 1.1901 9.02083 1.30469 9.04688C1.41927 9.07292 1.52083 9.11719 1.60938 9.17969C1.69792 9.23698 1.77083 9.3125 1.82812 9.40625C1.88542 9.5 1.91406 9.61198 1.91406 9.74219C1.91406 9.9401 1.86198 10.099 1.75781 10.2188C1.65885 10.3333 1.51562 10.4141 1.32812 10.4609V10.4688Z" fill="#323130"/>
</svg>
