<svg width="16" height="9" viewBox="0 0 16 9" fill="none" xmlns="http://www.w3.org/2000/svg">
<title>preformatted</title>
<path d="M1.71094 5L3.3125 6.60156L3.02344 7.73438L0.289062 5L3.64844 1.64844L4.35156 2.35156L1.71094 5ZM15.7109 5L12.3516 8.35156L11.6484 7.64844L14.2891 5L13.125 3.83594C13.2604 3.70052 13.3828 3.57552 13.4922 3.46094C13.6016 3.34115 13.7005 3.21615 13.7891 3.08594L15.7109 5ZM11.4375 0C11.6562 0 11.8594 0.0390625 12.0469 0.117188C12.2396 0.195312 12.4062 0.304688 12.5469 0.445312C12.6875 0.585938 12.7969 0.75 12.875 0.9375C12.9583 1.125 13 1.32812 13 1.54688C13 1.75 12.9609 1.94792 12.8828 2.14062C12.8047 2.33333 12.6927 2.5026 12.5469 2.64844L6.94531 8.26562L4 9L4.73438 6.05469L10.3359 0.445312C10.4818 0.299479 10.651 0.190104 10.8438 0.117188C11.0365 0.0390625 11.2344 0 11.4375 0ZM11.8359 1.94531C11.9453 1.83594 12 1.70312 12 1.54688C12 1.38542 11.9453 1.25521 11.8359 1.15625C11.7318 1.05208 11.599 1 11.4375 1C11.3646 1 11.2943 1.01302 11.2266 1.03906C11.1589 1.0599 11.099 1.09635 11.0469 1.14844L5.64062 6.57031L5.375 7.625L6.42969 7.35938L11.8359 1.94531Z" fill="#323130"/>
</svg>
