<svg width="16" height="16" viewBox="0 0 16 16" fill="none" xmlns="http://www.w3.org/2000/svg">
<rect width="16" height="16" fill="white"/>
<path d="M13 7C13.4115 7 13.7995 7.08073 14.1641 7.24219C14.5286 7.39844 14.8464 7.61198 15.1172 7.88281C15.388 8.15365 15.6016 8.47135 15.7578 8.83594C15.9193 9.20052 16 9.58854 16 10C16 10.4115 15.9193 10.7995 15.7578 11.1641C15.6016 11.5286 15.388 11.8464 15.1172 12.1172C14.8464 12.388 14.5286 12.6042 14.1641 12.7656C13.7995 12.9219 13.4115 13 13 13C12.6875 13 12.3828 12.9531 12.0859 12.8594C11.7891 12.7656 11.5156 12.6276 11.2656 12.4453C11.1823 12.5286 11.0417 12.6745 10.8438 12.8828C10.651 13.0859 10.4271 13.3203 10.1719 13.5859C9.91667 13.8464 9.64583 14.1198 9.35938 14.4062C9.07812 14.6875 8.8125 14.9479 8.5625 15.1875C8.3125 15.4219 8.09115 15.6172 7.89844 15.7734C7.70573 15.9245 7.57292 16 7.5 16C7.36458 16 7.2474 15.9505 7.14844 15.8516C7.04948 15.7526 7 15.6354 7 15.5C7 15.4271 7.07552 15.2943 7.22656 15.1016C7.38281 14.9089 7.57812 14.6875 7.8125 14.4375C8.05208 14.1875 8.3125 13.9219 8.59375 13.6406C8.88021 13.3542 9.15365 13.0833 9.41406 12.8281C9.67969 12.5729 9.91406 12.349 10.1172 12.1562C10.3255 11.9583 10.4714 11.8177 10.5547 11.7344C10.3724 11.4844 10.2344 11.2109 10.1406 10.9141C10.0469 10.6172 10 10.3125 10 10C10 9.58854 10.0781 9.20052 10.2344 8.83594C10.3958 8.47135 10.612 8.15365 10.8828 7.88281C11.1536 7.61198 11.4714 7.39844 11.8359 7.24219C12.2005 7.08073 12.5885 7 13 7ZM13 12C13.2708 12 13.5286 11.9479 13.7734 11.8438C14.0182 11.7344 14.2292 11.5911 14.4062 11.4141C14.5885 11.2318 14.7318 11.0208 14.8359 10.7812C14.9453 10.5365 15 10.276 15 10C15 9.72917 14.9453 9.47135 14.8359 9.22656C14.7318 8.98177 14.5885 8.77083 14.4062 8.59375C14.2292 8.41146 14.0182 8.26823 13.7734 8.16406C13.5286 8.05469 13.2708 8 13 8C12.724 8 12.4635 8.05469 12.2188 8.16406C11.9792 8.26823 11.7682 8.41146 11.5859 8.59375C11.4089 8.77083 11.2656 8.98177 11.1562 9.22656C11.0521 9.47135 11 9.72917 11 10C11 10.276 11.0521 10.5365 11.1562 10.7812C11.2656 11.0208 11.4089 11.2318 11.5859 11.4141C11.7682 11.5911 11.9792 11.7344 12.2188 11.8438C12.4635 11.9479 12.724 12 13 12ZM2 11V9H0V0H12V2H14V6.14062C13.8333 6.09896 13.6667 6.0651 13.5 6.03906C13.3333 6.01302 13.1667 6 13 6V3H3V10H9C9 10.1667 9.01302 10.3333 9.03906 10.5C9.0651 10.6667 9.09896 10.8333 9.14062 11H2ZM2 8V2H11V1H1V8H2Z" fill="#007ACC"/>
</svg>
