<svg width="65" height="69" viewBox="0 0 65 69" fill="none" xmlns="http://www.w3.org/2000/svg">
<path d="M63.2931 48.1031V52.0907C63.2931 55.2009 61.0601 58.3112 57.0426 60.9829C48.5591 65.8776 34.7024 65.8776 26.2189 60.9829C21.7429 58.3112 19.9585 55.2009 19.9585 52.0907V48.1031C19.9585 51.2134 22.1915 54.7723 26.2189 56.9953C34.7024 61.8801 48.5591 61.8801 57.0426 56.9953C61.0302 54.7723 63.2931 51.7019 63.2931 48.1031Z" fill="#005BA1"/>
<path d="M64.1902 16.5318V48.5417C64.1902 51.652 61.9571 55.2109 57.4911 57.8826C48.5191 62.7673 34.2537 62.7673 25.3216 57.8826C23.4313 56.8984 21.7595 55.542 20.407 53.895C19.374 52.8088 18.7443 51.4015 18.6226 49.9075V15.196C20.4766 17.5231 22.7485 19.4839 25.3216 20.9779C34.2936 25.8726 48.559 25.8726 57.4911 20.9779C61.9571 18.3162 64.1902 19.6421 64.1902 16.5318Z" fill="#0078D4"/>
<path d="M64.1902 12.9729V16.9604C64.1902 20.0707 61.9571 23.6296 57.4911 26.2913C48.5191 31.186 34.2537 31.186 25.3216 26.2913C20.8556 23.6329 18.6226 20.5226 18.6226 16.9604V12.9729C18.6226 16.5351 20.8556 19.6487 25.3216 22.3137C34.2936 27.2084 48.559 27.2084 57.4911 22.3137C61.9571 19.6421 64.1902 16.0931 64.1902 12.9729Z" fill="#E6E6E6"/>
<path d="M57.4909 4.52929C66.4629 9.42399 66.4629 17.8676 57.4909 22.7623C48.519 27.657 34.2535 27.647 25.3214 22.7623C16.3894 17.8776 16.3495 9.42399 25.3214 4.52929C34.2934 -0.365415 48.5588 -0.365415 57.4909 4.52929Z" fill="white"/>
<path d="M53.4736 6.75234C60.1727 10.7399 60.1727 16.9804 53.4736 20.9779C46.7746 24.9754 36.0481 24.9654 28.9004 20.9779C22.1914 16.9903 22.1914 10.7598 28.9004 6.75234C36.0481 2.75483 46.7646 2.75483 53.4736 6.75234Z" fill="#E6E6E6"/>
<path d="M29.3394 8.97539C36.0484 4.98786 46.7649 4.98786 53.9126 8.97539C56.5942 10.7498 58.3886 12.5343 58.8272 14.7573C59.2758 11.647 57.94 8.5268 53.9126 6.30374C47.2135 2.3162 36.0484 2.3162 29.3394 6.30374C25.3519 8.5268 23.9861 11.647 24.4248 14.7573C24.8734 12.9729 26.2191 10.7498 29.3394 8.97539Z" fill="#CCCCCC"/>
<path d="M9.19218 38.9617H8.73362H8.6738H8.61399L0.459473 43.647C0.53341 43.6096 0.615969 43.5924 0.698725 43.5972V43.5972C0.806386 43.6065 0.909616 43.6444 0.99779 43.7069L2.1143 44.3449L10.2788 39.6097L9.19218 38.9617Z" fill="#32BEDD"/>
<path d="M9.88012 54.0645V62.2688C9.89041 62.3816 9.89041 62.495 9.88012 62.6078V62.6078C9.86228 62.7043 9.83213 62.7981 9.7904 62.8869V62.8869C9.76885 62.9383 9.73848 62.9855 9.70068 63.0265C9.63946 63.1228 9.55777 63.2045 9.46143 63.2657L17.6259 58.5206C17.7188 58.4626 17.7973 58.3842 17.8552 58.2913C17.8789 58.2569 17.899 58.2202 17.915 58.1816V58.1816V58.1019V58.0221C17.9116 57.9957 17.9116 57.9688 17.915 57.9424V57.9424C17.9199 57.916 17.9199 57.889 17.915 57.8626C17.9198 57.8396 17.9198 57.8158 17.915 57.7928C17.915 57.7928 17.915 57.7928 17.915 57.7231V57.6433V49.4389L9.88012 54.0645Z" fill="#32BEDD"/>
<path d="M18.4934 59.0389V67.2433C18.5041 67.3527 18.5041 67.4629 18.4934 67.5723C18.4695 67.6671 18.4395 67.7604 18.4037 67.8514L18.314 67.991C18.2497 68.0821 18.1685 68.1599 18.0747 68.2202L26.1395 63.485C26.2375 63.4303 26.3199 63.3514 26.3788 63.2558V63.2558L26.4386 63.1561C26.4386 63.1561 26.4386 63.1062 26.4386 63.0763C26.4386 63.0464 26.4386 63.0763 26.4386 62.9966C26.443 62.9702 26.443 62.9432 26.4386 62.9168C26.4386 62.9168 26.4386 62.9168 26.4386 62.847C26.4337 62.824 26.4337 62.8003 26.4386 62.7773V62.6277V54.4234L18.4934 59.0389Z" fill="#32BEDD"/>
<path d="M22.6206 56.1879L30.7751 51.4427L32.081 52.1903L23.9166 56.9355L22.6206 56.1879Z" fill="#32BEDD"/>
<path d="M32.8483 53.4863V53.1474V53.0676V53.0178L32.5493 52.6988V52.629L24.3848 57.3741C24.4974 57.4362 24.5985 57.5172 24.6838 57.6134V57.6134C24.7781 57.7141 24.8616 57.8244 24.9331 57.9424C25.0004 58.0587 25.0539 58.1825 25.0926 58.3112V58.3112C25.131 58.4339 25.1512 58.5615 25.1524 58.69V62.1492C25.1546 62.2553 25.1342 62.3607 25.0926 62.4583V62.4583C25.0555 62.5364 24.9967 62.6022 24.9231 62.6477L33.0876 57.9025C33.1422 57.8724 33.1871 57.8275 33.2172 57.7729V57.7729V57.5436V54.0545L32.8483 53.4863Z" fill="#C3F1FF"/>
<path d="M6.54009 29.6009H6.7295H7.00862C7.11806 29.5912 7.22815 29.5912 7.3376 29.6009H8.12513H8.63355H8.7133L9.3214 29.7106H9.45099C9.66034 29.7604 9.87965 29.8103 10.089 29.8801L18.2535 25.1349H18.1638C18.027 25.0858 17.8871 25.0459 17.7451 25.0153H17.5856H17.446H17.3064L16.9077 24.786H16.7881H16.4392H15.4423H15.1731H14.904H14.8441H14.7046C14.5457 24.8186 14.3891 24.8619 14.236 24.9156H14.1363L14.0466 24.9654C13.7862 25.0518 13.5356 25.1654 13.299 25.3044L5.12451 30.1492C5.36293 30.0027 5.61299 29.876 5.87218 29.7704H6.06158L6.54009 29.6009Z" fill="#32BEDD"/>
<path d="M22.6405 48.5517L30.805 43.8065L30.7751 51.4427L22.6206 56.1879L22.6405 48.5517Z" fill="#C3F1FF"/>
<path d="M14.4058 32.2227L22.5603 27.4875C27.2755 31.2558 30.8145 38.0844 30.7945 43.8065L22.64 48.5517C22.66 42.8296 19.1609 36.0009 14.4058 32.2227Z" fill="#C3F1FF"/>
<path d="M14.4058 32.2227L22.5603 27.4875L22.9192 27.7766L14.7547 32.5118L14.4058 32.2227Z" fill="#C3F1FF"/>
<path d="M14.7557 32.5127L22.9202 27.7775L23.3688 28.1763L15.1744 32.9115L14.7158 32.5127" fill="#C3F1FF"/>
<path d="M15.1738 32.9109L23.3283 28.1757C23.4779 28.3053 23.6374 28.4449 23.7769 28.5844L15.6224 33.3296L15.1738 32.9109Z" fill="#C3F1FF"/>
<path d="M15.6626 33.3298L23.8171 28.5846L24.2557 29.0133L16.0913 33.7585L15.6626 33.3298Z" fill="#C3F1FF"/>
<path d="M16.0913 33.7587L24.2558 29.0135L24.6745 29.4521L16.51 34.1973C16.3704 34.0478 16.2408 33.8982 16.0913 33.7587" fill="#C3F1FF"/>
<path d="M16.5103 34.1975L24.6747 29.4523L25.0735 29.9009L16.909 34.6361C16.7794 34.4866 16.6498 34.3371 16.5103 34.1975" fill="#C3F1FF"/>
<path d="M16.9082 34.6352L25.0727 29.9L25.4615 30.3586L17.307 35.0938C17.1774 34.9442 17.0478 34.7847 16.9082 34.6352" fill="#C3F1FF"/>
<path d="M17.3071 35.0938L25.4616 30.3586L25.8504 30.8371L17.6959 35.5723L17.3071 35.0938" fill="#C3F1FF"/>
<path d="M17.6953 35.5723L25.8498 30.8371C25.9994 31.0265 26.1489 31.2159 26.2885 31.4153L18.1638 36.1505L17.7252 35.5723" fill="#C3F1FF"/>
<path d="M18.1646 36.1505L26.3191 31.4153C26.5284 31.6944 26.7278 31.9735 26.9172 32.2626L18.7627 36.9978L18.1646 36.1505Z" fill="#C3F1FF"/>
<path d="M18.7324 36.9978L26.8869 32.2626C27.176 32.6813 27.4452 33.11 27.7044 33.5486L19.5499 38.2938C19.2907 37.8551 19.0115 37.4265 18.7324 36.9978Z" fill="#C3F1FF"/>
<path d="M19.5498 38.2938L27.7043 33.5486C27.8838 33.8576 28.0532 34.1667 28.2227 34.4757L20.0682 39.2209C19.8987 38.9019 19.7292 38.5928 19.5498 38.2938Z" fill="#C3F1FF"/>
<path d="M20.0684 39.2209L28.2229 34.4757C28.3325 34.6851 28.4422 34.8844 28.5419 35.0938L20.3874 39.8389C20.2877 39.6296 20.178 39.4203 20.0684 39.2209" fill="#C3F1FF"/>
<path d="M20.3872 39.8389L28.5417 35.0938L28.8009 35.6221L20.6464 40.3673L20.3872 39.8389Z" fill="#C3F1FF"/>
<path d="M20.6465 40.3673L28.801 35.6221C28.8808 35.7916 28.9505 35.9611 29.0303 36.1206L20.8658 40.8657C20.796 40.6963 20.7163 40.5268 20.6465 40.3673" fill="#C3F1FF"/>
<path d="M20.8657 40.8657L29.0302 36.1206L29.2396 36.609L21.0751 41.3542C21.0156 41.1872 20.9457 41.024 20.8657 40.8657Z" fill="#C3F1FF"/>
<path d="M21.0752 41.3542L29.2397 36.609L29.4391 37.1075L21.2746 41.8526C21.2148 41.6832 21.145 41.5137 21.0752 41.3542" fill="#C3F1FF"/>
<path d="M21.2744 41.8526L29.4389 37.1075C29.4987 37.2769 29.5685 37.4365 29.6283 37.6059L21.4638 42.3511C21.404 42.1816 21.3442 42.0122 21.2744 41.8526Z" fill="#C3F1FF"/>
<path d="M21.4639 42.3511L29.6284 37.6059L29.8078 38.1343L21.6433 42.8695C21.5924 42.6937 21.5325 42.5207 21.4639 42.3511" fill="#C3F1FF"/>
<path d="M21.6431 42.8695L29.8076 38.1343C29.8674 38.3037 29.9272 38.4832 29.977 38.6626L21.8225 43.3978L21.6431 42.8695" fill="#C3F1FF"/>
<path d="M21.8228 43.3978L29.9773 38.6626C30.0371 38.8421 30.0869 39.0215 30.1368 39.2009L21.9723 43.9461L21.8228 43.3978Z" fill="#C3F1FF"/>
<path d="M21.9722 43.9461L30.1267 39.2009C30.1267 39.3804 30.2264 39.5598 30.2662 39.7492L22.1516 44.4844L22.0021 43.9461" fill="#C3F1FF"/>
<path d="M22.1519 44.4844L30.2765 39.7393C30.3263 39.9187 30.3662 40.0981 30.4061 40.2776L22.2416 45.0227L22.1519 44.4844Z" fill="#C3F1FF"/>
<path d="M22.2417 45.0227L30.4062 40.2875C30.4062 40.457 30.476 40.6364 30.5158 40.8159L22.3514 45.5511C22.3514 45.3816 22.2816 45.2022 22.2417 45.0227Z" fill="#C3F1FF"/>
<path d="M22.3511 45.5511L30.5156 40.8159L30.6053 41.3343L22.4408 46.0794L22.3511 45.5511Z" fill="#C3F1FF"/>
<path d="M22.4409 46.0794L30.6054 41.3343C30.6054 41.5037 30.6552 41.6732 30.6752 41.8427L22.5107 46.5878C22.5107 46.4184 22.5107 46.2489 22.4409 46.0794Z" fill="#C3F1FF"/>
<path d="M22.5107 46.5879L30.6752 41.8427L30.735 42.3511L22.5706 47.0963C22.5605 46.9258 22.5405 46.756 22.5107 46.5879" fill="#C3F1FF"/>
<path d="M22.5708 47.0963L30.7353 42.3511V42.8495L22.5808 47.5947C22.5808 47.4252 22.5808 47.2558 22.5808 47.0963" fill="#C3F1FF"/>
<path d="M22.6106 47.5947L30.7651 42.8495C30.7651 43.019 30.7651 43.1785 30.7651 43.348L22.6006 48.0832C22.6006 47.9237 22.6006 47.7542 22.6006 47.5947" fill="#C3F1FF"/>
<path d="M22.6304 48.0832L30.7949 43.348V43.8065L22.6403 48.5517C22.6403 48.3922 22.6403 48.2427 22.6403 48.0832" fill="#C3F1FF"/>
<path d="M14.4257 23.0016L22.5902 18.2564L22.5603 27.4776L14.4058 32.2227L14.4257 23.0016Z" fill="#32BEDD"/>
<path d="M14.1767 22.224C14.2456 22.3478 14.3024 22.478 14.3462 22.6128V22.6128C14.3855 22.7386 14.4057 22.8697 14.406 23.0016L22.5705 18.2564V17.8676V17.8078V17.7579V17.7081L22.5107 17.6084L22.4608 17.5386V17.4888L19.7493 15.9237H19.6795H19.3605H19.3007L11.1362 20.6689C11.2155 20.626 11.306 20.6086 11.3954 20.619V20.619C11.5051 20.6259 11.6114 20.6602 11.7045 20.7187L14.426 22.2938C14.5402 22.3619 14.6442 22.4458 14.735 22.543V22.543C14.5338 22.4656 14.3455 22.358 14.1767 22.224V22.224Z" fill="#C3F1FF"/>
<path d="M13.6383 21.6358C13.8681 21.7851 14.0593 21.9867 14.1962 22.2241C14.3331 22.4614 14.4118 22.7279 14.4258 23.0016V32.2227C19.161 36.0009 22.6601 42.8296 22.6402 48.5517V56.1879L23.9361 56.9355C24.1603 57.0795 24.3469 57.2749 24.4804 57.5055C24.6139 57.7361 24.6905 57.9952 24.7037 58.2614V61.7206C24.7037 62.209 24.3548 62.4084 23.9361 62.1692L18.523 59.0389V67.2433C18.523 68.2402 17.8252 68.609 16.9778 68.1206L16.5691 67.8913C16.122 67.5972 15.7502 67.2022 15.4835 66.7382C15.2169 66.2742 15.0629 65.754 15.0339 65.2196V57.0252L9.90993 54.0346V62.2389C9.90993 63.2358 9.22208 63.6146 8.36476 63.1262L7.96601 62.8969C7.51759 62.6033 7.14423 62.2087 6.87588 61.7447C6.60754 61.2807 6.45169 60.7603 6.42084 60.2252V52.0209L0.987816 48.9305C0.76398 48.7838 0.57785 48.5864 0.444494 48.3543C0.311138 48.1222 0.234305 47.862 0.220215 47.5947L0.220215 44.1455C0.220215 43.657 0.569124 43.4576 0.987816 43.7069L2.10433 44.3449V36.7087C2.10433 31.1361 5.52364 28.4146 10.0794 29.8203V20.5094C10.0794 20.0109 10.4383 19.8115 10.8769 20.0608L13.6383 21.6358Z" fill="#50E6FF"/>
</svg>
