<svg width="65" height="65" viewBox="0 0 65 65" fill="none" xmlns="http://www.w3.org/2000/svg">
<path d="M18.9042 27.0004V44.9315C18.9042 46.646 17.4671 48.6463 15.7425 49.3607C14.9521 49.7179 14.2335 49.7179 13.6587 49.4321C13.6587 49.4321 38.5928 63.7912 39.1676 64.077C39.7425 64.4342 40.5329 64.4342 41.3951 64.077C43.1197 63.3626 44.5568 61.3623 44.5568 59.6478V41.7882" fill="#0078D4"/>
<path d="M49.8741 15.213C49.8741 15.213 29.8981 3.7114 25.2993 1.06818V4.71154L51.0238 19.4993V17.3562C50.952 16.2132 50.5208 15.4988 49.8741 15.213Z" fill="#CDCDD0"/>
<path d="M44.6282 41.7882V20.9996C44.6282 18.9993 46.0653 16.5704 47.7899 15.4988C48.5803 15.0702 49.2989 14.9987 49.8737 15.2131C49.8737 15.2131 24.9396 0.853903 24.3648 0.568149C23.7899 0.210956 22.9995 0.282391 22.1373 0.782461C20.4127 1.7826 18.9756 4.21152 18.9756 6.28323V27.0719" fill="#0078D4"/>
<path d="M40.6773 36.8589L22.7852 26.5718V25.2144L40.6773 35.5016V36.8589Z" fill="#50E6FF"/>
<path d="M40.6768 40.2885L22.7847 30.0014V28.6441L40.6768 38.9312V40.2885Z" fill="#50E6FF"/>
<path d="M40.6768 43.717L22.7847 33.5013V32.144L40.6768 42.3597V43.717Z" fill="#50E6FF"/>
<path d="M40.6768 47.2181L22.7847 36.931V35.5736L40.6768 45.8608V47.2181Z" fill="#50E6FF"/>
<path d="M32.5571 46.0031L22.7847 40.4309V39.0735L32.5571 44.6458V46.0031Z" fill="#50E6FF"/>
<path d="M40.6773 23.1728L22.7852 12.8856V11.5283L40.6773 21.8154V23.1728Z" fill="#50E6FF"/>
<path d="M40.6768 26.6024L22.7847 16.3152V14.9579L40.6768 25.245V26.6024Z" fill="#50E6FF"/>
<path d="M40.6768 30.0308L22.7847 19.8151V18.4578L40.6768 28.6735V30.0308Z" fill="#50E6FF"/>
<path d="M40.6768 33.5319L22.7847 23.2448V21.8875L40.6768 32.1746V33.5319Z" fill="#50E6FF"/>
</svg>
