<svg width="16" height="16" viewBox="0 0 16 16" fill="none" xmlns="http://www.w3.org/2000/svg">
<path d="M14 0C14.276 0 14.5339 0.0520833 14.7734 0.15625C15.0182 0.260417 15.2318 0.403646 15.4141 0.585938C15.5964 0.768229 15.7396 0.981771 15.8438 1.22656C15.9479 1.46615 16 1.72396 16 2C16 2.27604 15.9479 2.53646 15.8438 2.78125C15.7396 3.02083 15.5964 3.23177 15.4141 3.41406C15.2318 3.59635 15.0182 3.73958 14.7734 3.84375C14.5339 3.94792 14.276 4 14 4H13V14C13 14.276 12.9479 14.5365 12.8438 14.7812C12.7396 15.0208 12.5964 15.2318 12.4141 15.4141C12.2318 15.5964 12.0182 15.7396 11.7734 15.8438C11.5339 15.9479 11.276 16 11 16H2C1.72396 16 1.46354 15.9479 1.21875 15.8438C0.979167 15.7396 0.768229 15.5964 0.585938 15.4141C0.403646 15.2318 0.260417 15.0208 0.15625 14.7812C0.0520833 14.5365 0 14.276 0 14C0 13.724 0.0520833 13.4661 0.15625 13.2266C0.260417 12.9818 0.403646 12.7682 0.585938 12.5859C0.768229 12.4036 0.979167 12.2604 1.21875 12.1562C1.46354 12.0521 1.72396 12 2 12V2C2 1.72396 2.05208 1.46615 2.15625 1.22656C2.26042 0.981771 2.40365 0.768229 2.58594 0.585938C2.76823 0.403646 2.97917 0.260417 3.21875 0.15625C3.46354 0.0520833 3.72396 0 4 0H14ZM9.26562 15C9.08854 14.6875 9 14.3542 9 14C9 13.6458 9.08854 13.3125 9.26562 13H2C1.85938 13 1.72917 13.026 1.60938 13.0781C1.48958 13.1302 1.38281 13.2031 1.28906 13.2969C1.20052 13.3854 1.13021 13.4896 1.07812 13.6094C1.02604 13.7292 1 13.8594 1 14C1 14.1406 1.02604 14.2708 1.07812 14.3906C1.13021 14.5104 1.20052 14.6172 1.28906 14.7109C1.38281 14.7995 1.48958 14.8698 1.60938 14.9219C1.72917 14.974 1.85938 15 2 15H9.26562ZM11 15C11.1406 15 11.2708 14.974 11.3906 14.9219C11.5104 14.8698 11.6146 14.7995 11.7031 14.7109C11.7969 14.6172 11.8698 14.5104 11.9219 14.3906C11.974 14.2708 12 14.1406 12 14V2C12 1.64583 12.0885 1.3125 12.2656 1H4C3.85938 1 3.72917 1.02604 3.60938 1.07812C3.48958 1.13021 3.38281 1.20312 3.28906 1.29688C3.20052 1.38542 3.13021 1.48958 3.07812 1.60938C3.02604 1.72917 3 1.85938 3 2V12H11C11.1354 12 11.2526 12.0495 11.3516 12.1484C11.4505 12.2474 11.5 12.3646 11.5 12.5C11.5 12.6354 11.4505 12.7526 11.3516 12.8516C11.2526 12.9505 11.1354 13 11 13C10.8698 13 10.7422 13.026 10.6172 13.0781C10.4922 13.125 10.3828 13.1953 10.2891 13.2891C10.1953 13.3828 10.1224 13.4922 10.0703 13.6172C10.0234 13.7422 10 13.8698 10 14C10 14.1406 10.026 14.2708 10.0781 14.3906C10.1302 14.5104 10.2005 14.6172 10.2891 14.7109C10.3828 14.7995 10.4896 14.8698 10.6094 14.9219C10.7292 14.974 10.8594 15 11 15ZM14 3C14.1406 3 14.2708 2.97396 14.3906 2.92188C14.5104 2.86979 14.6146 2.79948 14.7031 2.71094C14.7969 2.61719 14.8698 2.51042 14.9219 2.39062C14.974 2.27083 15 2.14062 15 2C15 1.85938 14.974 1.72917 14.9219 1.60938C14.8698 1.48958 14.7969 1.38542 14.7031 1.29688C14.6146 1.20312 14.5104 1.13021 14.3906 1.07812C14.2708 1.02604 14.1406 1 14 1C13.8594 1 13.7292 1.02604 13.6094 1.07812C13.4896 1.13021 13.3828 1.20312 13.2891 1.29688C13.2005 1.38542 13.1302 1.48958 13.0781 1.60938C13.026 1.72917 13 1.85938 13 2V3H14ZM4 3H11V4H4V3ZM4 5H11V6H4V5ZM4 7H11V8H4V7ZM4 9H11V10H4V9Z" fill="black"/>
</svg>
