
<svg width="12" height="12" viewBox="0 0 12 12" fill="none" xmlns="http://www.w3.org/2000/svg">
<path d="M6 12C5.44583 12 4.9125 11.9292 4.4 11.7875C3.89167 11.6458 3.41458 11.4458 2.96875 11.1875C2.52292 10.925 2.11667 10.6125 1.75 10.25C1.3875 9.88333 1.075 9.47708 0.8125 9.03125C0.554167 8.58542 0.354167 8.10833 0.2125 7.6C0.0708333 7.0875 0 6.55417 0 6C0 5.44583 0.0708333 4.91458 0.2125 4.40625C0.354167 3.89375 0.554167 3.41458 0.8125 2.96875C1.075 2.52292 1.3875 2.11875 1.75 1.75625C2.11667 1.38958 2.52292 1.07708 2.96875 0.81875C3.41458 0.55625 3.89167 0.354167 4.4 0.2125C4.9125 0.0708333 5.44583 0 6 0C6.55417 0 7.08542 0.0708333 7.59375 0.2125C8.10625 0.354167 8.58542 0.55625 9.03125 0.81875C9.47708 1.07708 9.88125 1.38958 10.2438 1.75625C10.6104 2.11875 10.9229 2.52292 11.1813 2.96875C11.4438 3.41458 11.6458 3.89375 11.7875 4.40625C11.9292 4.91458 12 5.44583 12 6C12 6.55417 11.9292 7.0875 11.7875 7.6C11.6458 8.10833 11.4438 8.58542 11.1813 9.03125C10.9229 9.47708 10.6104 9.88333 10.2438 10.25C9.88125 10.6125 9.47708 10.925 9.03125 11.1875C8.58542 11.4458 8.10625 11.6458 7.59375 11.7875C7.08542 11.9292 6.55417 12 6 12ZM6 0.8C5.52083 0.8 5.06042 0.8625 4.61875 0.9875C4.17708 1.1125 3.7625 1.2875 3.375 1.5125C2.99167 1.7375 2.64167 2.00833 2.325 2.325C2.00833 2.64167 1.7375 2.99375 1.5125 3.38125C1.2875 3.76458 1.1125 4.17917 0.9875 4.625C0.8625 5.06667 0.8 5.525 0.8 6C0.8 6.475 0.8625 6.93542 0.9875 7.38125C1.1125 7.82292 1.2875 8.2375 1.5125 8.625C1.7375 9.00833 2.00833 9.35833 2.325 9.675C2.64167 9.99167 2.99167 10.2625 3.375 10.4875C3.7625 10.7125 4.17708 10.8875 4.61875 11.0125C5.06042 11.1375 5.52083 11.2 6 11.2C6.475 11.2 6.93333 11.1375 7.375 11.0125C7.82083 10.8875 8.23542 10.7125 8.61875 10.4875C9.00625 10.2625 9.35833 9.99167 9.675 9.675C9.99167 9.35833 10.2625 9.00833 10.4875 8.625C10.7125 8.2375 10.8875 7.82292 11.0125 7.38125C11.1375 6.93958 11.2 6.47917 11.2 6C11.2 5.525 11.1375 5.06667 11.0125 4.625C10.8875 4.17917 10.7125 3.76458 10.4875 3.38125C10.2625 2.99375 9.99167 2.64167 9.675 2.325C9.35833 2.00833 9.00625 1.7375 8.61875 1.5125C8.23542 1.2875 7.82083 1.1125 7.375 0.9875C6.93333 0.8625 6.475 0.8 6 0.8ZM5.6 4.8H6.4V8.8H5.6V4.8ZM5.6 3.2H6.4V4H5.6V3.2Z" fill="#605E5C"/>
</svg>
