<svg width="65" height="65" viewBox="0 0 65 65" fill="none" xmlns="http://www.w3.org/2000/svg">
<path d="M17.6338 3.21191V4.11691V7.89991L17.6438 7.90591L17.6338 7.89991L17.5518 47.2719L46.1588 64.4979L46.2408 25.2079H46.2418V21.4249V20.4379L17.6338 3.21191Z" fill="#137AD1"/>
<path d="M50.8467 18.8219L50.8477 18.7109H50.8467V17.8059L46.2407 20.4379V21.5809L46.1587 64.4979L50.7647 61.7839L50.8397 22.4979L50.8467 22.4939V18.8219Z" fill="#185A97"/>
<path d="M17.6338 3.21192L22.2398 0.497925L50.8458 17.7239L46.2458 20.4379L17.6338 3.21192Z" fill="#83B9F9"/>
<path d="M25.1388 14.5539L25.0928 25.4979L40.2968 34.1509L40.3428 23.2079L25.1388 14.5539Z" fill="#4DC2EB"/>
<path d="M20.6118 22.3279C19.5715 22.0633 18.5985 21.5829 17.7558 20.9179L17.7868 20.8969H17.7788L17.6648 17.8969C17.1438 18.0154 16.6483 18.2264 16.2018 18.5199C15.7866 18.7458 15.4353 19.0732 15.1807 19.4715C14.9261 19.8699 14.7765 20.3262 14.7458 20.7979C14.6938 23.1369 17.4548 24.2109 19.6138 25.0139C19.9694 25.1465 20.363 25.1325 20.7082 24.9748C21.0533 24.8172 21.3217 24.5289 21.4543 24.1734C21.5869 23.8179 21.5729 23.4242 21.4153 23.0791C21.2576 22.7339 20.9694 22.4655 20.6138 22.3329L20.6118 22.3279Z" fill="#5EA0EF"/>
<path d="M20.6118 12.4479C19.5715 12.1834 18.5985 11.703 17.7558 11.0379L17.7868 11.0169H17.7788L17.6648 8.01694C17.1438 8.1354 16.6483 8.34641 16.2018 8.63994C15.7873 8.86541 15.4364 9.19201 15.1818 9.5894C14.9273 9.98679 14.7773 10.4421 14.7458 10.9129C14.6938 13.2519 17.4548 14.3259 19.6138 15.1289C19.9694 15.2615 20.363 15.2475 20.7082 15.0899C21.0533 14.9322 21.3217 14.644 21.4543 14.2884C21.5869 13.9329 21.5729 13.5393 21.4153 13.1941C21.2576 12.849 20.9694 12.5805 20.6138 12.4479H20.6118Z" fill="#5EA0EF"/>
<path d="M20.6118 32.2079C19.5715 31.9433 18.5985 31.4629 17.7558 30.7979L17.7868 30.7769H17.7788L17.6648 27.7769C17.144 27.8958 16.6485 28.1068 16.2018 28.3999C15.7873 28.6254 15.4364 28.952 15.1818 29.3494C14.9273 29.7468 14.7773 30.202 14.7458 30.6729C14.6938 33.0119 17.4548 34.0869 19.6138 34.8889C19.7899 34.9546 19.9771 34.9849 20.1649 34.9782C20.3527 34.9715 20.5373 34.9279 20.7082 34.8498C20.8791 34.7718 21.0329 34.6609 21.161 34.5233C21.289 34.3858 21.3887 34.2245 21.4543 34.0484C21.52 33.8724 21.5503 33.6851 21.5436 33.4974C21.5369 33.3096 21.4933 33.125 21.4153 32.9541C21.3372 32.7832 21.2263 32.6293 21.0888 32.5013C20.9513 32.3733 20.7899 32.2736 20.6138 32.2079H20.6118Z" fill="#5EA0EF"/>
<path d="M20.6118 42.0879C19.5715 41.8233 18.5985 41.3429 17.7558 40.6779L17.7868 40.6569H17.7788L17.6648 37.6569C17.1439 37.775 16.6483 37.9857 16.2018 38.2789C15.7871 38.5045 15.4362 38.8312 15.1816 39.2288C14.9271 39.6264 14.7772 40.0819 14.7458 40.5529C14.6938 42.8919 17.4548 43.9669 19.6138 44.7689C19.9694 44.9015 20.363 44.8875 20.7082 44.7299C21.0533 44.5722 21.3217 44.2839 21.4543 43.9284C21.5869 43.5729 21.5729 43.1793 21.4153 42.8341C21.2576 42.4889 20.9694 42.2205 20.6138 42.0879H20.6118Z" fill="#5EA0EF"/>
</svg>
