<svg width="100" height="100" viewBox="0 0 100 100" fill="none" xmlns="http://www.w3.org/2000/svg">
<path d="M50.0322 37.756C38.8472 37.727 29.7902 34.4 29.8002 30.326L29.7002 69.573C29.7002 73.614 38.6002 76.917 49.6562 77H49.9322C61.1172 77.028 70.1932 73.75 70.2022 69.674L70.3022 30.427C70.2922 34.506 61.2172 37.784 50.0322 37.756Z" fill="url(#paint0_linear)"/>
<path d="M70.2998 30.43C70.2998 34.503 61.2148 37.784 50.0298 37.756C38.8448 37.728 29.7898 34.4 29.7998 30.326C29.8098 26.252 38.8818 22.972 50.0698 23C61.2578 23.028 70.3108 26.355 70.2998 30.43Z" fill="#E6E6E6"/>
<path d="M65.5662 29.82C65.5662 32.413 58.6022 34.493 50.0322 34.471C41.4622 34.449 34.5202 32.333 34.5322 29.741C34.5442 27.149 41.4952 25.068 50.0692 25.09C58.6432 25.112 65.5862 27.228 65.5802 29.82" fill="#50E6FF"/>
<path d="M50.048 30.862C45.8792 30.753 41.7215 31.3438 37.748 32.61C41.7069 33.9382 45.8665 34.5679 50.041 34.471C54.2144 34.588 58.3763 33.979 62.341 32.671C58.3734 31.3848 54.218 30.7733 50.048 30.862Z" fill="#198AB3"/>
<defs>
<linearGradient id="paint0_linear" x1="29.8815" y1="53.777" x2="70.3845" y2="53.8985" gradientUnits="userSpaceOnUse">
<stop stop-color="#005BA1"/>
<stop offset="0.068" stop-color="#0060A9"/>
<stop offset="0.356" stop-color="#0071C8"/>
<stop offset="0.517" stop-color="#0078D4"/>
<stop offset="0.642" stop-color="#0074CD"/>
<stop offset="0.82" stop-color="#006ABB"/>
<stop offset="1" stop-color="#005BA1"/>
</linearGradient>
</defs>
</svg>
