<svg width="15" height="15" viewBox="0 0 15 15" fill="none" xmlns="http://www.w3.org/2000/svg">
<path d="M2 9.5C2 9.03646 2.08854 8.59115 2.26562 8.16406C2.44271 7.73698 2.69531 7.35677 3.02344 7.02344L4.79688 5.25781L9.74219 10.2031L7.97656 11.9766C7.64844 12.3047 7.27083 12.5573 6.84375 12.7344C6.41667 12.9115 5.96875 13 5.5 13C5.11979 13 4.7526 12.9427 4.39844 12.8281C4.04427 12.7135 3.71354 12.5391 3.40625 12.3047L0.851562 14.8516L0.148438 14.1484L2.69531 11.5938C2.46615 11.2917 2.29427 10.9635 2.17969 10.6094C2.0651 10.2552 2.00521 9.88542 2 9.5ZM5.5 12C5.83333 12 6.15104 11.9375 6.45312 11.8125C6.75521 11.6875 7.02604 11.5052 7.26562 11.2656L8.32812 10.2031L4.79688 6.67188L3.73438 7.73438C3.5 7.96875 3.32031 8.23698 3.19531 8.53906C3.07031 8.84115 3.00521 9.16146 3 9.5C3 9.84375 3.0651 10.1667 3.19531 10.4688C3.32552 10.7708 3.5026 11.0365 3.72656 11.2656C3.95052 11.4948 4.21615 11.6745 4.52344 11.8047C4.83073 11.9349 5.15625 12 5.5 12ZM12.3047 3.40625C12.5339 3.70833 12.7057 4.03646 12.8203 4.39062C12.9349 4.74479 12.9948 5.11458 13 5.5C13 5.96354 12.9115 6.40885 12.7344 6.83594C12.5573 7.26302 12.3047 7.64323 11.9766 7.97656L10.2031 9.74219L5.25781 4.79688L7.02344 3.02344C7.35156 2.69531 7.72917 2.44271 8.15625 2.26562C8.58333 2.08854 9.03125 2 9.5 2C9.88021 2 10.2474 2.05729 10.6016 2.17188C10.9557 2.28646 11.2865 2.46094 11.5938 2.69531L14.1484 0.148438L14.8516 0.851562L12.3047 3.40625ZM11.2656 7.26562C11.5 7.03125 11.6797 6.76302 11.8047 6.46094C11.9297 6.15885 11.9948 5.83854 12 5.5C12 5.15625 11.9349 4.83333 11.8047 4.53125C11.6745 4.22917 11.4948 3.96615 11.2656 3.74219C11.0365 3.51823 10.7708 3.33854 10.4688 3.20312C10.1667 3.06771 9.84375 3 9.5 3C9.16667 3 8.84896 3.0625 8.54688 3.1875C8.24479 3.3125 7.97396 3.49479 7.73438 3.73438L6.67188 4.79688L10.2031 8.32812L11.2656 7.26562Z" fill="#0078D4"/>
</svg>
