<svg width="12" height="12" viewBox="0 0 12 12" fill="none" xmlns="http://www.w3.org/2000/svg">
<path d="M6 12C9.31371 12 12 9.31371 12 6C12 2.68629 9.31371 0 6 0C2.68629 0 0 2.68629 0 6C0 9.31371 2.68629 12 6 12Z" fill="#015CDA"/>
<path d="M3.75 5.9998C3.75049 5.8396 3.76834 5.67991 3.80325 5.52355L2.34825 5.1748C2.2845 5.44522 2.25154 5.72198 2.25 5.9998C2.25388 6.3091 2.2962 6.61671 2.376 6.91555L3.83175 6.56755C3.7801 6.38263 3.75262 6.19179 3.75 5.9998Z" fill="white"/>
<path d="M4.26841 7.41846L3.09766 8.34471C3.45993 8.79675 3.92202 9.15871 4.44766 9.40221L5.07691 8.04546C4.76297 7.90109 4.48637 7.68658 4.26841 7.41846Z" fill="white"/>
<path d="M4.21958 4.64118C4.4359 4.35737 4.71663 4.12909 5.03858 3.97518L4.40933 2.61768C3.87573 2.87116 3.40957 3.24712 3.04883 3.71493L4.21958 4.64118Z" fill="white"/>
<path d="M6 2.25V3.75C6.59674 3.75 7.16903 3.98705 7.59099 4.40901C8.01295 4.83097 8.25 5.40326 8.25 6C8.25 6.59674 8.01295 7.16903 7.59099 7.59099C7.16903 8.01295 6.59674 8.25 6 8.25V9.75C6.99456 9.75 7.94839 9.35491 8.65165 8.65165C9.35491 7.94839 9.75 6.99456 9.75 6C9.75 5.00544 9.35491 4.05161 8.65165 3.34835C7.94839 2.64509 6.99456 2.25 6 2.25Z" fill="white"/>
</svg>
