<svg width="12" height="13" viewBox="0 0 12 13" fill="none" xmlns="http://www.w3.org/2000/svg">
<path d="M9.75 5.33887C10.0586 5.33887 10.3496 5.39941 10.623 5.52051C10.8965 5.6377 11.1348 5.79785 11.3379 6.00098C11.541 6.2041 11.7012 6.44238 11.8184 6.71582C11.9395 6.98926 12 7.28027 12 7.58887C12 7.89746 11.9395 8.18848 11.8184 8.46191C11.7012 8.73535 11.541 8.97363 11.3379 9.17676C11.1348 9.37988 10.8965 9.54199 10.623 9.66309C10.3496 9.78027 10.0586 9.83887 9.75 9.83887C9.51562 9.83887 9.28711 9.80371 9.06445 9.7334C8.8418 9.66309 8.63672 9.55957 8.44922 9.42285C8.38672 9.48535 8.28125 9.59473 8.13281 9.75098C7.98828 9.90332 7.82031 10.0791 7.62891 10.2783C7.4375 10.4736 7.23438 10.6787 7.01953 10.8936C6.80859 11.1045 6.60938 11.2998 6.42188 11.4795C6.23438 11.6553 6.06836 11.8018 5.92383 11.9189C5.7793 12.0322 5.67969 12.0889 5.625 12.0889C5.52344 12.0889 5.43555 12.0518 5.36133 11.9775C5.28711 11.9033 5.25 11.8154 5.25 11.7139C5.25 11.6592 5.30664 11.5596 5.41992 11.415C5.53711 11.2705 5.68359 11.1045 5.85938 10.917C6.03906 10.7295 6.23438 10.5303 6.44531 10.3193C6.66016 10.1045 6.86523 9.90137 7.06055 9.70996C7.25977 9.51855 7.43555 9.35059 7.58789 9.20605C7.74414 9.05762 7.85352 8.95215 7.91602 8.88965C7.7793 8.70215 7.67578 8.49707 7.60547 8.27441C7.53516 8.05176 7.5 7.82324 7.5 7.58887C7.5 7.28027 7.55859 6.98926 7.67578 6.71582C7.79688 6.44238 7.95898 6.2041 8.16211 6.00098C8.36523 5.79785 8.60352 5.6377 8.87695 5.52051C9.15039 5.39941 9.44141 5.33887 9.75 5.33887ZM9.75 9.08887C9.95312 9.08887 10.1465 9.0498 10.3301 8.97168C10.5137 8.88965 10.6719 8.78223 10.8047 8.64941C10.9414 8.5127 11.0488 8.35449 11.127 8.1748C11.209 7.99121 11.25 7.7959 11.25 7.58887C11.25 7.38574 11.209 7.19238 11.127 7.00879C11.0488 6.8252 10.9414 6.66699 10.8047 6.53418C10.6719 6.39746 10.5137 6.29004 10.3301 6.21191C10.1465 6.12988 9.95312 6.08887 9.75 6.08887C9.54297 6.08887 9.34766 6.12988 9.16406 6.21191C8.98438 6.29004 8.82617 6.39746 8.68945 6.53418C8.55664 6.66699 8.44922 6.8252 8.36719 7.00879C8.28906 7.19238 8.25 7.38574 8.25 7.58887C8.25 7.7959 8.28906 7.99121 8.36719 8.1748C8.44922 8.35449 8.55664 8.5127 8.68945 8.64941C8.82617 8.78223 8.98438 8.88965 9.16406 8.97168C9.34766 9.0498 9.54297 9.08887 9.75 9.08887ZM1.5 8.33887V6.83887H0V0.0888672H9V1.58887H10.5V4.69434C10.375 4.66309 10.25 4.6377 10.125 4.61816C10 4.59863 9.875 4.58887 9.75 4.58887V2.33887H2.25V7.58887H6.75C6.75 7.71387 6.75977 7.83887 6.7793 7.96387C6.79883 8.08887 6.82422 8.21387 6.85547 8.33887H1.5ZM1.5 6.08887V1.58887H8.25V0.838867H0.75V6.08887H1.5Z" fill="#0078D4"/>
</svg>
