<svg width="16" height="16" viewBox="0 0 16 16" fill="none" xmlns="http://www.w3.org/2000/svg">
<g clip-path="url(#clip0)">
<path d="M2.00816 9.49995C2.00713 9.03996 2.09707 8.5843 2.27281 8.15919C2.44855 7.73409 2.70661 7.34794 3.03216 7.02295L4.68016 5.37495L9.63316 10.3279L7.98516 11.9769C7.65992 12.3021 7.2737 12.5598 6.84864 12.7354C6.42358 12.9109 5.96804 13.0008 5.50816 12.9999C5.13179 13.0009 4.75771 12.9415 4.40016 12.8239C4.04405 12.7076 3.71005 12.5321 3.41216 12.3049L0.860156 14.8519L0.160156 14.1519L2.70016 11.5939C2.47227 11.296 2.29646 10.9616 2.18016 10.6049C2.06422 10.2482 2.00615 9.8751 2.00816 9.49995ZM5.50816 12.0229C5.80194 12.0292 6.09449 11.9831 6.37216 11.8869C6.61668 11.7972 6.84678 11.6722 7.05516 11.5159C7.27008 11.3536 7.4708 11.1733 7.65516 10.9769C7.84516 10.7729 8.04949 10.5619 8.26816 10.3439L4.66816 6.74395C4.45416 6.95795 4.24449 7.16128 4.03916 7.35395C3.83924 7.53839 3.65494 7.73908 3.48816 7.95395C3.32685 8.16355 3.19651 8.39525 3.10116 8.64195C3.00022 8.91547 2.95138 9.20546 2.95716 9.49695C2.95057 9.99708 3.09549 10.4875 3.37285 10.9037C3.65021 11.3199 4.04704 11.6425 4.51116 11.8289C4.82761 11.9582 5.16634 12.0241 5.50816 12.0229ZM13.0082 5.49995C13.0087 5.95979 12.9187 6.41523 12.7431 6.84024C12.5676 7.26526 12.31 7.65152 11.9852 7.97695L10.3292 9.62495L5.38316 4.67995L7.03216 3.02295C7.35564 2.69807 7.74413 2.44521 8.17216 2.28095C8.9523 1.97914 9.8117 1.95058 10.6102 2.19995C10.9656 2.31203 11.3006 2.48088 11.6022 2.69995L14.1572 0.147949L14.8572 0.847949L12.3132 3.40595C12.5398 3.70468 12.7156 4.03886 12.8332 4.39495C12.95 4.75161 13.009 5.12465 13.0082 5.49995ZM10.3522 8.26595C10.5652 8.05795 10.7752 7.85495 10.9812 7.65995C11.1802 7.47256 11.3631 7.26885 11.5282 7.05095C11.6874 6.83852 11.8175 6.6058 11.9152 6.35895C12.0179 6.08442 12.0681 5.79303 12.0632 5.49995C12.0664 5.16515 12.002 4.83315 11.8738 4.52385C11.7456 4.21455 11.5563 3.93432 11.3172 3.69995C11.0828 3.47239 10.8067 3.29211 10.5042 3.16895C10.1867 3.04001 9.84682 2.97509 9.50416 2.97795C9.21038 2.97188 8.91795 3.01932 8.64116 3.11795C8.39657 3.21027 8.1655 3.33506 7.95416 3.48895C7.73806 3.64837 7.5372 3.82747 7.35416 4.02395C7.16416 4.22795 6.95982 4.43895 6.74116 4.65695L10.3522 8.26595ZM16.0082 13.9999H14.0082V15.9999H13.0082V13.9999H11.0082V12.9999H13.0082V10.9999H14.0082V12.9999H16.0082V13.9999Z" fill="#0078D4"/>
</g>
<defs>
<clipPath id="clip0">
<rect width="16" height="16" fill="white"/>
</clipPath>
</defs>
</svg>
