<svg width="36" height="36" viewBox="0 0 36 36" fill="none" xmlns="http://www.w3.org/2000/svg">
<path d="M0.0214844 9.81836H31.6215V27.4404C31.6215 27.7215 31.5098 27.9911 31.311 28.1899C31.1122 28.3887 30.8426 28.5004 30.5615 28.5004H1.08148C0.800355 28.5004 0.53074 28.3887 0.331951 28.1899C0.133163 27.9911 0.0214844 27.7215 0.0214844 27.4404V9.81836Z" fill="url(#paint0_linear)"/>
<path d="M1.08148 3.08789H30.5635C30.8446 3.08789 31.1142 3.19957 31.313 3.39836C31.5118 3.59715 31.6235 3.86676 31.6235 4.14789V9.81789H0.0214844V4.12989C0.0262058 3.85189 0.139965 3.58688 0.338244 3.39197C0.536523 3.19705 0.803446 3.08785 1.08148 3.08789V3.08789Z" fill="#0078D4"/>
<path d="M3.17355 7.64787C3.7192 7.64787 4.16155 7.20553 4.16155 6.65987C4.16155 6.11422 3.7192 5.67188 3.17355 5.67188C2.62789 5.67188 2.18555 6.11422 2.18555 6.65987C2.18555 7.20553 2.62789 7.64787 3.17355 7.64787Z" fill="#83B9F9"/>
<path d="M6.92159 7.64787C7.46725 7.64787 7.90959 7.20553 7.90959 6.65987C7.90959 6.11422 7.46725 5.67188 6.92159 5.67188C6.37594 5.67188 5.93359 6.11422 5.93359 6.65987C5.93359 7.20553 6.37594 7.64787 6.92159 7.64787Z" fill="#83B9F9"/>
<path d="M10.6696 7.64787C11.2153 7.64787 11.6576 7.20553 11.6576 6.65987C11.6576 6.11422 11.2153 5.67188 10.6696 5.67188C10.124 5.67188 9.68164 6.11422 9.68164 6.65987C9.68164 7.20553 10.124 7.64787 10.6696 7.64787Z" fill="#83B9F9"/>
<path d="M28.3734 18.2481C24.1734 18.2481 20.7734 17.0621 20.7734 15.4961V30.1601C20.7734 31.6661 24.1174 32.8881 28.2694 32.9121H28.3774C32.5774 32.9121 35.9774 31.7261 35.9774 30.1601V15.4961C35.9774 17.0281 32.5714 18.2481 28.3734 18.2481Z" fill="url(#paint1_linear)"/>
<path d="M35.9773 15.4961C35.9773 17.0281 32.5773 18.2481 28.3773 18.2481C24.1773 18.2481 20.7773 17.0621 20.7773 15.4961C20.7773 13.9301 24.1773 12.7441 28.3773 12.7441C32.5773 12.7441 35.9773 13.9301 35.9773 15.4961" fill="#E8E8E8"/>
<path d="M34.2092 15.2723C34.2092 16.2443 31.5872 17.0283 28.3732 17.0283C25.1592 17.0283 22.5352 16.2443 22.5352 15.2723C22.5352 14.3003 25.1572 13.5283 28.3732 13.5283C31.5892 13.5283 34.2092 14.3103 34.2092 15.2723" fill="#50E6FF"/>
<path d="M28.3738 15.7099C26.8079 15.6706 25.2467 15.8992 23.7578 16.3859C25.248 16.8643 26.8096 17.0815 28.3738 17.0279C29.9403 17.0722 31.5024 16.8393 32.9878 16.3399C31.4956 15.8743 29.9362 15.6614 28.3738 15.7099V15.7099Z" fill="#198AB3"/>
<path d="M14.4143 17.5436V12.7696H13.1503V18.5696H16.6003V17.5436H14.4143ZM4.39034 15.1996C4.1298 15.0945 3.888 14.948 3.67434 14.7656C3.61809 14.7053 3.57429 14.6345 3.54546 14.5573C3.51663 14.4801 3.50334 14.3979 3.50634 14.3156C3.50225 14.2334 3.51942 14.1516 3.55621 14.078C3.593 14.0044 3.64816 13.9416 3.71634 13.8956C3.88897 13.7756 4.09633 13.7158 4.30634 13.7256C4.80418 13.7023 5.29594 13.8428 5.70634 14.1256V12.9256C5.2588 12.7601 4.78316 12.684 4.30634 12.7016C3.75548 12.6719 3.21236 12.8416 2.77634 13.1796C2.58599 13.3258 2.4332 13.5153 2.3306 13.7323C2.22801 13.9493 2.17856 14.1876 2.18634 14.4276C2.18634 15.1436 2.63634 15.7056 3.58634 16.1276C3.8965 16.2581 4.18884 16.4274 4.45634 16.6316C4.5218 16.687 4.5746 16.7559 4.61117 16.8336C4.64775 16.9112 4.66724 16.9958 4.66834 17.0816C4.66831 17.167 4.64776 17.2512 4.60844 17.3271C4.56911 17.403 4.51215 17.4683 4.44234 17.5176C4.25106 17.6291 4.03148 17.6826 3.81034 17.6716C3.2445 17.6635 2.70083 17.4503 2.28034 17.0716V18.3776C2.74423 18.6156 3.26123 18.7313 3.78234 18.7136C4.37108 18.7489 4.95474 18.5863 5.44034 18.2516C5.6111 18.0889 5.74172 17.8888 5.8219 17.667C5.90207 17.4452 5.92961 17.2078 5.90234 16.9736C5.90909 16.6177 5.7861 16.2715 5.55634 15.9996C5.22804 15.6541 4.83078 15.3816 4.39034 15.1996V15.1996ZM11.7463 17.4296C12.0517 16.9414 12.2136 16.3773 12.2136 15.8016C12.2136 15.2258 12.0517 14.6617 11.7463 14.1736C11.5278 13.7352 11.1867 13.3697 10.7643 13.1216C10.338 12.8785 9.85509 12.7522 9.36434 12.7556C8.83407 12.7439 8.31043 12.8752 7.84834 13.1356C7.41425 13.3765 7.05822 13.7367 6.82234 14.1736C6.57477 14.6701 6.44994 15.2188 6.45834 15.7736C6.46141 16.2598 6.57638 16.7389 6.79434 17.1736C7.00941 17.6074 7.34656 17.9688 7.76434 18.2136C8.18757 18.4706 8.6695 18.6152 9.16434 18.6336L10.3643 20.0336H12.0643L10.3363 18.4896C10.9191 18.3185 11.4201 17.9419 11.7463 17.4296V17.4296ZM10.3463 17.0796C10.2188 17.2384 10.0561 17.3655 9.87115 17.4508C9.68619 17.5362 9.48396 17.5775 9.28034 17.5716C9.07303 17.5794 8.86686 17.5375 8.679 17.4495C8.49114 17.3615 8.32703 17.2298 8.20034 17.0656C7.90716 16.6601 7.7656 16.1647 7.80034 15.6656C7.76746 15.1666 7.90885 14.6718 8.20034 14.2656C8.33233 14.1022 8.49938 13.9707 8.6891 13.8807C8.87882 13.7907 9.08635 13.7445 9.29634 13.7456C9.5013 13.7366 9.70519 13.7796 9.8891 13.8705C10.073 13.9614 10.231 14.0973 10.3483 14.2656C10.6246 14.6782 10.7581 15.1699 10.7283 15.6656C10.778 16.1683 10.6405 16.6717 10.3423 17.0796H10.3463Z" fill="white"/>
<defs>
<linearGradient id="paint0_linear" x1="15.8235" y1="28.5004" x2="15.8235" y2="9.81836" gradientUnits="userSpaceOnUse">
<stop stop-color="#0078D4"/>
<stop offset="0.446" stop-color="#5EA0EF"/>
<stop offset="0.884" stop-color="#83B9F9"/>
</linearGradient>
<linearGradient id="paint1_linear" x1="20.7694" y1="24.2041" x2="35.9774" y2="24.2041" gradientUnits="userSpaceOnUse">
<stop stop-color="#005BA1"/>
<stop offset="0.07" stop-color="#0060A9"/>
<stop offset="0.36" stop-color="#0071C8"/>
<stop offset="0.52" stop-color="#0078D4"/>
<stop offset="0.64" stop-color="#0074CD"/>
<stop offset="0.82" stop-color="#006ABB"/>
<stop offset="1" stop-color="#005BA1"/>
</linearGradient>
</defs>
</svg>
