<svg width="100" height="100" viewBox="0 0 100 100" fill="none" xmlns="http://www.w3.org/2000/svg">
<path opacity="0.4" d="M57.1348 30.379C62.6278 31.873 64.0168 32.817 68.9678 36.845C68.9308 36.781 68.8898 36.725 68.8478 36.656C68.6178 36.287 68.3678 35.936 68.1168 35.594C68.0228 35.474 67.9308 35.341 67.8318 35.221C67.6088 34.946 67.3688 34.694 67.1318 34.441C66.7601 34.0511 66.3654 33.6837 65.9498 33.341L65.9378 33.331C64.6334 32.2806 63.1432 31.4848 61.5448 30.985L61.3448 30.919C61.0068 30.819 60.6628 30.7323 60.3128 30.659C60.0398 30.604 59.7608 30.559 59.4808 30.521C59.2658 30.49 59.0528 30.448 58.8358 30.427C58.3244 30.3817 57.8121 30.362 57.2988 30.368L57.1348 30.379Z" fill="white"/>
<path d="M63.7865 24.777C60.1445 24.777 57.1865 23.708 57.1865 22.388V35.1C57.1865 36.408 60.0865 37.471 63.6925 37.488H63.7865C67.4295 37.488 70.3865 36.42 70.3865 35.1V22.388C70.3775 23.708 67.4245 24.777 63.7865 24.777Z" fill="url(#paint0_linear)"/>
<path d="M70.3775 22.388C70.3775 23.708 67.4245 24.777 63.7775 24.777C60.1305 24.777 57.1865 23.708 57.1865 22.388C57.1865 21.068 60.1405 20 63.7865 20C67.4325 20 70.3865 21.069 70.3865 22.388" fill="#E8E8E8"/>
<path d="M68.8376 22.2C68.8376 23.04 66.5746 23.719 63.7826 23.719C60.9906 23.719 58.7266 23.039 58.7266 22.2C58.7266 21.361 60.9896 20.682 63.7866 20.682C66.5836 20.682 68.8426 21.361 68.8426 22.2" fill="#50E6FF"/>
<path d="M63.7861 22.545C62.4301 22.5141 61.0784 22.7088 59.7861 23.121C62.393 23.9195 65.1792 23.9195 67.7861 23.121C66.4939 22.7088 65.1422 22.5141 63.7861 22.545Z" fill="#198AB3"/>
<path d="M79.6268 53.279C79.5407 50.42 78.441 47.6848 76.5241 45.5618C74.6073 43.4389 71.9982 42.0666 69.1628 41.69C69.0828 33.65 62.1088 27.158 53.5118 27.158C50.2817 27.0992 47.113 28.0452 44.4439 29.8652C41.7747 31.6853 39.7368 34.2895 38.6118 37.318C31.4408 38.41 25.9668 44.19 25.9668 51.16C25.9668 58.91 32.7308 65.192 41.0748 65.192C41.5238 65.192 41.9678 65.169 42.4068 65.134H66.8738C67.0926 65.1298 67.3099 65.0962 67.5198 65.034C74.2568 64.761 79.6268 59.6 79.6268 53.279Z" fill="url(#paint1_linear)"/>
<path d="M78.4631 29.993C76.8101 27.833 73.9731 26.783 70.3771 26.739V30.339C72.8971 30.381 74.7321 31.019 75.6161 32.178C78.6511 36.156 73.1371 49.2 57.2631 61.4C41.3891 73.6 27.4111 75.561 24.3781 71.581C22.6591 69.327 23.7251 64.151 27.8231 57.881C27.0849 56.6401 26.5543 55.2869 26.2521 53.875C20.3921 61.915 18.2761 69.501 21.5311 73.775C26.7481 80.616 43.7221 76.362 59.4441 64.275C75.1661 52.188 83.6791 36.833 78.4631 29.993Z" fill="#0072C6"/>
<path d="M48.1607 58.2C41.9137 58.2 36.8467 56.365 36.8467 54.1V75.9C36.8467 78.144 41.8297 79.967 48.0067 80H48.1617C54.4107 80 59.4757 78.166 59.4757 75.9V54.1C59.4747 56.368 54.4087 58.2 48.1607 58.2Z" fill="url(#paint2_linear)"/>
<path d="M59.4747 54.105C59.4747 56.368 54.4087 58.205 48.1607 58.205C41.9127 58.205 36.8467 56.37 36.8467 54.105C36.8467 51.84 41.9137 50.005 48.1607 50.005C54.4077 50.005 59.4747 51.84 59.4747 54.105Z" fill="#E8E8E8"/>
<path d="M56.8343 53.773C56.8343 55.214 52.9513 56.379 48.1613 56.379C43.3713 56.379 39.4883 55.212 39.4883 53.773C39.4883 52.334 43.3723 51.168 48.1613 51.168C52.9503 51.168 56.8343 52.335 56.8343 53.773Z" fill="#50E6FF"/>
<path d="M48.161 54.373C45.832 54.3188 43.5102 54.6531 41.291 55.362C43.5054 56.094 45.8295 56.4381 48.161 56.379C50.4928 56.438 52.8173 56.0939 55.032 55.362C52.8125 54.6531 50.4904 54.3188 48.161 54.373Z" fill="#198AB3"/>
<path d="M55.0376 69.236V63.276H53.3996V70.568H57.7426V69.236H55.0376ZM42.4516 66.3C42.1242 66.163 41.8186 65.9787 41.5446 65.753C41.4712 65.6784 41.4137 65.5897 41.3757 65.4922C41.3377 65.3947 41.32 65.2905 41.3236 65.186C41.3212 65.0809 41.345 64.9769 41.3928 64.8833C41.4407 64.7897 41.5111 64.7096 41.5976 64.65C41.8194 64.5055 42.0814 64.4354 42.3456 64.45C42.9449 64.4411 43.532 64.619 44.0256 64.959V63.439C43.4585 63.2352 42.858 63.1399 42.2556 63.158C41.5614 63.1232 40.877 63.333 40.3216 63.751C40.0878 63.9386 39.9009 64.178 39.7755 64.4503C39.6502 64.7226 39.59 65.0204 39.5996 65.32C39.6295 65.8027 39.8048 66.265 40.1026 66.6461C40.4003 67.0272 40.8065 67.3092 41.2676 67.455C41.6553 67.6177 42.0203 67.8298 42.3536 68.086C42.4376 68.1565 42.505 68.2445 42.5513 68.3438C42.5976 68.4431 42.6216 68.5514 42.6216 68.661C42.624 68.767 42.5997 68.8719 42.5509 68.9661C42.5022 69.0603 42.4306 69.1407 42.3426 69.2C42.1083 69.348 41.8332 69.418 41.5566 69.4C40.8452 69.3956 40.1599 69.1314 39.6296 68.657V70.284C40.2158 70.5731 40.8644 70.7129 41.5176 70.691C42.2542 70.734 42.9846 70.5341 43.5966 70.122C43.8436 69.9355 44.0413 69.6916 44.1725 69.4113C44.3038 69.1311 44.3645 68.8231 44.3496 68.514C44.3638 68.061 44.2095 67.6188 43.9166 67.273C43.4972 66.8553 42.9993 66.5246 42.4516 66.3ZM51.6046 69.1C51.9623 68.4678 52.1622 67.7586 52.1875 67.0327C52.2127 66.3068 52.0625 65.5855 51.7496 64.93C51.4753 64.3788 51.0456 63.9199 50.5136 63.61C49.966 63.297 49.3444 63.1367 48.7136 63.146C48.0448 63.1342 47.3847 63.2998 46.8006 63.626C46.2431 63.9468 45.7924 64.4247 45.5046 65C45.1895 65.6263 45.0316 66.32 45.0446 67.021C45.036 67.664 45.1814 68.2997 45.4686 68.875C45.7381 69.4151 46.1539 69.8687 46.6686 70.184C47.1975 70.5059 47.8017 70.6831 48.4206 70.698L49.9316 72.392H52.0666L49.9526 70.434C50.6424 70.1962 51.2269 69.7242 51.6046 69.1ZM49.9616 68.653C49.8014 68.8546 49.596 69.0155 49.362 69.1229C49.1279 69.2303 48.8719 69.281 48.6146 69.271C48.3571 69.2789 48.1013 69.2251 47.8688 69.1141C47.6362 69.0031 47.4335 68.8382 47.2776 68.633C46.9469 68.1227 46.7717 67.5272 46.7733 66.9191C46.7749 66.311 46.9532 65.7165 47.2866 65.208C47.4479 64.9999 47.656 64.8329 47.8941 64.7206C48.1322 64.6083 48.3935 64.554 48.6566 64.562C48.9127 64.5529 49.167 64.607 49.3973 64.7195C49.6275 64.832 49.8264 64.9994 49.9766 65.207C50.3225 65.7234 50.491 66.3384 50.4566 66.959C50.4936 67.5653 50.3186 68.1655 49.9616 68.657V68.653Z" fill="url(#paint3_radial)"/>
<defs>
<linearGradient id="paint0_linear" x1="57.1865" y1="29.936" x2="70.3875" y2="29.936" gradientUnits="userSpaceOnUse">
<stop stop-color="#005BA1"/>
<stop offset="0.068" stop-color="#0060A9"/>
<stop offset="0.356" stop-color="#0071C8"/>
<stop offset="0.517" stop-color="#0078D4"/>
<stop offset="0.642" stop-color="#0074CD"/>
<stop offset="0.82" stop-color="#006ABB"/>
<stop offset="1" stop-color="#005BA1"/>
</linearGradient>
<linearGradient id="paint1_linear" x1="52.7968" y1="65.192" x2="52.7968" y2="27.156" gradientUnits="userSpaceOnUse">
<stop stop-color="#198AB3"/>
<stop offset="0.097" stop-color="#209EC5"/>
<stop offset="0.242" stop-color="#28B6DA"/>
<stop offset="0.396" stop-color="#2EC7E9"/>
<stop offset="0.565" stop-color="#31D1F2"/>
<stop offset="0.775" stop-color="#32D4F5"/>
</linearGradient>
<linearGradient id="paint2_linear" x1="870.658" y1="18260.5" x2="1382.73" y2="18260.5" gradientUnits="userSpaceOnUse">
<stop stop-color="#005BA1"/>
<stop offset="0.068" stop-color="#0060A9"/>
<stop offset="0.356" stop-color="#0071C8"/>
<stop offset="0.517" stop-color="#0078D4"/>
<stop offset="0.642" stop-color="#0074CD"/>
<stop offset="0.82" stop-color="#006ABB"/>
<stop offset="1" stop-color="#005BA1"/>
</linearGradient>
<radialGradient id="paint3_radial" cx="0" cy="0" r="1" gradientUnits="userSpaceOnUse" gradientTransform="translate(48.7896 67.771) scale(12.478)">
<stop stop-color="#F2F2F2"/>
<stop offset="0.58" stop-color="#EEEEEE"/>
<stop offset="1" stop-color="#E6E6E6"/>
</radialGradient>
</defs>
</svg>
