<svg width="16" height="16" viewBox="0 0 16 16" fill="none" xmlns="http://www.w3.org/2000/svg">
<g clip-path="url(#clip0)">
<path d="M12.7002 7.14809L15.0552 9.50009L12.7002 11.8521L12.0002 11.1521L13.1412 10.0001H7.00024V9.00009H13.1412L12.0002 7.85209L12.7002 7.14809ZM10.0002 11.0001H11.0002V12.5001C11.004 12.7175 10.9531 12.9324 10.8522 13.1251C10.7458 13.3164 10.611 13.4904 10.4522 13.6411C10.1565 13.9236 9.80964 14.1473 9.43024 14.3001C9.00477 14.4762 8.56565 14.6173 8.11724 14.7221C7.66241 14.8298 7.2001 14.903 6.73424 14.9411C6.27624 14.9751 5.86491 14.9948 5.50024 15.0001C5.13557 15.0054 4.72424 14.9848 4.26624 14.9381C3.80358 14.8955 3.34424 14.8223 2.89124 14.7191C2.4427 14.6183 2.00348 14.4798 1.57824 14.3051C1.19415 14.1539 0.843761 13.9282 0.547239 13.6411C0.391829 13.4926 0.259978 13.3213 0.15624 13.1331C0.0539872 12.9377 0.000467488 12.7206 0.000239503 12.5001V3.50009C-0.00395315 3.2826 0.0469607 3.0676 0.14824 2.87509C0.254632 2.6838 0.389509 2.50981 0.548239 2.35909C0.844004 2.07656 1.19084 1.85292 1.57024 1.70009C1.99571 1.52397 2.43483 1.38284 2.88324 1.27809C3.33807 1.17038 3.80038 1.09717 4.26624 1.05909C4.72424 1.02509 5.13557 1.00542 5.50024 1.00009C5.86491 0.994755 6.27624 1.01542 6.73424 1.06209C7.1969 1.1047 7.65624 1.17786 8.10924 1.28109C8.55793 1.38351 8.99716 1.52368 9.42224 1.70009C9.80633 1.85127 10.1567 2.07694 10.4532 2.36409C10.6087 2.51255 10.7405 2.68385 10.8442 2.87209C10.9458 3.06589 10.9993 3.28128 11.0002 3.50009V8.00009H10.0002V4.98409C9.68514 5.18601 9.34665 5.34887 8.99224 5.46909C8.6121 5.60047 8.22313 5.70473 7.82824 5.78109C7.43171 5.85867 7.03105 5.91342 6.62824 5.94509C6.22557 5.97709 5.84957 5.99542 5.50024 6.00009C5.15091 6.00475 4.77591 5.98909 4.37524 5.95309C3.97195 5.92166 3.57112 5.8642 3.17524 5.78109C2.78145 5.70002 2.39278 5.59584 2.01124 5.46909C1.65408 5.35334 1.31405 5.19022 1.00024 4.98409V12.5001C1.00321 12.6172 1.05078 12.7288 1.13324 12.8121C1.22768 12.9168 1.33523 13.0089 1.45324 13.0861C1.57584 13.1676 1.70379 13.2408 1.83624 13.3051C1.96624 13.3671 2.07024 13.4171 2.14824 13.4531C2.40457 13.5592 2.66868 13.6455 2.93824 13.7111C3.22163 13.7802 3.50832 13.8349 3.79724 13.8751C4.09457 13.9171 4.38357 13.9484 4.66424 13.9691C4.94491 13.9898 5.22357 14.0001 5.50024 14.0001C5.76691 14.0001 6.04291 13.9924 6.32824 13.9771C6.62131 13.9606 6.91335 13.9292 7.20324 13.8831C7.50057 13.8364 7.78457 13.7791 8.05524 13.7111C8.32737 13.6431 8.59464 13.5569 8.85524 13.4531C8.93324 13.4224 9.03724 13.3754 9.16724 13.3121C9.30122 13.248 9.42937 13.1724 9.55024 13.0861C9.66572 13.0056 9.77292 12.9138 9.87024 12.8121C9.9114 12.7712 9.94408 12.7226 9.96639 12.6691C9.9887 12.6155 10.0002 12.5581 10.0002 12.5001V11.0001ZM1.00024 3.50009C1.00321 3.61723 1.05078 3.72882 1.13324 3.81209C1.22768 3.91681 1.33523 4.0089 1.45324 4.08609C1.57584 4.16762 1.70379 4.24079 1.83624 4.30509L2.14824 4.45309C2.40403 4.56068 2.66826 4.64697 2.93824 4.71109C3.21924 4.77909 3.50524 4.83309 3.79724 4.87509C4.08924 4.91709 4.37824 4.94809 4.66424 4.96909C4.95024 4.99009 5.22924 5.00009 5.50024 5.00009C5.77124 5.00009 6.04224 4.99209 6.32824 4.97709C6.6203 4.96047 6.91134 4.92909 7.20024 4.88309C7.49757 4.83642 7.78391 4.77909 8.05924 4.71109C8.3288 4.64547 8.59291 4.55921 8.84924 4.45309C8.92724 4.42175 9.03124 4.37475 9.16124 4.31209C9.29502 4.24763 9.42314 4.17203 9.54424 4.08609C9.65972 4.00558 9.76692 3.9138 9.86424 3.81209C9.90649 3.77172 9.94028 3.72334 9.96363 3.66977C9.98698 3.6162 9.99942 3.55852 10.0002 3.50009C9.99726 3.38294 9.94969 3.27135 9.86724 3.18809C9.7728 3.08337 9.66525 2.99128 9.54724 2.91409C9.4245 2.83427 9.29655 2.76277 9.16424 2.70009L8.85224 2.55209C8.59541 2.44945 8.33136 2.36589 8.06224 2.30209C7.78091 2.23409 7.49357 2.17509 7.20024 2.12509C6.91306 2.07878 6.62367 2.0474 6.33324 2.03109C6.04924 2.01609 5.77124 2.00509 5.50024 2.00009C5.22924 1.99509 4.95824 2.00809 4.67224 2.02309C4.37917 2.03961 4.08713 2.07098 3.79724 2.11709C3.49991 2.16442 3.21357 2.22175 2.93824 2.28909C2.66868 2.35471 2.40457 2.44096 2.14824 2.54709C2.07024 2.57775 1.96624 2.62475 1.83624 2.68809C1.70246 2.75255 1.57434 2.82815 1.45324 2.91409C1.33776 2.99459 1.23056 3.08638 1.13324 3.18809C1.09153 3.22871 1.0583 3.2772 1.03547 3.33076C1.01264 3.38431 1.00066 3.44187 1.00024 3.50009V3.50009Z" fill="#0078D4"/>
</g>
<defs>
<clipPath id="clip0">
<rect width="16" height="16" fill="white"/>
</clipPath>
</defs>
</svg>
