<svg width="12" height="12" viewBox="0 0 12 12" fill="none" xmlns="http://www.w3.org/2000/svg">
<g clip-path="url(#clip0)">
<path d="M2.25014 10.1309V9.54737L2.20589 9.53912C2.00296 9.49002 1.80412 9.42533 1.61114 9.34562C1.55264 9.32237 1.47464 9.28637 1.37714 9.23687C1.27808 9.18729 1.18215 9.13169 1.08989 9.07037C1.00076 9.01214 0.920011 8.94199 0.84989 8.86187C0.789114 8.79993 0.753558 8.71759 0.75014 8.63087V2.99387C0.986466 3.14531 1.24033 3.26746 1.50614 3.35762C1.74994 3.43888 1.99839 3.5055 2.25014 3.55712V3.38087C2.25295 3.18671 2.28792 2.99435 2.35364 2.81162C2.33864 2.81162 2.32364 2.80712 2.30864 2.80337C2.09898 2.75738 1.89254 2.69775 1.69064 2.62487C1.5092 2.56027 1.3346 2.47787 1.16939 2.37887C1.02794 2.29744 0.906684 2.18515 0.81464 2.05037C0.796117 2.02482 0.780283 1.99743 0.76739 1.96862C0.755826 1.94082 0.74996 1.91098 0.75014 1.88087C0.7537 1.79419 0.789235 1.7119 0.84989 1.64987C0.920236 1.5702 1.00096 1.50032 1.08989 1.44212C1.18231 1.38084 1.27822 1.325 1.37714 1.27487C1.47464 1.22487 1.55264 1.18887 1.61114 1.16687C1.80501 1.09002 2.00368 1.02588 2.20589 0.974871C2.41539 0.921871 2.62939 0.878871 2.84789 0.845871C3.06614 0.812871 3.28439 0.789621 3.50114 0.775371C3.71789 0.761121 3.92564 0.755121 4.12514 0.755121C4.32464 0.755121 4.53239 0.761871 4.74914 0.775371C4.96589 0.788871 5.18339 0.812871 5.40239 0.845871C5.47364 0.856371 5.54114 0.875121 5.61089 0.887871C5.78489 0.860871 5.95664 0.821121 6.13064 0.805371C6.49964 0.770871 6.83114 0.755121 7.12514 0.755121C7.24514 0.755121 7.37489 0.759621 7.50539 0.764871C7.36431 0.672248 7.21551 0.591951 7.06064 0.524871C6.74607 0.390341 6.41966 0.285389 6.08564 0.211371C5.74733 0.136808 5.40465 0.083702 5.05964 0.0523711C4.71764 0.0208711 4.40614 0.00537109 4.12514 0.00587109C3.84414 0.00637109 3.53564 0.0218711 3.19964 0.0523711C2.85168 0.0845003 2.50619 0.139368 2.16539 0.216621C1.82857 0.291983 1.49904 0.396889 1.18064 0.530121C0.894986 0.645099 0.633646 0.813048 0.41039 1.02512C0.292836 1.13745 0.192956 1.26691 0.11414 1.40912C0.0365821 1.5541 -0.00265829 1.71648 0.000139821 1.88087V8.63087C-0.000784603 8.7941 0.0383601 8.95505 0.11414 9.09962C0.191739 9.24431 0.293158 9.37488 0.41414 9.48587C0.64238 9.69686 0.906211 9.86572 1.19339 9.98462C1.50794 10.119 1.83436 10.2237 2.16839 10.2974C2.20364 10.3056 2.24339 10.3071 2.27489 10.3146C2.26589 10.2531 2.25014 10.1939 2.25014 10.1309Z" fill="#0078D4"/>
<path d="M10.5001 9.00017V10.1312C10.4967 10.2179 10.4612 10.3002 10.4004 10.3622C10.3301 10.4421 10.2494 10.5122 10.1604 10.5707C10.0681 10.632 9.9722 10.6876 9.87314 10.7372C9.77564 10.7867 9.69764 10.8227 9.63914 10.8459C9.44616 10.9256 9.24732 10.9903 9.04439 11.0394C8.83514 11.0897 8.62139 11.1324 8.40239 11.1654C8.18339 11.1984 7.96589 11.2217 7.74914 11.2352C7.53239 11.2487 7.32464 11.2562 7.12514 11.2562C6.92564 11.2562 6.71789 11.2502 6.50114 11.2352C6.28439 11.2202 6.06614 11.1984 5.84789 11.1654C5.62964 11.1324 5.41514 11.0904 5.20589 11.0394C5.00296 10.9903 4.80412 10.9256 4.61114 10.8459C4.55264 10.8227 4.47464 10.7867 4.37714 10.7372C4.27808 10.6876 4.18215 10.632 4.08989 10.5707C4.00076 10.5124 3.92001 10.4423 3.84989 10.3622C3.78911 10.3002 3.75356 10.2179 3.75014 10.1312V4.49417C3.98647 4.64561 4.24033 4.76776 4.50614 4.85792C4.79135 4.95611 5.08306 5.0343 5.37914 5.09192C5.67839 5.15023 5.98059 5.19229 6.28439 5.21792C6.58439 5.24342 6.86464 5.25617 7.12514 5.25617C7.38564 5.25617 7.66489 5.24342 7.96289 5.21792C8.26666 5.19198 8.56883 5.14992 8.86814 5.09192C9.16527 5.03458 9.45799 4.95639 9.74414 4.85792C10.0099 4.76776 10.2638 4.64561 10.5001 4.49417V9.75017H11.2501V3.38117C11.2512 3.21792 11.2121 3.05692 11.1361 2.91242C11.0583 2.76767 10.9569 2.63688 10.8361 2.52542C10.6088 2.31465 10.3464 2.14534 10.0606 2.02517C9.74607 1.89064 9.41966 1.78569 9.08564 1.71167C8.74763 1.63638 8.40519 1.58252 8.06039 1.55042C7.71839 1.51892 7.40689 1.50342 7.12589 1.50392C6.84489 1.50442 6.53614 1.52067 6.19964 1.55267C5.85168 1.5848 5.50619 1.63966 5.16539 1.71692C4.82857 1.79228 4.49904 1.89719 4.18064 2.03042C3.89499 2.1454 3.63365 2.31335 3.41039 2.52542C3.29284 2.63774 3.19296 2.76721 3.11414 2.90942C3.03658 3.05439 2.99734 3.21678 3.00014 3.38117V10.1312C2.99922 10.2944 3.03836 10.4553 3.11414 10.5999C3.19061 10.7443 3.29075 10.8749 3.41039 10.9862C3.63863 11.1972 3.90246 11.366 4.18964 11.4849C4.50419 11.6193 4.83061 11.724 5.16464 11.7977C5.50257 11.8734 5.84503 11.9272 6.18989 11.9589C6.53089 11.9904 6.84239 12.0062 7.12439 12.0062C7.39739 12.0062 7.70589 11.9904 8.04989 11.9589C8.39783 11.927 8.74332 11.8724 9.08414 11.7954C9.42087 11.7197 9.75036 11.6148 10.0689 11.4819C10.3546 11.3668 10.616 11.1986 10.8391 10.9862C10.9576 10.874 11.0587 10.7449 11.1391 10.6029C11.2155 10.4576 11.2537 10.2953 11.2501 10.1312V9.00017H10.5001ZM3.84989 3.15017C3.92024 3.07049 4.00096 3.00062 4.08989 2.94242C4.18231 2.88114 4.27822 2.82529 4.37714 2.77517C4.47714 2.72517 4.55514 2.68917 4.61114 2.66717C4.80501 2.59032 5.00368 2.52618 5.20589 2.47517C5.41489 2.42167 5.62889 2.37867 5.84789 2.34617C6.06614 2.31317 6.28439 2.28992 6.50114 2.27567C6.71789 2.26142 6.92564 2.25542 7.12514 2.25542C7.32464 2.25542 7.53239 2.26217 7.74914 2.27567C7.96589 2.28917 8.18339 2.31317 8.40239 2.34617C8.62139 2.37917 8.83514 2.42117 9.04439 2.47517C9.24656 2.52569 9.44523 2.58932 9.63914 2.66567C9.69764 2.68867 9.77564 2.72467 9.87314 2.77367C9.97205 2.82379 10.068 2.87964 10.1604 2.94092C10.2492 2.99932 10.3299 3.06917 10.4004 3.14867C10.4614 3.21107 10.4969 3.29396 10.5001 3.38117C10.5003 3.41128 10.4945 3.44112 10.4829 3.46892C10.47 3.49772 10.4542 3.52512 10.4356 3.55067C10.341 3.68397 10.2193 3.79588 10.0786 3.87917C9.9143 3.97831 9.74043 4.06073 9.55964 4.12517C9.35771 4.19795 9.15128 4.25757 8.94164 4.30367C8.72264 4.35317 8.50514 4.39142 8.28839 4.42142C8.07164 4.45142 7.86239 4.47167 7.66139 4.48517C7.46039 4.49867 7.28114 4.50617 7.12514 4.50617C6.96914 4.50617 6.78989 4.50017 6.58889 4.48517C6.38789 4.47017 6.17864 4.45067 5.96189 4.42142C5.74514 4.39217 5.52764 4.35017 5.30864 4.30367C5.09898 4.25767 4.89254 4.19805 4.69064 4.12517C4.5092 4.06056 4.3346 3.97816 4.16939 3.87917C4.02794 3.79774 3.90668 3.68545 3.81464 3.55067C3.79612 3.52512 3.78028 3.49772 3.76739 3.46892C3.75583 3.44112 3.74996 3.41128 3.75014 3.38117C3.7537 3.29449 3.78923 3.21219 3.84989 3.15017V3.15017Z" fill="#0078D4"/>
</g>
<defs>
<clipPath id="clip0">
<rect width="12" height="12" fill="white"/>
</clipPath>
</defs>
</svg>
