<svg width="128" height="128" viewBox="0 0 128 128" fill="none" xmlns="http://www.w3.org/2000/svg">
<path d="M122.755 48.0749C120.066 45.3853 116.584 43.6294 112.823 43.0652C109.061 42.5009 105.218 43.158 101.858 44.94L93.746 32.559C94.2713 32.1476 94.7733 31.7072 95.2496 31.2399C97.5707 28.9172 99.2027 25.9967 99.9645 22.8025C100.726 19.6084 100.588 16.2657 99.5647 13.1454C98.5416 10.0252 96.6738 7.2495 94.1686 5.12655C91.6635 3.00361 88.619 1.61645 85.3732 1.11907C82.1274 0.621688 78.8073 1.03355 75.7814 2.30894C72.7555 3.58432 70.1422 5.67333 68.2317 8.34404C66.3212 11.0148 65.1882 14.1627 64.9585 17.4383C64.7288 20.714 65.4114 23.9892 66.9305 26.9004L44.5997 41.3172L46.3584 44.0607L68.6936 29.6395C71.2657 32.9265 74.9145 35.2012 78.9982 36.0633C83.0819 36.9253 87.3388 36.3197 91.02 34.3528L99.1363 46.7383C95.5114 49.6155 93.154 53.795 92.5667 58.3855C91.9795 62.976 93.2088 67.6144 95.9927 71.3114L68.9662 95.8054C65.8733 92.9442 61.8643 91.2752 57.6547 91.0964C53.4451 90.9176 49.309 92.2406 45.9847 94.8293L24.9553 72.4326L22.5723 74.6705L43.6017 97.0673C41.3751 99.5816 39.9068 102.675 39.367 105.99C38.8271 109.305 39.2378 112.705 40.5515 115.796C41.8651 118.887 44.0279 121.542 46.7891 123.454C49.5503 125.365 52.7968 126.455 56.1523 126.597C59.5077 126.739 62.8346 125.927 65.7474 124.255C68.6601 122.584 71.0394 120.12 72.6093 117.152C74.1793 114.183 74.8756 110.83 74.6175 107.481C74.3595 104.132 73.1576 100.926 71.1513 98.2324L98.1866 73.734C101.608 76.8893 106.13 78.5764 110.782 78.4326C115.433 78.2888 119.843 76.3256 123.062 72.965C126.282 69.6044 128.054 65.1148 127.998 60.4612C127.943 55.8077 126.063 51.3618 122.764 48.0793L122.755 48.0749Z" fill="#808080" fill-opacity="0.25"/>
<path fill-rule="evenodd" clip-rule="evenodd" d="M55.4335 82.216H0V26.8L17.4329 10.4883H55.4335V82.216Z" fill="#F2F2F2"/>
<path fill-rule="evenodd" clip-rule="evenodd" d="M17.4329 26.8H0L17.4329 10.4883V26.8Z" fill="#808080" fill-opacity="0.15"/>
<path d="M47.5068 33.623H7.92773V37.435H47.5068V33.623Z" fill="#808080" fill-opacity="0.15"/>
<path d="M47.5068 40.7637H7.92773V44.5756H47.5068V40.7637Z" fill="#808080" fill-opacity="0.15"/>
<path d="M47.5068 47.9043H7.92773V51.7162H47.5068V47.9043Z" fill="#808080" fill-opacity="0.15"/>
<path d="M47.5068 55.043H7.92773V58.8549H47.5068V55.043Z" fill="#808080" fill-opacity="0.15"/>
<path d="M47.5068 61.8809H7.92773V65.6928H47.5068V61.8809Z" fill="#808080" fill-opacity="0.15"/>
<path d="M56.7433 56.0593C63.6818 49.1208 63.6818 37.8714 56.7433 30.9329C49.8048 23.9944 38.5554 23.9944 31.6169 30.9329C24.6784 37.8714 24.6784 49.1208 31.6169 56.0593C38.5554 62.9977 49.8048 62.9977 56.7433 56.0593Z" fill="#E6E6E6"/>
<path d="M57.0739 50.7266H27.9502C28.8351 52.7128 30.0781 54.5191 31.617 56.0554L31.7138 56.1477H56.6474L56.7441 56.0554C56.8585 55.941 56.964 55.8223 57.0739 55.708V50.7266Z" fill="#D2D2D2"/>
<path d="M57.0739 36.2571V31.2756C56.964 31.1613 56.8585 31.0426 56.7441 30.9283L56.6474 30.8359H31.7138L31.617 30.9283C30.0781 32.4645 28.8351 34.2708 27.9502 36.2571H57.0739Z" fill="#D2D2D2"/>
<path d="M57.0729 40.9961H26.5862C26.3338 42.7962 26.3575 44.6243 26.6566 46.4172H57.0729V40.9961Z" fill="#D2D2D2"/>
<path d="M66.7375 62.8126L60.0062 56.0812C63.2213 52.0385 64.7678 46.9189 64.3285 41.7723C63.8892 36.6257 61.4974 31.8422 57.6436 28.4029C53.7898 24.9636 48.7662 23.1291 43.603 23.2757C38.4397 23.4223 33.5283 25.5389 29.8759 29.1913C26.2234 32.8437 24.1069 37.7552 23.9603 42.9184C23.8137 48.0816 25.6482 53.1053 29.0875 56.959C32.5268 60.8128 37.3103 63.2046 42.4569 63.6439C47.6035 64.0832 52.7231 62.5367 56.7658 59.3216L63.4971 66.0529L66.7375 62.8126ZM32.8829 54.7974C30.6463 52.5612 29.123 49.7119 28.5057 46.6099C27.8885 43.5079 28.205 40.2925 29.4152 37.3704C30.6254 34.4483 32.675 31.9507 35.3047 30.1935C37.9345 28.4363 41.0262 27.4983 44.189 27.4983C47.3519 27.4983 50.4436 28.4363 53.0734 30.1935C55.7031 31.9507 57.7527 34.4483 58.9629 37.3704C60.1731 40.2925 60.4896 43.5079 59.8723 46.6099C59.2551 49.7119 57.7318 52.5612 55.4951 54.7974C54.0101 56.2833 52.2469 57.462 50.3062 58.2662C48.3655 59.0704 46.2854 59.4843 44.1846 59.4843C42.0839 59.4843 40.0038 59.0704 38.0631 58.2662C36.1224 57.462 34.3592 56.2833 32.8741 54.7974H32.8829Z" fill="#A6A6A6"/>
<path d="M78.5765 82.692L83.3798 77.8887C83.7919 77.4766 83.7919 76.8085 83.3798 76.3964L66.3087 59.3253C65.8966 58.9132 65.2285 58.9132 64.8164 59.3253L60.0131 64.1286C59.601 64.5407 59.601 65.2088 60.0131 65.6209L77.0842 82.692C77.4963 83.1041 78.1644 83.1041 78.5765 82.692Z" fill="#A6A6A6"/>
<path d="M41.9916 38.9331C43.6331 37.2916 43.6331 34.6303 41.9916 32.9888C40.3501 31.3473 37.6888 31.3473 36.0473 32.9888C34.4059 34.6303 34.4059 37.2916 36.0473 38.9331C37.6888 40.5745 40.3501 40.5745 41.9916 38.9331Z" fill="white"/>
<path d="M60.0152 64.1311L62.4158 61.7305L79.0661 78.3808C79.107 78.4226 79.1559 78.4559 79.2099 78.4786C79.2639 78.5013 79.3219 78.513 79.3804 78.513C79.439 78.513 79.497 78.5013 79.551 78.4786C79.605 78.4559 79.6539 78.4226 79.6948 78.3808L82.5263 75.5493L83.4276 76.4506C83.6112 76.6352 83.7143 76.8849 83.7143 77.1453C83.7143 77.4056 83.6112 77.6554 83.4276 77.84L78.5253 82.7423C78.3407 82.9259 78.091 83.029 77.8306 83.029C77.5702 83.029 77.3205 82.9259 77.1359 82.7423L60.0152 65.6215C59.8179 65.4237 59.707 65.1557 59.707 64.8763C59.707 64.5969 59.8179 64.3289 60.0152 64.1311Z" fill="#808080" fill-opacity="0.25"/>
<path d="M82.6671 18.6523L70.6201 23.1853C71.3799 25.1996 72.6326 26.9913 74.2636 28.3965C75.8946 29.8018 77.8518 30.7757 79.9564 31.2292C82.0609 31.6827 84.2456 31.6014 86.3106 30.9927C88.3756 30.384 90.255 29.2673 91.777 27.7447L82.6671 18.6523Z" fill="#A6A6A6"/>
<path d="M73.5614 9.5293C72.3638 10.7237 71.414 12.143 70.7667 13.7056C70.1193 15.2683 69.787 16.9434 69.7891 18.6348H82.667L73.5614 9.5293Z" fill="#808080" fill-opacity="0.25"/>
<path d="M69.7891 18.6523C69.7891 20.2008 70.0691 21.7365 70.6156 23.1853L82.667 18.6523H69.7891Z" fill="#F2F2F2"/>
<path d="M91.7726 27.7446C94.1455 25.321 95.4665 22.0591 95.4485 18.6673C95.4306 15.2755 94.0753 12.0277 91.6769 9.62928C89.2785 7.23087 86.0307 5.87553 82.6389 5.8576C79.2471 5.83967 75.9851 7.1606 73.5615 9.53351L82.6671 18.6523L91.7726 27.7446Z" fill="#F2F2F2"/>
<path d="M105.415 62.5938H100.711V69.114H105.415V62.5938Z" fill="#A6A6A6"/>
<path d="M112.542 55.3125H107.838V69.1137H112.542V55.3125Z" fill="#A6A6A6"/>
<path d="M119.673 49.332H114.969V69.1128H119.673V49.332Z" fill="#A6A6A6"/>
<path d="M67.0313 113.93H47.0527V117.051H67.0313V113.93Z" fill="#A6A6A6"/>
<path d="M67.0313 109.832H47.0527V112.941H67.0313V109.832Z" fill="#A6A6A6"/>
<path d="M67.0313 101.641H47.0527V104.762H67.0313V101.641Z" fill="#A6A6A6"/>
<path d="M67.0313 105.738H47.0527V108.847H67.0313V105.738Z" fill="#A6A6A6"/>
<path d="M65.7255 104.986L61.6058 106.09L62.6126 107.092L60.0098 109.7L57.0728 106.763L52.0738 111.766L49.7215 109.414L47.0527 112.087V114.101L49.7215 111.432L52.0738 113.78L57.0728 108.781L60.0098 111.713L63.6195 108.104L64.6219 109.106L65.7255 104.986Z" fill="#F2F2F2"/>
</svg>
