<svg width="16" height="16" viewBox="0 0 16 16" fill="none" xmlns="http://www.w3.org/2000/svg">
<path d="M6.16423 4.37857C3.25045 4.37857 0.888672 3.55546 0.888672 2.46924V12.6417C0.888672 13.687 3.20956 14.535 6.09045 14.551H6.16423C9.078 14.551 11.4398 13.7279 11.4398 12.6417V2.46924C11.4398 3.53057 9.078 4.37857 6.16423 4.37857Z" fill="url(#paint0_linear)"/>
<path d="M11.4398 2.46939C11.4398 3.53073 9.078 4.37873 6.16423 4.37873C3.25045 4.37873 0.888672 3.55561 0.888672 2.46939C0.888672 1.38317 3.25045 0.560059 6.16423 0.560059C9.078 0.560059 11.4398 1.38317 11.4398 2.46939Z" fill="#E8E8E8"/>
<path d="M10.2135 2.31103C10.2135 2.98569 8.39483 3.52881 6.16461 3.52881C3.93439 3.52881 2.11572 2.98747 2.11572 2.31103C2.11572 1.63458 3.93439 1.10303 6.16461 1.10303C8.39483 1.10303 10.2135 1.64614 10.2135 2.31103Z" fill="#50E6FF"/>
<path d="M6.16436 2.61779C5.07876 2.5899 3.99641 2.74835 2.96436 3.08624C3.99729 3.41834 5.08001 3.56872 6.16436 3.53068C7.25087 3.56234 8.33438 3.40072 9.36435 3.05335C8.32935 2.73113 7.24783 2.58392 6.16436 2.61779V2.61779Z" fill="#198AB3"/>
<path d="M14.7901 15.44H6.81415C6.56259 15.44 6.40881 15.0347 6.55459 14.824L9.30303 10.7707C9.32559 10.7284 9.33662 10.6809 9.33503 10.6329V7.98226C9.33578 7.94436 9.3232 7.9074 9.29948 7.87784C9.27576 7.84827 9.24241 7.82797 9.20526 7.82048H9.05148C8.96755 7.82048 8.88706 7.78714 8.82772 7.72779C8.76837 7.66845 8.73503 7.58796 8.73503 7.50403V7.36626C8.73713 7.28381 8.77141 7.20545 8.83056 7.14797C8.8897 7.09048 8.969 7.05844 9.05148 7.0587H12.5777C12.6181 7.05764 12.6583 7.06454 12.696 7.07902C12.7337 7.0935 12.7682 7.11527 12.7975 7.14309C12.8269 7.17091 12.8504 7.20423 12.8668 7.24115C12.8832 7.27807 12.8922 7.31786 12.8933 7.35826V7.51203C12.8933 7.59384 12.8608 7.67229 12.8029 7.73014C12.7451 7.78798 12.6666 7.82048 12.5848 7.82048H12.407C12.3655 7.82043 12.3255 7.83637 12.2954 7.865C12.2653 7.89363 12.2473 7.93275 12.2453 7.97426V10.6329C12.247 10.6964 12.2667 10.758 12.3021 10.8107L15.0577 14.8107C15.1999 15.0347 15.0497 15.44 14.7901 15.44Z" fill="url(#paint1_linear)"/>
<path d="M7.86764 14.305L9.86675 11.3956C9.95289 11.2749 9.99834 11.1298 9.99653 10.9814V9.76543C9.99653 9.70319 10.0212 9.6435 10.0653 9.59949C10.1093 9.55549 10.169 9.53076 10.2312 9.53076H11.3663C11.3961 9.53076 11.4255 9.53662 11.453 9.54802C11.4805 9.55941 11.5055 9.5761 11.5266 9.59715C11.5476 9.6182 11.5643 9.64319 11.5757 9.67069C11.5871 9.69819 11.593 9.72766 11.593 9.75743V11.0632C11.5936 11.162 11.6246 11.2582 11.6819 11.3388L13.7263 14.305C13.7542 14.3404 13.767 14.3854 13.7619 14.4302C13.7567 14.475 13.734 14.516 13.6987 14.5441C13.6654 14.5708 13.6231 14.5839 13.5805 14.5805H8.00541C7.98285 14.5815 7.96033 14.578 7.93914 14.5701C7.91796 14.5623 7.89853 14.5504 7.882 14.535C7.86546 14.5196 7.85214 14.5011 7.84281 14.4805C7.83348 14.46 7.82832 14.4378 7.82764 14.4152C7.82812 14.375 7.84222 14.3361 7.86764 14.305V14.305Z" fill="white"/>
<defs>
<linearGradient id="paint0_linear" x1="0.888672" y1="8.51013" x2="11.4398" y2="8.51013" gradientUnits="userSpaceOnUse">
<stop stop-color="#005BA1"/>
<stop offset="0.07" stop-color="#0060A9"/>
<stop offset="0.36" stop-color="#0071C8"/>
<stop offset="0.52" stop-color="#0078D4"/>
<stop offset="0.64" stop-color="#0074CD"/>
<stop offset="0.82" stop-color="#006ABB"/>
<stop offset="1" stop-color="#005BA1"/>
</linearGradient>
<linearGradient id="paint1_linear" x1="10.7208" y1="7.0907" x2="10.8097" y2="15.5049" gradientUnits="userSpaceOnUse">
<stop stop-color="#32D4F5"/>
<stop offset="0.32" stop-color="#31D1F3"/>
<stop offset="0.53" stop-color="#2EC9EB"/>
<stop offset="0.7" stop-color="#29BADE"/>
<stop offset="0.86" stop-color="#22A5CB"/>
<stop offset="1" stop-color="#198AB3"/>
</linearGradient>
</defs>
</svg>
