<svg width="100" height="100" viewBox="0 0 100 100" fill="none" xmlns="http://www.w3.org/2000/svg">
<path d="M54.768 11.1816H20.489C19.7681 11.1816 19.0768 11.468 18.5671 11.9777C18.0574 12.4874 17.771 13.1788 17.771 13.8996V87.3196C17.7713 88.0403 18.0577 88.7314 18.5674 89.2409C19.0771 89.7504 19.7683 90.0366 20.489 90.0366H79.511C79.8678 90.0368 80.2212 89.9666 80.5509 89.8301C80.8806 89.6936 81.1802 89.4935 81.4325 89.2411C81.6848 88.9888 81.8849 88.6893 82.0214 88.3596C82.1579 88.0298 82.2281 87.6765 82.228 87.3196V38.7386C82.2281 38.3818 82.158 38.0283 82.0215 37.6986C81.885 37.3688 81.6849 37.0692 81.4326 36.8168C81.1802 36.5644 80.8807 36.3642 80.551 36.2276C80.2213 36.091 79.8679 36.0206 79.511 36.0206H59.916C59.5654 36.0206 59.2183 35.9516 58.8944 35.8174C58.5705 35.6832 58.2762 35.4865 58.0284 35.2386C57.7805 34.9906 57.5839 34.6963 57.4499 34.3723C57.3158 34.0484 57.2469 33.7012 57.247 33.3506V13.8996C57.2608 13.2152 57.0113 12.5516 56.55 12.0458C56.0887 11.5401 55.4508 11.2307 54.768 11.1816Z" fill="white"/>
<path d="M53.29 14.6147V33.0647C53.29 34.86 54.0031 36.5819 55.2725 37.8515C56.5419 39.1211 58.2636 39.8344 60.059 39.8347H78.605V86.6047H21.4V14.6147H53.337H53.29ZM54.768 10.6097H20.06C19.3401 10.5985 18.6452 10.8733 18.1278 11.3739C17.6103 11.8744 17.3126 12.5599 17.3 13.2797V87.8917C17.2999 88.2486 17.37 88.602 17.5065 88.9318C17.643 89.2615 17.8431 89.5612 18.0954 89.8136C18.3477 90.066 18.6473 90.2662 18.977 90.4028C19.3067 90.5394 19.6601 90.6097 20.017 90.6097H79.94C80.2968 90.6162 80.6515 90.5523 80.9836 90.4216C81.3157 90.291 81.6189 90.0962 81.8757 89.8483C82.1325 89.6004 82.3379 89.3044 82.4802 88.977C82.6225 88.6497 82.6989 88.2976 82.705 87.9407V38.5477C82.7051 38.1908 82.6349 37.8374 82.4985 37.5076C82.362 37.1779 82.1619 36.8783 81.9096 36.6259C81.6572 36.3734 81.3577 36.1732 81.028 36.0366C80.6983 35.9 80.3449 35.8297 79.988 35.8297H60.059C59.3383 35.8294 58.6472 35.543 58.1377 35.0333C57.6282 34.5236 57.342 33.8324 57.342 33.1117V13.3277C57.343 12.6311 57.0765 11.9607 56.5975 11.455C56.1185 10.9492 55.4636 10.6466 54.768 10.6097Z" fill="url(#paint0_linear)"/>
<path d="M81.656 36.3066L56.388 11.1816V31.5396C56.3883 32.804 56.8907 34.0165 57.7849 34.9105C58.679 35.8044 59.8916 36.3066 61.156 36.3066H81.656Z" fill="#32BEDD"/>
<path d="M37.81 59.5107L49.023 48.2987C49.2742 48.0462 49.6154 47.9037 49.9716 47.9024C50.3277 47.901 50.6699 48.0411 50.923 48.2917L50.93 48.2987L62.191 59.5537C62.2781 59.6388 62.3377 59.748 62.362 59.8673C62.3864 59.9866 62.3743 60.1105 62.3275 60.2229C62.2806 60.3352 62.2011 60.431 62.0992 60.4976C61.9973 60.5643 61.8777 60.5988 61.756 60.5967H54.846C54.772 60.591 54.6976 60.5999 54.627 60.6229C54.5565 60.646 54.4911 60.6827 54.4348 60.731C54.3784 60.7793 54.3321 60.8382 54.2985 60.9044C54.2649 60.9706 54.2447 61.0427 54.239 61.1167C54.239 61.1317 54.239 61.1467 54.239 61.1617V75.2427C54.239 75.3695 54.1886 75.4911 54.099 75.5807C54.0094 75.6704 53.8878 75.7207 53.761 75.7207H46.2C46.0732 75.7207 45.9516 75.6704 45.862 75.5807C45.7724 75.4911 45.722 75.3695 45.722 75.2427V61.3357C45.7831 61.1989 45.7874 61.0434 45.734 60.9033C45.6805 60.7633 45.5737 60.6501 45.437 60.5887C45.4029 60.5736 45.3674 60.5619 45.331 60.5537H38.2C38.0822 60.5469 37.9689 60.506 37.874 60.4361C37.779 60.3661 37.7064 60.27 37.6649 60.1595C37.6235 60.0491 37.6151 59.9289 37.6407 59.8138C37.6662 59.6986 37.7247 59.5933 37.809 59.5107H37.81Z" fill="url(#paint1_linear)"/>
<defs>
<linearGradient id="paint0_linear" x1="50" y1="90.6097" x2="50" y2="10.6097" gradientUnits="userSpaceOnUse">
<stop offset="0.31" stop-color="#32BEDD"/>
<stop offset="0.688" stop-color="#47D7F5"/>
<stop offset="1" stop-color="#50E6FF"/>
</linearGradient>
<linearGradient id="paint1_linear" x1="37.6262" y1="2154.37" x2="1339.21" y2="1510.07" gradientUnits="userSpaceOnUse">
<stop offset="0.31" stop-color="#32BEDD"/>
<stop offset="0.688" stop-color="#47D7F5"/>
<stop offset="1" stop-color="#50E6FF"/>
</linearGradient>
</defs>
</svg>
