<svg width="100" height="100" viewBox="0 0 100 100" fill="none" xmlns="http://www.w3.org/2000/svg">
<path d="M69.773 90.0001C68.0112 90.0048 66.2781 89.553 64.7428 88.6889C63.2074 87.8247 61.9221 86.5776 61.012 85.0691H39.09C38.1798 86.5778 36.8943 87.825 35.3587 88.6891C33.8232 89.5533 32.09 90.0049 30.328 90.0001C28.9667 90.0087 27.6182 89.7364 26.367 89.2001C25.154 88.6728 24.047 87.9294 23.1 87.0061C22.1523 86.0868 21.4035 84.9826 20.9 83.7621C20.3866 82.4951 20.1152 81.143 20.1 79.7761C20.0974 78.6738 20.273 77.5783 20.62 76.5321C20.9533 75.5419 21.4395 74.6099 22.061 73.7701L13.34 47.5701C12.3661 46.6774 11.595 45.5862 11.079 44.3701C10.5219 43.0966 10.2358 41.7211 10.239 40.3311C10.23 38.97 10.5023 37.6218 11.039 36.3711C11.5665 35.1573 12.3098 34.0493 13.233 33.1011C14.152 32.153 15.2562 31.4042 16.477 30.9011C17.7435 30.3873 19.0953 30.1159 20.462 30.1011C21.0231 30.1011 21.5835 30.1409 22.139 30.2201L39.832 21.3201C39.826 21.2371 39.823 20.6091 39.823 20.6091C39.814 19.2477 40.0864 17.8992 40.623 16.6481C41.1495 15.4343 41.8927 14.3266 42.816 13.3791C43.7351 12.4312 44.8393 11.6823 46.06 11.1791C47.3268 10.6649 48.6789 10.3935 50.046 10.3791C51.3972 10.3715 52.7353 10.6439 53.976 11.1791C55.1811 11.7007 56.286 12.4286 57.241 13.3301C58.2059 14.2444 58.9701 15.3495 59.485 16.5751C60.0133 17.813 60.2979 19.1413 60.323 20.4871V20.9951C60.3226 21.107 60.3132 21.2187 60.295 21.3291L78.184 30.2551C78.6587 30.1356 79.1478 30.0838 79.637 30.1011C80.9987 30.0918 82.3476 30.3642 83.599 30.9011C84.8125 31.4274 85.92 32.1705 86.867 33.0941C87.8154 34.0128 88.5643 35.1171 89.067 36.3381C89.5815 37.6047 89.8529 38.957 89.867 40.3241C89.8787 42.1713 89.3804 43.9859 88.427 45.5681C87.5033 47.1101 86.1873 48.3796 84.613 49.2471L77.962 73.6471C79.0315 75.0732 79.7086 76.7546 79.9258 78.524C80.143 80.2933 79.8928 82.0886 79.2 83.7311C78.6747 84.9448 77.9326 86.0525 77.01 87.0001C76.0912 87.9484 74.9869 88.6973 73.766 89.2001C72.4988 89.7127 71.1469 89.984 69.78 90.0001H69.773ZM69.787 75.2081C69.1731 75.2011 68.5646 75.322 68 75.5631C67.4679 75.7914 66.9835 76.1177 66.572 76.5251C66.1544 76.9529 65.8159 77.4512 65.572 77.9971C65.3181 78.5472 65.1979 79.1496 65.221 79.7551C65.214 80.3708 65.3349 80.9814 65.576 81.5481C65.8049 82.0798 66.1315 82.5638 66.539 82.9751C66.9663 83.3928 67.4643 83.7314 68.01 83.9751C68.5143 84.2072 69.0628 84.3279 69.618 84.3291C70.2836 84.3479 70.9458 84.2259 71.561 83.9711C72.0929 83.743 72.5771 83.4166 72.988 83.0091C73.4065 82.582 73.7452 82.0835 73.988 81.5371C74.2434 80.9877 74.3641 80.3854 74.34 79.7801C74.3478 79.1642 74.2269 78.5535 73.985 77.9871C73.758 77.4548 73.4315 76.9708 73.023 76.5611C72.5964 76.1419 72.0978 75.8032 71.551 75.5611C71.0497 75.3281 70.5038 75.2067 69.951 75.2051V74.8361L69.787 75.2081ZM30.342 75.2081C29.7265 75.2004 29.1161 75.3213 28.55 75.5631C28.0179 75.7914 27.5335 76.1177 27.122 76.5251C26.7044 76.9529 26.3659 77.4512 26.122 77.9971C25.8681 78.5472 25.7479 79.1496 25.771 79.7551C25.764 80.3708 25.8849 80.9814 26.126 81.5481C26.3549 82.0798 26.6815 82.5638 27.089 82.9751C27.5163 83.3928 28.0143 83.7314 28.56 83.9751C29.0643 84.2072 29.6128 84.3279 30.168 84.3291C30.8336 84.3479 31.4958 84.2259 32.111 83.9711C32.6428 83.7432 33.1266 83.4168 33.537 83.0091C33.9558 82.5823 34.2945 82.0837 34.537 81.5371C34.7924 80.9877 34.9131 80.3854 34.889 79.7801C34.8968 79.1642 34.7759 78.5535 34.534 77.9871C34.307 77.4548 33.9805 76.9708 33.572 76.5611C33.1454 76.1419 32.6468 75.8032 32.1 75.5611C31.5986 75.3281 31.0528 75.2067 30.5 75.2051V74.8361L30.342 75.2081ZM59.565 79.4001L59.607 78.7511L44.307 67.2891L37.454 72.4371C38.3998 73.3216 39.1558 74.3892 39.676 75.5751C40.209 76.7825 40.5054 78.081 40.549 79.4001H59.565ZM61.811 73.3271C62.7335 72.2014 63.8793 71.279 65.176 70.6181C66.6015 69.8971 68.1786 69.5269 69.776 69.5381C70.8955 69.5388 72.0073 69.7219 73.068 70.0801L78.397 50.4671C77.1099 50.2986 75.8647 49.8956 74.723 49.2781C73.5554 48.6442 72.5206 47.7917 71.675 46.7671L49.012 63.7451L61.811 73.3271ZM26.821 70.1611C27.9463 69.7563 29.1321 69.5456 30.328 69.5381C30.7964 69.5388 31.2642 69.5723 31.728 69.6381L39.57 63.7481L21.881 50.4661C21.6809 50.5007 21.4781 50.5174 21.275 50.5161C21.0448 50.5148 20.8147 50.5272 20.586 50.5531H20.298L26.821 70.1611ZM44.311 60.2011L69.468 41.3431L69.426 40.6941H30.691C30.6479 42.0128 30.3519 43.311 29.819 44.5181C29.2997 45.7037 28.5447 46.7713 27.6 47.6561L44.311 60.2011ZM79.649 35.7631C79.0331 35.7554 78.4225 35.8763 77.856 36.1181C77.3242 36.3464 76.8401 36.6727 76.429 37.0801C76.0108 37.5074 75.6721 38.0058 75.429 38.5521C75.1744 39.102 75.0537 39.7045 75.077 40.3101C75.07 40.9258 75.1909 41.5364 75.432 42.1031C75.6609 42.6348 75.9875 43.1188 76.395 43.5301C76.8223 43.9478 77.3203 44.2864 77.866 44.5301C78.3703 44.7622 78.9188 44.8829 79.474 44.8841C80.1396 44.903 80.8018 44.781 81.417 44.5261C81.9491 44.2983 82.4332 43.9718 82.844 43.5641C83.2625 43.137 83.6012 42.6385 83.844 42.0921C84.0987 41.5425 84.219 40.9403 84.195 40.3351C84.2028 39.7192 84.0819 39.1085 83.84 38.5421C83.613 38.0098 83.2865 37.5258 82.878 37.1161C82.4514 36.6969 81.9528 36.3582 81.406 36.1161C80.9046 35.8831 80.3588 35.7617 79.806 35.7601V35.3901L79.649 35.7631ZM18.288 44.3251C18.9568 44.6892 19.7055 44.8816 20.467 44.8851C21.0781 44.8908 21.6839 44.77 22.246 44.5301C22.7776 44.3019 23.2614 43.9755 23.672 43.5681C24.0908 43.1413 24.4295 42.6427 24.672 42.0961C24.9274 41.5467 25.0481 40.9444 25.024 40.3391C25.0313 39.7232 24.9104 39.1126 24.669 38.5461C24.4417 38.014 24.1152 37.5301 23.707 37.1201C23.2803 36.7012 22.7816 36.3624 22.235 36.1201C21.7336 35.8873 21.1878 35.7658 20.635 35.7641C19.9676 35.745 19.3037 35.8673 18.687 36.1231C18.1547 36.3511 17.6703 36.6775 17.259 37.0851C16.8414 37.5129 16.5029 38.0112 16.259 38.5571C16.0053 39.1073 15.8847 39.7096 15.907 40.3151C15.9041 41.093 16.1007 41.8587 16.478 42.5391C16.8 43.1245 17.2523 43.6282 17.8 44.0111L17.849 43.9621L18.187 44.2231L18.288 44.3251ZM70.871 35.0251C71.0577 34.7139 71.2616 34.4134 71.482 34.1251C71.648 33.9101 71.824 33.6991 72.011 33.4951L58.3 26.6601C57.4002 27.912 56.2156 28.9321 54.844 29.6361C53.3637 30.4038 51.7244 30.8148 50.057 30.8361C48.4008 30.8383 46.7687 30.4396 45.3 29.6741C43.9122 28.9591 42.7129 27.9264 41.8 26.6601L28.074 33.5061C28.248 33.7061 28.416 33.9151 28.58 34.1281C28.803 34.4161 29.015 34.7161 29.219 35.0281L70.871 35.0251ZM50.065 16.0411C49.4491 16.0335 48.8385 16.1544 48.272 16.3961C47.7404 16.6244 47.2564 16.9503 46.845 17.3571C46.4271 17.785 46.0885 18.2837 45.845 18.8301C45.5905 19.3797 45.4698 19.9818 45.493 20.5871C45.4859 21.2032 45.6068 21.8141 45.848 22.3811C46.0776 22.9121 46.4042 23.3957 46.811 23.8071C47.2384 24.2247 47.7364 24.5633 48.282 24.8071C48.7865 25.0397 49.3354 25.1604 49.891 25.1611C50.5566 25.1802 51.2187 25.0585 51.834 24.8041C52.3654 24.5756 52.8492 24.2493 53.26 23.8421C53.6781 23.4146 54.0167 22.9162 54.26 22.3701C54.5155 21.8204 54.6359 21.2177 54.611 20.6121C54.6189 19.9965 54.4979 19.3861 54.256 18.8201C54.0301 18.2905 53.7057 17.8086 53.3 17.4001C52.8726 16.9815 52.3737 16.6428 51.827 16.4001C51.3256 16.1675 50.7797 16.0463 50.227 16.0451V15.6751L50.065 16.0411Z" fill="#9CEBFF"/>
<path d="M50.0502 30.8416C55.6631 30.8416 60.2132 26.2637 60.2132 20.6166C60.2132 14.9695 55.6631 10.3916 50.0502 10.3916C44.4373 10.3916 39.8872 14.9695 39.8872 20.6166C39.8872 26.2637 44.4373 30.8416 50.0502 30.8416Z" fill="url(#paint0_linear)"/>
<path d="M79.5279 50.7219C85.2369 50.7219 89.8649 46.0656 89.8649 40.3219C89.8649 34.5781 85.2369 29.9219 79.5279 29.9219C73.8189 29.9219 69.1909 34.5781 69.1909 40.3219C69.1909 46.0656 73.8189 50.7219 79.5279 50.7219Z" fill="url(#paint1_linear)"/>
<path d="M20.4672 50.3719C26.0801 50.3719 30.6302 45.794 30.6302 40.1469C30.6302 34.4998 26.0801 29.9219 20.4672 29.9219C14.8543 29.9219 10.3042 34.4998 10.3042 40.1469C10.3042 45.794 14.8543 50.3719 20.4672 50.3719Z" fill="url(#paint2_linear)"/>
<path d="M69.7729 89.9998C75.3857 89.9998 79.9359 85.4219 79.9359 79.7748C79.9359 74.1277 75.3857 69.5498 69.7729 69.5498C64.16 69.5498 59.6099 74.1277 59.6099 79.7748C59.6099 85.4219 64.16 89.9998 69.7729 89.9998Z" fill="url(#paint3_linear)"/>
<path d="M30.328 89.9998C35.9409 89.9998 40.491 85.4219 40.491 79.7748C40.491 74.1277 35.9409 69.5498 30.328 69.5498C24.7152 69.5498 20.165 74.1277 20.165 79.7748C20.165 85.4219 24.7152 89.9998 30.328 89.9998Z" fill="url(#paint4_linear)"/>
<defs>
<linearGradient id="paint0_linear" x1="50.0502" y1="35.2446" x2="50.0502" y2="9.2726" gradientUnits="userSpaceOnUse">
<stop offset="0.31" stop-color="#32BEDD"/>
<stop offset="0.688" stop-color="#47D7F5"/>
<stop offset="1" stop-color="#50E6FF"/>
</linearGradient>
<linearGradient id="paint1_linear" x1="1713.35" y1="14897.7" x2="1713.35" y2="15447.2" gradientUnits="userSpaceOnUse">
<stop offset="0.31" stop-color="#32BEDD"/>
<stop offset="0.688" stop-color="#47D7F5"/>
<stop offset="1" stop-color="#50E6FF"/>
</linearGradient>
<linearGradient id="paint2_linear" x1="426.316" y1="14656.3" x2="426.316" y2="15187.4" gradientUnits="userSpaceOnUse">
<stop offset="0.31" stop-color="#32BEDD"/>
<stop offset="0.688" stop-color="#47D7F5"/>
<stop offset="1" stop-color="#50E6FF"/>
</linearGradient>
<linearGradient id="paint3_linear" x1="1477.82" y1="13885.5" x2="1477.82" y2="14416.6" gradientUnits="userSpaceOnUse">
<stop offset="0.31" stop-color="#32BEDD"/>
<stop offset="0.688" stop-color="#47D7F5"/>
<stop offset="1" stop-color="#50E6FF"/>
</linearGradient>
<linearGradient id="paint4_linear" x1="636.612" y1="13885.5" x2="636.612" y2="14416.6" gradientUnits="userSpaceOnUse">
<stop offset="0.31" stop-color="#32BEDD"/>
<stop offset="0.688" stop-color="#47D7F5"/>
<stop offset="1" stop-color="#50E6FF"/>
</linearGradient>
</defs>
</svg>
