<svg width="16" height="16" viewBox="0 0 16 16" fill="none" xmlns="http://www.w3.org/2000/svg">
<g clip-path="url(#clip0)">
<path d="M14 13H16V14H14V16H13V14H11V13H13V11H14V13Z" fill="#0078D4"/>
<path d="M10.0001 14H6.00006C6.00106 13.7176 5.94244 13.4382 5.82806 13.18C5.71512 12.9207 5.54404 12.6907 5.32806 12.508L6.83606 11.375L10.0001 13.746V12.5L7.66406 10.75L12.4001 7.20004C12.573 7.42532 12.7914 7.6117 13.0411 7.74704C13.2885 7.88129 13.5607 7.96363 13.8411 7.98904L13.3001 10H14.3361L14.9471 7.75804C15.2674 7.58834 15.535 7.33414 15.7211 7.02304C15.9066 6.71427 16.0031 6.36024 16.0001 6.00004C15.9978 5.7322 15.9448 5.46721 15.8441 5.21904C15.7462 4.98049 15.5998 4.76492 15.4141 4.58604C15.2285 4.40476 15.0112 4.25902 14.7731 4.15604C14.529 4.05103 14.2658 3.99791 14.0001 4.00004C13.8903 4.00023 13.7807 4.00792 13.6721 4.02304L9.99206 2.18704C10.0021 2.15155 10.0074 2.11491 10.0081 2.07804V1.97804C10.0034 1.71451 9.9477 1.45438 9.84406 1.21204C9.7441 0.972346 9.59488 0.756343 9.40606 0.578038C9.21907 0.401 9.00245 0.258165 8.76606 0.156038C8.5243 0.0515055 8.26345 -0.00161869 8.00006 3.75688e-05C7.73222 0.00232774 7.46723 0.0552581 7.21906 0.156038C6.98051 0.253896 6.76494 0.400335 6.58606 0.586038C6.40478 0.771648 6.25904 0.988902 6.15606 1.22704C6.05105 1.47111 5.99793 1.73434 6.00006 2.00004V2.09404C6.00024 2.1252 6.00292 2.1563 6.00806 2.18704L2.32806 4.02304C2.21938 4.00792 2.10979 4.00023 2.00006 4.00004C1.73222 4.00233 1.46723 4.05526 1.21906 4.15604C0.980511 4.2539 0.76494 4.40033 0.586062 4.58604C0.404782 4.77165 0.259043 4.9889 0.156062 5.22704C0.0510536 5.47111 -0.00207024 5.73434 6.17182e-05 6.00004C-0.000687486 6.27158 0.0551668 6.54029 0.164062 6.78904C0.271531 7.03677 0.428394 7.25999 0.625062 7.44504L2.40606 12.8C2.27498 12.972 2.17358 13.1646 2.10606 13.37C2.03686 13.5729 2.00106 13.7857 2.00006 14C2.00235 14.2679 2.05528 14.5329 2.15606 14.781C2.25392 15.0196 2.40036 15.2352 2.58606 15.414C2.77167 15.5953 2.98893 15.7411 3.22706 15.844C3.47113 15.949 3.73437 16.0022 4.00006 16C4.35147 16.0004 4.69676 15.9081 5.00117 15.7326C5.30558 15.557 5.55836 15.3044 5.73406 15H10.0001V14ZM13.0781 5.60904C13.1312 5.49004 13.2054 5.38163 13.2971 5.28904C13.3867 5.19946 13.4926 5.12784 13.6091 5.07804C13.7326 5.0253 13.8657 4.99874 14.0001 5.00004C14.1347 4.9949 14.2687 5.02162 14.3911 5.07804C14.5101 5.13115 14.6185 5.20535 14.7111 5.29704C14.8003 5.3869 14.8719 5.49274 14.9221 5.60904C14.9748 5.73258 15.0014 5.86571 15.0001 6.00004C15.0052 6.13469 14.9785 6.26866 14.9221 6.39104C14.8689 6.51003 14.7948 6.61844 14.7031 6.71104C14.6132 6.80029 14.5074 6.87187 14.3911 6.92204C14.2675 6.97478 14.1344 7.00133 14.0001 7.00004C13.8654 7.00518 13.7314 6.97845 13.6091 6.92204C13.4901 6.86892 13.3817 6.79473 13.2891 6.70304C13.1998 6.61317 13.1282 6.50734 13.0781 6.39104C13.0253 6.26749 12.9988 6.13436 13.0001 6.00004C12.9949 5.86538 13.0216 5.73141 13.0781 5.60904V5.60904ZM7.07806 1.60904C7.13118 1.49004 7.20537 1.38163 7.29706 1.28904C7.38666 1.19946 7.49256 1.12784 7.60906 1.07804C7.73261 1.0253 7.86574 0.99874 8.00006 1.00004C8.13472 0.994899 8.26868 1.02162 8.39106 1.07804C8.51006 1.13115 8.61847 1.20535 8.71106 1.29704C8.80032 1.3869 8.87189 1.49274 8.92206 1.60904C8.9748 1.73258 9.00136 1.86571 9.00006 2.00004C9.0052 2.13469 8.97848 2.26866 8.92206 2.39104C8.86895 2.51003 8.79475 2.61844 8.70306 2.71104C8.6132 2.80029 8.50736 2.87187 8.39106 2.92204C8.26752 2.97478 8.13438 3.00133 8.00006 3.00004C7.86541 3.00518 7.73144 2.97845 7.60906 2.92204C7.49007 2.86892 7.38166 2.79473 7.28906 2.70304C7.19981 2.61317 7.12823 2.50734 7.07806 2.39104C7.02532 2.26749 6.99876 2.13436 7.00006 2.00004C6.99492 1.86538 7.02165 1.73141 7.07806 1.60904V1.60904ZM6.35206 3.13304C6.53348 3.4036 6.7805 3.62379 7.07006 3.77304C7.35711 3.92287 7.67626 4.00077 8.00006 4.00004C8.32675 3.99664 8.64806 3.91648 8.93806 3.76604C9.2248 3.61898 9.4692 3.40109 9.64806 3.13304L12.5781 4.59404C12.5165 4.65517 12.459 4.72032 12.4061 4.78904C12.3545 4.85599 12.3077 4.92649 12.2661 5.00004H3.73406C3.68806 4.92704 3.63406 4.85704 3.58606 4.78904C3.53806 4.72104 3.47906 4.65604 3.42206 4.59404L6.35206 3.13304ZM3.82806 6.82004C3.94245 6.56185 4.00106 6.28243 4.00006 6.00004H12.0001L12.0161 6.24204L6.83606 10.125L3.32806 7.49204C3.54404 7.30933 3.71512 7.07941 3.82806 6.82004V6.82004ZM1.47706 6.83604L1.46906 6.84404C1.32449 6.75668 1.20576 6.63243 1.12506 6.48404C1.04264 6.33607 0.999596 6.16941 1.00006 6.00004C0.994923 5.86538 1.02165 5.73141 1.07806 5.60904C1.13118 5.49004 1.20537 5.38163 1.29706 5.28904C1.38666 5.19946 1.49256 5.12784 1.60906 5.07804C1.73261 5.0253 1.86574 4.99874 2.00006 5.00004C2.13472 4.9949 2.26868 5.02162 2.39106 5.07804C2.51006 5.13115 2.61847 5.20535 2.71106 5.29704C2.80032 5.3869 2.87189 5.49274 2.92206 5.60904C2.9748 5.73258 3.00136 5.86571 3.00006 6.00004C3.0052 6.13469 2.97848 6.26866 2.92206 6.39104C2.86895 6.51003 2.79475 6.61844 2.70306 6.71104C2.6132 6.80029 2.50736 6.87187 2.39106 6.92204C2.26752 6.97478 2.13438 7.00133 2.00006 7.00004C1.81552 6.99912 1.63472 6.94795 1.47706 6.85204L1.48406 6.84404L1.47706 6.83604ZM1.85906 7.99204C1.88508 7.99722 1.91153 7.9999 1.93806 8.00004H2.01606C2.06522 7.99472 2.11462 7.99205 2.16406 7.99204C2.21149 7.99254 2.2588 7.9875 2.30506 7.97704L6.00006 10.75L4.30006 12.023C4.20077 12.008 4.10049 12.0003 4.00006 12C3.74038 12.0017 3.4833 12.0519 3.24206 12.148L1.85906 7.99204ZM4.92206 14.392C4.86895 14.511 4.79475 14.6194 4.70306 14.712C4.6132 14.8013 4.50736 14.8729 4.39106 14.923C4.26744 14.9754 4.13431 15.0017 4.00006 15C3.86541 15.0052 3.73144 14.9785 3.60906 14.922C3.49007 14.8689 3.38166 14.7947 3.28906 14.703C3.19981 14.6132 3.12823 14.5073 3.07806 14.391C3.02532 14.2675 2.99876 14.1344 3.00006 14C2.99492 13.8654 3.02165 13.7314 3.07806 13.609C3.13118 13.49 3.20537 13.3816 3.29706 13.289C3.38666 13.1995 3.49256 13.1278 3.60906 13.078C3.73261 13.0253 3.86574 12.9987 4.00006 13C4.13472 12.9949 4.26868 13.0216 4.39106 13.078C4.51006 13.1312 4.61847 13.2053 4.71106 13.297C4.80032 13.3869 4.87189 13.4927 4.92206 13.609C4.9748 13.7326 5.00136 13.8657 5.00006 14C5.0052 14.1347 4.97848 14.2687 4.92206 14.391V14.392Z" fill="#0078D4"/>
<path d="M14 13H16V14H14V16H13V14H11V13H13V11H14V13Z" fill="#0078D4"/>
</g>
<defs>
<clipPath id="clip0">
<rect width="16" height="16" fill="white"/>
</clipPath>
</defs>
</svg>
