<svg id="Layer_1" data-name="Layer 1" xmlns="http://www.w3.org/2000/svg" xmlns:xlink="http://www.w3.org/1999/xlink" viewBox="0 0 32 32"><defs><style>.cls-1{fill:#9cebff;}.cls-2{fill:url(#linear-gradient);}.cls-3{fill:url(#linear-gradient-2);}.cls-4{fill:url(#linear-gradient-3);}.cls-5{fill:url(#linear-gradient-4);}.cls-6{fill:url(#linear-gradient-5);}.cls-7{fill:none;}</style><linearGradient id="linear-gradient" x1="16.02" y1="1265.902" x2="16.02" y2="1276.291" gradientTransform="matrix(1, 0, 0, -1, 0, 1276)" gradientUnits="userSpaceOnUse"><stop offset="0.31" stop-color="#32bedd"/><stop offset="0.688" stop-color="#47d7f5"/><stop offset="1" stop-color="#50e6ff"/></linearGradient><linearGradient id="linear-gradient-2" x1="27.811" y1="1257.919" x2="27.811" y2="1268.487" xlink:href="#linear-gradient"/><linearGradient id="linear-gradient-3" x1="4.187" y1="1258.09" x2="4.187" y2="1268.479" xlink:href="#linear-gradient"/><linearGradient id="linear-gradient-4" x1="23.909" y1="1242.239" x2="23.909" y2="1252.628" xlink:href="#linear-gradient"/><linearGradient id="linear-gradient-5" x1="8.131" y1="1242.239" x2="8.131" y2="1252.628" xlink:href="#linear-gradient"/></defs><title>j_</title><path class="cls-1" d="M23.909,32a4.081,4.081,0,0,1-3.5-1.972H11.636A4.084,4.084,0,0,1,8.131,32a3.965,3.965,0,0,1-1.584-.32A4.365,4.365,0,0,1,5.239,30.8a3.853,3.853,0,0,1-.881-1.3,4.363,4.363,0,0,1-.319-1.594,4.093,4.093,0,0,1,.208-1.3,3.994,3.994,0,0,1,.576-1.105L1.335,15.027a3.7,3.7,0,0,1-.9-1.282,4.067,4.067,0,0,1-.016-3.2,4.373,4.373,0,0,1,.878-1.307,3.839,3.839,0,0,1,1.3-.881,4.349,4.349,0,0,1,1.6-.32,4.687,4.687,0,0,1,.67.048l7.078-3.56c0-.033,0-.284,0-.284a3.966,3.966,0,0,1,.32-1.585,4.37,4.37,0,0,1,.877-1.307,3.843,3.843,0,0,1,1.3-.881,4.343,4.343,0,0,1,1.594-.32,3.9,3.9,0,0,1,1.572.321,4.488,4.488,0,0,1,1.306.86,3.816,3.816,0,0,1,.9,1.3,4.188,4.188,0,0,1,.335,1.565v.2a.806.806,0,0,1-.011.134L27.272,8.1a2.066,2.066,0,0,1,.582-.062,3.934,3.934,0,0,1,1.584.321,4.35,4.35,0,0,1,1.308.877,3.858,3.858,0,0,1,.881,1.3,4.365,4.365,0,0,1,.319,1.6,4.015,4.015,0,0,1-.576,2.1A4.071,4.071,0,0,1,29.844,15.7l-2.66,9.761a4.083,4.083,0,0,1,.5,4.035A4.343,4.343,0,0,1,26.8,30.8a3.857,3.857,0,0,1-1.3.881A4.376,4.376,0,0,1,23.912,32h0Zm.006-5.917a1.778,1.778,0,0,0-.717.142,1.859,1.859,0,0,0-.571.385,2.025,2.025,0,0,0-.4.589,1.545,1.545,0,0,0-.14.7,1.768,1.768,0,0,0,.142.717,1.859,1.859,0,0,0,.385.571,2.027,2.027,0,0,0,.588.4,1.558,1.558,0,0,0,.644.141,1.9,1.9,0,0,0,.777-.143,1.826,1.826,0,0,0,.57-.385,2,2,0,0,0,.4-.589,1.53,1.53,0,0,0,.141-.7,1.778,1.778,0,0,0-.142-.717,1.826,1.826,0,0,0-.385-.57,1.986,1.986,0,0,0-.589-.4,1.529,1.529,0,0,0-.64-.142v-.148Zm-15.778,0a1.778,1.778,0,0,0-.717.142,1.859,1.859,0,0,0-.571.385,2.025,2.025,0,0,0-.4.589,1.545,1.545,0,0,0-.14.7,1.768,1.768,0,0,0,.142.717,1.859,1.859,0,0,0,.385.571,2.027,2.027,0,0,0,.588.4,1.558,1.558,0,0,0,.644.141,1.9,1.9,0,0,0,.777-.143,1.826,1.826,0,0,0,.57-.385,2,2,0,0,0,.4-.589,1.53,1.53,0,0,0,.141-.7,1.778,1.778,0,0,0-.142-.717,1.826,1.826,0,0,0-.385-.57,2,2,0,0,0-.589-.4,1.529,1.529,0,0,0-.64-.142v-.148ZM19.826,27.76l.017-.26-6.119-4.585-2.741,2.06a3.819,3.819,0,0,1,.889,1.255,4.106,4.106,0,0,1,.349,1.53Zm.9-2.429a4.244,4.244,0,0,1,1.346-1.084,4.022,4.022,0,0,1,1.839-.432,4.127,4.127,0,0,1,1.317.217l2.132-7.845a4.244,4.244,0,0,1-1.47-.476,4.144,4.144,0,0,1-1.219-1L15.605,21.5Zm-14-1.267a4.231,4.231,0,0,1,1.4-.249,3.988,3.988,0,0,1,.562.039L11.829,21.5,4.752,16.186a1.322,1.322,0,0,1-.242.021,2.426,2.426,0,0,0-.276.014H4.119Zm7-3.984,10.063-7.543-.017-.26H8.277a4.132,4.132,0,0,1-.35,1.53,3.835,3.835,0,0,1-.888,1.256Zm14.135-9.775a1.778,1.778,0,0,0-.717.142,1.859,1.859,0,0,0-.571.385,2.022,2.022,0,0,0-.4.589,1.533,1.533,0,0,0-.141.7,1.785,1.785,0,0,0,.142.717,1.859,1.859,0,0,0,.385.571,2.01,2.01,0,0,0,.589.4,1.539,1.539,0,0,0,.643.142,1.892,1.892,0,0,0,.777-.143,1.83,1.83,0,0,0,.571-.385,1.978,1.978,0,0,0,.4-.589,1.505,1.505,0,0,0,.141-.7,1.778,1.778,0,0,0-.142-.717,1.826,1.826,0,0,0-.385-.57,1.986,1.986,0,0,0-.589-.4,1.525,1.525,0,0,0-.64-.142v-.148ZM3.315,13.73a1.846,1.846,0,0,0,.872.224,1.773,1.773,0,0,0,.711-.142,1.83,1.83,0,0,0,.571-.385,1.978,1.978,0,0,0,.4-.589,1.518,1.518,0,0,0,.141-.7,1.778,1.778,0,0,0-.142-.717,1.826,1.826,0,0,0-.385-.57,1.986,1.986,0,0,0-.589-.4,1.525,1.525,0,0,0-.64-.142,1.894,1.894,0,0,0-.78.143,1.859,1.859,0,0,0-.571.385,2.022,2.022,0,0,0-.4.589,1.533,1.533,0,0,0-.141.7,1.825,1.825,0,0,0,.228.89,1.77,1.77,0,0,0,.529.591l.02-.02.135.1Zm21.033-3.72a3.729,3.729,0,0,1,.245-.359c.066-.086.137-.17.211-.252L19.319,6.664a3.877,3.877,0,0,1-1.382,1.19,4.277,4.277,0,0,1-1.914.479,4.106,4.106,0,0,1-1.9-.463,3.968,3.968,0,0,1-1.4-1.206L7.23,9.4c.069.081.136.164.2.249q.133.172.256.359ZM16.026,2.416a1.778,1.778,0,0,0-.717.142,1.859,1.859,0,0,0-.571.385,2.025,2.025,0,0,0-.4.589,1.545,1.545,0,0,0-.14.7,1.768,1.768,0,0,0,.142.717,1.859,1.859,0,0,0,.385.571,2.024,2.024,0,0,0,.588.4,1.543,1.543,0,0,0,.644.142,1.9,1.9,0,0,0,.777-.143,1.826,1.826,0,0,0,.57-.385,2,2,0,0,0,.4-.589,1.53,1.53,0,0,0,.141-.7,1.778,1.778,0,0,0-.142-.717,1.826,1.826,0,0,0-.385-.57,2,2,0,0,0-.589-.4,1.529,1.529,0,0,0-.64-.142V2.267Z"/><ellipse class="cls-2" cx="16.02" cy="4.247" rx="4.065" ry="4.09"/><ellipse class="cls-3" cx="27.811" cy="12.129" rx="4.135" ry="4.16"/><ellipse class="cls-4" cx="4.187" cy="12.059" rx="4.065" ry="4.09"/><ellipse class="cls-5" cx="23.909" cy="27.91" rx="4.065" ry="4.09"/><ellipse class="cls-6" cx="8.131" cy="27.91" rx="4.065" ry="4.09"/><rect class="cls-7" width="32" height="32"/></svg>