<svg width="40" height="40" viewBox="0 0 40 40" fill="none" xmlns="http://www.w3.org/2000/svg">
<path d="M20 40C31.0457 40 40 31.0457 40 20C40 8.95431 31.0457 0 20 0C8.95431 0 0 8.95431 0 20C0 31.0457 8.95431 40 20 40Z" fill="#57A300"/>
<path d="M8.88302 20.7289C8.69802 20.5314 8.60302 20.2714 8.61302 20.0014C8.62302 19.7289 8.73802 19.4789 8.93802 19.2914L11.0255 17.3614C11.2155 17.1889 11.458 17.0939 11.7105 17.0939C11.9905 17.0939 12.2605 17.2114 12.4505 17.4164L17.7905 23.1464L27.308 10.9589C27.5005 10.7114 27.7905 10.5664 28.1055 10.5664C28.3305 10.5664 28.543 10.6389 28.723 10.7764L30.988 12.5239C31.4205 12.8439 31.513 13.4664 31.188 13.9089L19.018 29.4914C18.5455 30.0964 17.643 30.1364 17.118 29.5739L8.88302 20.7289Z" fill="white"/>
</svg>
