<svg width="16" height="16" viewBox="0 0 16 16" fill="none" xmlns="http://www.w3.org/2000/svg">
<path d="M15.7917 13.92L9.26272 0.771C8.73073 -0.257 7.26772 -0.257 6.73873 0.771L0.208725 13.716C-0.323275 14.744 0.208725 15.978 1.27173 15.978H14.7287C15.7917 16.182 16.3227 14.95 15.7917 13.92Z" fill="#DB7500"/>
<path d="M7.99978 14.4488C8.80004 14.4488 9.44878 13.8 9.44878 12.9998C9.44878 12.1995 8.80004 11.5508 7.99978 11.5508C7.19952 11.5508 6.55078 12.1995 6.55078 12.9998C6.55078 13.8 7.19952 14.4488 7.99978 14.4488Z" fill="white"/>
<path d="M6.59961 4L7.09961 10H8.89961L9.39961 4H6.59961Z" fill="white"/>
</svg>
