<svg xmlns="http://www.w3.org/2000/svg" viewBox="0 0 16 16"><style>.icon-canvas-transparent{opacity:0;fill:#f6f6f6}.icon-vs-out{fill:#f6f6f6}.icon-vs-bg{fill:#424242}.icon-vs-fg{fill:#f0eff1}</style><path class="icon-canvas-transparent" d="M16 16H0V0h16v16z" id="canvas"/><path class="icon-vs-out" d="M16 16H0V0h16v16z" id="outline" style="display: none;"/><path class="icon-vs-bg" d="M12 7H9V4l1-1v2l2-2 1 1-2 2h2l-1 1zm-2 1H9v4H4V8h4V6H3v7h7V8zm5-7v14H1V1h14zm-1 1H2v12h12V2z" id="iconBg"/><path class="icon-vs-fg" d="M12.414 8L14 6.414V14H2V2h7.586L8 3.586V6H3v7h7V8h2.414zM4 8v4h5V8H4z" id="iconFg" style="display: none;"/></svg>