<svg id="Layer_1" data-name="Layer 1" xmlns="http://www.w3.org/2000/svg" viewBox="0 0 16 16"><defs><style>.cls-1{fill:#fff;}</style></defs><title>view_as_chart_inverse_16x16</title><rect class="cls-1" x="0.5" y="14.43" width="14.99" height="1"/><rect class="cls-1" x="13.52" y="0.41" width="1" height="13.03"/><path class="cls-1" d="M2,12.55a.71.71,0,0,0,.44-.15v1h-1V12.31A.74.74,0,0,0,2,12.55Z"/><path class="cls-1" d="M5.52,6.43v.29a2.58,2.58,0,0,1-.14-.29Z"/><polygon class="cls-1" points="4.52 10.37 5.52 9.37 5.52 13.43 4.52 13.43 4.52 10.37"/><path class="cls-1" d="M7.54,8.95a3.68,3.68,0,0,0,1,.18v4.3h-1Z"/><path class="cls-1" d="M10.93,8.57a3.07,3.07,0,0,0,.59-.43v5.31h-1V8.78A3.18,3.18,0,0,0,10.93,8.57Z"/><path class="cls-1" d="M5.38,6.43a2.58,2.58,0,0,0,.14.29V6.43Z"/><path class="cls-1" d="M5.38,6.43a2.58,2.58,0,0,0,.14.29V6.43Z"/><path class="cls-1" d="M12.42,4a3.71,3.71,0,0,0-.37-.89A3.85,3.85,0,0,0,10.7,1.73a3.35,3.35,0,0,0-.89-.37,3.78,3.78,0,0,0-2.88.37,4.3,4.3,0,0,0-.76.59,3.92,3.92,0,0,0-.58.76A3.73,3.73,0,0,0,5.21,4a3.63,3.63,0,0,0-.13,1A3.61,3.61,0,0,0,5.3,6.23a1.19,1.19,0,0,0,.08.2h.14v.29a4.32,4.32,0,0,0,.42.63,4,4,0,0,1-.3.3l-.54.54-.58.56-.11.11-.76.75-.73.74-.47.48L2.29,11q-.29.29-.45.48a.67.67,0,0,0-.16.24.41.41,0,0,0,.09.26A.31.31,0,0,0,2,12.1a.33.33,0,0,0,.24-.1l.2-.2,2.06-2,1-1,.91-.91a3.87,3.87,0,0,0,1.11.64,3.37,3.37,0,0,0,1,.21h.28a3.64,3.64,0,0,0,1-.13,3.41,3.41,0,0,0,.71-.29l.18-.09a3.61,3.61,0,0,0,.76-.59l.06-.07a3.46,3.46,0,0,0,.53-.68A4.08,4.08,0,0,0,12.42,6a3.61,3.61,0,0,0,0-2Zm-.79,2.18a1.63,1.63,0,0,1-.11.23,3.13,3.13,0,0,1-.54.74,3.32,3.32,0,0,1-.46.38,3.15,3.15,0,0,1-.51.28A3,3,0,0,1,8.82,8H8.54a3.12,3.12,0,0,1-.91-.23l-.09,0a3,3,0,0,1-.88-.62A3,3,0,0,1,5.76,5,3,3,0,0,1,6,3.77a3.09,3.09,0,0,1,.66-1,3,3,0,0,1,1-.65A2.82,2.82,0,0,1,8.82,1.9,2.86,2.86,0,0,1,10,2.15a4.12,4.12,0,0,1,.51.27A3.31,3.31,0,0,1,11,2.8a3.6,3.6,0,0,1,.54.74,1.63,1.63,0,0,1,.11.23A2.82,2.82,0,0,1,11.88,5,2.82,2.82,0,0,1,11.63,6.15Z"/></svg>