<svg id="Layer_1" data-name="Layer 1" xmlns="http://www.w3.org/2000/svg" viewBox="0 0 16 16"><defs><style>.cls-1{fill:#c91f1f;}</style></defs><title>view_as_chart_16x16</title><rect x="0.5" y="14.22" width="14.99" height="1"/><rect x="13.52" y="0.2" width="1" height="13.03"/><path d="M2,12.34a.71.71,0,0,0,.44-.15v1h-1V12.1A.74.74,0,0,0,2,12.34Z"/><path d="M5.52,6.22v.29a2.58,2.58,0,0,1-.14-.29Z"/><polygon points="4.52 10.16 5.52 9.16 5.52 13.22 4.52 13.22 4.52 10.16"/><path d="M7.54,8.74a3.68,3.68,0,0,0,1,.18v4.3h-1Z"/><path d="M10.93,8.36a3.07,3.07,0,0,0,.59-.43v5.31h-1V8.57A3.18,3.18,0,0,0,10.93,8.36Z"/><path class="cls-1" d="M5.38,6.22a2.58,2.58,0,0,0,.14.29V6.22Z"/><path class="cls-1" d="M5.38,6.22a2.58,2.58,0,0,0,.14.29V6.22Z"/><path d="M12.42,3.76a3.71,3.71,0,0,0-.37-.89A3.85,3.85,0,0,0,10.7,1.52a3.35,3.35,0,0,0-.89-.37,3.78,3.78,0,0,0-2.88.37,4.3,4.3,0,0,0-.76.59,3.92,3.92,0,0,0-.58.76,3.73,3.73,0,0,0-.38.89,3.63,3.63,0,0,0-.13,1A3.61,3.61,0,0,0,5.3,6a1.19,1.19,0,0,0,.08.2h.14v.29a4.32,4.32,0,0,0,.42.63,4,4,0,0,1-.3.3L5.1,8l-.58.56-.11.11-.76.75-.73.74-.47.48-.16.18q-.29.29-.45.48a.67.67,0,0,0-.16.24.41.41,0,0,0,.09.26.31.31,0,0,0,.25.11.33.33,0,0,0,.24-.1l.2-.2,2.06-2,1-1,.91-.91a3.87,3.87,0,0,0,1.11.64,3.37,3.37,0,0,0,1,.21h.28a3.64,3.64,0,0,0,1-.13,3.41,3.41,0,0,0,.71-.29L10.7,8a3.61,3.61,0,0,0,.76-.59l.06-.07a3.46,3.46,0,0,0,.53-.68,4.08,4.08,0,0,0,.37-.89,3.61,3.61,0,0,0,0-2Zm-.79,2.18a1.63,1.63,0,0,1-.11.23,3.13,3.13,0,0,1-.54.74,3.32,3.32,0,0,1-.46.38,3.15,3.15,0,0,1-.51.28,3,3,0,0,1-1.19.24H8.54a3.12,3.12,0,0,1-.91-.23l-.09,0a3,3,0,0,1-.88-.62,3,3,0,0,1-.9-2.16A3,3,0,0,1,6,3.56a3.09,3.09,0,0,1,.66-1,3,3,0,0,1,1-.65,2.82,2.82,0,0,1,1.19-.25A2.86,2.86,0,0,1,10,1.94a4.12,4.12,0,0,1,.51.27,3.31,3.31,0,0,1,.46.38,3.6,3.6,0,0,1,.54.74,1.63,1.63,0,0,1,.11.23,2.82,2.82,0,0,1,.25,1.19A2.82,2.82,0,0,1,11.63,5.94Z"/></svg>