<?xml version="1.0" encoding="utf-8"?>
<!-- Generator: Adobe Illustrator 23.0.2, SVG Export Plug-In . SVG Version: 6.00 Build 0)  -->
<svg version="1.1" id="Layer_1" xmlns="http://www.w3.org/2000/svg" xmlns:xlink="http://www.w3.org/1999/xlink" x="0px" y="0px"
	 viewBox="0 0 16 16" style="enable-background:new 0 0 16 16;" xml:space="preserve">
<style type="text/css">
	.st0{fill:#4894FE;}
</style>
<title>clear_results_inverse</title>
<path class="st0" d="M8.7,13.8H12v1H3.5l-3.2-3.2c-0.1-0.1-0.2-0.3-0.3-0.4c-0.1-0.3-0.1-0.7,0-1.1C0.2,10,0.3,9.9,0.4,9.7l9.4-9.4
	L16,6.6L8.7,13.8z M7.3,13.8l1-1L3.5,8l-2.4,2.4c-0.1,0.2-0.1,0.4,0,0.6L4,13.8H7.3z M9.8,1.8L4.2,7.3L9,12.1l5.5-5.5L9.8,1.8z"/>
</svg>
