<svg id="Layer_1" data-name="Layer 1" xmlns="http://www.w3.org/2000/svg" viewBox="0 0 16 16"><defs><style>.cls-1{fill:#212121;}</style></defs><title>queuedtask_16x16</title><path class="cls-1" d="M4,7a3.45,3.45,0,0,1-.93-.13,3.56,3.56,0,0,1-.84-.35A3.5,3.5,0,0,1,1,5.28,3.54,3.54,0,0,1,.6,4.44a3.54,3.54,0,0,1,0-1.87A3.54,3.54,0,0,1,1,1.74,3.5,3.5,0,0,1,2.21.48,3.55,3.55,0,0,1,3.05.13a3.54,3.54,0,0,1,1.87,0,3.55,3.55,0,0,1,.84.35A3.5,3.5,0,0,1,7,1.74a3.55,3.55,0,0,1,.35.84,3.54,3.54,0,0,1,0,1.87A3.56,3.56,0,0,1,7,5.28,3.5,3.5,0,0,1,5.76,6.54a3.55,3.55,0,0,1-.84.35A3.45,3.45,0,0,1,4,7ZM4,.44a3,3,0,0,0-.81.11A3.08,3.08,0,0,0,1,2.7,3.08,3.08,0,0,0,1,4.33,3.08,3.08,0,0,0,3.17,6.47a3.08,3.08,0,0,0,1.63,0A3.08,3.08,0,0,0,6.95,4.33a3.08,3.08,0,0,0,0-1.63A3.08,3.08,0,0,0,4.8.55,3,3,0,0,0,4,.44ZM4,3.51V1.32H3.55V3.95H5.3V3.51Z"/><rect class="cls-1" x="1" y="14.01" width="14" height="1"/><rect class="cls-1" x="1" y="11.03" width="14" height="1"/><rect class="cls-1" x="1" y="7.96" width="14" height="1"/><rect class="cls-1" x="9" y="4.88" width="5.97" height="1"/><rect class="cls-1" x="9" y="1.88" width="5.97" height="1"/></svg>