<svg id="Layer_1" data-name="Layer 1" xmlns="http://www.w3.org/2000/svg" viewBox="0 0 16 16"><title>other_account_16x16</title><path d="M8,.28A7.71,7.71,0,1,0,15.72,8,7.73,7.73,0,0,0,8,.28ZM4.2,13.53a4,4,0,0,1,.13-.93,3.69,3.69,0,0,1,1-1.66A3.56,3.56,0,0,1,6,10.36a4,4,0,0,1,.9-.38,4.17,4.17,0,0,1,1-.13,3.79,3.79,0,0,1,1.48.29,3.61,3.61,0,0,1,2,2,3.74,3.74,0,0,1,.29,1.47A6.62,6.62,0,0,1,8,14.71,6.71,6.71,0,0,1,4.2,13.53Zm2-5a2.76,2.76,0,0,1-.54-.79,2.43,2.43,0,0,1-.19-1,2.4,2.4,0,0,1,.19-1A2.82,2.82,0,0,1,6.18,5,2.81,2.81,0,0,1,7,4.42a2.4,2.4,0,0,1,1-.19,2.43,2.43,0,0,1,1,.19A2.76,2.76,0,0,1,9.71,5a2.46,2.46,0,0,1,.54.8,2.4,2.4,0,0,1,.2,1,2.44,2.44,0,0,1-.2,1A2.59,2.59,0,0,1,8.92,9a2.44,2.44,0,0,1-1,.2A2.4,2.4,0,0,1,7,9,2.46,2.46,0,0,1,6.18,8.49Zm6.12,4.66a4.39,4.39,0,0,0-.18-.89,4.22,4.22,0,0,0-.57-1.19A4.24,4.24,0,0,0,9.44,9.48a3.41,3.41,0,0,0,.68-.5A3.36,3.36,0,0,0,11,7.56a3.32,3.32,0,0,0,.11-.83,3.09,3.09,0,0,0-.24-1.22,3.26,3.26,0,0,0-.67-1,3,3,0,0,0-1-.67A3,3,0,0,0,7.95,3.6a2.93,2.93,0,0,0-1.22.25A3.07,3.07,0,0,0,5.07,5.51a2.93,2.93,0,0,0-.25,1.22,3,3,0,0,0,.12.84,3,3,0,0,0,.32.76A3.3,3.3,0,0,0,5.78,9a3.06,3.06,0,0,0,.68.5,4.41,4.41,0,0,0-1.19.65,4.1,4.1,0,0,0-.91,1,4.18,4.18,0,0,0-.58,1.18,4.41,4.41,0,0,0-.18.8A6.66,6.66,0,0,1,1.28,8a6.72,6.72,0,1,1,11,5.15Z"/></svg>