<svg id="Layer_1" data-name="Layer 1" xmlns="http://www.w3.org/2000/svg" viewBox="0 0 16 16"><defs><style>.cls-1{fill:#fff;}</style></defs><title>queuedtask_inverse_16x16</title><path class="cls-1" d="M4.08,7.37a3.45,3.45,0,0,1-.93-.13,3.56,3.56,0,0,1-.84-.35A3.5,3.5,0,0,1,1,5.63,3.54,3.54,0,0,1,.7,4.79a3.54,3.54,0,0,1,0-1.87A3.54,3.54,0,0,1,1,2.09,3.5,3.5,0,0,1,2.31.83,3.55,3.55,0,0,1,3.15.47,3.54,3.54,0,0,1,5,.47a3.55,3.55,0,0,1,.84.35A3.5,3.5,0,0,1,7.11,2.09a3.55,3.55,0,0,1,.35.84,3.54,3.54,0,0,1,0,1.87,3.56,3.56,0,0,1-.35.84A3.5,3.5,0,0,1,5.85,6.89,3.55,3.55,0,0,1,5,7.25,3.45,3.45,0,0,1,4.08,7.37Zm0-6.58A3,3,0,0,0,3.27.9,3.08,3.08,0,0,0,1.12,3a3.08,3.08,0,0,0,0,1.63A3.08,3.08,0,0,0,3.27,6.82a3.08,3.08,0,0,0,1.63,0A3.08,3.08,0,0,0,7,4.67,3.08,3.08,0,0,0,7,3,3.08,3.08,0,0,0,4.9.9,3,3,0,0,0,4.08.79Zm0,3.07V1.67H3.64V4.3H5.4V3.86Z"/><rect class="cls-1" x="1.09" y="14.36" width="14" height="1"/><rect class="cls-1" x="1.09" y="11.38" width="14" height="1"/><rect class="cls-1" x="1.09" y="8.31" width="14" height="1"/><rect class="cls-1" x="9.09" y="5.22" width="5.97" height="1"/><rect class="cls-1" x="9.09" y="2.22" width="5.97" height="1"/></svg>