<svg xmlns="http://www.w3.org/2000/svg" viewBox="0 0 16 16"><style>.icon-canvas-transparent{opacity:0;fill:#2d2d30}.icon-vs-out{fill:#2d2d30}.icon-vs-bg{fill:#c5c5c5}.icon-vs-fg{fill:#2b282e}</style><path class="icon-canvas-transparent" d="M16 16H0V0h16v16z" id="canvas"/><path class="icon-vs-out" d="M16 16H0V0h16v16z" id="outline" style="display: none;"/><path class="icon-vs-fg" d="M11 9.414l3-3V14H2V2h7.586l-3 3h2l-1 1H3v7h7V8.414l1-1v2zM4 12h5V8H4v4z" id="iconFg" style="display: none;"/><path class="icon-vs-bg" d="M7.586 6H3v7h7V8.414L7.586 6zM9 12H4V8h5v4zM1 1v14h14V1H1zm13 13H2V2h12v12zM9 6l2-2H9l1-1h3v3l-1 1V5l-2 2-1-1z" id="iconBg"/></svg>