<svg xmlns="http://www.w3.org/2000/svg" viewBox="0 0 16 16"><style>.icon-canvas-transparent{opacity:0;fill:#f6f6f6}.icon-vs-out{fill:#f6f6f6}.icon-vs-bg{fill:#424242}.icon-vs-fg{fill:#f0eff1}.icon-vs-action-blue{fill:#00539c}</style><path class="icon-canvas-transparent" d="M16 0v16H0V0h16z" id="canvas"/><path class="icon-vs-out" d="M16 7v8H3.964C3.012 15 2 14.299 2 13V8H.586l2-2H0V2h2.586l-2-2h4.828l1 1h3.608L14 4.552V7h2z" id="outline" style="display: none;"/><path class="icon-vs-fg" d="M9 6h3v1H7v6H4V8h1.414L9 4.414V6zm0-3h-.586L9 3.586V3zm0 10h1v-1H9v1zm0-2h1v-1H9v1zm2 2h1v-1h-1v1zm2-3v1h1v-1h-1zm-2 1h1v-1h-1v1zm2 2h1v-1h-1v1z" id="iconFg" style="display: none;"/><path class="icon-vs-bg" d="M8.414 3l-1-1h2.227L13 5v2h-1V6H9V4.414L9.414 4 9 3.586V3h-.586zM4 8H3v5c0 1 .964 1 .964 1H7v-1H4V8zm11 0v6H8V8h7zm-5 4H9v1h1v-1zm0-2H9v1h1v-1zm2 2h-1v1h1v-1zm0-2h-1v1h1v-1zm2 2h-1v1h1v-1zm0-2h-1v1h1v-1z" id="iconBg"/><g id="colorAction"><path class="icon-vs-action-blue" d="M8 4L5 7H3l2-2H1V3h4L3 1h2l3 3z"/></g></svg>